<?xml version="1.0" encoding="UTF-8"?><svg id="_層_2" xmlns="http://www.w3.org/2000/svg" viewBox="0 0 309.02 70.85"><defs><style>.cls-1{fill:#b28247;}</style></defs><g id="_層_1-2"><g><path class="cls-1" d="M46.22,52.85H0v-.72c1.2-.19,2.39-.5,3.56-.94,1.18-.43,2.1-1.03,2.77-1.8,.24-.29,.44-.71,.61-1.26,.17-.55,.3-1.19,.4-1.91,.1-.72,.18-1.48,.25-2.27,.07-.79,.11-1.57,.11-2.34,0-.67,.01-1.58,.04-2.74,.02-1.15,.05-2.41,.07-3.78,.02-1.37,.04-2.77,.04-4.21V10.22c0-.86-.04-1.67-.11-2.41-.07-.74-.18-1.4-.32-1.98-.14-.58-.36-1.03-.65-1.37-.67-.82-1.57-1.44-2.7-1.87-1.13-.43-2.32-.72-3.56-.86v-.72H23.47v.72c-.62,.1-1.37,.24-2.23,.43s-1.68,.5-2.45,.94c-.77,.43-1.43,1.04-1.98,1.84-.55,.79-.85,1.84-.9,3.13-.05,1.68-.08,3.22-.11,4.61-.02,1.39-.05,2.76-.07,4.1-.02,1.34-.04,2.74-.04,4.18v13.1c0,1.25,.01,2.53,.04,3.85,.02,1.32,.04,2.8,.04,4.43,.05,1.54,.11,3,.18,4.39,.07,1.39,.32,2.42,.76,3.1,.19,.24,.58,.48,1.15,.72,.58,.24,1.27,.45,2.09,.61,.82,.17,1.7,.31,2.66,.43,.96,.12,1.92,.18,2.88,.18,.38,0,1-.01,1.84-.04,.84-.02,1.76-.07,2.77-.14s2.04-.18,3.1-.32c1.06-.14,1.99-.34,2.81-.58,1.92-.53,3.52-1.22,4.79-2.09,1.27-.86,2.36-1.86,3.28-2.99,.91-1.13,1.68-2.35,2.3-3.67,.62-1.32,1.22-2.7,1.8-4.14l.72,.22-2.66,14.83Z"/><path class="cls-1" d="M49.82,52.85v-.72c.58-.05,1.15-.11,1.73-.18,.58-.07,1.09-.19,1.55-.36,.46-.17,.84-.4,1.15-.68,.31-.29,.47-.65,.47-1.08V25.13c0-.38-.04-.72-.11-1.01-.07-.29-.28-.55-.61-.79-.43-.29-.95-.58-1.55-.86-.6-.29-1.24-.55-1.91-.79v-.43l9.72-3.17h.43V50.26c.1,.48,.3,.83,.61,1.04,.31,.22,.68,.37,1.12,.47,.43,.1,.9,.16,1.4,.18,.5,.03,1,.08,1.48,.18v.72h-15.48ZM60.16,9.47c-.74,.75-1.67,1.12-2.77,1.12s-1.97-.38-2.74-1.15c-.77-.77-1.15-1.68-1.15-2.74s.37-2.02,1.12-2.74c.74-.72,1.67-1.08,2.77-1.08s2.03,.36,2.77,1.08c.74,.72,1.12,1.63,1.12,2.74s-.37,2.03-1.12,2.77Z"/><path class="cls-1" d="M100.55,19.73c-.7,.1-1.4,.28-2.12,.54-.72,.26-1.39,.66-2.02,1.19-.62,.53-1.13,1.22-1.51,2.09-.58,1.35-1.24,2.93-1.98,4.75-.74,1.83-1.52,3.74-2.34,5.76-.82,2.02-1.62,4.03-2.41,6.05s-1.52,3.87-2.2,5.54c-.38,.86-.71,1.6-.97,2.2-.26,.6-.52,1.16-.76,1.69-.24,.53-.47,1.03-.68,1.51-.22,.48-.47,1.03-.76,1.66-.14,.29-.38,.43-.72,.43-.19,0-.34-.06-.43-.18-.1-.12-.17-.23-.22-.32-.77-1.97-1.49-3.83-2.16-5.58-.67-1.75-1.37-3.55-2.09-5.4-.72-1.85-1.49-3.83-2.3-5.94-.82-2.11-1.73-4.49-2.74-7.13-.14-.38-.35-.9-.61-1.55-.26-.65-.54-1.33-.83-2.05-.29-.72-.58-1.42-.86-2.09-.29-.67-.55-1.22-.79-1.66-.29-.29-.73-.61-1.33-.97-.6-.36-1.69-.59-3.28-.68v-.79h17.35v.79c-.43,.05-.97,.11-1.62,.18s-1.26,.18-1.84,.32c-.58,.14-1.07,.35-1.48,.61-.41,.26-.61,.66-.61,1.19,0,.24,.16,.82,.47,1.73,.31,.91,.72,2.04,1.22,3.38s1.07,2.83,1.69,4.46c.62,1.63,1.26,3.26,1.91,4.9,.65,1.63,1.28,3.22,1.91,4.75,.62,1.54,1.15,2.88,1.58,4.03,.72-1.78,1.56-3.89,2.52-6.34,.96-2.45,1.87-4.85,2.74-7.2,.86-2.35,1.6-4.42,2.2-6.19,.6-1.78,.9-2.88,.9-3.31,0-.67-.18-1.19-.54-1.55-.36-.36-.8-.61-1.33-.76-.53-.14-1.08-.22-1.66-.22s-1.08-.02-1.51-.07v-.72h13.97v.79c-.48,0-1.07,.05-1.76,.14Z"/><path class="cls-1" d="M100.01,52.85v-.72c.58-.05,1.15-.11,1.73-.18,.58-.07,1.09-.19,1.55-.36,.46-.17,.84-.4,1.15-.68,.31-.29,.47-.65,.47-1.08V25.13c0-.38-.04-.72-.11-1.01-.07-.29-.28-.55-.61-.79-.43-.29-.95-.58-1.55-.86-.6-.29-1.24-.55-1.91-.79v-.43l9.72-3.17h.43V50.26c.1,.48,.3,.83,.61,1.04,.31,.22,.68,.37,1.12,.47,.43,.1,.9,.16,1.4,.18,.5,.03,1,.08,1.48,.18v.72h-15.48Zm10.33-43.38c-.74,.75-1.67,1.12-2.77,1.12s-1.97-.38-2.74-1.15c-.77-.77-1.15-1.68-1.15-2.74s.37-2.02,1.12-2.74c.74-.72,1.67-1.08,2.77-1.08s2.03,.36,2.77,1.08c.74,.72,1.12,1.63,1.12,2.74s-.37,2.03-1.12,2.77Z"/><path class="cls-1" d="M139.17,52.85v-.79c1.3-.1,2.33-.25,3.1-.47,.77-.22,1.15-.71,1.15-1.48V31.97c0-2.78-.53-5.03-1.58-6.73-1.06-1.7-2.83-2.56-5.33-2.56-1.58,0-2.9,.34-3.96,1.01-1.06,.67-2.23,1.66-3.53,2.95v23.62c.1,.48,.26,.83,.5,1.04,.24,.22,.53,.37,.86,.47,.33,.1,.72,.16,1.15,.18,.43,.03,.89,.08,1.37,.18v.72h-13.9v-.72c1.1-.09,2.05-.31,2.84-.65,.79-.33,1.19-.89,1.19-1.66V25.06c0-.38-.04-.67-.11-.86-.07-.19-.28-.41-.61-.65-.43-.24-.94-.51-1.51-.83-.58-.31-1.15-.59-1.73-.83v-.43l9.43-3.38h.43v7.78l.14,.07c.53-.82,1.18-1.69,1.97-2.63,.79-.94,1.69-1.79,2.69-2.55,1-.77,2.1-1.4,3.3-1.91,1.19-.5,2.44-.76,3.73-.76,2.77,0,4.9,1.03,6.39,3.1,1.48,2.06,2.22,4.73,2.22,7.99v21.17c0,.34,.16,.62,.47,.86,.31,.24,.68,.42,1.12,.54,.43,.12,.9,.22,1.4,.29,.5,.07,.97,.13,1.4,.18v.65h-14.62Z"/><path class="cls-1" d="M192.27,23.94c-.5,.55-1.12,.83-1.84,.83-.29,0-.72-.12-1.3-.36-.58-.24-1.21-.53-1.91-.87-.7-.33-1.4-.71-2.12-1.12-.72-.41-1.37-.78-1.94-1.12l-.29,.29c.72,1.11,1.33,2.14,1.84,3.1,.5,.96,.76,2.21,.76,3.74,0,3.79-1.32,6.64-3.96,8.53-2.64,1.9-6.29,2.84-10.94,2.84-.67,0-1.36-.05-2.05-.14-.7-.1-1.52-.14-2.48-.14-1.54,.1-2.76,.46-3.67,1.08-.91,.62-1.37,1.42-1.37,2.38,0,.77,.24,1.4,.72,1.91,.48,.5,1.08,.9,1.8,1.19,.72,.29,1.51,.48,2.38,.58,.86,.1,1.7,.14,2.52,.14h11.52c1.68,0,3.19,.26,4.54,.79,1.34,.53,2.5,1.25,3.46,2.16,.96,.91,1.69,1.96,2.2,3.13,.5,1.17,.76,2.48,.76,3.92,0,1.87-.47,3.66-1.4,5.36-.94,1.7-2.24,3.2-3.92,4.5-1.68,1.3-3.66,2.31-5.94,3.06-2.28,.74-4.79,1.12-7.52,1.12-5.23,0-9.3-.78-12.2-2.34-2.9-1.56-4.36-3.71-4.36-6.44,0-1.01,.28-1.92,.83-2.74,.55-.82,1.25-1.6,2.09-2.34,.84-.75,1.78-1.44,2.81-2.09,1.03-.65,2.05-1.28,3.06-1.91v-.14c-2.45-.29-4.33-.98-5.65-2.09-1.32-1.1-1.98-2.57-1.98-4.39,0-.91,.22-1.78,.65-2.59,.43-.82,1.03-1.56,1.8-2.23,.77-.67,1.67-1.23,2.7-1.69,1.03-.46,2.15-.76,3.35-.9v-.21c-2.11-.82-3.76-2.02-4.93-3.6-1.18-1.58-1.76-3.6-1.76-6.05,0-1.54,.35-2.98,1.04-4.32,.7-1.34,1.67-2.51,2.92-3.49,1.25-.98,2.72-1.76,4.43-2.34,1.7-.58,3.56-.86,5.58-.86,1.82,0,3.44,.17,4.86,.5,1.42,.34,2.89,.91,4.43,1.73,.58,.19,1.07,.31,1.48,.36,.41,.05,.9,.07,1.48,.07s1.09-.08,1.55-.25c.46-.17,.88-.36,1.26-.58,.38-.22,.79-.41,1.22-.58,.43-.17,.94-.25,1.51-.25,.82,0,1.49,.29,2.02,.86,.53,.58,.79,1.27,.79,2.09,0,.72-.25,1.36-.76,1.91Zm-7.09,32.22c-.58-1.01-1.27-1.71-2.09-2.09-1.06-.53-2.38-.9-3.96-1.12-1.58-.21-3.77-.32-6.55-.32-1.01,0-2.04,.05-3.1,.14-1.06,.1-1.92,.19-2.59,.29-2.26,.58-3.82,1.49-4.68,2.74-.86,1.25-1.3,2.62-1.3,4.1s.42,2.88,1.26,4.03c.84,1.15,1.88,2.12,3.13,2.92,1.25,.79,2.58,1.38,4,1.76,1.42,.38,2.72,.58,3.92,.58,1.44,0,2.67-.07,3.71-.22,1.03-.14,1.96-.36,2.77-.65,1.68-.67,3.16-1.75,4.43-3.24,1.27-1.49,1.91-3.27,1.91-5.33,0-1.39-.29-2.59-.86-3.6Zm-5.98-31.25c-.34-1.1-.83-2.08-1.48-2.92-.65-.84-1.46-1.51-2.45-2.02-.98-.5-2.12-.76-3.42-.76-1.2,0-2.28,.28-3.24,.83-.96,.55-1.76,1.3-2.41,2.23-.65,.94-1.14,2.01-1.48,3.21-.34,1.2-.5,2.42-.5,3.67,0,2.88,.73,5.2,2.2,6.95,1.46,1.75,3.25,2.63,5.36,2.63,1.3,0,2.44-.29,3.42-.87,.98-.58,1.81-1.34,2.48-2.3,.67-.96,1.18-2.05,1.51-3.28,.34-1.22,.5-2.51,.5-3.85,0-1.25-.17-2.42-.5-3.53Z"/><path class="cls-1" d="M239.4,52.85v-.72c.14,0,.49-.05,1.04-.14,.55-.1,1.13-.26,1.73-.5,.6-.24,1.13-.58,1.58-1.01,.46-.43,.68-.98,.68-1.66,0-.43-.13-1.14-.4-2.12-.26-.98-.64-2.18-1.12-3.6-.48-1.42-1.03-2.99-1.66-4.72-.62-1.73-1.3-3.53-2.02-5.4h-19.15c-.72,1.83-1.42,3.56-2.09,5.22-.67,1.66-1.34,3.32-2.02,5-1.01,2.59-1.51,4.42-1.51,5.47,0,.62,.19,1.14,.58,1.55,.38,.41,.88,.75,1.48,1.01,.6,.26,1.25,.46,1.94,.58,.7,.12,1.36,.23,1.98,.32v.72h-15.34v-.79c1.25-.14,2.32-.48,3.2-1.01,.89-.53,1.4-.89,1.55-1.08,.33-.33,.89-1.13,1.66-2.38,.77-1.25,1.7-3.1,2.81-5.54,1.01-2.26,2.14-4.82,3.38-7.7,1.25-2.88,2.53-5.84,3.85-8.89,1.32-3.05,2.63-6.12,3.92-9.21,1.3-3.1,2.52-5.99,3.67-8.68l-.72-1.58c.86-.38,1.64-.84,2.34-1.37,.7-.53,1.31-1.08,1.84-1.66,.53-.58,.97-1.13,1.33-1.66,.36-.53,.64-.96,.83-1.3h.58c1.49,3.98,2.9,7.76,4.25,11.34,1.34,3.58,2.63,7.02,3.85,10.33,1.22,3.31,2.41,6.52,3.56,9.61,1.15,3.1,2.3,6.16,3.46,9.18,.53,1.49,1.02,2.72,1.48,3.71,.46,.98,.97,2.1,1.55,3.35,.1,.19,.31,.53,.65,1.01,.34,.48,.78,.97,1.33,1.48,.55,.5,1.24,.95,2.05,1.33,.82,.38,1.78,.6,2.88,.65v.86h-21.02Zm-9.43-43.63c-.29,.62-.71,1.61-1.26,2.95-.55,1.34-1.24,2.98-2.05,4.9-.82,1.92-1.72,4.09-2.7,6.52-.98,2.42-2.05,5.05-3.2,7.88h17.93c-.82-2.16-1.65-4.32-2.48-6.48-.84-2.16-1.66-4.24-2.45-6.23-.79-1.99-1.51-3.82-2.16-5.47-.65-1.66-1.19-3.01-1.62-4.07Z"/><path class="cls-1" d="M283.6,24.52c-.62,.7-1.34,1.04-2.16,1.04-.77,0-1.38-.13-1.84-.4-.46-.26-.85-.56-1.19-.9-.34-.34-.7-.64-1.08-.9-.38-.26-.91-.4-1.58-.4-.58,0-1.14,.2-1.69,.61-.55,.41-1.07,.92-1.55,1.55-.48,.62-.91,1.33-1.3,2.12-.38,.79-.72,1.55-1.01,2.27v20.74c.14,.43,.46,.77,.94,1.01,.48,.24,1.02,.41,1.62,.5,.6,.1,1.22,.16,1.87,.18,.65,.03,1.21,.08,1.69,.18v.72h-16.13v-.72c1.1-.09,2.05-.31,2.84-.65,.79-.33,1.19-.89,1.19-1.66V25.49c0-.38-.04-.67-.11-.87-.07-.19-.28-.41-.61-.65-.43-.24-.94-.54-1.51-.9-.58-.36-1.15-.66-1.73-.9v-.43l9.43-3.67h.43l-.14,10.01h.14c.24-.58,.62-1.42,1.15-2.52,.53-1.1,1.2-2.22,2.02-3.35,.82-1.13,1.8-2.1,2.95-2.92,1.15-.82,2.47-1.22,3.96-1.22,1.2,0,2.22,.36,3.06,1.08,.84,.72,1.26,1.63,1.26,2.74s-.31,1.93-.94,2.63Z"/><path class="cls-1" d="M306.79,23.18h-10.94v18.94c0,2.45,.53,4.22,1.58,5.33,1.06,1.11,2.42,1.66,4.1,1.66,1.39,0,2.54-.23,3.46-.68,.91-.46,1.7-1.16,2.38-2.12l.43,.22c-.29,.72-.68,1.48-1.19,2.27-.5,.79-1.18,1.51-2.02,2.16-.84,.65-1.82,1.15-2.95,1.51-1.13,.36-2.46,.54-4,.54-1.01,0-1.98-.16-2.9-.47-.93-.31-1.75-.77-2.46-1.37s-1.29-1.27-1.74-2.02c-.45-.74-.68-1.5-.68-2.27,0-4.51,.02-8.79,.07-12.85,.05-4.06,.07-7.67,.07-10.84h-5.26v-.79l10.37-9.86h.57v6.26h13.32l-2.23,4.39Z"/></g></g></svg>