<?xml version="1.0" encoding="UTF-8"?><svg id="_層_2" xmlns="http://www.w3.org/2000/svg" viewBox="0 0 548.42 65.6"><defs><style>.cls-1{fill:#b28247;}</style></defs><g id="_層_1-2"><g><path class="cls-1" d="M54.79,7.63c-7.18,.56-15.23,.91-24.07,1.19-.47,.77-.93,1.47-1.33,2.1h31.39v6.58h-12.37c1.13,.91,2.33,1.68,3.59,2.38,2.66,1.54,5.85,2.87,9.51,3.85l-3.86,7.7c-3.06-1.26-5.92-2.94-8.58-4.9v7.07H11.9v-6.51c-2.79,1.54-5.79,2.87-9.04,4.06L0,24.01c5.39-1.89,9.91-4.06,13.57-6.51H.73v-6.58H21.08c.53-.63,1.06-1.26,1.6-1.89-4.52,.14-9.24,.21-14.16,.21L6.45,2.45c14.9,0,29.79-.56,44.69-1.68l3.66,6.86Zm1.53,47.32c0,6.02-2.73,9.03-8.05,9.03-1.6,0-3.46-.14-5.45-.28l-1.13-5.74H22.34v2.45h-6.78v-16.94h29.59v12.88c1.06,.14,2.13,.21,3.13,.21,.33,0,.53-1.19,.53-3.57v-11.2H12.17v22.19H4.65v-28.77H56.32v19.74Zm-14.56-27.37v-2.17H19.22v2.17h22.54Zm-.27-8.19c-.53-.56-1.06-1.19-1.53-1.89h-15.76c-.67,.7-1.26,1.33-1.86,1.89h19.15Zm-3.06,32.55v-2.45H22.34v2.45h16.09Z"/><path class="cls-1" d="M117.64,22.12c-2.19,11.97-5.05,22.75-8.65,32.27h18.02v7.63h-59.78v-7.63h33.38c3.86-11.27,6.78-22.68,8.71-34.16l8.31,1.89ZM101.01,.77V11.2h23.41v7.63h-54.33v-7.63h22.61V.77h8.31Zm-9.84,49l-8.58,2.94c-1.2-10.64-3.13-20.3-5.72-28.98l7.78-2.45c2.79,8.61,4.92,18.13,6.52,28.49Z"/><path class="cls-1" d="M158.14,6.51h11.17c.93-2.03,1.73-4.13,2.39-6.3l8.05,2.52c-.67,1.4-1.26,2.66-1.86,3.78h13.77v7.7h-24.14v3.29h22.34v7.63h-22.34v3.29h25.73v7.63h-33.25l6.25,1.12c-.2,1.19-.4,2.31-.6,3.29h26v7.63h-19.68c1.66,1.19,3.59,2.24,5.72,3.22,4.19,1.96,9.64,3.43,16.36,4.41l-3.13,7.98c-7.05-1.33-13.3-3.57-18.82-6.72-3.59-2.24-6.72-4.97-9.51-8.19-1.4,2.66-3.06,4.83-4.99,6.58-4.85,4.06-11.5,6.93-19.95,8.61l-3.39-7.7c7.51-1.26,13.3-3.5,17.36-6.65,.6-.42,1.13-.98,1.6-1.54h-17.62v-7.63h21.74c.4-1.4,.73-2.87,1-4.41h-24.34v-7.63h25.73v-3.29h-22.61v-7.63h22.61v-3.29h-23.87V6.51h13.3c-.4-.7-.8-1.33-1.13-1.89L154.28,.21c1.33,1.96,2.66,4.06,3.86,6.3Z"/><path class="cls-1" d="M220.78,6.51c-2.79,.91-5.72,1.61-8.78,2.03l.07,2.1h8.98v5.74h-8.84v1.89h8.84v5.74h-8.71l.07,2.24h11.77l-2.33-4.13c1.4-.63,2.73-1.33,4.06-2.1-1.2-.84-2.39-1.61-3.59-2.31l2.93-3.71c-.4,.21-.73,.35-1.06,.49l-2.86-5.25c1.13-.42,2.39-.98,3.72-1.75-1.2-.7-2.33-1.4-3.46-2.03l3.59-4.69c1.8,.98,3.59,2.1,5.32,3.22,1.4-1.05,2.66-2.1,3.79-3.22l4.39,3.85c-.93,1.05-2,2.03-3.13,2.94,1.06,.84,2.06,1.68,3.13,2.52l-2.86,3.36,2.86,3.5c-.93,1.12-1.93,2.1-2.86,2.94,.93,.77,1.8,1.54,2.66,2.24l-3.52,4.13h12.17l.13-2.24h-7.51v-5.74h7.78l.07-2.17h-8.11v-5.74h8.38l.07-2.17h-8.18V1.61h15.1l-.93,24.64h5.32v12.53h-6.98v-6.02h-44.22v6.02h-6.98v-12.53h4.52l-.86-23.52c4.52-.42,8.71-1.26,12.7-2.52l3.39,6.3Zm28.79,28.7v5.81c-3.59,2.24-6.98,4.2-10.17,5.74h19.82v6.51h-25.2v2.45c0,3.36-.6,5.46-1.73,6.44-1.2,1.19-3.32,1.82-6.32,1.82-2.39,0-4.65-.21-6.78-.56l-1.26-7.91c2.66,.91,5.32,1.33,8.05,1.33,.2,0,.4-.14,.6-.42,.13-.42,.2-1.19,.2-2.31v-.84h-25.47v-6.51h25.47v-3.85l6.38,.49c1.53-.7,2.99-1.4,4.46-2.17h-26.73v-6.02h38.7Zm-16.09-8.96c-.93-.84-1.8-1.61-2.66-2.45-1.33,.91-2.86,1.75-4.46,2.45h7.12Zm-2.33-9.87c.86-.7,1.66-1.4,2.46-2.24-1.13-1.05-2.19-1.96-3.26-2.8-1.4,.84-2.66,1.54-3.86,2.1,1.6,.98,3.19,1.96,4.65,2.94Z"/><path class="cls-1" d="M318.53,37.45h-20.02v14.28c4.12-.63,7.98-1.33,11.7-2.17-.8-2.24-1.66-4.41-2.59-6.37l6.98-3.29c2.46,5.18,4.52,10.78,6.25,16.94l-7.58,3.29c-.33-1.33-.66-2.52-.93-3.64-6.52,1.82-13.57,3.5-21.15,4.97l-2.59-8.19c.8-.07,1.6-.21,2.39-.35V1.89h27.53V37.45Zm-7.58-21.35v-6.58h-12.44v6.58h12.44Zm0,13.65v-6.23h-12.44v6.23h12.44Zm18.22-20.23V63.99h-7.58V1.89h24.94V46.2c0,6.02-2.46,9.03-7.25,9.03-1.6,0-3.33-.07-5.19-.28l-1.8-8.19c2,.56,3.72,.77,5.19,.77,1.2,0,1.8-.77,1.8-2.45V9.52h-10.11Z"/><path class="cls-1" d="M377.98,.77V63.71h-7.51v-23.52h-3.72c-.13,6.86-.73,11.55-1.73,14.07-1.2,3.43-2.99,6.37-5.45,8.89l-4.92-5.74c1.6-1.75,2.86-3.99,3.72-6.79,.6-1.89,1-5.39,1.13-10.43h-4.12v-7.7h15.09v-6.23h-13.77V3.5h7.51v15.05h6.25V.77h7.51Zm20.81,1.68c-.4,.77-.86,1.47-1.26,2.17h16.82v7.35c-2.73,5.74-6.52,10.36-11.44,13.86-4.59,3.5-10.24,6.44-17.02,8.89h16.23v-7.7h7.58v7.7h5.72v7.63h-5.72v10.36c0,4.2-.6,6.93-1.66,8.47-1.33,1.68-3.72,2.52-7.18,2.52-2.33,0-4.52-.28-6.52-.84l-1.26-8.47c2.19,.77,4.46,1.12,6.72,1.12,.93,0,1.6-.28,1.93-.98,.27-.77,.4-2.03,.4-3.71v-8.47h-22.34v-7.63h2.66l-2.66-6.02c2.79-.91,5.45-1.89,7.85-3.01-1.2-1.12-2.46-2.1-3.66-3.01l4.39-4.97c2.13,1.4,4.06,2.94,5.92,4.62,.53-.35,1.13-.7,1.66-1.05-1.6-1.4-3.13-2.66-4.72-3.78l4.46-4.97c2.06,1.33,3.99,2.73,5.85,4.27,1.6-1.54,2.99-3.22,4.06-5.04h-13.23c-.2,.28-.4,.49-.53,.63-2.93,3.36-6.05,6.23-9.38,8.61l-3.66-7.07c5.72-4.34,9.91-9.03,12.44-13.93l7.58,2.45Zm-4.19,49.5l-6.72,4.06c-1.33-2.8-3.06-5.53-5.25-8.19l6.52-4.34c2.19,2.66,3.99,5.53,5.45,8.47Z"/><path class="cls-1" d="M438.57,15.82c2.26-2.1,4.32-4.48,6.18-7.07h-19.75V1.61h29.13V3.64c.8,.98,1.66,1.89,2.53,2.66,3.46-1.4,6.58-3.29,9.38-5.53l5.45,4.69c-2.73,2.38-5.85,4.48-9.38,6.16,1.13,1.12,2.26,2.1,3.39,2.94,3.06-1.96,5.85-4.34,8.38-7.21l5.92,4.9c-2.39,2.66-5.12,4.97-8.18,7,3.32,2.38,6.58,4.34,9.77,5.88l-5.45,6.86c-1.2-.7-2.33-1.4-3.39-2.17v17.71h-10.24l5.85,1.68c-1.26,2.52-2.53,4.83-3.79,6.79h15.69v7.42h-56.32v-7.42h14.36c-.8-2.24-1.8-4.34-2.93-6.23l4.59-2.24h-9.58V30.03c-2.13,.98-4.19,1.75-6.18,2.24l-2.39-6.3c3.46-1.12,6.85-2.8,10.11-4.9-1.73-1.82-3.66-3.71-5.65-5.53l6.72-4.9c1.86,1.54,3.79,3.22,5.79,5.18Zm1.99,7.7c-1.86,1.4-3.66,2.66-5.39,3.78h33.91c-2.13-1.54-4.19-3.22-6.18-5.04v1.75h-20.48v-2.03c-.67,.56-1.33,1.12-1.86,1.54Zm24.74,16.66v-5.46h-27.8v5.46h27.8Zm-9.44,15.82c1.33-2.8,2.46-5.6,3.46-8.47h-16.76c1.26,1.96,2.33,4.06,3.26,6.3l-4.85,2.17h14.9Zm-8.25-39.06h9.64c-1.8-1.75-3.52-3.57-5.12-5.46-1.6,2.03-3.06,3.85-4.52,5.46Z"/><path class="cls-1" d="M494.89,15.54V1.33h7.25V15.54h6.52v7.7h-6.52v19.67c2-.56,3.86-1.19,5.72-1.89l.33,1.82c1.73-1.47,3.19-3.01,4.39-4.69,1-1.26,1.86-2.73,2.66-4.27h-8.91v-6.58h42.09v6.58h-25.34c-.27,.63-.47,1.19-.66,1.61h24.4c0,14-.73,22.05-2.13,24.29-1.06,2.38-3.72,3.64-7.98,3.64-1.46,0-2.99-.21-4.46-.56l-1.46-7.21c-2.73,3.92-5.72,7.21-8.91,9.94l-5.19-5.18c3.33-2.94,6.38-6.09,9.11-9.73,1.86-2.66,3.52-5.53,4.99-8.61h-2.59c-1.33,2.87-2.93,5.6-4.92,8.26-2.99,4.06-6.38,7.35-10.24,10.08l-4.92-4.9c3.06-2.24,5.85-4.69,8.38-7.49,1.53-1.82,2.93-3.85,4.12-5.95h-1.73c-2,3.01-4.32,5.46-6.85,7.42l-3.12-2.87,.27,1.47c-5.65,2.66-11.9,4.9-18.69,6.86l-2.66-8.19c2.39-.56,4.79-1.12,7.05-1.75V23.24h-6.25v-7.7h6.25Zm49.87-13.93V25.69h-33.25V1.61h33.25Zm-7.25,9.03v-2.17h-18.75v2.17h18.75Zm0,8.19v-1.89h-18.75v1.89h18.75Zm-4.85,34.02c-.53,.91-1.06,1.75-1.6,2.45,2.33,.49,4.19,.7,5.65,.7,.93,0,1.53-.42,1.8-1.26,.53-1.4,.8-5.67,.8-12.67h-1.46c-1.33,3.78-3.06,7.35-5.19,10.78Z"/></g></g></svg>