<?xml version="1.0" encoding="UTF-8"?><svg id="_層_2" xmlns="http://www.w3.org/2000/svg" viewBox="0 0 562.79 323.56"><defs><style>.cls-1{fill:#b28247;}</style></defs><g id="_層_1-2"><g><path class="cls-1" d="M25.28,81.9c0,2.55-1,4.05-2.99,4.95-2.85,1.35-5.98,1.35-9.12-.15-1.57-.9-2.28-2.4-2.14-4.8V38.7c-3.13,2.55-6.55,4.8-9.69,6.45-.71,.3-1.14,.3-1.28-.15-.14-.45,0-1.05,.43-1.5,3.71-4.65,7.41-10.5,10.69-17.55,3.42-7.35,5.42-14.85,6.27-22.35l.29-1.95c.14-.75,.71-1.05,1.43-1.2,4.7,.75,9.4,1.95,14.11,3.45,2.14,.75,3.14,1.8,3.14,3.15-.14,1.05-1.14,1.8-2.99,1.95l-8.12,13.35v.6h10.69c2-6.9,3.14-13.2,3.56-19.2,0-.9,.29-1.35,1-1.2l11.54,1.95c2.14,.45,3.28,1.35,3.28,2.7,.14,1.05-.71,1.8-2.28,2.1l-2.42,1.95c-2.85,4.35-6.13,8.4-9.98,11.7h4.85c1,0,1.71-.3,2.14-1.05l5.42-7.95c.71-1.35,1.71-1.5,2.99-.45,2.85,2.25,5.42,5.4,7.55,9.3,.85,1.05,1.14,2.1,.71,3-.29,.75-1,1.2-2,1.2h-15.25v10.5l3.71-4.95c.71-1.35,1.71-1.5,2.85-.45,2.85,2.25,5.13,5.25,7.27,8.85,.85,1.05,1.14,2.1,.71,3-.29,.75-1,1.2-2.14,1.2h-12.4v11.7l4.85-6.75c.71-1.35,1.71-1.5,2.85-.45,2.71,2.25,5.13,5.25,7.27,9,.71,.9,1,1.95,.57,2.85-.14,.75-.85,1.2-2,1.2h-13.54v14.25l1.57-1.2,5.56-8.25c.71-1.35,1.71-1.65,2.85-.6,3.28,2.55,5.84,5.85,8.27,9.9,.85,1.05,1.14,1.95,.71,2.85-.29,.75-1,1.2-2.14,1.2H25.28v1.05Zm-12.68,60.15c-1.28,0-2-.45-2-1.35,0-1.05,.57-1.65,1.85-1.8,18.53-2.7,34.91-7.8,49.02-15.45-8.98-7.2-15.39-16.35-18.81-27.3h-7.12l-7.7,1.05c-1.14,.45-1.71,.45-1.85,0l-1.28-5.4c-.14-.6,.29-.75,1.43-.6l9.41,.9h56.43l1.71-1.5,4.27-5.1c.57-.45,1.14-.45,1.85,0,4.42,2.7,8.41,5.4,11.69,8.4,1.43,1.2,2.14,2.4,2,3.45-.14,1.35-1.14,2.1-3.28,2.55-.43,0-2.14,1.5-4.42,3.9-3.99,5.7-10.69,11.7-19.95,18.3,12.11,3,26.36,3.75,42.47,2.1,1.28-.15,2.14,.15,2.28,.75,.14,.75,0,1.35-.71,1.8-5.84,3.15-8.69,8.25-8.69,14.85,0,1.05-.57,1.5-1.57,1.5-16.39-.3-32.78-4.8-48.74-13.2-17.53,7.5-37.19,11.55-58.28,12.15ZM33.83,27h-8.55v14.1h8.55v-14.1Zm0,18.15h-8.55v13.65h8.55v-13.65Zm0,31.8v-14.25h-8.55v14.25h8.55Zm37.76,40.35c8.12-5.4,15.25-12.6,21.09-21.15H46.08c2.99,4.2,6.7,8.1,11.4,12.15,4.42,3.6,9.12,6.6,14.11,9Zm11.12-31.8c-3.14,1.5-6.41,1.5-9.83-.15-1.57-.9-2.42-2.55-2.28-5.1V36.9l-7.55,4.05c-.57,.3-1,.3-1.14-.15l4.99-7.65c4.42-7.5,7.98-17.7,10.55-30.45,.14-.75,.71-1.2,1.42-1.2,4.7,.75,9.41,1.95,13.97,3.75,2.14,.75,3.28,1.8,3.13,3.15-.14,1.05-1.28,1.8-3.13,1.95l-6.84,10.35v2.25h11.69c2-7.05,3.28-13.65,3.71-19.8,0-.9,.29-1.35,1-1.2l11.54,1.95c1.99,.45,3.13,1.35,3.13,2.7,.14,1.05-.71,1.8-2.14,2.25l-2.42,1.8c-2.99,4.8-6.7,8.85-10.69,12.3h5.98c1,0,1.71-.45,2.14-1.2l5.56-8.1c.57-1.35,1.57-1.65,2.85-.6,3.28,2.55,5.84,5.85,8.27,9.75,.85,1.05,1.14,2.1,.71,3-.29,.75-1,1.2-2.14,1.2h-17.96v14.1c.71,0,1.42-.3,1.85-.9l5.27-7.65c.71-1.35,1.57-1.5,2.71-.45,2.85,2.25,5.13,5.25,7.27,8.85,.85,1.05,1.14,2.1,.71,3-.28,.75-1,1.2-2.14,1.2h-15.68v14.25c.71,0,1.42-.3,1.85-1.05l5.27-7.65c.71-1.35,1.57-1.5,2.71-.45,2.85,2.25,5.13,5.25,7.27,9,.85,.9,1.14,1.95,.71,2.85-.28,.75-1,1.2-2.14,1.2h-15.68v14.25h2.71c1,0,1.71-.45,2.14-1.2l5.56-8.25c.71-1.35,1.71-1.65,2.99-.6,3.14,2.55,5.84,5.85,8.12,9.9,.85,.9,1.14,1.95,.71,2.85-.29,.75-1,1.2-2,1.2h-41.61c-.28,1.95-1.28,3.15-3.13,4.05Zm11.26-58.5h-7.98v14.1h7.98v-14.1Zm0,18.15h-7.98v14.25h7.98v-14.25Zm0,32.4v-14.25h-7.98v14.25h7.98Z"/><path class="cls-1" d="M181.17,41.25c.85,.3,1.14,1.2,.71,2.55l-15.53,57.3c-1.14,5.85-.43,12.3,2.14,18.9,2.28,6,2.99,11.1,1.71,15.3-1,4.05-3.42,6.45-6.98,7.2-2.85,.6-5.42-.3-7.27-2.4-2.42-3-3.28-7.5-2.42-13.65,.86-5.4,.86-10.65-.14-15.15-1.14-3-3.85-5.4-8.41-7.2-1-.45-1.28-1.05-1-1.8,.14-.6,.85-.9,2-.75,5.27-.45,8.27-1.35,8.83-2.4l24.37-55.95c.71-1.5,1.28-2.1,2-1.95Zm-36.62,.75c.29-.75,.85-.9,1.43-.75,10.54,2.1,17.24,6.3,20.09,12.45,1.14,3.15,1.14,6.45-.14,9.9-1.14,3-2.99,4.8-5.84,5.4-6.13,.9-9.4-2.7-9.98-10.2,.29-6-1.57-11.25-5.13-15-.57-.45-.71-1.05-.43-1.8Zm6.84-36.3c0-.75,.57-1.05,1.42-.9h.71c10.69,1.8,18.1,6.15,21.95,12.75,1.43,3.15,1.57,6.3,.57,9.9-.71,3-2.42,5.1-5.27,6-5.99,1.35-9.69-1.65-10.83-9.45-.57-7.2-3.28-12.75-8.12-16.5-.43-.45-.57-1.05-.43-1.8Zm79.66,73.5l5.13-5.1c.43-.45,.85-.45,1.57-.15,4.56,1.65,8.98,4.2,13.11,7.2,2.56,2.1,2.14,3.9-1.14,5.7-1,.45-1.42,1.35-1.42,2.7v20.25c-.14,1.95-.86,3.3-2.28,4.35-1.57,1.05-3.99,1.5-7.12,1.8-2.14,0-3.71-.45-4.42-1.65-.71-1.05-1.14-2.55-1-4.5v-3.75h-24.65v13.05l.43,5.55c.43,1.05,1,1.95,1.71,2.4,1,.6,6.27,.9,15.96,.9,10.97-.15,17.53-.45,19.67-1.05,4.99-1.8,9.41-8.4,12.83-19.35,.43-1.35,1-1.95,1.71-1.8,1,0,1.43,.75,1.57,2.1l-1,10.35c-.29,2.85,.57,5.1,2.56,6.9,2.85,1.5,4.27,3.75,4.27,7.2,0,3.15-1.85,5.7-5.27,7.35-3.85,1.5-7.55,2.55-11.54,3l-22.8,.9c-14.82,0-23.94-.9-27.22-2.55-3.14-1.5-5.27-4.35-6.41-7.95-1-3.6-1.43-6.6-1.43-9.15v-39.9c-7.41,5.4-14.25,9-20.38,10.5-.85,.15-1.43,0-1.57-.45-.14-.45,.14-.9,.85-1.35,12.97-9.3,21.95-22.05,26.65-38.25h-5.84l-8.12,1.35c-.85,.45-1.42,.3-1.57-.45l-1.42-5.25c-.14-.75,.28-.9,1.57-.6l9.55,1.05h6.55V29.25h-3.71l-8.27,1.35c-.85,.45-1.28,.3-1.42-.45l-1.42-5.25c-.14-.75,.28-.9,1.57-.6l9.55,1.05h3.56V.6c0-.45,.28-.6,1-.6,5.7,.15,11.12,.9,15.96,2.25,2,.75,2.99,1.5,2.99,2.55,0,1.35-.85,2.4-2.71,3-1,.45-1.57,1.05-1.43,1.95v15.6h14.25V.6c0-.45,.28-.6,1-.6,5.7,.15,11.12,.9,15.96,2.25,2,.75,2.99,1.5,2.99,2.55,0,1.35-.85,2.4-2.71,3-1,.45-1.57,1.05-1.43,1.95v15.6l1.43-1.35,7.55-10.05c.71-.9,1.71-1.05,2.85-.3,5.13,3.3,9.55,7.5,12.97,12.6,.71,.75,.85,1.5,.57,1.95-.43,.75-1,1.05-2.28,1.05h-23.09v21.3h2.28c1.14,0,2-.45,2.56-1.35l7.55-10.05c.57-.9,1.57-1.05,2.71-.3,5.13,3.3,9.55,7.5,13.11,12.6,.71,.75,.85,1.5,.57,1.95-.43,.75-1.14,1.05-2.42,1.05h-31.78l3.42,4.65c8.69,9.6,19.95,14.7,33.2,15,1,0,1.42,.45,1.57,1.2,.14,.45-.14,.9-1,1.35-2.85,1.2-5.13,3-6.98,5.85-1.71,2.7-2.71,5.4-2.85,7.95-.14,1.05-.85,1.35-2.42,.75-6.56-3-12.11-7.5-16.53-13.8-5.13-7.2-8.69-14.4-10.83-21.75l-.43-1.2h-21.52c-3.14,6.45-7.7,13.8-13.68,21.75l5.56,3h23.08Zm-22.23,22.95h24.65v-18c-.29-.9-.85-1.2-1.57-.9h-19.95l-3.13,.45v18.45Zm21.38-51.6V29.25h-14.39v21.3h14.39Z"/><path class="cls-1" d="M308.71,82.05v4.95c0,2.7-.86,4.5-2.57,5.7-1.99,1.35-4.42,1.95-6.98,2.1-2.14,0-3.71-.45-4.99-1.5-.57-.6-1-1.95-.85-3.9V31.8c-.14-1.05,.14-1.5,.57-1.35,7.41,2.1,12.83,4.2,16.1,6.6h33.77V1.8c0-.6,.29-.9,1-.9l15.25,2.1c2.85,.75,4.28,1.8,4.28,3.45s-1.14,2.85-3.56,3.45c-1,.3-1.43,1.05-1.43,2.4v24.75h31.64c1.43,.15,2.42-.3,2.99-1.05l3.71-4.8c1-1.35,2-1.8,3.28-1.35,5.99,2.25,10.4,4.65,13.54,7.35,3.71,2.85,3.13,5.1-1.57,6.75-.71,.45-1.14,1.05-1.14,1.95v42.3c0,2.25-1,3.9-2.85,5.1-1.85,1.2-4.13,1.8-7.12,1.8-2,0-3.56-.6-4.56-1.65-.71-.75-1-1.8-1-3.3v-8.1h-36.91v54.6c0,2.7-1.28,4.5-3.71,5.85-3.13,1.35-6.27,1.2-9.41-.45-1.57-1.05-2.42-2.55-2.42-4.65v-55.35h-35.06Zm35.06-40.8h-35.06v36.9h35.06V41.25Zm15.53,36.9h36.91V42c-.29-.9-.71-1.2-1.28-1.05h-35.63v37.2Z"/><path class="cls-1" d="M470.16,136.94c-.14,2.85-1.28,4.5-3.71,5.55-3.13,1.35-6.27,1.2-9.41-.45-1.71-.9-2.56-2.55-2.56-5.1v-54.45c-2.99,15.3-9.69,26.7-19.81,33.3-1,.75-1.85,.75-2.56,0-.43-.6-.43-1.5,.28-2.25,9.41-16.65,16.53-37.5,21.66-62.55h-12.11l-9.12,1.2c-.57,.3-1,.15-1.14-.45l-1.14-5.1c-.14-.6,.29-.75,1.28-.6l10.12,.9h12.54V22.35c-5.27,1.35-12.54,2.55-21.66,3.45-1.28,.15-2,0-2.14-.75-.14-.9,.29-1.5,1.28-1.8,18.38-6.6,31.78-13.8,40.04-21.3,.85-1.05,1.71-1.35,2.42-.9,4.85,2.1,9.41,4.8,13.4,7.95,1.85,1.5,2.42,3,2.14,4.35-.57,1.35-2,1.8-4.42,1.35-1.14-.15-6.27,1.05-15.39,4.05v28.2h.57c1,0,1.71-.3,2.14-1.2l5.84-9.3c1-1.5,2.14-1.65,3.56-.6,3.42,2.85,6.7,6.45,9.4,10.95,.85,1.05,1.14,2.1,.71,3-.29,.75-1,1.2-2.14,1.2h-20.09v12.9l1.85,.45c8.83,3.15,15.25,8.55,18.81,15.6,1.28,2.85,1.43,5.7,.43,8.85-.71,2.7-2.28,4.5-4.85,5.25-2.42,.75-4.56,.15-6.41-1.5-1.57-1.65-2.56-3.9-2.99-7.05-.85-6.6-3.28-12.15-6.84-16.2v67.65Zm15.25-36l-7.69,3c-.71,.3-1.14,.15-1.43-.3l-2.28-3.3c-.57-.75-.29-1.2,.71-1.35l9.83-1.95,40.19-9.6V3c0-.6,.29-.9,.85-.9l15.39,2.1c2.71,.75,4.13,1.8,4.13,3.45s-1.14,2.7-3.42,3.45c-1,.3-1.43,1.05-1.57,2.4V80.25c1.28-2.55,2.56-4.95,3.99-7.05,.57-1.05,1.42-1.35,2.42-1.05,4.85,1.2,9.83,3.45,14.96,6.6,.85,.6,1.28,1.35,1.28,2.1-.14,.75-.57,1.35-1.28,1.65l-21.38,5.25v49.5c0,2.7-1.28,4.5-3.56,5.85-3.28,1.35-6.27,1.2-9.55-.45-1.43-1.05-2.28-2.55-2.28-4.65v-46.65l-39.33,9.6Zm5.42-46.8c.14-.6,.71-.9,1.43-.75l5.13,1.2c8.41,2.1,14.39,6.3,17.67,12.75,1.28,3,1.42,6,.43,9.45-.71,3-2.42,4.95-5.13,5.85h-.57c-5.56,.9-8.84-2.25-9.69-9.3-1-7.8-3.99-13.95-8.69-17.4-.57-.45-.71-1.05-.57-1.8Zm2.42-36.3c.14-.6,.57-.9,1.42-.9l5.13,.45c8.26,1.2,14.39,4.65,18.38,10.35,1.43,2.7,2,6,1.43,9.3-.43,3.15-2,5.1-4.7,6.3-5.56,2.1-9.41-.6-11.12-7.95-1.71-7.5-4.99-13.05-9.83-15.9-.71-.3-.85-.9-.71-1.65Z"/><path class="cls-1" d="M25.85,244.5h-9.83l-8.12,1.2c-.85,.45-1.43,.3-1.57-.3l-1.43-5.4c-.14-.6,.29-.75,1.57-.6l9.55,1.05h9.83v-22.95c-6.98,9.3-13.96,16.2-20.95,20.25-1,.6-1.71,.6-2-.15-.43-.75-.28-1.35,.29-1.95,9.83-11.55,17.1-29.55,21.52-53.85,.14-1.05,.71-1.5,2-1.2,5.84,1.2,11.4,3.45,16.25,6.75,1.57,.9,2,1.95,1.71,3.15-.29,1.35-1.57,2.1-3.99,2.1-1,0-1.85,.9-2.42,2.55l-3.56,6.6h60.56c1.14,0,2-.3,2.56-1.2,2.28-3.75,4.85-7.2,7.7-10.65,.71-.9,1.71-.9,2.85-.3,5.42,3.45,9.98,7.8,13.68,13.05,.71,.75,.85,1.5,.57,2.1-.43,.75-1,1.05-2.28,1.05h-15.11v34.65h1.28c1,0,1.85-.45,2.42-1.05l6.98-9.45c.71-.75,1.57-.9,2.57-.3,4.7,3.15,8.83,7.05,11.97,11.7,.71,.75,.85,1.5,.57,2.1-.43,.75-1.14,1.05-2.42,1.05h-23.37v33.45h2.99c1,0,1.71-.45,2.28-1.05l7.13-9.45c.71-.75,1.57-.9,2.56-.3,4.7,3.15,8.69,7.05,11.97,11.7,.71,.75,.85,1.5,.57,2.1-.43,.75-1.14,1.05-2.42,1.05H14.45l-8.27,1.2c-.85,.45-1.43,.3-1.57-.3l-1.42-5.4c-.14-.6,.29-.75,1.57-.6l9.69,1.05h11.4v-33.45Zm3.14,43.2l.85,1.35c1.85,13.65-.85,24.3-7.98,31.35-2.14,1.8-4.7,2.55-7.41,2.4-2.71-.45-4.7-1.8-5.99-3.9l-1-2.85c-.43-5.25,1.71-8.85,6.56-10.65,5.84-2.7,10.69-8.25,13.97-16.65,.14-.75,.57-1.05,1-1.05Zm18.52-81.9h-6.84v34.65h6.84v-34.65Zm0,72.15v-33.45h-6.84v33.45h6.84Zm-5.13,10.2c.43-.45,1-.6,1.71-.3l.57,.3c10.12,5.25,16.1,12.3,17.53,20.7,.29,3.15-.43,6.15-2.28,9.15-1.57,2.7-3.71,3.9-6.56,3.75-6.13-.3-8.55-4.35-7.27-11.85,1.14-7.65,0-14.25-3.56-19.95-.43-.45-.57-1.05-.14-1.8Zm26.79-82.35h-6.7v34.65h6.7v-34.65Zm0,72.15v-33.45h-6.7v33.45h6.7Zm.57,10.8c.29-.6,.85-.75,1.71-.45l5.13,2.25c8.12,4.2,13.54,10.05,15.82,17.55,.71,3,.43,6.3-1,9.3-1.28,2.85-3.28,4.35-5.98,4.65-6.13,.3-8.98-3.3-8.69-10.8,.29-8.85-1.99-15.6-6.7-20.7-.43-.6-.57-1.05-.29-1.8Zm20.66-82.95h-6.27v34.65h6.27v-34.65Zm0,72.15v-33.45h-6.27v33.45h6.27Zm2.99,11.55c.14-.75,.71-1.05,1.57-1.05l7.27,1.65c9.83,3.15,16.82,8.4,20.38,15.75,1.57,2.85,1.85,6.15,1,9.75-.71,3.15-2.28,5.1-5.13,6.15-5.84,1.8-9.69-1.05-11.12-8.85-2-10.05-6.41-17.25-13.25-21.9-.57-.45-.85-.9-.71-1.5Z"/><path class="cls-1" d="M143.41,245.7c-.57,.45-1,.6-1.43,.15-.43-.3-.43-.75,0-1.35,10.4-17.7,17.67-38.7,21.38-63,.14-.75,.71-1.2,1.71-1.05,4.42,.9,9.12,2.25,13.82,3.9,2.14,.75,2.99,1.95,2.99,3.3s-.85,2.1-2.85,2.55c-1,.3-1.71,1.05-2.14,2.25-3.42,9.75-7.55,18.9-12.26,27.15l6.84,3.6c1,.6,1.57,1.35,1.57,2.4l-3.71,3.3v87.45c0,2.55-.71,4.2-2.56,5.1-3.14,1.35-6.13,1.35-9.26,0-1.57-.9-2.42-2.55-2.42-4.95v-82.65c-3.71,4.65-7.7,8.55-11.69,11.85Zm68.12,50.85c4.13,2.55,7.84,5.4,11.4,8.55,1.85,1.5,2.42,2.85,1.85,4.05-.71,1.05-1.71,1.35-3.13,.9-1.71-.6-3.56-.15-4.85,1.5-13.68,6.9-28.07,10.65-42.89,10.95-1.14,0-1.71-.3-1.71-.9s.71-1.2,2.42-1.65c15.53-5.1,27.5-12.75,35.63-23.1,.43-.6,.85-.75,1.28-.3Zm-15.82-60c-2,1.2-4.13,1.8-6.7,1.95-1.85,0-3.28-.45-4.56-1.35-.71-.6-1-1.8-.86-3.75v-28.2c-.14-.9,.14-1.35,.57-1.2,4.56,1.05,9.55,3.15,14.82,6h9.69v-15.3h-15.1l-8.12,1.2c-.85,.45-1.42,.3-1.57-.3l-1.42-5.4c-.14-.75,.28-.9,1.57-.6l9.55,1.05h56c1,0,1.85-.45,2.42-1.2l6.98-9.3c.71-.75,1.57-.9,2.56-.3,4.7,3.15,8.83,7.05,11.97,11.7,.71,.75,.85,1.5,.57,2.1-.43,.75-1.14,1.05-2.42,1.05h-25.22v15.3h8.83c.57,0,1.14-.3,1.57-1.05l3.42-3.75c.43-.45,.85-.45,1.57-.15,4.42,1.65,8.55,3.75,12.54,6.9,2.85,1.95,2.56,3.75-1,5.55-1,.45-1.42,1.2-1.42,2.55v13.05c-.14,1.95-.85,3.3-2.14,4.35-1.57,.9-3.85,1.5-6.98,1.65-2,0-3.42-.6-4.28-1.65-.57-.9-.85-2.1-.85-3.6h-60.14l-1.85,2.7Zm6.41,60.75c-1.71,1.35-3.99,2.1-7.12,2.1-1.85,0-3.14-.45-4.13-1.5-.71-.75-1.14-2.1-1.14-3.6v-51.9l.28-1.05h1.14c3.85,1.05,7.98,2.7,12.68,4.95h41.9c1.14,.15,2.14-.15,2.71-.75l3.85-4.5c.85-1.35,1.85-1.65,2.99-1.2,5.42,2.1,9.55,4.35,12.54,6.75,1.43,1.05,2,2.25,1.85,3.45s-1.28,2.1-3.28,2.85c-.71,.3-1.14,.9-1.14,1.65v38.85c-.14,1.95-.85,3.45-2.56,4.65-1.57,1.05-3.85,1.65-6.56,1.65-2,0-3.42-.6-4.13-1.65-.71-.6-1-1.65-1-2.85v-2.7h-47.03c-.14,2.25-.85,3.75-1.85,4.8Zm6.56-67.35v-15.9h-10.69v15.9h10.69Zm42.32,31.05v-9.9c-.29-.75-.71-1.05-1.43-.45h-45.46v10.35h46.88Zm0,13.5v-9.6h-46.88v9.6h46.88Zm0,14.1v-10.2h-46.88v10.2h46.88Zm-17.81-93.9h-11.26v15.3h11.26v-15.3Zm0,35.25v-15.9h-11.26v15.9h11.26Zm38.62,78.3c1.57,1.35,2.56,3.45,2.99,6.15,.14,2.4-.28,4.65-1.42,6.45-1.57,1.95-3.28,2.85-5.7,2.7-2,0-4.13-1.35-6.56-4.05-5.56-6.3-14.82-12-27.5-16.95-.85-.3-1.28-.6-1.14-1.35s.71-1.05,1.57-1.05c18.81,0,31.49,2.55,37.76,8.1Zm-14.11-78.3v-15.3c-.28-.6-.85-.9-1.57-.6h-9.69v15.9h11.26Z"/><path class="cls-1" d="M367.13,238.65c-8.55,14.7-19.52,25.2-31.92,31.05-.71,.3-1.14,.3-1.42-.15s-.14-1.05,.43-1.5c7.98-8.1,14.82-18,19.95-29.4h-7.41l-8.27,1.2c-.85,.45-1.43,.3-1.57-.45l-.71-2.25-1.99,.45c-2.71,.45-4.7-.45-6.41-2.55-1.43-1.8-2.28-4.35-2.28-7.95l-15.39,8.7c-11.4,5.25-17.1,8.4-17.1,9-.14,1.2-.71,2.1-1.85,2.25-1,.15-1.85-.75-2.56-2.55l-4.13-16.95c-.14-.75,.43-.9,1.43-.75h11.97c2-8.85,3.56-18.6,4.42-28.65h-6.27l-8.12,1.35c-.85,.45-1.42,.3-1.57-.45l-1.42-5.25c-.14-.75,.28-.9,1.57-.6l9.55,1.05h15.68c1,0,1.85-.45,2.42-1.35l7.55-10.05c.71-.9,1.71-1.05,2.71-.3,5.13,3.3,9.69,7.35,13.11,12.6,.71,.6,.85,1.35,.57,1.95-.43,.75-1.14,1.05-2.42,1.05h-17.24c-2.99,9.15-7.84,18.45-14.25,28.2l1.85-.3c7.55-1.05,14.11-2.1,19.52-3.45-.85-3.6-1.85-6.15-2.56-7.2-.43-.45-.57-1.05-.43-1.65,.29-.6,.85-.75,1.43-.6,8.69,2.1,14.39,5.85,16.81,10.8,.71,2.85,.43,6.45-1.28,9.9l7.27,.75h9.12c1.85-4.35,3.42-8.85,4.56-13.65h-5.99l-8.12,1.35c-.85,.45-1.42,.3-1.57-.45l-1.42-5.25c-.14-.75,.28-.9,1.57-.6l9.55,1.05h6.98l2.71-14.25h-12.4l-8.27,1.35c-.85,.45-1.42,.3-1.57-.45l-1.28-5.25c-.14-.75,.28-.9,1.42-.6l9.69,1.05h12.83c.71-8.1,.71-13.95,.57-17.4,0-.9,.28-1.35,1.14-1.35l16.53,1.65c2.28,.45,3.71,1.2,3.85,2.4,0,1.2-1,2.4-3.28,3.45-.29,0-1.14,3.9-2.57,11.25h9.26c1.14,0,2-.45,2.57-1.35l7.55-10.05c.71-.9,1.57-1.05,2.71-.3,5.13,3.3,9.69,7.5,13.11,12.6,.71,.75,.85,1.5,.57,1.95-.43,.75-1.14,1.05-2.42,1.05h-34.2l-3.71,14.25h9.98c1.14,0,1.99-.45,2.56-1.35l7.41-10.05c.71-.9,1.71-1.05,2.85-.3,5.13,3.3,9.55,7.5,13.11,12.6,.71,.75,.71,1.5,.57,2.1-.43,.6-1.14,.9-2.42,.9h-24.8c1.57,4.8,3.99,9.3,7.7,13.65h1.42c1,0,1.85-.45,2.42-1.35l7.55-10.05c.71-.9,1.71-1.05,2.71-.3,5.27,3.45,9.69,7.5,13.11,12.6,.71,.75,.85,1.5,.57,2.1-.43,.75-1.14,1.05-2.28,1.05h-21.95c6.84,7.05,14.96,12.3,24.08,14.85,.71,.15,1.14,.6,1.14,1.35,0,.6-.43,1.05-1.14,1.2-3.14,.45-5.84,1.95-8.12,4.05-2.28,2.25-3.85,4.5-4.56,7.05-.43,1.05-1.28,1.2-2.42,.3-8.83-6.15-15.39-15.9-19.38-28.8h-19.24Zm-65.41,26.85h-4.56l-9.12,1.2c-.43,.3-.85,.15-1-.45l-1.14-5.1c-.14-.6,.28-.75,1.28-.6l9.98,1.05h4.56v-17.7c-.14-.45,.14-.6,.85-.6,5.42,.15,10.55,.9,15.25,2.25,1.99,.45,2.99,1.35,2.99,2.4,0,1.35-.85,2.4-2.56,2.85-1,.45-1.57,1.05-1.42,1.95v8.7l1-1.05,5.7-8.55c.85-1.35,1.85-1.65,3.14-.6,3.13,2.55,6.13,6,8.69,10.2,.71,1.05,1,2.1,.57,3-.29,.6-.85,1.05-2,1.05h-17.1v23.55l16.96-6.6c1-.6,1.57-.6,1.85,0,.43,.75,.14,1.35-.43,2.1-4.99,4.65-11.4,9.3-18.95,13.8l-16.1,8.85c-2.28,1.2-3.71,2.4-3.85,3.6-.29,1.8-1,2.85-2.14,3.15-.85,.3-1.99-.75-3.13-3.15l-5.7-13.65c-.43-1.05,0-1.65,1.28-1.8l15.1-2.4v-27.45Zm79.09,51.75c-.14,2.55-1.28,4.2-3.56,5.25-2.99,1.35-5.98,1.2-9.12-.45-1.57-.9-2.42-2.4-2.42-4.95v-26.4c-11.4,9.75-24.51,16.35-39.33,19.5-1,.3-1.57,.15-1.85-.45-.28-1.05,.57-1.8,2.42-2.4,16.1-7.65,26.93-17.85,32.49-30.15h-11.12l-8.12,1.35c-.85,.45-1.42,.3-1.57-.45l-1.43-5.25c-.14-.75,.29-.9,1.57-.6l9.55,1.05h17.39v-9.6l-13.97,.45c-1-.15-1.57-.45-1.57-1.05s.43-1.05,1.28-1.2c12.11-3.3,21.52-9,28.07-16.8,.43-.6,.85-.75,1.28-.3l10.12,8.7c1.57,1.5,2,2.85,1.43,3.9-.71,.9-1.71,1.05-3.14,.75l-8.41,2.25v12.9h2.85c1,0,1.85-.45,2.42-1.2l7.12-9.3c.71-.75,1.57-.9,2.42-.3,4.85,3,8.84,7.05,11.97,11.7,.71,.75,.85,1.5,.57,2.1-.43,.6-1.14,.9-2.28,.9h-25.08v7.05h.57c12.68,0,22.66,4.5,29.93,12.9,2,2.4,3.14,5.25,3.28,8.85,.14,3-1,5.4-3.28,7.05-5.13,3.3-9.41,1.5-12.4-5.1-4.99-9.3-11.12-15.6-18.1-18.6v27.9Zm2-96.3h-7.84c-1.85,4.95-3.71,9.45-5.7,13.65h15.96c-1.28-4.65-2.14-9.15-2.42-13.65Z"/><path class="cls-1" d="M557.37,223.95c.85,1.05,1.14,2.1,.71,2.85-.29,.75-1,1.2-2.14,1.2h-24.65c.29,17.4,1.85,30.9,4.42,40.95,3.28-9.75,5.7-18.6,6.84-26.85,.14-.75,.57-1.05,1.14-.9l12.83,4.2c2,.6,2.85,1.5,2.71,2.55-.14,1.05-1,1.65-2.85,2.1-.57,.15-1,.3-1,.75-3.85,13.5-8.69,25.05-14.39,34.35,1.43,3.15,2.85,5.85,4.7,8.4,2,2.7,3.42,4.2,4.13,4.2,1.71-.3,4.42-4.05,7.84-11.25,.43-.9,1-1.2,1.57-1.05,.57,.15,.85,.75,.71,1.65l-2.28,14.1c-.43,2.1-.14,4.35,.85,6.6,3.14,4.5,3.85,8.25,2.14,11.4-2.14,2.25-4.99,2.85-8.69,1.5-8.55-2.7-15.82-9.75-21.66-20.7-9.55,9.9-19.95,16.5-30.78,19.8-.57,.15-.85,.15-1-.3l.43-1.05c5.84-4.05,11.12-8.85,15.96-14.25h-30.64v1.65c0,2.25-.57,3.75-2,4.65-1.71,1.05-3.71,1.65-5.84,1.8-1.57,0-2.99-.45-3.99-1.2-.57-.6-.86-1.8-.71-3.3v-71.25c-.14-.75,.14-1.2,.43-1.05,4.99,.9,9.26,2.7,12.68,4.95h6.41c1.42,0,2.28-.45,2.71-1.05l3.71-6.9c.85-1.2,1.85-1.5,2.99-.75,4.56,2.85,8.55,6.3,12.25,10.05,.57,.75,.71,1.35,.57,1.95-.28,.45-1,.75-2.14,.75h-10.55v16.2h.43l4.13-4.2h1.43c3.71,1.35,7.12,3.3,10.54,5.85l1,1.2c.29,.6-.85,2.4-3.13,5.55v14.7c-.14,1.5-.71,2.7-1.85,3.45-1.28,.75-3.28,1.35-5.84,1.5-1.71,0-2.85-.45-3.56-1.35-.71-.75-1-2.1-.85-3.75v-1.35h-2.28v17.85l.85-.75,5.13-7.05c.71-1.05,1.42-1.2,2.42-.45,2.56,2.25,4.56,4.8,6.41,8.25,.71,.75,1,1.65,.85,2.25l9.12-12.75v-.45c-5.27-15.3-7.98-35.7-8.27-61.2h-48.31v17.1l-.71,19.2c-2,27.75-9.69,46.8-23.23,56.85-.86,.6-1.57,.6-2,0-.43-.45-.29-1.05,.28-1.8,6.13-12.6,9.98-29.25,10.83-49.65h-3.42l-.85,13.5c-1.71,13.95-7.55,23.55-16.96,28.2-.71,.3-1.14,.3-1.43-.15-.28-.45-.14-.9,.29-1.5,4.27-8.1,6.27-21.3,6.27-39h-3.42c-.71,0-1.14,0-1.28-.3l-1.28-5.1c-.14-.6,.43-.75,1.42-.6l9.41,.9h11.26l.28-17.1h-5.42v3.15c0,2.1-.85,3.6-2.56,4.5-2.85,1.2-5.7,1.2-8.69,0-1.57-.9-2.42-2.4-2.28-4.35v-33.15c0-.6,.29-.9,.85-.9l12.54,2.1c2.42,.45,3.71,1.2,3.71,2.55l-3.56,4.65v17.55h5.56v-25.95c0-1.05,.29-1.5,1-1.2,4.13,1.5,8.83,3.6,14.25,6.6h47.45v-8.85c0-.9,.43-1.2,1.14-1.05,4.13,0,8.41,.3,12.83,1.2,2.28,.45,3.56,1.35,3.56,2.7s-.85,2.25-2.71,2.7c-.57,.3-1,1.05-1,2.4v.9h5.99c.57,0,1.99-1.5,3.85-4.05-1-.45-1.85-1.05-2.56-2.1-.85-1.65-1.14-3.15-1.14-4.5,0-2.4-.85-4.95-2.56-7.2-.43-.45-.57-.9-.43-1.5,.14-.45,.43-.75,1.14-.6,2.99,0,5.84,.6,8.12,1.95,2.71,1.35,4.27,2.85,4.99,5.1l.29,2.7c3.13,2.4,6.13,5.85,8.55,10.05Zm-72.96-22.2v6.75c0,2.25-.85,3.9-2.71,4.95-2.99,1.2-5.84,1.05-8.98-.15-1.71-.9-2.56-2.4-2.56-4.35v-7.2h-24.94l-8.27,1.2c-.71,.45-1.28,.3-1.42-.45l-1.42-5.25c-.14-.75,.28-.9,1.57-.6l9.55,1.05h25.08v-14.4c0-.6,.29-.9,1-.75,3.99,.45,8.41,.9,12.97,1.95,2.56,.45,3.85,1.5,3.85,2.85l-3.71,4.8v5.55h22.66v-14.85c0-.75,.28-1.05,.85-.9,4.13,.45,8.55,1.05,13.11,1.95,2.56,.45,3.85,1.5,3.85,2.85l-3.71,4.8v6.15h10.26c.85,0,1.71-.45,2.28-1.35l7.41-9.6c.71-.9,1.71-1.05,2.56-.3,5.13,3.15,9.26,7.35,12.54,12.15,.71,.75,.85,1.5,.57,2.1-.43,.75-1.14,1.05-2.28,1.05h-33.35v5.7c0,2.1-1,3.75-2.71,4.8-2.99,1.35-5.84,1.2-8.98-.15-1.71-.9-2.56-2.4-2.56-4.2v-6.15h-22.52Zm4.28,58.95v-16.2h-4.42v16.2h4.42Zm14.39,18.15v-14.25c-.29-.6-.71-.75-1.28-.15h-17.53v14.4h18.81Zm-14.39,21.45v-18h-4.42v18h4.42Z"/></g></g></svg>