<?xml version="1.0" encoding="UTF-8"?><svg id="_層_2" xmlns="http://www.w3.org/2000/svg" viewBox="0 0 189.5 366.5"><defs><style>.cls-1{fill:#b28247;}</style></defs><g id="_層_1-2"><path class="cls-1" d="M177.5,293c-8,15.33-18.84,28.41-32.5,39.25-13.67,10.83-29.34,19.25-47,25.25-17.67,6-36.34,9-56,9-4.67,0-9.59-.67-14.75-2-5.17-1.34-9.84-3.25-14-5.75-4.17-2.5-7.42-5.67-9.75-9.5-2.33-3.84-3.5-8.42-3.5-13.75s1.25-9.84,3.75-13.5c2.5-3.67,7.08-5.5,13.75-5.5,5.66,0,10.5,1.89,14.5,5.67s8,7.97,12,12.58c4,4.6,8.5,8.8,13.5,12.58s11,5.67,18,5.67c2.66,0,7.91-1.09,15.75-3.24,7.83-2.17,16-6.25,24.5-12.23,8.5-5.99,16-14.4,22.5-25.21,6.5-10.82,9.75-25.05,9.75-42.68,0-11.98-2.42-22.64-7.25-31.95-4.84-9.31-11.34-17.38-19.5-24.21-8.17-6.82-17.67-12.06-28.5-15.73-10.84-3.66-22.25-5.49-34.25-5.49h-6.5l-1.5-2.99c8.66-6.66,17.91-13.8,27.75-21.46,9.83-7.66,18.83-15.98,27-24.96,8.16-8.98,14.91-18.64,20.25-28.96,5.33-10.31,8-21.63,8-33.95,0-13.64-5.09-24.46-15.25-32.45-10.17-7.98-22.59-11.98-37.25-11.98s-26.34,2.25-36,6.75c-9.67,4.5-18.17,12.42-25.5,23.75l-4.5-2.5c3.66-8,8.08-15.75,13.25-23.25,5.16-7.5,11.08-14.25,17.75-20.25,6.66-6,14.25-10.83,22.75-14.5C77.25,1.84,86.83,0,97.5,0c22.66,0,41.25,5.92,55.75,17.75,14.5,11.84,21.75,27.25,21.75,46.25,0,8.67-1.67,16.84-5,24.5-3.34,7.67-8.09,15.17-14.25,22.5-6.17,7.34-13.5,14.67-22,22-8.5,7.34-17.92,15-28.25,23,11,2.34,21.58,6,31.75,11,10.16,5,19.16,11.25,26.98,18.75,7.82,7.5,13.98,16.09,18.5,25.75,4.51,9.67,6.77,19.84,6.77,30.5,0,18.66-4,35.66-12,51Z"/></g></svg>