<?xml version="1.0" encoding="UTF-8"?><svg id="_層_2" xmlns="http://www.w3.org/2000/svg" viewBox="0 0 609.39 285.49"><defs><style>.cls-1{fill:#b28247;}</style></defs><g id="_層_1-2"><g><path class="cls-1" d="M48.48,21.34c.04,.39-.15,.71-.72,.9l-27.17,10.26c-2.81,1.18-5.48,3.44-7.92,6.69-2.17,3.13-4.5,5.04-6.99,5.72-1.9,.64-3.37,.35-4.52-.78-1.11-1.08-1.38-2.22-1.03-3.59,.71-2.16,2.68-3.96,5.89-5.53,2.88-1.32,5.26-2.93,7.21-4.87,.76-1.53,.81-3.51-.13-5.97-.12-.5,.07-.82,.49-.97,.26-.12,.52,.1,.79,.56l2.29,2.93c.4,.62,.89,.91,1.44,.82l29.08-6.44c.76-.17,1.18-.08,1.28,.27Zm-24.84,19.49l-2.87-2.65c-.41-.18-.52-.44-.28-.71l1.52-2.03c.23-.27,.41-.15,.67,.4l2.4,3.86,8.72,11.16,4.63-3.62-.27-.12c-.41-.19-.57-.39-.44-.67,.1-.33,.36-.45,.78-.36,6.97,.63,15.47-1.46,25.1-6.2,.37-.21,.69-.03,.96,.43,1.03,2.57,1.58,5.09,1.62,7.42,.04,.73-.19,1.24-.65,1.44-.56,.19-1.15-.11-1.75-.99-.2-.26-2.38-.08-6.38,.59l.22,.51c1.57,3.83,1.68,7.38,.28,10.59-.68,1.29-1.69,2.16-3.05,2.81-1.2,.51-2.27,.51-3.3-.12-.97-.67-1.52-1.6-1.44-2.75,.1-1.01,.6-2.07,1.6-3.19,2.06-2.37,3.28-5.01,3.66-7.59-3.57,.43-8.41,.16-14.21-.79l2.53,4.6c.5,1.21,.53,2.04-.03,2.47-.61,.47-1.38,.4-2.31-.22-.4-.28-.8-.22-1.28,.07l-1.82,1.42,4.67,5.97c.29,.37,.7,.55,1.19,.5l5.67-.13c.48,.05,.82,.37,.89,.91,.22,2.78-.08,5.47-.87,8.1-.07,.48-.31,.75-.61,.81-.4,.06-.71-.12-1.08-.59l-11.3-14.46-13.4,10.47c-.99,.78-2.02,.82-3.22,.32-1.4-.76-2.24-1.96-2.54-3.59-.06-.88,.24-1.62,1.01-2.23l13.68-10.69-8.72-11.16Zm20.49-5.72c-7.52,1.07-13.75,.71-18.26-1.09-.51-.19-.67-.4-.53-.68,.15-.37,.41-.49,.84-.4,7.77,.51,16.82-2.01,26.82-7.63,.43-.25,.7-.13,.92,.38,1.16,2.39,1.86,4.88,2.12,7.37,.05,.63-.17,1.15-.69,1.39-.58,.28-1.13,.04-1.74-.75-.33-.42-2.36-.18-5.96,.78,.86,3.04,.55,5.82-.62,8.08-.61,1.15-1.51,1.94-2.9,2.43-1.09,.43-2.09,.28-2.98-.29-.92-.72-1.32-1.58-1.17-2.63,.14-.96,.67-1.87,1.59-2.85,1.04-1.06,2.09-2.56,2.91-4.13h-.34ZM34.35,6.9c.3-.07,.52,.1,.67,.4l.66,2.44c.44,1.93,.5,3.83,.15,5.88-.27,1.81-.81,3.17-1.45,4.17-.97,1.26-2.25,2.01-3.97,2.43-1.36,.3-2.58,0-3.55-1.02-1.91-2.22-1.35-4.34,1.6-6.48,2.92-1.95,4.71-4.44,5.31-7.19,.04-.29,.22-.51,.58-.62ZM49.17,.04c.26-.12,.54,0,.73,.36l1.18,2.2c1.73,3.8,1.93,7.35,.54,10.47-.75,1.43-1.83,2.44-3.44,3.11-1.31,.6-2.61,.52-3.72-.21-2.27-1.77-2.18-4.04,.36-6.7,2.69-2.69,3.96-5.62,3.85-8.49,0-.34,.18-.56,.5-.73Zm12.17,29.56l6.67-5.22,.88-.69c.17-.13,.3-.07,.51,.19,1.58,2.14,2.86,4.35,3.76,6.51,.35,.91,.31,1.53-.08,1.83-.5,.39-1.13,.38-1.88-.13-.45-.24-.78-.32-1.13,.04l-4.19,3.28,3.19,4.09c.29,.37,.64,.59,1.1,.49l5.71-.08c.54,0,.88,.33,.89,.91,.22,2.78-.08,5.46-.87,8.1-.07,.48-.35,.69-.61,.81-.4,.06-.71-.12-1.08-.59l-21.33-27.3-2.83-2.6c-.41-.18-.52-.44-.29-.71l1.52-2.03c.23-.27,.41-.15,.67,.4l2.41,3.77,7,8.96-.04-.05Z"/><path class="cls-1" d="M68.59,76.99l-2.26-2.26-3.41-2.62c-.29-.09-.38-.28-.23-.52l1.35-2.01c.15-.25,.34-.15,.57,.18l2.99,3.69,2.26,2.26,6.83-6.83-.24-.24-3.4-2.62c-.29-.09-.38-.28-.23-.52l.45-.74-4.76-.41c-.38-.09-.52-.23-.47-.47,.05-.24,.15-.34,.44-.35,7.23-1.49,14.98-4.82,23.22-9.94l1.71-.96c.29-.2,.53-.16,.67,.08,1.05,2.14,1.96,4.53,2.61,7.07,.26,.96,.15,1.64-.39,1.89l-.77,.12c1.08,3.06,1.39,5.85,.71,8.13-.42,1.26-1.27,2.4-2.54,3.2-1.08,.8-2.19,.88-3.29,.37-1.1-.5-1.7-1.31-1.87-2.46-.12-1.01,.25-2.13,1.1-3.36,.8-1.27,1.58-3.37,2.33-6.18-5.69,1.83-11.17,2.89-16.34,3.26l2.1,2.6,3.24,3.25c.33,.33,.71,.42,1.1,.31l4.56-.89c.68-.21,1.06-.03,1.14,.74,.24,1.92,0,3.86-.54,5.99-.02,.58-.27,1.02-.71,1.18-.34,.15-.73,.07-1.1-.31l-4.18-4.19-6.83,6.83c.23,.24,.62,.32,1.01,.22l4.56-.89c.68-.21,1.11,.02,1.14,.74,.24,1.92,0,3.86-.54,5.99-.02,.58-.27,1.02-.71,1.18-.34,.15-.73,.07-1.1-.31l-5.64-5.64-13.77,13.76c2.33,1.24,4.86,2.29,7.39,3.14,.29,.09,.43,.23,.42,.52,0,.29-.25,.44-.59,.5-4.1-.14-8.42-.8-12.97-2.18-3.4-.93-6.41-1.96-9.13-3-.48-.18-.82-.12-1.12,.27-.54,.54-1.03,.75-1.46,.52-.52-.32-.65-.95-.34-1.73,1.12-2.34,2.34-4.69,3.8-6.99,.25-.44,.5-.5,.83-.26,3.07,2.67,5.57,4.68,7.37,5.89l15-14.99Zm-9.36-3.53c.24-.05,.43,.04,.57,.37,.76,2.34,.89,4.66,.55,6.79-.3,2.27-1.21,4.03-2.54,5.08-.79,.79-1.82,1.25-2.93,1.33-1.11,.17-2.02-.24-2.71-1.33-1.15-2.14-.53-3.8,1.77-4.96,2.21-1.65,3.77-3.95,4.76-6.73,.1-.29,.25-.44,.54-.54Zm33.79,2.81c.25-.34,.49-.4,.58-.21,1.25,1.95,2.16,4.14,2.78,6.34l4.04,4.05,5.25-5.25-5.64-5.64-3.17-2.28c-.43-.13-.57-.37-.32-.62l1.26-2.2c.2-.29,.39-.2,.67,.27l2.85,3.54,5.64,5.65,6.09-6.09,.5-.49c.2-.2,.39-.2,.63,.03,1.31,1.61,2.66,3.36,3.96,5.35,.7,1,.77,1.77,.28,2.26-.5,.5-1.22,.46-2.17,0-.38-.18-.67-.08-1.17,.32l-3.37,3.36,2.12,2.12c.33,.33,.76,.46,1.25,.35l5.86-.87c.48-.01,.86,.27,.99,.79,.55,2.83,.72,5.67,.17,8.48-.01,.48-.21,.78-.51,.88-.39,.11-.72-.03-1.15-.45l-10.01-10.02-5.25,5.25,2.91,2.92c.37,.47,.8,.7,1.19,.69l2.71-.26c.77-.12,1.15,.16,1.38,.59,1.14,2.53,1.76,4.63,1.91,6.37,.12,.82-.08,1.4-.53,1.75-.44,.35-1.12,.27-1.98-.09-.33-.14-.67-.08-.92,.17l-12.43,12.42c-.69,.6-1.52,.86-2.43,.64-.86-.17-1.77-.68-2.71-1.62-.61-.61-.88-1.28-.82-1.91-.04-.43,.17-.82,.61-1.27l1.44-1.44-4.51-4.52c-.86,1.61-1.49,3.56-1.93,5.59-1.33,6.59-.48,12.79,2.51,18.46,.18,.38,.18,.67-.07,.92-.15,.15-.39,.11-.72-.13-1.09-.79-2.43-1.14-3.88-1.11-1.4-.01-2.66,.21-3.69,.77-.49,.21-.77,.02-.9-.6-1.09-6.34,.58-13.18,4.92-20.43l-14.01,14c-.84,.84-1.76,1.01-2.91,.65-1.34-.54-2.27-1.58-2.72-3.02-.17-.86,.04-1.54,.68-2.19l10.65-10.64-1.94,.24c-8.36,.45-15.36-.91-20.82-4.39-.28-.19-.47-.37-.37-.57,.2-.39,.64-.45,1.21-.08,10.7,2.29,20.13,1.13,28.16-3.32l-3.1-3.1-.79,.79c-.84,.84-1.67,1.2-2.53,1.03-1.01-.22-1.96-.77-2.81-1.52-.61-.61-.98-1.28-1.11-2-.04-.43,.27-.92,.91-1.47l.05-.05c-.67-.37-1.34-.45-1.73-.25-4.38,1.65-8.3,2.19-11.47,1.5-.29,0-.43-.13-.47-.37s.11-.39,.45-.45c2.88-1.38,6.12-3.58,9.48-6.75l1.04-.85c.25-.25,.49-.21,.77,.17,2,2.7,3.06,4.65,3.28,5.66l15.89-15.88Zm5.97,11.62l-4.04-4.05-11.54,11.53,4.04,4.05,2.43-2.42-1.11,.17c-.87,.02-1.53-.35-1.99-1.3-.41-1-.29-1.87,.16-2.61,.45-.64,.99-1.09,1.67-1.3,1.86-1.21,3.41-3.03,4.48-5.23l.5-.49c.24-.05,.38,.09,.43,.33,.39,1.78,.18,4.14-.51,6.81l5.5-5.49Zm-6.79,16.28l4.65,4.66,6.54-6.53c-3.59,.77-6.77,.75-9.41,.09l-1.78,1.78Zm3.02-3.02c1.76-.82,4.55-2.38,8.18-4.79,.25-.15,.44-.06,.62,.23l1.6,3.48,2.62-2.62c.15-.34,.11-.58-.22-.72l-4.18-4.19-8.62,8.61Z"/><path class="cls-1" d="M134.41,143.79c-3.02,.3-6.13-.26-9.19-1.86l.57-3.11c2.59,1.23,4.49,1.92,5.76,2.02,.93,.11,1.46,.08,1.59-.09l-.59-.64c-1.36-1.07-2.12-2.37-2.27-4-.25-1.62,.32-3.21,1.53-4.76,1.12-1.43,2.53-2.37,4.11-2.56,1.62-.24,3.16,.17,4.53,1.23,1.15,.9,1.81,2.22,2.07,3.93,.24,1.52-.18,3.15-1.18,4.85-1.83,3.1-4.2,4.72-6.93,4.97Z"/><path class="cls-1" d="M155.38,187.5c-.61,1.02-1.37,1.63-2.21,1.61-1.03,.03-2.09-.27-3.15-.83-.68-.41-1.2-.97-1.5-1.64-.14-.41,0-.9,.52-1.64l11.88-19.73c.16-.39,.38-.51,.52-.34,1.82,1.75,3.15,3.53,3.8,4.9l3.48,2.09c.23,.14,.53,.15,.82-.08l2.33-.64c.28-.08,.45,.03,.66,.32,1.37,1.72,2.52,3.56,3.35,5.78,.67,1.47,.12,2.12-1.73,1.98-.51-.06-.86,.14-1.18,.68l-8.09,13.43c-.53,.75-1.14,1.11-1.96,1.19-.75-.04-1.81-.35-3.15-1.08-.74-.45-1.17-1.03-1.29-1.59-.03-.59,.18-1.2,.65-1.98l.94-1.56-3.82-2.3-.87,1.44Zm5.62-.7l7.47-12.41c.07-.37-.09-.63-.46-.52l-3.25-1.96-7.58,12.59,3.82,2.3Zm8.39-25.02l.63,.38c.4,.24,.85,.27,1.26,.1l5.25-2.15c.5-.19,.94,0,1.15,.53,1.2,2.52,1.93,5.17,2.09,7.88,.1,.47-.02,.81-.28,.98-.35,.2-.71,.15-1.22-.16l-9.86-5.93-3.57-1.42c-.41-.09-.61-.28-.52-.56l.73-2.5c.09-.27,.29-.23,.73,.2l3.6,2.66Zm4.91-8.16l1.08,.65c.4,.24,.85,.27,1.29,.04l5.25-2.15c.47-.13,.9,.05,1.15,.53,1.2,2.52,1.88,5.13,2.09,7.88,.1,.47-.02,.8-.28,.98-.35,.2-.71,.15-1.22-.16l-10.31-6.21-3.57-1.42c-.45-.03-.64-.22-.52-.56l.69-2.44c.12-.33,.33-.29,.77,.14l3.56,2.72Zm29.25,41.8l.65-.43,.51,.31c1.18,1.77,2.07,3.78,2.74,5.9,.38,1.05,.28,1.72-.2,2-.52,.34-1.04,.19-1.49-.49-.25-.23-.57-.34-1.04-.21-2.42-.23-4.98-.63-7.5-1.33,2.35,5.25,4.79,8.93,7.25,10.9,.31,.27,.37,.55,.28,.82-.12,.33-.33,.29-.77,.11-3.32-1.18-6.52-.65-9.24,1.3-.39,.26-.71,.14-1.04-.46l-.56-1.4c-2.98-8.08-2.11-16.22,2.45-24.18l.11-.18-1.48-.89c-2.53,.85-5.23,1.34-7.96,1.5l-4.73,7.86,7.5,2.88c.62,.13,.93,.39,.79,.88-.12,.33-.48,.53-1.11,.56-2.19,.15-7.37-.27-15.26-1.34-1.13-.19-1.92-.17-2.15,.09-.38,.5-.83,.73-1.26,.55-.44-.18-.67-.57-.63-1.28l.46-3.48,.63-3.62c.2-.45,.47-.53,.84-.23l3.93,2.12,.07-.12,3.21-5.34c-2.52-.46-4.86-1.21-6.83-2.07-.32-.11-.42-.33-.33-.61,.12-.33,.35-.45,.76-.36,5.18,.42,10.15-.35,14.95-2.27l-5.87-3.53-3.88-1.68c-.3-.02-.43-.18-.35-.45l.77-2.31c.09-.27,.29-.23,.66,.07l3.74,2.82,4.96,2.98,2.31-3.84-.46-.27-3.94-1.72c-.3-.02-.43-.18-.35-.45l.77-2.31c.14-.24,.29-.23,.66,.07l3.79,2.85,.46,.27,2.42-4.02-2.05-1.23-3.88-1.68c-.26-.08-.4-.24-.35-.45l.81-2.37c.09-.27,.26-.17,.66,.07l3.74,2.82,2.05,1.23,2.42-4.02c.02-.15,.17-.15,.45,.03,1.96,1.26,3.71,2.73,5.23,4.21,.6,.69,.74,1.1,.48,1.52-.32,.54-.83,.73-1.56,.53-.47-.12-.84-.02-1,.38l-.43,.72,4.44,2.67,2.27-3.78c.02-.15,.17-.15,.45,.03,1.96,1.26,3.66,2.69,5.23,4.21,.54,.65,.74,1.1,.48,1.52-.33,.54-.88,.69-1.56,.53-.47-.12-.84-.02-1,.38l-.29,.48,.63,.38c.34,.21,.7,.26,1.05,.06l4.08-1.88c.61-.37,1.04-.19,1.3,.54,.6,1.59,.87,3.46,.84,5.57,.03,.59-.11,1.08-.49,1.34-.29,.23-.63,.27-1.09,0l-7.29-4.39-1.91,3.18,3.34-1.42c.5-.19,.94,0,1.19,.47,.48,1.52,.67,3.27,.58,5.09,.09,.62-.05,1.11-.44,1.37-.29,.23-.59,.21-1.05-.06l-5.07-3.05-2.31,3.84,2.96,1.78c.29,.17,.64,.22,.99,.03l3.95-1.79c.57-.31,1.01-.13,1.25,.51,.54,1.55,.75,3.39,.74,5.35,.09,.62-.11,1.08-.4,1.31s-.69,.24-1.14-.04l-14.07-8.47c-.96,3.26-1.11,6.61-.37,9.91,3.03-1.04,5.4-2.14,6.91-3.36Zm-25.47-51.04l3.93,2.37c.4,.24,.85,.27,1.29,.04l5.27-2.05c.5-.19,.88-.04,1.1,.5,1.24,2.46,1.93,5.17,2.09,7.88,.1,.47-.02,.81-.28,.98-.32,.14-.67,.09-1.19-.22l-13.16-7.92-3.63-1.45c-.45-.03-.58-.19-.46-.52l.69-2.44c.12-.33,.33-.29,.77,.14l3.56,2.72Zm6.2-6.81l.17,.1c.4,.24,.85,.27,1.29,.04l5.27-2.05c.44-.22,.88-.04,1.1,.5,1.24,2.46,1.93,5.17,2.09,7.88,.1,.47-.02,.81-.28,.98-.35,.2-.67,.08-1.19-.22l-9.4-5.66-3.57-1.42c-.45-.03-.64-.22-.52-.56l.69-2.44c.12-.33,.33-.29,.77,.14l3.56,2.72Zm10.59,25.99c-.94,0-1.82-.2-2.77-.69-.63-.38-1.03-.87-1.25-1.41-.14-.41,0-.9,.45-1.53l5.6-9.29c.09-.27,.31-.38,.44-.22,1.76,1.47,3.03,3.21,3.88,5.03l1.99,1.2,.75,.04,2.14-.59,.57,.34c1.21,1.47,2.19,3.2,2.91,5.1l.19,.85c.04,.19-.88,.69-2.7,1.4l-2.17,3.6c-.45,.62-.95,1.06-1.61,.99-.79,.02-1.79-.26-2.85-.82-.74-.45-1.15-.93-1.18-1.53-.1-.47,.13-.99,.52-1.65l-3.19-1.92c-.53,.75-1.04,1.09-1.74,1.08Zm4.6,19.44l-4.44-2.68-2.31,3.84,4.44,2.68,2.31-3.84Zm10.53-28.96l2.67-4.44,.61-1.02c.11-.18,.26-.17,.54,0,2.24,1.43,4.23,3.04,5.84,4.74,.62,.78,.84,1.32,.58,1.74-.32,.54-.92,.75-1.8,.55-.51-.06-.88,.04-1.08,.5l-1.05,1.74,4.16,2.5c.4,.24,.85,.27,1.2,.07l5.12-2.06c.43-.07,.81,.08,1.06,.56,1.16,2.33,1.81,4.85,1.97,7.56,.1,.47,.02,.75-.24,.92-.35,.2-.71,.14-1.22-.16l-28.77-17.32-3.57-1.42c-.45-.03-.64-.22-.52-.56l.69-2.44c.12-.33,.33-.29,.77,.14l3.56,2.72,9.52,5.73-.06-.04Zm-7.17,23.38l-4.44-2.67-2.42,4.02,4.44,2.67,2.42-4.02Zm-2.03-14.54l2.35-3.9c0-.4-.13-.57-.59-.44l-2.56-1.54-2.38,3.96,3.19,1.92Zm7.44,9.05c-.63-.38-1.09-.9-1.31-1.44-.18-.35,0-.9,.45-1.52l5.16-8.58c.12-.33,.31-.39,.44-.22,1.56,1.27,2.71,2.85,3.63,4.55l2.39,1.44,.75,.04,2.14-.59,.57,.34c1.27,1.5,2.19,3.2,2.91,5.1l.19,.85c.04,.19-.88,.69-2.65,1.43l-2.17,3.6c-.45,.62-1.01,1.03-1.66,.96-.79,.02-1.73-.22-2.85-.82-.74-.45-1.09-.9-1.12-1.49l.32-1.44-3.3-1.99c-1,.62-2.35,.55-3.9-.22Zm8.2,.69l2.49-4.14c0-.4-.12-.57-.59-.44l-2.56-1.54-2.53,4.2,3.19,1.92Z"/><path class="cls-1" d="M222.29,224.97c-.51,1.15-1.25,1.82-2.18,1.94-1.11,.2-2.25,0-3.44-.46-.85-.38-1.43-.87-1.78-1.56-.19-.39-.14-.98,.32-1.85l10.94-24.55c.14-.47,.35-.61,.56-.44,2.33,1.96,4.12,3.83,5.3,5.43l28.31,12.61c.61,.27,1.18,.3,1.62,.11l3.05-1.78c.47-.25,.93-.12,1.3,.35,2.16,2.5,3.54,4.64,4.24,6.18,.71,2-.2,2.9-2.61,2.75-.69,.08-1.25,.52-1.59,1.28l-6.01,13.49c-1.14,2.4-2.67,3.87-4.79,4.22-2.01,.25-3.88,.04-5.55-.79-.3-.14-.34-.38-.2-.7,.46-.87,.58-1.96,.58-3.27-.16-1.45-.82-2.74-1.89-3.76-.34-.38-.38-.78-.12-1.2,.32-.39,.74-.36,1.32-.02,2.16,1.04,3.52,1.42,3.99,1.17,.62-.26,1.06-.75,1.29-1.26l6.04-13.55c.17-.54,.1-.88-.32-.91l-29.58-13.18-8.8,19.76Zm18.74-20.16c-1.17,.17-2.25,0-3.38-.43-.79-.35-1.37-.84-1.69-1.44-.16-.46-.12-1.05,.32-1.85l3.48-7.8c-6.4,1.13-12.11,1.19-17.24,.29-.48-.06-.64-.21-.64-.52,.08-.35,.35-.46,.77-.58,8.01-.34,15.92-2.72,23.44-7.03l-12.03-5.36-3.72-.97c-.45,.03-.66-.14-.58-.49l.39-2.51c.08-.35,.29-.33,.78,.04l3.87,2.26,13.12,5.85c1.77-1.2,3.34-2.42,4.74-3.79-6.95-2.71-12.32-5.03-16.15-7.04-.43-.19-.52-.46-.38-.78,.17-.38,.44-.49,.86-.3,14.99,4.92,27.15,7.2,36.4,6.87,.48-.09,.75-.05,.97,.28,1.43,2.02,2.51,4.34,3.44,6.82,.38,.94,.31,1.59-.22,1.97-.45,.18-.93,.12-1.45-.34-.55-.4-1.16-.67-1.88-.84l-13.68-3.95c-1.71,1.54-3.62,2.91-5.6,4.25l15.92,7.09c.49,.22,.94,.19,1.35-.09l5.13-2.85c.41-.28,.87-.15,1.21,.39,1.56,2.38,2.67,4.95,3.2,7.86,.19,.39,.11,.74-.13,.94-.32,.24-.69,.23-1.23-.01l-17.62-7.85c.98,3.2,2.89,6.27,5.72,9.22,3.26,3.29,6.81,5.64,10.65,6.97,.45,.13,.64,.36,.56,.71-.02,.22-.2,.45-.59,.5-1.41,.22-2.75,.77-3.92,1.78-1.12,1.04-1.84,2.17-2.23,3.22-.23,.51-.62,.57-1.23,.14-3.64-2.77-6.16-6.27-7.55-10.18-1.31,.33-2.06,.69-2.2,1.01l-2.08,4.67c-.43,.8-.93,1.27-1.77,1.36-.87,.15-1.95-.03-3.41-.52-.91-.41-1.4-.93-1.54-1.61-.13-.52-.06-1.18,.28-1.94l-10.75-4.79c-.43,.8-1.02,1.15-1.71,1.38Zm-5.23,18.28c-.46,1.02-1.19,1.69-2.06,1.84-1.17,.17-2.19,.02-3.38-.43-.79-.35-1.31-.81-1.69-1.44-.16-.46-.09-1.11,.32-1.85l5.58-12.53c.14-.47,.35-.61,.5-.47,1.71,1.22,3.35,2.95,4.83,4.84l7.9,3.52,3.18-1.26c.24-.05,.42,.04,.7,.23,1.63,1.57,3.03,3.5,4.16,5.53,.76,1.41,.2,2.16-1.57,2.21-.45,.03-.8,.33-1.06,.91l-2.19,4.92c-.43,.8-.99,1.24-1.83,1.33-.87,.15-1.95-.03-3.41-.52-.85-.38-1.4-.93-1.54-1.61-.13-.52-.03-1.24,.4-2.04l.17-.38-8.56-3.82-.46,1.02Zm9.76,1.13l2.31-5.18c.05-.44-.14-.67-.5-.68l-7.9-3.52-2.48,5.56,8.56,3.82Zm8.73-17.64l2.42-5.43c.05-.44-.14-.67-.53-.62l-10.08-4.49-2.56,5.75,10.75,4.79Zm7.97-6.95c-.63-2.5-.96-5.03-.99-7.42l-8.32-3.71c-2.49,1.34-5.2,2.51-8,3.41,.49,.22,1.23,1.01,2.07,2.38l9.6,4.28,3.16-1.2c.27-.11,.45-.03,.7,.23l1.79,2.02Z"/><path class="cls-1" d="M312.81,248.37c2.99-5.02,7.37-13.71,13.01-25.82,.17-.32,.33-.41,.57-.27,2.27,1.21,4.49,2.61,6.51,4.18,.83,.69,1.07,1.28,.84,1.79-.21,.45-.67,.6-1.62,.53-.34-.03-.61,.18-.78,.5-8.08,12.83-15.47,21.56-21.99,26.08l11.39,3.47c.51,.16,.95,.07,1.39-.23l5.05-3.8c.46-.37,.91-.24,1.31,.25,2.06,2.38,3.61,5.05,4.59,7.98,.22,.43,.18,.79-.03,1.01-.29,.28-.65,.31-1.22,.14l-51.21-15.6-3.87-.52c-.42,.02-.66-.13-.64-.41l.1-2.6c.02-.29,.23-.3,.76,.01l4.2,1.72,27.16,8.27,4.47-6.69Zm1.48-38.62l3.75-12.32,.33-1.07c.06-.2,.21-.23,.53-.13,2.52,.84,4.84,1.91,6.84,3.11,.79,.61,1.11,1.14,.97,1.61-.18,.6-.71,.96-1.6,.9-.57,.05-.91,.24-.99,.72l-2.84,9.31,9.86,3c.51,.16,.95,.07,1.41-.3l5.03-3.74c.46-.37,.91-.24,1.31,.25,2.08,2.32,3.61,5.05,4.59,7.98,.22,.43,.2,.72-.01,.95-.29,.28-.65,.31-1.22,.14l-46.5-14.17-3.87-.52c-.44,.08-.68-.06-.64-.41l.14-2.52c.04-.35,.25-.36,.72-.07l4.18,1.79,18.07,5.5-.06-.02Zm-15.18,4.89c.23-.08,.47,.07,.55,.46,1.73,5.06,3.03,10.36,3.91,15.9,.68,4.16,.65,7.44-.08,9.85-.61,2.01-1.57,3.55-2.8,4.63-1.26,.93-2.4,1.25-3.62,.95-1.04-.24-1.72-.96-2.07-2.09-.29-1.11-.21-2.26,.22-3.45,3-7.79,4.24-16.42,3.57-25.62-.05-.31,.1-.56,.33-.63Z"/><path class="cls-1" d="M366.63,235.1l2.85-16.34c-.11-.52-.35-.7-.78-.56l-11.4-1.99-3.63-.06c-.54-.02-.85-.15-.88-.37l-.15-2.23c.02-.49,.16-.54,.67-.38l4.32,1.18,10.02,1.75c.97,.24,1.53,.12,1.87-.24l2.16-2.32c.38-.22,.65-.24,1.07,.04,2.4,1.34,4.3,2.81,5.66,4.33,1.18,1.34,.74,2.33-1.21,2.7-.49,.13-.75,.44-.84,.92l-2.87,16.48c-.19,1.1-.86,1.84-2,2.21-1.13,.3-2.16,.41-3.01,.26-.85-.15-1.47-.47-1.91-1.04-.4-.42-.53-1.23-.27-2.32l.04-.21-9.3-1.62-3.36,19.31c-.23,1.31-.21,2.38,.07,3.07,.43,.64,1.23,1.07,2.28,1.25l4.61,.66c.81,0,1.45-.17,1.95-.37,1.28-.35,2.94-2.54,5.05-6.51,.3-.59,.61-.82,.93-.69,.45,.15,.6,.46,.51,.94-.89,3.96-1.04,6.36-.41,7.03,1.54,.84,2.18,2.23,1.89,3.88-.23,1.74-1.49,2.72-3.74,3.26-2.25,.53-6.19,.27-11.84-.64-3.08-.54-5.37-1.36-6.6-2.43-1.12-.91-1.8-2.09-2.27-3.66-.28-1.47-.29-2.96-.07-4.27l4.64-26.62c.06-.34,.28-.45,.66-.31,2.21,.88,4.58,2.36,7.11,4.51l8.19,1.43Zm3.3,11.66c-.52,.26-.79,.29-.93-.09-.15-.31-.09-.66,.3-.94,1.7-1.62,3.56-3.79,5.52-6.5l.37-.57c5.24-8.39,8.77-16.66,10.48-24.53,.08-.48,.46-.7,.97-.54,3.27,1,5.81,2.29,7.65,3.75,.66,.47,.92,.94,.74,1.55-.2,.75-.92,1.05-2,1-.54-.02-.99,.25-1.33,1.05-2.03,3.91-3.94,7.13-5.63,9.82l11.33,1.97c.59,.1,1.02-.04,1.43-.46l4.55-4.39c.33-.37,.79-.29,1.32,.16,2.34,2.04,4.15,4.49,5.55,7.29,.27,.4,.27,.76,.09,1.01-.26,.31-.61,.39-1.2,.29l-6.49-1.13c-3.13,12.17-7.8,21.16-13.94,26.91,4.66,5,9.68,8.79,14.98,11.28,.32,.13,.48,.37,.43,.64-.04,.21-.2,.39-.49,.48-2.83,.36-5.35,2.05-7.33,4.9-.35,.44-.76,.51-1.31,.13-5.55-4.16-9.57-8.63-11.96-13.1-7.83,5.03-16.2,7.34-24.83,6.9-.34,.01-.51-.16-.53-.45s.22-.46,.57-.54c8.21-1.77,15.74-5.5,22.39-11.09-2.13-5.98-2.57-13.52-1.16-22.44-3.45,3.52-6.66,6.09-9.57,7.64Zm15.12,10.45c4.35-5.21,8-12.96,10.81-22.91l-10.88-1.89v.07l-3.24,4.2c-1.09,7.41,.03,14.14,3.23,20.24l.08,.3Z"/><path class="cls-1" d="M428.21,257.83c-.11,.91-.48,1.59-1.36,1.82-1.15,.43-2.15,.38-3.25-.3-.58-.31-.88-.96-.84-1.87l.35-7.06c-2.33,3.88-4.93,6.69-7.75,8.37l-.46-.02,.03-.56c1.52-2.45,2.99-6.58,4.41-12.25,.08-.21,.28-.34,.61-.25l3.33,1.36,.17-3.36c-3.24,.82-5.07,1.43-5.08,1.71-.16,.55-.44,.82-.84,.87-.34,.05-.65-.24-.82-.81-.95-2.36-1.51-4.35-1.63-5.97-.05-.42,.16-.62,.56-.46l7.17,.36,.53,.03c1.99-2.56,4.27-6.72,6.75-12.49,.08-.28,.35-.33,.67-.18,1.5,.71,3.05,1.62,4.59,2.75,.71,.46,.95,.96,.79,1.44-.09,.49-.57,.67-1.3,.64-.2,0-1.54,1.39-3.66,3.95h.07c3.2,1.22,5.22,3.42,5.75,6.25,.15,.99-.1,1.96-.62,2.98-.51,.82-1.26,1.27-2.2,1.29-.86-.04-1.58-.43-2.07-1.16-.24-.43-.38-1.77-.28-3.8-1.62,.34-2.63,.71-2.84,.91l-.16,3.22c3.02,.92,5.05,2.78,6.05,5.42,.29,.86,.17,1.9-.28,2.93-.37,.82-1,1.28-1.8,1.45-.87,.1-1.52-.15-2.02-.8-.51-.52-.73-1.37-.74-2.49,.09-1.75-.43-3.46-1.29-4.9l-.55,10.98Zm38.26,.59c-.1,.7-.47,1.31-1.08,1.7,1.73,1.42,3.24,3.11,4.41,5.06,.31,.37,.36,.72,.22,.99-.22,.34-.56,.46-1.09,.44l-8.24-.41c-2.37,3.39-5.38,6.39-8.91,9.08,5.92,1.49,12.22,2.02,18.77,1.5,.6-.04,.93,.12,.98,.4,.12,.36-.03,.63-.31,.83-2.73,1.4-4.19,3.78-4.34,6.86-.02,.42-.3,.62-.83,.59-7.37-.51-14.37-2.83-20.64-6.72-7.75,3.18-17.47,4.52-29.04,4.08-.4-.02-.59-.24-.57-.52,.02-.35,.23-.55,.63-.6,9.51-.99,17.61-3.25,24.24-6.7-2.85-2.95-5.01-6.28-6.23-9.92l-2.62,1.76c-4.81,3.05-10.22,4.67-16.09,4.87-.34,.05-.53-.03-.58-.31-.05-.35,.09-.56,.43-.61,7.66-2.7,13.5-7.66,17.51-14.54,.08-.28,.28-.34,.48-.19,2.08,1.08,4.01,2.44,5.8,3.94,.7,.6,.87,1.17,.65,1.65-.29,.48-.76,.59-1.36,.49-.4-.09-1.01,.23-1.78,.96l21.32,1.07c.47,.02,.87-.17,1.16-.5l2.84-3.5-.39-.23c-.58-.38-.81-1.02-.77-1.86l.33-6.57-.9,.66c-2.12,3.75-4.65,6.42-7.46,7.97l-.4-.02,.03-.56c1.69-3.07,2.93-6.58,3.51-10.27l.17-.76h-.13c-.4,.04-.72-.25-.89-.82-.77-2-1.33-4.06-1.5-5.96-.05-.42,.1-.63,.56-.53l5.71,.43,.21-.27c3.68-5.56,5.95-9.72,6.62-12.56,.08-.28,.35-.33,.74-.17,1.5,.71,3.05,1.62,4.59,2.75,.71,.46,.95,.96,.86,1.38-.16,.48-.64,.74-1.37,.7-.34,.05-.68,.25-.96,.58-2.5,3.31-5.23,5.97-8.11,7.72l7.2-.13c-.22-.99-.64-1.92-1.19-2.72l-.1-.57c.07-.14,.28-.2,.54-.11,3.27,1.22,5.3,3.14,6.11,5.63,.22,.99,.03,2.03-.49,3.06-.51,.82-1.2,1.34-2.07,1.37-.93,.02-1.65-.29-2.15-1.02-.37-.65-.57-1.99-.48-3.74l-2.84,.91-.18,3.5h.27c3.47,1.1,5.7,3.24,6.68,6.31,.35,1,.3,1.98-.15,3.08-.38,.96-1.01,1.56-1.88,1.66-.87,.17-1.66-.15-2.23-.74-.5-.66-.79-1.51-.8-2.56-.01-2.38-.71-4.45-1.96-6.13l-.45,8.88Zm-40.23-38.19c.09-.42,.29-.55,.62-.46l5.29,2.16c.91,.4,1.35,.91,1.25,1.54-.09,.56-.51,.82-1.24,.85-.4-.02-.88,.24-1.36,.63-1.77,2.01-3.78,3.67-5.85,5.17l.82,.95c.41,1.14,.42,2.26-.05,3.57-.39,1.17-1.09,1.77-2.16,1.99-1.01,.23-1.93-.03-2.62-.76-.57-.59-.92-1.59-1.05-2.93,0-2.45-.72-4.31-1.92-5.49-.19-.15-.31-.37-.23-.64,.08-.21,.28-.34,.61-.25,1.53,.08,3.1,.58,4.64,1.71,1.34-2.74,2.47-5.41,3.27-8.04Zm4.4,15.85l-3.9,3.38,5.01-.24c-.08-1.12-.49-2.2-.98-2.99l-.13-.15Zm14.42,36.33c2.89-1.89,5.2-4.08,7.06-6.65l-15.68-.79c1.13,1.39,2.39,2.78,3.99,4.13,1.4,1.26,3.01,2.39,4.63,3.32Zm-1.81-35.56l-4.21,.28c-.27,.13-.47,.05-.52-.24l-.41-2.4c-.05-.28,.15-.34,.61-.25l4.62,.72,2.46,.12c.33,.02,.6-.11,.82-.38l2.55-2.96v-.14l-7.43-.37-4.21,.35c-.27,.13-.47,.05-.52-.24l-.41-2.4c-.05-.28,.15-.34,.61-.25l4.62,.72,4.92,.25c.2,0,1.39-1.19,3.44-3.54,.36-.47,.76-.52,1.21-.15,1.08,1.11,2.01,2.41,2.8,4,.31,.51,.42,1,.2,1.41-.15,.27-.42,.47-.95,.44l-3.12-.16c1.02,.96,1.82,2.19,2.54,3.7,.37,.51,.48,1,.26,1.42-.15,.34-.49,.54-1.02,.51l-1.79-.09c.95,.89,1.82,2.12,2.55,3.63,.37,.51,.48,1,.26,1.42-.15,.34-.49,.54-1.02,.51l-8.83-.44-4.21,.28c-.27,.13-.47,.05-.52-.17l-.41-2.47c-.05-.28,.15-.34,.61-.25l4.62,.72,2.46,.12c.33,.02,.6-.11,.82-.38l2.55-2.96v-.07l-5.91-.3Zm-1.35,18.93c-.05,.91-.34,1.53-.89,1.78-.69,.39-1.49,.56-2.29,.52-.6,.04-1.13-.13-1.51-.5-.25-.22-.37-.58-.27-1.21l.59-11.82c-.05-.35,.02-.49,.22-.41,1.91,.52,3.53,1.3,4.56,1.98l3.79,.19,.68-.25,1.85-1.1c.21-.13,.41-.12,.6,.03,1.23,.69,2.32,1.52,3.33,2.62l.5,.66-1,1.42-.36,7.13c-.03,.63-.38,1.03-1,1.35-1.09,.44-2.22,.38-3.25-.16-.45-.37-.69-.88-.59-1.5l.03-.63-4.98-.25v.14Zm1.56-32.58l2.79,.14c.2,0,1.39-1.12,3.44-3.54,.35-.4,.76-.45,1.2-.08,1.08,1.04,2.01,2.34,2.8,3.93,.37,.51,.48,1,.26,1.42-.15,.34-.49,.54-1.02,.51l-9.56-.48-4.28,.28c-.27,.13-.47,.05-.52-.24l-.41-2.4c-.05-.28,.15-.34,.61-.25l4.69,.73Zm3.51,30.88l.28-5.66-4.98-.25-.28,5.66,4.98,.25Zm15.32-31.96c.09-.49,.23-.62,.56-.53,1.84,.58,3.6,1.3,5.36,2.09,.91,.4,1.35,.91,1.25,1.54-.09,.56-.51,.82-1.24,.85-.4,.05-.88,.31-1.37,.7-1.55,1.67-3.35,3.06-5.27,4.22l1.31,1.68c.41,1.21,.35,2.33-.12,3.64-.39,1.1-1.02,1.7-2.09,1.93-1.08,.23-1.93-.03-2.63-.76-.63-.66-.98-1.66-1.05-2.93,0-2.45-.71-4.38-2.04-5.78-.2-.08-.25-.29-.17-.57s.28-.34,.61-.25c1.39,.07,2.77,.56,4.19,1.47,1.19-2.53,2.11-4.94,2.7-7.29Zm-.85,27.5l.18-3.5-2.97,.76c-1.01,.16-1.55,.41-1.64,.76l-.14,.2h.13l4.38,1.7,.06,.07Z"/><path class="cls-1" d="M499.81,282.08c.09,1.26-.45,2.14-1.53,2.84-1.42,.73-2.88,.76-4.39,.1-.76-.44-1.21-1.11-1.28-2.08l-2.82-40.22-4.31,.3-3.8,.9c-.38,.24-.65,.19-.74-.16l-.77-2.4c-.09-.34,.1-.43,.64-.33l4.54,.1,4.31-.3-1.34-19.13-.06-.84c-.02-.28,.1-.43,.44-.45l7.17,.55c1.35,.26,2.05,.7,2.1,1.47,.05,.7-.44,1.29-1.55,1.72-.39,.17-.56,.53-.58,1.16l1.05,15.01,8.36-.59-1.4-19.97-.05-.77c-.02-.28,.1-.43,.37-.45l7.23,.48c1.29,.26,1.98,.7,2.04,1.47,.05,.77-.44,1.29-1.48,1.72-.45,.17-.63,.54-.65,1.17l1.11,15.85,8.36-.59-1.36-19.41-.06-.84c-.01-.21,.11-.36,.44-.38l7.17,.48c1.35,.26,2.05,.7,2.1,1.47,.05,.7-.44,1.29-1.55,1.72-.45,.17-.63,.54-.65,1.17l1.07,15.29,1.19-.08c.53-.04,.92-.21,1.15-.64l3.12-4.99c.3-.44,.76-.54,1.32-.23,2.5,1.44,4.69,3.18,6.51,5.44,.29,.33,.38,.67,.27,.96-.11,.36-.43,.52-1.03,.56l-12.4,.87,1.51,21.58c.09,1.26-.38,2.2-1.47,2.84-1.42,.73-2.88,.76-4.39,.17-.76-.44-1.22-1.18-1.28-2.16l-.03-.42-8.36,.59,.04,.63c.09,1.26-.44,2.21-1.47,2.84-1.48,.74-2.88,.76-4.46,.1-.76-.37-1.14-1.11-1.21-2.09l-1.58-22.48-8.36,.59,2.47,35.26,29.45-2.07c.6-.04,.98-.28,1.21-.79l3.36-5.29c.3-.51,.76-.54,1.38-.24,2.77,1.42,5.1,3.36,7.07,5.82,.35,.26,.44,.6,.33,.89-.17,.36-.5,.53-1.03,.56l-41.66,2.92,.2,2.79Zm22.46-21.85l-1.38-19.69-8.36,.59,1.38,19.69,8.36-.59Z"/><path class="cls-1" d="M578.7,234.3c-1.86,5.07-5.13,9.84-9.67,14.36l3.62-.21c1.16,.06,1.77,.37,1.87,.92,.12,.62-.26,1.12-1.1,1.64-.38,.15-.52,.46-.45,.8,1.46,7.49,1.24,13.31-.67,17.46-2.85,4.83-8.12,8.43-15.49,10.58-.33,.06-.55-.04-.67-.3-.07-.34,.1-.52,.42-.65,2.02-1.11,3.91-2.54,5.63-4.16,1.29-1.39,2.3-2.8,3.18-4.19,1.85-4.07,1.96-10.44,.31-18.96-4.7,3.7-9.37,6.53-14.01,8.43-.43,.23-.71,.21-.89-.04-.13-.33,.02-.58,.36-.93,4.16-2.66,8.27-6.25,12.38-10.9,3.94-4.47,6.52-8.97,7.67-13.47l-9.73,1.89,.29,1.51c.24,1.24,0,2.14-.67,2.84-.79,.8-1.85,1.29-3.01,1.58-.98,.19-1.74,.12-2.42-.24-.31-.22-.63-.8-.74-1.71l-4.94-25.35c-.15-.4-.06-.63,.22-.61,3.5,.25,6.18,.79,7.9,1.6l26.11-5.08c.67-.06,1.08-.35,1.28-.75l1.26-2.6c.35-.64,.77-.93,1.39-.84,2.93,.43,5.18,1.2,6.86,2.16,1.94,.91,1.89,2.06-.06,3.15-.35,.28-.49,.6-.41,1.01l3.25,16.7c.2,1.03-.1,1.94-.84,2.66-.69,.63-1.75,1.12-3.12,1.39-.91,.18-1.69,.04-2.24-.35-.38-.21-.6-.67-.75-1.42l-.25-1.31-10.77,2.1c2.44,2.09,4.41,3.49,5.89,4.13,7.77,4.05,15.44,5.19,22.86,3.61,.44-.16,.65-.13,.77,.13,.13,.33,.06,.63-.28,.98-2.56,2.14-3.7,5-3.2,8.25,.09,.48-.27,.7-.95,.68-3.61-.08-7.31-1-10.91-2.8-.74,.71-1.16,1.37-1.16,1.72l3.83,19.65c.24,1.24-.19,2.18-1.18,3.01-1.32,.9-2.7,1.1-4.35,.63-.81-.34-1.34-.95-1.52-1.91l-4.68-24.05-.15-.76c-.05-.27,.05-.44,.38-.5l4.62-.26c-4.45-3.34-8.15-7.04-11.07-11.25Zm-9.78-18.21l-11.03,2.15,1.45,7.42,11.03-2.15-1.45-7.42Zm3.23,16.56l-1.42-7.28-11.03,2.15,1.42,7.28,11.03-2.15Zm5.27-10.51l11.03-2.15-1.38-7.08c-.21-.39-.43-.49-.68-.37l-10.44,2.03,1.47,7.56Zm12.81,6.99l-1.42-7.28-11.03,2.15,1.42,7.28,11.03-2.15Z"/></g></g></svg>