<?xml version="1.0" encoding="UTF-8"?><svg id="_層_2" xmlns="http://www.w3.org/2000/svg" viewBox="0 0 435.99 365.5"><defs><style>.cls-1{fill:#fff;}</style></defs><g id="_層_1-2"><g><path class="cls-1" d="M182,241.5H11.5l-1.5-4c11.33-9.66,23.66-20.41,37-32.25,13.33-11.83,25.83-24.25,37.5-37.25,11.66-13,21.41-26.25,29.25-39.75,7.83-13.5,11.75-26.41,11.75-38.75,0-6.66-1-13.25-3-19.75s-4.92-12.25-8.75-17.25c-3.84-5-8.75-9-14.75-12s-13-4.5-21-4.5c-17,0-31.42,4.59-43.25,13.75-11.84,9.17-21.75,20.25-29.75,33.25l-5-3c3.66-6.66,8.83-14.58,15.5-23.75,6.66-9.16,14.58-17.91,23.75-26.25,9.16-8.33,19.25-15.41,30.25-21.25C80.5,2.92,92.16,0,104.5,0c16.66,0,30.58,5.17,41.75,15.5,11.16,10.34,16.75,24.5,16.75,42.5,0,14-3.09,27.34-9.25,40-6.17,12.67-14,24.75-23.5,36.25s-20,22.59-31.5,33.25c-11.5,10.67-22.59,21-33.25,31v1h90c9,0,16.08-.66,21.25-2,5.16-1.33,9.33-3.25,12.5-5.75,3.16-2.5,5.66-5.33,7.5-8.5,1.83-3.16,3.58-6.58,5.25-10.25l5,1.5-25,67Z"/><path class="cls-1" d="M427.49,25.75c-4.67,11.5-10.75,26.34-18.25,44.5-7.5,18.17-15.92,38.92-25.25,62.25-9.34,23.34-19.25,47.84-29.75,73.5-10.5,25.67-21.09,52.16-31.75,79.5-10.67,27.33-21,54-31,80l-33.5-1.5c1.66-3.34,5.58-11.17,11.75-23.5,6.16-12.34,13.66-27.42,22.5-45.25,8.83-17.84,18.58-37.5,29.25-59,10.66-21.5,21.33-43.41,32-65.75,10.66-22.33,20.91-44.16,30.75-65.5,9.83-21.33,18.25-40.5,25.25-57.5h-135.5c-10.67,0-19.42,1.5-26.25,4.5-6.84,3-12.42,6.75-16.75,11.25-4.34,4.5-7.75,9.25-10.25,14.25s-4.59,9.5-6.25,13.5l-6-2L240.99,5h195c-1,2.34-3.84,9.25-8.5,20.75Z"/></g></g></svg>