<?xml version="1.0" encoding="UTF-8"?><svg id="_層_2" xmlns="http://www.w3.org/2000/svg" viewBox="0 0 525.88 67.78"><defs><style>.cls-1{fill:#fff;}</style></defs><g id="_層_1-2"><g><path class="cls-1" d="M32.52,63.64c0,1.26-.53,2.17-1.66,2.73-1.46,.63-2.93,.56-4.39-.21-.73-.42-1.13-1.19-1.13-2.17v-24.36c-6.45,9.73-14.7,16.17-24.54,19.18-.47,.14-.73,.07-.8-.21-.07-.42,.93-1.26,2.99-2.45,9.91-7.14,16.56-15.89,19.68-26.18H6.19l-3.86,.63c-.4,.21-.6,.14-.67-.21l-.67-2.45c-.07-.35,.13-.42,.73-.28l4.46,.49H25.34V1.54c0-.28,.13-.42,.47-.42l7.12,.98c1.33,.35,2,.84,2,1.61s-.53,1.26-1.66,1.61c-.47,.14-.67,.49-.73,1.12V28.14h12.17c.6,0,1-.21,1.33-.7l3.66-5.11c.33-.42,.8-.42,1.4-.07,2.66,1.61,4.85,3.71,6.65,6.23,.33,.35,.4,.7,.27,.98-.2,.35-.53,.49-1.06,.49h-24.01c4.06,10.36,12.9,17.64,26.4,21.7,.53,.14,.73,.35,.73,.7s-.2,.56-.6,.63c-2,.35-3.46,1.05-4.46,2.03-1.2,1.19-2.06,2.45-2.39,3.78-.13,.56-.53,.63-1.2,.28-3.52-2.17-6.05-4.06-7.38-5.39-5.05-5.11-8.91-11.9-11.5-20.37v30.31ZM7.19,7.7c.07-.28,.27-.35,.67-.28l2.86,1.05c2.19,.98,4.19,2.31,5.92,4.2,1.6,1.61,2.59,3.15,3.06,4.55,.53,1.47,.53,2.87-.07,4.48-.47,1.26-1.26,2.1-2.59,2.38-2.86,.56-4.32-.98-4.46-4.62-.47-4.76-2.26-8.54-5.25-10.99-.13-.21-.2-.49-.13-.77Zm37.84-.7c.07-.35,.4-.42,.86-.28,1.86,.77,3.79,1.68,5.79,2.94,.8,.49,1.2,1.05,1.06,1.68-.07,.56-.6,.84-1.46,.91-.47,.07-.8,.28-1.13,.77-3.79,5.67-7.78,9.38-12.04,11.2-.27,.21-.47,.14-.6-.07-.13-.21-.07-.42,.13-.7,2.73-3.71,5.05-8.68,6.92-14.98l.47-1.47Z"/><path class="cls-1" d="M99.89,40.67c-2.19,2.1-4.99,3.57-8.38,4.2l-1.46-2.8c2.79-.63,4.72-1.26,5.79-1.96,.8-.49,1.2-.84,1.2-1.05l-.86-.14c-1.73,0-3.13-.56-4.26-1.75-1.2-1.12-1.73-2.73-1.73-4.69,0-1.82,.53-3.43,1.66-4.55,1.13-1.19,2.59-1.82,4.32-1.82,1.46,0,2.79,.63,4.06,1.82,1.13,1.05,1.8,2.59,2.06,4.55,.47,3.57-.4,6.3-2.39,8.19Z"/><path class="cls-1" d="M141.71,38.71v2.31c0,1.26-.4,2.1-1.2,2.66-.93,.63-2.06,.91-3.26,.98-1,0-1.73-.21-2.33-.7-.27-.28-.47-.91-.4-1.82V15.26c-.07-.49,.07-.7,.27-.63,3.46,.98,5.98,1.96,7.51,3.08h15.76V1.26c0-.28,.13-.42,.47-.42l7.12,.98c1.33,.35,1.99,.84,1.99,1.61s-.53,1.33-1.66,1.61c-.47,.14-.67,.49-.67,1.12v11.55h14.76c.67,.07,1.13-.14,1.4-.49l1.73-2.24c.47-.63,.93-.84,1.53-.63,2.79,1.05,4.85,2.17,6.32,3.43,1.73,1.33,1.46,2.38-.73,3.15-.33,.21-.53,.49-.53,.91v19.74c0,1.05-.47,1.82-1.33,2.38-.86,.56-1.93,.84-3.32,.84-.93,0-1.66-.28-2.13-.77-.33-.35-.47-.84-.47-1.54v-3.78h-17.22v25.48c0,1.26-.6,2.1-1.73,2.73-1.46,.63-2.93,.56-4.39-.21-.73-.49-1.13-1.19-1.13-2.17v-25.83h-16.36Zm16.36-19.04h-16.36v17.22h16.36V19.67Zm7.25,17.22h17.22V20.02c-.13-.42-.33-.56-.6-.49h-16.62v17.36Z"/><path class="cls-1" d="M243.79,49.15h4.72c.47,0,.8-.14,1-.49l2.53-3.71c.33-.63,.8-.7,1.4-.21,1.33,1.05,2.53,2.52,3.52,4.34,.4,.49,.53,.98,.33,1.4-.13,.35-.47,.56-.93,.56h-24.47l-4.19,.49c-.27,.14-.47,.07-.53-.14l-.53-2.45c-.07-.28,.13-.35,.6-.28l4.65,.49h5.25v-13.72h-8.31l.67,.49c.6,.42,.93,.91,.86,1.4-.07,.49-.53,.98-1.33,1.4-.47,.21-.73,.77-.93,1.54-1.13,5.39-3.26,10.5-6.32,15.4,3.33,1.68,7.58,2.66,12.77,2.94,10.51,0,18.62-.7,24.34-2.03,.53-.07,.8,.07,.93,.42,.07,.35-.13,.56-.53,.91-1.26,.77-2.26,1.82-2.79,3.22-.47,1.26-.6,2.52-.4,3.92,.07,.42-.07,.63-.4,.63-2.33,.28-7.05,.42-13.96,.42-10.84-.07-18.42-2.52-22.74-7-3.79,3.57-8.58,6.09-14.03,7.49-.53,.14-.86,0-.86-.35-.13-.28,0-.63,.47-.84,4.72-2.31,8.58-5.6,11.5-9.73-2.99-4.48-4.92-8.96-5.85-13.3-.07-.63,.07-.98,.4-1.12,.47-.21,.8,.07,1,.7,1,3.29,3.19,6.86,6.18,10.71l1.06-2.31c1.53-3.64,2.53-7.56,2.99-11.69v-1.33c-.07-.21-.27-.35-.6-.21h-2.59l-.6,1.89c-.27,.77-.93,1.33-1.93,1.68-1.53,.35-2.86,.28-3.92-.35-.67-.49-.86-.98-.53-1.75,2.13-6.09,3.92-12.39,5.32-18.76h-6.38l-1.86,.28v10.99l-.13,8.61c-.6,11.2-4.06,19.95-10.24,26.11l-.8,.21-.13-.84c2.53-6.86,3.92-18.27,4.06-34.09V6.3c-.07-.7,.13-.98,.53-.77,2.53,1.05,5.32,2.52,8.44,4.55h13.77V.7c0-.21,.13-.28,.47-.28,2.66,.07,5.19,.42,7.45,1.05,.93,.35,1.4,.7,1.4,1.19,0,.63-.4,1.12-1.26,1.4-.47,.21-.73,.49-.67,.91v5.11h14.56c.53,0,.93-.21,1.2-.63l3.52-4.69c.33-.42,.73-.49,1.26-.14,2.39,1.54,4.52,3.43,6.12,5.88,.33,.28,.4,.63,.27,.91-.2,.35-.53,.49-1.13,.49h-48.68v6.16h6.98c.2,.07,.47-.14,.73-.49l1.93-1.75c.13-.21,.4-.21,.73-.07,1.6,.63,3.19,1.47,4.65,2.73,.47,.35,.67,.77,.73,1.12-.07,.49-.4,.77-1,.98-.27,.07-.47,.35-.67,.91-1.26,5.46-2.39,10.01-3.52,13.72h2.39c.47-.07,.73-.21,.86-.49l1-1.75c.2-.28,.6-.28,1.2,0l1.06,.63h11.3v-10.29c-4.92,.63-8.71,.91-11.64,.91-.4,0-.6-.21-.67-.56s.13-.56,.6-.63c10.77-2.45,18.75-5.46,23.81-8.89l1-.21c1.99,1.12,3.92,2.52,5.85,4.06,.73,.56,.86,1.12,.67,1.61-.27,.42-.73,.56-1.33,.42-.67-.07-1.33-.07-1.86,.14l-9.78,2.1v11.34h5.45c.47,0,.8-.21,1-.56l2.59-3.85c.33-.63,.8-.77,1.33-.28,1.53,1.19,2.73,2.73,3.86,4.62,.4,.42,.53,.91,.33,1.33-.13,.35-.47,.56-1,.56h-13.57v13.72Z"/><path class="cls-1" d="M273.32,36.82h-4.26l-3.59,.49c-.47,.21-.8,.14-.86-.14l-.6-2.31c-.07-.35,.13-.42,.67-.35l4.39,.42h3.52c.33-.07,.6-.21,.8-.56l1.93-2.1c.2-.14,.47-.14,.73,0,1.8,1.05,3.52,2.24,5.32,3.71l.47,.7c0,.21-.47,1.05-1.53,2.45v13.72c0,1.12,.53,2.1,1.6,3.08,2.53,1.89,6.52,3.22,11.9,3.78,12.83,.42,23.74-.42,32.52-2.52,.33-.14,.66-.07,.86,.21,.13,.35,0,.63-.4,.91-2.46,1.82-3.59,4.41-3.46,7.7,0,.28-.07,.49-.27,.56l-1.33,.21c-9.64,.7-18.42,.63-26.2-.07-7.58-.77-13.43-4.69-17.42-11.69-.33-.63-.6-.84-.8-.84-.33,0-.8,.49-1.2,1.54-5.65,6.72-8.51,10.43-8.51,11.2,.07,.42-.13,.7-.47,.84-.2,.07-.53-.21-.86-.7-.93-1.54-1.8-3.78-2.73-6.58-.13-.28,0-.56,.33-.63,2.39-1.19,4.66-2.52,6.72-4.06,1.8-1.47,2.73-2.87,2.73-4.13v-14.84Zm-7.85-20.65c.07-.28,.27-.42,.67-.42l2.19,.14c1.8,.21,3.46,.77,5.05,1.68,1.4,.91,2.46,1.75,2.99,2.59,.73,1.33,1,2.8,.67,4.41-.27,1.4-.93,2.45-2.19,2.94-2.73,.91-4.46-.28-5.12-3.78-.6-3.15-1.93-5.46-3.92-6.86-.33-.14-.4-.42-.33-.7Zm2.19-14.28c0-.28,.13-.42,.53-.49h.13c4.85-.84,8.51,.21,11.04,3.15,.93,1.12,1.33,2.52,1.26,4.2,0,1.47-.6,2.45-1.73,3.15-2.46,1.47-4.39,.49-5.65-2.87-1.06-3.29-2.79-5.46-5.19-6.44-.27-.14-.4-.35-.4-.7Zm28.66,36.54v.07c0,1.19-.47,1.96-1.4,2.38-1.46,.7-2.93,.7-4.46,0-.67-.49-1.06-1.19-1-2.31v-11.48l-7.91,3.99c-.27,0-.47,0-.53-.28s.07-.49,.27-.56c2.46-1.75,5.05-3.99,7.65-6.72l-1.46-.28c-.8-.49-1.53-1.4-2.13-2.73-.6-2.03-1.6-3.57-3.06-4.34-.27-.07-.4-.28-.4-.63,0-.28,.2-.42,.53-.49,3.32-1.19,6.18-.77,8.51,1.19,.73,.84,1.13,1.89,1.2,3.15l4.46-8.05h-8.84l-3.79,.63c-.4,.21-.67,.14-.73-.21l-.67-2.45c-.07-.35,.13-.42,.73-.28l4.46,.49h9.58c.8-2.24,1.33-5.25,1.73-8.82,.07-.35,.27-.49,.6-.42,2.59,.21,5.05,.63,7.45,1.33,.93,.21,1.4,.63,1.46,1.26,0,.49-.47,.91-1.46,1.19l-2.73,5.46h8.58c.53,0,.93-.21,1.2-.63l3.52-4.69c.27-.42,.73-.49,1.26-.14,2.39,1.54,4.46,3.5,6.12,5.88,.33,.35,.4,.63,.27,.91-.2,.35-.53,.49-1.13,.49h-14.03c1.26,2.59,3.19,5.11,5.98,7.35,1.53-2.03,2.79-3.92,3.79-5.74,.2-.42,.4-.56,.66-.35l4.79,3.78c.8,.63,1.13,1.26,.86,1.89-.2,.49-.67,.7-1.46,.49-.4-.14-.93-.07-1.53,.28l-4.26,1.61c2.53,1.54,5.12,2.52,7.78,3.01,.33,.07,.53,.28,.6,.63,.07,.28-.13,.49-.53,.56-1.33,.35-2.46,1.05-3.46,2.17-.86,1.12-1.46,2.17-1.73,3.36-.13,.49-.53,.63-1.13,.28l-1.26-.84v8.47c-.07,.91-.4,1.54-1.13,1.96-.67,.49-1.8,.77-3.26,.91-1,0-1.73-.28-2.13-.84-.33-.49-.53-1.05-.53-1.89h-3.86v14.07c-.07,1.89-.67,3.43-1.8,4.69-1.13,1.05-2.86,1.61-5.32,1.61-.33,0-.53-.28-.53-.77,0-1.26-.47-2.31-1.33-3.08-1.06-.77-2.06-1.47-3.19-2.03-.33-.14-.47-.42-.4-.77,.07-.35,.27-.49,.6-.42l3.46,.21c1,0,1.46-.42,1.53-1.12v-12.39h-5.05Zm-4.85,4.27c.07-.28,.27-.35,.47-.28,2.13,.98,4.06,2.24,5.98,3.64,.67,.56,.93,1.12,.73,1.68-.27,.49-.8,.63-1.66,.49l-.73,.28c-3.72,3.64-7.78,6.23-11.9,7.49-.27,.07-.47,.07-.53-.14s-.07-.35,.13-.56c3.13-3.01,5.52-6.93,7.05-11.62l.47-.98Zm20.75-21.49c-1.73-3.36-2.79-6.65-3.33-9.87h-5.39c-1.33,3.15-3.72,6.65-7.18,10.29v.49h14.9c.27,0,.53-.14,.73-.49l.27-.42Zm.07,8.26v-5.11c-.07-.42-.33-.56-.67-.28h-15.29v5.39h15.96Zm0,7.14v-5.32h-15.96v5.32h15.96Zm-1.06,7.7c.07-.35,.27-.49,.6-.42l2.26,.21c3.52,.56,6.25,2.03,8.05,4.48,.73,1.26,.93,2.73,.6,4.27-.27,1.33-1,2.24-2.19,2.73-2.53,.98-4.19-.21-4.92-3.64-.6-3.15-1.99-5.46-4.12-6.86-.27-.21-.33-.42-.27-.77Z"/><path class="cls-1" d="M339.42,63.5c0,1.4-.33,2.38-.93,2.87-.8,.63-1.86,.98-3.32,.98-.86,0-1.46-.21-1.93-.7-.33-.35-.53-.91-.53-1.68V2.45l.13-.49h.53c1.8,.49,3.72,1.26,5.92,2.38h11.04c.27,0,.53-.14,.67-.49l1.66-1.82c.2-.21,.4-.21,.73-.07,2.06,.77,3.99,1.82,5.85,3.22,1.33,.91,1.2,1.82-.47,2.59-.47,.21-.67,.56-.67,1.19v11.9c-.07,.91-.4,1.47-1.06,1.96-.67,.42-1.73,.7-3.26,.77-.86,0-1.53-.28-1.93-.77-.33-.42-.47-.91-.47-1.61h-11.97V63.5Zm11.97-51.53V6.51c-.13-.35-.4-.49-.67-.21h-11.3v5.67h11.97Zm0,7.42v-5.6h-11.97v5.6h11.97Zm-10.64,14.49c.07-.28,.27-.42,.6-.35,1.73,.35,3.33,.91,4.52,1.82,1.4,1.05,2.26,2.1,2.39,3.36,.2,1.05,.07,2.03-.4,3.08-.47,.98-1.33,1.4-2.46,1.4-2.39-.14-3.39-1.47-3.13-3.92,.07-1.4-.4-3.01-1.33-4.69-.2-.21-.27-.49-.2-.7Zm13.43,1.75c.4,.21,.47,.56,.27,1.19l-4.26,13.23c-.67,2.31-.67,4.34,.13,6.02,.6,1.4,.73,2.73,.47,3.78-.6,1.68-1.66,2.73-3.13,3.01-1.33,.21-2.33-.14-3.19-1.19-.6-.84-.8-2.03-.47-3.71,.73-3.43-.07-6.02-2.39-7.7-.4-.28-.53-.56-.33-.91,.13-.21,.47-.28,1-.14l1.4-.14c.73,.07,1.2-.07,1.46-.49l8.11-12.25c.33-.63,.6-.84,.93-.7Zm-9.58-10.29c.07-.21,.27-.35,.6-.35,1.86,.07,3.52,.49,4.99,1.26,1.53,.84,2.53,1.89,2.86,3.08,.4,1.05,.4,2.03,.07,3.15-.33,1.05-1.13,1.61-2.26,1.82-2.46,.07-3.66-1.05-3.66-3.43-.27-1.89-1.13-3.5-2.26-4.76-.27-.21-.4-.49-.33-.77Zm25.73-2.1c-.93,.56-1.99,.84-3.13,.91-.86,0-1.6-.21-2.19-.63-.27-.28-.4-.84-.33-1.68V2.03c-.07-.35,.07-.56,.2-.49,2.19,.42,4.52,1.4,6.92,2.8h9.38c.67,0,1.13-.21,1.46-.56l2-2.66c.33-.35,.73-.42,1.26-.14,2.73,1.26,4.65,2.52,5.92,3.71,1.53,1.19,1.13,2.38-1.2,3.22-.6,.35-.8,.91-.8,1.68V60.42c-.07,2.66-.93,4.55-2.66,5.67-1.73,1.05-3.39,1.61-5.19,1.54-.27,.07-.4-.14-.47-.56,0-2.8-1.33-4.62-3.99-5.39l-.53-.42c-.73,.35-1.6,.56-2.86,.63-.93,0-1.53-.28-1.86-.77-.33-.42-.47-.98-.47-1.89h-9.77v.63c0,1.05-.33,1.82-1,2.24-.86,.56-1.8,.84-2.86,.91-.86,0-1.53-.21-1.93-.56-.33-.28-.47-.84-.4-1.68v-15.75c-.07-.35,.07-.56,.27-.49,2.33,.42,4.39,1.19,6.18,2.45h1.6v-6.65h-3.66l-3.79,.63c-.4,.21-.67,.14-.73-.21l-.67-2.45c-.07-.35,.13-.42,.73-.28l4.46,.49h3.66v-5.88h-7.38c-.53,0-.8-.14-.8-.42-.07-.35,.13-.56,.6-.63,6.92-1.54,12.17-3.64,15.63-6.23,.47-.28,.8-.35,1.06-.14,1.8,1.12,3.39,2.45,4.85,3.85,.73,.77,.86,1.4,.6,1.89-.27,.42-.86,.49-1.8,.21l-6.58,.84v6.51h.53c.47,0,.86-.14,1.06-.49l3.13-4.06c.33-.28,.67-.35,1.13,0,2,1.26,3.59,2.94,4.99,4.97,.33,.35,.4,.7,.27,.91-.2,.35-.53,.49-1.13,.49h-9.98v6.65h.6c.27,0,.53-.14,.73-.42l1.6-1.68,.67-.14c2.06,.77,3.92,1.75,5.65,3.15,1.26,.91,1.06,1.75-.53,2.45-.33,.21-.53,.56-.53,1.19v7.77l-.2,.91c2.46-.14,3.99-.42,4.39-.84,.47-.49,.67-1.05,.67-1.68V21.21h-11.84c-.07,.91-.4,1.54-.93,2.03Zm1.46,34.09v-8.26c-.2-.35-.4-.49-.73-.14h-9.04v8.4h9.77Zm11.3-45.36V6.79c-.07-.49-.33-.7-.67-.49h-11.1v5.67h11.77Zm0,7.42v-5.6h-11.77v5.6h11.77Z"/><path class="cls-1" d="M411.7,64.34c0,1.19-.53,2.03-1.66,2.66-1.4,.56-2.86,.49-4.26-.28-.73-.49-1.06-1.12-1.06-2.1v-24.01c-1.4,4.55-3.86,8.26-7.12,11.13-.47,.35-.8,.35-1.13,.14-.2-.35-.2-.63,.07-.98,3.99-8.61,6.72-19.46,8.05-32.13h-1.99l-4.26,.56c-.27,.07-.4,.07-.47-.21l-.53-2.45c-.07-.21,.13-.28,.6-.21l4.65,.42h2.13V.42c0-.21,.13-.35,.47-.42l6.85,1.05c1.26,.28,1.86,.77,1.86,1.47,0,.77-.53,1.26-1.53,1.61-.47,.14-.6,.49-.67,1.05v11.69h.2c.4,0,.73-.21,.93-.49l2.59-3.85c.33-.63,.8-.77,1.4-.28,1.46,1.19,2.73,2.73,3.79,4.55,.4,.49,.53,.98,.33,1.4-.13,.35-.47,.56-.93,.56h-8.31v5.95h.2c4.26,2.03,7.05,5.04,8.31,8.89,.47,1.26,.4,2.66-.13,4.06-.47,1.26-1.26,2.03-2.53,2.17-1.13,.21-2.13,0-2.86-.91-.73-.77-1.06-1.96-1.13-3.43-.27-3.01-1-5.32-1.86-6.86v35.7Zm29.86,0c0,1.19-.53,2.03-1.66,2.66-1.4,.56-2.86,.49-4.26-.28-.73-.49-1.06-1.12-1.06-2.1v-13.79c-2.33,3.01-5.32,5.74-8.98,8.12-3.19,1.96-6.12,3.29-8.78,3.92-.4,.07-.67,0-.73-.21-.07-.21,.07-.42,.4-.63,8.05-5.04,13.5-12.25,16.36-21.42h-3.59v.42c0,1.26-.4,2.1-1.13,2.66-1,.63-2.13,.91-3.33,.98-1,0-1.73-.21-2.26-.7-.33-.28-.53-.91-.47-1.82V18.27c-.07-.49,.07-.7,.33-.63,2.93,.84,5.32,1.75,6.98,2.8h5.19v-7.7h-9.91l-3.86,.63c-.4,.14-.6,.14-.67-.21l-.67-2.52c-.07-.28,.13-.35,.73-.21l4.46,.42h9.91V.7c0-.21,.13-.35,.47-.42l6.92,1.05c1.2,.28,1.8,.7,1.8,1.47s-.53,1.26-1.46,1.61c-.47,.14-.67,.42-.73,1.05v5.39h4.39c.53,0,.93-.21,1.2-.56l3.52-4.76c.27-.42,.73-.49,1.26-.14,2.39,1.61,4.46,3.5,6.12,5.88,.33,.35,.4,.7,.27,.98-.2,.35-.53,.49-1.13,.49h-15.63v7.7h3.66c1,.07,1.6-.14,1.86-.63l1.66-2.59c.33-.35,.67-.42,1.13-.21,2.59,.98,4.65,2.1,6.32,3.36,1.33,1.12,1.06,2.1-.73,2.87-.47,.21-.73,.56-.73,1.05v16.73c0,1.12-.53,1.89-1.53,2.52-1.13,.49-2.13,.77-2.93,.77-.86,0-1.6-.21-2.13-.7-.4-.42-.67-1.12-.6-2.24v-.77h-5.12c1.13,3.22,3.26,6.3,6.32,9.24,3.46,3.29,7.12,5.53,10.97,6.72,.4,.14,.6,.35,.6,.7,0,.21-.2,.42-.6,.49-1.4,.21-2.66,.91-3.72,1.96-1.06,.98-1.8,2.1-2.13,3.29-.2,.42-.53,.49-1.13,.21-5.59-4.13-9.38-10.5-11.17-19.11v20.23Zm-6.98-42.07h-5.32v7.49h5.32v-7.49Zm0,9.31h-5.32v7.21h5.32v-7.21Zm6.98-1.82h5.98v-7.07c-.2-.42-.47-.56-.86-.42h-5.12v7.49Zm0,9.03h5.98v-7.21h-5.98v7.21Z"/><path class="cls-1" d="M502.14,62.87h11.37c.53,0,.93-.21,1.13-.63l3.52-4.76c.33-.35,.8-.42,1.33-.14,2.39,1.61,4.46,3.5,6.05,5.88,.33,.35,.4,.7,.27,.98-.2,.35-.47,.49-1.06,.49h-33.58l-3.86,.63c-.4,.21-.6,.14-.67-.21l-.67-2.45c-.07-.35,.13-.42,.73-.28l4.46,.49h3.99V8.05h-4.59l-.33,.14c-.4,.21-.6,.56-.6,1.19v13.79c-.07,.84-.33,1.47-.93,1.89-.73,.35-1.8,.63-3.13,.7-.93,0-1.6-.28-1.86-.7l-.4-.84h-1.46v11.83h.6c.47,0,.8-.21,1-.56l2.59-4.06c.47-.56,.86-.7,1.46-.28,1.53,1.26,2.86,2.8,4.06,4.83,.4,.49,.53,.91,.33,1.33-.13,.35-.47,.56-1,.56h-9.04v15.75c3.06-1.12,6.12-2.38,9.04-3.85,.27-.21,.47-.21,.67,0,.2,.21,.13,.49-.07,.77-4.39,4.06-10.77,8.26-19.22,12.32-2.53,1.05-3.79,1.89-3.72,2.38,0,.84-.27,1.33-.73,1.47-.6,.21-1.13-.14-1.46-.91-1-2.59-1.86-5.25-2.46-7.98-.13-.49,0-.63,.4-.7l2.33-.14V30.52l.27-.42c1.86,0,3.92,.21,6.18,.7,1,.21,1.46,.56,1.46,1.19,0,.49-.33,.84-1,1.12-.4,.14-.6,.56-.53,1.12v21.84l2.46-.63V24.22h-2.53c0,1.05-.27,1.82-.93,2.31-.86,.56-1.93,.84-2.99,.91-.86,0-1.53-.21-1.99-.63-.33-.28-.47-.84-.4-1.61V3.01c-.07-.42,.07-.63,.27-.56,2.46,.56,4.46,1.47,5.98,2.38h9.24c.27,0,.53-.07,.73-.35l1.53-1.75,.73-.14c3.26,1.26,5.32,2.45,6.12,3.64h21.68c.47,0,.86-.21,1.13-.63l3.39-4.48c.33-.42,.8-.49,1.26-.14,2.33,1.47,4.26,3.43,5.85,5.67,.33,.35,.4,.7,.27,.98-.2,.28-.53,.42-1.13,.42h-21.55v15.68h10.64l2.39-2.38c.2-.21,.4-.21,.73-.07,2.13,.77,4.19,1.89,6.12,3.36,1.2,.91,1,1.82-.53,2.66-.47,.21-.67,.63-.67,1.19v19.67c-.07,.84-.4,1.47-1.06,1.96-.73,.49-1.86,.77-3.33,.91-1,0-1.73-.28-2.06-.84-.33-.49-.53-1.19-.47-2.03v-1.82h-11.77v16.52Zm-18.89-40.53V7c-.2-.35-.4-.49-.73-.21h-9.51v15.54h10.24Zm30.66,22.19V25.97c-.13-.42-.4-.56-.73-.35h-11.04v18.9h11.77Z"/></g></g></svg>