<?xml version="1.0" encoding="UTF-8"?><svg id="_層_2" xmlns="http://www.w3.org/2000/svg" viewBox="0 0 613.14 273.42"><defs><style>.cls-1{fill:#b28247;}</style></defs><g id="_層_1-2"><g><path class="cls-1" d="M35.11,17.32l-2.65-2.49c-.45-.24-.56-.49-.44-.67l1.52-2.03c.18-.22,.36-.11,.63,.35l2.37,3.72,13.26,16.98c.45,.58,.94,.87,1.34,.81l3.8-.02c.78-.02,1.25,.46,1.3,1.43l.26,2.5c1.91-5.97,6.39-12.17,13.53-18.5l-3.52-4.51-2.65-2.48c-.53-.34-.75-.51-.68-.65l1.82-2.1c.12-.18,.34-.02,.53,.34l2.41,3.77,2.58,3.3,3.28,.56c.37,.13,.53,.34,.49,.63l.07,.2c.39,4.59-.57,5.76-2.97,3.59-.26-.22-.62-.11-1.02,.29-1.56,1.98-2.77,3.85-3.53,5.71-3.14,7.35-2.92,15.02,.65,23.12,.15,.31,.07,.54-.17,.81l-.75-.17c-3.48-1.84-6.87-1.97-10.15-.25-.47,.2-.69,.03-.81-.47-.35-1.92-.49-3.92-.47-5.71l-1.71-.6c-.73-.36-1.52-.24-2.34,.31-12.99,9.64-21.48,14-25.3,13.1-3.29-.8-5.89-2.31-7.74-4.67-.29-.37-.24-.65,.09-.91,2.32-1.81,3.17-4.59,2.69-7.93-.34-.66-.17-1.13,.36-1.47,.54-.33,1.04-.14,1.43,.57,2.77,3.32,4.84,5.17,6,5.52,.37,.13,1.02,.05,2.05-.33l2.15-1c10.44-6.3,15.96-10.28,16.54-11.92,.08-.23-.01-.58-.39-.96l-6.51-8.33c-8.66,5.75-16.39,8.59-23.08,8.67-7.65-.01-14.12-2.38-19.08-7.03-.3-.27-.41-.52-.23-.75,.23-.27,.52-.24,.89-.11,4.11,1.85,9.35,2.65,15.61,2.24,6.27-.85,13.38-3.79,21.27-8.94l-2.74-3.51ZM57.61,.07c.32-.16,.59-.04,.82,.37,1.12,2,2.15,4.23,3.08,6.79,.26,.9,.21,1.52-.33,1.86-.5,.39-1.06,.24-1.84-.42-.33-.42-1.69-.12-3.96,.73-11.84,3.26-22.33,3.02-31.29-.7-.37-.13-.53-.34-.45-.58,.17-.47,.68-.61,1.46-.29,11.11,.69,21.42-1.46,30.73-6.72l1.76-1.04Z"/><path class="cls-1" d="M70.84,66.55l-2.16-2.16-3.41-2.62c-.29-.09-.38-.28-.23-.52l1.31-2.06c.15-.25,.34-.15,.62,.23l2.99,3.69,2.16,2.16,7.03-7.03-.14-.14-3.41-2.62c-.29-.09-.38-.28-.23-.52l.3-.49c-1.73-.15-3.22-.55-4.37-.9-.53-.13-.76-.37-.61-.71,.1-.29,.35-.44,.78-.41,7.83-.49,16.01-3.59,24.41-9.35,.39-.3,.73-.16,1.05,.36,1.38,2.47,2.28,4.96,2.65,7.41,.12,.82,.01,1.3-.52,1.56l-.53,.16c1.36,3.34,1.47,6.52,.34,9.35-.42,1.26-1.31,2.25-2.58,2.86-1.08,.7-2.19,.68-3.23,.13-1-.51-1.51-1.31-1.58-2.47-.02-1.01,.44-2.04,1.29-3.17,1.75-2.31,2.73-4.99,3.09-7.7l-.29,.1-1.46,.42c-5.97,1.55-11.21,2.45-15.5,2.61l1.68,2.08,2.87,2.87c.33,.33,.71,.42,1.1,.31l4.56-.89c.68-.21,1.11,.02,1.14,.74,.24,1.92,0,3.86-.54,6-.01,.58-.27,1.02-.71,1.17-.34,.15-.72,.07-1.1-.31l-3.71-3.72-7.03,7.03,5.37-.67c.68-.21,1.06,.07,1.09,.79,.19,1.78,0,3.57-.58,5.66-.01,.58-.27,1.02-.71,1.17-.34,.15-.72,.07-1.1-.31l-5.36-5.36-13.42,13.41c2.86,1.38,5.87,2.5,8.83,3.49,.29,0,.43,.13,.42,.42,0,.29-.21,.49-.45,.45-4.97-.02-11.64-1.25-19.77-3.74-2.72-1.14-4.3-1.43-4.65-.99-.45,.54-.98,.7-1.46,.52-.52-.23-.61-.8-.39-1.58,.98-2.39,2.15-4.68,3.51-6.89,.2-.39,.45-.45,.78-.21,2.26,1.97,4.63,3.74,6.95,5.27l14.9-14.89Zm-8.23-2.69c.24-.05,.43,.04,.47,.37l.23,2.31c.14,3.9-.76,7.06-2.8,9.28-.84,.94-1.92,1.45-3.27,1.58-1.16,.13-2.02-.14-2.67-1.09-1.35-1.75-.73-3.5,1.82-5.01,2.99-1.76,4.93-4.18,5.78-7.09,.05-.24,.15-.34,.44-.35Zm14.9,37.2l-4.61-4.61-3.36-2.57c-.29-.09-.38-.28-.23-.53l1.31-2.06c.15-.25,.34-.15,.62,.23l2.94,3.64,4.61,4.61,4.9-4.9-3.76-3.76c-.69,.6-1.42,.86-2.14,.73-1.01-.22-1.96-.77-2.85-1.57-.56-.56-.93-1.23-1.06-1.95-.04-.43,.21-.87,.91-1.47l14.56-14.55c.25-.34,.49-.4,.58-.21,1.21,1.9,2.16,4.14,2.78,6.34l11.38,11.38c.19,.19,.47,.28,.86,.17l2.37-.11c.29,0,.43,.13,.57,.47,.91,2,1.58,4.16,1.86,6.42,.3,1.58-.39,2.08-2.16,1.5-.48-.18-.87-.07-1.31,.37l-9.16,9.15c-.69,.6-1.37,.81-2.14,.73-.96-.36-2-1.01-2.99-2,.1,1.78,0,3.67-.54,5.8-.11,.58-.31,.97-.75,1.13-.34,.15-.68,.11-1.05-.26l-7.38-7.39-4.9,4.9,4.7,4.7c.33,.33,.71,.42,1.1,.31l4.71-1.04c.73-.07,1.15,.16,1.23,.84,.19,1.97,0,4.05-.55,6.28-.06,.63-.32,1.07-.71,1.18-.34,.15-.72,.07-1.1-.31l-24.4-24.42-3.41-2.61c-.29-.09-.38-.28-.23-.53l1.31-2.06c.15-.25,.34-.15,.62,.23l2.99,3.69,8.98,8.99,4.9-4.9Zm-3.32-24.42l.89-.89c.25-.25,.49-.21,.72,.13l2.92,4.41c.46,.66,.45,1.24,.15,1.64-.35,.35-.83,.46-1.5,.09-.33-.14-.72-.13-1.06,.03-4.15,1.89-8.03,2.57-11.29,2.07l-.43-.23c-.04-.24,.11-.39,.4-.49,2.88-1.38,5.98-3.62,9.15-6.79l.05,.05Zm15.11,12.64l-3.71-3.72-4.31,4.3,3.71,3.72,4.31-4.31Zm-5.75,15.24l1.65,1.65c.33,.33,.67,.37,1.05,.26,2.91-.75,4.71-1.13,5.09-.95-.17-.67,.13-1.45,.83-2.14l-3.71-3.72-4.9,4.9Zm11.44-20.93l-3.71-3.72-4.41,4.4,3.71,3.72,4.41-4.4Zm18.44-6.01c.39-.3,.64-.35,.82-.07l3.25,5.03c.46,.95,.49,1.68,.04,2.12-.4,.4-.93,.36-1.54-.15-.28-.19-.81-.32-1.59-.2-2.42,.35-4.69,.36-6.9,.03l3.24,3.25c.33,.33,.66,.47,1.05,.36l4.56-.89c.68-.21,1.06-.03,1.14,.74,.24,1.92,0,3.86-.49,5.95-.06,.63-.32,1.07-.75,1.22-.34,.15-.73,.07-1.1-.31l-22.05-22.06-3.36-2.57c-.29-.09-.38-.28-.23-.52l1.31-2.06c.15-.25,.34-.15,.62,.22l2.99,3.59,2.92,2.92c.07-.92,.63-1.95,1.57-2.89,1.82-1.44,2.83-3.11,3.07-4.95l.4-.59c.24-.05,.43,.04,.57,.27l.09,.09c1.79,3.57,2.15,6.51,1.32,8.65-.86,1.42-2.18,2.27-3.88,2.56l5.22,5.22c2.93-1.52,5.53-3.18,7.7-4.97Zm-23.69,20.76l3.71,3.72,4.31-4.31-3.71-3.72-4.31,4.3Zm5.59-5.59l3.71,3.72,4.26-4.26c.15-.34,.06-.63-.27-.76l-3.2-3.2-4.51,4.5Zm19.92-29.68c.1-.2,.25-.15,.48,.08,1.74,1.84,3.23,3.73,4.34,5.73,.46,.86,.49,1.48,.15,1.83-.45,.45-1.03,.46-1.74,.04-.52-.23-.86-.17-1.16,.22l-2.33,2.33,2.26,2.26c.33,.33,.71,.42,1.1,.31l4.56-.89c.63-.16,1.06,.07,1.14,.84,.24,1.83,0,3.86-.54,5.9-.06,.63-.32,1.07-.75,1.23-.29,.1-.68,.02-1.05-.36l-17.44-17.45-3.36-2.57c-.29-.09-.38-.28-.23-.53l1.31-2.06c.15-.25,.34-.15,.62,.23l2.94,3.64,4.47,4.47,5.25-5.25Z"/><path class="cls-1" d="M118.54,116.3l-1.42,1.82c-.78,.99-1.61,1.41-2.58,1.36-1.12-.08-2.18-.55-3.17-1.24-.79-.62-1.23-1.23-1.4-1.99-.04-.38,.19-1,.81-1.68l16.56-21.17c.25-.43,.48-.51,.6-.33,2.12,2.9,3.51,5.23,4.02,7.06l12.41,9.71,9.66-12.35,.47-.61c.17-.22,.36-.25,.62-.04l5,5.16c.83,1.1,1.05,1.89,.58,2.5-.47,.61-1.24,.72-2.3,.24-.45-.18-.83-.02-1.21,.47l-7.12,9.1,11.62,9.1c.48,.46,.98,.59,1.4,.47l2.74-.7c.75-.21,1.25-.09,1.59,.45,1.55,2.55,2.49,4.7,2.86,6.6,.54,2.11-.31,2.78-2.52,2.03-.39-.04-.72,.06-.98,.39l-12.16,15.55c-.65,.83-1.49,1.15-2.51,1.05-1.03-.09-2.04-.53-3.14-1.39-.73-.57-1.14-1.25-1.2-1.92-.05-.48,.15-.95,.58-1.5l2.33-2.98-13.56-10.62-15.7,20.07c-.78,.99-1.76,1.29-3.04,1.08-1.54-.41-2.65-1.36-3.33-2.87-.27-.84-.16-1.63,.45-2.41l15.92-20.34-12.88-10.08Zm24.62-4.91l-12.88-10.08-10.61,13.56,12.88,10.08,10.61-13.56Zm-4.9,18.03l13.56,10.62,10.4-13.29c.15-.41,.08-.65-.17-.75l-13.09-10.25-10.7,13.67Z"/><path class="cls-1" d="M167.16,183.26c-.74,1.11-1.6,1.49-2.82,1.33-1.58-.21-2.8-1.03-3.65-2.44-.47-.77-.41-1.64,.2-2.66l13.1-21.77c-4.88,5.4-10.3,8.34-15.93,8.54-.58,.06-.92-.15-1.03-.62-.03-.34,.19-.7,.66-.83,7.77-4.39,15.64-11.01,23.72-19.79l-4.84-2.92-3.93-1.72c-.3-.02-.44-.18-.35-.45l.77-2.31c.09-.27,.29-.23,.66,.07l3.83,2.79,5.01,3.02,5.92-9.83c-2.43-.73-5.63-2-9.49-3.83-.55-.25-.8-.48-.67-.81,.16-.39,.47-.53,.95-.41,8.94,1.79,16.03,2.13,21.14,1.12,.59-.21,1.01-.13,1.18,.22,1.43,2.01,2.61,4.18,3.44,6.4,.38,1.05,.25,1.78-.19,2.25-.55,.4-1.23,.24-2.09-.52-.42-.33-2.76-1.09-7.13-2.09l-6.79,11.27,.23,.14c.4,.24,.76,.29,1.14,.04l4.57-2.31c.76-.36,1.25-.15,1.57,.62,.68,1.96,1.12,4.19,1.12,6.64,.09,.63-.05,1.11-.44,1.37-.29,.23-.69,.24-1.14-.04l-8.03-4.84-3.11,5.16,.63,.62c2.77,3.39,4.04,7.09,3.77,10.76-.17,1.45-.8,2.62-1.96,3.64-.93,.91-1.99,1.25-3.2,.93-1.15-.28-1.86-1.04-2.2-2.14-.23-1.04-.09-2.18,.5-3.54,1.25-2.84,1.61-5.65,1.16-8.12l-16.28,27.04Zm14.76-10.72l-3.8-.65c-.36-.05-.49-.21-.5-.46l-.12-1.87c-.05-.44,.17-.55,.61-.37l4.4,1.59,18.38,5.83,19.93-33.1,.4-.66c.14-.24,.33-.29,.56-.15l5.65,4.54c.9,.95,1.22,1.71,.82,2.37-.4,.66-1.11,.8-2.2,.56-.47-.12-.82,.08-1.2,.58l-16.07,26.69c1.13-.71,2.22-1.36,3.29-1.86,.48-.28,.89-.2,1.22,.16,1.65,1.65,3.1,3.75,4.39,6.24,.2,.45,.19,.85,0,1.15-.24,.27-.55,.4-.91,.35l-9.81-3.05-11.91,19.79c-.65,1.08-1.6,1.49-2.83,1.48-1.64-.25-2.8-1.03-3.71-2.48-.32-.76-.3-1.57,.21-2.41l11.23-18.65-18.04-5.63Zm13.43-17.41c.2-.21,.5-.19,.75,.04l1.76,1.71c2.86,2.86,4.24,5.98,4,9.35-.21,1.51-.87,2.74-2.1,3.88-1.01,1.03-2.16,1.4-3.46,1.1l-.23-.14c-2.44-.98-2.99-3.03-1.64-6.05,1.48-3.36,1.76-6.54,.71-9.05-.12-.32-.03-.59,.21-.86Zm9.71-13.93c.2-.21,.45-.22,.79-.02l1.94,1.42c3.02,2.47,4.64,5.32,4.86,8.56-.08,1.42-.65,2.88-1.67,4.06-.93,1.16-2.03,1.56-3.4,1.39-2.73-.5-3.62-2.5-2.53-5.85,1.12-3.41,1.15-6.42-.1-8.72-.21-.29-.12-.57,.11-.83Z"/><path class="cls-1" d="M248.03,184.12c4.75,5.18,7.95,9.44,9.47,12.73,1.17,2.59,1.46,4.41,.92,5.62-.51,1.15-1.18,2-1.89,2.61-.71,.45-1.46,.5-2.31,.12-1.4-.62-2.29-2.55-2.67-5.79-1.19-5.82-2.87-10.4-5.18-14.03l1.65-1.26Z"/><path class="cls-1" d="M280.92,241.62c-.57-.17-.83-.47-.71-.87,.14-.47,.48-.66,1.07-.55,8.64,1.31,16.65,1.27,23.98-.23-3.03-4.43-4.65-9.39-4.68-14.74l-3.18-.97-3.58-.58c-.57,.05-.83-.03-.83-.25l.16-2.58c.02-.29,.23-.3,.72-.07l4.08,1.68,25.19,7.67,.97-.44,2.6-1.7c.32-.12,.57-.05,.83,.25,1.6,1.81,3.02,3.55,4.07,5.34,.47,.73,.63,1.36,.42,1.81-.25,.58-.79,.78-1.81,.69-.19-.06-1.16,.38-2.5,1.14-2.56,2-6.36,3.77-11.39,5.46,5,2.99,11.26,5.26,18.67,6.71,.59,.11,.93,.36,.92,.65-.04,.35-.18,.6-.56,.71-3.04,.61-5,2.5-5.9,5.45-.14,.47-.46,.59-.9,.46-7.28-2.36-13.98-6.6-19.96-12.52-8.84,.96-18.17,.1-27.67-2.5Zm13.84-25.12c-.35,1.14-1,1.67-2.01,1.8-1.46,.22-2.86-.21-4.05-1.31-.58-.62-.69-1.38-.3-2.43l5.88-19.28c-1.75,.71-3.58,1.25-5.2,1.56-.36,.04-.55-.02-.55-.24,0-.22,.14-.47,.39-.61,2.29-1.57,4.74-3.68,7.16-6.38,2.53-2.82,4.44-5.89,5.84-9.12l.39-.83c.17-.32,.46-.37,.8-.34,2,.97,3.93,2.15,5.83,3.46,.85,.63,1.15,1.23,.97,1.83-.21,.45-.75,.65-1.6,.46l-5.44,4.85-.08,.27,4.77,1.45c1.83-2.81,3.19-5.47,4.2-8.09,.12-.4,.31-.56,.61-.4l4.89,2.44c.89,.49,1.28,1.05,1.1,1.65-.08,.49-.56,.71-1.3,.63l-1.35,.54c-1.86,1.55-3.88,2.92-6.04,3.87l2.16,.66c.45,.14,.8,.1,1.1-.18l3.5-2.81c.5-.51,.97-.44,1.4,.21,.97,1.39,1.68,3.15,2.11,5.18,.24,.58,.22,1.09-.09,1.44-.23,.3-.61,.4-1.05,.26l-6.81-2.07-1.43,4.69,2.33-1.71c.5-.51,.97-.44,1.33,.19,.97,1.39,1.58,3.04,2.04,4.94,.24,.58,.22,1.09-.09,1.44-.23,.3-.61,.4-1.12,.25l-5.53-1.69-1.59,5.22,3.08-2.35c.5-.51,.97-.44,1.33,.19,.9,1.37,1.58,3.04,2.02,5.01,.2,.5,.18,1.01-.13,1.35-.17,.32-.54,.42-1.05,.26l-6.04-1.84-1.94,6.36,.86-.32,3.6-2.93c.5-.51,.99-.5,1.35,.12,1.12,1.58,1.81,3.41,2.34,5.54,.24,.58,.24,1.03-.07,1.37-.23,.3-.61,.4-1.12,.25l-17.24-5.25-.14,.47Zm4.49-1.05l1.94-6.36-3.82-1.16-1.94,6.36,3.82,1.16Zm4.33-14.2l-3.82-1.16-1.86,6.09,3.82,1.16,1.86-6.09Zm2.47-8.1l-3.82-1.16-1.92,6.29,3.82,1.16,1.92-6.29Zm4.58,45.44c4.36-1.31,8.52-3.55,12.29-6.57l-20.8-6.34c.76,2.28,1.89,4.53,3.44,6.97,1.48,2.21,3.17,4.19,5.07,5.94Zm9.29-12.68c-1.6,.24-3.07-.2-4.37-1.4-.58-.61-.73-1.47-.32-2.59l5.9-19.35-3.92,.78c-.29,.06-.49,0-.49-.22l3.27-2.74c2.99-2.75,5.97-6.82,8.85-12.16,.17-.32,.48-.44,.8-.34,2,.97,3.93,2.15,5.72,3.57,.85,.63,1.22,1.25,.97,1.83-.21,.45-.82,.63-1.67,.44l-4.46,3.69-.31,1,5.22,1.59c1.85-2.88,3.32-5.65,4.35-8.33,.12-.4,.31-.56,.61-.4l4.89,2.44c.83,.47,1.22,1.03,1.03,1.63-.08,.49-.56,.71-1.26,.71l-1.33,.47c-1.99,1.74-4.19,3.04-6.44,4.04l2.67,.81c.45,.14,.83,.03,1.12-.25l3.58-2.86c.44-.53,.92-.52,1.35,.12,1.12,1.58,1.81,3.41,2.36,5.48,.24,.58,.22,1.09-.09,1.44-.23,.3-.61,.4-1.12,.25l-8.02-2.44-1.92,6.29c.32,.1,.68,.06,.95-.15l3.39-2.7c.5-.51,.9-.46,1.27,.17,.97,1.39,1.58,3.04,2.04,4.94,.24,.58,.22,1.09-.09,1.44-.23,.3-.61,.4-1.12,.25l-7-2.13-1.94,6.36c.32,.1,.68,.06,.97-.22l3.39-2.7c.5-.51,.9-.46,1.27,.17,.97,1.39,1.58,3.04,2.02,5.01,.26,.52,.24,1.03-.07,1.37-.23,.3-.61,.4-1.12,.25l-7-2.13-1.94,6.36,1.21,.37c.45,.14,.83,.03,1.12-.24l3.6-2.93c.5-.51,.99-.5,1.42,.14,1.05,1.56,1.81,3.41,2.28,5.52,.26,.52,.24,1.03-.07,1.37-.23,.3-.61,.4-1.05,.26l-18.58-5.66c-.39,.83-1,1.23-1.95,1.38Zm6.11-2.02l1.94-6.36-3.56-1.08-1.94,6.36,3.56,1.08Zm4.41-14.46l-3.56-1.08-1.94,6.36,3.56,1.08,1.94-6.36Zm2.47-8.1l-3.56-1.08-1.92,6.29,3.56,1.08,1.92-6.29Z"/><path class="cls-1" d="M369.39,216.97c.37,.21,.43,.64,.12,1.23l-11.73,25.1c-.99,2.6-1.18,5.62-.53,8.86,.57,2.94,.49,5.34-.44,7.17-.78,1.78-2.09,2.69-3.79,2.75-1.36,.05-2.47-.57-3.15-1.69-.87-1.57-.91-3.71-.02-6.47,.83-2.41,1.25-4.83,1.15-6.98-.28-1.47-1.34-2.79-3.29-3.98-.42-.29-.51-.58-.31-.91,.11-.26,.46-.34,.98-.18,2.46,.21,3.91,.04,4.25-.4l15.68-23.77c.45-.63,.76-.86,1.07-.74Zm-16.9-2.59c.19-.32,.46-.35,.71-.23,4.68,1.81,7.42,4.28,8.24,7.33,.27,1.54,0,3.06-.86,4.54-.76,1.29-1.76,1.97-3.12,2.01-2.89-.08-4.11-1.99-3.77-5.49,.61-2.74,.18-5.3-1.16-7.31-.23-.25-.24-.54-.05-.86Zm6.05-16.14c.06-.34,.35-.44,.73-.3l.33,.06c4.77,1.68,7.83,4.28,9.07,7.62,.4,1.56,.22,3.02-.53,4.6-.57,1.32-1.52,2.15-2.9,2.34-2.86,.14-4.32-1.54-4.22-5.21,.31-3.36-.49-6.12-2.41-8.24-.16-.24-.18-.53-.05-.86Zm30.74,40.17l2.77-1.93c.23-.17,.43-.14,.73,.06,1.96,1.12,3.79,2.65,5.45,4.36,1.01,1.17,.67,1.96-.98,2.53-.5,.13-.76,.51-.87,1.13l-1.62,9.31c-.22,.88-.66,1.45-1.4,1.82-.81,.36-1.96,.37-3.42,.26-.98-.17-1.67-.5-1.9-1.11-.24-.54-.32-1.26-.1-2.15l.3-1.72-11.33-1.97-1.04,6-.25,2.59c.11,.52,.3,.98,.59,1.24,.41,.36,2.81,.92,7.27,1.69,5.06,.81,8.09,1.2,9.13,1.09,2.44-.43,5-3.11,7.45-7.87,.3-.59,.62-.82,.93-.69,.46,.08,.6,.46,.55,1.09l-1.29,4.68c-.36,1.29-.15,2.39,.63,3.38,1.19,.92,1.67,2.07,1.39,3.65-.25,1.45-1.31,2.47-3.01,2.96-1.89,.38-3.68,.57-5.55,.46l-10.56-1.41c-6.81-1.19-10.94-2.33-12.31-3.35-1.32-.94-2.08-2.42-2.31-4.17-.17-1.73-.13-3.15,.08-4.32l3.19-18.34c-3.84,1.89-7.27,3-10.21,3.2-.41,0-.66-.11-.68-.33-.03-.22,.14-.4,.5-.55,6.71-3.24,11.86-8.38,15.31-15.45l-2.69-.47-3.84-.03c-.43,.14-.68,.02-.68-.33l-.23-2.53c0-.36,.2-.39,.77-.15l4.31,1.25,3.01,.53,1.71-9.79-1.7-.3-3.91-.04c-.43,.14-.61,.04-.62-.32l-.24-2.53c0-.36,.2-.39,.77-.15l4.31,1.25,1.64,.29,1.79-10.27,.19-1.1c.04-.21,.18-.25,.51-.2,2.61,.53,5.04,1.3,7.16,2.31,.86,.5,1.26,.93,1.17,1.41-.11,.62-.58,1.04-1.49,1.16-.49,.13-.8,.36-.81,.78l-1.25,7.17,6.55,1.14,1.79-10.27,.19-1.1c.04-.21,.18-.25,.51-.2,2.61,.53,5.04,1.3,7.16,2.31,.86,.5,1.26,.93,1.17,1.41-.11,.62-.59,1.04-1.49,1.16-.5,.13-.8,.36-.81,.78l-1.25,7.17,.76-.51,4.28-4.01c.4-.36,.87-.35,1.33,.09,2.09,1.93,3.79,4.21,4.95,6.83,.27,.4,.27,.76,.11,.94-.26,.31-.54,.4-1.13,.3l-10.61-1.85-1.71,9.79,1.05,.18c.52,.09,.95-.05,1.29-.42l4.28-4.01c.33-.37,.8-.36,1.27,.08,2.09,1.93,3.79,4.21,5.02,6.84,.27,.4,.27,.76,.11,.94-.26,.31-.61,.39-1.2,.29l-14.61-2.54,1.2,2.41c3.23,5.11,8,8.35,14.07,9.55,.46,.08,.62,.32,.62,.68,.03,.22-.14,.4-.57,.54-1.41,.32-2.6,.97-3.68,2.13-1,1.1-1.68,2.27-1.95,3.43-.15,.47-.5,.55-1.17,.15-2.77-1.9-4.97-4.42-6.5-7.67-1.78-3.72-2.84-7.32-3.24-10.87l-.1-.59-9.89-1.72c-1.96,2.71-4.64,5.73-8.03,8.9l2.32,1.82,10.61,1.85Zm-12.06,8.77l11.33,1.97,1.44-8.27c-.06-.44-.3-.62-.65-.54l-9.17-1.6-1.48-.04-1.48,8.48Zm13.96-22.01l1.71-9.79-6.62-1.15-1.71,9.79,6.62,1.15Z"/><path class="cls-1" d="M443.65,249.01l-12.95-.65-3.81,.37c-.41,.19-.67,.11-.72-.18l-.54-2.55c-.05-.35,.15-.34,.75-.24l4.43,.71,12.95,.65,.95-18.88-13.02-.65c-3.97,7.44-8.3,12.76-12.58,15.84-.48,.33-.82,.38-1,.09-.18-.36-.16-.71,.19-1.04,6.14-8.31,9.87-18.78,10.97-31.48,.02-.42,.3-.69,.89-.59,2.72,.28,5.47,1.12,8.12,2.65,.71,.39,1.02,.82,.93,1.38-.1,.77-.72,1.15-1.86,1.24-.47,.05-.89,.45-1.13,1.28l-3.64,8.79,12.16,.61,.79-15.8,.06-1.19c.01-.21,.15-.27,.48-.26,2.65,.2,5.16,.68,7.39,1.42,.85,.39,1.29,.84,1.26,1.33-.03,.56-.45,1.03-1.26,1.27-.54,.18-.82,.45-.78,.94l-.63,12.65,7.37,.37c.6,.03,1.01-.16,1.36-.56l3.98-4.92c.29-.41,.75-.38,1.34-.07,2.57,1.81,4.66,4.02,6.39,6.63,.31,.37,.36,.72,.22,.99-.22,.34-.56,.46-1.15,.43l-19.59-.99-.95,18.88,5.58,.28c.6,.03,1.01-.16,1.36-.56l3.91-4.92c.36-.47,.82-.45,1.4-.07,2.57,1.81,4.66,4.02,6.33,6.63,.31,.37,.36,.72,.22,.99-.22,.34-.56,.46-1.09,.44l-17.8-.9-.98,19.44,12.09,.61c.53,.03,.94-.16,1.3-.64l3.97-4.85c.36-.47,.82-.45,1.34-.07,2.58,1.74,4.73,4.02,6.39,6.63,.31,.37,.36,.72,.22,.99-.21,.27-.55,.39-1.15,.36l-53.74-2.7-3.88,.44c-.41,.19-.67,.11-.72-.25l-.47-2.48c-.05-.35,.09-.42,.68-.25l4.49,.72,22.25,1.12,.98-19.44Z"/><path class="cls-1" d="M482.76,225.69c.11-.36,.37-.45,.78-.33,4.57,.59,7.79,2.75,9.71,6.33,.57,1.43,.54,2.98-.08,4.57-.5,1.44-1.37,2.27-2.69,2.57-2.83,.55-4.41-1.02-4.67-4.86-.15-3.15-1.07-5.68-2.79-7.45-.28-.19-.37-.47-.26-.82Zm18.12-3.03c.48,.18,.57,.59,.42,1.16l-6.32,28.65c-.47,2.77,.08,5.89,1.58,9.22,1.54,2.98,2.06,5.61,1.61,7.82-.33,1.92-1.31,3.18-2.94,3.71-1.3,.44-2.53,.11-3.59-.87-1.3-1.38-1.93-3.72-1.82-6.89,.2-2.89-.05-5.47-.74-7.74-.71-1.56-2.2-2.79-4.59-3.68-.48-.18-.64-.52-.53-.88,.11-.36,.43-.45,.97-.42l2.72-.19c.8,.01,1.31-.3,1.54-.81l10.69-28.12c.28-.72,.66-1.03,1-.98Zm-15.15-12.55c.05-.28,.3-.44,.71-.4,5.18,.62,8.84,2.54,10.85,5.48,.7,1.42,.87,2.89,.52,4.59-.3,1.42-1.1,2.39-2.4,2.83-2.8,.9-4.63-.45-5.22-4.12-.37-3.34-1.81-5.91-4.13-7.57-.28-.19-.37-.47-.32-.82Zm27.26,58.92c.08,1.19-.25,2.12-1.01,2.74-.95,.7-2,.98-3.25,1.14-.93,.07-1.67-.02-2.3-.47-.35-.26-.59-.87-.6-1.85l-1.9-27.02c-.1-.48,.02-.7,.29-.65,3.51,.67,6.11,1.54,7.64,2.55l6.5-.46-.93-13.2-11.41,.8-3.74,.89c-.38,.24-.65,.19-.74-.16l-.83-2.4c-.09-.34,.1-.43,.71-.33l4.48,.18,11.41-.8-.81-11.52c-5.97,1.33-10.79,2.09-14.36,2.41-.46,.03-.61-.17-.7-.44-.09-.34,.09-.64,.48-.74,12.93-3.78,22.43-8.1,28.57-12.74l.91-.27c2.33,.96,4.55,2.21,6.66,3.74,.77,.58,1.08,1.19,.92,1.69-.3,.51-.75,.68-1.42,.66-.67-.09-1.34-.05-1.98,.21l-12,3.79,.89,12.71,6.3-.44c.53-.04,.91-.27,1.15-.71l3.19-4.92c.24-.44,.7-.54,1.25-.23,2.5,1.37,4.69,3.18,6.51,5.44,.36,.33,.45,.67,.33,.89-.17,.36-.5,.53-1.09,.57l-17.51,1.23,.93,13.2,6.24-.44,2.28-2.69c.18-.22,.45-.24,.79-.13,2.24,.62,4.45,1.65,6.54,2.98,1.33,.96,1.2,1.95-.4,2.9-.46,.17-.62,.61-.58,1.23l1.34,19.13c0,.84-.29,1.56-.92,2.1-.76,.54-1.94,.91-3.45,1.15-1,.07-1.68-.16-2.12-.69-.37-.46-.62-1.22-.68-2.13l-.2-2.79-21.56,1.51,.17,2.37Zm21.26-5.7l-1.2-17.11c-.16-.41-.44-.53-.75-.23l-20.83,1.46,1.22,17.39,21.56-1.51Z"/><path class="cls-1" d="M565.15,264.03c.25,1.31,.12,2.33-.3,2.98-.68,.7-1.72,1.26-3.09,1.53-.85,.17-1.54,.09-2.09-.31-.31-.22-.63-.8-.78-1.56l-11.79-60.53,.04-.51,.46-.09c1.71,.09,3.48,.46,5.49,1.07l39.82-7.75c.6-.05,1.03-.27,1.16-.65l1.36-2.4c.35-.64,.71-.85,1.28-.75,2.66,.41,4.81,1.06,6.35,1.97,.73,.29,1.1,.78,1.14,1.35,.04,.56-.39,1.14-1.23,1.67-.23,.19-.39,.43-.32,.78l10.48,53.8c.1,.84-.15,1.67-.83,2.37-.62,.62-1.55,1.09-2.86,1.34-.91,.18-1.55,.02-2.04-.39-.38-.21-.6-.67-.72-1.29l-.44-2.27-41.39,8.06,.31,1.58Zm-10.84-55.66l6.91,35.45c3.38-3.87,6.14-8.83,8.33-14.6l-4.31,.84-4.07,1.36c-.23,.19-.38,.15-.5-.12l-.98-2.23c-.12-.26,.06-.37,.53-.39l4.66-.41,5.29-1.03,1.4-6.05,.14-1.03-.98,.19-4,1.35c-.23,.19-.44,.16-.56-.1l-.98-2.23c-.12-.26,.06-.37,.53-.39l4.66-.41,1.63-.32c.3-3.7,.46-7.72,.25-11.96,.01-.29,.18-.46,.52-.46l6.48,.59c1.03,.08,1.57,.41,1.6,.9,.01,.42-.36,.93-1.17,1.3-.25,.12-.43,.23-.46,.45l-.96,7.96,1.83-.36c.39-.08,.69-.28,.82-.66l1.76-4.19c.21-.68,.65-.84,1.33-.47,1.52,.84,2.96,1.99,4.37,3.64,.41,.35,.63,.8,.52,1.25,0,.36-.28,.63-.81,.73l-5.55,1.08,.18,.25c1.33,1.95,3.04,3.76,5.26,5.46l1.04-.2c.46-.09,.74-.36,.87-.74l1.81-4.27c.21-.68,.57-.9,1.25-.53,1.73,.88,3.2,2.16,4.67,3.8,.47,.34,.7,.79,.58,1.24-.06,.37-.35,.64-.87,.74l-7.12,1.39c3.75,2.19,7.54,3.59,11.1,4.11l-5.61-28.79c-.2-.32-.42-.42-.69-.08l-39.62,7.72-1.11,.22Zm8.55,1.12c.01-.29,.13-.38,.34-.35,2.04,.39,4.12,.98,6.02,1.68,.75,.35,1.1,.78,1.06,1.29-.12,.45-.54,.68-1.34,.76l-.53,.39c-2.63,4.93-5.96,8.72-9.71,11.02l-.39,.08-.09-.48c2.39-3.75,3.95-8.26,4.58-13.37l.07-1.01Zm43.02,43.11l-3.83-19.65c-.69,1.35-1.05,2.63-1,3.55,.03,.49-.29,.63-.93,.47-3.01-.84-5.67-2.32-8.1-4.34-.42,.29-.61,.69-.56,.96,.59,4.09,.62,7.01,.18,8.59-.9,2.67-2.8,4.4-5.71,5.11-.43-2.2-1.89-3.77-4.12-4.47-.6,.05-.86-.26-.89-.75,.05-.44,.28-.63,.75-.65l3.16-.12c.61-.33,.99-.83,1.13-1.5,.29-1.27,.14-3.45-.53-6.17l-8.62,1.68-1.2,.45,2.14,10.99c.21,1.1,.7,1.86,1.64,2.18,.64,.16,1.54,.27,2.67,.12,6.27-1.22,9.95-2.15,10.85-2.75,.85-.52,1.41-2.49,1.82-5.63,.05-.44,.21-.68,.53-.75s.56,.1,.71,.5c.71,2.93,1.35,4.51,1.8,4.71,1.54,.27,2.44,1.02,2.7,2.4s-.71,2.63-2.78,3.82c-2.1,1.05-6.21,2.21-12.27,3.46-5.75,1.12-9.63,.66-11.52-1.39-.76-1.14-1.32-2.24-1.52-3.27l-2.45-12.57c-2.64,3.15-5.46,5.7-8.51,7.43l3.05,15.67,41.39-8.06Zm-31.09-18.76l9.2-1.79,.59-.47,1.62-2.1c.16-.24,.42-.29,.72-.14l2.47,.87c-1.29-1.39-2.51-2.79-3.52-4.16l-10.58,2.06-2.51,5.2,2,.54Zm6.74-15.15l-.08-.41-3.53,.69-1.8,7.12,8.62-1.68c-1.26-1.96-2.3-3.83-3.15-5.73h-.07Zm1.74-11.59c.02-.22,.19-.39,.52-.46h.07c4.18-.83,7.67,.06,10.28,2.69,.8,.98,1.23,2.11,1.23,3.54,.03,1.21-.39,2.14-1.29,2.75-2.06,1.26-3.76,.52-4.96-2.17-1.33-3.02-3.2-4.94-5.4-5.8-.29-.09-.46-.27-.45-.55Z"/></g></g></svg>