<?xml version="1.0" encoding="UTF-8"?><svg id="_層_2" xmlns="http://www.w3.org/2000/svg" viewBox="0 0 634.47 112"><defs><style>.cls-1{fill:#b28247;}</style></defs><g id="_層_1-2"><g><path class="cls-1" d="M14.84,32.02c-2.28,4.03-4.74,7.78-7.29,11.28,0,.96-.32,1.49-.87,1.49l-3.42-2.98c3.37-3.84,6.38-8.16,9.12-12.96l2.46,3.17Zm-1.41-11.23l-2.64,3.02c-2.19-1.87-4.6-3.55-7.16-5.09l2.87-2.98c2.74,1.58,5.02,3.26,6.93,5.04Zm3.19-11.81l-2.64,3.02c-2.19-1.92-4.56-3.7-7.11-5.28l2.83-2.98c2.74,1.63,5.02,3.41,6.93,5.23Zm11.4,1.49V5.62c0-.86-.14-1.97-.32-3.22l4.06,.38c.73,.05,1.09,.24,1.09,.58,0,.48-.32,.91-.91,1.3v5.81h9.62v14.07h3.42v3.94h-12.08c.18,1.49,.59,2.78,1.19,3.84,1.05,2.16,2.6,4.03,4.65,5.57,1.92,1.49,4.2,2.78,6.93,3.94l-4.1,3.55c-2.64-1.63-4.7-3.17-6.11-4.61-2.19-2.02-3.83-4.27-4.83-6.82-.14-.34-.27-.72-.37-1.1-.09,.34-.23,.62-.32,.82-1.09,2.4-3.01,4.75-5.84,7.06-2.1,1.68-4.51,3.22-7.29,4.66l-3.38-3.22c2.87-1.3,5.15-2.54,6.79-3.7,2.55-1.78,4.38-3.6,5.43-5.42,.77-1.34,1.37-2.88,1.73-4.56H14.52v-3.94h3.74V10.46h9.76Zm-.04,14.07c0-.53,.04-1.1,.04-1.68V14.21h-5.84v10.32h5.79Zm3.97-1.68c0,.58-.05,1.15-.05,1.68h5.75V14.21h-5.7v8.64Z"/><path class="cls-1" d="M65.46,32.02c-2.28,4.03-4.74,7.78-7.29,11.28,0,.96-.32,1.49-.87,1.49l-3.42-2.98c3.38-3.84,6.38-8.16,9.12-12.96l2.46,3.17Zm-1.41-11.23l-2.64,3.02c-2.19-1.87-4.61-3.55-7.16-5.09l2.87-2.98c2.74,1.58,5.02,3.26,6.93,5.04Zm3.19-11.81l-2.64,3.02c-2.19-1.92-4.56-3.7-7.11-5.28l2.83-2.98c2.73,1.63,5.01,3.41,6.93,5.23Zm11.4,1.49V5.62c0-.86-.14-1.97-.32-3.22l4.06,.38c.73,.05,1.09,.24,1.09,.58,0,.48-.32,.91-.91,1.3v5.81h9.62v14.07h3.42v3.94h-12.08c.18,1.49,.59,2.78,1.18,3.84,1.05,2.16,2.6,4.03,4.65,5.57,1.91,1.49,4.19,2.78,6.93,3.94l-4.1,3.55c-2.64-1.63-4.7-3.17-6.11-4.61-2.19-2.02-3.83-4.27-4.83-6.82-.14-.34-.27-.72-.36-1.1-.09,.34-.23,.62-.32,.82-1.09,2.4-3.01,4.75-5.84,7.06-2.1,1.68-4.51,3.22-7.29,4.66l-3.37-3.22c2.87-1.3,5.15-2.54,6.79-3.7,2.55-1.78,4.38-3.6,5.43-5.42,.78-1.34,1.37-2.88,1.73-4.56h-12.86v-3.94h3.74V10.46h9.76Zm-.05,14.07c0-.53,.05-1.1,.05-1.68V14.21h-5.84v10.32h5.79Zm3.97-1.68c0,.58-.05,1.15-.05,1.68h5.74V14.21h-5.7v8.64Z"/><path class="cls-1" d="M110.19,21.03c.46,.1,.73,.24,.73,.53s-.18,.62-.55,.91c-.18,4.94-.46,8.59-.82,10.9-.27,1.73-.64,3.5-1.14,5.23l-3.92-.72c.64-2.02,1.05-3.7,1.28-5.09,.41-2.5,.68-6.53,.87-12l3.56,.24Zm12.67-8.3v3.74h-6.97v29.09h-3.88V16.47h-7.16v-3.74h18.01Zm-1.96-8.26v3.55h-14.09v-3.55h14.09Zm.68,16.51c.09,1.54,.18,2.88,.18,3.98,0,3.65,.55,7.73,1.64,12.15l-3.74,.38c-1.09-4.32-1.64-8.5-1.64-12.53v-3.98h3.56Zm21.93-16.71V30h-4.83v9.94c0,1.15,.46,1.68,1.46,1.68h.68c.55,0,.96-.24,1.23-.62,.27-.34,.5-1.58,.73-3.7l3.92,1.1c-.37,2.88-.91,4.7-1.69,5.57-.82,.91-1.82,1.39-3.1,1.39h-2.69c-2.96,0-4.42-1.15-4.42-3.36v-12h-2.6c-.27,4.03-.96,6.96-2.1,8.88-1.55,2.64-4.15,4.8-7.8,6.48l-3.01-3.36c3.69-1.58,6.2-3.36,7.48-5.38,.87-1.49,1.37-3.7,1.55-6.62h-3.88V4.27h19.06Zm-3.92,7.34v-3.6h-11.21v3.6h11.21Zm0,7.1v-3.55h-11.21v3.55h11.21Zm0,3.55h-11.21v3.94h11.21v-3.94Z"/><path class="cls-1" d="M191.81,4.08V22.27h-7.07c1.82,1.34,3.33,2.26,4.56,2.78,2.01,1.1,4.56,2.11,7.66,3.02l-3.88,3.94c-2.96-1.44-5.38-2.93-7.25-4.37-1.87-1.34-3.74-3.17-5.56-5.38h-7.93c-2.05,2.3-3.88,4.03-5.52,5.18-2.05,1.49-4.83,3.02-8.3,4.56l-3.74-3.55c3.56-1.15,6.61-2.4,9.21-3.84,1.05-.53,2.23-1.3,3.56-2.35h-7.25V4.08h31.51Zm-20.2,24.24c.5,.1,.78,.24,.78,.53,0,.19-.23,.48-.68,.77-.23,2.74-.59,4.94-1.09,6.67-.5,1.58-1.14,2.88-1.96,3.94-1.32,1.82-3.51,3.6-6.57,5.33l-3.19-2.64c2.83-1.44,4.83-2.83,6.02-4.27,.87-.96,1.55-2.16,2.01-3.55,.55-1.54,.87-3.94,1.05-7.15l3.65,.38Zm1.69-16.71v-3.74h-9.07v3.74h9.07Zm0,3.55h-9.07v3.36h9.07v-3.36Zm3.92-3.55h10.67v-3.74h-10.67v3.74Zm10.67,3.55h-10.67v3.36h10.67v-3.36Zm-3.33,13.06c.64,.1,1,.29,1,.62,0,.19-.23,.53-.68,.96v15.75h-3.92V27.94l3.6,.29Z"/><path class="cls-1" d="M224.74,48V0h3.74V48h-3.74Z"/><path class="cls-1" d="M278.82,2.74c.68,.1,1.05,.29,1.05,.62,0,.24-.27,.62-.73,1.1v3.55h17.83v14.45h-4.1V11.81h-10.3v5.23c0,1.25,.46,1.87,1.41,1.87h2.51c.55,0,1-.14,1.32-.53,.27-.29,.55-1.3,.82-3.02l3.88,1.1c-.36,2.5-.96,4.08-1.73,4.8-.82,.82-1.92,1.2-3.24,1.2h-4.47c-2.96,0-4.42-1.1-4.42-3.36v-7.3h-16.92v10.66h-4.1V8.02h17.46V2.4l3.74,.34Zm12.45,23.47v3.94h-11.95v9.22h17.64v4.13h-39.35v-4.13h17.46v-9.22h-11.58v-3.94h27.77Zm-16.73-11.76c.46,.19,.73,.43,.73,.72s-.36,.53-1.09,.77c-1.28,1.63-2.46,3.07-3.65,4.37-1.05,1.1-2.6,2.4-4.7,3.84l-3.24-2.98c1.82-.96,3.42-2.06,4.79-3.41,1.28-1.2,2.6-2.74,3.97-4.66l3.19,1.34Z"/><path class="cls-1" d="M322.64,6l-5.33,11.81c2.83,3.12,4.29,6,4.29,8.59,0,3.26-.73,5.81-2.14,7.73-1.37,1.87-3.15,2.78-5.33,2.78l-1.6-4.13c2.14-.48,3.56-1.25,4.2-2.4,.64-.96,.96-2.4,.96-4.37s-1.46-4.61-4.29-7.87l4.19-10.66h-5.79V46.08h-3.92V3.74h10.85c.23-.38,.41-.58,.55-.58l3.38,2.83Zm12.81,20.4v-4.13l3.65,.34c.64,.1,1,.29,1,.62,0,.19-.27,.53-.73,.91v2.26h7.34v3.6h-7.34v7.1h9.3v3.55h-9.3v5.09h-3.92v-5.09h-14.95v-3.55h5.88v-7.1h-3.01v-3.6h12.08Zm-1.91-23.04c.46,.19,.68,.43,.68,.72,0,.24-.37,.43-1.05,.58-.18,.38-.37,.67-.5,.96h9.39c.09-.19,.23-.38,.37-.58,.18,0,.37,.1,.5,.24l2.51,2.21c.36,.19,.55,.43,.55,.72,0,.43-.5,.77-1.41,.96-2.37,3.07-4.42,5.47-6.25,7.2,2.78,1.44,6.47,2.74,11.03,3.84l-2.64,3.6c-4.7-1.63-8.43-3.26-11.21-4.94-.41,.29-.78,.53-1.05,.72-3.01,2.11-7.07,3.55-12.17,4.42l-1.05-3.79c4.33-.48,8.03-1.73,11.03-3.65-1.46-1.25-2.73-2.64-3.83-4.27-.73,.96-1.6,1.92-2.55,2.88l-3.24-2.83c1.64-1.25,3.05-2.69,4.29-4.37,1.19-1.54,2.37-3.5,3.56-5.95l3.05,1.34Zm1.91,26.64h-5.33v7.1h5.33v-7.1Zm-.27-15.65c1.46-1.34,2.96-3.07,4.51-5.18h-9.07l-.05,.1c1.19,2.06,2.74,3.74,4.61,5.09Z"/><path class="cls-1" d="M366.69,25.3v-5.28l3.6,.34c.64,.1,1,.29,1,.62,0,.19-.23,.53-.68,.96v3.36h6.56v3.94h-6.56v.19c.91,1.15,1.82,2.02,2.69,2.69,1.1,.86,2.6,1.68,4.42,2.54l-3.19,3.55c-1.55-1.01-2.87-2.16-3.92-3.41v9.41h-3.92v-9.12c-.27,.48-.59,.86-.87,1.25-1.46,2.11-3.15,4.08-5.02,5.81l-3.92-2.78c2.28-1.54,4.29-3.17,5.93-4.94,1.09-1.06,2.37-2.69,3.88-4.85v-.34h-8.39v-3.94h8.39Zm9.8-18.96V1.68l3.6,.29c.64,.1,1,.29,1,.62,0,.24-.27,.58-.73,.96v2.78h16.41v3.94h-15.87c2.55,1.54,5.15,2.78,7.79,3.65,2.51,.86,6.02,1.68,10.58,2.54l-4.1,3.94c-3.78-1.1-6.75-2.21-8.94-3.36-2.05-.96-4.01-2.11-5.88-3.55v6.91h-3.88v-6.96c-2.19,1.54-4.33,2.83-6.43,3.89-2.6,1.2-5.7,2.21-9.26,3.07l-3.37-3.55c4.38-.86,8.16-1.97,11.4-3.22,2.01-.77,4.19-1.87,6.47-3.36h-15.04v-3.94h16.23Zm10.12,18.96v-5.28l3.6,.34c.68,.1,1.05,.29,1.05,.62,0,.19-.27,.53-.73,.96v3.36h8.03v3.94h-8.03v.24c1.37,2.35,2.69,4.18,3.97,5.52,1.41,1.44,3.28,2.88,5.65,4.37l-3.19,3.55c-2.14-1.73-3.92-3.6-5.38-5.66-.37-.48-.73-.96-1.05-1.54v8.3h-3.92v-9.79c-.64,.96-1.23,1.78-1.82,2.54-1.73,2.3-3.65,4.42-5.84,6.34l-3.92-2.83c2.6-1.63,4.83-3.46,6.7-5.38,1.28-1.25,2.78-3.17,4.61-5.66h-6.84v-3.94h7.11Z"/><path class="cls-1" d="M416.58,12.72V2.02l3.6,.34c.68,.1,1.05,.29,1.05,.62,0,.19-.27,.53-.73,.96V12.72h6.61v3.94h-6.25c1.87,4.42,4.29,8.16,7.29,11.28l-3.19,2.4c-1.64-2.06-3.15-4.37-4.47-6.96v20.5h-3.92V26.55c-.27,.53-.5,1.01-.68,1.49-1.46,2.93-3.05,5.57-4.83,7.97l-3.37-2.26c2.19-2.69,3.97-5.47,5.29-8.26,1.14-2.3,2.23-5.23,3.24-8.83h-7.29v-3.94h7.66Zm20.11,0V2.02l3.65,.34c.64,.1,1,.29,1,.62,0,.19-.27,.53-.73,.96V12.72h7.48v3.94h-7.16c-.04,.1-.09,.1-.18,.1,2.42,7.25,5.65,13.39,9.67,18.48l-3.56,2.64c-2.28-3.5-4.38-7.49-6.25-11.95v17.95h-3.92V25.87c-.64,1.34-1.23,2.54-1.87,3.7-1.87,3.36-3.96,6.34-6.29,9.02l-3.37-2.26c2.83-3.02,5.11-6.14,6.84-9.36,1.5-2.59,2.92-6.05,4.24-10.32h-6.47v-3.94h6.93Z"/><path class="cls-1" d="M477.82,48V0h3.74V48h-3.74Z"/><path class="cls-1" d="M527.29,23.23c-.96,1.49-2.46,3.26-4.56,5.33-3.6,3.6-5.75,6.34-6.47,8.21h12.95v4.13h-18.37c.68-3.12,1.82-5.9,3.37-8.4,1.28-2.06,3.19-4.32,5.65-6.72,1.91-1.92,3.28-3.5,4.01-4.75,.73-1.2,1.09-2.5,1.09-3.89,0-2.59-1.69-3.94-5.01-3.94s-4.97,2.4-5.2,7.2l-3.92-1.54c.27-3.07,1.23-5.47,2.83-7.25,1.55-1.78,3.65-2.69,6.29-2.69s4.97,.72,6.7,2.16c1.73,1.44,2.6,3.46,2.6,6.05,0,2.02-.68,4.08-1.96,6.1Z"/><path class="cls-1" d="M548.31,28.32c-.68,0-1.32-.14-1.91-.53-.18-.1-.73-.58-1.69-1.34-1.37-1.06-2.28-1.63-2.64-1.63-.55,0-1.14,.86-1.78,2.59l-2.33-1.3c1.09-2.78,2.46-4.22,4.1-4.22,1.14,0,2.37,.58,3.74,1.63,1.5,1.25,2.33,1.82,2.46,1.82,.68,0,1.28-.77,1.73-2.35l2.42,1.01c-.82,2.88-2.19,4.32-4.1,4.32Z"/><path class="cls-1" d="M576.9,38.69c-1.82,1.73-4.06,2.59-6.7,2.59-4.97,0-7.98-2.59-9.07-7.82l3.88-1.34c.64,3.46,2.37,5.18,5.2,5.18,1.6,0,2.87-.48,3.83-1.54,.82-.91,1.28-2.06,1.28-3.5,0-1.58-.46-2.93-1.28-4.03-.91-1.06-2.05-1.63-3.47-1.63h-3.69v-3.79h3.14c1,0,2.01-.58,2.96-1.78,.91-1.15,1.41-2.4,1.41-3.65,0-2.78-1.32-4.18-3.97-4.18-2.46,0-3.92,1.58-4.42,4.66l-3.88-1.25c.41-2.26,1.28-4.08,2.6-5.42,1.46-1.49,3.38-2.26,5.7-2.26,2.51,0,4.51,.77,6.02,2.3,1.46,1.54,2.23,3.55,2.23,6.14,0,2.88-1.19,5.18-3.46,6.82,1.37,.72,2.42,1.78,3.19,3.22,.77,1.44,1.19,3.07,1.19,4.85,0,2.59-.91,4.75-2.69,6.43Z"/><path class="cls-1" d="M624.55,6.14c-6.75,1.25-15.32,1.87-25.8,1.87v1.92h29.04v10.66h-29.04c0,1.63-.05,3.07-.09,4.32h12.17v-3.94l3.74,.34c.73,.05,1.09,.24,1.09,.62,0,.24-.27,.62-.73,1.1v1.87h16.05v3.74h-20.84c-.18,1.25-.36,2.45-.59,3.55h18.38c-.18,3.89-.5,6.82-.96,8.74-.46,1.87-1.32,3.17-2.6,3.94-1.14,.67-3.38,1.1-6.75,1.39l-2.14-3.94,4.38-.38c1.82-.19,2.96-.86,3.42-2.02,.28-.86,.5-2.21,.64-3.94h-15.41c-.46,1.25-.91,2.35-1.46,3.36-1.41,2.59-3.6,4.9-6.52,6.91l-3.74-2.78c2.92-1.82,5.02-3.79,6.38-6,1.28-2.02,2.23-4.99,2.83-8.83h-7.52c-.04,.48-.09,.91-.09,1.3-.37,3.22-1.05,6.19-2.14,8.98-.73,1.82-1.73,3.65-3.01,5.66l-3.74-2.59c1-1.44,1.73-2.59,2.19-3.5,.96-1.97,1.64-3.98,2.1-6,.55-3.02,.87-7.49,.87-13.39V3.36l2.51,.91h3.37c9.44,0,18.1-.86,25.99-2.59l3.1,3.26c.18,.14,.27,.43,.27,.86,0,.24-.09,.34-.18,.34-.37,0-.68-.05-1-.19-.55-.1-.91-.14-1.09-.14-.64,0-1.69,.14-3.05,.34Zm-.87,10.71v-3.17h-24.94v3.17h24.94Z"/><path class="cls-1" d="M9.07,75.62v-2.64l3.47,.24c.64,.05,.96,.24,.96,.53,0,.24-.23,.62-.68,1.1v.77h6.38v2.78h-6.38v1.87h8.89v2.83h-3.97c1.28,1.34,2.78,2.5,4.51,3.55l-2.87,1.87c-.82-.62-1.6-1.3-2.28-2.02v1.82h-4.1v1.82c2.1-.19,4.19-.38,6.2-.67v2.59c-3.24,.48-8.34,1.15-15.27,1.92-.18,.38-.36,.53-.55,.53-.23,0-.36-.14-.41-.53l-.68-3.02c2.55-.1,5.02-.29,7.48-.53v-2.11H5.7v-1.68c-.91,.77-2.05,1.54-3.42,2.26l-2.28-2.83c1.55-.48,2.87-1.1,3.97-1.87,.46-.29,.91-.62,1.41-1.1H.68v-2.83H9.07v-1.87H2.83v-2.78h6.25Zm4.97-6.77v-2.45l3.46,.29c.64,.05,1,.19,1,.48,0,.24-.27,.62-.73,1.1v.58h8.39v-2.45l3.46,.29c.64,.05,.96,.19,.96,.48,0,.24-.23,.62-.68,1.1v.58h11.58v3.36h-11.58v2.26h-3.74v-2.26h-8.39v2.26h-3.74v-2.26H.5v-3.36H14.04Zm27.08,30v3.17h-7.66c2.05,1.58,4.06,3.36,6.06,5.47l-3.37,2.45c-.73-.91-1.5-1.78-2.28-2.54-6.47,.48-16.14,1.15-29.09,1.97-.27,.38-.5,.58-.73,.58-.27,0-.41-.24-.41-.62l-.82-3.5c2.05-.1,4.1-.14,6.11-.24l4.24-3.55H.87v-3.17H41.12Zm-31.37-13.11v-2.06l2.92,.24c.55,.05,.82,.19,.82,.48,0,.19-.18,.43-.5,.77v.58h3.37c-.82-.82-1.6-1.68-2.28-2.64h-5.15c-.82,1.1-1.6,1.97-2.28,2.64h3.1Zm25.12,8.26v2.98H7.48v-2.98h27.4Zm-6.25,8.79l.91-.77h-11.49l-4.01,3.36c5.7-.19,11.31-.48,16.82-.86-.73-.58-1.51-1.15-2.23-1.73Zm-1.05-24.77v-.53c0-.72-.09-1.58-.18-2.64l3.42,.29c.55,.05,.87,.19,.87,.48s-.32,.62-.91,.91v1.49h7.66l-1.96,11.47c0,.29,.27,.38,.87,.38h.41c.23,0,.46-.19,.73-.62,.18-.38,.41-1.54,.68-3.5l3.01,1.49c-.27,2.11-.68,3.6-1.23,4.46-.59,.91-1.37,1.34-2.33,1.34h-3.24c-1.64,0-2.46-.82-2.46-2.45l1.6-9.36h-3.78c-.14,1.92-.5,3.6-1.05,5.04,.96,.67,1.87,1.39,2.73,2.06l-2.32,2.83c-.73-.77-1.46-1.44-2.19-2.11-.46,.58-.91,1.06-1.46,1.54-1.14,1.06-2.46,1.97-4.01,2.83l-2.87-2.64c1.55-.72,2.83-1.44,3.74-2.11,.73-.58,1.32-1.1,1.87-1.68-1.05-.67-2.1-1.25-3.1-1.82l1.96-2.26c.96,.48,1.87,1.01,2.74,1.54,.36-.96,.64-2.06,.73-3.22h-4.88v-3.22h4.97Z"/><path class="cls-1" d="M69.17,74.66c-.09-2.5-.09-5.28-.09-8.26l4.47,.48c.68,.1,1.05,.34,1.05,.67,0,.38-.41,1.01-1.23,1.87,0,1.87,0,3.6,.05,5.23h8.12c-1.64-2.21-3.24-4.03-4.79-5.42l2.87-2.83c1.87,1.73,3.69,3.79,5.52,6.19l-2.23,2.06h3.83v4.13h-13.22c.18,4.9,.5,8.69,1,11.47,.82,4.46,2.05,8.06,3.65,10.75,1.19,2.21,2.23,3.26,3.06,3.26,.27,0,.55-.19,.91-.67,.36-.43,1.09-2.26,2.1-5.52l3.56,3.22c-.91,2.69-1.73,4.61-2.55,5.86-1.14,1.58-2.37,2.4-3.65,2.4s-2.51-.72-3.78-2.06c-1.6-1.58-3.15-3.89-4.61-7.06-1.6-3.46-2.69-7.68-3.28-12.62-.27-2.4-.5-5.38-.64-9.02h-22.8v-4.13h22.71Zm-2.05,10.51v4.13h-8.16v11.42c3.01-.34,5.97-.77,8.89-1.3v3.94c-3.97,.86-10.21,1.92-18.69,3.36-.37,.62-.73,.96-1.09,.96-.32,0-.5-.29-.55-.82l-1.05-4.85c2.78-.19,5.52-.43,8.21-.77v-11.95h-7.48v-4.13h19.92Z"/><path class="cls-1" d="M109.8,94.72c.27-1.06,.5-2.16,.59-3.36l4.29,.48c.59,.05,.91,.19,.91,.43,0,.43-.36,.82-1.09,1.15-.14,.48-.27,.91-.37,1.3h17.46v3.74h-15.59c1.78,1.87,3.56,3.22,5.33,3.98,2.83,1.44,6.84,2.64,12.04,3.55l-3.56,3.94c-4.88-1.34-8.66-2.88-11.31-4.61-2.46-1.63-4.47-3.65-6.11-6.05-.18,.38-.36,.72-.55,.96-1.73,2.59-4.29,4.7-7.66,6.34-2.6,1.3-6.06,2.45-10.35,3.5l-2.64-3.55c5.56-1.1,9.53-2.35,11.85-3.79,2.19-1.15,3.88-2.54,5.01-4.27h-15.09v-3.74h16.82Zm-1.6-22.32h8.3c1.55-2.06,2.74-4.22,3.51-6.53l3.97,.96c.55,.1,.87,.29,.87,.53,0,.43-.41,.82-1.23,1.1-.59,1.39-1.28,2.69-2.05,3.94h10.03v3.74h-17.1v3.6h14.64v3.55h-14.64v3.75h17.1v3.74h-38.62v-3.74h17.42v-3.75h-15.27v-3.55h15.27v-3.6h-17.42v-3.74h10.58c-1.18-1.63-2.37-3.22-3.65-4.85l3.56-1.87c1.78,2.3,3.37,4.51,4.74,6.72Z"/><path class="cls-1" d="M149.47,69.71c-1.5,.48-3.19,.91-5.01,1.34v2.11h6.02v3.17h-6.02v2.45h6.02v3.22h-6.02v2.4h26.54v-2.4h-5.88v-3.22h5.88v-2.45h-5.88v-3.17h5.88v-2.45h-6.06v-3.55h9.98v17.23h3.01v9.41h-3.92v-5.81h-32.42v5.81h-3.92v-9.41h2.87v-17.43l1.87,1.01c1.05-.19,2.05-.38,3.05-.67,1.19-.34,2.33-.82,3.42-1.44l2.46,2.69c.27,.29,.41,.58,.41,.86s-.14,.38-.36,.38l-1-.29c-.23,0-.55,.1-.91,.19Zm16.92,20.31l2.05,1.34c.27,.19,.41,.38,.41,.58,0,.38-.32,.72-.91,1.1l-6.84,5.23h16.28v3.74h-17.46v2.45c0,1.82-.59,3.22-1.69,4.08-.91,.91-3.28,1.39-7.02,1.39l-1.6-4.13h4.1c1.41,0,2.19-.67,2.28-2.06v-1.73h-17.96v-3.74h17.96v-2.26l2.55,.34,3.01-2.93h-14.63v-3.41h17.64l.87-.34c.36,0,.68,.14,.96,.34Zm-3.15-22.37c.27,.14,.41,.29,.41,.43,0,.38-.23,.62-.68,.77-.87,.77-1.69,1.49-2.46,2.06,1,.77,2.01,1.49,3.01,2.26l-2.14,2.06c-1.19-.96-2.28-1.82-3.33-2.59-1.23,.77-2.6,1.58-4.15,2.4l-1.96-2.06c1.37-.67,2.55-1.39,3.6-2.11-1.19-.72-2.33-1.39-3.42-2.02l1.92-1.87c1.28,.67,2.6,1.44,3.88,2.21,1-.77,1.96-1.73,2.92-2.78l2.42,1.25Zm.18,9.22c.27,.1,.41,.24,.41,.43,0,.34-.23,.58-.68,.72-.87,.77-1.69,1.44-2.42,2.02,.87,.67,1.73,1.39,2.6,2.11l-2.14,2.06c-1-.86-1.92-1.68-2.83-2.45-1.19,.77-2.64,1.58-4.33,2.45l-1.92-2.06c1.46-.72,2.78-1.49,3.88-2.26-1.28-.86-2.55-1.68-3.74-2.4l1.96-1.87c1.37,.82,2.74,1.68,4.06,2.59,.91-.77,1.82-1.63,2.74-2.59l2.42,1.25Z"/><path class="cls-1" d="M201.55,112v-48h3.74v48h-3.74Z"/><path class="cls-1" d="M240.27,69.62v-3.41l3.74,.34c.73,.1,1.09,.29,1.09,.62,0,.24-.27,.62-.73,1.1v1.34h9.25v-3.22l3.74,.34c.73,.1,1.09,.29,1.09,.62,0,.24-.27,.62-.73,1.1v1.15h11.03v3.55h-11.03v2.98h5.7v15.03h-12.49v2.64h16.41v11.42c0,2.11-1,3.46-3.01,4.13-1.55,.48-3.1,.72-4.65,.72l-1.6-4.27,3.6-.1c1-.1,1.55-.62,1.55-1.78v-6.77h-5.43c1.5,2.45,2.55,4.7,3.1,6.77l-3.56,.91c-.14-.67-.32-1.34-.5-2.06-3.97,.67-9.8,1.49-17.46,2.45-.32,.38-.64,.58-.91,.58s-.41-.24-.41-.62l-.82-3.7c3.28-.19,6.57-.48,9.8-.77v-3.55h-11.76v12.77h-4.1v-16.13h15.87v-2.64h-12.68v-15.03h5.88v-2.98h-11.22v-3.55h11.22Zm6.79,12.53v-2.59h-8.75v2.59h8.75Zm0,3.22h-8.75v2.45h8.75v-2.45Zm6.56-9.22v-2.98h-9.25v2.98h9.25Zm-2.69,6h8.57v-2.59h-8.57v2.59Zm8.57,3.22h-8.57v2.45h8.57v-2.45Zm-4.65,12.38l2.14-.58h-6.06v3.12c1.64-.14,3.24-.34,4.83-.58-.27-.67-.59-1.3-.91-1.97Z"/><path class="cls-1" d="M287,91.65c.27,.24,.46,.53,.46,.82s-.41,.58-1.23,.77c-.32,.77-.59,1.44-.82,2.06,1.46,2.78,3.6,5.52,6.52,8.26l-3.56,2.45c-2.01-2.3-3.65-4.51-4.92-6.53-.27,.58-.55,1.06-.78,1.44-1.19,2.06-2.92,4.18-5.15,6.38l-2.87-3.02c1.73-1.54,3.1-3.02,4.1-4.46,.82-1.2,1.6-2.45,2.23-3.79,.91-1.82,1.73-3.89,2.55-6.14l3.47,1.78Zm25.03-23.57v13.34h-34.38v-13.34h34.38Zm-5.15,19.01c-3.28,.24-6.75,.43-10.35,.62v21.84h-4.06v-21.65c-4.01,.24-8.25,.43-12.68,.62l-1.78-3.55c5.65-.19,11.08-.43,16.19-.77,5.33-.34,10.35-.82,15-1.49l2.74,3.12c.27,.29,.46,.62,.46,1.01,0,.29-.14,.38-.37,.38l-1.14-.29c-.91,0-2.23,.05-4.01,.14Zm-19.06-15.22h-6.25v5.81h6.25v-5.81Zm10.17,0h-6.43v5.81h6.43v-5.81Zm10.85,18.29c.46,.14,.73,.34,.73,.62,0,.38-.46,.77-1.28,1.15-.37,1.44-.68,2.69-1.05,3.79,.73,1.54,1.55,2.78,2.55,3.84,1.28,1.34,3.01,2.54,5.11,3.6l-3.74,2.98c-1.46-.96-2.74-2.11-3.79-3.46-.68-.77-1.28-1.63-1.82-2.69-1.05,2.11-2.55,4.32-4.56,6.53l-3.01-2.78c2.01-2.11,3.56-4.37,4.65-6.67,.82-1.54,1.55-4.08,2.28-7.58l3.92,.67Zm-.73-18.29h-6.38v5.81h6.38v-5.81Z"/><path class="cls-1" d="M324.72,72.59v-6l3.46,.29c.64,.05,.96,.19,.96,.48,0,.24-.23,.62-.69,1.1v4.13h6.93v-6l3.46,.29c.64,.05,1,.19,1,.48,0,.24-.27,.62-.73,1.1v4.13h3.56v3.55h-3.56v18.96h4.1v3.55h-23.53v-3.55h5.02v-18.96h-4.65v-3.55h4.65Zm4.61,28.51c.46,.19,.73,.38,.73,.58,0,.38-.27,.67-.73,.91-1.64,2.88-3.51,5.33-5.52,7.34l-3.37-2.26c2.23-2.3,4.2-4.99,5.88-8.06l3.01,1.49Zm6.06-20.64v-4.32h-6.93v4.32h6.93Zm0,7.34v-4.13h-6.93v4.13h6.93Zm0,7.3v-4.13h-6.93v4.13h6.93Zm5.15,11.04l-3.38,2.45c-1.23-2.69-2.6-4.99-4.1-6.91l2.69-2.26c1.6,1.73,3.19,3.98,4.79,6.72Zm4.29-38.79h14.41v37.68c0,1.87-1,3.07-2.96,3.65-1.6,.43-3.15,.67-4.65,.67l-1.46-3.94,3.74-.1c1.05-.05,1.6-.53,1.6-1.39v-9.22h-7.2c-.18,1.78-.41,3.46-.68,5.04-.64,3.6-1.64,6.77-2.96,9.6l-3.74-2.06c1.37-2.69,2.37-5.42,2.92-8.3,.68-3.55,1-7.11,1-10.66v-20.98Zm10.67,23.81v-8.45h-6.93v5.62c0,.96-.04,1.92-.04,2.83h6.97Zm0-12v-8.06h-6.93v8.06h6.93Z"/><path class="cls-1" d="M379.16,68.27c.37,.19,.59,.38,.59,.58,0,.48-.36,.86-1.09,1.15-1.91,2.5-3.69,4.46-5.33,6-1.55,1.44-3.42,2.98-5.7,4.66l-2.83-2.98c2.37-1.73,4.42-3.46,6.11-5.18,1.6-1.54,3.19-3.5,4.74-5.9l3.51,1.68Zm.87,11.04c.37,.19,.59,.43,.59,.62,0,.48-.37,.86-1.05,1.1-1.69,2.11-3.24,3.89-4.65,5.33v23.19h-3.92v-19.68c-1.09,.86-2.19,1.73-3.37,2.59l-2.83-2.98c2.6-1.82,4.83-3.65,6.66-5.52,1.69-1.68,3.37-3.79,5.06-6.29l3.51,1.63Zm11.12,23.09l-3.05,2.83c-2.92-2.26-5.74-4.08-8.53-5.42l2.83-2.83c3.01,1.54,5.93,3.31,8.75,5.42Zm-.91-30v-5.23l3.74,.34c.73,.05,1.09,.24,1.09,.58,0,.29-.27,.67-.73,1.15v3.17h11.95v3.74h-11.95v5.86h10.67v3.94h-24.03v-3.94h9.25v-5.86h-10.49v-3.74h10.49Zm6.06,18.58v-4.32l4.42,.53c.46,.1,.73,.29,.73,.62,0,.38-.37,.82-1.05,1.3v1.87h4.79v4.13h-4.79v8.98c0,1.92-.55,3.31-1.64,4.22-.91,.96-3.24,1.44-6.93,1.44l-1.6-4.32h3.88c1.37,0,2.1-.67,2.19-2.06v-8.26h-15.87v-4.13h15.87Z"/><path class="cls-1" d="M429.55,112v-48h3.74v48h-3.74Z"/><path class="cls-1" d="M463.79,101.01c3.1-.62,6.11-1.39,9.03-2.26-.64-1.34-1.32-2.64-2.05-3.84l2.83-2.45c2.1,2.98,4.2,6.82,6.25,11.47l-3.74,2.59c-.55-1.49-1.14-2.93-1.69-4.27-3.56,1.2-8.62,2.69-15.23,4.46-.32,.62-.64,.96-.91,.96-.32,0-.5-.29-.55-.77l-1.05-4.7c1-.1,2.05-.29,3.05-.48v-33.27h17.96v21.75h-13.91v10.8Zm0-28.61v4.9h9.8v-4.9h-9.8Zm0,13.87h9.8v-5.23h-9.8v5.23Zm32.23-16.85v28.51c0,2.11-.96,3.5-2.87,4.08-1.46,.53-2.96,.77-4.42,.77l-1.6-4.32,3.38-.1c.96-.05,1.46-.62,1.46-1.78v-23.23h-7.16v36.2h-4.06v-40.13h15.27Z"/><path class="cls-1" d="M507.48,69.18c.68,.05,1.05,.24,1.05,.62,0,.19-.27,.53-.73,.91v9.74h4.83v-14.26l3.74,.34c.68,.1,1.05,.29,1.05,.62,0,.24-.23,.62-.68,1.1v41.48h-4.1v-16.9h-3.74v3.02c0,2.64-.32,5.09-.91,7.39-.59,2.35-1.46,4.46-2.64,6.29l-3.74-2.06c1.28-1.68,2.14-3.36,2.64-5.09,.59-2.21,.91-4.37,.91-6.53v-3.02h-3.05v-3.75h10.53v-4.9h-8.75v-15.36l3.6,.34Zm23.03-2.26c.41,.19,.64,.43,.64,.62,0,.29-.27,.48-.73,.53-.46,.67-.87,1.34-1.32,1.92h10.35c.14-.19,.27-.38,.41-.58,.23,0,.41,.1,.55,.24l2.64,2.21c.37,.19,.55,.43,.55,.72,0,.48-.5,.86-1.41,1.15-4.29,5.09-7.84,8.45-10.76,10.13-3.19,2.06-7.52,3.5-12.9,4.27l-1.28-3.94c2.32-.24,4.47-.67,6.38-1.3-.91-1.01-1.78-1.87-2.64-2.64l2.51-2.4c1.32,1.06,2.6,2.3,3.83,3.7,.82-.38,1.55-.77,2.28-1.25-1.23-1.44-2.42-2.64-3.6-3.6l2.46-2.45c1.41,1.1,2.78,2.4,4.15,3.84,1.41-1.25,2.83-2.74,4.29-4.56h-10.71c-1.73,1.92-3.65,3.6-5.7,5.04l-2.87-3.36c3.88-2.16,7.07-5.33,9.62-9.55l3.28,1.25Zm4.38,22.95v-6.96l4.42,.53c.46,.1,.73,.29,.73,.58,0,.38-.36,.86-1.05,1.34v4.51h4.1v3.94h-4.1v10.13c0,1.87-.64,3.26-1.92,4.18-1.05,.96-3.69,1.44-7.89,1.44l-1.6-4.32h4.65c1.64,0,2.51-.67,2.64-2.06v-9.36h-16.37v-3.94h16.37Zm-4.1,11.23l-3.01,2.83c-1.96-2.74-3.88-4.94-5.7-6.58l2.83-2.83c2.01,1.82,3.97,3.98,5.88,6.58Z"/><path class="cls-1" d="M564.75,68.46c.14-.29,.27-.62,.46-.91,.18-.24,.32-.38,.5-.38,.32,0,.64,.24,.91,.72l1.78,2.11c.18,.29,.32,.53,.32,.72,0,.38-.5,.77-1.41,1.15-2.05,3.74-4.01,6.58-5.88,8.59h15.37c-.23-.19-.41-.43-.59-.62-2.55-2.78-4.65-6.62-6.2-11.57l3.55-.91c.5,1.58,1.1,3.02,1.73,4.37,1.82-1.44,3.47-2.93,4.83-4.37l2.6,2.74c.18,.19,.27,.43,.27,.62,0,.29-.36,.38-1.09,.38-1.6,1.2-3.24,2.35-4.97,3.46,.46,.72,.91,1.34,1.46,1.92,.27,.34,.55,.67,.87,.96,2.37-1.44,4.47-2.93,6.2-4.46l2.78,2.93c.18,.19,.27,.43,.27,.62,0,.29-.46,.38-1.28,.38-1.73,1.06-3.42,2.02-5.15,2.98,2.05,1.58,4.6,3.02,7.66,4.32l-2.64,3.79c-3.69-2.02-6.66-4.08-8.94-6.19v2.4h-18.33v-2.21c-.27,.24-.55,.43-.78,.62-2.78,2.26-5.79,4.08-9.03,5.52l-2.83-3.55c2.92-1.01,5.47-2.3,7.75-3.89-1.46-1.49-2.83-2.74-4.2-3.79l2.46-2.45c1.55,1.15,3.1,2.45,4.61,3.94,.27-.19,.46-.34,.64-.53,1.28-1.25,2.69-3.12,4.19-5.67h-11.54v-3.74h13.63Zm16.64,18.96v12h-3.65l-1.41,4.85h11.45v3.74h-38.62v-3.74h11.67l-1.64-4.85h-3.28v-12h25.49Zm-3.92,3.74h-17.64v4.51h17.64v-4.51Zm-5.11,13.11l1.37-4.85h-10.58l1.69,4.85h7.52Z"/><path class="cls-1" d="M598.63,77.3v-11.09l3.78,.34c.68,.1,1.05,.29,1.05,.62,0,.24-.27,.62-.73,1.1v9.02h5.2v3.94h-5.2v11.14c1.69-.48,3.37-1.01,5.01-1.58v3.94c-2.6,1.1-6.66,2.54-12.13,4.32-.32,.67-.59,.96-.87,.96-.36,0-.55-.24-.59-.82l-1.05-4.66c1.87-.29,3.69-.62,5.52-1.1v-12.19h-4.97v-3.94h4.97Zm35.84,8.26v3.74h-17.87c-.41,1.15-.82,2.11-1.19,2.98h18.33c0,6.82-.27,11.14-.78,12.87-.32,1.73-1,2.88-2.05,3.55-1.14,.67-3.05,1.06-5.7,1.06l-1.96-4.32c2.64,0,4.24-.14,4.79-.53,.46-.29,.82-.91,1.1-1.92,.36-.96,.55-3.31,.64-7.1h-2.83c-1,3.26-2.1,5.67-3.24,7.3-1.73,2.4-3.92,4.61-6.52,6.58l-3.56-2.64c2.87-1.82,5.02-3.7,6.38-5.62,1.14-1.54,2.1-3.41,2.92-5.62h-3.15c-1.05,2.4-2.19,4.22-3.37,5.47-1.87,1.92-4.24,3.65-7.07,5.18l-3.55-2.59c3.14-1.39,5.47-2.83,6.93-4.27,1.09-1.06,2.1-2.3,2.96-3.79h-2.55c-1.46,1.73-3.19,3.31-5.2,4.66l-3.6-2.59c2.6-1.49,4.51-2.98,5.7-4.51,.96-1.15,1.78-2.5,2.51-4.13h-5.15v-3.74h27.08Zm-3.56-18v15.75h-19.79v-15.75h19.79Zm-4.1,6.19v-2.64h-11.58v2.64h11.58Zm0,3.17h-11.58v2.83h11.58v-2.83Z"/></g></g></svg>