<?xml version="1.0" encoding="UTF-8"?><svg id="_層_2" xmlns="http://www.w3.org/2000/svg" viewBox="0 0 564.66 167.65"><defs><style>.cls-1{fill:#b28247;}</style></defs><g id="_層_1-2"><g><path class="cls-1" d="M22.29,37.38c-1,.63-2.06,.91-3.26,.98-.86,0-1.6-.21-2.13-.63-.33-.35-.53-.91-.46-1.82v-8.54c-5.39,3.64-10.57,6.02-15.63,7.28-.47,.14-.67,.07-.8-.21-.07-.35,.13-.56,.47-.84,7.18-3.57,13.43-8.96,18.55-15.96H5.87l-3.79,.63c-.4,.21-.67,.14-.73-.21l-.67-2.45c-.07-.35,.13-.42,.73-.28l4.46,.49h14.36c1.13-1.82,2.06-3.57,2.79-5.39-7.45,.35-13.3,.42-17.62,.14-.47,0-.67-.21-.67-.56,0-.42,.2-.63,.67-.63C21.09,7.77,33.13,4.9,41.44,.84c.4-.28,.67-.35,1-.14,2.13,1.26,4.06,2.94,5.92,4.83,.73,.7,.93,1.33,.6,1.89-.33,.35-.8,.49-1.46,.28-.67-.14-1.33-.14-2.06,0l-14.1,1.96c-.93,2.1-2.13,4.13-3.39,6.16h17.42c.53,0,.93-.21,1.2-.63l3.52-4.69c.27-.42,.73-.49,1.26-.14,2.39,1.54,4.46,3.43,6.12,5.88,.33,.28,.4,.63,.27,.91-.2,.35-.53,.49-1.13,.49h-19.28c2.19,2.52,5.19,4.55,8.98,6.09,4.32,1.68,8.51,2.38,12.57,2.03,.47-.07,.73,.07,.8,.42,.07,.21,0,.49-.33,.7-1.2,.77-2.19,1.82-2.86,3.22-.6,1.4-.8,2.73-.73,3.85,0,.56-.33,.77-1.06,.63-4.46-1.05-8.18-3.22-11.04-6.23-1.06,.84-1.6,1.47-1.6,1.82v5.11c-.07,.91-.33,1.54-1.06,1.96-.73,.49-1.79,.77-3.32,.91-1,0-1.66-.28-2.06-.84-.33-.42-.53-1.05-.53-1.89h-11.77c-.07,.91-.46,1.47-1,1.96Zm-8.91,26.04c0,1.26-.4,2.17-1.2,2.66-.93,.63-2.06,.91-3.33,.98-.93,0-1.66-.21-2.26-.7-.33-.28-.53-.84-.47-1.82v-26.88c-.07-.49,.07-.7,.33-.63,2.93,.84,5.32,1.82,7.05,2.8h30.99c.67,0,1.2-.21,1.53-.56l2.06-2.87c.33-.42,.8-.49,1.33-.21,2.99,1.4,5.12,2.8,6.38,3.92,1.46,1.54,1,2.73-1.26,3.57-.6,.35-.93,.98-.93,1.82v14.77c-.07,2.66-.86,4.62-2.66,5.81-1.73,1.05-3.52,1.61-5.39,1.54-.33,0-.47-.21-.47-.56,.07-.98-.27-2.03-.8-3.22-.73-1.26-1.86-2.17-3.26-2.66-.46-.21-.67-.56-.6-1.05,.13-.49,.53-.63,1.2-.56,2.39,.07,3.79-.14,4.12-.56,.47-.49,.67-1.12,.67-1.68v-14.84c-.07-.56-.27-.84-.67-.7H13.38v21.63Zm11.57-7.21c0,1.12-.4,2.03-1.13,2.52-1,.63-2,.91-3.26,.98-.86,0-1.53-.21-2.13-.63-.33-.35-.53-.98-.46-1.82v-13.72c-.07-.49,.07-.7,.27-.63,2.06,.42,4.26,1.33,6.38,2.45h8.64l2.39-2.45c.2-.14,.4-.14,.73-.07,2.13,.77,4.19,1.96,6.05,3.36,1.26,.98,1.06,1.89-.53,2.66-.4,.21-.6,.63-.6,1.26v5.39c-.07,.91-.4,1.54-1.13,1.96-.73,.49-1.79,.77-3.33,.91-.93,0-1.66-.28-2.06-.84-.33-.42-.53-1.12-.47-2.03v-.42h-9.38v1.12Zm14.63-32.2c-1.6-2.03-2.93-4.2-3.92-6.37h-9.11c-1.73,2.24-3.72,4.41-5.92,6.37,.53,0,1.53,.42,2.86,1.33h10.51l2.39-2.38c.2-.21,.4-.21,.73-.07l2.46,1.12Zm-4.46,9.59v-5.95c-.13-.42-.4-.56-.73-.35h-11.04v6.3h11.77Zm-.8,19.67v-5.67c-.13-.42-.4-.56-.73-.42h-8.64v6.09h9.38Z"/><path class="cls-1" d="M108.21,52.93c1.4-5.67,3.06-15.26,4.92-28.49,.07-.35,.2-.49,.46-.42,2.53,.49,5.05,1.19,7.45,2.1,1,.42,1.4,.91,1.33,1.47-.07,.49-.47,.77-1.4,.98-.33,.07-.53,.35-.6,.7-3.99,14.63-8.51,25.13-13.43,31.36h11.9c.53,0,.93-.21,1.26-.63l3.72-5.11c.33-.49,.8-.49,1.33-.14,2.66,1.68,4.92,3.78,6.72,6.3,.33,.35,.4,.7,.27,.98-.2,.35-.53,.49-1.13,.49h-53.53l-3.86,.63c-.4,.14-.67,.07-.73-.21l-.67-2.52c-.07-.28,.13-.35,.73-.21l4.52,.42h28.39l2.33-7.7Zm-9.84-37.38V1.54c0-.21,.13-.28,.47-.28,2.66,.07,5.19,.42,7.45,.98,.93,.35,1.4,.77,1.4,1.26,0,.63-.4,1.12-1.26,1.33-.53,.21-.8,.49-.73,.98V15.54h10.31c.53,0,.93-.21,1.26-.7l3.72-5.04c.33-.49,.8-.49,1.33-.14,2.66,1.61,4.92,3.78,6.72,6.3,.33,.35,.4,.63,.27,.91-.2,.35-.53,.49-1.13,.49h-48.61l-3.86,.63c-.4,.21-.67,.14-.73-.21l-.6-2.45c-.07-.35,.13-.42,.67-.28l4.52,.49h18.82Zm-13.1,9.1c.2-.14,.47-.07,.67,.28,3.13,4.34,5.92,9.03,8.38,14.07,1.86,3.78,2.79,6.93,2.79,9.45,0,2.1-.47,3.85-1.33,5.25-.93,1.26-1.93,1.89-3.19,1.96-1.06,.07-1.93-.42-2.59-1.4-.6-.98-.86-2.1-.8-3.36,.6-8.33-.73-16.94-4.06-25.55-.13-.28-.07-.56,.13-.7Z"/><path class="cls-1" d="M143.72,66.86c-.6,.28-.93,.28-1.13-.07-.2-.35-.13-.7,.33-.98,4.19-3.64,7.78-8.12,10.64-13.23-2.46-4.34-4.12-8.75-4.92-12.95-.13-.63,0-1.05,.4-1.19,.47-.14,.73,.14,.93,.84,.93,2.87,2.59,6.23,5.05,10.01,1.66-4.13,2.86-9.66,3.39-16.45l-.13-1.26h-3.79l-1.53,.21-.93,2.38c-.33,.84-1.13,1.4-2.26,1.68-1.66,.28-3.06,.07-4.19-.7-.67-.56-.8-1.19-.4-1.96,3.66-8.26,6.78-16.8,9.31-25.62h-5.99l-3.59,.49c-.53,.14-.8,.14-.86,0l-.6-2.45c-.07-.35,.13-.49,.6-.35l4.46,.49h4.85c.27,.07,.53-.14,.86-.56l2.13-2.1c.2-.21,.47-.21,.8-.07,1.73,.84,3.33,1.89,4.79,3.36,.47,.49,.73,.91,.67,1.33-.07,.49-.46,.77-1.2,.91-.27,.07-.53,.35-.73,.98-2.53,8.12-4.79,14.91-6.78,20.16h2.33c.73,0,1.26-.14,1.46-.49l1.93-2.24c.33-.21,.67-.28,1.06-.07,2.06,.77,4.06,1.96,6.05,3.57,.67,.49,1,1.05,.93,1.68s-.67,1.05-1.6,1.33c-.47,.14-.73,.49-.93,1.26-1.46,7.98-3.52,14.28-6.05,18.83,4.26,2.73,9.84,4.34,16.29,4.9,10.04,.56,19.08,0,27.13-1.61,.53-.07,.87,.07,1,.42,.13,.28-.07,.63-.6,.98-2.73,1.54-3.86,4.06-3.46,7.35,.07,.42,0,.56-.33,.63-7.05,.56-14.23,.56-21.41,0-9.38-.77-16.49-3.99-21.01-9.45-4.06,4.2-8.45,7.56-12.97,10.01Zm25.07-19.11l-3.86,.63c-.4,.21-.66,.14-.73-.21l-.66-2.52c-.07-.28,.13-.35,.73-.21l4.52,.42h7.18v-7.42h-4.85l-3.86,.63c-.4,.21-.67,.14-.73-.21l-.6-2.45c-.07-.35,.13-.42,.67-.28l4.52,.49h4.85v-8.33h-4.12l-3.86,.49c-.33,.07-.53,.07-.6-.14l-.6-2.31c-.07-.28,.2-.35,.67-.28l4.39,.42h4.12v-7.14h-9.31l-4.19,.49c-.27,.14-.47,.07-.53-.21l-.53-2.38c-.07-.28,.13-.35,.6-.28l4.66,.49h9.31v-7.14h-5.65l-3.59,.49c-.53,.21-.8,.14-.86-.07l-.6-2.24c-.07-.42,.13-.56,.67-.49l4.39,.42h5.65V.42c0-.28,.13-.42,.47-.42l7.12,1.05c1.33,.35,2,.77,2,1.54s-.53,1.33-1.66,1.68c-.46,.14-.67,.49-.73,1.05v3.08h6.58l2.46-2.52c.2-.21,.47-.21,.8-.07,2.19,.84,4.26,1.96,6.32,3.5,1.26,1.05,1.06,1.96-.6,2.8-.47,.21-.67,.63-.67,1.26v3.71l.2-.21,2.59-3.78c.33-.63,.8-.77,1.4-.28,1.46,1.12,2.73,2.73,3.79,4.55,.4,.49,.53,.98,.33,1.4-.13,.35-.47,.56-1,.56h-7.31v8.54c-.07,.84-.4,1.54-1.13,2.03-.73,.49-1.93,.77-3.46,.91-1,0-1.73-.28-2.13-.84-.27-.42-.4-.98-.47-1.68h-7.71v8.33h5.05c.4,0,.8-.21,1.06-.63l3.46-4.55c.33-.35,.8-.42,1.2-.14,2.39,1.54,4.32,3.43,5.85,5.67,.33,.35,.4,.7,.27,.98-.2,.35-.53,.49-1.06,.49h-15.83v7.42h9.44c.47,0,.87-.21,1.13-.56l3.39-4.55c.33-.42,.8-.49,1.26-.14,2.33,1.54,4.26,3.43,5.85,5.67,.33,.35,.4,.7,.27,.98-.2,.35-.53,.49-1.13,.49h-20.22v5.53c0,1.19-.53,2.1-1.66,2.73-1.46,.63-2.93,.56-4.39-.21-.73-.49-1.13-1.26-1.13-2.17v-5.88h-7.18Zm14.36-30.31h7.71v-6.79c-.13-.35-.4-.49-.73-.35h-6.98v7.14Zm0,9.03h7.71v-7.14h-7.71v7.14Z"/><path class="cls-1" d="M219.26,15.54h9.38c.53,0,.93-.21,1.13-.63l3.52-4.69c.33-.42,.8-.49,1.33-.14,2.39,1.54,4.46,3.43,6.12,5.88,.27,.35,.33,.63,.2,.91-.2,.35-.46,.49-1.06,.49h-20.61l-3.79,.63c-.4,.21-.66,.14-.73-.21l-.66-2.45c-.07-.35,.13-.42,.73-.28l4.46,.49Zm4.12,48.44c0,1.26-.4,2.1-1.2,2.66-.93,.63-2.06,.91-3.33,.98-.93,0-1.66-.21-2.26-.7-.33-.28-.53-.84-.47-1.82v-23.03c-.07-.49,.07-.7,.33-.63,3.46,.98,5.98,1.96,7.51,3.08h4.59l2.46-2.52c.2-.21,.47-.21,.8-.07,2.19,.84,4.26,1.96,6.25,3.5,1.33,.98,1.13,1.96-.53,2.8-.47,.21-.67,.56-.67,1.19v14.77c-.07,.91-.4,1.61-1.13,2.03-.73,.49-1.93,.77-3.46,.91-1,0-1.73-.28-2.13-.84-.33-.42-.53-1.19-.53-2.17v-2.17h-6.25v2.03Zm-1.26-38.85h2.06c.53,0,.93-.21,1.2-.63l3.52-4.76c.33-.35,.73-.42,1.26-.14,2.39,1.61,4.52,3.5,6.12,5.88,.33,.35,.4,.7,.27,.98-.2,.35-.53,.49-1.13,.49h-13.3l-3.79,.63c-.4,.21-.67,.14-.73-.21l-.66-2.45c-.07-.35,.13-.42,.73-.28l4.46,.49Zm0,9.8h2.06c.53,0,.93-.21,1.2-.63l3.52-4.69c.33-.42,.73-.49,1.26-.14,2.39,1.61,4.52,3.5,6.12,5.88,.33,.35,.4,.7,.27,.98-.2,.35-.53,.49-1.13,.49h-13.3l-3.79,.56c-.4,.21-.67,.14-.73-.21l-.66-2.45c-.07-.35,.13-.42,.73-.28l4.46,.49Zm.27-28.14h2.59c.53,0,.93-.21,1.2-.63l3.46-4.69c.33-.42,.8-.49,1.33-.14,2.39,1.54,4.46,3.43,6.12,5.88,.33,.35,.4,.63,.27,.91-.2,.35-.53,.49-1.13,.49h-13.83l-3.86,.63c-.33,.21-.6,.14-.67-.21l-.67-2.45c-.07-.35,.13-.42,.73-.28l4.46,.49Zm7.25,53.35v-13.37c-.07-.42-.33-.56-.67-.28h-5.58v13.65h6.25Zm9.31,6.51c-.6,.07-.87-.14-.93-.49-.07-.35,.13-.63,.73-.84,6.05-1.96,11.17-5.18,15.23-9.66-1.66-2.38-2.79-4.13-3.33-5.25-3.26-6.58-4.92-11.41-4.92-14.42h-1l-3.59,.56c-.53,.14-.8,.14-.87-.07l-.6-2.45c-.07-.28,.2-.35,.67-.28l4.39,.35h18.35c.6-.07,1.06-.14,1.26-.49l1.6-2.45c.33-.28,.73-.21,1.33,.14l4.85,4.13c.6,.56,.8,1.19,.67,1.75-.07,.56-.67,.98-1.6,1.26-.53,.21-1,.7-1.33,1.54-1.73,5.04-4.12,9.52-6.92,13.58l-.2,.28c5.45,2.87,10.24,4.41,14.16,4.69,.4,0,.67,.14,.73,.49,.07,.28-.07,.49-.53,.63-3.19,1.05-5.45,3.57-6.58,7.07-.2,.49-.6,.56-1.2,.28-4.39-2.03-8.44-4.55-11.84-7.49-4.99,3.92-11.24,6.44-18.55,7.14Zm12.9-46.55c-1.46,5.32-5.72,9.17-12.63,11.2-.47,.14-.8,.07-.86-.21-.07-.35,.07-.63,.4-.84,2.06-1.54,3.86-3.71,5.25-6.37,1-2.59,1.53-9.59,1.53-20.72-.07-.49,.13-.7,.53-.63l6.98,2.87h3.92c.4-.07,.73-.35,1.13-.77,.66-.77,1.46-1.47,2.39-2.1,.33-.21,.67-.21,1.06,0l1.06,.56c4.26,2.45,5.52,4.27,3.66,5.32-.47,.14-.6,.42-.6,.84v10.99c0,.77,.13,1.26,.33,1.54,.33,.42,.6,.56,.93,.56,1.73,0,2.86-.07,3.33-.35,.73-.28,1.2-.98,1.53-2.1l1.06-3.92c.07-.49,.33-.77,.73-.77,.4,.07,.53,.35,.6,.84,.13,3.36,.73,5.53,1.53,6.16,1.13,.49,1.73,1.47,1.73,2.94,0,1.19-.47,2.17-1.33,2.8-1,.56-2.06,1.05-3.26,1.26-1.26,.28-3.06,.42-5.52,.49-3.59,0-5.99-.63-7.18-1.82-1.13-1.19-1.66-2.94-1.66-5.32V7.35h-5.79c0,5.53-.33,9.8-.86,12.74Zm5.72,30.52l.27-.35c2.33-3.99,4.19-8.33,5.45-13.16v-.91l-.4-.21h-15.76c1.06,2.94,2.59,5.81,4.66,8.61,1.53,2.17,3.46,4.13,5.79,6.02Z"/><path class="cls-1" d="M298,38.64c0,1.19-.47,1.89-1.4,2.31-1.33,.63-2.79,.63-4.26-.07-.73-.42-1.06-1.12-1-2.24V18.48c-1.46,1.19-3.06,2.24-4.52,3.01-.33,.14-.53,.14-.6-.07s0-.49,.2-.7c1.73-2.17,3.46-4.9,4.99-8.19,1.6-3.43,2.53-6.93,2.93-10.43l.13-.91c.07-.35,.33-.49,.67-.56,2.19,.35,4.39,.91,6.58,1.61,1,.35,1.46,.84,1.46,1.47-.07,.49-.53,.84-1.4,.91l-3.79,6.23v.28h4.99c.93-3.22,1.46-6.16,1.66-8.96,0-.42,.13-.63,.47-.56l5.39,.91c1,.21,1.53,.63,1.53,1.26,.07,.49-.33,.84-1.06,.98l-1.13,.91c-1.33,2.03-2.86,3.92-4.65,5.46h2.26c.47,0,.8-.14,1-.49l2.53-3.71c.33-.63,.8-.7,1.4-.21,1.33,1.05,2.53,2.52,3.52,4.34,.4,.49,.53,.98,.33,1.4-.13,.35-.46,.56-.93,.56h-7.12v4.9l1.73-2.31c.33-.63,.8-.7,1.33-.21,1.33,1.05,2.39,2.45,3.39,4.13,.4,.49,.53,.98,.33,1.4-.13,.35-.46,.56-1,.56h-5.79v5.46l2.26-3.15c.33-.63,.8-.7,1.33-.21,1.26,1.05,2.39,2.45,3.39,4.2,.33,.42,.46,.91,.27,1.33-.07,.35-.4,.56-.93,.56h-6.32v6.65l.73-.56,2.59-3.85c.33-.63,.8-.77,1.33-.28,1.53,1.19,2.73,2.73,3.86,4.62,.4,.49,.53,.91,.33,1.33-.13,.35-.46,.56-1,.56h-18.02v.49Zm-5.92,28.07c-.6,0-.93-.21-.93-.63,0-.49,.27-.77,.86-.84,8.64-1.26,16.29-3.64,22.88-7.21-4.19-3.36-7.18-7.63-8.78-12.74h-3.33l-3.59,.49c-.53,.21-.8,.21-.86,0l-.6-2.52c-.07-.28,.13-.35,.67-.28l4.39,.42h26.33l.8-.7,1.99-2.38c.27-.21,.53-.21,.87,0,2.06,1.26,3.92,2.52,5.45,3.92,.67,.56,1,1.12,.93,1.61-.07,.63-.53,.98-1.53,1.19-.2,0-1,.7-2.06,1.82-1.86,2.66-4.99,5.46-9.31,8.54,5.65,1.4,12.3,1.75,19.82,.98,.6-.07,1,.07,1.06,.35,.07,.35,0,.63-.33,.84-2.73,1.47-4.06,3.85-4.06,6.93,0,.49-.27,.7-.73,.7-7.65-.14-15.29-2.24-22.74-6.16-8.18,3.5-17.36,5.39-27.2,5.67Zm9.91-53.7h-3.99v6.58h3.99v-6.58Zm0,8.47h-3.99v6.37h3.99v-6.37Zm0,14.84v-6.65h-3.99v6.65h3.99Zm17.62,18.83c3.79-2.52,7.12-5.88,9.84-9.87h-21.75c1.4,1.96,3.13,3.78,5.32,5.67,2.06,1.68,4.26,3.08,6.58,4.2Zm5.19-14.84c-1.46,.7-2.99,.7-4.59-.07-.73-.42-1.13-1.19-1.06-2.38V17.64l-3.52,1.89c-.27,.14-.46,.14-.53-.07l2.33-3.57c2.06-3.5,3.72-8.26,4.92-14.21,.07-.35,.33-.56,.67-.56,2.19,.35,4.39,.91,6.52,1.75,1,.35,1.53,.84,1.46,1.47-.07,.49-.6,.84-1.46,.91l-3.19,4.83v1.05h5.45c.93-3.29,1.53-6.37,1.73-9.24,0-.42,.13-.63,.46-.56l5.39,.91c.93,.21,1.46,.63,1.46,1.26,.07,.49-.33,.84-1,1.05l-1.13,.84c-1.4,2.24-3.12,4.13-4.99,5.74h2.79c.47,0,.8-.21,1-.56l2.59-3.78c.27-.63,.73-.77,1.33-.28,1.53,1.19,2.73,2.73,3.86,4.55,.4,.49,.53,.98,.33,1.4-.13,.35-.47,.56-1,.56h-8.38v6.58c.33,0,.67-.14,.87-.42l2.46-3.57c.33-.63,.73-.7,1.26-.21,1.33,1.05,2.39,2.45,3.39,4.13,.4,.49,.53,.98,.33,1.4-.13,.35-.46,.56-1,.56h-7.32v6.65c.33,0,.67-.14,.87-.49l2.46-3.57c.33-.63,.73-.7,1.26-.21,1.33,1.05,2.39,2.45,3.39,4.2,.4,.42,.53,.91,.33,1.33-.13,.35-.46,.56-1,.56h-7.32v6.65h1.26c.47,0,.8-.21,1-.56l2.59-3.85c.33-.63,.8-.77,1.4-.28,1.46,1.19,2.73,2.73,3.79,4.62,.4,.42,.53,.91,.33,1.33-.13,.35-.47,.56-.93,.56h-19.42c-.13,.91-.6,1.47-1.46,1.89Zm5.25-27.3h-3.72v6.58h3.72v-6.58Zm0,8.47h-3.72v6.65h3.72v-6.65Zm0,15.12v-6.65h-3.72v6.65h3.72Z"/><path class="cls-1" d="M376.07,19.67c.4,.14,.53,.56,.33,1.19l-7.25,26.74c-.53,2.73-.2,5.74,1,8.82,1.06,2.8,1.4,5.18,.8,7.14-.47,1.89-1.6,3.01-3.26,3.36-1.33,.28-2.53-.14-3.39-1.12-1.13-1.4-1.53-3.5-1.13-6.37,.4-2.52,.4-4.97-.07-7.07-.53-1.4-1.79-2.52-3.92-3.36-.47-.21-.6-.49-.47-.84,.07-.28,.4-.42,.93-.35,2.46-.21,3.86-.63,4.12-1.12l11.37-26.11c.33-.7,.6-.98,.93-.91Zm-17.09,.35c.13-.35,.4-.42,.67-.35,4.92,.98,8.05,2.94,9.38,5.81,.53,1.47,.53,3.01-.07,4.62-.53,1.4-1.4,2.24-2.73,2.52-2.86,.42-4.39-1.26-4.65-4.76,.13-2.8-.73-5.25-2.39-7-.27-.21-.33-.49-.2-.84Zm3.19-16.94c0-.35,.27-.49,.67-.42h.33c4.99,.84,8.45,2.87,10.24,5.95,.67,1.47,.73,2.94,.27,4.62-.33,1.4-1.13,2.38-2.46,2.8-2.79,.63-4.52-.77-5.05-4.41-.27-3.36-1.53-5.95-3.79-7.7-.2-.21-.27-.49-.2-.84Zm37.17,34.3l2.39-2.38c.2-.21,.4-.21,.73-.07,2.13,.77,4.19,1.96,6.12,3.36,1.2,.98,1,1.82-.53,2.66-.46,.21-.66,.63-.66,1.26v9.45c-.07,.91-.4,1.54-1.06,2.03-.73,.49-1.86,.7-3.33,.84-1,0-1.73-.21-2.06-.77-.33-.49-.53-1.19-.46-2.1v-1.75h-11.5v6.09l.2,2.59c.2,.49,.47,.91,.8,1.12,.47,.28,2.93,.42,7.45,.42,5.12-.07,8.18-.21,9.18-.49,2.33-.84,4.39-3.92,5.99-9.03,.2-.63,.46-.91,.8-.84,.47,0,.67,.35,.73,.98l-.47,4.83c-.13,1.33,.27,2.38,1.2,3.22,1.33,.7,2,1.75,2,3.36,0,1.47-.86,2.66-2.46,3.43-1.79,.7-3.52,1.19-5.39,1.4l-10.64,.42c-6.92,0-11.17-.42-12.7-1.19-1.46-.7-2.46-2.03-2.99-3.71-.47-1.68-.67-3.08-.67-4.27v-18.62c-3.46,2.52-6.65,4.2-9.51,4.9-.4,.07-.67,0-.73-.21s.07-.42,.4-.63c6.05-4.34,10.24-10.29,12.43-17.85h-2.73l-3.79,.63c-.4,.21-.67,.14-.73-.21l-.67-2.45c-.07-.35,.13-.42,.73-.28l4.46,.49h3.06V14.07h-1.73l-3.86,.63c-.4,.21-.6,.14-.67-.21l-.67-2.45c-.07-.35,.13-.42,.73-.28l4.46,.49h1.66V.7c0-.21,.13-.28,.46-.28,2.66,.07,5.19,.42,7.45,1.05,.93,.35,1.4,.7,1.4,1.19,0,.63-.4,1.12-1.26,1.4-.47,.21-.73,.49-.67,.91v7.28h6.65V.7c0-.21,.13-.28,.46-.28,2.66,.07,5.19,.42,7.45,1.05,.93,.35,1.4,.7,1.4,1.19,0,.63-.4,1.12-1.26,1.4-.47,.21-.73,.49-.67,.91v7.28l.67-.63,3.52-4.69c.33-.42,.8-.49,1.33-.14,2.39,1.54,4.46,3.5,6.05,5.88,.33,.35,.4,.7,.27,.91-.2,.35-.47,.49-1.06,.49h-10.77v9.94h1.06c.53,0,.93-.21,1.2-.63l3.52-4.69c.27-.42,.73-.49,1.26-.14,2.39,1.54,4.46,3.5,6.12,5.88,.33,.35,.4,.7,.27,.91-.2,.35-.53,.49-1.13,.49h-14.83l1.6,2.17c4.06,4.48,9.31,6.86,15.49,7,.47,0,.67,.21,.73,.56,.07,.21-.07,.42-.46,.63-1.33,.56-2.39,1.4-3.26,2.73-.8,1.26-1.26,2.52-1.33,3.71-.07,.49-.4,.63-1.13,.35-3.06-1.4-5.65-3.5-7.71-6.44-2.39-3.36-4.06-6.72-5.05-10.15l-.2-.56h-10.04c-1.46,3.01-3.59,6.44-6.38,10.15l2.59,1.4h10.77Zm-10.37,10.71h11.5v-8.4c-.13-.42-.4-.56-.73-.42h-9.31l-1.46,.21v8.61Zm9.97-24.08V14.07h-6.72v9.94h6.72Z"/><path class="cls-1" d="M444.03,18.9c0,8.12-.47,15.54-1.46,22.33-1.53,11.2-5.32,19.32-11.04,24.29-.4,.28-.67,.28-.86,0l2.39-6.3c2.86-8.33,4.26-21.91,4.26-40.32V3.43c0-.49,.13-.7,.47-.56,2,.77,4.46,1.89,7.12,3.36h30.06c.73,0,1.26-.21,1.46-.63l2.19-2.8c.33-.28,.8-.28,1.26-.07,2.73,1.05,4.85,2.24,6.45,3.57,.67,.63,1.06,1.26,1,1.82-.07,.63-.6,1.12-1.53,1.54-.93,.28-1.46,.63-1.66,.91-.13,.28-.2,1.54-.2,3.5,0,19.04,.86,31.08,2.79,35.98,.07,.28,.27,.42,.6,.42,.33,.07,.67-.21,1.13-.91l2.33-3.5c.33-.63,.73-.91,1.26-.77,.4,.21,.53,.63,.33,1.4-.67,3.64-1.06,6.44-1.2,8.33-.07,1.82,.27,3.85,1.06,6.23,.6,1.61,.6,2.87,0,3.99-.67,1.05-1.6,1.61-2.73,1.54-1.33,0-2.79-.84-4.32-2.73-.93-1.05-1.73-2.52-2.53-4.13-4.06-7.84-5.85-24.85-5.58-50.96-.07-.63-.27-.98-.67-.84h-32.38v10.78Zm3.52,42.28c-1.13,.35-1.8,.7-1.93,1.05-.2,.63-.46,.98-.8,.98-.47,.07-.86-.21-1.13-.84-.73-1.68-1.46-4.06-2.13-6.93-.07-.49,.2-.63,.67-.56,2.06,0,7.18-.21,15.23-.7v-11.13h-3.99v.49c0,1.19-.27,1.96-1,2.38-.86,.56-1.86,.84-2.99,.91-.87,0-1.53-.21-2-.63-.33-.28-.47-.77-.4-1.61V24.08c-.07-.42,.07-.63,.27-.56,2.66,.63,4.85,1.54,6.38,2.66h3.72v-7.56c-4.59,.49-8.31,.7-10.97,.7-.4,0-.6-.21-.67-.56-.07-.35,.13-.56,.6-.63,9.11-2.17,15.89-4.83,20.28-7.77,.33-.28,.6-.35,.86-.21,2.06,1.05,3.99,2.45,5.85,3.99,.67,.63,.87,1.19,.67,1.68-.27,.42-.73,.56-1.33,.49-.4-.14-3.39,.35-8.84,1.47v8.4h1.46c.6,.07,1,0,1.33-.35l1.73-1.96c.4-.56,.87-.77,1.4-.56,2.46,.98,4.32,1.96,5.65,3.01,1.33,1.12,1.13,2.1-.67,2.87-.33,.14-.53,.42-.53,.77v13.58c0,.91-.4,1.68-1.2,2.1-.67,.49-1.66,.77-2.93,.77-.8,0-1.46-.21-1.93-.7-.27-.28-.4-.7-.4-1.33v-1.33h-3.92v10.5l6.45-.98c-.8-1.75-2-3.22-3.39-4.2-.27-.21-.33-.42-.27-.77,.07-.28,.33-.42,.6-.35,5.85,1.26,9.91,4.13,11.9,8.61,.6,1.33,.66,2.73,.2,4.27-.33,1.33-1.06,2.24-2.33,2.59-1.26,.35-2.26,.07-3.13-.77-.8-.77-1.26-1.82-1.46-3.43-.27-1.4-.67-2.87-1.26-4.13-5.98,2.03-13.9,4.34-23.67,6.79Zm9.91-33.04h-3.99v13.09h3.99v-13.09Zm6.45,13.09h3.92v-12.95c-.2-.28-.4-.35-.6-.21h-3.33v13.16Z"/><path class="cls-1" d="M551.3,30.87c.6,0,1-.21,1.33-.7l3.66-5.04c.33-.49,.8-.49,1.4-.14,2.66,1.61,4.85,3.71,6.65,6.23,.33,.35,.4,.7,.27,.98-.2,.35-.53,.49-1.06,.49h-12.37v8.96c1.06-1.68,2.19-3.22,3.59-4.76,.33-.49,.8-.49,1.33-.14,2.66,1.61,4.92,3.71,6.72,6.23,.33,.35,.4,.7,.27,.98-.2,.35-.53,.49-1.13,.49h-24.8v7.7h13.9c.6,0,1-.21,1.33-.63l3.66-5.11c.33-.49,.8-.49,1.4-.14,2.66,1.68,4.85,3.78,6.65,6.3,.33,.35,.4,.7,.27,.98-.2,.35-.46,.49-1.06,.49h-26.13v10.57c-.07,1.33-.6,2.1-1.66,2.59-1.53,.63-2.93,.56-4.46-.21-.73-.42-1.13-1.19-1.13-2.38v-10.57h-22.28l-3.86,.56c-.4,.21-.67,.14-.73-.21l-.6-2.45c-.07-.35,.13-.42,.67-.28l4.52,.49h22.28v-7.7h-18.62l-3.86,.63c-.4,.21-.67,.14-.73-.21l-.67-2.45c-.07-.35,.13-.42,.73-.28l4.52,.49h4.39v-9.94h-6.78l-3.79,.63c-.4,.21-.67,.14-.73-.21l-.67-2.45c-.07-.35,.13-.42,.73-.28l4.46,.49h6.78v-9.94h-4.39l-3.86,.63c-.4,.21-.67,.14-.73-.21l-.67-2.45c-.07-.35,.13-.42,.73-.28l4.52,.49h36.38c.6,0,1-.21,1.33-.7l3.72-5.04c.27-.49,.73-.49,1.33-.14,2.66,1.61,4.85,3.71,6.72,6.23,.33,.35,.4,.7,.27,.98-.2,.35-.53,.49-1.13,.49h-8.58v9.94Zm-22.81-20.86v3.85c0,1.12-.47,1.96-1.4,2.45-1.46,.56-2.93,.49-4.52-.07-.8-.49-1.26-1.19-1.26-2.24v-3.99h-13.43l-3.86,.56c-.4,.21-.67,.14-.73-.14l-.6-2.52c-.07-.28,.13-.35,.67-.21l4.52,.42h13.5V.7c0-.35,.2-.49,.53-.42l6.52,1.05c1.26,.21,1.93,.63,1.86,1.33,.07,.7-.33,1.19-1.2,1.47-.4,.21-.6,.56-.6,.98v3.01h10.31V1.26c0-.35,.2-.49,.47-.42l6.58,.98c1.26,.21,1.86,.7,1.8,1.4,.07,.7-.27,1.19-1.13,1.47-.4,.14-.6,.49-.6,.98v2.45h5.39c.6,0,1-.21,1.33-.63l3.66-5.11c.33-.49,.8-.49,1.4-.14,2.66,1.68,4.85,3.78,6.65,6.3,.33,.35,.4,.7,.27,.98-.2,.35-.53,.49-1.06,.49h-17.62v3.57c0,1.12-.46,1.96-1.4,2.45-1.46,.56-2.93,.49-4.52-.07-.86-.49-1.26-1.19-1.26-2.24v-3.71h-10.24Zm-5.65,10.92v9.94h7.05v-9.94h-7.05Zm0,11.76v9.94h7.05v-9.94h-7.05Zm14.3-11.76v9.94h6.85v-9.94h-6.85Zm0,11.76v9.94h6.85v-9.94h-6.85Z"/><path class="cls-1" d="M9.99,138.71v2.31c0,1.26-.4,2.1-1.2,2.66-.93,.63-2.06,.91-3.26,.98-1,0-1.73-.21-2.33-.7-.27-.28-.47-.91-.4-1.82v-26.88c-.07-.49,.07-.7,.27-.63,3.46,.98,5.98,1.96,7.51,3.08h15.76v-16.45c0-.28,.13-.42,.46-.42l7.12,.98c1.33,.35,2,.84,2,1.61s-.53,1.33-1.66,1.61c-.47,.14-.67,.49-.67,1.12v11.55h14.76c.67,.07,1.13-.14,1.4-.49l1.73-2.24c.47-.63,.93-.84,1.53-.63,2.79,1.05,4.85,2.17,6.32,3.43,1.73,1.33,1.46,2.38-.73,3.15-.33,.21-.53,.49-.53,.91v19.74c0,1.05-.46,1.82-1.33,2.38-.86,.56-1.93,.84-3.32,.84-.93,0-1.66-.28-2.13-.77-.33-.35-.47-.84-.47-1.54v-3.78h-17.22v25.48c0,1.26-.6,2.1-1.73,2.73-1.46,.63-2.93,.56-4.39-.21-.73-.49-1.13-1.19-1.13-2.17v-25.83H9.99Zm16.36-19.04H9.99v17.22H26.35v-17.22Zm7.25,17.22h17.22v-16.87c-.13-.42-.33-.56-.6-.49h-16.62v17.36Z"/><path class="cls-1" d="M90.65,164.34c-.07,1.33-.6,2.1-1.73,2.59-1.46,.63-2.93,.56-4.39-.21-.8-.42-1.2-1.19-1.2-2.38v-25.41c-1.4,7.14-4.52,12.46-9.24,15.54-.47,.35-.87,.35-1.2,0-.2-.28-.2-.7,.13-1.05,4.39-7.77,7.71-17.5,10.11-29.19h-5.65l-4.26,.56c-.27,.14-.46,.07-.53-.21l-.53-2.38c-.07-.28,.13-.35,.6-.28l4.72,.42h5.85v-11.48c-2.46,.63-5.85,1.19-10.11,1.61-.6,.07-.93,0-1-.35-.07-.42,.13-.7,.6-.84,8.58-3.08,14.83-6.44,18.69-9.94,.4-.49,.8-.63,1.13-.42,2.26,.98,4.39,2.24,6.25,3.71,.86,.7,1.13,1.4,1,2.03-.27,.63-.93,.84-2.06,.63-.53-.07-2.93,.49-7.18,1.89v13.16h.27c.47,0,.8-.14,1-.56l2.73-4.34c.46-.7,1-.77,1.66-.28,1.6,1.33,3.12,3.01,4.39,5.11,.4,.49,.53,.98,.33,1.4-.13,.35-.47,.56-1,.56h-9.38v6.02l.86,.21c4.12,1.47,7.12,3.99,8.78,7.28,.6,1.33,.67,2.66,.2,4.13-.33,1.26-1.06,2.1-2.26,2.45-1.13,.35-2.13,.07-2.99-.7-.73-.77-1.2-1.82-1.4-3.29-.4-3.08-1.53-5.67-3.19-7.56v31.57Zm7.12-16.8l-3.59,1.4c-.33,.14-.53,.07-.67-.14l-1.06-1.54c-.27-.35-.13-.56,.33-.63l4.59-.91,18.75-4.48v-39.41c0-.28,.13-.42,.4-.42l7.18,.98c1.26,.35,1.93,.84,1.93,1.61s-.53,1.26-1.6,1.61c-.47,.14-.67,.49-.73,1.12v31.15c.6-1.19,1.2-2.31,1.86-3.29,.27-.49,.67-.63,1.13-.49,2.26,.56,4.59,1.61,6.98,3.08,.4,.28,.6,.63,.6,.98-.07,.35-.27,.63-.6,.77l-9.97,2.45v23.1c0,1.26-.6,2.1-1.66,2.73-1.53,.63-2.93,.56-4.46-.21-.67-.49-1.06-1.19-1.06-2.17v-21.77l-18.35,4.48Zm2.53-21.84c.07-.28,.33-.42,.67-.35l2.39,.56c3.92,.98,6.72,2.94,8.25,5.95,.6,1.4,.66,2.8,.2,4.41-.33,1.4-1.13,2.31-2.39,2.73h-.27c-2.59,.42-4.12-1.05-4.52-4.34-.47-3.64-1.86-6.51-4.06-8.12-.27-.21-.33-.49-.27-.84Zm1.13-16.94c.07-.28,.27-.42,.67-.42l2.39,.21c3.86,.56,6.72,2.17,8.58,4.83,.67,1.26,.93,2.8,.67,4.34-.2,1.47-.93,2.38-2.2,2.94-2.59,.98-4.39-.28-5.19-3.71-.8-3.5-2.33-6.09-4.59-7.42-.33-.14-.4-.42-.33-.77Z"/><path class="cls-1" d="M150.1,141.16v1.82c0,1.19-.33,1.96-1,2.45-.86,.49-1.93,.77-2.99,.84-.86,0-1.53-.21-2.06-.63-.27-.21-.4-.77-.33-1.61v-26.53c-.07-.42,.07-.63,.2-.56,2.73,.63,4.92,1.54,6.45,2.66h2.06v-7.7h-4.72l-4.19,.56c-.27,.14-.46,.07-.53-.21l-.53-2.38c-.07-.28,.13-.35,.6-.28l4.65,.49h4.72v-9.59c0-.21,.13-.35,.4-.42,2.06,.21,4.19,.49,6.45,.98,1.13,.28,1.66,.77,1.66,1.4s-.4,1.12-1.4,1.47c-.4,.07-.6,.42-.67,.98v5.18h.53c.46,0,.8-.14,1-.49l2.53-3.78c.33-.63,.73-.7,1.33-.21,1.4,1.12,2.53,2.52,3.59,4.41,.4,.49,.53,.91,.33,1.33-.13,.35-.47,.56-1,.56h-8.31v7.7h1.13c.27,0,.53-.14,.66-.35l1.6-1.75,.73-.14c2,.77,3.86,1.82,5.65,3.15,1.2,.98,1,1.75-.53,2.45-.4,.21-.6,.56-.6,1.19v18.97c-.07,.84-.4,1.47-1,1.89l-1.06,.49c1.46,1.12,2.79,2.73,3.92,4.69,.4,.49,.53,.98,.33,1.33-.13,.35-.46,.56-.93,.56h-9.91v12.81c0,1.12-.53,1.89-1.46,2.38-1.4,.56-2.66,.49-3.99-.21-.67-.42-1-.98-1-1.89v-13.09h-4.72l-4.19,.56c-.27,.14-.46,.07-.53-.21l-.53-2.38c-.07-.28,.13-.35,.6-.28l4.65,.49h4.72v-9.1h-2.33Zm2.33-19.67h-.8l-1.53,.21v8.05h2.33v-8.26Zm0,10.08h-2.33v7.77h2.33v-7.77Zm6.45-1.82h2.19v-7.98c-.2-.35-.4-.49-.67-.28h-1.53v8.26Zm0,9.59h2.19v-7.77h-2.19v7.77Zm0,10.92h1.46c.4,0,.73-.21,.93-.56,.6-1.12,1.46-2.52,2.53-3.99h-.4c-.86,0-1.53-.21-1.86-.7-.33-.42-.47-1.05-.47-1.96v-1.89h-2.19v9.1Zm16.89-6.72c-1.06,.28-1.6,.56-1.73,.91-.2,.63-.46,.91-.86,.98-.47,.07-.8-.21-1-.84-1-2.94-1.73-5.11-1.86-6.44-.07-.49,.13-.63,.6-.56,1.86,.14,5.32,.07,10.31-.14h1.73v-6.37h-4.92v1.12c0,1.19-.33,2.03-1,2.52-.93,.56-2,.84-3.13,.91-.86,0-1.6-.21-2.19-.63-.27-.28-.4-.84-.33-1.68v-19.81c-.07-.35,.07-.56,.27-.49,2.19,.49,4.39,1.33,6.38,2.52h4.92v-5.53h-8.51l-3.79,.56c-.4,.21-.67,.14-.73-.14l-.66-2.52c-.07-.28,.13-.35,.73-.21l4.46,.42h8.51v-7.7c-.07-.21,.07-.28,.4-.21,2.46,.07,4.79,.35,6.92,.98,.86,.28,1.26,.63,1.26,1.05,0,.63-.4,1.05-1.13,1.33-.46,.14-.73,.42-.67,.84v3.71h3.92c.4,0,.8-.21,1.06-.56l3.46-4.55c.33-.42,.8-.49,1.26-.14,2.33,1.54,4.26,3.43,5.79,5.67,.33,.35,.4,.7,.27,.98-.2,.35-.53,.49-1.06,.49h-14.7v5.53h4.39c.27,0,.53-.14,.73-.49l1.66-1.75c.13-.21,.33-.21,.67-.07,2.13,.7,4.06,1.75,5.85,3.22,1.4,.84,1.26,1.75-.46,2.59-.4,.21-.6,.49-.6,1.12v12.46c-.07,.77-.67,1.54-1.73,2.31,.8,.49,1.4,1.19,1.8,1.96,.46,.77,.67,1.75,.6,2.8-.07,.98-.6,1.75-1.6,2.17-1.13,.35-1.99,.21-2.79-.42-.6-.56-1-1.19-1.2-1.82l-1.06-1.82c-6.32,2.03-13.1,3.99-20.21,5.74Zm-.53,6.09l-4.19,.56c-.27,.14-.47,.07-.53-.21l-.53-2.38c-.07-.28,.13-.35,.6-.28l4.66,.49h13.5v-6.02c0-.42,.13-.63,.47-.63l6.32,.91c1.13,.21,1.73,.7,1.73,1.26,0,.63-.47,1.05-1.4,1.4-.33,.07-.47,.35-.47,.7v2.38h.8c.46,0,.73-.21,.93-.56l2.59-4.06c.47-.56,.93-.7,1.53-.28,1.46,1.26,2.86,2.8,3.99,4.83,.4,.49,.53,.91,.33,1.33-.13,.35-.47,.56-.93,.56h-9.24v11.34c0,1.75-.73,3.22-2.19,4.55-1.6,1.33-3.72,2.03-6.38,2.1-.4-.07-.6-.21-.6-.42,.13-2.59-1.33-4.55-4.46-5.88-.4-.07-.6-.35-.6-.77,.07-.35,.27-.56,.6-.56l5.19,.21c.6,0,1-.14,1.33-.49,.27-.35,.4-.84,.4-1.33v-8.75h-13.43Zm-2.86,1.89c.07-.21,.27-.28,.6-.21,1.93,.28,3.59,.91,4.92,1.96,1.53,1.05,2.33,2.17,2.53,3.57,.27,.98,.13,2.1-.4,3.15-.47,.98-1.33,1.54-2.59,1.54-2.33-.14-3.39-1.47-3.19-4.13,0-1.68-.6-3.36-1.66-4.97-.2-.28-.27-.56-.2-.91Zm10.57-34.02h-4.92v4.83h4.92v-4.83Zm0,6.72h-4.92v4.97h4.92v-4.97Zm6.78-1.89h5.52v-4.62c-.13-.35-.4-.49-.73-.35h-4.79v4.97Zm0,6.86h5.52v-4.97h-5.52v4.97Zm2.73,4.2h2.79v-2.31h-5.52v5.81l4.92-.56c-.67-.77-1.33-1.33-2.19-1.82l-.46-.56c0-.21,.13-.42,.46-.49v-.07Z"/><path class="cls-1" d="M220.93,122.26h-1.93l-4.19,.56c-.27,.14-.47,.07-.53-.21l-.53-2.38c-.07-.28,.13-.35,.6-.28l4.65,.49h1.93v-18.9c-.07-.21,.07-.28,.4-.28,2.53,.07,4.92,.42,7.12,.98,.93,.28,1.33,.7,1.33,1.19,0,.63-.33,1.12-1.13,1.33-.53,.14-.8,.42-.73,.91v14.77c.33,0,.67-.21,.86-.56l2.59-3.78c.33-.63,.8-.77,1.33-.28,1.53,1.12,2.73,2.73,3.86,4.55,.4,.49,.53,.98,.33,1.4-.13,.35-.47,.49-1,.49h-7.98v22.12l7.38-2.73c.47-.28,.73-.28,.93,0,.2,.35,.07,.7-.27,1.05-2.06,1.96-4.72,3.92-7.98,5.88l-6.72,3.85c-1.13,.56-1.8,1.12-1.86,1.68-.13,.77-.47,1.26-.93,1.4-.47,.14-1-.35-1.53-1.4l-2.66-6.37c-.2-.49,0-.84,.6-.91l6.05-.84v-23.73Zm33.25,23.8c-.67,6.3-2.99,11.2-6.98,14.56-4.39,3.71-10.04,6.02-16.69,6.79-.33,0-.53-.14-.53-.42,0-.35,.2-.56,.53-.63,1.93-.56,4.06-1.61,6.38-2.94,6.32-4.06,9.84-9.94,10.51-17.36h-1.53v.28c0,1.19-.4,2.1-1.13,2.52-1,.63-2,.91-3.26,.98-.8,0-1.53-.21-2.13-.63-.33-.35-.53-.91-.47-1.82v-19.95c-.07-.49,.07-.7,.27-.63,2.79,.56,5.12,1.47,6.85,2.66h16.49l2.39-2.38c.2-.21,.4-.21,.73-.07,2.13,.77,4.19,1.89,6.05,3.36,1.26,.91,1.06,1.82-.47,2.66-.47,.21-.67,.63-.67,1.19v13.37c-.07,.91-.4,1.47-1.13,1.96-.73,.49-1.8,.77-3.33,.91-.93,0-1.66-.28-2.06-.84-.33-.49-.53-1.12-.47-2.03v-1.54h-1.46v11.41c0,.63,.13,1.26,.4,1.82,.33,.49,1.46,.7,3.32,.7,3.13-.14,4.92-.42,5.19-.77,.6-.7,1.4-2.52,2.26-5.32,.13-.42,.4-.63,.73-.56,.27,0,.47,.21,.53,.63,0,3.01,.4,4.76,1.2,5.25,1.2,.63,1.8,1.61,1.8,3.08,0,1.19-.73,2.17-2.19,2.87-1.66,.84-4.85,1.19-9.64,1.26-4.85,0-7.85-.7-8.91-2.31-1-1.26-1.46-2.73-1.46-4.27v-13.79h-1.13Zm5.25-32.76c0-.49,.2-.77,.6-.7l6.25,1.12c1.2,.21,1.8,.7,1.8,1.4,.07,.63-.4,1.05-1.26,1.26-.47,.07-.93,.42-1.33,1.05-1.6,2.31-3.46,4.34-5.59,6.02h4.06c.53,0,.93-.21,1.2-.63l3.46-4.69c.33-.42,.8-.49,1.33-.14,2.39,1.54,4.46,3.5,6.12,5.88,.33,.35,.4,.7,.27,.98-.2,.35-.53,.42-1.13,.42h-35.11l-3.86,.63c-.4,.21-.67,.14-.73-.21l-.6-2.45c-.07-.35,.13-.42,.67-.28l4.52,.49h17.56c1-3.64,1.6-7,1.79-10.15Zm-9.51-3.5v-8.82c0-.21,.2-.28,.53-.28,2.73,.07,5.25,.49,7.65,1.12,1,.21,1.46,.63,1.46,1.19,0,.7-.4,1.19-1.26,1.47-.6,.21-.86,.42-.8,.91v4.41h4.39c.53,0,.93-.21,1.13-.63l3.52-4.69c.33-.42,.8-.49,1.33-.14,2.39,1.54,4.46,3.43,6.12,5.88,.27,.35,.33,.63,.2,.91-.13,.35-.46,.49-1.06,.49h-32.05l-3.79,.63c-.4,.21-.67,.14-.73-.21l-.67-2.45c-.07-.35,.13-.42,.73-.28l4.46,.49h8.84Zm-8.38,3.01c.07-.21,.33-.35,.67-.28l1.66,.28c2.99,.7,5.05,2.03,5.98,3.92,.47,1.33,.47,2.66,0,3.99-.4,1.19-1.13,1.89-2.26,2.17-2.53,.42-3.92-.84-4.06-3.99,0-2.38-.6-4.13-1.8-5.39-.2-.14-.27-.35-.2-.7Zm22.01,24.29v-5.39c-.13-.42-.4-.56-.67-.28h-17.02v5.67h17.69Zm0,7.14v-5.25h-17.69v5.25h17.69Z"/><path class="cls-1" d="M312.23,158.39c-5.25,4.55-12.83,7.63-22.68,8.96-.4,0-.6-.14-.6-.42,0-.35,.13-.56,.46-.63,3.39-.91,6.72-2.31,10.11-4.06,7.25-3.85,11.7-9.8,13.23-17.78h-20.61l-3.86,.63c-.4,.21-.67,.14-.73-.21l-.6-2.45c-.07-.35,.13-.42,.67-.28l4.52,.49h20.95l.27-5.81c0-.28,.13-.42,.4-.35,2.39,.21,4.79,.49,7.12,1.05,1,.21,1.53,.63,1.53,1.19,0,.63-.4,1.05-1.26,1.33-.33,.14-.53,.42-.6,.84l-.33,1.75h15.09c.6,0,1-.21,1.33-.7l3.66-5.04c.33-.49,.8-.49,1.4-.14,2.66,1.61,4.85,3.71,6.72,6.23,.27,.35,.33,.7,.2,.98-.13,.35-.47,.49-1.06,.49h-27.53c.93,1.96,2.39,3.85,4.26,5.46,6.25,5.6,14.03,8.26,23.34,8.12,.6,0,1,.14,1,.42,.07,.35,0,.63-.47,.91-2.26,1.33-3.79,3.85-4.52,7.28-.07,.49-.4,.7-.93,.63-2.86-.35-5.65-1.19-8.31-2.52-7.58-3.92-12.7-10.01-15.29-18.2-1.4,4.9-3.72,8.82-6.85,11.83Zm1.46-34.16h-13.5l-3.86,.63c-.4,.21-.6,.14-.67-.21l-.67-2.45c-.07-.35,.13-.42,.73-.28l4.46,.42h13.5v-7.42h-17.89l-3.86,.63c-.4,.21-.67,.14-.73-.21l-.67-2.45c-.07-.35,.13-.42,.73-.28l4.52,.49h26.87c1.4-4.34,2.33-8.33,2.73-12.11,0-.56,.2-.84,.6-.77,2.26,.35,4.52,.84,6.72,1.47,1.26,.28,1.93,.77,1.93,1.54,0,.63-.46,1.05-1.4,1.26-.46,.07-1,.42-1.46,1.12-2,2.87-4.26,5.32-6.78,7.49h5.92c.6,0,1-.21,1.26-.7l3.72-5.04c.33-.49,.8-.49,1.4-.14,2.66,1.61,4.85,3.71,6.65,6.3,.33,.28,.4,.63,.27,.91-.2,.35-.53,.49-1.13,.49h-22.21v7.42h5.85c.53,0,.93-.14,1.2-.56,1.13-1.75,2.26-3.36,3.66-4.97,.33-.42,.73-.42,1.26-.14,2.53,1.61,4.65,3.64,6.45,6.09,.33,.35,.4,.7,.27,.98-.2,.35-.53,.49-1.13,.49h-17.56v7.7h13.43c.53,0,.93-.21,1.26-.7l3.72-5.04c.33-.49,.8-.49,1.33-.14,2.66,1.68,4.92,3.78,6.72,6.3,.33,.35,.4,.7,.27,.98-.2,.35-.53,.49-1.13,.49h-53.33l-3.79,.56c-.4,.21-.67,.14-.73-.21l-.67-2.45c-.07-.35,.13-.42,.73-.28l4.46,.49h20.55v-7.7Zm-12.63-23.1c.07-.35,.27-.49,.6-.49,4.85,0,8.25,1.33,10.37,3.99,.67,1.26,.93,2.73,.73,4.27-.2,1.47-.86,2.45-2.06,3.01-2.59,.98-4.39-.28-5.32-3.57-.6-3.01-1.93-5.18-3.92-6.51-.33-.14-.46-.35-.4-.7Z"/><path class="cls-1" d="M384.45,145.01c-.4,0-.6-.14-.67-.49,.07-.35,.27-.56,.6-.63,5.92-1.61,11.24-5.04,15.83-9.94-2.46-5.04-4.26-11.69-5.05-19.88h-22.54v5.04h12.5c.4,0,.73-.14,.93-.49l2.46-3.57c.33-.63,.8-.7,1.33-.21,1.26,1.05,2.39,2.45,3.32,4.2,.4,.42,.53,.91,.33,1.33-.13,.35-.47,.56-.93,.56h-20.02c-.07,4.55-.53,8.82-1.4,12.74-1.6,6.51-5.39,11.41-11.1,14.42-.47,.21-.67,.21-.86-.07-.13-.14,.53-1.47,2.13-3.71,2.86-4.9,4.32-13.02,4.32-24.08v-10.43c0-.49,.2-.7,.53-.63,1.86,.7,4.12,1.68,6.52,3.08h22.28l-.4-4.62-.46-5.39c-.07-.49,.07-.77,.4-.7,2.79,.21,5.25,.56,7.32,1.12,.8,.21,1.26,.63,1.33,1.19,.07,.7-.33,1.33-1.33,1.96-.47,.28-.53,2.45-.13,6.44h7.65c.47,0,.8-.21,1-.56l2.59-3.85c.33-.56,.8-.7,1.4-.21,1.46,1.12,2.73,2.73,3.79,4.55,.4,.49,.53,.98,.33,1.33-.13,.35-.47,.56-.93,.56h-15.76c.33,6.3,1.26,11.13,2.53,14.35,2-3.15,3.46-6.44,4.39-9.87,.07-.35,.27-.49,.6-.42,2.19,.56,4.32,1.26,6.32,2.31,.86,.49,1.2,.98,1.13,1.54-.07,.42-.6,.7-1.46,.84-.4,.07-.67,.28-.87,.7-1.86,3.64-4.12,7-6.78,10.08,1.4,1.4,2.66,2.1,3.79,2.1,.33,.14,.73,.07,1.06-.21l2.93-2.87c.07-.77,.33-1.19,.73-1.19,.46,0,.8,.49,.86,1.4-.73,1.33-1.13,2.52-1.13,3.29-.4,1.19,.4,2.66,2.39,4.2,1.33,1.33,1.73,2.73,1.13,4.2-.4,1.05-1.33,1.61-2.79,1.68-2.53,.21-5.58-.91-9.04-3.36-1.73-1.26-3.39-2.94-4.79-4.76-3.46,2.45-8.31,4.62-14.56,6.37,4.52,0,7.91,1.47,10.11,4.62,.73,1.19,.93,2.52,.73,4.06-.2,1.26-.8,2.24-1.93,2.73-1.13,.49-2.13,.35-3.06-.28-.87-.63-1.4-1.54-1.8-3.01-.8-3.29-2.39-5.67-4.79-7-.27-.14-.27-.49-.27-.91l-2.73,.35Zm-14.23,.98l.33,.63c.2,2.94-.13,5.81-1.06,8.68-.86,2.8-2.13,4.9-3.86,6.23-1,.77-2.19,1.12-3.46,.98-1.13-.28-2.06-.91-2.66-1.96l-.27-1.26c-.2-2.24,.8-3.85,3.06-4.69,3.12-1.19,5.65-3.99,7.45-8.19,.13-.35,.27-.49,.47-.42Zm9.78-6.65c0,1.05-.33,1.82-1,2.24-.8,.56-1.79,.84-2.86,.91-.8,0-1.46-.21-1.93-.56-.33-.28-.47-.84-.4-1.68v-15.75c-.07-.35,.07-.56,.27-.49,1.99,.35,3.72,1.05,5.12,1.89h5.72c.27,0,.53-.14,.73-.42l1.53-1.68h.67c1.93,.7,3.72,1.68,5.39,3.01,1.2,.91,1.06,1.68-.47,2.38-.33,.14-.53,.49-.53,1.12v7.42c-.07,.77-.4,1.4-1,1.82-.67,.35-1.6,.63-2.99,.7-.87,0-1.46-.21-1.8-.63-.33-.49-.47-1.12-.4-1.89v-.7h-6.05v2.31Zm-5.52,8.61v-2.45c-.07-.28,.2-.49,.67-.56,2,.14,4.12,.49,6.45,.91,1.13,.28,1.73,.77,1.8,1.4-.07,.63-.47,1.05-1.33,1.33-.47,.21-.6,.56-.6,1.12v6.51c-.07,.49,.07,.98,.33,1.4,.33,.49,.87,.84,1.6,1.05l7.05,.35,9.24-.21,1.66-.49c1.06-.42,2.39-2.73,3.79-6.93,.07-.49,.33-.7,.8-.63,.33,0,.53,.28,.6,.77l.13,3.99c.07,1.19,.46,2.03,1.2,2.59,1.4,.63,2,1.68,2,3.08,0,1.47-.73,2.45-2.39,3.22-1.86,.91-3.92,1.47-6.38,1.68l-10.24,.21c-5.85,0-9.78-.42-11.97-1.33-1.73-.77-2.93-1.75-3.59-3.22-.53-1.33-.8-2.52-.86-3.71v-10.08h.07Zm11.57-12.74v-7.21c-.2-.35-.4-.42-.73-.07h-5.32v7.28h6.05Zm18.35-33.88c.07-.28,.27-.42,.6-.35,1.6,0,3.06,.28,4.32,.84,1.33,.63,2.19,1.54,2.53,2.66,.27,.84,.27,1.89,0,2.94-.33,.98-1.13,1.54-2.26,1.75-2.26,.14-3.39-1.05-3.39-3.43-.13-1.47-.67-2.73-1.46-3.71-.27-.21-.4-.42-.33-.7Zm1.4,45.15c.07-.28,.33-.42,.73-.42,6.05,1.26,10.31,3.92,12.57,7.84,.67,1.26,.8,2.8,.47,4.41-.33,1.4-1.06,2.24-2.26,2.73-2.59,.98-4.39-.35-5.12-3.85-.86-4.62-2.93-7.98-6.05-9.87-.27-.21-.4-.49-.33-.84Z"/><path class="cls-1" d="M442.5,123.66h-3.59l-3.86,.63c-.4,.21-.67,.14-.73-.21l-.6-2.45c-.07-.35,.13-.42,.67-.28l4.52,.49h8.11c.47,0,.86-.21,1-.56l1.73-2.24c-1-.7-1.66-2.1-1.86-3.92,.13-1.68-.07-3.08-.73-3.99l-.27-.35h-3.59c-3.12,4.55-6.65,7.7-10.44,9.31-.33,.14-.53,.07-.67-.14-.07-.21,0-.49,.2-.63,1.6-2.03,2.99-4.48,4.32-7.42,1.26-3.15,2.06-6.3,2.39-9.38l.13-.98c.07-.35,.27-.56,.6-.56,2.46,.35,4.79,.84,7.18,1.68,1,.42,1.53,.98,1.46,1.61-.07,.49-.53,.84-1.46,.91-.27,0-1.13,1.33-2.46,3.78h5.92c.4,0,.8-.21,1.06-.56l3.32-4.34c.33-.35,.73-.42,1.2-.14,2.19,1.4,4.06,3.29,5.59,5.46,.27,.35,.33,.7,.2,.98-.13,.28-.47,.42-1.06,.42h-8.78c1.06,.35,1.93,1.05,2.73,1.96,.6,1.33,.6,2.8,.07,4.27l-.73,1.33c1.4,1.05,2.59,2.31,3.66,3.92,.33,.28,.4,.63,.27,.91-.2,.35-.53,.49-1.13,.49h-7.65v7.63l7.38-2.1c.46-.21,.73-.14,.93,.14,.13,.28,0,.63-.4,.98-2.66,1.96-6.05,3.78-10.04,5.53l-8.38,3.36c-1.13,.42-1.79,.84-1.93,1.4-.13,.77-.47,1.26-1,1.33-.46,.07-.93-.49-1.33-1.61l-1.93-6.37c-.13-.49,.07-.7,.67-.7l9.31-.7v-8.89Zm22.21,40.25c0,1.19-.47,2.03-1.53,2.52-1.4,.56-2.73,.49-4.12-.21-.67-.42-1-1.12-1-2.03v-10.22c-6.92,5.88-15.23,9.8-24.94,11.62-.47,.14-.8,.07-.93-.28-.07-.35,.13-.7,.53-.91,10.84-4.13,18.29-9.8,22.34-16.94h-16.96l-3.86,.63c-.33,.21-.6,.14-.67-.21l-.67-2.45c-.07-.35,.13-.42,.73-.28l4.46,.49h19.95v-5.25c0-.28,.13-.42,.46-.42,2.06,.21,4.26,.49,6.58,.98,1.2,.28,1.79,.77,1.79,1.47,0,.63-.53,1.12-1.53,1.47-.4,.14-.6,.49-.67,1.12v.63h12.63c.53,0,.93-.21,1.13-.63l3.52-4.76c.33-.42,.8-.42,1.33-.14,2.39,1.61,4.46,3.5,6.12,5.88,.27,.35,.33,.7,.2,.98-.13,.35-.46,.49-1.06,.49h-22.68l.13,.14c1.66,2.31,4.92,4.48,9.71,6.65,5.05,2.17,10.31,3.43,15.96,3.92,.53,0,.86,.14,.93,.49,.07,.35-.13,.63-.53,.84-2.93,1.12-4.85,3.36-5.52,6.37-.13,.63-.53,.84-1.13,.56-11.24-5.53-18.15-11.69-20.55-18.27l-.2-.35v16.1Zm.73-31.01c-1.93,3.85-6.45,6.65-13.3,8.4-.46,.07-.8,0-.86-.28-.13-.35,0-.63,.4-.84,2.13-.98,3.86-2.17,5.12-3.43,2.39-2.66,3.66-6.51,3.66-11.55v-6.72l-.6,.28c-.33,.14-.53,.14-.67-.07-.07-.28,0-.56,.2-.77,1.53-1.82,2.79-4.13,3.99-6.86,1.2-2.87,1.93-5.74,2.19-8.61l.13-.98c.07-.35,.33-.56,.66-.56,2.39,.35,4.79,.98,7.12,1.89,1.06,.42,1.6,.98,1.53,1.61-.07,.49-.53,.84-1.53,.91-.27,0-1.13,1.26-2.59,3.64h8.64c.47,0,.86-.21,1.13-.56l3.26-4.34c.33-.35,.73-.42,1.2-.14,2.19,1.4,4.12,3.29,5.59,5.46,.33,.35,.4,.7,.27,.98-.2,.28-.53,.42-1.13,.42h-9.78c.93,0,1.79,.63,2.73,1.82,.67,1.26,.8,2.66,.46,4.2-.33,1.33-1.06,2.24-2.19,2.66l-1,.14,.53,.42c2.2,1.33,2.53,2.45,1.06,3.29-.4,.07-.53,.35-.53,.77v7c0,.7,.13,1.19,.47,1.47,.4,.42,.8,.63,1.2,.63,1.99,0,3.32-.14,3.92-.35,.53-.21,.93-.84,1.26-1.75l.93-3.22c.07-.49,.33-.7,.6-.63,.33,0,.53,.21,.6,.7,.13,2.73,.67,4.41,1.4,5.04,1,.49,1.53,1.33,1.53,2.59,0,1.12-.47,1.89-1.26,2.52-.93,.56-2,.98-3.19,1.19-6.38,.98-10.57,.56-12.5-1.33-1.06-1.05-1.6-2.59-1.6-4.69v-10.85h-7.31v1.82l1.4,.63c2.73,1.33,4.52,3.29,5.25,5.67,.27,1.05,.13,2.17-.4,3.22-.46,.91-1.06,1.47-2.06,1.54-1,.07-1.66-.21-2.26-.98-.53-.63-.8-1.61-.73-2.8,.07-2.24-.4-4.2-1.26-5.74-.07,2.52-.6,4.9-1.66,7.14Zm11.44-15.19l-.67-2.03c0-1.89-.53-3.29-1.4-4.27l-.4-.63h-4.79c-2.33,2.87-4.92,5.25-7.78,7,1.73,.63,3.59,1.54,5.65,2.66h5.45c.4-.07,.8-.28,1.2-.77,.6-.63,1.33-1.26,2.13-1.82l.6-.14Z"/><path class="cls-1" d="M541.12,120.65h-11.11l-.33,11.83h2.13c.87,.07,1.46-.07,1.73-.35l2.19-2.59c.27-.42,.6-.49,1.13-.28l4.99,3.22c.6,.56,.86,1.12,.8,1.61-.07,.63-.6,1.05-1.6,1.4-.46,.14-.73,.56-.8,1.26-1,10.15-2.13,16.24-3.32,18.13-1.26,1.89-3.52,2.87-6.65,3.01-.27,0-.4-.14-.4-.49,0-1.12-.33-2.1-.93-2.94-.6-.98-1.53-1.89-3.06-2.73-3.12,7.14-8.64,12.39-16.29,15.61-.47,.21-.73,.14-.86-.14-.07-.35,.07-.63,.4-.91,5.59-4.34,9.44-10.01,11.5-16.73,1.6-5.32,2.39-14.56,2.39-27.37l-.6,.07h-7.65v22.12l5.65-1.68c.47-.28,.8-.28,1,.07,.2,.21,.07,.56-.27,.98-1.79,1.75-4.19,3.36-6.98,5.04l-5.79,3.29c-1.26,.56-1.93,1.12-1.99,1.68-.2,.84-.53,1.33-1.06,1.47-.47,.07-1-.42-1.46-1.54l-2.53-6.79c-.2-.49,.07-.77,.67-.84l5.52-.35v-23.45h-.73l-4.19,.56c-.27,.14-.46,.07-.53-.21l-.53-2.38c-.07-.28,.13-.35,.6-.28l4.65,.49h.67v-19.74c0-.21,.13-.28,.47-.28,2.66,.07,5.19,.42,7.45,1.05,.93,.35,1.4,.7,1.4,1.19,0,.63-.4,1.12-1.26,1.4-.53,.21-.8,.49-.73,.91v15.33l.47-.42,2.59-3.78c.33-.63,.8-.77,1.4-.28,1.46,1.12,2.73,2.73,3.79,4.55v-4.06c-.07-.49,.13-.63,.53-.56l7.25,3.08h10.11l-.53-12.46-.53-4.48c-.13-.56,.13-.84,.8-.77,2.06,.21,4.19,.7,6.45,1.33,.8,.28,1.33,.7,1.46,1.19,.07,.56-.27,1.12-1.06,1.54-.73,.56-.87,5.18-.33,13.65h4.79c.46,0,.86-.21,1.06-.63l3.46-4.55c.33-.35,.8-.42,1.26-.14,2.33,1.54,4.26,3.43,5.85,5.74,.33,.28,.4,.63,.27,.91-.2,.35-.53,.49-1.13,.49h-15.43c.6,7.49,1.73,13.93,3.13,19.25,1.93-4.2,3.39-8.54,4.39-12.6,.07-.35,.33-.49,.67-.35l6.52,2.94c1,.49,1.4,.98,1.33,1.47-.13,.56-.67,.84-1.66,.91-.33,.07-.47,.14-.53,.35-2.73,7.07-5.39,12.32-7.98,15.68l2.66,5.95c.73,1.4,1.4,2.1,2,2.1,.47,.07,1.06-.56,2-1.89l2.73-3.99c.46-.77,.86-1.05,1.33-.84,.4,.21,.46,.7,.2,1.54-2,5.6-2.59,9.52-1.8,11.69,.67,1.26,.73,2.45,.13,3.36-.53,.91-1.2,1.4-2.2,1.4-2.06,.07-4.32-1.54-6.72-4.76-1.8-2.59-3.39-5.39-4.79-8.47-5.85,6.79-12.7,10.99-20.61,12.46-.27,.07-.46,0-.53-.21-.07-.28,.07-.49,.33-.56,7.18-3.99,13.37-10.08,18.35-18.13-2.59-8.05-4.32-17.15-5.12-27.3Zm-11.57,13.79c-.53,6.72-1.53,12.04-3.06,15.96,3.06,0,4.85-.28,5.25-.7,.53-.42,.93-1.47,1.2-3.22,1-7.49,1.26-11.62,.73-12.18l-.47,.14h-3.66Zm20.68-31.78c.07-.28,.27-.42,.6-.49h2c3.19,.14,5.72,1.19,7.38,3.08,.73,1.19,1.06,2.52,.87,4.06-.13,1.26-.8,2.24-1.93,2.8-2.33,.98-3.99-.14-4.92-3.15-.6-2.59-1.8-4.48-3.66-5.6-.27-.14-.33-.35-.33-.7Z"/></g></g></svg>