<?xml version="1.0" encoding="UTF-8"?><svg id="_層_2" xmlns="http://www.w3.org/2000/svg" viewBox="0 0 515.56 128.14"><defs><style>.cls-1{fill-rule:evenodd;}.cls-1,.cls-2{fill:#b28247;}</style></defs><g id="_層_1-2"><g><g><path class="cls-2" d="M21.3,13.62l11.63,11.32v12.32H9.81v-12.73l11.48-10.91m.08-13.62L0,20.32v26.76H42.74V20.8L21.38,0h0Z"/><g><path class="cls-2" d="M80.86,2.66c.58,.2,.91,.45,.91,.76,0,.25-.38,.66-1.1,1.16-2.01,3.93-4.55,8.11-7.71,12.65,6.37-.5,12.64-1.11,18.77-1.87-1.44-2.12-2.97-4.03-4.5-5.85l3.16-2.77c3.59,3.73,7.13,8.47,10.68,14.21l-4.12,2.92c-.86-1.61-1.77-3.17-2.68-4.69-6.61,.91-16.38,2.07-29.3,3.53-.33,.66-.67,.96-.96,.96-.34,0-.53-.25-.57-.81l-1.1-4.89c1.87-.1,3.73-.2,5.55-.35,1.53-2.32,2.78-4.44,3.83-6.35,1.92-3.53,3.54-7.01,4.84-10.43l4.31,1.81Zm13.84,22.43v20.87h-4.31v-2.77h-17.76v2.77h-4.31V25.09h26.38Zm-4.31,13.96v-9.63h-17.76v9.63h17.76Z"/><path class="cls-2" d="M116.19,20.35l-2.63,2.97c-1.96-1.92-4.07-3.63-6.37-5.14l2.82-2.97c2.39,1.61,4.45,3.33,6.18,5.14Zm2.25,10.43c-2.11,4.79-4.26,9.27-6.56,13.41,0,1.01-.33,1.56-.91,1.56l-3.59-3.18c3.11-4.49,5.94-9.53,8.43-15.12l2.63,3.33Zm-2.06-25l-2.63,2.92c-1.72-1.87-3.59-3.58-5.6-5.09l2.83-2.77c2.11,1.56,3.88,3.23,5.41,4.94Zm8.47-3.83c.29,.2,.48,.35,.48,.45,0,.3-.19,.6-.53,.81l-2.97,3.28c.33,.45,.67,.86,1.01,1.26l2.3-2.97,2.44,1.56c.24,.2,.38,.4,.38,.61,0,.3-.19,.5-.57,.6l-5.12,5.44c1.25-.1,2.49-.2,3.64-.4-.14-.6-.29-1.21-.38-1.71l2.63-.55c.48,1.97,.86,3.88,1.1,5.7l-2.59,.61c-.1-.45-.14-.86-.19-1.26l-2.06,.35v8.37h-3.21v-7.86l-3.54,.6c-.38,.5-.72,.76-.91,.76-.34,0-.53-.2-.57-.71l-.19-3.63c.91,0,1.77,0,2.63-.05l2.25-2.92c-1.39-1.71-2.82-3.28-4.31-4.69l2.25-2.17c.38,.4,.77,.71,1.1,1.01l2.63-3.78,2.3,1.31Zm-4.6,16.78c.29,.05,.43,.2,.43,.4,0,.25-.19,.5-.57,.81-.29,1.76-.67,3.28-1.1,4.54l-2.63-1.01c.29-.6,.53-1.36,.72-2.17,.19-.96,.38-2.07,.57-3.33l2.59,.76Zm27.34,6.55v8.06h-23.51c-.19,.76-.34,1.46-.53,2.17h27.25c-.19,2.87-.58,5.04-1.05,6.45-.53,1.36-1.48,2.32-2.82,2.87-1.25,.5-3.73,.91-7.38,1.11l-2.06-3.93,4.79-.3c2.01-.1,3.3-.5,3.78-1.26,.24-.45,.43-1.06,.57-1.81h-23.99c-.24,.76-.48,1.46-.67,2.17l-3.93-1.36c1.44-3.53,2.49-7.01,3.16-10.43l3.59,.76c-.05,.15-.1,.3-.1,.4h19.15v-1.76h-21.88v-3.13h25.62Zm-19.06-2.17l-2.83,.55c-.05-1.41-.1-3.12-.19-5.09l2.44-.6c.24,1.87,.43,3.58,.57,5.14Zm9.91-18.14v2.77h-10.1v-2.77h10.1Zm-.58-4.13V3.62h-8.76V.85h8.76Zm0,16.33v6.91h-8.76v-6.91h8.76Zm-.38-8.06v2.77h-8.04v-2.77h8.04Zm0,3.93v2.77h-8.04v-2.77h8.04Zm-2.39,6.7h-3.21v1.76h3.21v-1.76ZM147.84,1.96c.33,.2,.53,.35,.53,.45,0,.3-.19,.6-.57,.81l-4.12,4.03c.33,.5,.67,1.01,.96,1.41l3.16-3.48,2.44,1.56c.24,.2,.38,.4,.38,.6,0,.3-.19,.5-.58,.61l-5.36,4.74c.96-.05,1.82-.1,2.68-.2-.05-.5-.1-.96-.14-1.41l2.82-.55c.24,1.92,.43,3.73,.58,5.49l-2.83,.61c-.05-.4-.1-.86-.1-1.26l-1.77,.25v8.47h-3.16v-8.06l-3.02,.4c-.38,.5-.72,.76-.91,.76-.34,0-.53-.2-.57-.71l-.19-3.63c.96,0,1.87,0,2.78-.05l1.63-1.76c-1.24-1.81-2.49-3.48-3.83-5.04l2.25-2.17c.38,.4,.72,.81,1.05,1.21l3.59-4.38,2.3,1.31Zm-5.84,16.58c.24,.05,.38,.2,.38,.45,0,.2-.19,.45-.57,.76-.19,1.71-.43,3.12-.72,4.33l-2.63-.96c.19-.6,.33-1.31,.48-2.12,.19-.96,.33-2.02,.43-3.23l2.63,.76Zm8.43,4.38l-3.02,.76c-.1-1.51-.24-3.28-.53-5.29l2.59-.81c.43,1.92,.77,3.73,.96,5.34Z"/><path class="cls-2" d="M175.04,13.65c0-.4,.05-.76,.05-1.16V4.23c0-1.01-.14-2.27-.34-3.78l4.74,.4c.81,.05,1.25,.25,1.25,.6,0,.55-.38,1.06-1.15,1.56V12.49c0,.4-.05,.81-.05,1.16h18v4.33h-17.91c1.72,5.8,4.07,10.38,7.04,13.76,2.73,3.63,6.89,6.7,12.54,9.27l-3.93,4.74c-4.84-2.67-8.91-6.3-12.16-10.99-1.92-2.67-3.64-5.95-5.08-9.88-.38,1.31-.77,2.47-1.2,3.58-1.48,3.58-4.17,7.06-8.04,10.38-2.82,2.52-6.13,4.79-9.96,6.91l-3.93-3.73c3.97-2.02,7.09-3.88,9.34-5.7,3.59-2.72,6.08-5.49,7.52-8.32,1.48-2.92,2.49-6.3,2.97-10.03h-18.15v-4.33h18.43Z"/><path class="cls-2" d="M213.44,22.12v14.92c.96,1.76,2.49,2.97,4.6,3.63,2.3,.81,5.89,1.16,10.77,1.16,6.71,0,12.88-.2,18.48-.6l-1.48,4.94h-17c-4.21,0-7.56-.35-10.05-.96-2.63-.66-4.69-1.71-6.22-3.23-.72-.6-1.29-1.36-1.77-2.22l-4.4,4.99c-.29,.5-.53,.81-.77,.81-.38,0-.62-.25-.72-.66l-2.44-3.48c2.54-1.56,4.69-3.17,6.51-4.79v-10.58h-3.35v-3.93h7.85Zm.19-6.5l-2.78,3.18c-2.44-1.92-5.08-3.73-7.9-5.34l3.02-3.12c3.02,1.66,5.55,3.43,7.66,5.29Zm.96-10.03l-2.82,3.12c-2.06-1.81-4.31-3.43-6.75-4.89l3.02-3.18c2.58,1.56,4.74,3.23,6.56,4.94Zm14.03,.81l-1.68,.96h5.79l4.12-6.7,3.35,.71c.57,.1,.91,.35,.91,.71,0,.4-.34,.86-.91,1.36l-2.82,3.93h7.66v3.73h-12.26l-1.58,3.58h11.06v25.2h-4.12v-2.17h-14.6v2.17h-4.12V14.66h7.28l1.44-3.58h-11.68v-3.73h8c-1.34-1.76-2.73-3.53-4.26-5.29l3.54-1.81c1.82,2.12,3.45,4.13,4.88,6.15Zm9.53,15.12v-3.33h-14.6v3.33h14.6Zm0,6.5v-3.12h-14.6v3.12h14.6Zm0,6.1v-2.72h-14.6v2.72h14.6Z"/><path class="cls-2" d="M293.68,17.98l-23.75,3.83v13.91c0,1.41,.19,2.52,.67,3.23,.43,.6,1.39,.91,2.87,.91h9.72c1.82,0,3.21-.4,4.17-1.21,.96-.71,1.72-2.97,2.39-6.7l4.31,1.97c-.96,4.54-2.15,7.41-3.5,8.67-1.2,1.16-2.63,1.76-4.36,1.76h-14.6c-2.06,0-3.64-.71-4.74-2.02-.96-1.26-1.44-3.07-1.44-5.44v-14.36l-13.46,2.17-.19-4.33,13.65-2.22V.85l5.22,.76c.62,.1,.96,.35,.96,.81s-.33,.96-.91,1.46c-.53,.35-.77,.91-.77,1.71v11.84l23.37-3.78,.38,4.33Z"/><path class="cls-2" d="M314.46,5.43c-2.3,.5-4.88,1.01-7.71,1.41v7.01h9.58v4.13h-9.58v5.49h9.58v4.13h-9.58v6.35c3.69-.5,7.32-1.11,10.87-1.81v3.93c-2.59,.6-6.18,1.36-10.87,2.27v7.61h-4.26v-6.8c-.58,.1-1.15,.2-1.72,.3-.29,.66-.62,.96-.91,.96-.33,0-.53-.25-.57-.76l-1.1-4.74c1.44-.1,2.87-.25,4.31-.45V3.22c2.11-.2,4.07-.5,5.98-.91,2.01-.4,3.88-.96,5.6-1.66l3.06,3.43c.29,.3,.48,.71,.48,1.11,0,.3-.14,.4-.38,.4l-1.29-.35c-.34,0-.81,.1-1.48,.2Zm21.45,16.68c.67-.5,1.05-.81,1.15-.81,.34,0,.67,.2,1.01,.5l2.3,2.32c.29,.3,.43,.61,.43,.96,0,.3-.53,.71-1.48,1.16-1.82,5.24-3.88,9.17-6.08,11.69,.67,.5,1.34,.91,2.11,1.26,1.87,1.01,4.36,1.81,7.52,2.42l-3.73,4.33c-2.97-1.06-5.55-2.32-7.66-3.78-.58-.4-1.1-.81-1.58-1.21-2.78,2.02-6.27,3.68-10.58,4.99l-2.97-4.13c2.97-.66,5.36-1.41,7.23-2.22,1.15-.5,2.15-1.11,3.11-1.76-.38-.4-.67-.81-.96-1.21-1.44-1.97-2.59-4.18-3.45-6.65-.48-1.36-.81-2.67-1.01-3.93h-2.15v-3.93h16.81Zm-.72-19.5V13.85c.05,.81,.67,1.16,1.87,1.16,.96,0,1.63-.2,2.01-.66,.33-.35,.62-1.61,.81-3.83l3.35,.76c-.29,3.33-.86,5.49-1.77,6.5-.72,.81-2.2,1.21-4.4,1.21-2.68-.05-4.31-.55-4.88-1.56-.48-.71-.72-1.61-.72-2.77V6.54h-5.12c-.19,3.12-.67,5.54-1.34,7.21-.81,2.17-2.54,4.08-5.12,5.8l-2.44-3.12c2.01-1.26,3.35-2.67,4.02-4.28,.77-1.61,1.2-4.79,1.2-9.53h12.54Zm-9.05,26.66c.67,1.81,1.77,3.58,3.21,5.19,.19,.2,.34,.4,.53,.55,.14-.2,.29-.35,.43-.55,1.53-1.86,2.92-4.69,4.21-8.42h-9.48c.24,1.11,.62,2.22,1.1,3.23Z"/><path class="cls-2" d="M365.36,22.52c-1.01,1.56-2.59,3.43-4.79,5.6-3.78,3.78-6.03,6.65-6.8,8.62h13.6v4.33h-19.3c.72-3.28,1.92-6.2,3.54-8.82,1.34-2.17,3.35-4.54,5.94-7.06,2.01-2.02,3.45-3.68,4.21-4.99,.77-1.26,1.15-2.62,1.15-4.08,0-2.72-1.77-4.13-5.27-4.13s-5.22,2.52-5.46,7.56l-4.12-1.61c.29-3.23,1.29-5.75,2.97-7.61,1.63-1.86,3.83-2.82,6.61-2.82s5.22,.76,7.04,2.27c1.82,1.51,2.73,3.63,2.73,6.35,0,2.12-.72,4.28-2.06,6.4Z"/><path class="cls-2" d="M391.26,36.58c-1.72,3.28-4.4,4.89-8,4.89s-6.37-2.17-7.95-6.55l3.93-1.92c1.01,2.67,2.35,3.98,4.02,3.98,1.58,0,2.83-.66,3.74-1.97,1-1.46,1.68-3.93,1.96-7.36-1.68,1.51-3.5,2.22-5.41,2.22-2.73,0-4.88-.91-6.51-2.72-1.63-1.81-2.44-4.39-2.44-7.71s.77-5.95,2.3-8.17c1.72-2.47,4.02-3.73,6.99-3.73,3.83,0,6.51,1.86,8.04,5.49,1.05,2.62,1.63,6.55,1.63,11.74s-.77,8.97-2.3,11.79Zm-7.37-24.6c-1.39,0-2.49,.65-3.35,1.92-.96,1.41-1.44,3.23-1.44,5.54,0,3.98,1.58,5.95,4.79,5.95,1.92,0,3.64-1.11,5.17-3.38-.19-6.65-1.92-10.03-5.17-10.03Z"/><path class="cls-2" d="M418.36,37.79c-1.96,2.47-4.55,3.68-7.76,3.68-3.59,0-6.27-1.46-8.09-4.44-1.72-2.77-2.58-6.75-2.58-11.89,0-5.59,.86-9.93,2.68-13,1.77-3.07,4.45-4.64,8-4.64,4.36,0,7.42,2.37,9.24,7.11l-4.02,1.66c-.67-1.51-1.25-2.57-1.82-3.12-.77-.76-1.91-1.16-3.4-1.16-3.54,0-5.55,3.43-6.08,10.28,1.96-1.61,4.07-2.47,6.32-2.47,3.21,0,5.7,1.06,7.52,3.07,1.68,1.92,2.54,4.39,2.54,7.41,0,2.82-.86,5.34-2.54,7.51Zm-7.52-13.51c-1.24,0-2.44,.3-3.64,.86-1.2,.6-2.11,1.36-2.68,2.27,.29,6.4,2.35,9.58,6.08,9.58,1.82,0,3.3-.66,4.36-2.07,.91-1.21,1.39-2.77,1.39-4.64,0-3.98-1.87-6-5.51-6Z"/><path class="cls-2" d="M442.83,17.98v3.73h-9.05c-.34,1.61-.67,3.23-1.05,4.74h8.81c-.38,5.85-.86,9.78-1.34,11.74-.48,2.82-1.53,4.74-3.26,5.85-1.53,1.01-4.02,1.51-7.56,1.51l-1.15-3.93c3.97,0,6.42-.55,7.33-1.66,.77-1.01,1.44-4.33,2.06-9.98h-5.79c-.43,1.51-.86,2.97-1.34,4.33l-3.93-.96c1.34-4.03,2.35-7.91,3.11-11.64h-3.69v-3.73h16.86Zm-1.87-15.17V14.66h-13.31V2.81h13.31Zm-3.73,3.38h-5.79v5.09h5.79V6.19Zm18.53-5.59c.72,.1,1.1,.3,1.1,.66,0,.2-.29,.55-.77,1.01v.96h10.1v3.18h-10.1v2.52h12.54v7.91h-3.93v-4.33h-8.24v3.28l7.09-1.31,.38,3.33-7.47,1.36v1.01c0,1.61,.34,2.37,1.1,2.37h4.5c.67,0,1.15-.15,1.53-.45,.29-.2,.62-1.06,.91-2.52l3.73,1.21c-.43,1.92-1.05,3.17-1.91,3.73-.91,.66-2.06,.96-3.5,.96h-5.79c-2.87,0-4.31-1.01-4.31-3.12v-2.52l-4.12,.76-.19-3.38,4.31-.76v-3.93h-4.69v8.82c0,5.14-.43,9.78-1.29,13.81-.57,3.02-1.77,6.8-3.54,11.39l-3.93-1.97c1.72-3.93,2.87-7.41,3.5-10.43,.86-4.33,1.34-8.62,1.34-12.8V8.91h7.85V.24l3.78,.35Zm-1.05,27.67c.53,.1,.81,.3,.81,.55,0,.4-.24,.76-.72,.96-.14,1.41-.19,2.77-.19,3.98,0,2.12-.24,4.03-.67,5.64-.33,1.26-.91,2.42-1.68,3.63-.72,1.01-1.72,2.02-3.06,3.12l-4.12-1.81c1.44-.81,2.54-1.71,3.35-2.62,.86-.96,1.44-2.02,1.77-3.17,.43-1.21,.67-2.77,.67-4.79v-5.95l3.83,.45Zm8,.4c.57,.1,.86,.35,.86,.76s-.29,.81-.81,1.21c-.48,.3-.67,.81-.67,1.51v5.75c0,1.36,.14,2.37,.53,3.07,.29,.5,.81,.71,1.68,.81,.48-.1,.86-.25,1.15-.5,.38-.3,.67-1.21,.96-2.82l3.73,1.76c-.48,2.22-1.05,3.63-1.72,4.28-.62,.55-1.34,.86-2.2,.86h-2.78c-1.77,0-3.11-.6-4.02-1.76-.86-1.11-1.24-2.67-1.24-4.74v-10.84l4.55,.66Z"/><path class="cls-2" d="M497.41,.39c.77,.1,1.15,.3,1.15,.66,0,.25-.29,.66-.77,1.21v2.32h15.56v3.98h-9.58l2.87,.81c.48,.1,.72,.3,.72,.55,0,.35-.29,.65-.77,.96l-2.06,3.58h11.01v10.84h-2.97v2.32h-21.45c-.14,1.51-.34,2.82-.53,3.98h20.3c-.24,3.93-.67,6.9-1.29,8.87-.62,1.92-1.72,3.23-3.35,3.98-1.48,.71-4.45,1.21-8.86,1.51l-2.2-4.33,5.79-.4c2.49-.2,4.02-.86,4.6-2.02,.38-.81,.62-2.07,.81-3.68h-16.85c-.05,.1-.1,.15-.1,.2-1.05,2.52-2.25,4.49-3.69,6-1.44,1.51-3.45,2.92-5.94,4.23l-3.93-3.38c2.73-1.01,4.74-2.12,5.98-3.43,1.48-1.31,2.63-2.97,3.5-4.89,.77-1.76,1.34-3.98,1.63-6.65h-8.47v-2.32h-3.35V14.46h10.01c-.57-1.51-1.2-2.92-1.96-4.33l4.45-.81c.77,1.66,1.44,3.38,2.01,5.14h10.54l2.73-5.9h-25.52v-3.98h16.04V.09l3.93,.3Zm-4.45,23.29v-4.13l3.78,.35c.67,.1,1.05,.3,1.05,.66,0,.2-.24,.55-.72,.96v2.17h14.36v-5.29h-32.13v5.29h13.65Z"/></g></g><g><g><path class="cls-2" d="M79.65,127.84c-10.3,0-15.41-8.06-15.41-24.19s5.11-24.34,15.41-24.34,15.41,8.14,15.41,24.34-5.18,24.19-15.41,24.19Zm6.34-38.45c-1.37-2.45-3.46-3.67-6.34-3.67-5.76,0-8.64,5.98-8.64,17.93s2.88,17.79,8.64,17.79c2.74,0,4.82-1.22,6.26-3.67,1.58-2.81,2.38-7.49,2.38-14.11s-.79-11.38-2.3-14.26Z"/><path class="cls-2" d="M129.97,116.54v10.73h-6.62v-10.73h-18.72v-5.98l19.51-30.6h5.83v30.39h5.76v6.19h-5.76Zm-6.62-24.05l-11.16,17.86h11.16v-17.86Z"/><path class="cls-2" d="M197.08,100.77c-1.51,2.23-3.89,4.9-7.2,7.99-5.69,5.4-9.07,9.5-10.22,12.31h20.45v6.19h-29.02c1.08-4.68,2.88-8.86,5.33-12.6,2.02-3.1,5.04-6.48,8.93-10.08,3.02-2.88,5.18-5.26,6.34-7.13,1.15-1.8,1.73-3.74,1.73-5.83,0-3.89-2.66-5.91-7.92-5.91s-7.85,3.6-8.21,10.8l-6.19-2.3c.43-4.61,1.94-8.21,4.46-10.87,2.45-2.66,5.76-4.03,9.94-4.03s7.85,1.08,10.59,3.24,4.1,5.18,4.1,9.07c0,3.02-1.08,6.12-3.1,9.14Z"/><path class="cls-2" d="M238.12,122.58c-2.95,3.53-6.84,5.26-11.66,5.26-5.4,0-9.43-2.09-12.17-6.34-2.59-3.96-3.89-9.65-3.89-16.99,0-7.99,1.3-14.19,4.03-18.58,2.66-4.39,6.7-6.62,12.03-6.62,6.55,0,11.16,3.38,13.9,10.15l-6.05,2.38c-1.01-2.16-1.87-3.67-2.74-4.46-1.15-1.08-2.88-1.66-5.11-1.66-5.33,0-8.35,4.9-9.14,14.69,2.95-2.3,6.12-3.53,9.5-3.53,4.82,0,8.57,1.51,11.3,4.39,2.52,2.74,3.82,6.26,3.82,10.58,0,4.03-1.29,7.63-3.82,10.73Zm-11.3-19.3c-1.87,0-3.67,.43-5.47,1.22-1.8,.86-3.17,1.94-4.03,3.24,.43,9.14,3.53,13.68,9.14,13.68,2.74,0,4.97-.94,6.55-2.95,1.37-1.73,2.09-3.96,2.09-6.62,0-5.69-2.81-8.57-8.28-8.57Z"/><path class="cls-2" d="M277.07,123.95c-2.88,2.59-6.41,3.89-10.58,3.89-7.85,0-12.6-3.89-14.33-11.74l6.12-2.02c1.01,5.18,3.74,7.78,8.21,7.78,2.52,0,4.54-.72,6.05-2.3,1.3-1.37,2.02-3.1,2.02-5.26,0-2.38-.72-4.39-2.02-6.05-1.44-1.58-3.24-2.45-5.47-2.45h-5.83v-5.69h4.97c1.58,0,3.17-.86,4.68-2.66,1.44-1.73,2.23-3.6,2.23-5.47,0-4.18-2.09-6.26-6.26-6.26-3.89,0-6.19,2.38-6.98,6.99l-6.12-1.87c.65-3.38,2.02-6.12,4.11-8.14,2.3-2.23,5.33-3.38,9-3.38,3.96,0,7.13,1.15,9.5,3.46,2.3,2.3,3.53,5.33,3.53,9.22,0,4.32-1.87,7.78-5.47,10.23,2.16,1.08,3.82,2.66,5.04,4.82,1.22,2.16,1.87,4.61,1.87,7.27,0,3.89-1.44,7.13-4.25,9.65Z"/><path class="cls-2" d="M318.68,100.77c-1.51,2.23-3.89,4.9-7.2,7.99-5.69,5.4-9.07,9.5-10.22,12.31h20.45v6.19h-29.02c1.08-4.68,2.88-8.86,5.33-12.6,2.02-3.1,5.04-6.48,8.93-10.08,3.03-2.88,5.19-5.26,6.34-7.13,1.15-1.8,1.73-3.74,1.73-5.83,0-3.89-2.66-5.91-7.92-5.91s-7.85,3.6-8.21,10.8l-6.19-2.3c.43-4.61,1.94-8.21,4.46-10.87,2.45-2.66,5.76-4.03,9.94-4.03s7.85,1.08,10.58,3.24c2.74,2.16,4.11,5.18,4.11,9.07,0,3.02-1.08,6.12-3.1,9.14Z"/><path class="cls-2" d="M330.99,114.09v-5.62h18v5.62h-18Z"/><path class="cls-2" d="M384.64,122.58c-2.95,3.53-6.84,5.26-11.67,5.26-5.4,0-9.43-2.09-12.17-6.34-2.59-3.96-3.89-9.65-3.89-16.99,0-7.99,1.29-14.19,4.03-18.58,2.66-4.39,6.7-6.62,12.03-6.62,6.55,0,11.16,3.38,13.9,10.15l-6.05,2.38c-1.01-2.16-1.87-3.67-2.74-4.46-1.15-1.08-2.88-1.66-5.11-1.66-5.33,0-8.35,4.9-9.14,14.69,2.95-2.3,6.12-3.53,9.51-3.53,4.82,0,8.57,1.51,11.3,4.39,2.52,2.74,3.82,6.26,3.82,10.58,0,4.03-1.3,7.63-3.82,10.73Zm-11.3-19.3c-1.87,0-3.67,.43-5.47,1.22-1.8,.86-3.17,1.94-4.03,3.24,.43,9.14,3.53,13.68,9.14,13.68,2.74,0,4.97-.94,6.55-2.95,1.37-1.73,2.09-3.96,2.09-6.62,0-5.69-2.81-8.57-8.28-8.57Z"/><path class="cls-2" d="M424.45,124.1c-2.67,2.52-6.34,3.74-11.09,3.74s-8.57-1.22-11.3-3.74c-2.74-2.45-4.03-5.83-4.03-10.15,0-5.47,2.38-9.65,7.13-12.67-3.74-2.45-5.54-5.69-5.54-9.72,0-3.82,1.22-6.77,3.67-8.93,2.45-2.16,5.76-3.24,9.94-3.24s7.49,1.08,9.94,3.24c2.45,2.16,3.67,5.11,3.67,8.93,0,4.03-1.87,7.27-5.54,9.72,4.75,3.02,7.13,7.2,7.13,12.67,0,4.32-1.37,7.71-3.96,10.15Zm-11.31-19.59c-2.59,0-4.61,.79-6.05,2.3-1.51,1.58-2.23,3.89-2.23,6.84,0,5.18,2.81,7.78,8.5,7.78s8.21-2.59,8.21-7.78c0-6.05-2.81-9.14-8.43-9.14Zm.07-18.65c-4.54,0-6.77,2.02-6.77,6.05,0,1.87,.65,3.46,1.94,4.61,1.3,1.22,2.88,1.8,4.9,1.8s3.53-.58,4.82-1.8c1.22-1.15,1.87-2.74,1.87-4.61,0-4.03-2.3-6.05-6.77-6.05Z"/><path class="cls-2" d="M464.98,124.1c-2.66,2.52-6.34,3.74-11.09,3.74s-8.57-1.22-11.3-3.74c-2.74-2.45-4.03-5.83-4.03-10.15,0-5.47,2.38-9.65,7.13-12.67-3.74-2.45-5.54-5.69-5.54-9.72,0-3.82,1.22-6.77,3.67-8.93,2.45-2.16,5.76-3.24,9.94-3.24s7.49,1.08,9.94,3.24c2.45,2.16,3.67,5.11,3.67,8.93,0,4.03-1.87,7.27-5.54,9.72,4.75,3.02,7.13,7.2,7.13,12.67,0,4.32-1.37,7.71-3.96,10.15Zm-11.3-19.59c-2.59,0-4.61,.79-6.05,2.3-1.51,1.58-2.23,3.89-2.23,6.84,0,5.18,2.81,7.78,8.5,7.78s8.21-2.59,8.21-7.78c0-6.05-2.81-9.14-8.42-9.14Zm.07-18.65c-4.54,0-6.77,2.02-6.77,6.05,0,1.87,.65,3.46,1.95,4.61,1.29,1.22,2.88,1.8,4.9,1.8s3.53-.58,4.82-1.8c1.22-1.15,1.87-2.74,1.87-4.61,0-4.03-2.3-6.05-6.77-6.05Z"/><path class="cls-2" d="M506.24,122.58c-2.95,3.53-6.84,5.26-11.67,5.26-5.4,0-9.43-2.09-12.17-6.34-2.59-3.96-3.89-9.65-3.89-16.99,0-7.99,1.29-14.19,4.03-18.58,2.66-4.39,6.7-6.62,12.03-6.62,6.55,0,11.16,3.38,13.9,10.15l-6.05,2.38c-1.01-2.16-1.87-3.67-2.74-4.46-1.15-1.08-2.88-1.66-5.11-1.66-5.33,0-8.35,4.9-9.14,14.69,2.95-2.3,6.12-3.53,9.51-3.53,4.82,0,8.57,1.51,11.3,4.39,2.52,2.74,3.82,6.26,3.82,10.58,0,4.03-1.3,7.63-3.82,10.73Zm-11.3-19.3c-1.87,0-3.67,.43-5.47,1.22-1.8,.86-3.17,1.94-4.03,3.24,.43,9.14,3.53,13.68,9.14,13.68,2.74,0,4.97-.94,6.55-2.95,1.37-1.73,2.09-3.96,2.09-6.62,0-5.69-2.81-8.57-8.28-8.57Z"/></g><g><path class="cls-1" d="M13.69,78.11c1.47-.26,2.24,1.29,2.99,2.59,1.18,2.11,2.71,4.8,3.95,6.96,.77,1.27,1.86,2.59,1.63,3.72-.2,.88-1.42,1.3-2.36,1.86-1.15,.65-1.93,1.4-2.99,1.24-1.01-.15-1.63-1.76-2.33-2.99-1.47-2.51-2.45-4.2-3.88-6.58-.66-1.15-1.7-2.62-1.58-3.59,.09-.88,1.09-1.34,1.97-1.86,1.01-.6,1.67-1.21,2.61-1.36Z"/><path class="cls-1" d="M8.11,82.58c2.4,3.87,4.6,7.95,6.94,11.9-1.38,1.3-2.39,2.85-2.1,6.07,.28,3.01,1.72,6.23,3.6,8.94,1.81,2.59,4.55,5.04,7.33,5.08,.92,.02,1.67-.32,2.49-.61,2.27,4.06,4.57,8.07,6.94,12.02-1.76,.95-4.03,2.73-7.32,1.97-3.11-.66-6.37-3.85-8.69-6.19-4.6-4.58-8.79-11.71-11.54-18.1-1.48-3.48-2.91-7.38-3.22-11.54-.43-5.67,2.09-7.76,5.57-9.54Z"/><path class="cls-1" d="M31.83,109.23c1.46-.19,2.04,1.38,2.84,2.74,1.2,2.07,2.58,4.6,3.83,6.82,.77,1.34,1.9,2.39,1.75,3.6-.15,1.15-1.47,1.46-2.36,1.98-.98,.57-1.99,1.46-2.85,1.38-1.18-.14-1.67-1.81-2.34-2.99-1.32-2.3-2.65-4.45-3.99-6.69-.69-1.19-1.73-2.73-1.61-3.61,.14-.97,3.6-3.07,4.74-3.24Z"/></g></g></g></g></svg>