<svg id="圖層_1" data-name="圖層 1" xmlns="http://www.w3.org/2000/svg" viewBox="0 0 217.39 37.58"><defs><style>.cls-1{fill:#998572;}</style></defs><title>logo-color</title><polygon class="cls-1" points="0 1.34 0 37.58 5.74 37.58 5.74 6.53 34.74 6.53 34.74 32.67 19.96 32.67 31.75 20.85 31.75 13.47 7.72 37.58 40.01 37.58 40.01 1.34 0 1.34"/><path class="cls-1" d="M134.27,343.44c-4.51,2.39-7.1,3.18-13.14,4.05a17.25,17.25,0,0,0-3.34-4.21,44.23,44.23,0,0,0,9.34-1.34H126c-2.12,0-2.7,0-4,.08a28.72,28.72,0,0,0,.16-3.82v-5.93a33.49,33.49,0,0,0-.16-3.9c1.1.08,1.65.08,3.88.08h20.64c2.35,0,2.63,0,3.84-.08-.07.95-.11,2.28-.11,4.33v5.07a24.81,24.81,0,0,0,.15,4.25c-1.25-.08-1.8-.08-4-.08h-.86a49.15,49.15,0,0,0,9.3,1.14,18.41,18.41,0,0,0-3.38,4.37,40.47,40.47,0,0,1-6.79-1.38,35.06,35.06,0,0,1-6.78-2.56l3.18-1.57H131.05Zm12-23.13h5a14.94,14.94,0,0,0,2.71-.12V323a26.37,26.37,0,0,0-2.71-.07h-5v2.2H148v-.32c0-.35,0-.74-.08-1.14h4.91a6.17,6.17,0,0,0-.12,1.54V326a6.24,6.24,0,0,0,.12,1.62,23.91,23.91,0,0,0-2.79-.08H138.31a25.16,25.16,0,0,0-2.78.08,7.27,7.27,0,0,0,.11-1.62v-.78a10.94,10.94,0,0,0-.11-1.54h4.7a5.44,5.44,0,0,0-.11,1.14v.32h1.57V323h-4.4a21.73,21.73,0,0,0-2.55.07v-2.79a13.9,13.9,0,0,0,2.2.08,12.48,12.48,0,0,0-2.51-2,8,8,0,0,0,2.74-2.47H124v1h7.57c1,0,1.61,0,2.63-.08v2.91c-.63,0-1.25-.08-2.63-.08h-2v1h1.69a21.73,21.73,0,0,0,2.55-.07v2.75c-.63,0-1.18-.08-2.55-.08H129.6v1.1c1.61-.12,2.47-.16,4.91-.35v3c-5.14.55-6.87.7-13.19,1.1a16.56,16.56,0,0,0-2.23.23l-.63-3.89a15.25,15.25,0,0,0,2.51.16c1.06,0,1.88,0,3.73-.08v-1.3h-1.92c-1.22,0-1.81,0-2.4.08v-2.75a19.8,19.8,0,0,0,2.4.07h1.92v-1h-2a20.33,20.33,0,0,0-2.55.08v-1.45H118.3a16.74,16.74,0,0,0,.2-2.76v-1.06a18.79,18.79,0,0,0-.16-2.67c1.49.07,2.24.11,4.67.11h9.81a7.63,7.63,0,0,0-.16-1.88h6.55a9.86,9.86,0,0,0-.19,1.88h10.36c2.43,0,3.13,0,4.66-.11a19.81,19.81,0,0,0-.11,2.67v1.1a14.1,14.1,0,0,0,.15,2.72h-2.51v1.14a21.73,21.73,0,0,0-2.63-.08h-2.7ZM128,332.11h16.48v-.94H128Zm0,3.34h16.48v-1H128Zm0,3.35h16.48v-1H128Zm11.46-19.47a11.32,11.32,0,0,1-1,1h3.26v-1Zm8.87-2.44v-1h-6.75c-.16.43-.24.59-.43,1Z" transform="translate(-64.43 -310.01)"/><path class="cls-1" d="M178.09,343.12a35.41,35.41,0,0,0-4.08.24v-1.69c-1.85,1-1.88,1-4.71,2.32-.55.23-.9.43-1.57.78l-1.21-5.54c.66-.16.9-.24,1.53-.43V329h-1.18c-.08,6.06-.2,8-.71,10.66a20,20,0,0,1-2.7,7.32,25.85,25.85,0,0,0-4-4.41,14,14,0,0,0,2.44-7,49.25,49.25,0,0,0,.31-6.49,9.12,9.12,0,0,0-2.2.12V323.3a23.81,23.81,0,0,0,3.26.2h1.65v-9.17a29.92,29.92,0,0,0-.24-4h5.57a30.26,30.26,0,0,0-.23,3.93v6.53a44,44,0,0,0,1.41-8.14l2.75,1.18c0-1.22,0-1.93-.12-2.83a32,32,0,0,0,4,.16h14.48a28.36,28.36,0,0,0,3.92-.16,19.11,19.11,0,0,0-.16,2.91V317a15.88,15.88,0,0,0,.2,2.91h-1.89v2.2a26.32,26.32,0,0,0-3.41-.16h-3.57v1.22h4.47c1.34,0,2.2,0,3.3-.12a20.87,20.87,0,0,0-.16,3.07v7.43a26.41,26.41,0,0,0,.16,3.23c-1.69-.08-2.24-.08-3.3-.08h-4.47V338h5.18a33.36,33.36,0,0,0,4-.2v5.55a36.49,36.49,0,0,0-4.12-.24h-5.06v.32a27.05,27.05,0,0,0,.24,3.89h-5.85a27.45,27.45,0,0,0,.24-3.89v-.32Zm-15-30.52a64.19,64.19,0,0,1,1.77,8.65l-3.34,1.54a53.72,53.72,0,0,0-1.92-8.73Zm19.23,24.11H178c-1.8,0-2.24,0-3.22.08a31.13,31.13,0,0,0,.08-3.23v-7.19c0-1.62,0-2.4-.12-3.31,1,.08,1.81.12,3.26.12h4.28V322h-3.06c-1,0-2.47.08-3.61.16V320h-1.57c.08-1.18.12-1.81.12-2.56v-.67a51,51,0,0,1-1.53,5.9L170,321.25v2.25h1.21a18,18,0,0,0,2.87-.16v5.74a10.23,10.23,0,0,0-1.53-.12V337l1.92-.91.08,1.77c.94.08,2.08.12,3.57.12h4.16Zm-3-20.61v1.58h3c0-.59,0-.63,0-1.58Zm.59,10.78v1.34h2.4v-1.34Zm0,4.72V333h2.4V331.6Zm7.81-15.5c0,.75,0,1,0,1.58h3.22V316.1Zm0,12.12h2.51v-1.34h-2.51Zm0,4.79h2.51V331.6h-2.51Z" transform="translate(-64.43 -310.01)"/><path class="cls-1" d="M222.73,316.42h-3.84c-.91,0-2,0-2.75.11v-4.48a24.59,24.59,0,0,0,3.14.16h3.45a9.37,9.37,0,0,0-.2-2.2h6.09a7.78,7.78,0,0,0-.24,2.2h5.53a26.37,26.37,0,0,0,3.1-.16,15.15,15.15,0,0,0-.16,2.52v2.75a9.92,9.92,0,0,0,2.28-.2v5.43a19.44,19.44,0,0,0-2.28-.19v2.71a16.59,16.59,0,0,0,.16,2.48c-1.1-.08-1.73-.12-2.71-.12h-5.92v1.41h5.92c1.34,0,2.16,0,3.1-.11v4.4c-.86-.08-1.8-.12-3.1-.12h-5.92v1.42h6.9a23.65,23.65,0,0,0,3.34-.16V339c-1-.08-2-.12-3.34-.12h-6.9v2c5.65,0,7.41-.12,11.22-.43a22.93,22.93,0,0,0-1.29,6c-2.71,0-8.64.08-10.17.08-6.39,0-9.88-.27-12.35-1a15.78,15.78,0,0,1-5.73-3,25.38,25.38,0,0,1-4.75,4.92,18.27,18.27,0,0,0-3.73-5.31,22.73,22.73,0,0,0,4.48-4.33,40.61,40.61,0,0,1-3.73-6.05L207,329a23.48,23.48,0,0,0,1.76,4,19.62,19.62,0,0,0,1.14-4.83h-4a20.59,20.59,0,0,0-2.78.15v-5.15a34,34,0,0,0,5-6.33h-2.79a19.78,19.78,0,0,0-2.66.16v-5.67a21.23,21.23,0,0,0,2.86.16h4.9a14.63,14.63,0,0,0,2.79-.16l2.59,3.58c-.32.47-.63.95-1.85,2.87-.9,1.46-2.27,3.35-3.64,5.16h2.86a14.83,14.83,0,0,0,2.55-.08c-.08.94-.08,1.33-.16,2.2-.27,5.58-1,9.05-2.7,12.9,2.43,2,4.47,2.63,10,2.87v-2H218.1a30.88,30.88,0,0,0-3.25.12v-4.72a25.21,25.21,0,0,0,3.25.16h4.63V333H219a23.21,23.21,0,0,0-3,.16v-4.44c.94.08,1.77.11,3,.11h3.73v-1.41h-4a13.67,13.67,0,0,0-2.31.12v-4.33a21.61,21.61,0,0,0,2.66.12h3.69v-1.46h-5c-1.69,0-2,0-3.06.08v-4.25a15.15,15.15,0,0,0,3.33.16h4.75Zm8.59,1.45v-1.45h-2.94v1.45Zm-2.94,5.47h2.94v-1.46h-2.94Z" transform="translate(-64.43 -310.01)"/><path class="cls-1" d="M244.5,316.3a17.45,17.45,0,0,0,3.18.2h8.75a30.38,30.38,0,0,0,3.18-.12v5.23a18.47,18.47,0,0,0-3.1-.12h-8.83a22.93,22.93,0,0,0-3.18.16Zm15.42,9.83a14.44,14.44,0,0,0,2.47.16,30.72,30.72,0,0,0-3.49-2.75v3.65a17.26,17.26,0,0,0-2.28-.08h-8.51a18,18,0,0,0-2.35.08v-4.44a18.72,18.72,0,0,0,2.35.08h8.51a14.69,14.69,0,0,0,2.16-.08,6.63,6.63,0,0,0,2.12-2.56c.71-1.49,1.06-3.69,1.06-6.88a14.41,14.41,0,0,0-.16-2.32,24.75,24.75,0,0,0,3.1.16h7.3a27.18,27.18,0,0,0,3.25-.16c-.07.83-.11,1.65-.11,2.91v5.51c0,.39.15.47.78.47,1,0,1.06-.08,1.14-4.37a20.63,20.63,0,0,0,4.47,1.77c-.35,6.81-1,7.75-5.45,7.75-3.34,0-4.43-.12-5.26-.55s-1-.94-1-2.36v-5.55h-2.67c-.15,4.49-1.17,7.12-3.61,9.72h10.6a17.22,17.22,0,0,0,2.59-.12l2.74,2.67a19.77,19.77,0,0,0-.78,1.85,31.39,31.39,0,0,1-4.67,8.14,26,26,0,0,0,7.57,2.4,33.78,33.78,0,0,0-2.59,5.9,34.22,34.22,0,0,1-9.57-4.05,31.3,31.3,0,0,1-8.24,4.05,21.73,21.73,0,0,0-2.43-4.24v.74a17.53,17.53,0,0,0,.12,2.87h-5.38v-1.06H251v1.61H245.4c.12-1.33.2-2.63.2-3.89v-6.29a23,23,0,0,0-.16-2.95c.94.08,1.61.12,2.91.12h8.31a11.61,11.61,0,0,0,2.4-.12,21.52,21.52,0,0,0-.08,2.59v5a24.45,24.45,0,0,0,6-2.36,50,50,0,0,1-4.31-5.27l4.27-2.16h-1.76a25.59,25.59,0,0,0-3.22.15Zm-14.24-15.42a27.78,27.78,0,0,0,3.57.16h6.08a28,28,0,0,0,3.57-.16v4.61c-1.18-.08-1.88-.12-3.57-.12h-6.08c-1.57,0-2.51,0-3.57.12Zm.08,17.62a17.72,17.72,0,0,0,2.35.08h8.51a16,16,0,0,0,2.28-.08v4.45a18.21,18.21,0,0,0-2.35-.08H248a17,17,0,0,0-2.27.08Zm5.14,12.51h2.82v-2.56H250.9ZM266,331.68a22.31,22.31,0,0,0,3.37,4,16.4,16.4,0,0,0,2.79-4Z" transform="translate(-64.43 -310.01)"/></svg>