<svg xmlns="http://www.w3.org/2000/svg" viewBox="0 0 76.22 327.4"><defs><style>.cls-1{fill:#b6242d;}</style></defs><title>資產 21</title><g id="圖層_2" data-name="圖層 2"><g id="圖層_2-2" data-name="圖層 2"><path class="cls-1" d="M52.73,3.13c.25,0,.4.16.4.38s-.22.48-.61.74c-.15,1-.3,2-.42,2.87h2.33v-7l2.31.19c.42,0,.64.13.64.32a1.41,1.41,0,0,1-.46.73V7.12h2.82V9.61H56.92v6.07c.91-.25,1.79-.54,2.7-.83v2.62l-2.7.77v10.6H54.43V19l-3.91,1.12c-.31.7-.55,1-.73,1s-.33-.16-.43-.54l-1-2.72c2-.41,4.07-.89,6.07-1.47V9.61H51.64c-.3,1.5-.64,2.88-1,4.12l-2.52-1A28.79,28.79,0,0,0,49.3,8.69a61.55,61.55,0,0,0,1-6.29Zm13.78.64V0l2.4.22c.45.07.69.2.69.42s-.18.35-.48.61V3.77h6.52V6.26H69.12v3.86h5.79v2.5H61.17v-2.5h5.34V6.26h-6.4V3.77Zm3,12.2V13.35l2.82.38c.31.07.49.2.49.39s-.24.48-.7.73V16h3.67v2.52H72.09V25.2a3.44,3.44,0,0,1-1,2.72c-.55.6-1.91.92-4.1.92L65.9,26.09h2.28c.79,0,1.24-.44,1.3-1.37V18.49H60.35V16ZM67,23.22,65.33,25c-1.52-1.28-2.92-2.37-4.16-3.26l1.42-1.89C64.08,20.86,65.54,22,67,23.22Z"/><path class="cls-1" d="M74.09,33.7v2.74H61.71L60.65,44H72.3L71.24,56.66h4.28v2.87h-27V56.66H56l1.4-9.87H51.58V44H57.8l1.06-7.6H50V33.7Zm-5.67,23,.82-9.87h-9l-1.4,9.87Z"/><path class="cls-1" d="M59.59,68.76h4.1a19.36,19.36,0,0,0,2.7-4.88l2.61.64c.39.06.6.19.6.38s-.3.54-.85.73a21.14,21.14,0,0,1-1.7,3.13h8v2.5H63.72l-1,2.74h8.55V92.72H68.63V91.35H55.49v1.37H52.88V74h7l1-2.74H48.85v-2.5H56.4a28.89,28.89,0,0,0-2.33-3.51L56,63.65A32.7,32.7,0,0,1,59.59,68.76Zm9,10.22V76.49H55.49V79Zm0,5V81.35H55.49V84Zm0,4.88V86.36H55.49v2.49Z"/><path class="cls-1" d="M56,96.17c.48.06.73.19.73.41s-.18.42-.49.74v4.37H60.8v2.62H48.36v-2.62h5.1V95.94Zm3.64,10c.43.09.64.25.64.48s-.25.51-.73.76l-2.19,10.61c1.16-.23,2.34-.48,3.49-.77v2.49c-2.27.64-5.85,1.5-10.77,2.52-.21.39-.42.61-.6.61s-.34-.19-.37-.51l-.7-3c2.07-.22,4.13-.51,6.13-.86l2.76-12.87Zm-6,10.6-2.49.48a93.42,93.42,0,0,0-2.48-10.73l2.48-.48A66.82,66.82,0,0,1,53.58,116.8ZM68,96.17c.48.06.75.19.75.41s-.21.42-.57.74v4.37h7.46v2.62H68.18v5.75h6.73v14.6H72.18v-2H63.9v2H61.17v-14.6h4.16V95.94ZM72.18,120v-7.35H63.9V120Z"/><path class="cls-1" d="M60.59,141v-3l2.67.19c.49.06.76.19.76.42s-.21.44-.61.76V141H74.79v2.62H63.41v2.14h8.2V158H64.69a20.67,20.67,0,0,0,4.58,2.94,37.86,37.86,0,0,0,7,2.43l-2.82,2.74a28.47,28.47,0,0,1-5.83-3,21.19,21.19,0,0,1-4.16-3.48v6.58H60.59v-6.45a26.42,26.42,0,0,1-4.34,3.61,30.9,30.9,0,0,1-6,2.74l-2.36-2.52a37.65,37.65,0,0,0,7.37-2.87A22.08,22.08,0,0,0,59.17,158H52.64V145.77h8v-2.14H49.21V141Zm0,9.74v-2.49H55.37v2.49Zm0,2.36H55.37v2.4h5.22Zm2.82-2.36h5.47v-2.49H63.41Zm5.47,2.36H63.41v2.4h5.47Z"/><path class="cls-1" d="M54.77,182.56l-1.76,2a36.66,36.66,0,0,0-4.77-3.51l1.91-2A26.53,26.53,0,0,1,54.77,182.56Zm.6,7.38a76.63,76.63,0,0,1-4.28,7.86c0,.64-.21,1-.57,1l-2.28-2a57.63,57.63,0,0,0,5.46-9Zm.46-15.36-1.76,2a34,34,0,0,0-4.4-3.51l1.91-2A23.35,23.35,0,0,1,55.83,174.58Zm7.28-3.84c.36.07.55.2.55.36s-.28.44-.82.6c-.31.61-.61,1.18-.91,1.76H75V176H60.44a54.28,54.28,0,0,1-3.64,4.89l-2.37-1.28a30.07,30.07,0,0,0,6.16-9.45Zm10.62,7.7c0,2.68,0,5-.06,7h2.55v2.49H73.61c-.09,2.11-.18,3.67-.3,4.76h1.85v2.49H72.91A5.56,5.56,0,0,1,71.55,198c-.85.79-2.31,1.21-4.34,1.21L65.9,196.3c2.13,0,3.37-.23,3.79-.71a2,2,0,0,0,.31-.41H59a1.64,1.64,0,0,0-.06.25H56.31c.61-2.39,1.19-4.88,1.7-7.5H55.25v-2.49h3.22c.36-2.27.73-4.6,1-7Zm-6.92,14.25a34.76,34.76,0,0,0-4.09-2.75l1.66-1.76a23.66,23.66,0,0,1,4.25,3l-1.33,1.5h3.37c.12-.9.24-2.49.33-4.76H60.62c-.33,1.66-.67,3.26-1,4.76Zm.43-7.25a27.13,27.13,0,0,0-3.83-2.5l1.67-1.75a24.44,24.44,0,0,1,4,2.74l-1.34,1.51h3.28c0-1.35,0-2.85.06-4.51H61.78c-.25,1.57-.46,3.07-.7,4.51Z"/><path class="cls-1" d="M74.79,203.29V231H72.3v-1H51.91v1H49.43V203.29ZM72.3,227.47V205.78H51.91v21.69Zm-9.68-18.08c0-1,0-2,0-3.13l2.28.51c.3.06.46.19.46.38a1.16,1.16,0,0,1-.37.74c0,.51,0,1,0,1.5h3.55a16.06,16.06,0,0,0-2-2l1.55-1.5a17.27,17.27,0,0,1,2.36,2.23L69,209.39h2.21v2.24H65.08a35.45,35.45,0,0,0,.85,6.32,7.19,7.19,0,0,0,.34,1.05.1.1,0,0,1,0-.06,20,20,0,0,0,2-5.56l2.18.67c.25.1.4.19.4.32a.9.9,0,0,1-.46.64,20.22,20.22,0,0,1-2.82,6.45c-.06.1-.12.16-.15.23a4.73,4.73,0,0,0,.45.7c.37.51.7.73,1,.73s.63-.89,1.18-2.74L72,222.1c-1.15,2.94-2.15,4.38-3,4.38s-1.52-.58-2.52-1.73a9.85,9.85,0,0,1-.76-1.08,24.16,24.16,0,0,1-3.7,2.94L60.11,225a20,20,0,0,0,3.3-2.4,12.57,12.57,0,0,0,1.16-1.15,23.49,23.49,0,0,1-1.1-3.32,39.85,39.85,0,0,1-.75-6.48H53v-2.24Zm-.72,14c-1.58.38-4,.86-7.38,1.47-.18.35-.39.51-.57.51s-.28-.13-.28-.42l-.54-2.58a78.77,78.77,0,0,0,8.77-1.25Zm-.37-10v6.87h-7.7v-6.87Zm-2.24,2.11H56.07v2.62h3.22Z"/><path class="cls-1" d="M56.31,242.35c.25.13.37.22.37.35s-.18.45-.49.64a71.36,71.36,0,0,1-5.1,12l-3-1.5a45.16,45.16,0,0,0,5.46-12.75ZM64,234.72c.36,0,.55.16.55.38s-.25.54-.73.86v23.1a3.68,3.68,0,0,1-1.22,3c-.66.64-2.36,1-5.06,1l-1.19-3h2.95c1,0,1.57-.55,1.67-1.63V234.33Zm8.37,12.77a29,29,0,0,0,3.55,6.33l-3.09,1.5a43.89,43.89,0,0,1-2.94-6.23,41,41,0,0,1-2-7.38l2.61-.64A35.09,35.09,0,0,0,72.33,247.49Z"/><path class="cls-1" d="M12.56,6.26V0l2.67.22c.49.07.76.2.76.42s-.21.41-.61.73V6.26h9.38V20.47H21.91V18.59H15.38V28.84H12.56V18.59H6.16v1.88H3.31V6.26Zm0,9.58V9H6.16v6.83Zm2.82,0h6.53V9H15.38Z"/><path class="cls-1" d="M11,34.85a20.31,20.31,0,0,1-2.48.92v5.65h4.73V44H9.32a18,18,0,0,0,3.94,5.37l-2.12,2.36A27.31,27.31,0,0,1,8.53,47.3V60.78H5.92V48.39c-.28.86-.52,1.56-.76,2.14a34.71,34.71,0,0,1-2.67,5L.12,53.27a25.74,25.74,0,0,0,3.1-4.6A35.54,35.54,0,0,0,5,44H.7V41.42H5.92V36.51a30.71,30.71,0,0,1-3.19.67L.94,34.56a24,24,0,0,0,5.1-.8,23.13,23.13,0,0,0,4.73-1.69l1.94,2a.65.65,0,0,1,.19.48c0,.19-.13.25-.34.25l-.76-.16A2,2,0,0,0,11,34.85ZM24.4,32.29c.48.06.72.19.72.42s-.18.41-.48.73V49.28c1.06-.32,2.09-.67,3.09-1V51L24.64,52v8.82H21.91v-8l-6.86,2c-.3.67-.61,1-.85,1s-.3-.16-.42-.52l-1-2.84c3-.64,6.07-1.44,9.11-2.33v-18ZM19.66,46.53l-1.88,1.89a28.22,28.22,0,0,0-4-3.74l1.76-1.75A29.12,29.12,0,0,1,19.66,46.53Zm.73-7.85-1.91,1.88A24.88,24.88,0,0,0,14.2,37L16,35.2A29.05,29.05,0,0,1,20.39,38.68Z"/><path class="cls-1" d="M13.26,64.9V76.75h-9v16H1.52V64.9Zm-2.73,4.73V67.26H4.25v2.37Zm0,4.76V71.86H4.25v2.53ZM27,64.9V89.46a2.67,2.67,0,0,1-2.16,2.75,12.8,12.8,0,0,1-3.4.51l-1.06-2.88,2.73-.06a1.05,1.05,0,0,0,1.15-1.18V76.75H15.51V64.9H27Zm-2.74,4.85V67.26h-6v2.49Zm0,2.24h-6v2.4h6Z"/><path class="cls-1" d="M22.42,99.07c-4.52.67-9.71,1.28-15.56,1.79v2.81H25.25v12H22.39v-1.6H6.77c-.06.93-.09,1.73-.16,2.4A18.54,18.54,0,0,1,5,121.85a18,18,0,0,1-2.22,3.41L.21,123.41a19,19,0,0,0,1.64-2.07,11.93,11.93,0,0,0,1.52-3.52A36.81,36.81,0,0,0,4,109.93V97.7l1.88.64c3-.19,5.88-.42,8.64-.74a72.15,72.15,0,0,0,9.17-1.66l1.94,2.18a1,1,0,0,1,.3.7c0,.19-.09.25-.24.25l-.82-.22C24.34,98.85,23.52,99,22.42,99.07Zm0,12.36v-5.11H6.86v5.11Z"/><path class="cls-1" d="M7.46,154.87a83.19,83.19,0,0,1-4.4,7.86c0,.67-.21,1-.57,1l-2.28-2a55.55,55.55,0,0,0,5.59-9Zm-.85-9.1-1.88,2.11a33.44,33.44,0,0,0-4-4.35l2-2A25.89,25.89,0,0,1,6.61,145.77Zm10.26,6.45c.27.13.43.29.43.42s-.19.31-.49.35c-.45.7-.91,1.37-1.4,2h7a4,4,0,0,1,.76-.51,1,1,0,0,1,.61.32l1.4,1.37a.84.84,0,0,1,.27.58c0,.19-.3.44-.85.73a18.7,18.7,0,0,1-4.13,5,51.76,51.76,0,0,0,7.56,2.24l-2.25,2.49a49.68,49.68,0,0,1-7.92-3,37.78,37.78,0,0,1-10.1,3L6,164.74a61.82,61.82,0,0,0,6.16-1.09,19.24,19.24,0,0,0,3.06-1s-.06,0-.06,0A9.27,9.27,0,0,1,12,158.93a32.6,32.6,0,0,1-3.19,2.68l-1.91-2.24a21.37,21.37,0,0,0,7.83-8Zm-1.12-11.31v-2.65l2.7.23c.48.06.73.19.73.41s-.22.42-.58.74v1.27h6.65v2.37H18.6v2.62h9v2.36h-6V150c0,.92.28,1.37.82,1.37h2.25a.56.56,0,0,0,.51-.32,4.83,4.83,0,0,0,.34-1.69l2.58.76a4.93,4.93,0,0,1-1,2.78,2.5,2.5,0,0,1-1.82.71H21.91c-2,0-2.95-.74-2.95-2.24v-3.13H14.78a9.42,9.42,0,0,1-.76,2.52A7,7,0,0,1,12.14,153a9.89,9.89,0,0,1-3,1.6l-2.49-2.11a10.46,10.46,0,0,0,3.07-1.12,5.24,5.24,0,0,0,1.76-1.6,4.32,4.32,0,0,0,.67-1.53h-5V145.9h8.65v-2.62H9v-2.37Zm1.76,20.22a1,1,0,0,0,.3.16.51.51,0,0,0,.18-.13,12.83,12.83,0,0,0,3.49-3.93H13.84A7.66,7.66,0,0,0,17.51,161.13Z"/><path class="cls-1" d="M15.17,170.68c.46.06.7.19.7.42s-.18.41-.49.73v2.36H27.25v9.62H24.52v-7.09H17.66v3.48c0,.83.3,1.24.94,1.24h1.67a1.06,1.06,0,0,0,.88-.35,5.33,5.33,0,0,0,.55-2l2.57.73a5.63,5.63,0,0,1-1.15,3.2,2.92,2.92,0,0,1-2.15.8H18c-2,0-2.94-.74-2.94-2.24v-4.85H3.79v7.09H1.06v-9.62H12.68v-3.73Zm8.29,15.62v2.62h-8v6.13H27.25v2.75H1.06v-2.75H12.68v-6.13H5V186.3Zm-11.14-7.83c.3.13.48.29.48.48s-.24.35-.72.51c-.85,1.09-1.64,2-2.43,2.91a20.27,20.27,0,0,1-3.13,2.56l-2.15-2a13.28,13.28,0,0,0,3.19-2.26,20.75,20.75,0,0,0,2.64-3.1Z"/><path class="cls-1" d="M10.68,212.39c.3.1.46.23.46.39a.57.57,0,0,1-.25.35c-.36.12-1.06,1-2,2.52-.12.19-.24.35-.33.48v14.72H5.8V219.67c-.91,1-1.86,2-2.86,2.94l-2.48-1.5a32.4,32.4,0,0,0,8-9.61Zm-2.4-6.74V202.4l2.4.22c.46.06.7.19.7.41s-.18.36-.49.61v2h6.65V202.4l2.49.22c.45.06.69.19.69.41a1.39,1.39,0,0,1-.45.74v1.88h7.34v2.62H20.27V211H17.54v-2.75H10.89V211H8.28v-2.75H.58v-2.62Zm17.48,11.5a.8.8,0,0,1,.18.48c0,.19-.27.26-.82.26-2.91,1.43-6,2.84-9.13,4.18v3.42a4,4,0,0,0,.4,2c.24.38.75.58,1.6.58h4.4a2.11,2.11,0,0,0,1.58-.58c.37-.35.67-1.4.91-3.16l2.61,1.25A10.15,10.15,0,0,1,26,229.86a2.37,2.37,0,0,1-1.85.87H16.93a3.49,3.49,0,0,1-2.82-1.22,5.33,5.33,0,0,1-.85-3.29V211.63l3.22.41c.36.06.57.22.57.48a1.39,1.39,0,0,1-.57.89A1.19,1.19,0,0,0,16,214.5v4.86A66.42,66.42,0,0,0,23.82,215Z"/><path class="cls-1" d="M26.88,235.23v27.69H24.4V262H3.91v.89H1.43V235.23Zm-2.48,24.3V237.72H3.91v21.81ZM21,246v5.24H16.05A10.41,10.41,0,0,0,18,253.66a26.08,26.08,0,0,0,3.13-2.11l1.52,1.63a.68.68,0,0,1,.15.38c0,.19-.25.26-.73.26L19.72,255a28.2,28.2,0,0,0,4.22,2l-2.37,2a17.49,17.49,0,0,1-5.18-3.8,13.46,13.46,0,0,1-2.31-3.93H13.5a17.83,17.83,0,0,1-1.42,1.37v3.55c1.45-.26,2.76-.51,3.91-.8l.24,2c-2.55.7-4.82,1.24-6.88,1.63-.16.25-.28.38-.34.38s-.27-.13-.39-.38l-1.16-2.14c.85-.1,1.64-.19,2.37-.32v-2.24a15.42,15.42,0,0,1-3.55,1.57l-1.91-2a24.7,24.7,0,0,0,4.76-1.73,9.54,9.54,0,0,0,1.58-.89H7.34V246ZM12.8,239.7v-1.5l2.31.19c.43,0,.64.13.64.32a1.34,1.34,0,0,1-.46.73v.26h6.28v2H15.29v1.12H23v2.11H5.1v-2.11h7.7v-1.12H6.61v-2Zm5.8,8.24H9.71v1.25H18.6Z"/><path class="cls-1" d="M27.61,290.48v2.88H.58v-2.88Zm-1.42-21.94v2.75H2.37v-2.75ZM24.4,279v2.74H4.13V279Z"/><path class="cls-1" d="M23.33,300.7A97,97,0,0,1,6.16,302v1.28H25.49v7.09H6.16c0,1.08,0,2-.06,2.87h8.1v-2.62l2.49.23c.48,0,.73.16.73.41s-.18.42-.49.74v1.24H27.61v2.49H13.75c-.13.83-.25,1.63-.4,2.37H25.58a33.54,33.54,0,0,1-.64,5.81,4,4,0,0,1-1.73,2.62,12.3,12.3,0,0,1-4.49.92l-1.42-2.62,2.91-.25a2.46,2.46,0,0,0,2.27-1.34,12,12,0,0,0,.43-2.62H12.65a15.4,15.4,0,0,1-1,2.23,13.46,13.46,0,0,1-4.34,4.6l-2.49-1.85a12.67,12.67,0,0,0,4.25-4A15.6,15.6,0,0,0,11,315.68H6c0,.32-.06.61-.06.86a23.78,23.78,0,0,1-1.43,6,23.22,23.22,0,0,1-2,3.77L0,324.56a20.79,20.79,0,0,0,1.46-2.33,18.57,18.57,0,0,0,1.39-4,52.62,52.62,0,0,0,.58-8.91V298.85l1.67.61H7.34a80.93,80.93,0,0,0,17.3-1.73l2.06,2.17a.73.73,0,0,1,.18.58c0,.16-.06.22-.12.22a1.47,1.47,0,0,1-.66-.13,5.81,5.81,0,0,0-.73-.09A17.48,17.48,0,0,0,23.33,300.7Zm-.57,7.13v-2.11H6.16v2.11Z"/></g></g></svg>