<svg xmlns="http://www.w3.org/2000/svg" viewBox="0 0 216.83 547.5"><defs><style>.cls-1{fill:#231815;}</style></defs><title>資產 20</title><g id="圖層_2" data-name="圖層 2"><g id="圖層_2-2" data-name="圖層 2"><path class="cls-1" d="M212.34,2.15a55.3,55.3,0,0,1-7.27,1.06h0a.48.48,0,0,0,0,.26c-.16.58-.32,1.14-.48,1.67h10.25c.21,0,.31.17.31.45v.87c0,.3-.1.44-.31.44H203.87c-.21.53-.4,1-.61,1.48-.13.28-.24.51-.34.7h12.87c.21,0,.32.14.32.42v.9c0,.28-.11.42-.32.42H201.93a21.34,21.34,0,0,1-1.43,2h11.87c.26,0,.42.11.42.31V25.24c0,.22-.16.33-.42.33h-1c-.29,0-.42-.11-.42-.33V24.9H200v.23c0,.22-.13.33-.4.33h-1c-.29,0-.43-.11-.43-.33v-9.7a20.82,20.82,0,0,1-3.5,2.76,2.47,2.47,0,0,1-1,.4.66.66,0,0,1-.58-.26c-.37-.27-.74-.5-1.06-.72a.32.32,0,0,1-.22-.34c0-.08.08-.16.27-.25a16.86,16.86,0,0,0,3.74-2.21,20,20,0,0,0,3.75-4h-7c-.21,0-.32-.14-.32-.42V9.5c0-.28.11-.42.32-.42h8.2a20.17,20.17,0,0,0,1.12-2.18h-8.07c-.21,0-.32-.14-.32-.44V5.59c0-.28.11-.45.32-.45h8.76a9.45,9.45,0,0,0,.5-1.79c-2.54.17-5.12.26-7.72.26-.32,0-.51-.09-.59-.31a3.58,3.58,0,0,0-.34-1.12.69.69,0,0,1-.11-.42c4.15,0,7.38-.11,9.75-.33A41.85,41.85,0,0,0,211.65.25a2.6,2.6,0,0,1,.72-.14.65.65,0,0,1,.34.2c1,.86,1.44,1.42,1.44,1.67s-.11.42-.32.42l-.75-.3A5.17,5.17,0,0,0,212.34,2.15Zm-1.43,14.14V14.42H200v1.87Zm0,3.58V17.92H200v1.95Zm0,3.41V21.52H200v1.76Z"/><path class="cls-1" d="M211.54,28.62c.27,0,.4.11.4.33V45.33c0,.22-.13.31-.4.31h-1c-.29,0-.43-.09-.43-.31V44h-2.49V49.8c0,.81.48,1.2,1.46,1.2h2.89c1,0,1.67-.14,1.89-.41a7.86,7.86,0,0,0,.93-2.66,2.83,2.83,0,0,0,1.08,1c.24.12.38.23.38.4a8.47,8.47,0,0,1-1.2,2.9,2,2,0,0,1-1.72.59h-4.46c-2.08,0-3.11-.67-3.11-2V44h-2.84a12.53,12.53,0,0,1-.56,2.9A9.71,9.71,0,0,1,201,49.8a7.36,7.36,0,0,1-1.75,1.57,15.39,15.39,0,0,1-2.82,1.17,11.5,11.5,0,0,1-3,.53.38.38,0,0,1-.37-.33c-.18-.45-.37-.87-.55-1.26a.45.45,0,0,1-.22-.36l.85.11c.56-.06,1.25-.2,2-.37a9.54,9.54,0,0,0,2.28-.78,5.75,5.75,0,0,0,1.78-1.26,6,6,0,0,0,1.19-2.09A10.63,10.63,0,0,0,201,44h-2.52v1.31c0,.22-.16.31-.42.31h-1c-.29,0-.42-.09-.42-.31V29c0-.22.13-.33.42-.33Zm-1.46,4.47V30.27h-11.6v2.82Zm0,4.58V34.85h-11.6v2.82Zm0,4.59V39.43h-11.6v2.83Z"/><path class="cls-1" d="M205.62,56.12c0,.25-.1.39-.26.42s-.24.22-.24.55v1.43h10.46c.21,0,.32.17.32.45v.86c0,.31-.11.45-.32.45h-6.13l1.64.95c.16.14.24.25.24.36s-.11.2-.26.2-.43.11-.48.25a13.26,13.26,0,0,1-1.12,2h6.11c.26,0,.42.11.42.34v3.83c0,.22-.16.33-.42.33h-1q-.39,0-.39-.33V65.84h-20v2.41c0,.22-.16.33-.43.33h-1c-.29,0-.43-.11-.43-.33V64.53a.4.4,0,0,1,.43-.45h6.71a4.13,4.13,0,0,1-.26-.56,15.41,15.41,0,0,0-1.57-2.37c0-.11.4-.42,1.22-.87h-5.89c-.21,0-.32-.14-.32-.45V59c0-.28.11-.45.32-.45h10.35v-2.4c0-.2.14-.31.43-.31C205,55.81,205.62,55.92,205.62,56.12Zm-.21,11c0,.25-.08.39-.24.39s-.26.25-.26.58v1h9.63c.22,0,.32.17.32.45v.87c0,.3-.1.44-.32.44H201.67c-.06,1-.14,1.82-.24,2.49h10.22c.19,0,.29.17.29.45a22.84,22.84,0,0,1-.4,4.36,5.78,5.78,0,0,1-1.09,2.35c-.42.56-1.59.83-3.47.83-1.3,0-2-.19-2-.53a4.29,4.29,0,0,0-.77-1.45v-.2q1.51.09,2.79.09a2.84,2.84,0,0,0,2-.5,3.28,3.28,0,0,0,.82-1.6,9.93,9.93,0,0,0,.4-2h-9.13a9.87,9.87,0,0,1-1.65,3.19,9.09,9.09,0,0,1-2.28,1.79A14.37,14.37,0,0,1,194,81.47c-.53-.56-1-1.09-1.35-1.54A12.58,12.58,0,0,0,195,79a9.77,9.77,0,0,0,2.45-1.64,7.89,7.89,0,0,0,1.67-2.88,15.53,15.53,0,0,0,.58-3.64h-5.89c-.21,0-.32-.14-.32-.44v-.87c0-.28.11-.45.32-.45h9.24v-2c0-.23.13-.34.4-.34C204.75,66.82,205.41,66.93,205.41,67.16Zm1.81-3.08a11.42,11.42,0,0,0,.93-1.56,23.23,23.23,0,0,0,.84-2.18l.06-.06h-10c.61.87,1.11,1.65,1.51,2.32.26.5.5,1,.72,1.48Z"/><path class="cls-1" d="M206.26,84.17c0,.17-.13.31-.37.42a1.07,1.07,0,0,0-.59,1c-.05,1.37-.1,2.63-.15,3.75a25,25,0,0,0,.47,4.8A24.21,24.21,0,0,0,207,98.51a16.21,16.21,0,0,0,1.94,3.27,13.49,13.49,0,0,0,3.05,3.11,14.06,14.06,0,0,0,4.3,2.31.52.52,0,0,1-.26.42c-.35.4-.67.79-1,1.18-.18.17-.29.28-.34.28a22.79,22.79,0,0,1-4.33-2.71,11.43,11.43,0,0,1-2.87-3.13,17.87,17.87,0,0,1-2.18-3.67,17.56,17.56,0,0,1-1.22-3.41c-.08.28-.16.56-.21.82a24,24,0,0,1-1.38,3.74,14.76,14.76,0,0,1-2.39,3.77,18.51,18.51,0,0,1-2.47,2.18,15.42,15.42,0,0,1-4.11,2.41c-.16,0-.27-.11-.37-.28a9,9,0,0,0-1-1.09c-.16-.17-.21-.25-.21-.28s.05-.17.19-.17a18.63,18.63,0,0,0,3.39-1.76,13,13,0,0,0,2.74-2.24,12.51,12.51,0,0,0,2.36-3.32,18.67,18.67,0,0,0,1.49-3.83,16.85,16.85,0,0,0,.69-3.83,55.62,55.62,0,0,0,.34-7.13,8.3,8.3,0,0,0-.1-1.2c0-.11.05-.19.21-.19A10.06,10.06,0,0,1,206.26,84.17Z"/><path class="cls-1" d="M197.84,132.38c.14.17.22.28.22.37a.14.14,0,0,1-.16.14.67.67,0,0,0-.4.19,15,15,0,0,1-1.43,1.88,16.49,16.49,0,0,1-2.26,1.95.44.44,0,0,1-.43-.22c-.37-.31-.69-.56-.92-.78-.16-.06-.22-.14-.22-.2a.14.14,0,0,1,.11-.14,4.7,4.7,0,0,0,1.06-.67,9.75,9.75,0,0,0,1.59-1.62c.38-.5.8-1.12,1.28-1.87,0-.12.08-.17.13-.17Zm2.08-19.7c0,.17-.06.25-.16.25-.3,0-.48.11-.56.28l-.72,1.31h16.06c.22,0,.32.17.32.45v.87c0,.31-.1.45-.32.45h-2.17v5.11h3.31c.22,0,.32.17.32.45v.86c0,.31-.1.45-.32.45h-3.31v5.34H215c.18,0,.29.17.29.45v.86c0,.31-.11.45-.29.45H193.6c-.22,0-.32-.14-.32-.45V129c0-.28.1-.45.32-.45h2.7v-5.34h-3.63c-.21,0-.32-.14-.32-.45v-.86c0-.28.11-.45.32-.45h3.63v-3.88c-.53.55-1.27,1.28-2.28,2.15a.62.62,0,0,1-.5-.25c-.27-.2-.51-.42-.77-.65a.34.34,0,0,1-.19-.3c.61-.56,1.22-1.12,1.86-1.74a13.35,13.35,0,0,0,2.1-2.62,12.13,12.13,0,0,0,1.22-2.52c0-.14,0-.22.1-.22C199.23,112.09,199.92,112.54,199.92,112.68Zm1,3.61h-2.79v5.11H201Zm0,12.21v-5.34h-2.79v5.34Zm1.14,3a43.09,43.09,0,0,1,2.1,4.25c0,.25-.08.39-.19.45a3,3,0,0,1-1.48.64c-.67-1.84-1.28-3.35-1.86-4.58,0-.2.37-.48,1.14-.87A.38.38,0,0,1,202.09,131.46Zm3.64-15.17h-2.89v5.11h2.89Zm0,12.21v-5.34h-2.89v5.34Zm1.57,3a45,45,0,0,1,2.57,4.36c0,.25-.05.39-.16.42a3,3,0,0,1-1.49.67,44.67,44.67,0,0,0-2.38-4.69c0-.2.37-.48,1.14-.87A.48.48,0,0,1,207.3,131.46Zm3.21-15.17h-2.92v5.11h2.92Zm0,12.21v-5.34h-2.92v5.34Zm3.93,4.81c.74.81,1.35,1.51,1.88,2.18a.83.83,0,0,1-.13.22c-.53.78-.8,1.2-.82,1.2a25.33,25.33,0,0,0-2.53-2.79,12.57,12.57,0,0,0-1.83-1.46,5.19,5.19,0,0,1,.83-1.23c.08-.11.15-.19.21-.19C213,132,213.8,132.69,214.44,133.31Z"/><path class="cls-1" d="M197.92,153c.43,1,.67,1.57.67,1.62a.61.61,0,0,1-.16.42c-.9,2.26-1.75,4.19-2.55,5.76-.42.89-1,1.87-1.59,2.93a2.64,2.64,0,0,0-.16,1c0,.22-.08.33-.21.33s-.72-.58-1.7-1.76A.4.4,0,0,1,192,163a.62.62,0,0,1,.13-.42,12.19,12.19,0,0,0,1.62-2.12,38.92,38.92,0,0,0,2.18-4c.61-1.28,1.14-2.46,1.59-3.52.06-.17.14-.25.19-.25S197.87,152.81,197.92,153Zm-2-5c.85.56,1.56,1,2.15,1.46,0,0-.06.11-.14.22l-.79,1.2a26.13,26.13,0,0,0-2.9-1.87c-.85-.45-1.54-.75-2.09-1a5.65,5.65,0,0,1,.82-1.23c.08-.11.16-.16.21-.16C194.29,147.14,195.19,147.59,195.91,148Zm1.24-6.2c.8.56,1.46,1.09,2,1.54a.59.59,0,0,1-.13.25l-.8,1.17a28.26,28.26,0,0,0-2.79-2,16.13,16.13,0,0,0-2-1,4.9,4.9,0,0,1,.82-1.23c.08-.12.16-.2.22-.2C195.59,140.85,196.46,141.35,197.15,141.8Zm9.48,11.57c1.38.73,2.1,1.18,2.1,1.34s-.11.2-.29.2-.53.14-.61.33c-1,1.51-2.29,3.64-4,6.35,2.5-.23,5.53-.53,9-1a28.59,28.59,0,0,0-2.36-4.16c0-.12.5-.45,1.54-1a43.64,43.64,0,0,1,2.68,4.8,27.41,27.41,0,0,1,1.67,4.25,6.41,6.41,0,0,1-1.86.67,15.28,15.28,0,0,0-1-3q-9.67,1.63-12.58,2a.41.41,0,0,0-.43.33c-.08.28-.21.45-.42.45s-.56-1-.93-3.07c.74,0,1.62-.06,2.6-.14,1.41-2.44,2.31-4.06,2.71-4.84a29.32,29.32,0,0,0,1.41-3.41.34.34,0,0,1,.34-.22A1.07,1.07,0,0,1,206.63,153.37Zm.24-8.83V140c0-.2.13-.31.43-.31,1.3,0,2,.11,2,.31s-.11.39-.27.41-.26.23-.26.56v3.61h6.45c.19,0,.29.17.29.45v.86c0,.31-.1.45-.29.45h-6.45v5h7.17c.21,0,.32.14.32.42v.87c0,.3-.11.44-.32.44h-16c-.22,0-.3-.14-.3-.44v-.87c0-.28.08-.42.3-.42h7v-5h-6c-.21,0-.32-.14-.32-.45V145c0-.28.11-.45.32-.45Z"/><path class="cls-1" d="M206.05,176.2c0,.25-.11.39-.27.42s-.26.23-.26.56v5.48h6.24c.18,0,.29.14.29.42V184c0,.28-.11.42-.29.42h-6.24v5.9h10.06c.21,0,.32.17.32.45v.86c0,.28-.11.45-.32.45H192.77c-.21,0-.31-.17-.31-.45v-.86c0-.28.1-.45.31-.45h3.72v-9.62c0-.19.13-.3.43-.3,1.3,0,2,.11,2,.3s-.08.4-.24.42-.26.23-.26.56v8.64h5.17V176.2c0-.22.14-.33.43-.33Q206.05,175.87,206.05,176.2Zm.13-7.46c.16.14.27.25.27.36,0,.31-.19.45-.51.45a1.81,1.81,0,0,0-.58.11,23.92,23.92,0,0,0,2.15,3.19,15.73,15.73,0,0,0,2.94,2.79,16.21,16.21,0,0,0,4.89,2.74c.21.06.34.11.34.23a.51.51,0,0,1-.15.36,14.71,14.71,0,0,0-1.12,1c-.11.17-.21.26-.26.26a15,15,0,0,1-3.64-2,16.22,16.22,0,0,1-3.72-3.3A30.3,30.3,0,0,1,204,171.2a27.75,27.75,0,0,1-2,2.38,22.76,22.76,0,0,1-2.44,2.51,36.44,36.44,0,0,1-2.92,2.38,16.87,16.87,0,0,1-2.37,1.45.49.49,0,0,1-.45-.28,6.54,6.54,0,0,0-.87-1.15c-.22-.11-.32-.22-.32-.33s.05-.08.16-.14a23.78,23.78,0,0,0,3.4-1.82,25.52,25.52,0,0,0,3.74-3.1,15.81,15.81,0,0,0,2-2.38,16.89,16.89,0,0,0,1.62-2.71c.16-.22.32-.33.45-.33Z"/><path class="cls-1" d="M195.16,198.36c-.21,0-.32-.14-.32-.42v-.89c0-.28.11-.42.32-.42h16.28a.82.82,0,0,1,.48.11c.37.34.55.59.55.76l-3.42,7.1h5a.61.61,0,0,1,.42.16,3.56,3.56,0,0,1,.51.93,33.2,33.2,0,0,1-1.81,4.78,20.56,20.56,0,0,1-2.09,3.49,11.93,11.93,0,0,1-1.68,1.82c.3.19.59.36.91.53a21.68,21.68,0,0,0,5.76,2.15c.16.06.26.14.26.22a.61.61,0,0,1-.26.42,9.56,9.56,0,0,0-.91,1.09c-.08.23-.21.34-.39.34a6.91,6.91,0,0,1-1.52-.65,26.85,26.85,0,0,1-5.36-2.85,18.23,18.23,0,0,1-3.5,2,18.43,18.43,0,0,1-3.83,1.35.53.53,0,0,1-.5-.26c-.21-.3-.4-.61-.61-.89a.42.42,0,0,1-.14-.28c0-.11.06-.2.22-.22.95-.23,1.93-.51,2.89-.84a16.47,16.47,0,0,0,4-2,.56.56,0,0,1-.14-.09,14.21,14.21,0,0,1-3.37-3.77,21.21,21.21,0,0,1-2.44-4.67,29.61,29.61,0,0,1-1.67,6.26,13,13,0,0,1-2.31,3.55,13.12,13.12,0,0,1-3.16,2.68c-.48-.53-.9-1-1.25-1.42a10.16,10.16,0,0,0,2.39-1.93,15.39,15.39,0,0,0,2.5-3.55,26.2,26.2,0,0,0,1.67-6.15,68.45,68.45,0,0,0,.61-8.47ZM207,204.6l3.11-6.24h-9.08c-.08,2.52-.19,4.62-.3,6.24Zm-3.82,5a13.29,13.29,0,0,0,2.28,3.1,15.59,15.59,0,0,0,2.36,2,17.64,17.64,0,0,0,2-2.09,16.23,16.23,0,0,0,1.92-3.41,25.11,25.11,0,0,0,1.06-2.88H201.59A17.17,17.17,0,0,0,203.21,209.57Z"/><path class="cls-1" d="M199.89,224.07a.39.39,0,0,1,.34.4.34.34,0,0,1-.39.39.51.51,0,0,0-.32.36c-.53,1.26-1,2.35-1.54,3.27h4.11c.27,0,.43.11.43.34v18.55c0,.23-.16.34-.43.34h-1c-.27,0-.4-.11-.4-.34V246h-5.6v2.18c0,.22-.16.33-.43.33h-1c-.3,0-.43-.11-.43-.33v-19.2c0-.28.13-.45.43-.45H196q1-1.89,2.07-4.58a.32.32,0,0,1,.32-.23Zm.77,12.19v-6h-5.6v6Zm0,8V238h-5.6v6.24Zm9.13-20c.19.16.29.28.29.39a.3.3,0,0,1-.21.3.4.4,0,0,0-.4.34c-.4,1.23-.74,2.21-1.06,3H215a.47.47,0,0,1,.5.53c0,6.38-.1,10.76-.32,13.2a15.69,15.69,0,0,1-1,4.66,2.73,2.73,0,0,1-1.43,1.54,7.85,7.85,0,0,1-3,.48c-1.11,0-1.69-.2-1.69-.56a8.26,8.26,0,0,0-.38-1.4c0-.17,0-.22.11-.22l.21,0a11.74,11.74,0,0,0,1.36.09,4.34,4.34,0,0,0,2.65-.59c.53-.42.9-1.59,1.12-3.52a112.79,112.79,0,0,0,.47-12.49h-6a18,18,0,0,1-.9,1.64,15.77,15.77,0,0,1-1.59,2,2,2,0,0,1-.59-.08l-1-.42c-.14-.06-.19-.09-.19-.14a.27.27,0,0,1,.11-.25,14.05,14.05,0,0,0,2.33-3.22,16.88,16.88,0,0,0,1.06-2.35,27.58,27.58,0,0,0,1-3.38c0-.11.13-.19.21-.19ZM207.51,235a46.78,46.78,0,0,1,2.68,5.45c0,.28-.05.42-.16.44a2.91,2.91,0,0,1-1.49.65c-.9-2.32-1.72-4.25-2.49-5.79,0-.19.37-.47,1.14-.87A.42.42,0,0,1,207.51,235Z"/><path class="cls-1" d="M205.84,251.85c0,.25-.11.39-.27.42s-.27.23-.27.56v1.54h10.38c.22,0,.32.17.32.45v.86c0,.31-.1.45-.32.45h-23c-.21,0-.32-.14-.32-.45v-.86c0-.28.11-.45.32-.45h10.78v-2.52c0-.22.13-.33.42-.33C205.17,251.52,205.84,251.63,205.84,251.85Zm8.31,13.22c.31,0,.5.14.5.42v10.23c0,.42-.32.76-.93,1a12,12,0,0,1-2.28.39c-.22,0-.32-.11-.35-.33a5.32,5.32,0,0,0-.58-1.77c0-.05.05-.05.16-.05a6.87,6.87,0,0,0,1.8-.14.42.42,0,0,0,.32-.42v-7.57H195.46v9.72c0,.23-.14.34-.4.34h-1c-.29,0-.42-.11-.42-.34v-11a.37.37,0,0,1,.42-.42Zm-3.24-7.32c.26,0,.42.11.42.34v5.11c0,.22-.16.34-.42.34H197.34c-.29,0-.42-.12-.42-.34v-5.11c0-.23.13-.34.42-.34Zm-1.22,10.93c.26,0,.39.11.39.31v4.91c0,.23-.13.34-.39.34h-10.6c-.29,0-.42-.11-.42-.34V269c0-.2.13-.31.42-.31Zm-.22-9.17h-10.7v2.29h10.7Zm-1.25,10.79h-7.67v2.29h7.67Z"/><path class="cls-1" d="M207.51,279.8c0,.25-.11.39-.27.42s-.26.22-.26.56V282h8.7c.22,0,.32.17.32.45v.86c0,.31-.1.45-.32.45H196.2v7a42.3,42.3,0,0,1-.51,7.21,17.86,17.86,0,0,1-1.24,4.41,10.67,10.67,0,0,1-1.36,2.58.63.63,0,0,1-.29-.06,4.76,4.76,0,0,0-1-.78.59.59,0,0,1-.1-.37,12.71,12.71,0,0,0,1.41-3.07,29.79,29.79,0,0,0,.9-4.25,56,56,0,0,0,.26-5.67v-8.3a.4.4,0,0,1,.43-.45h10.38V279.8c0-.22.13-.34.4-.34C206.84,279.46,207.51,279.58,207.51,279.8Zm5,15.06a.91.91,0,0,1,.48.14c.37.39.56.65.56.76a16.71,16.71,0,0,1-1.91,2.93,12.46,12.46,0,0,1-2.21,2.21c-.21.17-.45.34-.69.5a13.94,13.94,0,0,0,2.05.62,41.79,41.79,0,0,0,4.8.92c.21,0,.35.06.35.11a.5.5,0,0,1-.14.34,9.61,9.61,0,0,0-1.08,1.12c-.16.19-.27.3-.35.3a2.64,2.64,0,0,1-.61-.16c-.93-.17-1.94-.4-3.05-.67-1.33-.4-2.55-.79-3.67-1.23-.16-.09-.29-.14-.42-.2a.07.07,0,0,0-.05,0,28.26,28.26,0,0,1-4.23,1.51c-1,.28-2.38.56-4,.84a.65.65,0,0,1-.56-.28c-.21-.34-.42-.65-.64-1a.54.54,0,0,1-.15-.28c0-.09.05-.14.21-.14,1-.14,2-.31,3.05-.5a24.35,24.35,0,0,0,4.41-1.29,3.18,3.18,0,0,1-.59-.39,6.85,6.85,0,0,1-2.09-2,9,9,0,0,1-1.62-2.55h-1.7c-.21,0-.32-.14-.32-.44v-.87a.3.3,0,0,1,.32-.34ZM201.27,287v-1.73c0-.23.13-.34.42-.34,1.3,0,2,.11,2,.34s-.11.39-.27.39-.26.25-.26.59V287h6.13v-1.73c0-.23.13-.34.43-.34,1.3,0,2,.11,2,.34s-.11.39-.27.39-.26.25-.26.59V287h4.46c.13,0,.21.11.21.34v.86c0,.31-.08.45-.21.45h-4.46v3.69c0,.31-.13.45-.4.45h-9c-.29,0-.42-.14-.42-.45v-3.69h-3.93c-.16,0-.21-.14-.21-.45v-.86c0-.23.05-.34.21-.34ZM203,297.6a7,7,0,0,0,2,1.9,7.94,7.94,0,0,0,1.62,1,12.57,12.57,0,0,0,1.43-.86,8.93,8.93,0,0,0,2-2.05,5,5,0,0,0,.74-1.06H202.3A4.51,4.51,0,0,0,203,297.6Zm6.27-8.94h-6.13v2.49h6.13Z"/><path class="cls-1" d="M198.8,308.67c.19.17.29.31.29.39a.42.42,0,0,1-.32.45.4.4,0,0,0-.39.36c-.32,1.17-.59,2.15-.83,2.91h6.32v-4.92c0-.23.13-.34.4-.34,1.33,0,2,.11,2,.34s-.11.39-.27.42-.26.22-.26.56v3.94h8.71a.29.29,0,0,1,.32.33v1.09c0,.28-.11.42-.32.42h-8.71v6.23h7.46c.21,0,.32.17.32.45v.87c0,.28-.11.42-.32.42h-7.46V330h10c.22,0,.32.11.32.34v1.09c0,.28-.1.42-.32.42h-23c-.21,0-.32-.14-.32-.42v-1.09c0-.23.11-.34.32-.34h11.2v-7.43h-8.1c-.21,0-.31-.14-.31-.42v-.87c0-.28.1-.45.31-.45h8.1v-6.23h-7c-.37.9-.74,1.76-1.14,2.57a17.86,17.86,0,0,1-1.52,2.24,1.33,1.33,0,0,1-.61-.11c-.37-.17-.71-.31-1.09-.45-.13-.06-.18-.14-.18-.2a.28.28,0,0,1,.11-.25,17,17,0,0,0,2.28-3.69,19.35,19.35,0,0,0,1-2.68,31.8,31.8,0,0,0,.93-3.83c.06-.17.14-.25.22-.25Z"/><path class="cls-1" d="M195.4,344.13l1.83,1.18a.83.83,0,0,1-.13.22c-.53.81-.8,1.2-.8,1.2a20.11,20.11,0,0,0-2.49-1.51,16,16,0,0,0-1.78-.78,5.32,5.32,0,0,1,.82-1.23c.08-.11.16-.2.24-.2C194,343.41,194.79,343.8,195.4,344.13Zm2.63,5.23a15.9,15.9,0,0,1,.64,1.62.69.69,0,0,1-.14.39,53.36,53.36,0,0,1-2.49,5.06c-.43.78-1,1.65-1.54,2.6a1.71,1.71,0,0,0-.19.89c0,.23-.08.34-.18.34s-.72-.59-1.7-1.76a.42.42,0,0,1-.19-.31.46.46,0,0,1,.14-.36,15.09,15.09,0,0,0,1.56-1.87,28.92,28.92,0,0,0,2.15-3.53c.59-1.11,1.12-2.15,1.57-3.1.05-.11.13-.19.18-.19S198,349.22,198,349.36Zm-1.46-12.05c.77.53,1.43,1,2,1.46a1.34,1.34,0,0,1-.13.22c-.54.78-.8,1.17-.83,1.17a28.18,28.18,0,0,0-2.71-1.87,15.78,15.78,0,0,0-1.93-1,5.35,5.35,0,0,1,.79-1.23c.08-.11.16-.19.24-.19A25,25,0,0,1,196.57,337.31Zm16.7.2a24.53,24.53,0,0,1-4.65,1.14v4.48h7.17c.21,0,.32.14.32.42v.89c0,.28-.11.42-.32.42h-7.17v4.81h5.6c.27,0,.43.11.43.33v10.26c0,.22-.16.33-.43.33h-1c-.27,0-.4-.11-.4-.33v-1.43H202.41v1.43c0,.22-.16.33-.42.33h-1c-.26,0-.4-.11-.4-.33V350.11c0-.28.14-.44.4-.44h5.81v-4.81h-7.14c-.21,0-.32-.14-.32-.42v-.89c0-.28.11-.42.32-.42h7.14v-4.22a50.61,50.61,0,0,1-5.38.28c-.3,0-.48-.09-.54-.28a3.28,3.28,0,0,0-.31-1,.75.75,0,0,1-.08-.37,51,51,0,0,0,6.87-.41,21,21,0,0,0,5.37-1.29,1.17,1.17,0,0,1,.5-.17.46.46,0,0,1,.32.17c.82.78,1.25,1.26,1.25,1.48s-.11.42-.32.42l-.61-.31A2.91,2.91,0,0,0,213.27,337.51Zm-.48,19.59v-5.67H202.41v5.67Z"/><path class="cls-1" d="M212.69,363.75a1,1,0,0,1,.39.22,3.51,3.51,0,0,1,.43,1c-.21,2-.37,3.89-.43,5.62-.05,1.56-.08,3.13-.08,4.64a48.9,48.9,0,0,0,.53,8.36c.32,1.65.64,2.46.91,2.46s.32-.14.42-.45a14.47,14.47,0,0,0,.48-2.74.29.29,0,0,1,.24-.2.28.28,0,0,1,.24.17,4.49,4.49,0,0,0,.85.73c.1,0,.16.19.16.42a14.82,14.82,0,0,1-1.46,4.16,1.16,1.16,0,0,1-.93.64c-.53,0-1-.58-1.54-1.76a16.19,16.19,0,0,1-1.25-4.92,52.13,52.13,0,0,1-.43-6.87c0-2.52.19-5.76.56-9.7H196.41V375a38.73,38.73,0,0,1-.5,6.93,16.94,16.94,0,0,1-1.25,4.27,10.4,10.4,0,0,1-1.38,2.46.87.87,0,0,1-.27,0,5.46,5.46,0,0,0-.95-.79.57.57,0,0,1-.11-.36,12.14,12.14,0,0,0,1.41-2.93,24,24,0,0,0,.87-4.08,43.64,43.64,0,0,0,.3-5.45V364.2c0-.28.13-.45.42-.45Zm-4.28,5a20.25,20.25,0,0,1-2.68.76c-.45.11-.88.19-1.25.25v2.63h4.14c.27,0,.43.11.43.3v8.42c0,.22-.16.33-.43.33h-4.14v3.19c1.3-.17,2.55-.34,3.72-.56-.32-.45-.67-.87-1-1.31,0-.12.45-.42,1.35-.87a29.23,29.23,0,0,1,2.1,3.05,17.58,17.58,0,0,1,1.3,2.73,7.66,7.66,0,0,1-1.64.54,9.32,9.32,0,0,0-1-2.3.11.11,0,0,1,0-.08c-3.67.5-7.38,1-11.13,1.4-.32.5-.55.75-.71.75s-.53-.81-1-2.4c1.67-.11,3.72-.36,6.11-.7h.1v-3.44h-4c-.27,0-.4-.11-.4-.33v-8.42c0-.19.13-.3.4-.3h4V370a1.13,1.13,0,0,1-.32,0,30.5,30.5,0,0,1-3.42.2c-.32,0-.48-.11-.53-.36-.27-.34-.53-.73-.8-1.15,0-.22.08-.33.29-.33h1.57a23.11,23.11,0,0,0,3.32-.2,14.25,14.25,0,0,0,2.52-.42,9.55,9.55,0,0,0,2.44-.95.37.37,0,0,1,.22-.08.65.65,0,0,1,.45.14c1,.95,1.51,1.51,1.51,1.73s-.11.33-.29.33l-.74-.33A1.59,1.59,0,0,0,208.41,368.75Zm-5.79,5.37h-2.49v5.56h2.49Zm4.57,0h-2.71v5.56h2.71Z"/><path class="cls-1" d="M212.26,391.7c.27,0,.43.11.43.33v8.3c0,.23-.16.31-.43.31h-1c-.26,0-.39-.08-.39-.31V400H205v1.84H215.9c.13,0,.21.11.21.34V403c0,.31-.08.45-.21.45H192.46c-.16,0-.22-.14-.22-.45v-.86c0-.23.06-.34.22-.34h10.67V400h-5.68v.33c0,.23-.16.31-.43.31h-1c-.3,0-.43-.08-.43-.31V392c0-.22.13-.33.43-.33Zm-11.81,20.57a.72.72,0,0,1,.21.39c0,.08-.11.11-.27.11a1.21,1.21,0,0,0-.58.17,18.73,18.73,0,0,1-2.1,1.67,22,22,0,0,1-3.4,1.77.42.42,0,0,1-.42-.23l-.93-.78c-.13-.06-.19-.14-.19-.2s0-.11.14-.14a8,8,0,0,0,1.62-.58,13.2,13.2,0,0,0,2.36-1.48,23.22,23.22,0,0,0,1.91-1.68c0-.11.11-.17.19-.17Zm11.31-7.35c.26,0,.39.11.39.3V410c0,.22-.13.34-.39.34H205v4.24c0,1.4-1.09,2.1-3.21,2.1h-.74c-.14,0-.19-.19-.19-.53a4.17,4.17,0,0,0-.42-1.45v-.12a3.88,3.88,0,0,0,1.24.23c1,0,1.44-.34,1.44-1v-3.49H196.7c-.26,0-.4-.12-.4-.34v-4.81c0-.19.14-.3.4-.3Zm-.93-9.84v-1.85H197.45v1.85Zm0,3.38v-1.84H197.45v1.84Zm-.53,8.08H198.16v2.18H210.3Zm2.09,6.51c1,.75,1.94,1.4,2.68,2l-.13.23c-.53.78-.79,1.2-.79,1.2a30,30,0,0,0-3.64-2.57,18.32,18.32,0,0,0-2.6-1.37,5.16,5.16,0,0,1,.82-1.23c.08-.11.16-.2.21-.2C210.32,411.85,211.49,412.49,212.39,413.05Z"/><path class="cls-1" d="M205.17,433.76a5.52,5.52,0,0,1-1.7,1.95l-.69-.81a4.39,4.39,0,0,0,1.78-3.18h-2v-3.36h3.18v3.08A5.06,5.06,0,0,1,205.17,433.76Z"/><path class="cls-1" d="M152.11.78c.27,0,.43.11.43.34V22.5c0,.22-.16.33-.43.33h-1c-.27,0-.4-.11-.4-.33V21.41h-4.06v2.4c0,.23-.13.34-.4.34h-1c-.29,0-.42-.11-.42-.34V1.2a.37.37,0,0,1,.42-.42ZM150.68,7V2.52h-4.06V7Zm0,6.34V8.75h-4.06v4.58Zm0,6.35V15.09h-4.06v4.59ZM157,21.83a45.51,45.51,0,0,0,4.41-1.76.2.2,0,0,1,.15-.09.21.21,0,0,1,.22.23,5.77,5.77,0,0,1-.11,1.53c-2.39,1.09-4.83,2-7.27,2.94-.27.5-.45.78-.61.78s-.54-.78-1-2.29c.69-.17,1.49-.39,2.39-.7V1.2c0-.28.13-.42.4-.42h10.59c.27,0,.4.11.4.34V11.91c0,.3-.13.44-.4.44h-4.54a14.87,14.87,0,0,0,.45,2.3,13.68,13.68,0,0,0,.77,2.48,7.33,7.33,0,0,0,1.38-.84,10.87,10.87,0,0,0,2.18-1.95.53.53,0,0,1,.27-.14,9.15,9.15,0,0,1,1.67,1.65c0,.14-.13.19-.35.19-.37,0-.58.06-.61.14a17.07,17.07,0,0,1-3.69,2.69,4.71,4.71,0,0,0,.72,1,7.49,7.49,0,0,0,1.8,1.9,8.74,8.74,0,0,0,2.55,1.48c.11.06.19.14.19.2a.43.43,0,0,1-.13.3,8,8,0,0,0-.93,1c-.14.17-.24.25-.3.25s-.15-.08-.31-.22a16.6,16.6,0,0,1-1.68-1,11.52,11.52,0,0,1-2-1.87,12.91,12.91,0,0,1-1.65-2.49,10.94,10.94,0,0,1-1.14-3,23.61,23.61,0,0,1-.93-4.08H157ZM157,5.7h7.67V2.52H157Zm0,4.89h7.67V7.43H157Z"/><path class="cls-1" d="M154.34,40.16c.16.14.27.25.27.36s-.19.31-.53.31a1,1,0,0,0-.77.25,19,19,0,0,1-2.05,2,14,14,0,0,1-1.77,1.4,23.36,23.36,0,0,1-2.1,1.32,16.65,16.65,0,0,1-1.7.81.49.49,0,0,1-.43-.26,4.09,4.09,0,0,0-.85-1.06c-.21-.11-.29-.22-.29-.3s0-.06.14-.12a17.86,17.86,0,0,0,2.44-1,16.39,16.39,0,0,0,2.68-1.76,9.71,9.71,0,0,0,1.46-1.34A12.08,12.08,0,0,0,152,39.27a.41.41,0,0,1,.32-.17Zm10.33-12c.27,0,.43.11.43.34v11c0,.22-.16.3-.43.3h-1c-.3,0-.43-.08-.43-.3v-.68h-3.13A15.4,15.4,0,0,0,162,41.25,12.26,12.26,0,0,0,164.22,43a12.44,12.44,0,0,0,3.72,1.73c.16.06.26.09.26.14a.4.4,0,0,1-.16.34,8.11,8.11,0,0,0-1,1c-.11.16-.19.22-.27.22A10.6,10.6,0,0,1,164,45.14a12.42,12.42,0,0,1-2.81-2.1A24.23,24.23,0,0,1,158.54,40l1.33-1.09H149.22v.56c0,.23-.16.31-.43.31h-1c-.27,0-.4-.08-.4-.31V28.62c0-.28.13-.45.4-.45ZM153.6,43.57c.19,0,.29.11.29.34s-.16.33-.42.41a.21.21,0,0,0-.24.23,22.08,22.08,0,0,1-.4,3.94,9.18,9.18,0,0,1-1.06,2.6,8.84,8.84,0,0,1-1.94,2,1.26,1.26,0,0,1-.53-.08c-.37-.22-.72-.45-1.06-.67-.19,0-.27-.11-.27-.23a.15.15,0,0,1,.11-.14,6.26,6.26,0,0,0,2.1-2.12,8.61,8.61,0,0,0,1-2.65,20.83,20.83,0,0,0,.21-3.61c0-.14.08-.22.24-.22Zm1.54-10.93V29.93h-5.92v2.71Zm0,4.5V34.4h-5.92v2.74Zm1.86-4.5h6.21V29.93H157Zm6.21,4.5V34.4H157v2.74Zm-1.54,6.54c0,.25-.11.39-.26.42s-.27.22-.27.56V53c0,.22-.19.34-.5.34h-1c-.29,0-.42-.12-.42-.34V43.68c0-.22.13-.33.42-.33Q161.67,43.35,161.67,43.68Z"/><path class="cls-1" d="M151.56,58.1a19.17,19.17,0,0,1-3.48,1v3.05h4.14c.21,0,.32.16.32.44v.87c0,.31-.11.45-.32.45h-4.14v3.6h4.25c.21,0,.31.14.31.42v.87c0,.3-.1.44-.31.44h-4.25v3.72h5.81v-6c0-.14.13-.22.4-.22,1.12,0,1.67.08,1.67.22s-.08.37-.21.37-.21.19-.21.5v5.14h2.07V65.4H154.4c-.27,0-.4-.14-.4-.42V56.12c0-.14.13-.23.4-.23,1.11,0,1.67.09,1.67.23s-.08.36-.21.36-.22.2-.22.53v2.18h3.54c.13,0,.21.11.21.31v.89c0,.28-.08.42-.21.42h-3.54v2.85H159c.27,0,.43.11.43.34v8.94h5.07V69.22h-3.93c-.21,0-.32-.14-.32-.44v-.87c0-.28.11-.42.32-.42h3.93v-3.6h-3.93c-.21,0-.32-.14-.32-.45v-.87c0-.28.11-.44.32-.44h3.93v-3.5h-4c-.21,0-.32-.14-.32-.42V57.09a.28.28,0,0,1,.32-.3h5.5c.26,0,.4.11.4.3V72.94H168c.21,0,.32.14.32.42v.9c0,.27-.11.41-.32.41H144.44c-.21,0-.32-.14-.32-.41v-.9c0-.28.11-.42.32-.42h1.78V57.21c0-.2.08-.31.29-.31l1.22.5a10.45,10.45,0,0,0,1.62-.39,13,13,0,0,0,2.15-.95.88.88,0,0,1,.32-.17,8.24,8.24,0,0,1,1,2.1c0,.17-.08.22-.22.22L151.9,58A1.72,1.72,0,0,0,151.56,58.1ZM153.73,76c.16.14.27.25.27.33,0,.23-.19.34-.53.34a.85.85,0,0,0-.61.17,16,16,0,0,1-1.62,1.65,11.36,11.36,0,0,1-1.41,1.14c-.56.39-1.11.73-1.65,1.06s-1,.51-1.35.67a.51.51,0,0,1-.4-.27,3.8,3.8,0,0,0-.77-1c-.21-.12-.29-.23-.29-.28s0-.09.11-.09c.74-.28,1.38-.56,1.91-.81a13.67,13.67,0,0,0,2.1-1.45,8.22,8.22,0,0,0,1.16-1.09,8.34,8.34,0,0,0,.91-1.23.48.48,0,0,1,.26-.14Zm9.93,1.7a12.33,12.33,0,0,0,3.69,2.13,8.63,8.63,0,0,1-1.22,1.53,12,12,0,0,1-3.37-2,17.67,17.67,0,0,1-3.08-3.05c0-.14.48-.58,1.46-1.31A11.82,11.82,0,0,0,163.66,77.69Z"/><path class="cls-1" d="M147.26,91.27v-6c0-.19.13-.3.39-.3,1.33,0,2,.11,2,.3s-.1.4-.26.42-.27.23-.27.56v5h2.07c.22,0,.32.17.32.45v.87c0,.3-.1.44-.32.44h-2.07v9.12c1-.34,1.89-.7,2.76-1.09.06,0,.08-.06.14-.06a.2.2,0,0,1,.21.22,5.22,5.22,0,0,1-.11,1.51c-2,.9-4.11,1.71-6.21,2.41-.26.53-.48.78-.64.78s-.5-.76-1-2.29a23.9,23.9,0,0,0,3-.84V93H145c-.21,0-.32-.14-.32-.44v-.87c0-.28.11-.45.32-.45Zm18.23,3.27c.27,0,.43.12.43.34v7.85c0,.23-.16.34-.43.34h-2.68v3c0,.79.43,1.21,1.33,1.21h1.35a.93.93,0,0,0,1-.79,11.13,11.13,0,0,0,.37-1.81,4,4,0,0,0,1.38.78.41.41,0,0,1,.26.42,9.26,9.26,0,0,1-.63,2.24,1.65,1.65,0,0,1-1.73.92h-2.92c-1.46,0-2.18-.59-2.18-1.76v-4.25H159c0,.67-.05,1.2-.1,1.65a6.13,6.13,0,0,1-.67,1.59,4.38,4.38,0,0,1-1.35,1.37,10.07,10.07,0,0,1-2.28,1c-.77.2-1.62.4-2.55.59-.16,0-.27-.11-.29-.31a6.25,6.25,0,0,1-.75-1.14.53.53,0,0,1-.1-.31c1.32-.17,2.38-.34,3.18-.5a4.8,4.8,0,0,0,1.51-.65,2.09,2.09,0,0,0,.88-.78,3.77,3.77,0,0,0,.61-1.14,8.09,8.09,0,0,0,.16-1.4h-2.6c-.29,0-.43-.11-.43-.34V94.88c0-.22.14-.34.43-.34ZM158,90.07c.19.37.35.73.51,1.09h3.24a9.52,9.52,0,0,0,.85-1.23,7.36,7.36,0,0,0,.82-1.67c.05-.17.11-.26.19-.26l1.4.62c.21.11.35.22.35.36s-.08.17-.21.23-.32.08-.35.22c-.32.7-.64,1.28-.9,1.73h3.74c.21,0,.32.17.32.45v.87c0,.3-.11.44-.32.44H153c-.21,0-.32-.14-.32-.44v-.87c0-.28.11-.45.32-.45h3.83a.48.48,0,0,1-.11-.25,10.6,10.6,0,0,0-1.14-1.82c0-.11.45-.39,1.35-.86A15,15,0,0,1,158,90.07Zm3.75-5.9c0,.26-.11.4-.27.42s-.26.23-.26.56v.9h5.81c.13,0,.21.11.21.3v.9c0,.28-.08.42-.21.42H153.57c-.16,0-.21-.14-.21-.42v-.9c0-.19,0-.3.21-.3h5.82V84.17c0-.22.13-.33.4-.33C161.11,83.84,161.78,84,161.78,84.17ZM164,97.93V96.08h-8v1.85Zm0,1.64h-8v2h8Z"/><path class="cls-1" d="M154.34,124c.16.14.27.25.27.36s-.19.31-.53.31a1,1,0,0,0-.77.25,19,19,0,0,1-2.05,2,14,14,0,0,1-1.77,1.4c-.7.5-1.41.92-2.1,1.32a16.65,16.65,0,0,1-1.7.81.49.49,0,0,1-.43-.26,3.93,3.93,0,0,0-.85-1.06c-.21-.11-.29-.22-.29-.31s0-.05.14-.11a17.86,17.86,0,0,0,2.44-1,16.39,16.39,0,0,0,2.68-1.76,9.24,9.24,0,0,0,1.46-1.35A10.78,10.78,0,0,0,152,123.1a.43.43,0,0,1,.32-.16Zm10.33-12c.27,0,.43.11.43.33v11c0,.23-.16.31-.43.31h-1c-.3,0-.43-.08-.43-.31v-.67h-3.13a15.4,15.4,0,0,0,1.91,2.38,12.26,12.26,0,0,0,2.23,1.76,12.44,12.44,0,0,0,3.72,1.73c.16.06.26.09.26.14a.41.41,0,0,1-.16.34,8.11,8.11,0,0,0-1,1c-.11.16-.19.22-.27.22A10.28,10.28,0,0,1,164,129a12.08,12.08,0,0,1-2.81-2.09,24.23,24.23,0,0,1-2.63-3.08l1.33-1.09H149.22v.56c0,.23-.16.31-.43.31h-1c-.27,0-.4-.08-.4-.31V112.46c0-.28.13-.45.4-.45Zm-11.07,15.4c.19,0,.29.11.29.33s-.16.34-.42.42a.21.21,0,0,0-.24.23,22.19,22.19,0,0,1-.4,3.94,9.18,9.18,0,0,1-1.06,2.6,9.06,9.06,0,0,1-1.94,2,1.26,1.26,0,0,1-.53-.08l-1.06-.67c-.19,0-.27-.11-.27-.23a.15.15,0,0,1,.11-.14,6.35,6.35,0,0,0,2.1-2.12,8.67,8.67,0,0,0,1-2.66,20.63,20.63,0,0,0,.21-3.6c0-.14.08-.22.24-.22Zm1.54-10.93v-2.71h-5.92v2.71Zm0,4.5v-2.74h-5.92V121Zm1.86-4.5h6.21v-2.71H157Zm6.21,4.5v-2.74H157V121Zm-1.54,6.54c0,.25-.11.39-.26.42s-.27.22-.27.56v8.3c0,.22-.19.34-.5.34h-1c-.29,0-.42-.12-.42-.34v-9.28c0-.22.13-.33.42-.33Q161.67,127.19,161.67,127.52Z"/><path class="cls-1" d="M166.53,140.74c.34,0,.53.14.53.42v21a2.33,2.33,0,0,1-1.22,2,9.3,9.3,0,0,1-2.92.75.35.35,0,0,1-.4-.34,5.33,5.33,0,0,0-.66-1.84c0-.11.08-.17.26-.17a5.21,5.21,0,0,0,2.5-.31,1.15,1.15,0,0,0,.48-1v-18.7H147.55v21.94c0,.23-.19.34-.51.34h-1c-.29,0-.43-.11-.43-.34V141.05c0-.2.14-.31.43-.31Zm-3.93,4.58a.28.28,0,0,1,.32.31v1.09c0,.31-.11.45-.32.45H150.15c-.21,0-.32-.14-.32-.45v-1.09a.28.28,0,0,1,.32-.31Zm-1.57,5c.27,0,.43.12.43.34v9.06c0,.22-.16.33-.43.33h-1c-.27,0-.4-.11-.4-.33v-1.21H153v1.32c0,.22-.16.33-.42.33h-1c-.29,0-.42-.11-.42-.33v-9.06c0-.28.13-.45.42-.45Zm-1.43,6.46v-4.69H153v4.69Z"/><path class="cls-1" d="M158.46,167.68c0,.28-.11.42-.27.42s-.26.25-.26.58v2.6h7.78c.21,0,.31.17.31.45v.87c0,.3-.1.44-.31.44h-7.78v3.72h9.85c.21,0,.32.14.32.42v.9c0,.27-.11.41-.32.41h-9.85v7.22c0,1.39-1.09,2.06-3.21,2.06h-1.57c-.13,0-.19-.16-.19-.5a4.13,4.13,0,0,0-.42-1.45v-.11a9.11,9.11,0,0,0,2.07.22c.95,0,1.46-.31,1.46-1v-6.46H144.76c-.21,0-.32-.14-.32-.41v-.9c0-.28.11-.42.32-.42H149V170c0-.23.13-.34.42-.34,1.3,0,2,.11,2,.34s-.11.39-.27.39-.26.25-.26.59v5.78h5.2v-9.08c0-.2.13-.31.4-.31C157.79,167.37,158.46,167.48,158.46,167.68Zm-6.4,13.22c.16.11.27.22.27.33s-.19.34-.51.34a.52.52,0,0,0-.45.22,21.84,21.84,0,0,1-2.07,3.3,15.32,15.32,0,0,1-1.14,1.23,8.43,8.43,0,0,1-.9.81.4.4,0,0,1-.4-.25,5.16,5.16,0,0,0-.8-1c-.19-.11-.26-.19-.26-.28a.08.08,0,0,1,0-.08,8.14,8.14,0,0,0,1.3-1,10.21,10.21,0,0,0,1.43-1.7,7.75,7.75,0,0,0,.77-1.26,12.25,12.25,0,0,0,.61-1.48c.06-.11.14-.17.19-.17Zm14.26,1c0,.16-.14.28-.35.3-.37,0-.56.09-.58.26-.48.78-1,1.5-1.44,2.18a21.39,21.39,0,0,1-2.28,2.79,17.34,17.34,0,0,1-3.85,2.74,24.56,24.56,0,0,1-4.41,1.82,50.37,50.37,0,0,1-5.65,1.28c-.16,0-.27-.17-.37-.45a8.81,8.81,0,0,0-.88-1.64,26,26,0,0,0,4.33-.68,20.68,20.68,0,0,0,4.33-1.28,17.32,17.32,0,0,0,3.26-1.76,14.51,14.51,0,0,0,2.82-2.57A15,15,0,0,0,163,182.3a6.46,6.46,0,0,0,.83-1.93c0-.14,0-.23.1-.23A22.51,22.51,0,0,1,166.32,181.88Z"/><path class="cls-1" d="M148,201.44V197.5a7.1,7.1,0,0,0-.1-1.23,1.4,1.4,0,0,1-.11-.53c0-.12.16-.2.53-.2l2.07.28c.21.11.32.2.32.25s-.11.25-.32.25c-.37.17-.53.59-.53,1.29v3.83h2.71c.21,0,.32.14.32.42v.86c0,.31-.11.45-.32.45h-2.71v5.62c.85-.45,1.67-.92,2.47-1.4,0,0,.08-.08.13-.08a.2.2,0,0,1,.21.22,6.25,6.25,0,0,1-.1,1.54c-.9.56-1.81,1.09-2.71,1.59v8.13c0,1.29-.93,2-2.79,2h-.93c-.16,0-.24-.17-.24-.47a4.55,4.55,0,0,0-.5-1.29c0-.14,0-.2.21-.2a5,5,0,0,0,1.25.2c.74,0,1.14-.34,1.14-1v-6.34c-.74.39-1.48.78-2.17,1.12-.27.5-.46.75-.62.75s-.53-.75-1.06-2.29a30.05,30.05,0,0,0,3.85-1.54v-6.54h-3.1c-.22,0-.32-.14-.32-.45v-.86c0-.28.1-.42.32-.42Zm20.13,6.43c.21,0,.31.16.31.44v.87c0,.28-.1.42-.31.42h-6.32v3.3H167c.22,0,.32.14.32.42v.89c0,.28-.1.42-.32.42h-5.17v3.89c.69,0,1.56,0,2.68,0,.66,0,1.94-.11,3.85-.33a.65.65,0,0,1-.16.39,7.66,7.66,0,0,0-.45,1.51c0,.25-.11.39-.24.39h-2.6a22.11,22.11,0,0,1-4.91-.39,11.16,11.16,0,0,1-2.08-.73,5.76,5.76,0,0,1-1.19-.92,4.32,4.32,0,0,1-1-1.26.15.15,0,0,1,0-.08c-.06.16-.11.3-.16.41a9.33,9.33,0,0,1-2.92,3.41.47.47,0,0,1-.4-.19c-.29-.28-.56-.56-.8-.78a.71.71,0,0,1-.16-.34c0-.17.06-.25.22-.28A7.82,7.82,0,0,0,153,218a8.45,8.45,0,0,0,1.08-1.64,19.26,19.26,0,0,0,.59-2,21.22,21.22,0,0,0,.29-3.24.32.32,0,0,1,.35-.36l1.69.42c.19.11.3.22.3.33a.39.39,0,0,1-.35.42.78.78,0,0,0-.29.56,18,18,0,0,1-.35,2.35,6.36,6.36,0,0,0,.72,1.45,3.17,3.17,0,0,0,1,1,5,5,0,0,0,1.36.75,1.74,1.74,0,0,0,.5.17V209.6h-6c-.21,0-.32-.14-.32-.42v-.87c0-.28.11-.44.32-.44Zm-1.78-11.46c.26,0,.42.11.42.33v8.95c0,.22-.16.33-.42.33H155.43c-.26,0-.4-.11-.4-.33v-8.95c0-.22.14-.33.4-.33Zm-1.44,3.91v-2.18h-8v2.18Zm0,1.76h-8v2.18h8Z"/><path class="cls-1" d="M153.36,226.92v5.23c0,.67,0,1.29-.05,1.9h7v-9.92c0-.22.13-.34.4-.34,1.38,0,2.09.12,2.09.34s-.1.39-.26.42-.27.22-.27.56v8.94h5.5c.21,0,.32.17.32.45v1.09c0,.31-.11.45-.32.45h-5.5v12.55c0,.22-.18.33-.5.33h-1.06c-.27,0-.4-.11-.4-.33V236h-7.14a33.82,33.82,0,0,1-.56,3.46,12.63,12.63,0,0,1-2.63,5.2,16.75,16.75,0,0,1-3.37,3,.64.64,0,0,1-.51-.22,6.66,6.66,0,0,0-.77-1,.74.74,0,0,1-.16-.42,13.44,13.44,0,0,0,5.47-7,24.35,24.35,0,0,0,.56-3.07h-6.34c-.22,0-.32-.14-.32-.45V234.5c0-.28.1-.45.32-.45h6.47c0-.5.06-1,.06-1.56v-5.06a24.19,24.19,0,0,1-5.07.53.42.42,0,0,1-.48-.36,7.65,7.65,0,0,0-.59-1.07c0-.28.11-.44.32-.44a27,27,0,0,0,5.71-.42,9.54,9.54,0,0,0,4.7-2,1,1,0,0,1,.48-.14.8.8,0,0,1,.37.19,13.41,13.41,0,0,1,1.09,1.43c0,.22-.08.33-.21.33l-.72-.11A13.91,13.91,0,0,1,153.36,226.92Z"/><path class="cls-1" d="M157.26,266.08a5.64,5.64,0,0,1-1.7,2l-.69-.82a4.36,4.36,0,0,0,1.78-3.18h-2v-3.36h3.18v3.08A5,5,0,0,1,157.26,266.08Z"/><path class="cls-1" d="M167.88,290.62c.22,0,.32.19.32.53v1.11c0,.37-.1.54-.32.54H144.65c-.21,0-.32-.17-.32-.54v-1.11c0-.34.11-.53.32-.53Z"/><path class="cls-1" d="M150.15,310.37v3.94H153c.21,0,.32.14.32.42v.87c0,.31-.11.45-.32.45h-2.76c.37,1.23.69,2.2,1,2.93a16.4,16.4,0,0,0,1.94,3.44.33.33,0,0,1,.16.28c0,.05-.08.14-.18.22a4.29,4.29,0,0,1-.69.78.46.46,0,0,1-.27.2.4.4,0,0,1-.29-.2,16.65,16.65,0,0,1-1.65-3.27c-.05-.14-.1-.28-.13-.39v12.5c0,.22-.16.33-.43.33h-1c-.21,0-.29-.11-.29-.33V321.33c-.32.89-.67,1.7-1,2.43a17.12,17.12,0,0,1-1.61,3.1.45.45,0,0,1-.4-.14c-.37-.16-.72-.33-1.07-.5-.15,0-.21,0-.21-.14a21.62,21.62,0,0,0,2.1-3.58,22.52,22.52,0,0,0,1.19-3.24,32.3,32.3,0,0,0,.83-3.21h-3.48c-.21,0-.32-.14-.32-.45v-.87c0-.28.11-.42.32-.42h3.64v-3.6a18.82,18.82,0,0,1-2.82.19.41.41,0,0,1-.45-.33,8.72,8.72,0,0,0-.58-1.06c0-.23,0-.34.21-.34a21.55,21.55,0,0,0,3.8-.22,7.91,7.91,0,0,0,3.13-1,.72.72,0,0,1,.32-.08.65.65,0,0,1,.34.17,10.88,10.88,0,0,1,1,1.25c0,.31-.08.45-.21.45l-.72-.11A8.14,8.14,0,0,1,150.15,310.37Zm11.52.23v2.18h5.79c.21,0,.32.16.32.44v.87c0,.28-.11.42-.32.42h-5.79v1.76h5.18c.26,0,.42.11.42.34v8c0,.22-.16.31-.42.31h-5.18v2H167c.14,0,.22.11.22.34v.86c0,.28-.08.42-.22.42h-5.28v2h6.21c.22,0,.32.14.32.42v.89c0,.28-.1.42-.32.42H153.47c-.22,0-.32-.14-.32-.42v-.89c0-.28.1-.42.32-.42h6.42v-2h-5.17c-.16,0-.22-.14-.22-.42v-.86c0-.23.06-.34.22-.34h5.17v-2h-5.07c-.29,0-.42-.09-.42-.31v-8c0-.23.13-.34.42-.34h5.07v-1.76h-5.81c-.21,0-.29-.14-.29-.42v-.87c0-.28.08-.44.29-.44h5.81v-2c-1.43.14-2.87.2-4.35.2a.42.42,0,0,1-.45-.34,8.61,8.61,0,0,0-.59-1.06c0-.28.11-.45.32-.45a43,43,0,0,0,5.63-.25,14.12,14.12,0,0,0,4.67-1.09,1.15,1.15,0,0,1,.48-.08.75.75,0,0,1,.37.22,9.52,9.52,0,0,1,1.09,1.42c0,.23-.08.34-.21.34l-.72-.11A27.23,27.23,0,0,1,161.67,310.6Zm-1.78,9.16v-1.95h-3.71v1.95Zm0,1.54h-3.71v2.07h3.71Zm1.78-1.54h3.82v-1.95h-3.82Zm3.82,1.54h-3.82v2.07h3.82Z"/><path class="cls-1" d="M147,341.06a.44.44,0,0,1-.32.42.91.91,0,0,0-.26.61c-.13,2-.29,3.61-.48,4.87-.16.69-.29,1.42-.45,2.15-.05.17-.11.22-.16.22-.58-.17-1.09-.31-1.51-.39-.16,0-.24-.11-.24-.25.26-.92.5-2,.71-3.08a38.79,38.79,0,0,0,.51-4.86c0-.22.08-.36.24-.36C146.38,340.67,147,340.89,147,341.06Zm3.43-5.37c0,.25-.11.39-.27.42s-.26.22-.26.56v23.92c0,.23-.14.34-.4.34h-1c-.29,0-.42-.11-.42-.34v-24.9c0-.22.13-.33.42-.33C149.8,335.36,150.47,335.47,150.47,335.69Zm2.07,4.59c.4,1.11.77,2.26,1.14,3.49,0,.28-.08.42-.19.45a2.84,2.84,0,0,1-1.48.64c-.32-1.51-.64-2.8-.93-3.8,0-.2.37-.5,1.14-.9A.42.42,0,0,1,152.54,340.28Zm9.24-4.25c0,.19-.14.28-.37.28s-.38.08-.38.25c-.61,1.76-1.38,3.74-2.33,5.92-.43,1-.88,2-1.33,2.85,2.79-.39,5.55-.89,8.31-1.53a30.62,30.62,0,0,0-1.94-3.83c0-.14.48-.48,1.44-1a48.56,48.56,0,0,1,2.3,4.7,32.82,32.82,0,0,1,1.44,4.16,6.85,6.85,0,0,1-1.75.53,21.51,21.51,0,0,0-.83-2.85q-5,1.1-11.07,2c-.18,0-.34.14-.45.42s-.21.42-.42.42-.67-.84-1.36-2.51c.8-.06,1.57-.14,2.37-.25,1-2.21,1.93-4.53,2.76-7a29.54,29.54,0,0,0,.9-3.5c0-.11.05-.16.21-.16C160.93,335.5,161.78,335.86,161.78,336Zm4.64,13.64c.27,0,.43.11.43.33v10.26c0,.22-.16.33-.43.33h-1c-.27,0-.4-.11-.4-.33v-1.43h-8.1v1.43c0,.22-.16.33-.42.33h-1c-.26,0-.4-.11-.4-.33V350.11c0-.28.14-.44.4-.44ZM165,357.1v-5.67h-8.1v5.67Z"/><path class="cls-1" d="M150.07,382.67c.26.11.4.25.4.42s-.16.31-.43.36-.58.14-.66.37a21.7,21.7,0,0,1-2.95,4.47c-.24.22-.42.36-.53.36a.91.91,0,0,1-.48-.22c-.37-.2-.74-.36-1.06-.53-.16-.06-.24-.11-.24-.14s.06-.14.19-.25a19.82,19.82,0,0,0,2.2-2.41,9.93,9.93,0,0,0,1.59-2.71c.11-.28.24-.42.4-.42Zm1.75-18.58c0,.16-.08.25-.18.25-.3,0-.48.11-.56.28-.21.47-.4.92-.56,1.31H155a1,1,0,0,1,.48.17c.29.28.45.47.45.61-.21,1.46-.42,2.66-.63,3.58a20.33,20.33,0,0,1-1,3,21.94,21.94,0,0,1-1.06,2.12,12.17,12.17,0,0,1-1.59,2.18,10.78,10.78,0,0,1-1.76,1.6,16.51,16.51,0,0,1-2.44,1.48.46.46,0,0,1-.4-.28L146,379.6c-.1-.11-.15-.17-.15-.23s0-.11.13-.16a12.85,12.85,0,0,0,2.76-1.49,7.59,7.59,0,0,0,1.33-1.09c-.53-.5-1.09-1-1.65-1.42a12,12,0,0,0-1.65-1.09,5.73,5.73,0,0,1,.72-1.12c.08-.11.16-.19.21-.19a19.84,19.84,0,0,1,2.23,1.56l1.2,1.09a12.17,12.17,0,0,0,1.17-1.76,3.33,3.33,0,0,0,.21-.48c-.56-.5-1.12-1-1.7-1.39a12,12,0,0,0-1.54-1,5.43,5.43,0,0,1,.72-1.15c.08-.11.16-.16.21-.16a22.5,22.5,0,0,1,2.1,1.39c.31.28.61.51.87.73.08-.22.16-.45.27-.7a31.85,31.85,0,0,0,.71-3.27h-4.4a15.18,15.18,0,0,1-1.25,2,33.38,33.38,0,0,1-2.44,3,.64.64,0,0,1-.51-.22l-.77-.64a.38.38,0,0,1-.18-.34c.58-.67,1.19-1.37,1.8-2.12a16.87,16.87,0,0,0,2.1-3.24,27.89,27.89,0,0,0,1.19-3.13c0-.14,0-.23.08-.23C151.1,363.5,151.82,364,151.82,364.09Zm2.47,18.22a52.6,52.6,0,0,1,1.78,5c0,.25-.08.39-.19.42a2.86,2.86,0,0,1-1.48.67c-.56-2.15-1.07-3.91-1.54-5.34,0-.19.37-.5,1.14-.89A.34.34,0,0,1,154.29,382.31ZM159.87,369c.13-1.39.18-3.18.18-5.31,0-.25.11-.39.37-.39l2,.23c.19,0,.3.11.3.33s-.16.34-.43.45a.33.33,0,0,0-.37.36c0,1.65-.13,3.1-.24,4.33h5.39c.19,0,.29.14.29.42v.87c0,.31-.1.45-.29.45H162.2a25.34,25.34,0,0,0,1.25,3.41,12.27,12.27,0,0,0,1.43,2.43,8.52,8.52,0,0,0,1.46,1.62,7.19,7.19,0,0,0,1.54,1.17.29.29,0,0,1-.21.28,9.68,9.68,0,0,0-.74,1,.46.46,0,0,1-.4.14,9.14,9.14,0,0,1-2.05-1.68,14.72,14.72,0,0,1-1.56-2.12,19.52,19.52,0,0,1-1.33-2.6,14.71,14.71,0,0,1-.53-1.48,16.46,16.46,0,0,1-1.59,4.08,15.5,15.5,0,0,1-3.19,3.72,1.26,1.26,0,0,1-.56-.09c-.37-.22-.71-.44-1.06-.67-.18,0-.26-.11-.26-.25s0-.14.18-.25a11,11,0,0,0,3.48-4,16.35,16.35,0,0,0,1.54-4.72h-2.81c-.22,0-.32-.14-.32-.45v-.87c0-.28.1-.42.32-.42Zm-.38,13.2a41.25,41.25,0,0,1,2.47,5c0,.25-.05.39-.16.44a3.17,3.17,0,0,1-1.48.65c-.83-2.15-1.6-3.92-2.29-5.34,0-.2.38-.5,1.15-.9A.41.41,0,0,1,159.49,382.2ZM166,365.54c.59.45,1.12.84,1.54,1.17,0,0-.05.09-.13.2-.5.72-.77,1.09-.79,1.09a19.47,19.47,0,0,0-2.08-1.51,14,14,0,0,0-1.46-.78,4.93,4.93,0,0,1,.75-1.12c.05-.11.13-.17.18-.17A19.44,19.44,0,0,1,166,365.54Zm.59,18.78c.74,1.06,1.35,2,1.88,2.8a1.24,1.24,0,0,0-.1.22c-.53.78-.8,1.2-.83,1.2a34.61,34.61,0,0,0-2.6-3.6,12.59,12.59,0,0,0-1.86-1.85,5.19,5.19,0,0,1,.83-1.23c.08-.11.16-.19.21-.19A24.87,24.87,0,0,1,166.61,384.32Z"/><path class="cls-1" d="M157.5,392.37c0,.11-.13.22-.4.3a1,1,0,0,0-.69.4,10.17,10.17,0,0,1-.9,1.25h9.16c.27,0,.43.12.43.34v21.49c0,.23-.16.34-.43.34h-1c-.3,0-.43-.11-.43-.34v-1.84H149.43v1.84c0,.23-.16.34-.42.34h-1c-.29,0-.42-.11-.42-.34V394.74a.37.37,0,0,1,.42-.42h5.21a5.46,5.46,0,0,0,.55-.67,9.43,9.43,0,0,0,1.17-2.18c0-.14.13-.22.24-.22A14.34,14.34,0,0,1,157.5,392.37Zm5.71,8v-4.27H149.43v4.27Zm0,6v-4.27H149.43v4.27Zm0,6.21v-4.48H149.43v4.48Z"/><path class="cls-1" d="M153.36,426.63a.53.53,0,0,1-.4.56.87.87,0,0,0-.55.33,26.12,26.12,0,0,1-2.37,3.05v13.64c0,.22-.13.34-.4.34h-1.06c-.26,0-.4-.12-.4-.34V432.44c-.79.73-1.72,1.51-2.81,2.38a13.94,13.94,0,0,0-1.22-1.29.57.57,0,0,1-.21-.36s0-.08.1-.17a19.76,19.76,0,0,0,4.44-3.8,23.25,23.25,0,0,0,2.86-3.91c.08-.11.16-.2.27-.2A11.17,11.17,0,0,1,153.36,426.63Zm-1.8-6a.73.73,0,0,1,.34.56c0,.22-.11.34-.29.34a.88.88,0,0,0-.77.36,28.36,28.36,0,0,1-5.36,5.73.46.46,0,0,1-.43-.23,4.87,4.87,0,0,0-.82-.86.56.56,0,0,1-.19-.34.21.21,0,0,1,.11-.19,7,7,0,0,0,1.7-1.34,15.69,15.69,0,0,0,2.17-2.27,18.83,18.83,0,0,0,1.57-2.63q.16-.33.24-.33Zm15.61,11c.18,0,.29.14.29.42V433c0,.28-.11.42-.29.42H165v2.3h3c.21,0,.32.16.32.44V437c0,.31-.11.45-.32.45h-3v5c0,1.37-1.09,2.07-3.21,2.07h-1c-.1,0-.16-.2-.16-.54a4.62,4.62,0,0,0-.45-1.45v-.08a6.64,6.64,0,0,0,1.46.19c1,0,1.43-.33,1.43-1v-4.24H152.75c-.21,0-.32-.14-.32-.45v-.87c0-.28.11-.44.32-.44H163.1v-2.3h-9.31c-.22,0-.32-.14-.32-.42v-.89c0-.28.1-.42.32-.42Zm-9.83,8.16c.51.45.93.87,1.3,1.23a.82.82,0,0,1-.13.23c-.5.78-.77,1.2-.79,1.2a16.86,16.86,0,0,0-1.81-1.6,8.92,8.92,0,0,0-1.3-.81,5,5,0,0,1,.82-1.23c.08-.11.16-.19.21-.19A16.29,16.29,0,0,1,157.34,439.82Zm8.58-19.73c.26,0,.4.11.4.31v8.86c0,.22-.14.33-.4.33H155.14c-.29,0-.42-.11-.42-.33v-8.75a.37.37,0,0,1,.42-.42Zm-1.46,3.8v-2.07h-7.89v2.07Zm0,3.94v-2.18h-7.89v2.18Z"/><path class="cls-1" d="M152,447.65c.21.05.35.16.35.39s-.14.39-.4.39a.51.51,0,0,0-.32.36c-.53,1.26-1,2.35-1.54,3.27h4.11c.27,0,.43.11.43.34V471c0,.23-.16.34-.43.34h-1c-.27,0-.4-.11-.4-.34v-1.42h-5.6v2.18c0,.22-.16.33-.43.33h-1c-.29,0-.43-.11-.43-.33v-19.2a.4.4,0,0,1,.43-.45h2.39q1-1.89,2.07-4.58a.32.32,0,0,1,.32-.23Zm.77,12.18v-6h-5.6v6Zm0,8v-6.24h-5.6v6.24Zm9.13-20c.19.16.3.28.3.39a.3.3,0,0,1-.22.31.39.39,0,0,0-.4.33c-.39,1.23-.74,2.21-1.06,3h6.56a.47.47,0,0,1,.5.53c0,6.38-.1,10.77-.31,13.2a16,16,0,0,1-1,4.66,2.73,2.73,0,0,1-1.43,1.54,7.8,7.8,0,0,1-3,.48c-1.12,0-1.7-.2-1.7-.56a8.24,8.24,0,0,0-.37-1.4c0-.17,0-.22.1-.22l.21,0a11.74,11.74,0,0,0,1.36.09,4.32,4.32,0,0,0,2.65-.59c.53-.42.91-1.59,1.12-3.52a114.53,114.53,0,0,0,.48-12.49h-6c-.3.58-.59,1.14-.91,1.65a16.42,16.42,0,0,1-1.59,1.95,1.89,1.89,0,0,1-.58-.08l-1-.42c-.13-.06-.19-.09-.19-.14a.27.27,0,0,1,.11-.25,14.05,14.05,0,0,0,2.33-3.22,18.64,18.64,0,0,0,1.07-2.34,30.63,30.63,0,0,0,.95-3.39c.06-.11.13-.19.21-.19Zm-2.28,10.76a46.78,46.78,0,0,1,2.68,5.45c0,.28-.05.42-.16.44a2.92,2.92,0,0,1-1.48.65c-.91-2.32-1.73-4.25-2.5-5.79,0-.19.37-.47,1.14-.86A.42.42,0,0,1,159.6,458.52Z"/><path class="cls-1" d="M166.32,483.08a.44.44,0,0,1-.3.42.37.37,0,0,0-.39.28,24.94,24.94,0,0,1-1.25,3.38,17.17,17.17,0,0,1-1.51,2.55c-.22.25-.4.47-.62.69a22.63,22.63,0,0,0,1,3.25,11,11,0,0,0,1.46,3,1.64,1.64,0,0,0,.9.5c.19,0,.42-.23.69-.7a11,11,0,0,0,1-2.26c.08,0,.19.11.29.28a4.79,4.79,0,0,0,.83.95.74.74,0,0,1,.32.61,20.33,20.33,0,0,1-1.33,2.63c-.59.86-1.14,1.31-1.67,1.31a1.54,1.54,0,0,1-.72-.19,5.18,5.18,0,0,1-1.41-1.35,13.33,13.33,0,0,1-1.75-3.07,29.17,29.17,0,0,1-1.14-3.49c-.19.14-.35.28-.51.39a.6.6,0,0,1-.29.08.52.52,0,0,1-.48-.33,7.9,7.9,0,0,0-.63-.73.38.38,0,0,1-.24-.36c0-.06,0-.09.13-.14a5.14,5.14,0,0,0,1.17-.76,3.79,3.79,0,0,0,.37-.31,49.3,49.3,0,0,1-.72-5.08c-.13-1.34-.24-3-.31-5.06H148.5v8.08a32.75,32.75,0,0,1-.4,5.81,16.23,16.23,0,0,1-1,3.58,8.7,8.7,0,0,1-1.09,2.06.56.56,0,0,1-.27-.05,5.18,5.18,0,0,0-1-.76.66.66,0,0,1-.11-.39,10.43,10.43,0,0,0,1.09-2.43,26.12,26.12,0,0,0,.67-3.35,42.84,42.84,0,0,0,.21-4.47v-9.4a.39.39,0,0,1,.42-.44h12.08c0-.79-.05-1.57-.05-2.41,0-.22.05-.33.21-.33l1.78.17c.32,0,.5.11.5.28a.44.44,0,0,1-.21.44c-.16.09-.21.34-.21.76v1.09h4.78c.21,0,.32.17.32.44v.87c0,.31-.11.45-.32.45h-4.75c0,1.73.05,3.24.13,4.47a37.59,37.59,0,0,0,.48,3.89,12.64,12.64,0,0,0,1.48-3,12.94,12.94,0,0,0,.75-2.68.23.23,0,0,1,.24-.22C165.63,482.58,166.32,482.91,166.32,483.08ZM150.44,494c.21.11.32.23.32.34a.37.37,0,0,1-.13.33c-.14,0-.22.14-.24.37a38.88,38.88,0,0,1-1,4.1c-.11.23-.16.34-.19.34a.77.77,0,0,1-.4-.17c-.32-.17-.61-.28-.87-.39a.46.46,0,0,1-.19-.11.39.39,0,0,1,.05-.22c.29-.84.53-1.6.69-2.24.22-.84.37-1.68.51-2.52,0-.22.05-.36.1-.36Zm7.28-12.66c.13,0,.21.11.21.34v.86c0,.31-.08.45-.21.45h-7.78c-.16,0-.22-.14-.22-.45v-.86c0-.23.06-.34.22-.34Zm-.62,3.27c.27,0,.4.11.4.34v6.12c0,.22-.13.33-.4.33h-.82c-.29,0-.42-.11-.42-.33v-.67h-4.25v.78c0,.22-.16.31-.43.31h-.82c-.29,0-.42-.09-.42-.31v-6.23c0-.23.13-.34.42-.34ZM153.18,492c.18,0,.29.08.29.17s-.06.3-.14.33-.18.14-.18.31v4.28c0,.81.45,1.2,1.35,1.2h1.25a3,3,0,0,0,1.65-.28,3.59,3.59,0,0,0,.85-1.59,2.71,2.71,0,0,0,1,.95c.22.11.35.22.35.36-.48,1.15-.82,1.79-1.06,1.9A2.29,2.29,0,0,1,157,500h-2.71c-1.94,0-2.89-.61-2.89-1.84V492c0-.14,0-.23.1-.23Zm2.68-3.1v-2.74h-4.25v2.74Zm.24,4.39,1,1.06s0,.08-.13.19l-.79,1.12a13.54,13.54,0,0,0-1.36-1.37,6,6,0,0,0-.93-.7,4.77,4.77,0,0,1,.72-1.14.25.25,0,0,1,.21-.17A14.74,14.74,0,0,1,156.1,493.26Zm3.47.22,1.07,1.06s-.06.08-.14.2a11.12,11.12,0,0,1-.82,1.11,12.63,12.63,0,0,0-1.38-1.36c-.43-.34-.74-.56-1-.73a5.61,5.61,0,0,1,.71-1.12.27.27,0,0,1,.22-.17C158.78,492.84,159.2,493.17,159.57,493.48Zm5.05-18c.45.37.85.67,1.19.95,0,.06-.05.11-.13.23l-.8,1.09a16,16,0,0,0-1.59-1.23,7.54,7.54,0,0,0-1.11-.62,4.32,4.32,0,0,1,.74-1.15.24.24,0,0,1,.18-.16C163.71,474.89,164.22,475.2,164.62,475.45Z"/><path class="cls-1" d="M147.36,508.74a.44.44,0,0,1-.32.42.89.89,0,0,0-.24.64c-.13,2-.29,3.69-.47,5-.11.73-.24,1.46-.4,2.21-.06.17-.11.25-.13.25-.59-.16-1.12-.3-1.54-.39a.23.23,0,0,1-.22-.25c.24-1,.45-2,.67-3.16a48.91,48.91,0,0,0,.45-5c0-.22.05-.36.21-.36C146.7,508.34,147.36,508.57,147.36,508.74Zm2.9-5.26c0,.25-.11.39-.27.42s-.27.22-.27.56v23.59q0,.33-.39.33h-1c-.29,0-.42-.11-.42-.33V503.48c0-.22.13-.33.42-.33C149.59,503.15,150.26,503.26,150.26,503.48Zm2,4.7c.53,1.56,1,3.24,1.46,5,0,.28-.08.42-.19.42a2.94,2.94,0,0,1-1.48.67c-.45-2.13-.88-3.91-1.25-5.37,0-.17.37-.47,1.14-.86A.42.42,0,0,1,152.22,508.18ZM167,503.82c.22,0,.32.14.32.42v.89c0,.28-.1.42-.32.42h-5.62l-.8,3.07h5.07c.27,0,.42.12.42.31v6.35h2.08c.21,0,.31.16.31.44v.87c0,.28-.1.42-.31.42H152.75c-.21,0-.32-.14-.32-.42v-.87c0-.28.11-.44.32-.44H157l1.27-4.92h-3.61c-.21,0-.32-.14-.32-.42V509c0-.28.11-.42.32-.42h4.06l.8-3.07h-5.79c-.21,0-.32-.14-.32-.42v-.89c0-.28.11-.42.32-.42Zm-.82,16c.27,0,.4.11.4.34v7.85c0,.22-.13.33-.4.33h-1c-.3,0-.43-.11-.43-.33v-1h-8.31v1c0,.22-.13.33-.4.33h-1c-.29,0-.43-.11-.43-.33v-7.74a.4.4,0,0,1,.43-.45Zm-1.46,5.45v-3.69h-8.31v3.69Zm-.53-10v-4.92h-4.06l-1.28,4.92Z"/><path class="cls-1" d="M157.26,545.54a5.46,5.46,0,0,1-1.7,2l-.69-.81a4.36,4.36,0,0,0,1.78-3.19h-2v-3.35h3.18v3.07A5,5,0,0,1,157.26,545.54Z"/><path class="cls-1" d="M103.83,4.5a24,24,0,0,0,1.07-4c0-.23.15-.37.34-.37,1.51.56,2.28.92,2.28,1.09a.35.35,0,0,1-.29.34.6.6,0,0,0-.61.44c-.24.9-.5,1.74-.77,2.52h13.41a.27.27,0,0,1,.29.31V5.9c0,.3-.11.44-.29.44h-14.1c-.18.45-.37.84-.53,1.23A34,34,0,0,1,102.77,11V25c0,.23-.18.34-.53.34h-1c-.3,0-.43-.11-.43-.34V13.44A21.46,21.46,0,0,1,97.91,16a.72.72,0,0,1-.45.14.52.52,0,0,1-.48-.33,3.68,3.68,0,0,0-.63-.73.36.36,0,0,1-.22-.36c0-.09.06-.17.19-.23a7,7,0,0,0,1.86-1.25,15.08,15.08,0,0,0,2.79-3,17.78,17.78,0,0,0,2.17-3.95H97.36c-.22,0-.3-.14-.3-.44V4.81c0-.2.08-.31.3-.31ZM111,13.44V9.08c0-.22.13-.33.42-.33q2.07,0,2.07.33c0,.26-.1.39-.26.39s-.27.26-.27.59v3.38h5.31c.19,0,.29.17.29.45V15c0,.28-.1.42-.29.42h-5.31v7.43h6.35c.18,0,.29.14.29.45v.87c0,.28-.11.42-.29.42H104.63c-.21,0-.32-.14-.32-.42v-.87c0-.31.11-.45.32-.45H111V15.4h-5.5c-.21,0-.32-.14-.32-.42V13.89c0-.28.11-.45.32-.45Z"/><path class="cls-1" d="M120,39.1c.21,0,.31.19.31.53v1.12c0,.36-.1.53-.31.53H96.75c-.22,0-.32-.17-.32-.53V39.63c0-.34.1-.53.32-.53Z"/><path class="cls-1" d="M105.67,64.86c0,.17-.08.26-.19.26-.29,0-.48.11-.53.28a31.45,31.45,0,0,1-1.89,3.21v12.3q0,.33-.39.33h-1c-.29,0-.42-.11-.42-.33v-10l-.11.11a46,46,0,0,1-3.64,3.36.71.71,0,0,1-.5-.25c-.24-.2-.51-.42-.77-.65a.37.37,0,0,1-.16-.3c.87-.73,1.78-1.51,2.68-2.35a17.5,17.5,0,0,0,3-3.61,19.6,19.6,0,0,0,1.75-3.44c0-.14.05-.22.1-.22C105,64.28,105.67,64.72,105.67,64.86Zm-2.18-6.65V56c0-.19.13-.3.42-.3,1.3,0,2,.11,2,.3s-.11.42-.27.42-.26.23-.26.59v1.2h6.42V56c0-.19.13-.3.43-.3,1.3,0,2,.11,2,.3s-.11.42-.26.42-.24.23-.24.59v1.2h6.42c.21,0,.32.14.32.42v.87c0,.31-.11.45-.32.45h-6.42v2.51c0,.22-.16.34-.43.34h-1c-.3,0-.43-.12-.43-.34V60h-6.42v2.4c0,.22-.14.33-.4.33h-1c-.29,0-.42-.11-.42-.33V60H96.75c-.22,0-.32-.14-.32-.45v-.87c0-.28.1-.42.32-.42ZM119.1,68.83A13.6,13.6,0,0,1,117,70.12a25,25,0,0,1-6,2v5.51c0,.81.48,1.2,1.46,1.2h4c1,0,1.6-.17,1.81-.56a11.47,11.47,0,0,0,.9-3.38,2.94,2.94,0,0,0,1.09,1c.21.11.35.23.35.39-.48,2.21-.85,3.41-1.12,3.64a1.75,1.75,0,0,1-1.67.72h-5.6c-2.07,0-3.11-.67-3.11-2V64.64c0-.22,0-.33.21-.33l1.75.25c.22,0,.32.11.32.19s-.08.31-.18.34a.28.28,0,0,0-.24.31v4.86a23.23,23.23,0,0,0,2.71-.81,15.85,15.85,0,0,0,3-1.4,8.9,8.9,0,0,0,1.86-1.42.86.86,0,0,1,.13,0c.11,0,.19.11.29.28a14.38,14.38,0,0,1,1.17,1.7c0,.23-.08.31-.21.31l-.61-.11A.49.49,0,0,0,119.1,68.83Z"/><path class="cls-1" d="M120,95c.21,0,.31.2.31.53v1.12c0,.36-.1.53-.31.53H96.75c-.22,0-.32-.17-.32-.53V95.52c0-.33.1-.53.32-.53Z"/><path class="cls-1" d="M103.49,114v-1.76c0-.22.13-.33.42-.33,1.3,0,2,.11,2,.33s-.11.39-.27.42-.26.23-.26.56V114h6.34v-1.76c0-.22.13-.33.4-.33,1.3,0,2,.11,2,.33s-.07.39-.23.42-.27.23-.27.56V114H120c.21,0,.31.14.31.42v.87c0,.31-.1.45-.31.45h-6.43v1.65c0,.22-.16.3-.42.3h-1c-.27,0-.4-.08-.4-.3v-1.65h-6.34v1.65c0,.22-.14.3-.4.3h-1c-.29,0-.42-.08-.42-.3v-1.65H96.43c-.22,0-.3-.14-.3-.45v-.87c0-.28.08-.42.3-.42Zm12.24,4.78c.26,0,.4.11.4.34v9.28c0,.22-.14.33-.4.33H109.3v2.41H120c.21,0,.31.16.31.44v.87c0,.28-.1.42-.31.42H109.3V137c0,.23-.16.34-.42.34h-1c-.29,0-.42-.11-.42-.34v-4.16H96.75c-.22,0-.32-.14-.32-.42v-.87c0-.28.1-.44.32-.44h10.67v-2.41H101c-.26,0-.4-.11-.4-.33v-9.28c0-.23.14-.34.4-.34Zm-1.46,4.06v-2.3H102.45v2.3Zm0,1.76H102.45V127h11.82Z"/><path class="cls-1" d="M120,150.88c.21,0,.31.2.31.53v1.12c0,.37-.1.53-.31.53H96.75c-.22,0-.32-.16-.32-.53v-1.12c0-.33.1-.53.32-.53Z"/><path class="cls-1" d="M99.35,173.58V167.9c0-.19.13-.31.4-.31,1.32,0,2,.12,2,.31s-.11.39-.27.42-.26.22-.26.56v4.7h2.07c.21,0,.31.16.31.44v.87c0,.31-.1.45-.31.45h-1.84a26.34,26.34,0,0,0,.85,2.51,13.09,13.09,0,0,0,1.78,3.1.42.42,0,0,1,.14.28c0,.06-.08.14-.19.23a6.24,6.24,0,0,1-.69.75c-.11.17-.21.23-.27.23s-.16-.06-.24-.2a14.14,14.14,0,0,1-1.51-3,1.24,1.24,0,0,1-.1-.31v13.61c0,.22-.16.34-.43.34h-1c-.27,0-.4-.12-.4-.34v-12.3c-.22.76-.45,1.43-.67,2a15.26,15.26,0,0,1-1.22,2.83.52.52,0,0,1-.4-.12l-1-.5c-.16,0-.21,0-.21-.14a24.08,24.08,0,0,0,1.56-3.27,23.23,23.23,0,0,0,1-2.93c.16-.62.34-1.57.58-2.85H96.75c-.22,0-.32-.14-.32-.45V174c0-.28.1-.44.32-.44Zm7.59,14.61c.21.56.37,1.12.53,1.68a.44.44,0,0,0,.21,0,14.23,14.23,0,0,0,1.57-.25c.21-.53.4-1.09.61-1.65.27-.95.48-1.76.61-2.46,0,0,0-.11.08-.11l1.81.62c.15.11.26.19.26.27s-.05.09-.13.09-.21.05-.24.11c-.19.62-.45,1.31-.77,2.07-.11.25-.21.47-.32.7l1.62-.34a1.3,1.3,0,0,1,.13,0,.21.21,0,0,1,.22.23,4.17,4.17,0,0,1-.11,1.31c-2.79.56-5.63,1.06-8.5,1.54-.21.42-.39.64-.53.64s-.45-.7-.93-2.07a26.57,26.57,0,0,0,2.76-.36c-.07-.31-.18-.64-.29-1a19.29,19.29,0,0,0-1-2.55c0-.11.46-.39,1.36-.86C106.3,186.6,106.67,187.44,106.94,188.19Zm.37-17.77V168c0-.22.13-.33.43-.33,1.3,0,2,.11,2,.33s-.08.39-.24.42-.26.23-.26.56v1.43h3.31c.14,0,.22.11.22.33v.87c0,.31-.08.45-.22.45H109.2v2.4h2.89c.13,0,.21.11.21.31v.89c0,.28-.08.42-.21.42h-7.67c-.16,0-.21-.14-.21-.42v-.89c0-.2.05-.31.21-.31h2.89v-2.4H104c-.13,0-.18-.14-.18-.45v-.87c0-.22,0-.33.18-.33Zm4.06,7.54c.27,0,.4.12.4.31v5.9c0,.22-.13.33-.4.33h-6.24q-.39,0-.39-.33v-5.9c0-.19.13-.31.39-.31ZM110,179.47h-3.53V183H110Zm5.79,1.9a20.43,20.43,0,0,1,.85,2.27,6.18,6.18,0,0,1-1.57.53,10.63,10.63,0,0,0-.61-1.9,16.76,16.76,0,0,0-1.35-2.57c0-.12.45-.39,1.35-.87C115,179.75,115.46,180.59,115.81,181.37Zm1.27-7.57v-4.47c0-.53,0-1,0-1.23a1.67,1.67,0,0,1-.06-.51c0-.05.14-.11.4-.11l2,.28c.16.11.27.2.27.25s-.11.23-.3.23c-.37.16-.53.56-.53,1.2v4.36h1.25c.21,0,.32.17.32.45v.86c0,.31-.11.45-.32.45h-1.25V191c0,1.23-.87,1.88-2.6,1.88H114.8c-.13,0-.19-.17-.19-.45a6.3,6.3,0,0,0-.45-1.2c0-.17,0-.23.21-.23a7.66,7.66,0,0,0,1.68.23c.69,0,1-.31,1-.87V175.56h-3.42c-.22,0-.32-.14-.32-.45v-.86c0-.28.1-.45.32-.45Z"/><path class="cls-1" d="M120,206.78c.21,0,.31.19.31.53v1.12c0,.36-.1.53-.31.53H96.75c-.22,0-.32-.17-.32-.53v-1.12c0-.34.1-.53.32-.53Z"/><path class="cls-1" d="M107.74,228.94v-5.15c0-.19.13-.3.42-.3,1.38,0,2.07.11,2.07.3s-.1.4-.26.42-.27.23-.27.56v4.17h10.17a.29.29,0,0,1,.32.33v1.09c0,.28-.11.42-.32.42H109.81A36.38,36.38,0,0,0,113,236a20.74,20.74,0,0,0,3.79,4.24,13.68,13.68,0,0,0,3.75,2.41c0,.17-.11.28-.3.33a11.9,11.9,0,0,0-1,1.18c-.14.17-.22.25-.27.25a19.86,19.86,0,0,1-4.59-3.75,21.06,21.06,0,0,1-3.45-4.5,19.77,19.77,0,0,1-1.2-2v14.4c0,.22-.18.33-.5.33h-1c-.29,0-.42-.11-.42-.33V233.44c-.85,1.39-1.62,2.57-2.26,3.46a37.93,37.93,0,0,1-3.64,4.25,29.79,29.79,0,0,1-4.48,3.61.54.54,0,0,1-.48-.2c-.37-.36-.75-.7-1.09-1a.87.87,0,0,1-.08-.28,24.15,24.15,0,0,0,3.45-2.43,24.6,24.6,0,0,0,4.12-4.31,63.24,63.24,0,0,0,3.69-5.73H96.85c-.21,0-.32-.14-.32-.42v-1.09a.29.29,0,0,1,.32-.33Z"/><path class="cls-1" d="M109.81,251.74c0,.28-.11.45-.27.48s-.24.22-.24.61v3.72h7.36a.88.88,0,0,1,.55.11,1.21,1.21,0,0,1,.59.87,33.75,33.75,0,0,1-3.56,5.61,36.34,36.34,0,0,1-5.65,5.73,31.34,31.34,0,0,1-4.17,3.05,12.2,12.2,0,0,0,2.25.84,20.83,20.83,0,0,0,3.91.78,61,61,0,0,0,6.69.25,16,16,0,0,0,2.92-.3c.13,0,.21.11.21.3a6.52,6.52,0,0,0-.82,1.79c-.06.25-.19.39-.43.39-2.65,0-5.1-.08-7.33-.19a32,32,0,0,1-4.85-.7,11.55,11.55,0,0,1-4.6-2.27,8,8,0,0,1-1.91-2.06,9.35,9.35,0,0,1-.61,1.67,27.85,27.85,0,0,1-2.07,3.78,1.05,1.05,0,0,1-.4-.23c-.37-.3-.77-.61-1.19-.92a.53.53,0,0,1-.16-.36,18.43,18.43,0,0,0,2-2.91,22.49,22.49,0,0,0,1.65-4.08.63.63,0,0,1,.37-.11h1.09c.21,0,.32.08.32.22a4.1,4.1,0,0,0,.74,2.38,1.79,1.79,0,0,0,.43.47,37.36,37.36,0,0,0,4.19-2.88,40.33,40.33,0,0,0,6-6,32.23,32.23,0,0,0,2.36-3.33H98.71c-.21,0-.29-.14-.29-.45v-1.09c0-.22.08-.33.29-.33h8.52v-4.81c0-.19.16-.31.51-.31C109.12,251.43,109.81,251.55,109.81,251.74Z"/><path class="cls-1" d="M106.7,280.36c.27,0,.43.11.43.31v8.74a.39.39,0,0,1-.43.45H99.45v14.62c0,.22-.16.33-.42.33H98c-.29,0-.42-.11-.42-.33V280.67c0-.2.13-.31.42-.31Zm-1.46,3.91V282H99.45v2.29Zm0,3.94v-2.29H99.45v2.29Zm7.57,3.38c.26,0,.42.12.42.34v10.14c0,.23-.16.34-.42.34h-1c-.21,0-.29-.11-.29-.34v-.64H105v.76c0,.22-.16.33-.43.33h-1a.29.29,0,0,1-.32-.33V291.93a.3.3,0,0,1,.32-.34Zm-1.33,4.06v-2.41H105v2.41Zm0,4.13v-2.51H105v2.51Zm7-19.42c.35,0,.54.11.54.31v21.4a2.34,2.34,0,0,1-1.2,2.07,8.14,8.14,0,0,1-2.84.79c-.21,0-.32-.12-.34-.34a6.53,6.53,0,0,0-.62-1.76c0-.11.08-.14.24-.14a4.89,4.89,0,0,0,2.45-.34,1.22,1.22,0,0,0,.45-1.06V289.86h-7.38c-.27,0-.4-.14-.4-.45v-8.74c0-.2.13-.31.4-.31Zm-1.32,3.91V282h-5.92v2.29Zm0,3.94v-2.29h-5.92v2.29Z"/><path class="cls-1" d="M103.46,308.33l.13.28c0,.17-.13.25-.39.25a.8.8,0,0,0-.75.31q-1.4,2.26-2.6,4.11c.59.53,1.14,1.06,1.7,1.62.11-.14.19-.28.27-.39,1-1.4,1.75-2.66,2.39-3.8a12.29,12.29,0,0,1,1.88,1.73c0,.14-.11.2-.32.2-.4,0-.64.08-.72.19-1.53,2.35-3,4.5-4.51,6.46,1-.06,2.13-.11,3.43-.22-.24-.65-.51-1.29-.8-1.93,0-.12.45-.39,1.35-.87a31.25,31.25,0,0,1,1.15,2.93c.26.84.5,1.71.71,2.63,0,.09-.53.28-1.54.56a17.41,17.41,0,0,0-.5-2.12l-1.89.39v11.76c0,.23-.16.34-.42.34h-1c-.26,0-.4-.11-.4-.34V321l-3,.59a3.72,3.72,0,0,1-.72.78,11.3,11.3,0,0,1-.53-2.63,10.58,10.58,0,0,1,2-.28c1-1.34,1.83-2.51,2.52-3.52-1-.78-1.64-1.34-2.12-1.67A18.73,18.73,0,0,0,96.32,313c0-.17.35-.61,1-1.37a.25.25,0,0,1,.21-.17l1.06.79c.5-.76,1-1.49,1.35-2.21.69-1.26,1.23-2.21,1.54-2.83Zm-3.9,15.43a.24.24,0,0,1,.19.25c0,.11-.14.28-.4.45-.32,2-.59,3.52-.8,4.47s-.48,1.76-.77,2.63a.75.75,0,0,1-.45-.14,3.17,3.17,0,0,0-.88-.31.23.23,0,0,1-.13-.22,7.46,7.46,0,0,0,.29-.81,21.79,21.79,0,0,0,.64-2.18c.13-.73.27-1.65.4-2.71a13.68,13.68,0,0,0,.13-1.82.1.1,0,0,1,.11-.11Zm5.49-.28c.3,1,.64,2.66,1,4.89,0,.23-.53.39-1.57.56-.16,0-.21-.05-.21-.19q-.24-2.36-.72-4.95c0-.17.46-.34,1.36-.53C105,323.26,105,323.34,105.05,323.48Zm14.69-12.6c.21.11.34.22.34.36s-.1.22-.26.28a.39.39,0,0,0-.43.31,17.71,17.71,0,0,1-1.88,3.41.85.85,0,0,1-.14.16h1.78c.19,0,.29.14.29.42v.9c0,.28-.1.42-.29.42h-6.93c-.1.83-.18,1.65-.29,2.4h8c.21,0,.31.17.31.45v.86c0,.31-.1.45-.31.45h-8.37c-.13.78-.26,1.45-.4,2.07H118a.76.76,0,0,1,.43.14,2.66,2.66,0,0,1,.5.73,16.75,16.75,0,0,1-1.2,2.76,9.11,9.11,0,0,1-1.38,2,4.19,4.19,0,0,1-.55.56,9.68,9.68,0,0,0,1.4.65,17.59,17.59,0,0,0,3.06.89c.16,0,.24.06.24.11a.54.54,0,0,1-.14.31,8.11,8.11,0,0,0-1,1c-.11.17-.21.25-.27.25a2.76,2.76,0,0,1-.4-.14c-.58-.17-1.24-.39-1.93-.64a19.62,19.62,0,0,1-2.34-1.18.28.28,0,0,0-.13-.08,13.23,13.23,0,0,1-2.42,1.26,14.34,14.34,0,0,1-2.52.78.51.51,0,0,1-.48-.22l-.56-.84a.45.45,0,0,1-.1-.25c0-.09,0-.14.1-.14.64-.14,1.28-.31,1.89-.48A10.46,10.46,0,0,0,113,329.6a2.66,2.66,0,0,1-.38-.36,5.29,5.29,0,0,1-1.35-1.87,7.2,7.2,0,0,1-.74-1.6,11.78,11.78,0,0,1-.69,1.6,15.23,15.23,0,0,1-1.49,2.34,14.7,14.7,0,0,1-2.55,2.49c-.18,0-.29-.05-.29-.17a10,10,0,0,1-.77-1.23.44.44,0,0,1-.19-.33,1.56,1.56,0,0,0,.75-.45,7.33,7.33,0,0,0,1.32-1.09,14.32,14.32,0,0,0,1.6-2.32,22.36,22.36,0,0,0,.93-2.32,28.88,28.88,0,0,0,.71-3H107c-.21,0-.32-.14-.32-.45V320c0-.28.11-.45.32-.45h3.13c.11-.7.21-1.51.32-2.4h-2.63c-.21,0-.32-.14-.32-.42v-.9c0-.28.11-.42.32-.42h9.06a.14.14,0,0,1-.14-.08l-1-.45c-.14-.05-.19-.08-.19-.14a.29.29,0,0,1,.11-.19,13.71,13.71,0,0,0,1.35-1.88,8.18,8.18,0,0,0,1-2.09c0-.2.13-.31.24-.31Zm-1.41-1.77a25.94,25.94,0,0,1-4.57,1.1,45.54,45.54,0,0,1-6.13.39c-.29,0-.48-.09-.53-.31a3.73,3.73,0,0,0-.32-1,.83.83,0,0,1-.08-.36,43.09,43.09,0,0,0,6.19-.34,18,18,0,0,0,4.88-1.17,1.4,1.4,0,0,1,.45-.11.48.48,0,0,1,.29.14c.83.78,1.25,1.25,1.25,1.48s-.1.44-.32.44l-.61-.33A3.85,3.85,0,0,0,118.33,309.11Zm-8.74,3.81a12.56,12.56,0,0,1,.64,1.59,4.52,4.52,0,0,1-1.56.56,8.27,8.27,0,0,0-.46-1.29,11.53,11.53,0,0,0-1-1.76c0-.11.43-.42,1.33-.89A20.55,20.55,0,0,1,109.59,312.92Zm4.09-.26a12.79,12.79,0,0,1,.59,1.65,5.32,5.32,0,0,1-1.54.53,13.07,13.07,0,0,0-.45-1.34,12.27,12.27,0,0,0-.91-1.81c0-.12.45-.42,1.36-.87C113.1,311.49,113.42,312.11,113.68,312.66ZM112.25,326a6.86,6.86,0,0,0,1.27,1.82,4.23,4.23,0,0,0,.8.73,6.84,6.84,0,0,0,.72-.7,8.75,8.75,0,0,0,1.24-1.93,7.77,7.77,0,0,0,.48-1.06h-5A6,6,0,0,0,112.25,326Z"/><path class="cls-1" d="M103.46,336.28l.13.28c0,.17-.13.25-.39.25s-.64.11-.75.31q-1.4,2.26-2.6,4.11c.59.53,1.14,1.06,1.7,1.62.11-.14.19-.28.27-.39,1-1.4,1.75-2.66,2.39-3.81a12.6,12.6,0,0,1,1.88,1.74c0,.14-.11.19-.32.19-.4,0-.64.09-.72.2-1.53,2.35-3,4.5-4.51,6.46,1-.06,2.13-.12,3.43-.23-.24-.64-.51-1.28-.8-1.93,0-.11.45-.39,1.35-.86a31.25,31.25,0,0,1,1.15,2.93c.26.84.5,1.71.71,2.63a4.5,4.5,0,0,1-1.54.56,17.1,17.1,0,0,0-.5-2.13l-1.89.39v11.77c0,.22-.16.34-.42.34h-1c-.26,0-.4-.12-.4-.34V349l-3,.58a3.65,3.65,0,0,1-.72.79,11.3,11.3,0,0,1-.53-2.63,9.6,9.6,0,0,1,2-.28c1-1.34,1.83-2.51,2.52-3.52-1-.78-1.64-1.34-2.12-1.68A20,20,0,0,0,96.32,341c0-.17.35-.62,1-1.37a.23.23,0,0,1,.21-.17l1.06.78c.5-.75,1-1.48,1.35-2.21.69-1.25,1.23-2.2,1.54-2.82Zm-3.9,15.43a.23.23,0,0,1,.19.25c0,.11-.14.28-.4.45-.32,2-.59,3.52-.8,4.47s-.48,1.76-.77,2.62a.69.69,0,0,1-.45-.14,3.15,3.15,0,0,0-.88-.3.25.25,0,0,1-.13-.23,6.18,6.18,0,0,0,.29-.81,21,21,0,0,0,.64-2.18c.13-.72.27-1.65.4-2.71a13.41,13.41,0,0,0,.13-1.81.11.11,0,0,1,.11-.12Zm5.49-.28c.3,1,.64,2.65,1,4.89,0,.22-.53.39-1.57.56-.16,0-.21-.06-.21-.2q-.24-2.34-.72-4.95c0-.16.46-.33,1.36-.53C105,351.2,105,351.29,105.05,351.43Zm14.69-12.61c.21.11.34.23.34.37s-.1.22-.26.27a.4.4,0,0,0-.43.31,17.41,17.41,0,0,1-1.88,3.41,1,1,0,0,1-.14.17h1.78c.19,0,.29.14.29.42v.89c0,.28-.1.42-.29.42h-6.93c-.1.84-.18,1.65-.29,2.41h8c.21,0,.31.16.31.44v.87c0,.31-.1.45-.31.45h-8.37c-.13.78-.26,1.45-.4,2.07H118a.69.69,0,0,1,.43.14,2.86,2.86,0,0,1,.5.72,16.92,16.92,0,0,1-1.2,2.77,9.11,9.11,0,0,1-1.38,2,5.86,5.86,0,0,1-.55.56,9.7,9.7,0,0,0,1.4.64,16.66,16.66,0,0,0,3.06.9c.16,0,.24.05.24.11a.57.57,0,0,1-.14.31,8,8,0,0,0-1,1c-.11.17-.21.26-.27.26a2.76,2.76,0,0,1-.4-.14c-.58-.17-1.24-.39-1.93-.65a18.22,18.22,0,0,1-2.34-1.17.21.21,0,0,0-.13-.08,12.59,12.59,0,0,1-2.42,1.25,15.16,15.16,0,0,1-2.52.79.51.51,0,0,1-.48-.23l-.56-.84a.43.43,0,0,1-.1-.25c0-.08,0-.14.1-.14.64-.14,1.28-.3,1.89-.47a10.8,10.8,0,0,0,2.71-1.23,2.23,2.23,0,0,1-.38-.37,5.2,5.2,0,0,1-1.35-1.87,7.12,7.12,0,0,1-.74-1.59,11.61,11.61,0,0,1-.69,1.59,13.7,13.7,0,0,1-4,4.84c-.18,0-.29-.06-.29-.17a11.74,11.74,0,0,1-.77-1.23.45.45,0,0,1-.19-.34,1.51,1.51,0,0,0,.75-.44,7.78,7.78,0,0,0,1.32-1.09,14.32,14.32,0,0,0,1.6-2.32,22.36,22.36,0,0,0,.93-2.32,29.51,29.51,0,0,0,.71-3H107c-.21,0-.32-.14-.32-.45v-.87c0-.28.11-.44.32-.44h3.13c.11-.7.21-1.51.32-2.41h-2.63c-.21,0-.32-.14-.32-.42v-.89c0-.28.11-.42.32-.42h9.06a.16.16,0,0,1-.14-.08l-1-.45c-.14-.06-.19-.08-.19-.14s0-.11.11-.2a13.68,13.68,0,0,0,1.35-1.87,8.4,8.4,0,0,0,1-2.1c0-.19.13-.3.24-.3Zm-1.41-1.76a25.1,25.1,0,0,1-4.57,1.09,44,44,0,0,1-6.13.39c-.29,0-.48-.08-.53-.3a3.61,3.61,0,0,0-.32-1,.87.87,0,0,1-.08-.37,44.89,44.89,0,0,0,6.19-.33,18.37,18.37,0,0,0,4.88-1.18,1.73,1.73,0,0,1,.45-.11.55.55,0,0,1,.29.14c.83.78,1.25,1.26,1.25,1.48s-.1.45-.32.45l-.61-.33A2.65,2.65,0,0,0,118.33,337.06Zm-8.74,3.8a13.34,13.34,0,0,1,.64,1.6,4.4,4.4,0,0,1-1.56.55,8.21,8.21,0,0,0-.46-1.28,11.07,11.07,0,0,0-1-1.76c0-.11.43-.42,1.33-.9A20.55,20.55,0,0,1,109.59,340.86Zm4.09-.25a11.8,11.8,0,0,1,.59,1.65,5.73,5.73,0,0,1-1.54.53,13.07,13.07,0,0,0-.45-1.34,12.35,12.35,0,0,0-.91-1.82c0-.11.45-.42,1.36-.86C113.1,339.44,113.42,340.05,113.68,340.61ZM112.25,354a7,7,0,0,0,1.27,1.82,3.87,3.87,0,0,0,.8.72,5.9,5.9,0,0,0,.72-.69,9,9,0,0,0,1.24-1.93,8,8,0,0,0,.48-1.07h-5A6.42,6.42,0,0,0,112.25,354Z"/><path class="cls-1" d="M100.38,372.81c0,2.12-.08,4-.21,5.47h5.5v-3H102c-.21,0-.29-.14-.29-.42V374c0-.28.08-.42.29-.42h3.64v-2.18c0-.23.13-.34.42-.34,1.3,0,2,.11,2,.34s-.1.39-.26.39-.27.25-.27.59v1.2h5.21v-2.18c0-.23.13-.34.4-.34,1.3,0,2,.11,2,.34s-.08.39-.24.39-.26.25-.26.59v1.2h4c.21,0,.32.14.32.42v.89c0,.28-.11.42-.32.42h-4v3h5.28c.21,0,.32.14.32.42v.9c0,.28-.11.42-.32.42h-8.44a14.3,14.3,0,0,0,1.14,2.06,8.93,8.93,0,0,0,1.78,2.07s0,.06.08.06a34.23,34.23,0,0,0,2.78-2.43.94.94,0,0,1,.48-.23.68.68,0,0,1,.37.2c1,.78,1.49,1.26,1.49,1.42s-.11.34-.29.34l-.64-.11a.94.94,0,0,0-.58.25c-.67.48-1.41,1-2.23,1.68a2.39,2.39,0,0,0,.5.33,15.22,15.22,0,0,0,2.1,1c.37.11.82.22,1.35.39.14,0,.22,0,.22.14a.58.58,0,0,1-.24.42c-.27.33-.51.64-.77,1a.53.53,0,0,1-.46.26,15.23,15.23,0,0,1-3.26-1.6,12.77,12.77,0,0,1-2.07-1.62,12,12,0,0,1-1.86-2.23,22.71,22.71,0,0,1-1.75-3.41h-3.4v5.75c1.62-.28,3.16-.58,4.62-.92l.16,0a.21.21,0,0,1,.21.23,5.48,5.48,0,0,1-.11,1.53c-2.86.56-5.78,1.07-8.7,1.51-.27.51-.45.79-.61.79s-.53-.79-1.07-2.3c1-.11,2.26-.27,3.64-.5V380H100c0,.28-.08.56-.1.78a21.81,21.81,0,0,1-1.25,4.92,13.21,13.21,0,0,1-1.35,2.82.91.91,0,0,1-.3-.05,4.23,4.23,0,0,0-1-.76.66.66,0,0,1-.11-.39,14.67,14.67,0,0,0,1.41-3.41,36.17,36.17,0,0,0,.9-4.78c.16-1.73.27-3.83.27-6.34V364.5c0-.27.13-.41.42-.41h19.41c.26,0,.4.11.4.33v5.34c0,.31-.14.45-.4.45h-18Zm0-4.36h16.49v-2.63H100.38Zm12.35,9.83v-3h-5.21v3Z"/><path class="cls-1" d="M106.7,392.14c.27,0,.43.12.43.31v8.75a.39.39,0,0,1-.43.45H99.45v14.61c0,.23-.16.34-.42.34H98c-.29,0-.42-.11-.42-.34V392.45c0-.19.13-.31.42-.31Zm-1.46,3.92v-2.3H99.45v2.3Zm0,3.94v-2.29H99.45V400Zm8.92,3.83c.13,0,.21.11.21.3v.9c0,.28-.08.42-.21.42h-2.39v3.27h3.64c.13,0,.21.11.21.33v.87c0,.31-.08.45-.21.45h-3.64v5.56c0,.22-.13.33-.4.33h-1a.29.29,0,0,1-.32-.33v-5.56H106.7a10.12,10.12,0,0,1-.32,1.48,6,6,0,0,1-1.8,2.85,12.12,12.12,0,0,1-2.34,1.68.65.65,0,0,1-.48-.17q-.36-.51-.69-.9a.53.53,0,0,1-.18-.36,7.63,7.63,0,0,0,3.74-3.66,4.27,4.27,0,0,0,.24-.92h-3.45c-.16,0-.21-.14-.21-.45v-.87c0-.22.05-.33.21-.33h3.69c0-.31,0-.62,0-.9v-2.37h-2.46c-.16,0-.22-.14-.22-.42v-.9c0-.19.06-.3.22-.3ZM110,405.45h-3.11v2.35c0,.33,0,.64,0,.92H110Zm8.39-13.31c.34,0,.53.12.53.31v21.21a2.33,2.33,0,0,1-1.27,2.07,10,10,0,0,1-3.08.76c-.22,0-.32-.11-.35-.34a5.2,5.2,0,0,0-.58-1.73c0-.11.08-.17.24-.17a5.92,5.92,0,0,0,2.68-.33,1.21,1.21,0,0,0,.5-1.07V401.53H110c-.29,0-.43-.14-.43-.44v-8.64c0-.19.14-.31.43-.31Zm-1.33,3.92v-2.3h-5.6v2.3Zm0,3.83v-2.18h-5.6v2.18Z"/><path class="cls-1" d="M109.36,433.76a5.72,5.72,0,0,1-1.7,1.95l-.69-.81a4.42,4.42,0,0,0,1.78-3.18h-2v-3.36H110v3.08A5.18,5.18,0,0,1,109.36,433.76Z"/><path class="cls-1" d="M59.72,5.14V.45c0-.23.13-.34.43-.34,1.38,0,2.07.11,2.07.34s-.11.39-.27.42-.26.22-.26.56V5.14h8.92c.34,0,.53.11.53.34V18.14c0,.22-.19.33-.53.33h-1c-.26,0-.4-.11-.4-.33V16.07H61.69v9.06c0,.22-.19.33-.51.33h-1c-.3,0-.43-.11-.43-.33V16.07h-8v2c0,.22-.18.33-.5.33h-1c-.29,0-.42-.11-.42-.33V5.59c0-.28.13-.45.42-.45Zm0,9v-7h-8v7Zm2,0h7.48v-7H61.69Z"/><path class="cls-1" d="M55.16,31.44v3.83H59c.21,0,.31.17.31.45v.86c0,.31-.1.45-.31.45H55.5a19.3,19.3,0,0,0,1.73,3.16A14.81,14.81,0,0,0,59.72,43a.55.55,0,0,1-.18.42c-.27.25-.61.59-1.07,1,0,0-.1,0-.15-.12A8.69,8.69,0,0,1,56.7,42.4a23.51,23.51,0,0,1-1.54-2.85V53c0,.22-.14.34-.4.34h-1c-.29,0-.42-.12-.42-.34V41.25a25.14,25.14,0,0,1-1.54,2.8,15.45,15.45,0,0,1-2.1,2.79.57.57,0,0,1-.45-.14A8.54,8.54,0,0,1,48,46.11c-.16,0-.24,0-.24-.14a21.64,21.64,0,0,0,2.63-3.24A15.78,15.78,0,0,0,52,39.82,23.45,23.45,0,0,0,53,37H48.73c-.21,0-.32-.14-.32-.45v-.86c0-.28.11-.45.32-.45H53.3V31.92a19.65,19.65,0,0,1-3.93.41.42.42,0,0,1-.48-.36,8.72,8.72,0,0,0-.58-1.06c0-.28.1-.45.31-.45a20.2,20.2,0,0,0,4.89-.39,8.34,8.34,0,0,0,4.06-1.84.51.51,0,0,1,.4-.17c.08,0,.19.08.35.22a14,14,0,0,1,1.08,1.43c0,.22-.08.33-.18.33l-.75-.11A11.79,11.79,0,0,1,55.16,31.44ZM72.49,42.26v1.09c0,.3-.1.44-.32.44l-2.49.7V53c0,.22-.14.34-.4.34H68.22c-.27,0-.4-.12-.4-.34V45L60,47.18c-.21,0-.32-.14-.32-.45V45.64c0-.28.11-.42.32-.42L67.82,43V28.39c0-.22.13-.33.4-.33,1.32,0,2,.11,2,.33s-.11.39-.27.42-.26.23-.26.56V42.54l2.49-.7C72.39,41.84,72.49,42,72.49,42.26Zm-8.33-3.75c.74.59,1.35,1.12,1.88,1.57,0,.05-.05.11-.11.22a12.12,12.12,0,0,1-.82,1.2,26.5,26.5,0,0,0-2.6-2,13.14,13.14,0,0,0-1.86-1.06,5.85,5.85,0,0,1,.82-1.2c.08-.12.16-.2.22-.2A22.56,22.56,0,0,1,64.16,38.51Zm.45-7c.71.64,1.32,1.23,1.86,1.73a.84.84,0,0,1-.14.22l-.79,1.21A22.46,22.46,0,0,0,63,32.39a13.9,13.9,0,0,0-1.81-1.15A5.19,5.19,0,0,1,62,30c.05-.11.13-.19.21-.19C63.17,30.43,64,31,64.61,31.47Z"/><path class="cls-1" d="M59.4,56.56c.27,0,.43.12.43.34v8.94a.39.39,0,0,1-.43.45h-8V81c0,.22-.16.33-.43.33H50c-.29,0-.43-.11-.43-.33V56.9c0-.22.14-.34.43-.34Zm-1.43,4V58.21H51.44v2.38Zm0,4v-2.4H51.44v2.4ZM70.5,56.56c.35,0,.53.12.53.34V78.48a2.36,2.36,0,0,1-1.19,2.09,8.9,8.9,0,0,1-3,.78c-.21,0-.32-.11-.35-.33A5.28,5.28,0,0,0,66,79.26c0-.11.08-.17.24-.17a5.31,5.31,0,0,0,2.52-.33,1.22,1.22,0,0,0,.45-1.07V66.29H61.9c-.27,0-.4-.14-.4-.45V56.9c0-.22.13-.34.4-.34Zm-1.33,4V58.21H63.36v2.38Zm0,4v-2.4H63.36v2.4Z"/><path class="cls-1" d="M69.31,85.66a38.87,38.87,0,0,1-6.43,1.23,75.48,75.48,0,0,1-8.33.44v2.85H70.31c.27,0,.4.12.4.34v10.14c0,.23-.13.34-.4.34h-1c-.29,0-.43-.11-.43-.34V99.13H54.52a19,19,0,0,1-.72,4.47,11,11,0,0,1-1.91,3.74,10,10,0,0,1-2.12,2.16.51.51,0,0,1-.27-.06,6.27,6.27,0,0,0-1-.75.52.52,0,0,1-.14-.4,9.32,9.32,0,0,0,2.34-2.51,13.85,13.85,0,0,0,1.46-3.55,20,20,0,0,0,.48-4.72V86.05c0-.28.13-.45.4-.45h.21c3.66,0,6.53-.17,8.6-.39a31.35,31.35,0,0,0,6.74-1.31,1.86,1.86,0,0,1,.64-.14.64.64,0,0,1,.32.14c.87.78,1.33,1.25,1.33,1.48,0,.39-.11.56-.32.56L70,85.6A4.55,4.55,0,0,0,69.31,85.66ZM54.55,97.39h14.3V91.94H54.55Z"/><path class="cls-1" d="M62.24,128c-.55-.79-1.32-1.79-2.33-3a34.49,34.49,0,0,0-2.76-2.82l1.22-1.48a40.81,40.81,0,0,1,5.41,5.84Z"/><path class="cls-1" d="M59.32,142.14v-2.41c0-.19.14-.31.4-.31,1.3,0,2,.12,2,.31s-.08.42-.24.42-.27.25-.27.59v1.4H71.46c.18,0,.29.16.29.44v.87c0,.31-.11.45-.29.45H61.18v1.95H69c.27,0,.4.11.4.34v10.59c0,.22-.13.34-.4.34h-1c-.3,0-.43-.12-.43-.34v-1H62.11a17.06,17.06,0,0,0,2,2.13,15,15,0,0,0,3.06,2.15,20.41,20.41,0,0,0,5.07,2.1c.24,0,.37.11.37.16a.44.44,0,0,1-.16.34,7.54,7.54,0,0,0-1,1c-.1.14-.18.22-.26.22a19.8,19.8,0,0,1-3.75-1.54,17,17,0,0,1-3.79-2.6,20.07,20.07,0,0,1-2.42-2.4v7.41c0,.22-.16.33-.42.33h-1c-.26,0-.4-.11-.4-.33V157.2c-.82.84-1.54,1.54-2.17,2.07a25.07,25.07,0,0,1-3.3,2.43,29.57,29.57,0,0,1-4.08,2.07.56.56,0,0,1-.45-.2c-.35-.33-.7-.67-1-.95a.66.66,0,0,1-.05-.28A22.91,22.91,0,0,0,51.41,161a20,20,0,0,0,3.77-2.37,28.5,28.5,0,0,0,3.06-2.83H53.09v1c0,.22-.14.34-.4.34H51.62c-.26,0-.39-.12-.39-.34V146.3c0-.28.13-.45.39-.45h7.7V143.9H49.45c-.21,0-.29-.14-.29-.45v-.87c0-.28.08-.44.29-.44Zm0,7.88v-2.41H53.09V150Zm0,4v-2.4H53.09V154Zm1.86-4H67.5v-2.41H61.18Zm0,4H67.5v-2.4H61.18Z"/><path class="cls-1" d="M51.94,176.23c.8.62,1.49,1.15,2.07,1.62a1.15,1.15,0,0,1-.13.25,15,15,0,0,1-.9,1.26,27.94,27.94,0,0,0-2.79-2.15,17.72,17.72,0,0,0-2-1.12,6.17,6.17,0,0,1,.79-1.23c.08-.11.16-.19.24-.19A29.79,29.79,0,0,1,51.94,176.23Zm1.33,5c.43,1,.64,1.57.64,1.62a1,1,0,0,1-.08.42c-.69,2.07-1.33,3.86-1.91,5.31-.32.84-.72,1.74-1.2,2.72a2.46,2.46,0,0,0-.13.95c0,.22-.08.33-.19.33s-.71-.59-1.7-1.76a.44.44,0,0,1-.18-.31.73.73,0,0,1,.1-.39,14,14,0,0,0,1.31-2c.58-1.07,1.14-2.3,1.72-3.67.48-1.17.93-2.26,1.3-3.27,0-.14.08-.22.14-.22S53.22,181.09,53.27,181.23Zm-.05-11.32c.87.62,1.62,1.21,2.25,1.71a.54.54,0,0,1-.13.25c-.58.87-.9,1.29-.9,1.29a28.08,28.08,0,0,0-3-2.3,15.5,15.5,0,0,0-2.15-1.2,5.63,5.63,0,0,1,.8-1.23c.08-.11.16-.19.24-.19C51.47,168.85,52.45,169.41,53.22,169.91Zm17.28,4.45c.21,0,.32.14.32.42,0,2.37,0,4.41-.11,6.12h1.57c.21,0,.32.17.32.45v.86c0,.31-.11.45-.32.45H70.66c0,1.15-.13,2.1-.19,2.85s-.13,1.4-.18,2h1.35c.21,0,.32.14.32.42v.86c0,.31-.11.45-.32.45H70.08c-.16.87-.32,1.56-.48,2.12a2.61,2.61,0,0,1-2.82,2c-1.54,0-2.33-.23-2.39-.62a4.59,4.59,0,0,0-.92-1.68v-.19a14.56,14.56,0,0,0,3.31.42c.72,0,1.2-.51,1.41-1.46a5.75,5.75,0,0,0,.16-.61H58c-.14.33-.24.67-.35,1a.45.45,0,0,1-.5.36l-1.44-.14c-.24,0-.34-.08-.34-.19.5-1,1-2,1.35-3a33.49,33.49,0,0,0,1.3-4.5h-1.3c-.21,0-.32-.14-.32-.45v-.86c0-.28.11-.45.32-.45h1.65a.54.54,0,0,1,0-.11,26.23,26.23,0,0,0,.3-6,.37.37,0,0,1,.42-.42Zm-9.82-6.18c.18.17.29.28.29.39a.28.28,0,0,1-.21.31.29.29,0,0,0-.29.28c-.08.34-.16.64-.24.92H72.07c.21,0,.32.17.32.45v.87c0,.3-.11.44-.32.44H59.72a2.18,2.18,0,0,1-.16.42c-.29.78-.61,1.54-.93,2.21a12.31,12.31,0,0,1-1.08,1.62A1.62,1.62,0,0,1,57,176c-.35-.14-.69-.28-1-.39-.1-.06-.16-.12-.16-.17a.23.23,0,0,1,.06-.2,12.27,12.27,0,0,0,1.56-2.74,15.19,15.19,0,0,0,.72-2c.21-.73.42-1.71.64-2.88,0-.11.08-.17.13-.17Zm8.09,17.08c.06-.7.14-1.57.19-2.6H59.88c-.05.28-.13.56-.18.78-.38,1.48-.75,2.82-1.12,4h10C68.64,186.82,68.72,186.1,68.77,185.26ZM69,180.9c0-1.4.08-3,.11-4.81H60.52a46,46,0,0,1-.35,4.81Zm-3.77,3.63c.66.5,1.25,1,1.73,1.4,0,0-.06.08-.14.19a10.72,10.72,0,0,1-.82,1.12c-.74-.64-1.49-1.25-2.28-1.81a16,16,0,0,0-1.65-.93,5.86,5.86,0,0,1,.72-1.11c.08-.12.16-.2.21-.2C63.94,183.69,64.69,184.14,65.27,184.53Zm.4-6.43c.66.51,1.25,1,1.72,1.37,0,.06,0,.11-.13.23-.5.72-.77,1.09-.79,1.09A27.71,27.71,0,0,0,64.18,179a8.55,8.55,0,0,0-1.64-.92,4.65,4.65,0,0,1,.71-1.15.27.27,0,0,1,.22-.17C64.37,177.26,65.08,177.71,65.67,178.1Z"/><path class="cls-1" d="M53.91,209.4V207c0-.22.13-.34.42-.34,1.3,0,2,.12,2,.34s-.11.39-.27.39-.24.25-.24.59v1.42h3.72c.21,0,.32.14.32.42v.9c0,.28-.11.42-.32.42H56.27a9.56,9.56,0,0,0,1,1.37,10.13,10.13,0,0,0,2.49,2.15c.13.05.21.14.21.19s-.08.14-.21.26a7.41,7.41,0,0,1-.85.92c-.1.17-.21.25-.29.25a.49.49,0,0,1-.34-.14,9.88,9.88,0,0,1-2.1-2.18c-.13-.17-.24-.34-.35-.5v7.29c0,.22-.16.34-.42.34h-1c-.29,0-.42-.12-.42-.34v-6.26a.55.55,0,0,0-.08.14A21.84,21.84,0,0,1,52,217.06a21.41,21.41,0,0,1-2.31,2,.55.55,0,0,1-.45-.17c-.35-.36-.69-.67-1-1a.81.81,0,0,1-.08-.28,10.85,10.85,0,0,0,1.78-1.34A13.84,13.84,0,0,0,52,214a25.62,25.62,0,0,0,1.73-2.85h-4.3c-.21,0-.29-.14-.29-.42v-.9c0-.28.08-.42.29-.42Zm5.49-11.46v-2.09c0-.2.14-.31.43-.31,1.3,0,2,.11,2,.31s-.08.39-.24.42-.26.22-.26.56v1.11h9.42c.22,0,.32.14.32.42v.87c0,.31-.1.45-.32.45H62.54a12.51,12.51,0,0,0,1.54,1.48A14,14,0,0,0,66.89,203a17.77,17.77,0,0,0,4.65,1.78c.21.06.31.12.31.17a.6.6,0,0,1-.13.34c-.4.33-.74.64-1.06.95-.11.17-.19.22-.24.22a15,15,0,0,1-3.48-1.31A14.74,14.74,0,0,1,63.41,203a19.25,19.25,0,0,1-2.12-2v5.9c0,.22-.16.33-.43.33h-1c-.29,0-.43-.11-.43-.33v-5.62c-.61.56-1.14,1-1.62,1.4a24.54,24.54,0,0,1-3.13,2.12,29.76,29.76,0,0,1-3.85,1.76.56.56,0,0,1-.48-.19c-.37-.37-.74-.7-1.08-1a.64.64,0,0,1-.08-.3,25.55,25.55,0,0,0,3-1.15,19.94,19.94,0,0,0,3.53-2,22.87,22.87,0,0,0,2.6-2.18H50.08c-.21,0-.31-.14-.31-.45v-.87c0-.28.1-.42.31-.42Zm6.14,11.46V207c0-.22.13-.34.42-.34,1.3,0,2,.12,2,.34s-.11.39-.27.39-.27.25-.27.59v1.42h4.15c.21,0,.31.14.31.42v.9c0,.28-.1.42-.31.42H67.71a19.51,19.51,0,0,0,1.49,2.51,10.4,10.4,0,0,0,2,2.29,6.89,6.89,0,0,0,1.94,1.32c0,.14-.08.22-.24.28-.34.39-.63.72-.87,1-.11.14-.19.22-.24.22a11.71,11.71,0,0,1-2.44-2.18A11.39,11.39,0,0,1,67.47,214c0-.06-.08-.09-.08-.14v6.9c0,.22-.13.34-.39.34H66c-.29,0-.42-.12-.42-.34v-6.93a8.16,8.16,0,0,1-.48.75A18.94,18.94,0,0,1,63.15,217a16.25,16.25,0,0,1-2.39,2.07.52.52,0,0,1-.45-.17c-.35-.36-.69-.67-1-1a.63.63,0,0,1-.08-.28,13.18,13.18,0,0,0,1.83-1.36,15.77,15.77,0,0,0,2.2-2.41A30,30,0,0,0,65,211.14H61.5c-.21,0-.32-.14-.32-.42v-.9c0-.28.11-.42.32-.42Z"/><path class="cls-1" d="M51.68,232.35l1.83,1.17a.7.7,0,0,1-.13.22c-.53.82-.8,1.21-.8,1.21a19.76,19.76,0,0,0-2.5-1.51,14.58,14.58,0,0,0-1.77-.79,5,5,0,0,1,.82-1.23c.08-.11.16-.19.24-.19A23,23,0,0,1,51.68,232.35Zm2.63,5.22c.42,1,.63,1.57.63,1.62a.73.73,0,0,1-.13.4c-.88,2-1.7,3.66-2.49,5-.43.79-1,1.65-1.54,2.6a1.67,1.67,0,0,0-.19.9c0,.22-.08.33-.19.33s-.71-.58-1.7-1.76a.4.4,0,0,1-.18-.3.51.51,0,0,1,.13-.37,13.64,13.64,0,0,0,1.57-1.87,30.06,30.06,0,0,0,2.15-3.52c.58-1.12,1.11-2.15,1.56-3.1.06-.12.14-.2.19-.2S54.25,237.43,54.31,237.57Zm-1.46-12c.77.53,1.43,1,2,1.45a.7.7,0,0,1-.13.22c-.53.79-.8,1.18-.82,1.18a26.49,26.49,0,0,0-2.71-1.87,14.45,14.45,0,0,0-1.94-.95,5.15,5.15,0,0,1,.8-1.23c.08-.12.16-.2.24-.2A27.14,27.14,0,0,1,52.85,225.53Zm16.69.19a23.5,23.5,0,0,1-4.64,1.15v4.47h7.17c.21,0,.32.14.32.42v.89c0,.28-.11.42-.32.42H64.9v4.81h5.6c.27,0,.43.11.43.34v10.25c0,.23-.16.34-.43.34h-1c-.27,0-.4-.11-.4-.34v-1.42H58.69v1.42c0,.23-.16.34-.43.34h-1c-.27,0-.4-.11-.4-.34V238.33c0-.28.13-.45.4-.45H63v-4.81H55.9c-.21,0-.32-.14-.32-.42v-.89c0-.28.11-.42.32-.42H63v-4.22a48.28,48.28,0,0,1-5.39.28c-.29,0-.48-.08-.53-.28a3.51,3.51,0,0,0-.32-1,.83.83,0,0,1-.08-.36,52.64,52.64,0,0,0,6.88-.42A20.15,20.15,0,0,0,69,224.07a1.13,1.13,0,0,1,.51-.16.43.43,0,0,1,.31.16c.83.79,1.25,1.26,1.25,1.49s-.1.41-.32.41l-.61-.3A4.31,4.31,0,0,0,69.54,225.72Zm-.47,19.6v-5.68H58.69v5.68Z"/><path class="cls-1" d="M6.11,5.9c.26,0,.42.11.42.33v4.25c0,.22-.16.34-.42.34H4.49l.82.36c.27.11.4.25.4.42s-.13.31-.37.36a.58.58,0,0,0-.61.39c-.16.34-.3.62-.4.87H7.94l.29-.39a6.94,6.94,0,0,0,.85-1.62c0-.11.05-.17.16-.17a12,12,0,0,1,1.86.87c0,.14-.11.25-.32.33a.53.53,0,0,0-.45.28c-.16.25-.32.48-.48.7h3.82c.14,0,.21.11.21.34v.86c0,.31-.07.45-.21.45h-4v1.42H13c.13,0,.21.12.21.31v.87c0,.31-.08.45-.21.45H9.64v1.42H13c.13,0,.21.11.21.34v.86c0,.28-.08.42-.21.42H9.64V22.5h4q.21,0,.21.33v.87c0,.28-.07.45-.21.45H4.35V25c0,.23-.16.34-.42.34h-1c-.21,0-.29-.11-.29-.34V16.35c-.18.25-.34.48-.48.64s-.37.39-.47.39a.69.69,0,0,1-.43-.19l-1-.45c-.16,0-.21-.08-.21-.14a.56.56,0,0,1,.13-.28A15,15,0,0,0,2,13.78,11.55,11.55,0,0,0,3.4,10.93a.12.12,0,0,1,.05-.11H1.75c-.26,0-.4-.12-.4-.34V6.23c0-.22.14-.33.4-.33ZM6.74.34c0,.25-.1.39-.26.41s-.27.23-.27.56V4.92c0,.22-.13.33-.4.33h-1c-.29,0-.43-.11-.43-.33V3.61H1c-.16,0-.22-.14-.22-.42V2.32C.82,2.1.88,2,1,2H4.35V.34c0-.23.14-.34.43-.34C6.08,0,6.74.11,6.74.34Zm-1.88,7H3V9.39H4.86Zm3,7.55H4.35v1.42H7.88Zm0,3.05H4.35v1.42H7.88Zm0,4.58V21H4.35V22.5Zm5-16.6c.26,0,.42.11.42.33v4.25c0,.22-.16.34-.42.34H8.39c-.27,0-.4-.12-.4-.34V6.23c0-.22.13-.33.4-.33Zm-2-5.56c0,.22-.07.36-.21.36s-.21.19-.21.5v.56H14.1c.13,0,.21.11.21.34V3c0,.31-.08.45-.21.45H10.46V4.92c0,.22-.13.33-.4.33H9c-.22,0-.32-.11-.32-.33V.22C8.71.08,8.81,0,9,0,10.25,0,10.88.11,10.88.34Zm.72,7h-2V9.39h2ZM20.84,9c0,.2-.08.31-.21.34a.84.84,0,0,0-.32.75v3.36a14,14,0,0,0,.26,2.2,22.87,22.87,0,0,0,.8,3.05,12.31,12.31,0,0,0,1.3,2.63A15.92,15.92,0,0,0,25,24c0,.11-.08.19-.21.28-.29.22-.61.44-.93.72a.57.57,0,0,1-.4.2,14.47,14.47,0,0,1-1.64-2,12.46,12.46,0,0,1-1.57-2.82,7.69,7.69,0,0,1-.35-.9,7.86,7.86,0,0,1-.63,1.71,8.49,8.49,0,0,1-1.65,2.23,11.47,11.47,0,0,1-2.36,1.82c-.11,0-.19-.09-.27-.23a4.71,4.71,0,0,0-.77-.72C14,24.18,14,24.09,14,24a12.6,12.6,0,0,0,2.36-1.76,7.58,7.58,0,0,0,1.2-1.68,9,9,0,0,0,.79-2.43,14.85,14.85,0,0,0,.22-2.55V9c0-.22,0-.33.1-.33A11.57,11.57,0,0,1,20.84,9Zm-2-8.33c.16.17.27.28.27.37a.3.3,0,0,1-.21.3q-.24,0-.24.42c-.22,1.34-.37,2.43-.53,3.3H24a.89.89,0,0,1,.45.11c.32.28.48.51.48.67L22.78,12c-.05.11-.13.17-.19.17-.95-.25-1.43-.48-1.43-.64l1.78-4.81H17.79c-.24,1-.48,2-.72,2.91s-.58,1.7-.9,2.43a1.44,1.44,0,0,1-.53-.09c-.32-.14-.64-.28-1-.39-.11,0-.16-.11-.16-.16s0-.23.05-.28A24,24,0,0,0,15.9,7.18c.24-.86.45-1.81.64-2.82S16.91,2,17.1.28c0-.17,0-.28.1-.28Z"/><path class="cls-1" d="M5.71,40.41c.26,0,.4.11.4.34v6.31a5.47,5.47,0,0,0,.26,1.88,1.67,1.67,0,0,0,.61,1,2.83,2.83,0,0,0,1.25.65,8.32,8.32,0,0,0,2.12.22h5.76a47.24,47.24,0,0,0,8-.78.82.82,0,0,1,.4-.09c.13,0,.21.06.21.12a12.5,12.5,0,0,0-.5,2.26c-.06.28-.19.45-.46.45H10.35a8.6,8.6,0,0,1-1.7-.17A11.81,11.81,0,0,1,7,52a5,5,0,0,1-1.31-1,7,7,0,0,1-.9-1.84l0-.14c-.16,0-.24.06-.24.11-1.86,1.93-2.89,3.24-3,3.91-.06.17-.14.26-.24.26s-.48-.48-1-1.43a1.22,1.22,0,0,1-.1-.56,20.09,20.09,0,0,0,4-3.46,1.39,1.39,0,0,0,.14-.79V42.14H1.14c-.21,0-.32-.14-.32-.41v-.9c0-.28.11-.42.32-.42ZM4.14,35.63c.85.45,1.57.84,2.18,1.18a.83.83,0,0,1-.13.22l-.8,1.2c-1-.56-1.94-1.06-3-1.54-.85-.33-1.57-.58-2.1-.75a5.21,5.21,0,0,1,.8-1.23c.07-.11.15-.2.23-.2C2.47,34.91,3.4,35.3,4.14,35.63Zm.74-6.34c.75.5,1.41.92,2,1.28a.61.61,0,0,1-.13.26L5.92,32a22.93,22.93,0,0,0-2.68-1.65,18.08,18.08,0,0,0-1.89-.87,6.56,6.56,0,0,1,.8-1.23c.08-.11.16-.19.24-.19C3.4,28.51,4.22,28.92,4.88,29.29Zm9.67.67c-.32.22-.69.45-1.06.67A14,14,0,0,1,12,31.3a10.39,10.39,0,0,1-1.09.31v12.6a35.17,35.17,0,0,0,3.72-1.67.2.2,0,0,1,.13-.06c.11,0,.19.08.19.22a5.41,5.41,0,0,1-.11,1.54,64.39,64.39,0,0,1-6.1,2.82c-.27.51-.45.76-.61.76S7.57,47.06,7,45.53a17.35,17.35,0,0,0,2-.62V29.71c0-.23.08-.34.29-.34l1.25.53a8.86,8.86,0,0,0,1-.36A6.5,6.5,0,0,0,13,28.76a5,5,0,0,0,.87-.79L14,28c.11,0,.19.08.29.25a14.31,14.31,0,0,1,1.17,1.62c0,.17-.08.22-.21.22l-.61-.11A.09.09,0,0,0,14.55,30ZM18.24,49c0,.22-.13.34-.4.34h-1c-.3,0-.43-.12-.43-.34V30a.38.38,0,0,1,.43-.44h6.31c.32,0,.51.16.51.44V44.69a1.55,1.55,0,0,1-1,1.42,6.72,6.72,0,0,1-2.36.51c-.19,0-.29-.09-.32-.31a6.42,6.42,0,0,0-.61-1.76c0-.06.05-.11.19-.11a4.4,4.4,0,0,0,1.85-.2.68.68,0,0,0,.35-.67V31.36H18.24Z"/><path class="cls-1" d="M7,56.26c.24.14.37.28.37.42a.58.58,0,0,1-.42.55.72.72,0,0,0-.74.62C6,58.46,5.76,59,5.58,59.5h7.06c.21,0,.32.17.32.45v.86c0,.31-.11.45-.32.45H9.13v0c-.05,2.71-.18,5-.37,6.84h5.12c.22,0,.32.17.32.45v.87c0,.28-.1.42-.32.42H8.68a20.37,20.37,0,0,0,2.1,3.85A15.05,15.05,0,0,0,13.59,77a.47.47,0,0,1-.21.44c-.29.26-.66.59-1.14,1a.33.33,0,0,1-.21-.11,10.82,10.82,0,0,1-1.84-2.18A44.37,44.37,0,0,1,8,72.1a18.3,18.3,0,0,1-1.59,4.34A18.08,18.08,0,0,1,3,81a1.26,1.26,0,0,1-.53-.08c-.37-.23-.72-.45-1.06-.68-.19,0-.27-.11-.27-.22a.41.41,0,0,1,.19-.33,13.1,13.1,0,0,0,3.79-4.9,21.21,21.21,0,0,0,1.52-4.94H1c-.22,0-.32-.14-.32-.42v-.87c0-.28.1-.45.32-.45H6.93a57.94,57.94,0,0,0,.32-6.87H4.88a28.3,28.3,0,0,1-1.83,3.6c-.26.37-.45.54-.55.54A.72.72,0,0,1,2,65.2L.93,64.67c-.16-.06-.21-.08-.21-.14a.74.74,0,0,1,.18-.39,23.8,23.8,0,0,0,2.37-3.75A18.35,18.35,0,0,0,5,56.2c.11-.39.24-.61.4-.61Zm16.65,2.82c.26,0,.42.11.42.31V79.06c0,.2-.16.31-.42.31h-1c-.26,0-.4-.11-.4-.31V77.41h-5v2.41q0,.33-.39.33h-1c-.29,0-.43-.11-.43-.33V59.5a.37.37,0,0,1,.43-.42Zm-1.44,16.6V60.81h-5V75.68Z"/><path class="cls-1" d="M14.2,83.76c0,.25-.1.39-.26.39s-.27.25-.27.58v1.51h8.74c.18,0,.29.17.29.45v.87c0,.3-.11.44-.29.44H18l1.08.48c.24.11.38.25.38.39a.36.36,0,0,1-.27.34.41.41,0,0,0-.4.36,23.93,23.93,0,0,1-1.27,3.13h6.61c.21,0,.32.17.32.45V94c0,.28-.11.42-.32.42H.82C.61,94.43.5,94.29.5,94v-.86c0-.28.11-.45.32-.45H7.91a11.87,11.87,0,0,0-.4-1.12,17.24,17.24,0,0,0-1.51-3c0-.08.21-.25.66-.53H2.5c-.22,0-.32-.14-.32-.44v-.87c0-.28.1-.45.32-.45h9.31V83.76c0-.23.14-.34.43-.34C13.54,83.42,14.2,83.53,14.2,83.76Zm6.11,12.88c.26,0,.42.11.42.31v11.9c0,.23-.16.34-.42.34h-1c-.26,0-.39-.11-.39-.34v-.75H6.42v.75c0,.23-.15.34-.42.34H5c-.26,0-.39-.11-.39-.34V97.06q0-.42.39-.42Zm-1.43,4.89V98.37H6.42v3.16Zm0,4.81v-3H6.42v3ZM15.16,92.7a13.43,13.43,0,0,0,1.19-2,11.69,11.69,0,0,0,.93-2.52s0-.08.06-.14H7.7c.53,1,1,1.79,1.3,2.58s.56,1.39.8,2.12Z"/><path class="cls-1" d="M5.6,124.89c.32,0,.51.12.51.34v6.54a7.57,7.57,0,0,0,.08,1.06,4.06,4.06,0,0,0,1.35,1.48,6.55,6.55,0,0,0,3.24.65h7.27c.64,0,1.73-.09,3.27-.26a21.94,21.94,0,0,0,3.24-.5c.1,0,.21,0,.32,0a.21.21,0,0,1,.21.23c-.32.61-.61,1.2-.83,1.73-.05.36-.21.56-.53.56H10.78a7.27,7.27,0,0,1-4.49-1.26,5.69,5.69,0,0,1-1.38-1.87c-.82.72-1.54,1.34-2.18,1.93a1,1,0,0,0-.61.72c0,.23-.05.37-.16.37s-.18-.09-.34-.26l-1.3-2a11.62,11.62,0,0,0,3.4-1.81.69.69,0,0,0,.42-.7v-5.12h-3c-.21,0-.32-.14-.32-.44v-.87c0-.28.11-.45.32-.45Zm.53-3.57c.11.05.19.14.19.19s-.05.14-.16.2c-.53.61-.88.89-1,.89a.48.48,0,0,1-.27-.08,27.2,27.2,0,0,0-3.72-2.18c-.1-.06-.15-.09-.15-.14a5.66,5.66,0,0,1,.82-1.12.5.5,0,0,1,.32-.2A35.26,35.26,0,0,1,6.13,121.32Zm.61-5.4c.14.09.22.17.22.25s-.06.14-.16.2c-.56.61-.88.89-1,.89a.37.37,0,0,1-.29-.11,25.66,25.66,0,0,0-4-2.68c-.1-.06-.16-.11-.16-.17a6.44,6.44,0,0,1,.83-1.12A.48.48,0,0,1,2.5,113,39,39,0,0,1,6.74,115.92ZM22,112.79c.27,0,.43.11.43.31V122c0,.22-.16.31-.43.31H16.7v1.42h6.42c.32,0,.51.17.51.45v8.58c0,.36-.27.64-.8.81a8.78,8.78,0,0,1-2,.34c-.21,0-.32-.12-.34-.34a5.61,5.61,0,0,0-.59-1.76s0-.06.13-.06a6.54,6.54,0,0,0,1.46-.08.36.36,0,0,0,.27-.34v-5.84H16.7v3.27c.66-.19,1.27-.39,1.86-.61a15.21,15.21,0,0,0-.72-1.46c0-.11.45-.41,1.35-.89.46.92.83,1.76,1.12,2.49a17.35,17.35,0,0,1,.74,2.21,4.4,4.4,0,0,1-1.56.55,8.5,8.5,0,0,0-.32-1.31c-2.21.7-4.41,1.31-6.61,1.87-.27.51-.48.76-.64.76s-.45-.73-.93-2.18c1.06-.2,2.34-.5,3.82-.9v-3.8H9.74v7.74c0,.23-.16.34-.42.34h-1c-.26,0-.4-.11-.4-.34v-9c0-.28.14-.45.4-.45h6.53v-1.42H9.74c-.29,0-.42-.09-.42-.31V113.1c0-.2.13-.31.42-.31Zm-7.17,3.91v-2.29H11.2v2.29Zm0,1.65H11.2v2.3h3.61Zm1.89-1.65h3.82v-2.29H16.7Zm3.82,1.65H16.7v2.3h3.82Z"/><path class="cls-1" d="M19.91,140.4c.27,0,.4.11.4.34v16.38c0,.22-.13.3-.4.3h-1c-.3,0-.43-.08-.43-.3V155.8H16v5.79c0,.81.47,1.2,1.46,1.2h2.89c1,0,1.67-.14,1.88-.42a7.54,7.54,0,0,0,.93-2.65,3,3,0,0,0,1.09,1c.24.11.37.22.37.39a8.78,8.78,0,0,1-1.19,2.91c-.27.39-.85.58-1.73.58H17.2c-2.07,0-3.1-.67-3.1-1.95V155.8H11.26a13.06,13.06,0,0,1-.56,2.91,10,10,0,0,1-1.38,2.88,7.32,7.32,0,0,1-1.75,1.56,16.42,16.42,0,0,1-2.82,1.18,11.94,11.94,0,0,1-3,.53.37.37,0,0,1-.37-.34c-.19-.44-.37-.86-.56-1.25a.47.47,0,0,1-.21-.37l.85.11a18.16,18.16,0,0,0,2-.36,10.79,10.79,0,0,0,2.29-.78,5.92,5.92,0,0,0,1.78-1.26,6.07,6.07,0,0,0,1.19-2.1,10.53,10.53,0,0,0,.61-2.71H6.85v1.32c0,.22-.16.3-.43.3h-1c-.29,0-.43-.08-.43-.3V140.74c0-.23.14-.34.43-.34Zm-1.46,4.47v-2.82H6.85v2.82Zm0,4.59v-2.82H6.85v2.82Zm0,4.58v-2.82H6.85V154Z"/><path class="cls-1" d="M7.17,168.94c.18.16.29.3.29.39a.42.42,0,0,1-.32.44c-.21,0-.34.14-.4.37-.32,1.17-.58,2.15-.82,2.9h6.32v-4.91c0-.23.13-.34.4-.34,1.32,0,2,.11,2,.34s-.11.39-.27.41-.26.23-.26.56V173h8.7c.22,0,.32.12.32.34v1.09c0,.28-.1.42-.32.42H14.1v6.23h7.46c.21,0,.32.17.32.45v.87c0,.27-.11.41-.32.41H14.1v7.44h10a.29.29,0,0,1,.32.33v1.09c0,.28-.11.42-.32.42H1c-.22,0-.32-.14-.32-.42v-1.09c0-.22.1-.33.32-.33h11.2v-7.44H4.14c-.21,0-.32-.14-.32-.41v-.87c0-.28.11-.45.32-.45h8.1v-6.23h-7c-.38.89-.75,1.76-1.15,2.57A16.81,16.81,0,0,1,2.6,179.7a1.21,1.21,0,0,1-.61-.12c-.37-.16-.72-.3-1.09-.44-.13-.06-.18-.14-.18-.2a.28.28,0,0,1,.1-.25A17.11,17.11,0,0,0,3.11,175a20.71,20.71,0,0,0,1-2.68,32.28,32.28,0,0,0,.93-3.83c0-.17.13-.25.21-.25Z"/><path class="cls-1" d="M3.77,204.4l1.83,1.17a.7.7,0,0,1-.13.23c-.53.81-.8,1.2-.8,1.2a20.88,20.88,0,0,0-2.49-1.51,16,16,0,0,0-1.78-.78,4.76,4.76,0,0,1,.82-1.23c.08-.11.16-.2.24-.2A25.46,25.46,0,0,1,3.77,204.4Zm2.63,5.23c.42,1,.64,1.56.64,1.62a.69.69,0,0,1-.14.39c-.87,2-1.7,3.66-2.49,5.06-.43.78-1,1.65-1.54,2.6a1.61,1.61,0,0,0-.19.89c0,.23-.08.34-.18.34s-.72-.59-1.7-1.76a.42.42,0,0,1-.19-.31.49.49,0,0,1,.13-.36,13.77,13.77,0,0,0,1.57-1.88,29.25,29.25,0,0,0,2.15-3.52c.58-1.12,1.12-2.15,1.57-3.1,0-.11.13-.2.18-.2S6.35,209.49,6.4,209.63Zm-1.46-12c.77.53,1.43,1,2,1.45a.83.83,0,0,1-.14.23A13.61,13.61,0,0,1,6,200.43a28.18,28.18,0,0,0-2.71-1.87,13.89,13.89,0,0,0-1.94-.95,5.63,5.63,0,0,1,.8-1.23c.08-.11.16-.2.24-.2C3.42,196.69,4.27,197.16,4.94,197.58Zm16.7.2A24.53,24.53,0,0,1,17,198.92v4.47h7.17c.21,0,.32.14.32.42v.9c0,.28-.11.42-.32.42H17v4.8h5.6c.27,0,.43.12.43.34v10.26c0,.22-.16.33-.43.33h-1c-.27,0-.4-.11-.4-.33V219.1H10.78v1.43c0,.22-.16.33-.43.33h-1c-.27,0-.4-.11-.4-.33V210.38c0-.28.13-.45.4-.45h5.81v-4.8H8c-.21,0-.32-.14-.32-.42v-.9c0-.28.11-.42.32-.42h7.14v-4.22a48.28,48.28,0,0,1-5.39.28c-.29,0-.47-.08-.53-.28a3.35,3.35,0,0,0-.32-1,.91.91,0,0,1-.08-.37,50.92,50.92,0,0,0,6.88-.42,20.54,20.54,0,0,0,5.36-1.28,1.21,1.21,0,0,1,.51-.17.48.48,0,0,1,.32.17c.82.78,1.24,1.26,1.24,1.48s-.1.42-.32.42l-.61-.31A2.89,2.89,0,0,0,21.64,197.78Zm-.48,19.59V211.7H10.78v5.67Z"/><path class="cls-1" d="M8.26,224.07a.39.39,0,0,1,.34.4c0,.27-.13.39-.4.39a.53.53,0,0,0-.32.36c-.53,1.26-1,2.35-1.53,3.27h4.11c.27,0,.42.11.42.34v18.55c0,.23-.15.34-.42.34h-1c-.26,0-.39-.11-.39-.34V246H3.42v2.18c0,.22-.15.33-.42.33H2c-.29,0-.42-.11-.42-.33v-19.2c0-.28.13-.45.42-.45H4.35a46.09,46.09,0,0,0,2.07-4.58.33.33,0,0,1,.32-.23ZM9,236.26v-6H3.42v6Zm0,8V238H3.42v6.24Zm9.13-20c.18.16.29.28.29.39a.3.3,0,0,1-.21.3.39.39,0,0,0-.4.34c-.4,1.23-.74,2.21-1.06,3h6.56a.48.48,0,0,1,.5.53c0,6.38-.11,10.76-.32,13.2a16,16,0,0,1-1,4.66,2.73,2.73,0,0,1-1.43,1.54,7.85,7.85,0,0,1-3,.48c-1.11,0-1.7-.2-1.7-.56a8.24,8.24,0,0,0-.37-1.4c0-.17,0-.22.11-.22l.21,0a11.58,11.58,0,0,0,1.35.09,4.35,4.35,0,0,0,2.66-.59c.53-.42.9-1.59,1.11-3.52A109.4,109.4,0,0,0,22,229.92H16a18,18,0,0,1-.9,1.64,17.81,17.81,0,0,1-1.59,2,2,2,0,0,1-.59-.08l-1-.42c-.13-.06-.18-.09-.18-.14a.27.27,0,0,1,.1-.25,14.07,14.07,0,0,0,2.34-3.22,18.13,18.13,0,0,0,1.06-2.35,27.58,27.58,0,0,0,1-3.38c0-.11.13-.19.21-.19ZM15.88,235a46.78,46.78,0,0,1,2.68,5.45c0,.28-.06.42-.16.44a2.91,2.91,0,0,1-1.49.65c-.9-2.32-1.72-4.25-2.49-5.79,0-.19.37-.47,1.14-.87A.43.43,0,0,1,15.88,235Z"/><path class="cls-1" d="M3.56,260.35c.63.5,1.17.95,1.62,1.34a.84.84,0,0,1-.14.22l-.79,1.21A26.24,26.24,0,0,0,2,261.38a11.33,11.33,0,0,0-1.62-.89,5,5,0,0,1,.82-1.23c.08-.11.16-.2.24-.2C2.31,259.54,3,260,3.56,260.35Zm2.31,4.83c.42,1,.66,1.57.66,1.63a.86.86,0,0,1-.11.41q-1.06,3.19-2,5.37c-.37.84-.8,1.76-1.28,2.77a2.5,2.5,0,0,0-.13.95c0,.22-.08.33-.21.33s-.69-.58-1.67-1.76a.32.32,0,0,1-.19-.3.65.65,0,0,1,.11-.4,15.2,15.2,0,0,0,1.35-2c.61-1.09,1.22-2.32,1.83-3.72.51-1.2,1-2.29,1.33-3.3,0-.14.1-.22.16-.22S5.84,265,5.87,265.18Zm-1-11.93c.59.53,1.12,1,1.54,1.45a.7.7,0,0,1-.13.23l-.79,1.2a23.18,23.18,0,0,0-2.13-1.87,10.25,10.25,0,0,0-1.51-1,5.39,5.39,0,0,1,.82-1.23c.08-.11.16-.2.21-.2A24,24,0,0,1,4.88,253.25Zm10.25.25v-2c0-.2.14-.31.43-.31,1.3,0,2,.11,2,.31s-.1.42-.26.42-.27.25-.27.58v1h6.35c.13,0,.21.11.21.34v.86c0,.28-.08.42-.21.42H17V257H22.7c.13,0,.21.11.21.33v.87c0,.28-.08.42-.21.42H17v1.87h7.38c.13,0,.21.11.21.33v.87c0,.28-.08.42-.21.42H7.67c-.16,0-.21-.14-.21-.42v-.87c0-.22,0-.33.21-.33h7.46v-1.87H9.53c-.16,0-.21-.14-.21-.42v-.87c0-.22,0-.33.21-.33h5.6v-1.88H8.81c-.16,0-.21-.14-.21-.42v-.86c0-.23.05-.34.21-.34Zm7,10.26c.32,0,.5.11.5.33v11.35c0,.48-.34.84-1,1.12A13,13,0,0,1,19,277c-.21,0-.32-.11-.34-.34a5.69,5.69,0,0,0-.59-1.76c0-.05.06-.08.19-.08a9.06,9.06,0,0,0,2.1-.14c.26-.11.39-.25.39-.48v-1.7H11.5v3.94c0,.22-.14.34-.4.34h-1c-.29,0-.42-.12-.42-.34V264.09c0-.22.13-.33.42-.33Zm-1.36,3.6v-1.95H11.5v1.95Zm0,3.5V269H11.5v1.87Z"/><path class="cls-1" d="M4,288.41c.74.5,1.38.95,1.91,1.34,0,0,0,.11-.16.22-.58.87-.88,1.29-.9,1.29a25.89,25.89,0,0,0-2.52-1.79,10,10,0,0,0-1.84-.92,5,5,0,0,1,.83-1.23c.08-.11.16-.2.21-.2C2.55,287.6,3.37,288,4,288.41Zm2.47,4.83c.42,1,.66,1.57.66,1.62a.7.7,0,0,1-.13.42c-.9,2.13-1.75,3.94-2.55,5.45-.45.84-1,1.76-1.59,2.77a2,2,0,0,0-.19,1c0,.22-.08.33-.18.33s-.72-.58-1.7-1.76a.38.38,0,0,1-.19-.3.51.51,0,0,1,.13-.4,13.84,13.84,0,0,0,1.62-2,38,38,0,0,0,2.18-3.77c.61-1.2,1.14-2.32,1.59-3.33.06-.14.14-.22.19-.22S6.45,293.1,6.48,293.24Zm-1.2-12.1a20.79,20.79,0,0,1,1.86,1.4,1.15,1.15,0,0,1-.13.25c-.59.87-.88,1.29-.9,1.29a25.56,25.56,0,0,0-2.47-1.88,14.37,14.37,0,0,0-1.78-1A5.65,5.65,0,0,1,2.68,280c.08-.11.16-.19.21-.19C3.85,280.3,4.65,280.75,5.28,281.14Zm7,12.3c0,.19-.08.31-.24.31a.74.74,0,0,0-.29.69v1.85c0,.73-.06,1.56-.13,2.46a9.81,9.81,0,0,1-.64,2.6,8.08,8.08,0,0,1-1.17,2A10.42,10.42,0,0,1,8.1,305c-.11,0-.22-.09-.29-.25A6.23,6.23,0,0,0,7,304c-.16-.11-.22-.19-.22-.28a10.86,10.86,0,0,0,1.6-1.56,6.15,6.15,0,0,0,.82-1.45,10.3,10.3,0,0,0,.53-2.16,15,15,0,0,0,.16-2.26v-2.94c0-.22,0-.33.11-.33A11.75,11.75,0,0,1,12.24,293.44Zm5.28-13.64c0,.25-.1.39-.26.42s-.27.22-.27.56v2h7.06c.21,0,.32.14.32.42v.9c0,.27-.11.41-.32.41H14.34c1.06.4,1.62.65,1.62.79s-.14.28-.35.28-.37.08-.37.25c-.48.81-1.06,1.73-1.81,2.77-.24.33-.47.64-.71.92,2.55-.23,5.07-.53,7.59-.87-.48-.75-.9-1.45-1.33-2.07,0-.16.37-.47,1.14-.86a.38.38,0,0,1,.3.11,55.16,55.16,0,0,1,3.95,6.12c0,.28-.08.42-.18.42a2.91,2.91,0,0,1-1.49.67c-.51-1-1-1.9-1.46-2.77-3.32.48-7,.9-11,1.29a.56.56,0,0,0-.48.28.42.42,0,0,1-.42.33c-.19,0-.59-.75-1.22-2.29.9-.06,1.78-.11,2.68-.19a31.64,31.64,0,0,0,2-3.44c.26-.59.5-1.18.69-1.74h-5c-.22,0-.32-.14-.32-.41v-.9c0-.28.1-.42.32-.42h6.63v-3c0-.22.14-.34.43-.34C16.86,279.46,17.52,279.58,17.52,279.8Zm-.93,13.64c0,.28-.1.42-.26.42s-.27.25-.27.58v9.93c0,.22-.13.33-.4.33h-1c-.29,0-.43-.11-.43-.33V293.44c0-.2.14-.31.43-.31C15.93,293.13,16.59,293.24,16.59,293.44Zm4.25,0a1.18,1.18,0,0,1-.21.56v8c0,.31.05.45.21.45h1.67c.35,0,.69-.84,1-2.52L25.19,301c-.58,2.18-1.32,3.27-2.17,3.27h-2.9a1.18,1.18,0,0,1-1.35-1.31v-9.59c0-.22.05-.33.21-.33C20.2,293.13,20.84,293.27,20.84,293.44Z"/><path class="cls-1" d="M15.08,322.84A3.42,3.42,0,0,1,12.53,324,3.32,3.32,0,0,1,10,322.84a3.7,3.7,0,0,1-1.06-2.69A3.79,3.79,0,0,1,10,317.47a3.43,3.43,0,0,1,2.55-1.12,3.53,3.53,0,0,1,2.55,1.12,3.88,3.88,0,0,1,1.06,2.68A3.78,3.78,0,0,1,15.08,322.84Zm-.69-4.64a2.55,2.55,0,0,0-1.86-.81,2.48,2.48,0,0,0-1.86.81,2.71,2.71,0,0,0-.77,1.95,2.62,2.62,0,0,0,.77,2,2.38,2.38,0,0,0,1.86.81,2.44,2.44,0,0,0,1.86-.81,2.74,2.74,0,0,0,.77-2A2.84,2.84,0,0,0,14.39,318.2Z"/></g></g></svg>