<svg xmlns="http://www.w3.org/2000/svg" viewBox="0 0 122.88 354.85"><defs><style>.cls-1{fill:#b6242d;}.cls-2{fill:#231815;}</style></defs><title>資產 19</title><g id="圖層_2" data-name="圖層 2"><g id="圖層_2-2" data-name="圖層 2"><path class="cls-1" d="M16.06,153.87a5.69,5.69,0,0,0,1.33-.53c.4-.25.51-.4.51-1.27v-1.45H10.4c-1.23,0-1.38.13-1.48,1.59H8.46v-4.63h.46c.1,1.42.24,1.55,1.48,1.55h7.5V147.8c0-.86-.1-1.1-.54-1.37a6.28,6.28,0,0,0-1.3-.54v-.49c1,.1,2,.2,2.84.24V146c-.36.23-.36.4-.36.84V153a.84.84,0,0,0,.36.82v.38c-.71,0-1.87.07-2.79.14Z"/><path class="cls-1" d="M15.47,157.47A3.35,3.35,0,0,1,12,160.88a3.49,3.49,0,0,1-3.72-3.42A3.43,3.43,0,0,1,11.76,154,3.57,3.57,0,0,1,15.47,157.47Zm-.54-.19c0-.89-.88-1.71-2.7-1.71s-3.4.83-3.4,2c0,.9.65,1.68,2.8,1.68C13.51,159.29,14.93,158.57,14.93,157.28Z"/><path class="cls-1" d="M14.85,172.23c-.13-.79-.29-.92-1.15-1.25-1.23-.47-3.34-1.2-5.41-1.88v-.51c1.62-.61,3.21-1.25,4.76-1.85-1.43-.58-3.09-1.25-4.76-1.86v-.5c1.86-.57,3.7-1.17,5.54-1.8.82-.27.92-.4,1-1.16h.43v3.35h-.43c-.15-.92-.25-1-.92-.78-1.16.35-2.39.74-3.51,1.1,1.54.61,3.13,1.22,4.79,1.81v.46c-1.58.56-3.21,1.2-4.84,1.84.91.33,2.43.83,3.48,1.09.76.19.86.06,1-1h.43v2.94Z"/><path class="cls-1" d="M8.27,177.67a1.14,1.14,0,0,1,.31-.77,1.37,1.37,0,0,1,.67-.38,5,5,0,0,1-1-1.82,1.93,1.93,0,0,1,1.93-1.93c.77,0,1.24.41,1.54,1.26a11.85,11.85,0,0,0,1,2.45h.37c1,0,1.65-.51,1.65-1.29a.88.88,0,0,0-.35-.71,3.31,3.31,0,0,0-1-.41.45.45,0,0,1-.38-.49.78.78,0,0,1,.7-.72c.23,0,.42.2.64.52a6.73,6.73,0,0,1,1.09,2.28,2.26,2.26,0,0,1-.42,1.35,2.13,2.13,0,0,1-1.82.8H10.29c-.72,0-.93.26-.93.54a1.2,1.2,0,0,0,.16.54l-.45.16Zm3.93-1.19c-.17-.33-.47-1-.62-1.33-.27-.57-.56-.92-1.12-.92a1.11,1.11,0,0,0-1.19,1.09,1.79,1.79,0,0,0,.5,1.16Z"/><path class="cls-1" d="M8.46,183.34v-3.66h.45c.09.95.17,1,1.17,1h3.25c1,0,1-.06,1.15-.93h.41a9.38,9.38,0,0,0,.62,2.29h-1.7c.86.58,1.66,1.21,1.66,2a.83.83,0,0,1-.78.92,1.12,1.12,0,0,1-.94-.58.33.33,0,0,1,0-.41c.23-.24.41-.43.41-.71s-.43-.85-1.19-1.18H10.09c-1,0-1.08.09-1.18,1.26Z"/><path class="cls-1" d="M8.85,193.06a18.25,18.25,0,0,0-.58-2.52h1c-.17-.27-.39-.68-.57-.95a2.67,2.67,0,0,1-.42-1.15,3.26,3.26,0,0,1,3.42-2.94,3.93,3.93,0,0,1,3.78,4.07,3.14,3.14,0,0,1-.15,1h2.19c1,0,1-.1,1.1-1.17H19a17.11,17.11,0,0,0,.53,2.54H10.29c-.81,0-.92.11-1,.68l0,.47Zm5.21-2.52a1.8,1.8,0,0,0,.79-1.54c0-.7-.47-2-2.7-2-1.91,0-2.86,1.16-2.87,2.1a2.58,2.58,0,0,0,.5,1.41Z"/><path class="cls-1" d="M8.47,200.47a1.54,1.54,0,0,1-.2-.65c0-1,.6-1.59,1.87-1.59h4.48v-1.06l.19-.07.47.43v.7h1.3c.32.33.75.84,1.07,1.18l0,.22c-.61,0-1.5,0-2.32,0v1.73a.51.51,0,0,1-.66-.1v-1.63H10.68c-1.25,0-1.46.5-1.46.88a2.17,2.17,0,0,0,.23.91l-.43.14Z"/><path class="cls-1" d="M8.46,206.45h.45c.1.86.18,1,1.17,1h2.58c1.27,0,1.88-.5,1.86-1.46a2.1,2.1,0,0,0-.74-1.55h-3.7c-1,0-1.07.11-1.17,1H8.46V202h.45c.08.87.15,1.06,1.18,1.06h7.42c.81,0,1,0,1.1-1.06H19a11.48,11.48,0,0,0,.53,2.43h-5.2a3.44,3.44,0,0,1,1.11,2.22c0,1.28-.81,2.15-2.64,2.15H10.08c-1,0-1.08.13-1.17,1H8.46Z"/><path class="cls-1" d="M9.82,216.39a3.56,3.56,0,0,1-1.55-2.62,3.11,3.11,0,0,1,3.35-3.08,4,4,0,0,1,2.73,1,3.25,3.25,0,0,1,1.12,2.33A2.45,2.45,0,0,1,13,216.46c-.3,0-.46-.05-.52-.29s-.2-2.33-.26-4.11c-2,0-2.85,1.18-2.85,2.28a2.61,2.61,0,0,0,.77,1.79Zm5-2.7c0-.69-.68-1.36-1.93-1.56,0,.83,0,1.65.05,2.52,0,.26.07.36.31.36A1.43,1.43,0,0,0,14.87,213.69Z"/><path class="cls-1" d="M8.46,221.13h.46c.13,1.25.2,1.38,1.52,1.38h6.11c1.33,0,1.4-.13,1.53-1.38h.46v4.27h-.46c-.13-1.26-.2-1.39-1.53-1.39H10.44c-1.33,0-1.38.12-1.52,1.39H8.46Z"/><path class="cls-1" d="M8.85,233.76a17.62,17.62,0,0,0-.58-2.52h1c-.17-.28-.39-.68-.57-1a2.65,2.65,0,0,1-.42-1.14,3.25,3.25,0,0,1,3.42-2.94,3.93,3.93,0,0,1,3.78,4.06,3.2,3.2,0,0,1-.15,1h2.19c1,0,1-.1,1.1-1.18H19a17.25,17.25,0,0,0,.53,2.55H10.29c-.81,0-.92.1-1,.68l0,.47Zm5.21-2.52a1.81,1.81,0,0,0,.79-1.55c0-.69-.47-2-2.7-2-1.91,0-2.86,1.16-2.87,2.1a2.64,2.64,0,0,0,.5,1.41Z"/><path class="cls-1" d="M9.82,240.22a3.53,3.53,0,0,1-1.55-2.62,3.12,3.12,0,0,1,3.35-3.08,4,4,0,0,1,2.73,1,3.23,3.23,0,0,1,1.12,2.33A2.45,2.45,0,0,1,13,240.3c-.3,0-.46-.06-.52-.29s-.2-2.33-.26-4.12c-2,0-2.85,1.18-2.85,2.29a2.61,2.61,0,0,0,.77,1.79Zm5-2.69c0-.7-.68-1.37-1.93-1.56,0,.83,0,1.64.05,2.51,0,.27.07.36.31.36A1.41,1.41,0,0,0,14.87,237.53Z"/><path class="cls-1" d="M8.27,246.28a1.14,1.14,0,0,1,.31-.77,1.37,1.37,0,0,1,.67-.38,5,5,0,0,1-1-1.82,1.93,1.93,0,0,1,1.93-1.93c.77,0,1.24.41,1.54,1.26a11.85,11.85,0,0,0,1,2.45h.37c1,0,1.65-.51,1.65-1.29a.88.88,0,0,0-.35-.71,3.31,3.31,0,0,0-1-.41.45.45,0,0,1-.38-.49.78.78,0,0,1,.7-.72c.23,0,.42.2.64.52a6.73,6.73,0,0,1,1.09,2.28,2.26,2.26,0,0,1-.42,1.35,2.13,2.13,0,0,1-1.82.8H10.29c-.72,0-.93.26-.93.54a1.2,1.2,0,0,0,.16.54l-.45.16Zm3.93-1.19c-.17-.33-.47-1-.62-1.33-.27-.57-.56-.92-1.12-.92a1.11,1.11,0,0,0-1.19,1.09,1.79,1.79,0,0,0,.5,1.16Z"/><path class="cls-1" d="M8.46,248.07h.45c.1,1,.18,1.08,1.2,1.08h7.36c.92,0,1-.08,1.14-1H19a12.41,12.41,0,0,0,.53,2.4H10.11c-1,0-1.1.09-1.2,1.07H8.46Z"/><path class="cls-2" d="M29.65,11.24V0l3.78.35c.72.1,1.1.31,1.1.66s-.28.55-.76,1v9.22h6.94v4.13H34.15a38.31,38.31,0,0,0,7.66,11.85l-3.35,2.52a43.83,43.83,0,0,1-4.69-7.31V44H29.65V25.76a13.29,13.29,0,0,0-.72,1.56,56.35,56.35,0,0,1-5.07,8.37l-3.55-2.37a43.52,43.52,0,0,0,5.56-8.67,54.82,54.82,0,0,0,3.4-9.28H21.6V11.24Zm21.11,0V0L54.6.35c.67.1,1,.31,1,.66s-.29.55-.77,1v9.22h7.86v4.13H55.22c0,.1-.1.1-.19.1A63.1,63.1,0,0,0,65.18,34.88l-3.74,2.77A79.62,79.62,0,0,1,54.88,25.1V44H50.76V25.05c-.67,1.41-1.29,2.67-2,3.88a55.23,55.23,0,0,1-6.61,9.48L38.65,36a47.34,47.34,0,0,0,7.18-9.83,53.56,53.56,0,0,0,4.46-10.84h-6.8V11.24Z"/><path class="cls-2" d="M80.6,2.12c.43.25.67.45.67.65,0,.41-.24.71-.72,1l-5.17,6.75c1,.76,1.91,1.52,2.87,2.22l3.21-5.24,3.06,2.12a1,1,0,0,1,.48.85c0,.31-.33.46-.91.56l-7.9,12c1.82-.2,3.64-.45,5.41-.75-.38-1-.81-2-1.24-3l2.92-.6A64.48,64.48,0,0,0,92.14.4l4.11,1c.58.1.91.3.91.61s-.43.85-1.29,1.16c-.77,2.06-1.58,4.08-2.44,6v.46h6.65l3.26-7.87,3.69.81c.67.1,1,.35,1,.76s-.38.75-1.15,1.16l-2.29,5.14h7.56v3.93h-8v5.9h7.08v3.73h-7.08v5.94h7.08v3.73h-7.08v5.9h8v3.93H93.43v3H89.31V17.34c-.76,1.31-1.48,2.52-2.25,3.73l-2.68-1.46a42,42,0,0,1,2.68,7.76l-3.54.81c-.24-.81-.48-1.67-.72-2.52-.72.15-1.49.3-2.25.4V45.72H76.43V26.81c-1.72.31-3.59.66-5.65,1-.29.56-.62.81-.91.81s-.43-.2-.43-.66l-.86-4.08,3.06-.3,4.65-7.61c-2.59-2.17-5-4-7.19-5.65l2.06-2.77c.48.3.91.6,1.3.86l5.07-8ZM75.33,31.2c.33.05.53.2.53.5a1.72,1.72,0,0,1-.77,1.21A59.56,59.56,0,0,1,72.5,43.35L68.72,42a28.93,28.93,0,0,0,1.68-4.64,54.8,54.8,0,0,0,1.34-7.21ZM88,41.58l-3.74.76A94.36,94.36,0,0,0,81.46,31l3.73-.81A75.32,75.32,0,0,1,88,41.58Zm12.16-28H93.43v5.9h6.75Zm0,9.63H93.43v5.94h6.75Zm0,15.57v-5.9H93.43v5.9Z"/><path class="cls-2" d="M68.07,86.7c5.1-.13-2.17.3,2.94.29,2,0,3.94-.64,5.92-.83a47.72,47.72,0,0,1,6.54-.29c.54,0,1.29,1,1.5,1.69,1,3.09,1.75,6.24,2.7,9.34,1.08,3.53.65,4.45-2.56,6.46-5.08,3.17-10.52,2.75-15.9,1.53-6.43-1.45-.48-1.63-7-1.32-1.16.05-2.33,0-3,0-.41-2.65-.39-5.1-1.22-7.21-1.64-4.18-1.27-7.83,1.79-11.38C62.52,86.88,63.25,86.82,68.07,86.7Zm3.08,14.16c1.3.15,3.67-.36,3.89-1.06.53-1.78.18-3.84,0-5.78,0-.3-.91-.72-1.43-.76-7.5-.55-2.62-1-10.13-1.54a3,3,0,0,0-.74.24l-.89,6C69.33,99,64,100,71.15,100.86Z"/><path class="cls-2" d="M41.15,131.3c-6.13-7.1-6.86-43.24-3.58-51.59,1.66-4.22,1.61-9.12,2.45-14.42,1.43,0,3.77-.1,6.1,0,13,.61,25.91.24,38.76-2.65,10.78-2.43,21.66-3.28,31.82,3.07,6.42,4,7.29,5.85,5.12,12.92-1.9,6.19-3.44,41.34-5.4,47.51-.43,1.36-1.93,3.34-3,3.38a94.16,94.16,0,0,1-13.1-.57c-4-.39-7.88-1.65-11.82-1.66-10.23,0-20.47.83-30.69.58C48.18,127.65,46.71,127.52,41.15,131.3Zm4.26-54.69c.68,4.59,1.25,37.21,1.78,40.75a6,6,0,0,0,1.49.48c15-1,30-2,45.06-3.08,1-.07,2.79-.92,2.84-1.52.33-3.87,1-36.85,0-40.4-.42-1.41-5.17-2.42-7.77-2.12C74.53,72.39,60.35,74.53,45.41,76.61Z"/><path class="cls-2" d="M15.51,63.92c5.5.45,8.73,3.25,10.86,7.52S28.56,80,25.51,84c-2.37,3.08-5.78,5.41-9.32,3.5A71.74,71.74,0,0,1,1.53,77.07c-2.77-2.58-1.55-6.4,1.83-8.19C7.2,66.84,11.44,65.54,15.51,63.92Z"/><path class="cls-2" d="M13.76,130.5c-3.59-1.61-6.67-2.37-9-4.14-5.25-4-5.1-9.82.21-13.73a17.26,17.26,0,0,1,15.63-2.58c5.85,1.72,7.72,10.17,3,14.76C21,127.36,17.11,128.63,13.76,130.5Z"/><path class="cls-2" d="M9.92,106.8c-3.76,0-7.35-4.59-7.39-9.3,0-3.76,1.16-7,5.71-6.9a131.79,131.79,0,0,1,16.28.82c4,.57,4.77,3.16,2.31,6.67C22.6,104.16,16.27,105.82,9.92,106.8Z"/><path class="cls-2" d="M43.63,236.19c-3.76,0-7.35-4.59-7.39-9.29,0-3.76,1.16-7,5.71-6.9a128,128,0,0,1,16.28.82c4,.56,4.77,3.15,2.32,6.67C56.31,233.55,50,235.22,43.63,236.19Z"/><path class="cls-2" d="M94.17,185.89c-1.39-.44-2.75-1.25-4.17-1.26-5.8,0-11.8.68-17.39.14-6.62-.65-12.84-2.39-19.32-3.51a64.34,64.34,0,0,0-6.93-.42c.26,1.7-.34,3.4.75,3.88,1.49.64,3.08,1.25,4.73,1.8,0,1-.14,1.87.53,2.16A38.1,38.1,0,0,0,61,191.35a71.74,71.74,0,0,0,10.28.77c5.25.13,10.63.82,15.65-.69,1-.32,1.55-1.21,2.3-1.84-.51-.16-1-.38-1.53-.58a25.66,25.66,0,0,0,3.58-.78C92.56,187.83,93.21,186.69,94.17,185.89Z"/><path class="cls-2" d="M79.85,163.18c3.08,0,6.16,0,9.23,0,4.74,0,8.16,2.4,9.27,6.4a1.91,1.91,0,0,1,0,1.37c-3.83,6-2.43,12.57-3,18.94-.22,2.45,1.82,6.6.86,8.93-.39.94-3.92,2.66-5,2.73-4.75,1.22-6.32,2.19-10.28,4.26-8.18,1.26-14.85,2.59-22.85,4.44-1.73,2.84-7.52,2.59-11.08,0-4.46-3.27-6.83-7.4-6.91-12.49-.1-6-.59-4.49-.31-10.47a171.4,171.4,0,0,1,2.1-19c.56-3.47,2.7-4.59,6.81-4.87,7.12-.5,23.92-.15,31-.69Zm6.23,28.65c.24-2.71.19-10.82.3-13.81a2.57,2.57,0,0,0-1.32-2c-6.2-3-22.52-3.46-29.13-2.3-.77.13-1.8,1.83-1.66,2.68.79,4.85-2,18.11,2.28,24.19C62.58,201.55,80.3,197.9,86.08,191.83Z"/><path class="cls-2" d="M102.21,153.18l-.95-.58c1.56-1.42,1.57-3.24.12-5.79-11.17,3.75-22.77,4.51-34.65,5.06v-.06a32.83,32.83,0,0,1-5,0,.78.78,0,0,1-.36.14l-1.17-.09v0c-1.6-.09-3.16-.26-4.6-.44l-.66-.07v0c-3.94-.55-6.81-1.25-6.81-1.25a20.33,20.33,0,0,1-5-1.58c-1.64-.65-3.34-1.41-4.81.31a4,4,0,0,0,.28,5.24,16,16,0,0,0,2.8,2.65c1.3.9,2.64,1.82,4.19,0,.5-.56,1.82-.52,2.76-.54a22.92,22.92,0,0,1,3,.32l7.69.89c.81.06,6.4.5,9.51.52a7.39,7.39,0,0,1,1.32-.1,188.65,188.65,0,0,0,21.24-1.22c3.79-.41,7.47-1.83,11.2-2.8Z"/><path class="cls-2" d="M69.35,182.45A8.44,8.44,0,0,1,70,184.6c0,5,.95,9.84,1.65,14.73.46,3.26.73,6.55.91,9.84.32,6,.51,12,.75,18,.18,4.19.37,8.38.51,12.57,0,1.4,0,2.8-.06,4.2,0,.61,0,1.17-1.06,1.28-.65.08-1.18,1.24-1.52,1.64a20.83,20.83,0,0,0-2.27,0,2.8,2.8,0,0,1-3.27-2.75c0-1.1,0-2.21,0-3.31.1-3.4.29-6.79.31-10.18,0-5.56,0-11.12-.11-16.67-.17-5.94-.49-11.89-.89-17.82-.3-4.48.26-8.72,2.63-12.6C67.9,183.09,68.6,182.91,69.35,182.45Z"/><path class="cls-2" d="M69.35,209.36a8.33,8.33,0,0,0,.66-2.15c0-5,.95-9.83,1.65-14.73.46-3.25.73-6.55.91-9.84.32-6,.51-12,.75-18,.18-4.19.37-8.37.51-12.56,0-1.4,0-2.81-.06-4.21,0-.61,0-1.16-1.06-1.28-.65-.07-1.18-1.24-1.52-1.63a18.26,18.26,0,0,1-2.27,0,2.8,2.8,0,0,0-3.27,2.75c0,1.1,0,2.21,0,3.32.1,3.39.29,6.78.31,10.17,0,5.56,0,11.12-.11,16.67-.17,5.95-.49,11.89-.89,17.82-.3,4.48.26,8.73,2.63,12.6C67.9,208.72,68.6,208.9,69.35,209.36Z"/><path class="cls-2" d="M84.88,203.12c-.15,1.18-.26,1.8-.28,2.41-.21,5,1.3,9.36,5.77,12,4.1,2.45,7.7.29,11.23-1.81,1.44-.86,3-1.53,4.51-2.28,2,4.28,1.2,11.24-1.51,16.93a59,59,0,0,0-2.41,7.24c-21,3-30.19-10.06-23.46-35.28A6.67,6.67,0,0,1,84.88,203.12Z"/><path class="cls-2" d="M21,284.65a12.73,12.73,0,0,1,8.11,4.26,2.71,2.71,0,0,1,.44,2.27c-1.13,3.4-2.44,6.74-3.68,10.1-.93,2.53-3.91,3.19-5.53,1.05a9,9,0,0,0-7.48-3.71c-3.06-.09-4.41-2.79-2.71-5.32,1.29-1.94,2.36-4.23,4.12-5.61S18.68,285.63,21,284.65Z"/><path class="cls-2" d="M14.67,325.69c-.08-.71-.17-1.27-.21-1.82-.21-3.24,2-6.83,4.34-7.21,2.12-.33,7.51,2.95,8.12,5a36.85,36.85,0,0,1,.74,3.62c1.1,6.34.82,6.76-5.43,8.15-5,1.11-7.23-.54-7.55-5.57C14.62,327.11,14.67,326.33,14.67,325.69Z"/><path class="cls-2" d="M42.49,354.85c-5.8-6.72-6.49-48.75-3.38-56.65,1.57-4,1.52-8.62,2.31-13.64,1.36,0,3.57-.09,5.77,0,12.33.58,8.87.23,21-2.51,10.19-2.3,20.49-3.1,30.1,2.91,6.07,3.79,6.89,5.53,4.85,12.22-1.8,5.86-3.26,46.95-5.11,52.79-.41,1.29-17.23,3.2-2.84,3.2,4.12,0-8.28-.14-12.39-.54-3.75-.37-7.46-1.56-11.19-1.57-9.68,0-3.72.78-13.39.54C49.15,351.4,47.76,351.28,42.49,354.85Zm4-59.58c.65,4.34,1.19,43,1.69,46.4a5.65,5.65,0,0,0,1.4.44c14.22-.93,12.78-1.87,27-2.9,1-.07,2.64-.87,2.69-1.44.31-3.67,1-42.7,0-46.06-.4-1.34-4.89-2.3-7.35-2C58.42,291.28,60.66,293.3,46.52,295.27Z"/><path class="cls-2" d="M64.93,323c5.21.43,8.26,3.07,10.28,7.12s2.07,8.13-.82,11.88c-2.24,2.92-5.46,5.12-8.81,3.31a67.67,67.67,0,0,1-13.87-9.86c-2.63-2.45-1.47-6.06,1.72-7.75C57.07,325.79,61.08,324.55,64.93,323Z"/><path class="cls-2" d="M57.12,310c-3.56,0-7-4.34-7-8.8,0-3.55,1.09-6.58,5.4-6.52a123.43,123.43,0,0,1,15.4.77c3.76.54,4.52,3,2.19,6.31C69.12,307.45,63.13,309,57.12,310Z"/><path class="cls-2" d="M43.31,309.88c19.67,2.59,39.31,3.93,59.05,1.34a7.43,7.43,0,0,0,5-3.23c1.88-3.68,4.59-4.26,8.06-3.47,5.8,1.32,8.15,7.74,5.81,15.69l-7-1.9a7.84,7.84,0,0,0-9.35-.63c.08-.29.15-.58.23-.88-2.23.29-4.26.67-6.31.8-7.41.49-14.85,1.48-22.24,1.23-15.85-.52-31.67-1.81-47.51-2.52-4.22-.19-6.86-1.89-9.25-6.59C28.21,309.72,35.88,308.9,43.31,309.88Z"/><path class="cls-2" d="M11.92,337.3a21,21,0,0,0-.91,8.06,3.79,3.79,0,0,1,1.49,1.35c2.36,4.19,4.1,5.16,8.8,4.77a32.21,32.21,0,0,1,7.28.1c3.21.48,5-1.12,4.38-4.32a14.7,14.7,0,0,1-.57-3.16c.1-4.37-1.4-6.7-5.65-7.77a43.28,43.28,0,0,0-6.17-.61C17.61,335.42,14.9,337.65,11.92,337.3Z"/><path class="cls-2" d="M92.06,271.26a35,35,0,0,1-4.83-1.37c-7.88-3.53-16.12-3.18-24.18-2.55-2.54.2-4.66,2.34-6.94,3.62-1.48.83-3,1.68-4.35,2.59s-2.44,1.79-3.71,2.64c-2.83,1.86-5.34,4.29-8.65,5.4-5,1.69-8.68-.44-8.87-4.9-.22-5.1.1-10.19.24-15.28a2.87,2.87,0,0,1,.63-1.66c2.57-3.13,15.88-3.87,19-.73,4.57,4.6,9.44,4.86,15.94,4,7.29-1,15.06-.89,22.64-.54,3.79.17,7.69,1.79,11.42,3,2.6.86,2.88,2.35,1.21,4C99.12,272,95.73,271.82,92.06,271.26Z"/></g></g></svg>