<svg xmlns="http://www.w3.org/2000/svg" viewBox="0 0 41.57 394.3"><defs><style>.cls-1{fill:#231815;}</style></defs><title>資產 23</title><g id="圖層_2" data-name="圖層 2"><g id="圖層_2-2" data-name="圖層 2"><path class="cls-1" d="M15.06,3.56V37.48H11.12V33.72H6.18v5H2.24V3.56ZM11.12,5.73H6.18V16.86h4.94Zm0,13.3H6.18V31.55h4.94Zm20,19.32V26.49H16V24.33H31.12V19h4.16v5.35h5.91v2.16H35.28V39.84c0,4.38-3.61,7-11.3,1.11l.55-1.64C30.39,41.19,31.12,40.75,31.12,38.35ZM16.7,15.7h9.11V9H17.62V6.79h8.19V0H30V6.79h8.74V9H30V15.7H40.64v2.17H16.7Zm1.93,12.87,1.23-1.11A32.64,32.64,0,0,1,27,34.64l-3.57,2.65A81.44,81.44,0,0,0,18.63,28.57Z"/><path class="cls-1" d="M36.57,90.86a67.91,67.91,0,0,1-7.55,0c-4.72-.29-5.86-1.26-5.86-5.4v-16h-5c-.5,12.47-5,19.17-16.11,23.7l-.73-1.54C11.3,85.85,13.41,80,14,69.47H1.83V66.82H18.67V48.08H23V66.82H40.14v2.65H27.28V84.69c0,1.59.45,2.17,2.28,2.31a38.61,38.61,0,0,0,6.27,0c2.38-.24,2.66-1.11,2.7-9.44h1.65C42,85.89,43.11,90.47,36.57,90.86Zm-25-25.3A96.94,96.94,0,0,0,5.31,52.32l1.33-1.06a53,53,0,0,1,9.42,11.61Zm15.15.2-1.28-1.11A60.07,60.07,0,0,0,31.35,51l4.9,2.6A55.23,55.23,0,0,1,26.77,65.76Z"/><path class="cls-1" d="M6.91,116.24c-2-2.79-4.48-5.87-6.45-8.19l.87-1.44A44,44,0,0,1,10,112.49Zm.41-11C5.63,102.47,3.75,99.48,2,97.07l1.15-1.3a33.17,33.17,0,0,1,7.46,6.31ZM10.39,119a167.43,167.43,0,0,1-3.62,19.75l-4.62-2c2.47-5.16,4.58-12,6.64-18.26Zm8.19-.48c.23,14.16-1.78,19-9.24,22.64l-.87-1.49c5.4-4,6.27-7.95,6.17-21.15Zm1.65-13.35H11.9V103H25.67c-2.06-2-4.48-4.19-6.49-5.83l.73-1.54A38.74,38.74,0,0,1,29,99.87L26.82,103H39.4v2.16H24.8A40.23,40.23,0,0,1,20,112.25c4.63,0,8.7-.25,11.86-.49-1-1.49-1.83-2.89-2.57-3.85l1.15-1.25A39.85,39.85,0,0,1,39,115.18L35.33,118c-.64-1.25-1.51-2.89-2.47-4.48a130.25,130.25,0,0,1-19.54,3.13L12.17,112c1.93.1,3.76.2,5.54.2A44,44,0,0,0,20.23,105.16ZM22,118.32h3.85v21.05H22Zm13.5,21.62c-5.12,0-6.17-.38-6.17-4.81V118.22h3.84v15.85c0,1.54.32,2.12,2.52,2.12,1.87,0,2-.82,2-7.08l1.65-.05C41.28,137.44,41.33,139.94,35.51,139.94Z"/><path class="cls-1" d="M11.35,177.91h7.46v2.16H11.35v9.06H7.51v-9.06H.27v-2.16H7.51v-4.63H1.42V157.34H7.51v-3.71H.69v-2.17H7.51v-7.18h3.84v7.18h6.77v2.17H11.35v3.71h6.09v15.94H11.35ZM7.64,159.5H5V164H7.64Zm0,6.51H5v5.1H7.64Zm3.53-2h2.7V159.5h-2.7Zm2.7,7.13V166h-2.7v5.1Zm21.6,3.62H41v2.16H35.47v7.86c0,4.86-4.3,5.87-9.52,1.3l.64-1.59c4.44,1.49,5,1.15,5-.77v-6.8H18.08v-2.16H31.62v-3.28h3.85Zm-8.51-6v-2.93H19.59V153.53H27V151H18.67v-2.17H27v-4.67h3.93v4.67h9.89V151H30.89v2.55h7.69v12.29h-3.2A20,20,0,0,1,41.19,170l-2.43,2.79c-.68-.91-1.46-1.88-2.29-2.89a139.25,139.25,0,0,1-17.34,2.65l-.78-3.71C20.69,168.9,23.75,168.9,27,168.75Zm.45,13.2-2.83,2.94a64.59,64.59,0,0,0-4.4-6.36l1-1.3A30.51,30.51,0,0,1,27.41,182Zm-4.34-23.51H27V155.7H23.07ZM27,163.65v-3.13H23.07v3.13Zm3.93-5.21H35.1V155.7H30.89Zm0,5.21H35.1v-3.13H30.89Zm0,5,4.21-.29c-.55-.63-1.14-1.25-1.78-1.88l.41-.62H30.89Z"/><path class="cls-1" d="M6.73,225.5A101.21,101.21,0,0,0,.55,217l1-1.44a41,41,0,0,1,8.33,6.31Zm2.47,3.66c-.87,6.7-2.2,14.55-3.16,18.6L1.6,245.83c1.83-4.48,4.3-11.51,6-17.2ZM8.79,214a74.27,74.27,0,0,0-5.49-7.9l1-1.3a33.42,33.42,0,0,1,7.73,5.88Zm29.88,36a30.16,30.16,0,0,1-13.09-4.77,41.79,41.79,0,0,1-16.38,5l-.46-1.68a37.84,37.84,0,0,0,14.19-5.4,24.22,24.22,0,0,1-5.81-7.75H12.63v-2.17l18.35-.1,1.19-.67,4.12,2.36a27.08,27.08,0,0,1-7.14,8,45.27,45.27,0,0,0,12.08,2.46ZM11.76,221.6H38.9v9.2H11.76ZM35.47,219H15V207.53h20.5Zm-19.86,9.68h4.16v-5H15.61Zm3.11-19v2.61h13v-2.61Zm13,7.33v-2.7h-13V217Zm-6.23,24.28a29.07,29.07,0,0,0,5.22-5.93l-11.67,0A19.75,19.75,0,0,0,25.49,241.26ZM23,228.68h4.17v-5H23Zm7.46,0h4.63v-5H30.43Z"/><path class="cls-1" d="M1.33,288.47.5,287a34.67,34.67,0,0,0,10.85-13.63l4.12,2.41C12.4,281,6.91,285.62,1.33,288.47Zm39.81-18.94v2.17H24.48v10.36c0,5.68-6.95,4-10.93,1.3l.45-1.64c5.45,1.21,6.27.53,6.27-1.44l.05-8.58H.87v-2.17h8.6v-13h4v13h6.73V253.25h4.21v7.52H36.93v2.07H24.44v6.69Zm-8.6,5.74,4.35,2.07c-5.54,11.85-15.06,19.27-34.65,20.86l-.36-1.74C19.31,294,27.69,286.59,32.54,275.27Z"/><path class="cls-1" d="M12.45,306.68H.82v-2H12.45v-3.46h4.12v3.46h8.6v-3.46h4.12v3.46h12v2h-12v2.55H25.17v-2.55h-8.6v2.26H12.45ZM.82,335.73H41.1v2H29.79a29.56,29.56,0,0,1,8,5.73L35,346.66c-.87-1.2-2-2.7-3.24-4.14-5.59,1.3-19.13,2.65-24.63,2.79L6,341c1.51.15,3.75.24,6.32.29a31.53,31.53,0,0,0,1.74-3.56H.82Zm7-17.44H2.06v-1.93h8.47v-1.93H3.94V312.6h6.59v-2.79H14.1v2.79h6.68v1.83H14.1v1.93H22v1.93H17.07v.53c0,.91.32,1.15,1.88,1.15a3.29,3.29,0,0,0,2.42-1.11l1.42,1.93a5.1,5.1,0,0,1-4.16,1.59c-3.62,0-4.49-.72-4.49-3v-1.06h-3c-.73,3.47-4.67,5.58-9.56,6.21l-.42-1.35C4,322.48,7.05,321.13,7.78,318.29Zm2.61,10V325.8H4.76V324h5.63v-3h3.66v3h6.13v1.83H14.05V328c3.34-.34,6.18-.72,7.64-1L22,328.4c-3.61,1.26-10.07,2.65-18.67,3.57l-.78-3.37C5,328.6,7.73,328.45,10.39,328.26Zm23.06,5.25H10v-1.93H33.45Zm-5.4,5,.55-.77H18.76a39.37,39.37,0,0,1-4,3.61c5.31.1,11.44.05,15.83-.19C29.7,340.21,28.88,339.29,28.05,338.52Zm1.74-22.11A29.69,29.69,0,0,1,29,322a22.1,22.1,0,0,1,4.21,3.9l-2.38,2.74A46.08,46.08,0,0,0,28,325a13.29,13.29,0,0,1-6.08,6.12l-.83-1.16c2.75-2.36,4-4.19,4.62-7.41-1-1-2.06-2-3.2-3l.73-1.2c1,.53,1.92,1.1,2.79,1.63.1-1,.14-2.21.19-3.51H22.47v-1.88h3.75c.05-1.3.05-2.75.05-4.38l3.61,0c.05,1.59.05,3,0,4.34H36c-.18,7.27.32,11.66,2.11,12.86,1.32.92,1.1-3.08,1-5.78h1.6c2.52,9.25-.69,11.27-3.48,9.78-3.75-2-4.53-6.89-4.53-15Z"/><path class="cls-1" d="M30.34,363.43H22.15V394.3H18.21V363.43H12a44.3,44.3,0,0,1-2.61,5V394.3H5.58V373.88a30.17,30.17,0,0,1-4.48,4.58L0,377.2c4.9-5.92,7.73-13,9.56-19.65l3.94,1.73c-.18.68-.37,1.3-.59,2h5.3V349.75h3.94v11.51h8.19Zm-29,1.39L.23,363.57c3.34-4.05,5.81-9.92,7.05-14.35l4,1.63A36.68,36.68,0,0,1,1.37,364.82Zm11.12,1.93h3.66c0,12.91-.5,17.82-4.07,22.45l-1.37-1C13.23,383.22,12.49,378.89,12.49,366.75Zm13.18-7c-.59-2.6-1.6-5.82-2.24-7.65l1.37-.82a23.08,23.08,0,0,1,4.4,6.93ZM29,384.57c-4.44,0-4.81-.67-4.81-5.2V366.89h3.57v12.39c0,1.49,0,2.26,1.56,2.21a3,3,0,0,0,2.38-1l1.14,2.69A5.12,5.12,0,0,1,29,384.57Zm12.45-19.75V367H37.71v22.83c0,4.29-3.8,6.75-10.11,1.06l.64-1.63c4.44,1.68,5.63,1.78,5.63-.53V367H29.15v-2.17Zm-.78-9.73H29.56v-2.17H40.64Z"/></g></g></svg>