<svg xmlns="http://www.w3.org/2000/svg" viewBox="0 0 218.03 410.34"><defs><style>.cls-1{fill:#231815;}</style></defs><title>資產 24</title><g id="圖層_2" data-name="圖層 2"><g id="圖層_2-2" data-name="圖層 2"><path class="cls-1" d="M200.87,1.52a.68.68,0,0,1,.37.56.3.3,0,0,1-.32.34.83.83,0,0,0-.77.45,32.92,32.92,0,0,1-5.58,6.8.5.5,0,0,1-.43-.25,8,8,0,0,0-.83-.88c-.16-.14-.21-.25-.21-.31a.24.24,0,0,1,.13-.25A7.61,7.61,0,0,0,195,6.44a19,19,0,0,0,2.27-2.65A24.57,24.57,0,0,0,198.89.7c.11-.25.19-.39.27-.39Zm.9,6.49a.5.5,0,0,1-.42.53c-.27.12-.43.23-.48.4a28.41,28.41,0,0,1-2.22,3.29V25.46c0,.23-.16.34-.43.34h-1c-.29,0-.42-.11-.42-.34v-11c-.65.7-1.39,1.43-2.19,2.16a12.63,12.63,0,0,0-1.23-1.29c-.16-.17-.24-.28-.24-.37a.45.45,0,0,1,.1-.19,18.72,18.72,0,0,0,4-4,24.18,24.18,0,0,0,2.59-4.1c.06-.11.14-.2.22-.2A13.34,13.34,0,0,1,201.77,8Zm9.08,4.27c0,.25-.11.4-.27.42s-.26.23-.26.57V16h4.8c.19,0,.3.17.3.45v.87c0,.31-.11.45-.3.45h-4.8v5.37a63.9,63.9,0,0,0,7.39-.45.19.19,0,0,1,.21.22,17.56,17.56,0,0,0-.58,1.77c-.06.2-.16.31-.35.31h-7.05a18.76,18.76,0,0,1-2.72-.19,5.61,5.61,0,0,1-2-.82,4.48,4.48,0,0,1-1.36-1.49.16.16,0,0,1,0-.11,6.83,6.83,0,0,1-.43,1.1,6.6,6.6,0,0,1-1.63,2.3c-.21,0-.32-.06-.37-.14a3.87,3.87,0,0,0-.85-.62c-.16-.14-.24-.25-.24-.34a.28.28,0,0,1,.16-.28,7.14,7.14,0,0,0,1.41-1.94,7.77,7.77,0,0,0,.83-2.39,24.5,24.5,0,0,0,.53-5.84c0-.28.06-.42.19-.42l1.6.11c.32,0,.48.11.48.34s-.13.5-.35.53-.37.23-.37.56a36.85,36.85,0,0,1-.32,4.28,5.57,5.57,0,0,0,.72,1.93,3,3,0,0,0,1.31,1.1,5.29,5.29,0,0,0,1.95.42V12.28c0-.2.13-.31.4-.31C210.18,12,210.85,12.08,210.85,12.28Zm-3.52-11c.16.17.26.29.26.37a.38.38,0,0,1-.18.34.4.4,0,0,0-.4.36c-.32,1.24-.59,2.22-.83,3a10.8,10.8,0,0,0,1.17,1.58A8.07,8.07,0,0,0,209,8.26a.71.71,0,0,1,.13.28c0,.17-.35.59-1,1.32a.3.3,0,0,1-.19,0,21,21,0,0,1-2.48-2.67c-.3.73-.59,1.4-.91,2a15.34,15.34,0,0,1-1.44,2.14,1.6,1.6,0,0,1-.56-.09c-.35-.14-.7-.28-1-.39-.11-.06-.16-.11-.16-.17a.33.33,0,0,1,.08-.25,15.42,15.42,0,0,0,2.11-3.49,17.92,17.92,0,0,0,.93-2.53,29.24,29.24,0,0,0,.85-3.59c.06-.17.11-.26.19-.26Zm7.07-.11c.19.17.29.28.29.37a.32.32,0,0,1-.21.33c-.16,0-.27.12-.27.34-.26,1.18-.48,2.14-.69,2.9A13,13,0,0,0,214.8,6.8a9.33,9.33,0,0,0,2.51,2c.13.06.21.12.21.17s-.08.14-.21.23a4.63,4.63,0,0,1-.77.87c-.11.17-.22.22-.27.22a.78.78,0,0,1-.4-.11,11.72,11.72,0,0,1-2.14-2c-.26-.34-.53-.73-.8-1.15-.21.61-.45,1.23-.66,1.79a14.24,14.24,0,0,1-1.13,2,1.6,1.6,0,0,1-.56-.09c-.34-.14-.69-.28-1-.39-.1-.06-.16-.11-.16-.17s0-.17.06-.22a16.42,16.42,0,0,0,1.62-3.38,20.23,20.23,0,0,0,.75-2.44c.22-.9.46-2.08.67-3.51,0-.14.08-.23.13-.23Z"/><path class="cls-1" d="M204.47,29.42c0,.2-.13.28-.35.28s-.37.09-.37.26c-.77,1.74-1.74,3.73-2.91,5.95-.56,1.07-1.15,2.08-1.76,3,4.43-.42,8.86-1,13.29-1.71a31.19,31.19,0,0,0-2.88-4.39c0-.14.51-.47,1.55-1a43.83,43.83,0,0,1,3.2,5.06,27.48,27.48,0,0,1,2,4.47c0,.11-.64.33-1.9.67A17.49,17.49,0,0,0,213.25,39c-5.18.76-10.94,1.46-17.24,2.08a.8.8,0,0,0-.7.45c-.08.31-.21.45-.42.45s-.67-.84-1.36-2.53c1.17-.06,2.37-.17,3.55-.28A73.46,73.46,0,0,0,200.6,32a26.21,26.21,0,0,0,1.12-3.51c0-.12.11-.17.27-.17C203.64,28.89,204.47,29.25,204.47,29.42ZM213,42.69c.27,0,.4.11.4.34V53.68c0,.22-.13.33-.4.33h-1c-.29,0-.43-.11-.43-.33V52.24H198.73v1.32c0,.23-.13.34-.4.34h-1c-.29,0-.43-.11-.43-.34V43.14a.4.4,0,0,1,.43-.45Zm-1.47,7.81v-6H198.73v6Z"/><path class="cls-1" d="M195.77,64.63c.58.45,1.09.88,1.52,1.24,0,0,0,.09-.13.2l-.81,1.09a23.27,23.27,0,0,0-2-1.57,11.53,11.53,0,0,0-1.42-.84,5.62,5.62,0,0,1,.72-1.13.27.27,0,0,1,.22-.17A22,22,0,0,1,195.77,64.63Zm.4-5.93c.53.51,1,.93,1.41,1.33,0,0-.05.11-.1.22-.54.73-.8,1.1-.83,1.1a19.4,19.4,0,0,0-1.9-1.72,8,8,0,0,0-1.33-.9,4.53,4.53,0,0,1,.75-1.15c.05-.11.13-.17.18-.17A19.9,19.9,0,0,1,196.17,58.7Zm1.07,12.09c.42,1,.66,1.49.66,1.55a.83.83,0,0,1-.08.39c-.5,2-1,3.79-1.41,5.23-.27.81-.56,1.68-.91,2.64a3.18,3.18,0,0,0-.11,1c0,.23-.08.34-.18.34s-.67-.56-1.6-1.69a.36.36,0,0,1-.19-.28.75.75,0,0,1,.08-.39,18.17,18.17,0,0,0,1-1.94c.48-1.07.93-2.25,1.39-3.6.37-1.15.72-2.22,1-3.2,0-.14.05-.22.11-.22S197.21,70.65,197.24,70.79ZM200,67.11c.19.08.3.17.3.28a.29.29,0,0,1-.11.22.19.19,0,0,0-.19.2,13.72,13.72,0,0,1-.83,2.56c-.05.14-.1.2-.13.2a.61.61,0,0,1-.35-.12l-.74-.33c-.11,0-.16-.06-.16-.09a.2.2,0,0,1,0-.14,13.37,13.37,0,0,0,.51-1.43c.16-.54.29-1.07.4-1.6,0-.15,0-.23.08-.23Zm2.7-9.47a1.13,1.13,0,0,0,.11.19c0,.14-.11.2-.3.2s-.48.08-.53.25c-.48.9-.94,1.69-1.36,2.42.29.37.58.73.88,1.07a.64.64,0,0,1,.08-.14c.56-.82,1-1.58,1.44-2.25a10.54,10.54,0,0,1,1.33,1.32c0,.06-.05.08-.16.08a.56.56,0,0,0-.42.12c-.86,1.23-1.71,2.39-2.54,3.43l2-.09a8.25,8.25,0,0,0-.42-.9c0-.08.29-.31.93-.67.29.62.56,1.18.77,1.68s.32,1,.48,1.52a6.1,6.1,0,0,1-1.14.31c-.06-.28-.16-.65-.3-1.1l-1.39.23v4.83c0,.17-.1.23-.29.23H201c-.22,0-.3-.06-.3-.23V65.56l-1.89.31c-.38.37-.56.54-.62.54a8.86,8.86,0,0,1-.32-1.86,11.31,11.31,0,0,1,1.68-.14c.57-.73,1-1.35,1.39-1.88l-1.3-1.27a17.91,17.91,0,0,0-1.55-1c0-.11.24-.42.77-1,.05-.06.11-.12.16-.12.24.23.48.45.75.68a12.52,12.52,0,0,0,.59-1.15c.37-.79.66-1.41.85-1.83Zm12.52,13.94c.27,0,.4.11.4.31V75.2c0,.28-.13.42-.4.42H202.39c-.11.45-.19.85-.3,1.21h14.47c.35,0,.54.09.54.23a20,20,0,0,1-.94,2.84,4,4,0,0,1-1.28,1.77,6.7,6.7,0,0,1-2.88.45c-1.95,0-3-.2-3.2-.59a3.51,3.51,0,0,0-.89-1.41c0-.22.06-.31.22-.31a35.84,35.84,0,0,0,4.38.31,2.24,2.24,0,0,0,1.81-.59,6.68,6.68,0,0,0,.62-1.26H201.61a17.86,17.86,0,0,1-.74,1.77c-.06.11-.11.19-.14.19a2.55,2.55,0,0,1-.42,0c-.38-.06-.78-.14-1.15-.23-.16,0-.22-.08-.22-.14a9.52,9.52,0,0,0,.73-1.54,15.83,15.83,0,0,0,.72-2,17.87,17.87,0,0,0,.48-2.42c0-.14.08-.22.26-.22.48.25.86.42,1.1.53h11.53V73H200.52c-.16,0-.21-.14-.21-.42v-.67c0-.2.05-.31.21-.31ZM204,66.52c.32.78.64,1.63.94,2.53,0,.19-.06.31-.14.31a1.91,1.91,0,0,1-1,.45c-.27-1.1-.51-2-.72-2.76,0-.14.27-.36.83-.64C203.91,66.41,203.94,66.46,204,66.52Zm6.68-6.8c.13,0,.21.11.21.31v.67c0,.23-.08.34-.21.34H205c-.16,0-.21-.11-.21-.34V60c0-.2.05-.31.21-.31Zm-.32-2.2a.2.2,0,0,1,.21.2v.68c0,.22-.08.33-.21.33h-4.81c-.13,0-.19-.11-.19-.33v-.68a.18.18,0,0,1,.19-.2Zm-.11,4.61a.21.21,0,0,1,.21.23V63c0,.23-.08.34-.21.34h-4.59c-.16,0-.22-.11-.22-.34v-.64c0-.14.06-.23.22-.23Zm0,2.08a.21.21,0,0,1,.21.23v.64c0,.23-.08.34-.21.34h-4.59c-.16,0-.22-.11-.22-.34v-.64c0-.14.06-.23.22-.23Zm0,2.2c.21,0,.32.08.32.22v3.63c0,.16-.11.22-.32.22h-4.48c-.22,0-.33-.06-.33-.22V66.63c0-.14.11-.22.33-.22Zm-1.15,1.2h-2.19v1.66h2.19Zm6.38-9.86a.85.85,0,0,1,.08.2c0,.14-.1.19-.29.19s-.48.09-.54.26c-.5.78-1,1.51-1.38,2.13l.88,1.1a.14.14,0,0,1,.05-.09,24.89,24.89,0,0,0,1.6-2.39,10.19,10.19,0,0,1,1.36,1.33c0,.08-.08.11-.21.11a.7.7,0,0,0-.48.11c-.91,1.29-1.82,2.47-2.67,3.51.59,0,1.23-.08,1.92-.17-.13-.3-.26-.61-.42-.92,0-.09.29-.31.93-.68.29.62.53,1.18.75,1.69s.34,1,.5,1.52a4.63,4.63,0,0,1-1.14.31c-.06-.28-.16-.62-.3-1.07l-1.17.28v5c0,.17-.11.23-.32.23h-.83c-.21,0-.32-.06-.32-.23V65.53l-1.66.43c-.37.39-.58.56-.64.56a10.86,10.86,0,0,1-.29-1.86,3.84,3.84,0,0,1,1.26-.25c.61-.79,1.12-1.46,1.54-2-.5-.51-.88-.87-1.14-1.13a9.89,9.89,0,0,0-1.47-1c0-.11.24-.42.77-1,.06-.06.11-.12.19-.12.16.17.35.31.51.48.21-.34.42-.7.61-1,.37-.73.67-1.26.85-1.63Zm-2.56,9.36c.16.08.24.17.24.28a.35.35,0,0,1-.05.2c-.08,0-.14.08-.14.19a23.19,23.19,0,0,1-.53,2.39.57.57,0,0,1-.11.2.38.38,0,0,1-.29-.14c-.27-.11-.48-.23-.7-.34s-.16-.06-.16-.08a.27.27,0,0,1,0-.14,13.29,13.29,0,0,0,.37-1.33,12.79,12.79,0,0,0,.27-1.48c0-.15,0-.23.08-.23Zm3.58-.59a23.18,23.18,0,0,1,1.14,2.75c0,.17,0,.28-.1.28a1.82,1.82,0,0,1-1,.48c-.32-1.18-.64-2.19-.94-3,0-.14.27-.36.86-.64C216.4,66.41,216.43,66.46,216.46,66.52Z"/><path class="cls-1" d="M204.36,92.43c.06-.34.08-.71.11-1a44.41,44.41,0,0,0,0-6.55l2.83.34a.42.42,0,0,1-.24.39.71.71,0,0,0-.4.59c0,2.64-.19,4.72-.35,6.27h10.57c.22,0,.32.14.32.42V94c0,.28-.1.42-.32.42h-10A22.59,22.59,0,0,0,208,97.94a19.09,19.09,0,0,0,1.6,3.4,15.92,15.92,0,0,0,3.39,4,11.31,11.31,0,0,0,4,2.36.31.31,0,0,1,.18.25.67.67,0,0,1-.29.48,11.14,11.14,0,0,0-1,1.24.55.55,0,0,1-.48.36,4.13,4.13,0,0,1-1.07-.7,20.15,20.15,0,0,1-4.89-4.44,17.44,17.44,0,0,1-2.35-4.13,25.86,25.86,0,0,1-1.44-4.27c-.13.56-.27,1.12-.43,1.63a24.63,24.63,0,0,1-1.86,4.27,15.29,15.29,0,0,1-2.49,3.54,31.65,31.65,0,0,1-5.58,4.1c-.16,0-.26-.11-.37-.33a9.86,9.86,0,0,0-1-1.1.63.63,0,0,1-.27-.45c.56-.25,1.31-.59,2.22-1.1a15.9,15.9,0,0,0,2.53-1.79,10.18,10.18,0,0,0,2.19-2.39,18,18,0,0,0,2-3.35,23.12,23.12,0,0,0,1.28-3.74c.11-.45.19-.9.27-1.35H193.85c-.22,0-.32-.14-.32-.42V92.85c0-.28.1-.42.32-.42Z"/><path class="cls-1" d="M198.44,125.25c.32,0,.5.11.5.34v7.33a12,12,0,0,0,.08,1.21,4.78,4.78,0,0,0,1.34,1.72,5.92,5.92,0,0,0,3.18.7h7.2c.62,0,1.69-.09,3.23-.25a27.67,27.67,0,0,0,3.21-.48,1.2,1.2,0,0,1,.34,0c.11,0,.19.06.19.22-.32.62-.59,1.21-.8,1.72,0,.39-.21.59-.53.59H203.54a6.79,6.79,0,0,1-4.44-1.38,6.49,6.49,0,0,1-1.38-2.11c-.86.85-1.61,1.58-2.25,2.28a1.13,1.13,0,0,0-.64.87c0,.28-.05.45-.16.45s-.18-.08-.34-.25L193,136.13a14.43,14.43,0,0,0,3.52-2.34.86.86,0,0,0,.43-.87V127h-3.23c-.21,0-.32-.14-.32-.42v-.9c0-.28.11-.42.32-.42Zm-1.55-5c.75.45,1.41.87,2,1.23a.83.83,0,0,1-.14.23,9.85,9.85,0,0,1-.8,1.21c-.85-.57-1.73-1.1-2.67-1.61a14.07,14.07,0,0,0-1.92-.81,5.13,5.13,0,0,1,.83-1.24c.08-.11.16-.19.21-.19A25.41,25.41,0,0,1,196.89,120.28Zm.69-6,1.79,1.29a.7.7,0,0,1-.13.23l-.8,1.21a20.38,20.38,0,0,0-2.46-1.66,12.62,12.62,0,0,0-1.73-.87,5.32,5.32,0,0,1,.82-1.24c.08-.11.16-.2.24-.2A25.13,25.13,0,0,1,197.58,114.29Zm8,.48a11.79,11.79,0,0,1,.91,1.46h3.52a9.59,9.59,0,0,0,1.23-1.55,7.1,7.1,0,0,0,1-1.91c0-.17.13-.25.24-.25l1.6.67c.24.12.37.26.37.43s-.11.19-.27.25-.4.08-.45.25a17.07,17.07,0,0,1-1.25,2.11h3.23c.21,0,.32.17.32.45v.87c0,.31-.11.45-.32.45H209.3a21.47,21.47,0,0,1-1.47,2.53h6.44c.26,0,.42.11.42.34V135c0,.23-.16.34-.42.34h-1c-.27,0-.4-.11-.4-.34v-.87h-8.36V135c0,.23-.13.34-.4.34h-1c-.29,0-.43-.11-.43-.34V120.87c0-.23.14-.34.43-.34h2.75a12.33,12.33,0,0,0,1.65-2.53h-6.51c-.21,0-.29-.14-.29-.45v-.87c0-.28.08-.45.29-.45h3.58l-.35-.53a12.43,12.43,0,0,0-1.87-2.08c0-.15.48-.48,1.47-1A24.1,24.1,0,0,1,205.62,114.77Zm7.21,9.69v-2.3h-8.36v2.3Zm0,4v-2.31h-8.36v2.31Zm0,4.07v-2.42h-8.36v2.42Z"/><path class="cls-1" d="M204.26,143.57v-2.75c0-.2.13-.31.42-.31,1.31,0,2,.11,2,.31s-.08.42-.24.42-.27.25-.27.59v1.74h9.37c.22,0,.32.17.32.45v.87c0,.31-.1.45-.32.45h-9.37v2.31h7.08c.26,0,.42.11.42.31v9.89c0,.22-.16.34-.42.34h-7.08v2.41h10.63c.21,0,.32.14.32.42v.88c0,.31-.11.45-.32.45H206.15v3.73c0,.23-.16.34-.42.34h-1c-.29,0-.42-.11-.42-.34v-3.73H193.74c-.21,0-.32-.14-.32-.45V161c0-.28.11-.42.32-.42h10.52v-2.41h-7c-.29,0-.43-.12-.43-.34V148c0-.2.14-.31.43-.31h7v-2.31H195c-.21,0-.32-.14-.32-.45V144c0-.28.11-.45.32-.45Zm0,8.46v-2.64h-5.53V152Zm0,1.74h-5.53v2.65h5.53Zm1.89-1.74h5.63v-2.64h-5.63Zm5.63,1.74h-5.63v2.65h5.63Z"/><path class="cls-1" d="M196.73,177.91q1.13.76,1.92,1.35a.59.59,0,0,1-.16.23,14.37,14.37,0,0,1-.91,1.29,24.5,24.5,0,0,0-2.53-1.8,10.56,10.56,0,0,0-1.85-.93,5.19,5.19,0,0,1,.83-1.23c.08-.12.16-.2.22-.2C195.26,177.1,196.09,177.52,196.73,177.91Zm2.48,4.87c.43,1,.67,1.57.67,1.63a.75.75,0,0,1-.13.42q-1.37,3.19-2.57,5.48c-.45.84-1,1.77-1.6,2.78a2.17,2.17,0,0,0-.19,1c0,.23-.08.34-.18.34s-.72-.59-1.71-1.77a.42.42,0,0,1-.19-.31.48.48,0,0,1,.13-.39,14.11,14.11,0,0,0,1.63-2,38.43,38.43,0,0,0,2.19-3.79c.62-1.21,1.15-2.33,1.6-3.34.06-.15.14-.23.19-.23S199.18,182.63,199.21,182.78ZM198,170.61a22.68,22.68,0,0,1,1.87,1.4,1.15,1.15,0,0,1-.13.25c-.59.88-.89,1.3-.91,1.3a26.31,26.31,0,0,0-2.49-1.89,13.15,13.15,0,0,0-1.78-1,5.56,5.56,0,0,1,.82-1.24c.08-.11.16-.19.22-.19Q197,170,198,170.61ZM205,183c0,.2-.08.31-.24.31a.76.76,0,0,0-.29.7v1.86c0,.73-.05,1.57-.13,2.47a10,10,0,0,1-.64,2.62,8.49,8.49,0,0,1-1.18,2,10.14,10.14,0,0,1-1.68,1.66c-.11,0-.21-.09-.29-.26a5.19,5.19,0,0,0-.86-.78c-.16-.12-.21-.2-.21-.29a10.33,10.33,0,0,0,1.6-1.57,6,6,0,0,0,.83-1.46,10.47,10.47,0,0,0,.53-2.16,15.4,15.4,0,0,0,.16-2.28v-3c0-.23,0-.34.11-.34A14.12,14.12,0,0,1,205,183Zm5.32-13.71c0,.25-.11.39-.27.42s-.27.22-.27.56v2h7.1c.22,0,.32.14.32.42v.9c0,.28-.1.42-.32.42h-9.77c1.07.39,1.63.64,1.63.79s-.13.28-.35.28-.37.08-.37.25c-.48.81-1.07,1.74-1.81,2.78a10.38,10.38,0,0,1-.73.93c2.57-.23,5.1-.53,7.64-.87-.48-.76-.91-1.46-1.34-2.08,0-.17.38-.48,1.15-.87a.38.38,0,0,1,.3.11,55.71,55.71,0,0,1,4,6.15c0,.29-.08.43-.18.43a2.9,2.9,0,0,1-1.5.67c-.5-1-1-1.91-1.47-2.78-3.33.48-7,.9-11.07,1.29a.56.56,0,0,0-.49.28.42.42,0,0,1-.42.34c-.19,0-.59-.76-1.23-2.31.91-.05,1.79-.11,2.7-.19a31.93,31.93,0,0,0,2-3.46,18.61,18.61,0,0,0,.7-1.74h-5c-.21,0-.32-.14-.32-.42v-.9c0-.28.11-.42.32-.42h6.67v-3c0-.23.14-.34.43-.34C209.65,168.92,210.32,169,210.32,169.26ZM209.38,183c0,.28-.1.42-.26.42s-.27.26-.27.59v10c0,.23-.13.34-.4.34h-1c-.3,0-.43-.11-.43-.34V183c0-.19.13-.31.43-.31C208.72,182.66,209.38,182.78,209.38,183Zm4.27,0a1.15,1.15,0,0,1-.21.56v8c0,.31.05.45.21.45h1.69c.34,0,.69-.84,1-2.53l1.65,1.1c-.59,2.19-1.33,3.29-2.19,3.29h-2.91a1.19,1.19,0,0,1-1.36-1.32v-9.64c0-.23.05-.34.21-.34C213,182.66,213.65,182.8,213.65,183Z"/><path class="cls-1" d="M197.69,198.9v-1.65c0-.14.11-.23.32-.23,1.23,0,1.87.11,1.87.34s-.08.36-.19.36-.21.2-.21.51v.67h4.06c.13,0,.21.12.21.34v.87c0,.28-.08.42-.21.42h-4.06v2h3.44c.27,0,.4.11.4.34v10.62c0,.23-.13.34-.4.34h-3.44V216h4c.21,0,.32.17.32.45v.87c0,.31-.11.45-.32.45h-4v4.39c0,.22-.16.33-.43.33h-1a.29.29,0,0,1-.32-.33v-4.39h-4.06c-.21,0-.32-.14-.32-.45v-.87c0-.28.11-.45.32-.45h4.06v-2.19h-3.44c-.27,0-.4-.11-.4-.34V202.87c0-.23.13-.34.4-.34h3.44v-2h-4.16c-.17,0-.22-.14-.22-.42v-.87c0-.22.05-.34.22-.34Zm0,8.35v-3h-2.08v3Zm0,1.52h-2.08v3.32h2.08Zm1.79-1.52h2.08v-3h-2.08Zm2.08,1.52h-2.08v3.32h2.08Zm8.54-10.09v-1.43c0-.14.11-.23.32-.23,1.23,0,1.87.11,1.87.34s-.08.36-.21.36-.19.2-.19.51v.45h5.21c.13,0,.21.11.21.34v.87c0,.31-.08.45-.21.45h-5.21v2.08h4.38c.27,0,.4.11.4.33V210c0,.22-.13.34-.4.34h0l.86,1.37a14.36,14.36,0,0,1,.93,2,5.45,5.45,0,0,1-1.47.44,5.33,5.33,0,0,0-.34-1.06c-.7.05-1.36.08-2.06.14-2.67.22-5.39.48-8.22.7-.16.48-.3.73-.43.76a.23.23,0,0,1-.24-.14l-.59-2.17c.78,0,2.59-.14,5.42-.36v-1.71h-4.27c-.29,0-.43-.12-.43-.34v-7.23c0-.22.14-.33.43-.33h4.27v-2.08h-4.88c-.16,0-.22-.14-.22-.45V199c0-.23.06-.34.22-.34Zm2.41,16.69a8.4,8.4,0,0,0-.06-1,2.21,2.21,0,0,1,0-.53c0-.06.13-.11.43-.11l2,.28c.19.11.29.22.29.28s-.1.22-.32.22-.48.42-.51.87h2.91c.14,0,.22.12.22.34v.87c0,.28-.08.42-.22.42h-2.93v4c0,1.23-.88,1.85-2.59,1.85h-.75c-.11,0-.16-.17-.16-.45a6.43,6.43,0,0,0-.45-1.18c0-.17.05-.22.21-.22a2.37,2.37,0,0,0,.93.22c.7,0,1-.31,1-.87V217h-7.4c-.16,0-.21-.14-.21-.42v-.87c0-.22,0-.34.21-.34Zm-4.36,3.32c.38.45.73.84,1,1.18,0,0,0,.08-.13.2-.54.73-.81,1.12-.81,1.12a14.32,14.32,0,0,0-1.33-1.52,10.72,10.72,0,0,0-1-.78,4.67,4.67,0,0,1,.72-1.16c.08-.11.16-.16.21-.16A12.92,12.92,0,0,1,208.15,218.69Zm1.95-13V204h-2.91v1.75Zm0,1.43h-2.91v1.63h2.91Zm1.79-1.43h3V204h-3Zm3,1.43h-3v1.63h3Zm-.35,3.18h-2.67v1.57c.86-.06,1.76-.11,2.72-.2.33,0,.59,0,.83-.05A12.62,12.62,0,0,0,214.56,210.32Z"/><path class="cls-1" d="M205.94,225.69c0,.08-.11.16-.32.22a.61.61,0,0,0-.43.34,14,14,0,0,1-.69,1.4h7.28c.33,0,.51.17.51.45v10.74a2.31,2.31,0,0,0,.4-.42,15,15,0,0,0,2.19-2.67c.11-.17.22-.28.35-.28a2.34,2.34,0,0,1,.51.14,10.5,10.5,0,0,1,1.57,1.71c0,.31-.11.45-.32.45l-.43-.11a1,1,0,0,0-.66.36c-1.45,1.44-2.65,2.62-3.61,3.52v6.52A2.18,2.18,0,0,1,211,250a12.46,12.46,0,0,1-3.26.73c-.19,0-.29-.12-.32-.34a6.57,6.57,0,0,0-.61-1.77c0-.11.08-.14.26-.14a7.29,7.29,0,0,0,2.86-.31,1,1,0,0,0,.53-1v-4c-.93.73-1.95,1.43-3,2.16a41.53,41.53,0,0,1-4.43,2.39,58.35,58.35,0,0,1-7.37,2.56c-.38,0-.59-.09-.64-.23a4,4,0,0,0-1-1.15.48.48,0,0,1-.21-.37c0-.16.11-.22.32-.22,1.44-.2,2.46-.37,3-.51a26.58,26.58,0,0,0,3.71-1.12,31.47,31.47,0,0,0,4.35-2.16,34.37,34.37,0,0,0,4.19-3c-.59.06-1.18.14-1.74.23q-5.72.79-11.77,1.69c-.21.56-.43.84-.61.87a.47.47,0,0,1-.35-.17l-.69-2.67c.69-.06,2.05-.2,4.05-.45v-13a.4.4,0,0,1,.43-.45h3.79a7.36,7.36,0,0,0,.54-.84,11,11,0,0,0,.72-1.91c0-.11.08-.2.16-.2A11.92,11.92,0,0,1,205.94,225.69Zm4.48,6.15v-2.42H200.09v2.42Zm0,4.16v-2.42H200.09V236Zm-2.21,3.82c.85-.11,1.6-.19,2.21-.31v-1.74H200.09v3.06C202.28,240.58,205,240.24,208.21,239.82Z"/><path class="cls-1" d="M206.31,267.87a5.58,5.58,0,0,1-1.71,2l-.69-.81a4.44,4.44,0,0,0,1.79-3.2h-2v-3.38h3.21v3.09A5.12,5.12,0,0,1,206.31,267.87Z"/><path class="cls-1" d="M203.86,285.29v-3.63c0-.22.13-.33.4-.33,1.33,0,2,.11,2,.33s-.11.4-.27.42-.26.23-.26.57v2.64h5.73c.22,0,.32.17.32.45v.87c0,.31-.1.45-.32.45h-5.73v4.5h2.18c.24-.23.51-.45.78-.71a32.27,32.27,0,0,0,3.36-3.68,17.43,17.43,0,0,0,2.19-3.06c.11-.23.24-.37.35-.37a1.74,1.74,0,0,1,.53.17,9,9,0,0,1,1.55,1.72c0,.28-.11.42-.29.42L216,286c-.24,0-.45.17-.67.45-2,2.22-3.52,3.94-4.59,5.12l0,0h6.22c.22,0,.32.14.32.42v.9c0,.28-.1.42-.32.42h-8.16c-.65.53-1.29,1.07-2,1.6a37.89,37.89,0,0,1-3.82,2.42v2.61a39.78,39.78,0,0,0,4.25-1.29,32,32,0,0,0,5.52-2.53,2.23,2.23,0,0,1,.64-.17c1.12,1,1.69,1.52,1.69,1.66s-.11.17-.33.17c-.37,0-.58.05-.61.14a68.64,68.64,0,0,1-11.16,3.93v1.35c0,.9.51,1.32,1.55,1.32h8.86a1.48,1.48,0,0,0,1.66-1.26,11.9,11.9,0,0,0,.64-2.92,4.12,4.12,0,0,0,1.47.87.4.4,0,0,1,.32.45,11,11,0,0,1-1,3.34c-.32.9-1.15,1.38-2.49,1.38H203.43q-2.4,0-2.4-1.86V298.3a53.1,53.1,0,0,1-6.14,2.36c-.38,0-.62-.05-.67-.22a4.08,4.08,0,0,0-1-1.15.53.53,0,0,1-.18-.4c0-.14.1-.22.32-.22a29.74,29.74,0,0,0,3-.59,22.62,22.62,0,0,0,3.71-1.32,31.07,31.07,0,0,0,4.38-2.48c.43-.28.88-.62,1.34-1H193.74c-.21,0-.32-.14-.32-.42V292c0-.28.11-.42.32-.42h10.12v-4.5h-6.68c-.21,0-.32-.14-.32-.45v-.87c0-.28.11-.45.32-.45Z"/><path class="cls-1" d="M196.25,315.36v-5.71c0-.19.13-.31.4-.31,1.33,0,2,.12,2,.31s-.11.4-.27.42-.26.23-.26.57v4.72h2.08c.21,0,.32.17.32.45v.87c0,.31-.11.45-.32.45h-1.84a24.39,24.39,0,0,0,.85,2.53,13.25,13.25,0,0,0,1.79,3.12.39.39,0,0,1,.13.28c0,.06-.08.14-.18.22a5.12,5.12,0,0,1-.7.76c-.1.17-.21.23-.26.23s-.16-.06-.24-.2a13.64,13.64,0,0,1-1.53-3,1.24,1.24,0,0,1-.1-.31v13.69c0,.22-.16.34-.43.34h-1c-.27,0-.4-.12-.4-.34V322.1c-.22.76-.46,1.44-.67,2.06a16.3,16.3,0,0,1-1.23,2.83.52.52,0,0,1-.4-.11l-1-.51c-.16,0-.21,0-.21-.14a23.14,23.14,0,0,0,1.57-3.28,24.59,24.59,0,0,0,1-2.95c.16-.62.35-1.58.59-2.87h-2.19c-.21,0-.32-.14-.32-.45v-.87c0-.28.11-.45.32-.45Zm7.63,14.7c.22.56.38,1.12.54,1.68a.65.65,0,0,0,.21,0c.53-.06,1-.15,1.58-.26.21-.53.4-1.09.61-1.66.27-.95.48-1.77.61-2.47,0-.06.06-.11.08-.11l1.82.62c.16.11.27.19.27.28s-.06.08-.14.08-.21.06-.24.11a19,19,0,0,1-.77,2.08c-.11.26-.22.48-.32.71l1.63-.34a.86.86,0,0,1,.13,0,.21.21,0,0,1,.21.23,4.54,4.54,0,0,1-.1,1.32q-4.22.84-8.55,1.54c-.21.42-.4.65-.53.65s-.45-.7-.93-2.08c.82-.06,1.76-.2,2.77-.37-.08-.3-.19-.64-.29-1a20.85,20.85,0,0,0-1-2.55c0-.12.46-.4,1.37-.87A26.47,26.47,0,0,1,203.88,330.06Zm.38-17.88v-2.41c0-.23.13-.34.42-.34,1.31,0,2,.11,2,.34s-.08.39-.24.42-.27.22-.27.56v1.43h3.34c.13,0,.21.12.21.34v.87c0,.31-.08.45-.21.45h-3.34v2.42h2.91c.14,0,.22.11.22.31v.9c0,.28-.08.42-.22.42h-7.71c-.16,0-.22-.14-.22-.42v-.9c0-.2.06-.31.22-.31h2.91v-2.42h-3.34c-.13,0-.19-.14-.19-.45v-.87c0-.22.06-.34.19-.34Zm4.08,7.59c.27,0,.4.11.4.31V326c0,.22-.13.34-.4.34h-6.27c-.27,0-.4-.12-.4-.34v-5.93c0-.2.13-.31.4-.31ZM207,321.29h-3.55v3.51H207Zm5.82,1.91a20.59,20.59,0,0,1,.85,2.28,6.18,6.18,0,0,1-1.57.53,10.85,10.85,0,0,0-.62-1.91,15.79,15.79,0,0,0-1.36-2.59c0-.11.46-.39,1.36-.87A26.85,26.85,0,0,1,212.8,323.2Zm1.28-7.62v-4.49c0-.54,0-1-.05-1.24a1.67,1.67,0,0,1-.06-.51s.14-.11.4-.11l2,.28c.16.11.27.2.27.26s-.11.22-.29.22c-.38.17-.54.56-.54,1.21v4.38h1.26c.21,0,.32.17.32.45v.87c0,.31-.11.45-.32.45h-1.26v15.57c0,1.24-.88,1.89-2.61,1.89h-1.45c-.13,0-.18-.17-.18-.45a6.06,6.06,0,0,0-.46-1.21c0-.17.06-.23.22-.23a7.66,7.66,0,0,0,1.68.23c.69,0,1-.31,1-.87V317.35h-3.44c-.22,0-.32-.14-.32-.45V316c0-.28.1-.45.32-.45Z"/><path class="cls-1" d="M197.5,347.76h6.86c.22,0,.32.14.32.42q-.08,4.59-.32,6.61a14.62,14.62,0,0,1-.8,3.57q-.48,1.26-2.64,1.26c-1.07,0-1.6-.22-1.63-.67a6.22,6.22,0,0,0-.64-1.75V357a5.6,5.6,0,0,0,2.27.53,1.18,1.18,0,0,0,1.25-.84,9,9,0,0,0,.51-2.64,42.55,42.55,0,0,0,.3-4.53H197.5a37.35,37.35,0,0,1-.5,6.8,16.77,16.77,0,0,1-1.26,4.19,10.07,10.07,0,0,1-1.39,2.42.59.59,0,0,1-.26-.06,4.33,4.33,0,0,0-1-.76.65.65,0,0,1-.1-.39,11.61,11.61,0,0,0,1.41-2.87,22.56,22.56,0,0,0,.88-4,41.87,41.87,0,0,0,.3-5.34v-6.69c0-.28.13-.45.42-.45h10.66c-.08-1.29-.14-2.69-.14-4.27,0-.22.06-.34.22-.34l1.73.17c.3,0,.46.12.46.28a.42.42,0,0,1-.22.43c-.13.05-.19.28-.19.67,0,1.12,0,2.14,0,3.06h8.3c.22,0,.32.17.32.45v.87c0,.31-.1.45-.32.45h-8.27c0,1,.08,2,.13,2.76a30.39,30.39,0,0,0,.94,5.65c.21.95.42,1.77.66,2.5a19.23,19.23,0,0,0,1.66-3.2,21.93,21.93,0,0,0,1.44-4.3.39.39,0,0,1,.43-.34c1.52.56,2.29.93,2.29,1.09s-.1.28-.32.34a.76.76,0,0,0-.72.45,30.76,30.76,0,0,1-2.29,5.4,25,25,0,0,1-1.69,2.61,10.05,10.05,0,0,0,1.66,2.9,2.05,2.05,0,0,0,1.07.5c.21,0,.5-.31.85-1A15.11,15.11,0,0,0,216,356.3c.08,0,.19.12.29.29a4,4,0,0,0,.75.89.68.68,0,0,1,.32.59,27.9,27.9,0,0,1-1.47,3.35c-.66,1.12-1.28,1.71-1.87,1.71a1.71,1.71,0,0,1-.82-.22,4.89,4.89,0,0,1-1.55-1.35,12.62,12.62,0,0,1-1.79-2.81,25.12,25.12,0,0,1-4.81,3.93,1.83,1.83,0,0,1-.53.12.55.55,0,0,1-.48-.31,4.25,4.25,0,0,0-.64-.76.45.45,0,0,1-.24-.37c0-.08.08-.17.27-.22a8.4,8.4,0,0,0,2.16-1.21,15.62,15.62,0,0,0,3.28-2.9c.06,0,.14-.14.19-.19a31.81,31.81,0,0,1-1-3.32c-.42-1.94-.74-4-1-6-.11-1-.19-2.05-.24-3.35H197.5Zm16.34-8.88,2,1.4c0,.06-.05.12-.13.23l-.8,1.21a27.93,27.93,0,0,0-2.75-1.83,20.79,20.79,0,0,0-1.95-.93,6,6,0,0,1,.83-1.23c.08-.12.16-.2.21-.2C212.29,338,213.15,338.49,213.84,338.88Z"/><path class="cls-1" d="M200,367.51V366c0-.23.13-.34.42-.34,1.31,0,2,.11,2,.34s-.11.39-.27.42-.24.23-.24.56v.56h6.78V366c0-.23.14-.34.4-.34,1.31,0,2,.11,2,.34s-.08.39-.24.42-.27.23-.27.56v.56H217c.13,0,.21.12.21.34v.87c0,.28-.08.42-.21.42h-6.46v1.13c0,.22-.16.31-.43.31h-1c-.26,0-.4-.09-.4-.31v-1.13h-6.78v1.13c0,.22-.16.31-.43.31h-1c-.29,0-.42-.09-.42-.31v-1.13h-6.36c-.16,0-.21-.14-.21-.42v-.87c0-.22.05-.34.21-.34Zm.85,4a1.1,1.1,0,0,1,.61.14c.4.36.62.62.62.73l-2.91,5.51a.53.53,0,0,0-.11.31.45.45,0,0,0,.16.31,10.64,10.64,0,0,1,1.68,2.52,8,8,0,0,1,.67,3.1,5.77,5.77,0,0,1-.43,2.24,2.69,2.69,0,0,1-1.38,1.38,3.44,3.44,0,0,1-1.95.42c-.43,0-.64-.14-.64-.42a3.92,3.92,0,0,0-.4-1.43c0-.14.1-.23.32-.23l1.14.12a1.23,1.23,0,0,0,1.2-.65,2.75,2.75,0,0,0,.35-1.43,6.55,6.55,0,0,0-.56-2.45,11.57,11.57,0,0,0-2.08-2.89.34.34,0,0,1-.16-.26,1.58,1.58,0,0,1,.08-.33l2.86-5.06h-3.66V390.9c0,.22-.16.33-.43.33h-1a.29.29,0,0,1-.32-.33V371.79a.28.28,0,0,1,.32-.31Zm9.24,0c.16.11.24.22.24.31s-.16.33-.43.33h0a14.07,14.07,0,0,0,1.87,1.52,16.15,16.15,0,0,0,2.59,1.49,10.49,10.49,0,0,0,2.88,1,.33.33,0,0,1-.21.28,10.14,10.14,0,0,0-1.09,1.07.4.4,0,0,1-.38.16,13.69,13.69,0,0,1-2.8-1.26v1c0,.22-.08.3-.21.3H205c-.16,0-.21-.08-.21-.3v-1c-.37.25-.72.47-1,.67a14.31,14.31,0,0,1-1.58.79c-.16,0-.26-.09-.37-.26a4.9,4.9,0,0,0-.72-.9c-.16-.11-.24-.19-.24-.28s0,0,.11-.08a17.86,17.86,0,0,0,2.21-1,19.54,19.54,0,0,0,2.48-1.69,12,12,0,0,0,1.34-1.29,11.81,11.81,0,0,0,1.07-1.47c.1-.11.18-.19.29-.19Zm6.59,13.38c.13,0,.21.11.21.33v.87c0,.23-.08.34-.21.34h-3.58c.59.51,1.07,1,1.5,1.43.69.79,1.28,1.52,1.79,2.2l-.14.19c-.53.73-.8,1.13-.82,1.13-.48-.68-1-1.3-1.45-1.86q-4.87.67-10.83,1.27a.48.48,0,0,0-.43.25.44.44,0,0,1-.43.34c-.16,0-.51-.71-1-2.11l2.54-.17a18.94,18.94,0,0,0,1.41-1.8,6.27,6.27,0,0,0,.48-.87h-3.6c-.14,0-.19-.11-.19-.34v-.87c0-.22.05-.33.19-.33Zm-3.34-5.93a.69.69,0,0,1,.4.14.84.84,0,0,1,.24.53L213,382h2.33c.1,0,.18.11.18.31v.87c0,.22-.08.33-.18.33H203.43c-.16,0-.21-.11-.21-.33v-.87c0-.2.05-.31.21-.31h7.5l.16-.26.69-1.29h-7.42c-.21,0-.29-.11-.29-.34v-.87c0-.22.08-.33.29-.33Zm-1-2.84a10,10,0,0,1-1.2-.79,17.82,17.82,0,0,1-2.56-2.22,14.46,14.46,0,0,1-1.23,1.24,12.31,12.31,0,0,1-1.63,1.35l-.61.42Zm-.93,11a1.94,1.94,0,0,1,.37-.65H206.9c.67.25,1,.42,1,.53s-.1.26-.32.26-.29.08-.29.19c-.43.45-.93,1-1.55,1.52,2.32-.22,4.65-.45,6.94-.76A9.46,9.46,0,0,0,211.36,387.05Z"/><path class="cls-1" d="M206.31,408.38a5.58,5.58,0,0,1-1.71,2l-.69-.81a4.46,4.46,0,0,0,1.79-3.21h-2V403h3.21V406A5.12,5.12,0,0,1,206.31,408.38Z"/><path class="cls-1" d="M147.43,25.46c0,.23-.13.34-.4.34h-1c-.29,0-.43-.11-.43-.34V1.63a.37.37,0,0,1,.43-.42h6.57a1.09,1.09,0,0,1,.67.17c.42.39.66.67.66.81l-3.12,7.39a.9.9,0,0,0-.11.4.62.62,0,0,0,.14.39,13.37,13.37,0,0,1,1.95,6.86,7.5,7.5,0,0,1-.43,2.61A3,3,0,0,1,151,21.47a3,3,0,0,1-2,.48c-.48,0-.7-.14-.7-.48a4,4,0,0,0-.45-1.49.29.29,0,0,1,.32-.33l1.23.22a1.11,1.11,0,0,0,1.12-.82,4.19,4.19,0,0,0,.35-1.82,11.8,11.8,0,0,0-.46-3,15.5,15.5,0,0,0-1.79-3.6.45.45,0,0,1-.16-.31,1.59,1.59,0,0,1,.11-.45L151.76,3h-4.33ZM169.14,12c.18,0,.29.14.29.42v.88c0,.3-.11.45-.29.45h-9.83c-.26.64-.5,1.23-.77,1.77h10c.21,0,.32.14.32.42-.06,2.64-.14,4.55-.3,5.7a10.59,10.59,0,0,1-.82,3.09c-.33.73-1.15,1.1-2.54,1.1-1.07,0-1.6-.2-1.63-.56a5.24,5.24,0,0,0-.67-1.52V23.5a14,14,0,0,0,2.3.22,1.13,1.13,0,0,0,1.17-.73,6.45,6.45,0,0,0,.51-2.22c.11-.76.21-1.94.27-3.54h-2.3c-.37,1.12-.72,2.16-1.07,3.06a25.5,25.5,0,0,1-1.57,2.84,17.75,17.75,0,0,1-1.9,2.45.57.57,0,0,1-.48-.17c-.42-.23-.85-.45-1.25-.68-.19,0-.27-.05-.27-.14a17.64,17.64,0,0,0,2.35-2.78,12.14,12.14,0,0,0,1.36-2.5,12.88,12.88,0,0,0,.8-2.08H161.1a28.87,28.87,0,0,1-1.33,2.67,19,19,0,0,1-2,2.53,15.22,15.22,0,0,1-2.4,2.16.63.63,0,0,1-.48-.2l-1.25-.64c-.16,0-.24-.06-.24-.14a18.07,18.07,0,0,0,2.91-2.48A10.69,10.69,0,0,0,158,18.94a10.67,10.67,0,0,0,.91-1.71h-1.47c-.27.36-.53.7-.8,1a11.85,11.85,0,0,1-1.92,2,.48.48,0,0,1-.43-.17,12.08,12.08,0,0,1-1.12-.59c-.16,0-.24,0-.24-.14a13.73,13.73,0,0,0,2.4-2.19,10.35,10.35,0,0,0,1.39-2,9.09,9.09,0,0,0,.69-1.4h-3.95c-.21,0-.32-.15-.32-.45v-.88c0-.28.11-.42.32-.42ZM166.31,1.21c.26,0,.42.11.42.31V10.2c0,.23-.16.34-.42.34h-10c-.27,0-.4-.11-.4-.34V1.52c0-.2.13-.31.4-.31ZM164.87,5V3h-7.11V5Zm0,1.74h-7.11V8.77h7.11Z"/><path class="cls-1" d="M158.49,29.2c0,.25-.08.39-.25.39s-.26.25-.26.59v8.46h10.3a.28.28,0,0,1,.32.31v1.12c0,.29-.1.43-.32.43h-7.39v9.66c0,.9.5,1.32,1.57,1.32h3.34c.67,0,1.07-.39,1.2-1.23a19.23,19.23,0,0,0,.45-2.84,4,4,0,0,0,1.47.87.41.41,0,0,1,.32.45,13.48,13.48,0,0,1-.8,3.26,1.85,1.85,0,0,1-2,1.35h-5q-2.4,0-2.4-1.86v-11h-4c0,1.46-.08,2.69-.13,3.71a15.14,15.14,0,0,1-.78,3.37,8.21,8.21,0,0,1-1.62,2.81,9.32,9.32,0,0,1-2.73,2.19c-.93.42-1.95.82-3.07,1.21-.18,0-.29-.11-.32-.34a9.27,9.27,0,0,1-.75-1.21.8.8,0,0,1-.08-.33,15.1,15.1,0,0,0,3.8-1.24,4.8,4.8,0,0,0,1.84-1.6,6,6,0,0,0,1.06-1.89,12.23,12.23,0,0,0,.73-2.81q.15-1.3.18-3.87H146c-.21,0-.32-.14-.32-.43V39a.28.28,0,0,1,.32-.31h10V29.2c0-.23.14-.34.4-.34C157.79,28.86,158.49,29,158.49,29.2Zm-9.7,1.21A44.54,44.54,0,0,1,153.17,36c0,.31-.08.48-.18.48a3.37,3.37,0,0,1-1.69.73,52.62,52.62,0,0,0-4.16-5.93c0-.23.43-.54,1.33-1A.42.42,0,0,1,148.79,30.41Zm18.34.42c.27.14.43.28.43.45s-.16.33-.43.39a.67.67,0,0,0-.69.45,22,22,0,0,1-3,4.92c-.24.28-.42.39-.56.39a.8.8,0,0,1-.5-.22c-.4-.17-.78-.37-1.13-.54-.16-.05-.24-.08-.24-.11a.74.74,0,0,1,.16-.31,15.89,15.89,0,0,0,2.22-2.7,12.84,12.84,0,0,0,1.63-3c.11-.28.21-.45.37-.45Z"/><path class="cls-1" d="M158.38,57.64c0,.11-.14.22-.4.31a1,1,0,0,0-.7.39,9.56,9.56,0,0,1-.9,1.26h9.21c.26,0,.42.12.42.34V81.55c0,.23-.16.34-.42.34h-1c-.3,0-.43-.11-.43-.34V79.7H150.26v1.85c0,.23-.16.34-.42.34h-1.05c-.29,0-.42-.11-.42-.34V60c0-.29.13-.43.42-.43H154a5.66,5.66,0,0,0,.56-.67,10.15,10.15,0,0,0,1.17-2.19c.06-.14.14-.23.24-.23A15.14,15.14,0,0,1,158.38,57.64Zm5.74,8v-4.3H150.26v4.3Zm0,6v-4.3H150.26v4.3Zm0,6.24v-4.5H150.26v4.5Z"/><path class="cls-1" d="M149.41,90.54v-5.7c0-.2.13-.31.43-.31,1.3,0,2,.11,2,.31s-.08.39-.24.42-.27.23-.27.56v4.72h3.55c.19,0,.3.17.3.45v.88c0,.3-.11.45-.3.45h-3.09a17.44,17.44,0,0,0,1.09,2.55,12.08,12.08,0,0,0,2.32,3.21.37.37,0,0,1,.19.28s-.08.14-.19.22a4.52,4.52,0,0,1-.77.85c-.11.16-.21.25-.29.25a.49.49,0,0,1-.35-.2,15.72,15.72,0,0,1-2-3.09c-.16-.34-.32-.7-.48-1.1v14.48c0,.22-.16.34-.42.34h-1c-.3,0-.43-.12-.43-.34V97a.34.34,0,0,0,0,.14c-.49,1.24-1,2.36-1.47,3.37a24.48,24.48,0,0,1-1.82,2.87.57.57,0,0,1-.45-.17c-.35-.34-.7-.65-1-1a.81.81,0,0,1-.08-.28,13.12,13.12,0,0,0,1.39-1.91,19.42,19.42,0,0,0,1.68-3.37c.32-.87.83-2.33,1.47-4.38h-3.6c-.22,0-.32-.15-.32-.45V91c0-.28.1-.45.32-.45Zm12.12-1.74V84.73c0-.2.13-.31.4-.31,1.31,0,2,.11,2,.31s-.08.42-.24.42-.26.22-.26.59V88.8h5.52c.22,0,.32.17.32.45v.87c0,.28-.1.42-.32.42H163.4v4.3h3.65a1.23,1.23,0,0,1,.54.17c.32.26.51.45.51.59a38.15,38.15,0,0,1-.94,3.77,21.2,21.2,0,0,1-1.49,3.12,18.09,18.09,0,0,1-1.55,2.25,3.8,3.8,0,0,1-.27.28,11.34,11.34,0,0,0,2.19,1.63,14.87,14.87,0,0,0,3.66,1.6c.16.06.26.11.26.2a.48.48,0,0,1-.13.31,9.3,9.3,0,0,0-1,1.06c-.14.17-.24.29-.32.29a1.4,1.4,0,0,1-.46-.26,23.41,23.41,0,0,1-2.35-1.09,17.21,17.21,0,0,1-2.77-2,1.65,1.65,0,0,1-.4-.39l-.75.61a14.63,14.63,0,0,1-2.56,1.63,27.37,27.37,0,0,1-3.53,1.58.51.51,0,0,1-.45-.31c-.38-.31-.78-.59-1.18-.87a1,1,0,0,1-.16-.26c0-.08.06-.14.22-.16a23,23,0,0,0,4-1.55,11.76,11.76,0,0,0,2.91-1.88l.24-.2a5.48,5.48,0,0,1-.64-.87,9.91,9.91,0,0,1-1.6-3.2,21.23,21.23,0,0,1-1.31-4.33h-1.09c-.22,0-.32-.14-.32-.42v-.9c0-.28.1-.43.32-.43h4.91v-4.3h-5.34c-.21,0-.29-.14-.29-.42v-.87c0-.28.08-.45.29-.45ZM160.14,99a13.26,13.26,0,0,0,1.5,3.32,10.43,10.43,0,0,0,1,1.38,7.57,7.57,0,0,0,.67-.82,17.72,17.72,0,0,0,1.66-2.81A34.71,34.71,0,0,0,166,96.59h-6.48A14.79,14.79,0,0,0,160.14,99Z"/><path class="cls-1" d="M152.56,114.94v-1.89c0-.22.13-.33.4-.33,1.31,0,2,.11,2,.33s-.08.4-.24.42-.26.23-.26.57v.9h5.84v-1.77c0-.23.14-.34.4-.34,1.34,0,2,.11,2,.34s-.11.39-.27.42-.27.22-.27.56v.79h6.57c.21,0,.32.14.32.42v.87c0,.31-.11.45-.32.45h-6.57V118c0,.22-.16.34-.42.34h-1.05c-.26,0-.4-.12-.4-.34v-1.32h-5.84V118c0,.22-.16.34-.43.34h-1c-.27,0-.4-.12-.4-.34v-1.32h-7c-.21,0-.32-.14-.32-.45v-.87c0-.28.11-.42.32-.42Zm-2.94,5.59v-1.88c0-.2.14-.31.43-.31,1.31,0,2,.11,2,.31s-.1.42-.26.42-.24.25-.24.59v.87h3.95v-1.77c0-.2.13-.31.43-.31,1.3,0,2,.11,2,.31s-.11.39-.27.42-.26.22-.26.56v.79h4.91v-2c0-.22.13-.34.43-.34,1.3,0,2,.12,2,.34s-.1.4-.27.4-.26.25-.26.59v1H168c.13,0,.21.11.21.34v.87c0,.28-.08.42-.21.42h-3.87v3c0,.31-.14.45-.4.45H155.9c-.3,0-.43-.14-.43-.45v-3h-3.95v4.61h15.11c.21,0,.32.17.32.45v.87c0,.31-.11.45-.32.45h-8.36v1.85h9.29c.14,0,.22.12.22.34v.87c0,.31-.08.45-.22.45h-8.19a25.15,25.15,0,0,0,9.77,3.74c0,.11-.11.22-.27.31a12.85,12.85,0,0,0-1,1.12c-.11.12-.19.2-.24.2a30.78,30.78,0,0,1-4.54-1.57,16.72,16.72,0,0,1-3.39-1.94,10.61,10.61,0,0,1-1.47-1.1V138c0,.23-.13.34-.4.34h-1c-.29,0-.43-.11-.43-.34v-4.69c-.21.17-.45.34-.66.48a17.78,17.78,0,0,1-2.65,1.71c-1,.51-2.19,1-3.41,1.49a20,20,0,0,1-2.65.79c-.13,0-.26-.14-.37-.37-.27-.34-.56-.67-.88-1-.16-.17-.22-.28-.22-.34a37.19,37.19,0,0,0,4.33-1.09,22.36,22.36,0,0,0,3.55-1.58,13.9,13.9,0,0,0,1.87-1.29h-8.6c-.16,0-.21-.14-.21-.45v-.87c0-.22.05-.34.21-.34h9.69v-1.85h-6.35c-.29,0-.43-.14-.43-.45v-5.93h-3.34c-.16,0-.21-.14-.21-.42v-.87c0-.23.05-.34.21-.34Zm12.63,1.63h-4.91v1.66h4.91Z"/><path class="cls-1" d="M152.83,141.32a.39.39,0,0,1,.34.4c0,.28-.13.39-.4.39a.57.57,0,0,0-.32.37,34.37,34.37,0,0,1-1.55,3.28H155c.27,0,.43.12.43.34v18.66c0,.23-.16.34-.43.34h-1c-.27,0-.4-.11-.4-.34v-1.43H148v2.19c0,.23-.16.34-.43.34h-1c-.29,0-.43-.11-.43-.34V146.21a.4.4,0,0,1,.43-.45h2.4a48.92,48.92,0,0,0,2.08-4.6.32.32,0,0,1,.32-.23Zm.77,12.26v-6.05H148v6.05Zm0,8v-6.27H148v6.27Zm9.18-20.15c.19.16.3.28.3.39a.3.3,0,0,1-.22.31.39.39,0,0,0-.4.34c-.4,1.23-.74,2.22-1.07,3H168a.47.47,0,0,1,.51.53c0,6.41-.11,10.82-.32,13.26a16.56,16.56,0,0,1-1,4.7,2.77,2.77,0,0,1-1.44,1.54,7.91,7.91,0,0,1-3,.48c-1.12,0-1.71-.2-1.71-.56a8.37,8.37,0,0,0-.38-1.41c0-.16,0-.22.11-.22l.21,0c.51.05,1,.08,1.37.08a4.41,4.41,0,0,0,2.67-.59c.53-.42.9-1.6,1.12-3.54a115.73,115.73,0,0,0,.48-12.56h-6a18.43,18.43,0,0,1-.9,1.66,15.88,15.88,0,0,1-1.61,2,1.89,1.89,0,0,1-.58-.08l-1-.42c-.13-.06-.18-.09-.18-.14a.29.29,0,0,1,.1-.26,13.87,13.87,0,0,0,2.35-3.23,18.94,18.94,0,0,0,1.07-2.36,28,28,0,0,0,1-3.4c.05-.11.13-.2.21-.2Zm-2.29,10.82a47.28,47.28,0,0,1,2.69,5.48c0,.28-.05.42-.16.45a2.87,2.87,0,0,1-1.49.64c-.91-2.33-1.74-4.27-2.51-5.81,0-.2.37-.48,1.15-.88A.43.43,0,0,1,160.49,152.26Z"/><path class="cls-1" d="M151.81,170a1.56,1.56,0,0,0,.11.28c0,.17-.14.25-.4.25a.82.82,0,0,0-.75.31c-.85,1.52-1.66,2.9-2.4,4.11.37.39.77.75,1.15,1.15.82-1.35,1.52-2.59,2.08-3.71a12.42,12.42,0,0,1,1.89,1.74c0,.11-.1.17-.26.17-.38,0-.59.08-.7.25-1.33,2.36-2.67,4.5-3.95,6.44l3.15-.23c-.21-.64-.48-1.29-.75-1.91,0-.11.46-.39,1.37-.87.42,1.07.8,2,1.06,2.9s.48,1.68.7,2.58c0,.09-.54.28-1.55.56-.11-.56-.24-1.23-.46-2l-1.62.34v11.77c0,.23-.16.34-.43.34h-1c-.3,0-.43-.11-.43-.34V182.72l-2.7.59a3.43,3.43,0,0,1-.74.79,12.47,12.47,0,0,1-.51-2.65,6.59,6.59,0,0,1,1.74-.28c1-1.54,1.84-2.86,2.48-4-.78-.62-1.36-1.09-1.79-1.4a18.08,18.08,0,0,0-2.14-1.13c0-.17.35-.62,1-1.37a.26.26,0,0,1,.22-.17c.32.22.64.48,1,.73a25.28,25.28,0,0,0,1.28-2.22c.64-1.24,1.09-2.17,1.39-2.78Zm-3.74,16a.41.41,0,0,1-.21.34.65.65,0,0,0-.24.5q-.19,2.53-.48,4.14c-.11.61-.24,1.2-.4,1.82-.05.14-.11.23-.13.23a8.34,8.34,0,0,0-1.45-.4c-.16-.05-.24-.14-.24-.25a25,25,0,0,0,.64-2.61,39.51,39.51,0,0,0,.43-4.13c0-.17,0-.29.19-.29C147.43,185.59,148.07,185.81,148.07,186Zm5.21-.45a48.27,48.27,0,0,1,1.15,4.72c0,.17-.51.34-1.47.45-.16,0-.21,0-.21-.19-.19-1.49-.46-3.07-.83-4.75,0-.12.4-.26,1.25-.43C153.23,185.3,153.25,185.39,153.28,185.5Zm2.4-8.18a9.57,9.57,0,0,1,.94,1.6,5.66,5.66,0,0,1-1.58.54,4.58,4.58,0,0,0-.69-1.29,9.06,9.06,0,0,0-1.5-1.77c0-.12.46-.4,1.36-.88C154.8,176.2,155.31,176.79,155.68,177.32Zm1.55,3.35c.27,0,.43.11.43.33v8.91c0,.23,0,.48,0,.79a2.82,2.82,0,0,0,.81,1.12,2.79,2.79,0,0,0,1.84.51h4.91a19,19,0,0,0,2.13-.22,14.17,14.17,0,0,0,2.17-.43l.21,0a.2.2,0,0,1,.21.22,11.35,11.35,0,0,0-.74,1.57c-.06.34-.22.51-.51.51h-8.38a4.34,4.34,0,0,1-3-1,6.06,6.06,0,0,1-.8-1.29c-.61.59-1.15,1.15-1.6,1.66a.75.75,0,0,0-.46.67c0,.23,0,.34-.13.34s-.19-.09-.29-.23l-1.18-1.85a10.92,10.92,0,0,0,2.7-1.69.59.59,0,0,0,.35-.62v-7.58H154c-.13,0-.19-.14-.19-.45V181c0-.22.06-.33.19-.33Zm-1.17-9.11a10.3,10.3,0,0,1,1,1.55,6.77,6.77,0,0,1-1.68.53,5.59,5.59,0,0,0-.69-1.24,9.57,9.57,0,0,0-1.5-1.71c0-.11.46-.39,1.36-.87A16.86,16.86,0,0,1,156.06,171.56Zm6.91-1.63c0,.17-.08.23-.19.23a.67.67,0,0,0-.53.31L162,171h6a.69.69,0,0,1,.43.14,2.42,2.42,0,0,1,.5.73,15.28,15.28,0,0,1-1.25,2.44,9,9,0,0,1-1.5,1.8,1.51,1.51,0,0,1-.34.31,6,6,0,0,0,.58.34c.56.25,1.23.5,2,.76l1.25.28c.14,0,.22.06.22.11a.49.49,0,0,1-.22.37c-.26.33-.5.64-.74.92a.44.44,0,0,1-.4.23,13.12,13.12,0,0,1-3-1.18,11.69,11.69,0,0,1-1.2-.7,17,17,0,0,1-2.78,1.2,11.9,11.9,0,0,1-2.69.68.49.49,0,0,1-.46-.2,6.13,6.13,0,0,1-.56-.87.27.27,0,0,1-.13-.22c0-.06,0-.12.13-.14.67-.12,1.34-.23,2-.4a14.09,14.09,0,0,0,3-1.18h0a8,8,0,0,1-1-1.09,12.06,12.06,0,0,1-1.25-1.92,1.74,1.74,0,0,0-.11.15,23,23,0,0,1-1.65,1.82.48.48,0,0,1-.43-.22,6,6,0,0,1-.67-.59.31.31,0,0,1-.16-.28l1.23-1.35a11.67,11.67,0,0,0,1.41-2.08,13.79,13.79,0,0,0,.8-2c0-.06.06-.08.11-.08A6.66,6.66,0,0,1,163,169.93Zm-.11,10.65V179c0-.14.11-.23.32-.23,1.23,0,1.87.11,1.87.34s-.08.34-.18.37-.22.19-.22.5v.56h3.63c.14,0,.22.12.22.31v.9c0,.28-.08.42-.22.42h-3.63v1.89h3.45c.1,0,.18.11.18.31v.89c0,.29-.08.43-.18.43h-3.45v1.88h4.17c.13,0,.21.11.21.31v.9c0,.28-.08.42-.21.42h-4.17v2c0,.22-.16.33-.43.33h-1a.29.29,0,0,1-.32-.33v-2h-4c-.16,0-.21-.14-.21-.42v-.9c0-.2.05-.31.21-.31h4v-1.88h-3.52c-.16,0-.21-.14-.21-.43v-.89c0-.2.05-.31.21-.31h3.52v-1.89h-3.52c-.16,0-.21-.14-.21-.42v-.9c0-.19.05-.31.21-.31Zm.06-6.43a6.9,6.9,0,0,0,1.41,1.32,4.64,4.64,0,0,0,.56-.48,8.59,8.59,0,0,0,1.31-1.69c.13-.22.27-.47.4-.75h-4.75A11.29,11.29,0,0,0,162.92,174.15Z"/><path class="cls-1" d="M152.56,197.81a.89.89,0,0,1,.61.17c.43.39.64.67.64.81l-2.43,7.08a1.47,1.47,0,0,0-.08.4.55.55,0,0,0,.14.36,13.75,13.75,0,0,1,1.47,3,12,12,0,0,1,.58,3.6A8.5,8.5,0,0,1,153,216a3.13,3.13,0,0,1-1.47,1.77,3,3,0,0,1-2,.53c-.43,0-.65-.14-.65-.42a3.73,3.73,0,0,0-.4-1.43c0-.14.11-.22.32-.22l1.15.11a1.36,1.36,0,0,0,1.36-1,4.89,4.89,0,0,0,.4-2.19,10,10,0,0,0-.48-2.86,13.87,13.87,0,0,0-1.86-3.43.37.37,0,0,1-.14-.31,1.63,1.63,0,0,1,.08-.4l2.59-6.63h-4.24v22.63c0,.22-.16.33-.43.33h-1c-.27,0-.4-.11-.4-.33v-24c0-.28.13-.42.4-.42Zm4.8,19.5a.69.69,0,0,1,.19.37c0,.08-.05.11-.16.11a.68.68,0,0,0-.4.23,13.83,13.83,0,0,1-1.39,1.91,15.27,15.27,0,0,1-2.21,2c-.22,0-.35-.08-.4-.22l-.89-.76c-.13-.06-.18-.14-.18-.23a.14.14,0,0,1,.1-.14,4,4,0,0,0,1-.67,9.16,9.16,0,0,0,1.54-1.63,21.26,21.26,0,0,0,1.26-1.89c0-.11.08-.16.13-.16Zm.83-17.9c.11.17.19.28.19.37a.14.14,0,0,1-.14.14.41.41,0,0,0-.29.16,18.88,18.88,0,0,1-1.12,1.8,12.85,12.85,0,0,1-1.79,1.86c-.21,0-.35-.06-.4-.23a8.73,8.73,0,0,1-.85-.78c-.14-.06-.19-.12-.19-.2a.16.16,0,0,1,.05-.14,2.78,2.78,0,0,0,.83-.62,8.49,8.49,0,0,0,1.26-1.52c.29-.45.61-1,1-1.74,0-.11.06-.17.11-.17Zm4.06,5.42c0,.09-.11.17-.32.23a.62.62,0,0,0-.4.34c-.16.33-.3.67-.46,1H167c.26,0,.4.11.4.31v8.23c0,.23-.14.34-.4.34h-4.49v5.48c0,1.38-1.09,2.08-3.23,2.08h-1c-.13,0-.19-.17-.19-.5a4.64,4.64,0,0,0-.45-1.47v-.11a6.1,6.1,0,0,0,1.58.23c1,0,1.44-.34,1.44-1v-4.72h-4.38c-.27,0-.4-.11-.4-.34v-8.23c0-.2.13-.31.4-.31H159a2.38,2.38,0,0,0,.24-.48,10,10,0,0,0,.7-2c0-.11,0-.19.13-.19A17.76,17.76,0,0,1,162.25,204.83Zm3.23,5.26V207.9h-7.82v2.19Zm0,1.55h-7.82v2.08h7.82Zm-2.59-14.08c.19.11.29.19.29.25s-.1.22-.32.22-.5.54-.5,1.21v2.08c0,1.24-.56,1.86-1.69,1.86h-1.44c-.13,0-.18-.14-.18-.45a5.88,5.88,0,0,0-.46-1.18c0-.14.06-.23.22-.23a6.2,6.2,0,0,0,1.68.23s.08-.28.08-.9v-1.52a12,12,0,0,0-.06-1.24,4.88,4.88,0,0,1,0-.53c0-.06.13-.11.4-.11Zm4.06,2.58c.77.62,1.44,1.15,2,1.6,0,.06,0,.12-.13.23l-.8,1.09a26.53,26.53,0,0,0-2.62-2.08,13.87,13.87,0,0,0-1.87-1.09,5.62,5.62,0,0,1,.72-1.13c.08-.11.16-.19.22-.19A22.6,22.6,0,0,1,167,200.14Zm.91,18.32c.77.74,1.44,1.38,2,2l-.14.23-.8,1.18a23.36,23.36,0,0,0-2.75-2.53,12,12,0,0,0-1.95-1.29,4.92,4.92,0,0,1,.83-1.24c.08-.11.16-.2.22-.2C166.31,217.26,167.16,217.9,167.86,218.46Z"/><path class="cls-1" d="M148,234.45c.67.68,1.26,1.27,1.74,1.77,0,0,0,.09-.13.2l-.81,1.13a23.82,23.82,0,0,0-2.29-2.31,16.53,16.53,0,0,0-1.66-1.21,5.43,5.43,0,0,1,.72-1.15.27.27,0,0,1,.22-.17A19.65,19.65,0,0,1,148,234.45Zm1.93,4.84c.42,1,.64,1.49.64,1.54a.89.89,0,0,1-.11.37,52.52,52.52,0,0,1-2.16,4.92c-.38.78-.8,1.6-1.34,2.5a2.19,2.19,0,0,0-.13.9c0,.19-.08.31-.21.31s-.67-.57-1.61-1.66a.31.31,0,0,1-.16-.31.84.84,0,0,1,.08-.34,12.83,12.83,0,0,0,1.39-1.82c.64-1,1.26-2.14,1.9-3.41.53-1.06,1-2.07,1.36-3,.05-.11.11-.2.16-.2S149.86,239.18,149.92,239.29Zm-1.07-11.38c.75.67,1.39,1.29,1.92,1.85,0,0-.05.08-.13.2a12.6,12.6,0,0,1-.8,1.09,29.08,29.08,0,0,0-2.57-2.39,11.06,11.06,0,0,0-1.81-1.2,4.67,4.67,0,0,1,.72-1.16c.08-.11.16-.17.21-.17A26.31,26.31,0,0,1,148.85,227.91Zm10,1c.26,0,.42.11.42.34v4.16c0-.11.08-.2.3-.2a10,10,0,0,1,1.57.11V229.2c0-.23.11-.34.32-.34h6.46c.27,0,.4.11.4.34v4.61c0,.22-.13.33-.4.33h-1a.29.29,0,0,1-.32-.33v-3.52h-3.66v3.18c0,.22-.13.34-.4.34h-1s-.11,0-.11,0-.08.08-.1.08-.22.2-.22.51v.76h7.61c.14,0,.22.11.22.34v.87c0,.22-.08.33-.22.33h-5.2v1.41h4.38c.26,0,.42.11.42.34v4c0,.22-.16.31-.42.31h-4.7v2.61a9.52,9.52,0,0,0,1.14-.28,8.46,8.46,0,0,0,1.74-.73,5.08,5.08,0,0,0,1.09-.7h.11c.05,0,.13.08.24.22a13.56,13.56,0,0,1,1,1.41c0,.17-.08.22-.19.22l-.53-.11a.09.09,0,0,0-.08,0,8.78,8.78,0,0,1-1.31.59,17.82,17.82,0,0,1-1.87.62,13.23,13.23,0,0,1-1.33.28v.56c0,.73.4,1.12,1.25,1.12h2a1.15,1.15,0,0,0,.85-.28,2.25,2.25,0,0,0,.35-1.32c0-.11.08-.17.16-.17a3,3,0,0,0,1.44.48c.21,0,.32.11.32.28a4.72,4.72,0,0,1-.91,2.22,1.61,1.61,0,0,1-1.28.42H163.5c-1.38,0-2.08-.56-2.08-1.63v-5.84h-4.8v1.54h3.44c.13,0,.21.12.21.34v.87c0,.23-.08.34-.21.34h-3.44v2.33c1.22-.19,2.4-.42,3.52-.67a1.3,1.3,0,0,1,.13,0,.2.2,0,0,1,.22.22,4.71,4.71,0,0,1-.11,1.33c-2.11.45-4.24.84-6.38,1.2-.21.45-.4.68-.51.68s-.48-.7-.93-2.11c.69-.08,1.44-.2,2.29-.31v-5.73h-1.44a19.1,19.1,0,0,1-.37,2.67,12.14,12.14,0,0,1-1.12,3.17,7.28,7.28,0,0,1-1.26,1.86.49.49,0,0,1-.26-.06,5.35,5.35,0,0,0-1-.7.55.55,0,0,1-.11-.34,7.24,7.24,0,0,0,1.28-2.13,14.07,14.07,0,0,0,.83-3,27.09,27.09,0,0,0,.26-4v-4.72c0-.23.11-.34.32-.34h7.21v-1.66c0,.22-.16.34-.42.34h-1.05a.3.3,0,0,1-.32-.34v-3.18H154v3.52c0,.22-.13.33-.4.33h-1a.29.29,0,0,1-.32-.33V229.2c0-.23.11-.34.32-.34Zm.53-3.06c.11,0,.19.11.19.33V227c0,.22-.08.33-.19.33h-7.42c-.16,0-.22-.11-.22-.33v-.88c0-.22.06-.33.22-.33Zm-2.62,10.87h-3.23v1.41h3.23Zm0,4.5v-1.54h-3.23v1.54Zm-1-10.29c.48.68.88,1.27,1.23,1.83a.32.32,0,0,1-.19.31c-.45.45-.75.67-.85.67a.24.24,0,0,1-.19-.16c-.35-.48-.75-1-1.2-1.52a.46.46,0,0,1-.08-.28,3.45,3.45,0,0,1,.77-.82.53.53,0,0,1,.38-.17Zm5.9,5.79h-3.12v1.41h3.12Zm0,4.5v-1.54h-3.12v1.54Zm6.89-15.37c.13,0,.21.11.21.33V227c0,.22-.08.33-.21.33h-7.4c-.16,0-.21-.11-.21-.33v-.88c0-.22.05-.33.21-.33Zm-2.09,15.37v-1.54h-3v1.54Zm-1.65-10.29c.43.71.83,1.35,1.15,1.94a.31.31,0,0,1-.19.31c-.45.45-.75.68-.85.68s-.11-.06-.16-.17c-.33-.51-.7-1.07-1.13-1.63a.54.54,0,0,1-.08-.28,3.38,3.38,0,0,1,.78-.82.47.47,0,0,1,.37-.17A.88.88,0,0,1,164.76,230.88Z"/><path class="cls-1" d="M151.81,255.56v-2c0-.22.13-.34.43-.34,1.31,0,2,.12,2,.34s-.1.4-.26.42-.24.23-.24.57v1h7.07v-2.11c0-.2.13-.31.43-.31,1.31,0,2,.11,2,.31s-.1.39-.26.42-.24.23-.24.56v1.13h6c.21,0,.32.14.32.42v.87c0,.31-.11.45-.32.45h-6v2c0,.22-.16.33-.43.33h-1c-.3,0-.43-.11-.43-.33v-2h-7.07v2c0,.22-.16.33-.43.33h-1c-.3,0-.43-.11-.43-.33v-2h-6.25c-.21,0-.32-.14-.32-.45V256c0-.28.11-.42.32-.42Zm-3.15,9.36c.64.42,1.23.81,1.71,1.18a.83.83,0,0,1-.13.22,14.15,14.15,0,0,1-.83,1.18,21.25,21.25,0,0,0-2.3-1.52c-.66-.33-1.23-.61-1.65-.78a5.32,5.32,0,0,1,.82-1.24c.09-.11.17-.2.22-.2C147.35,264.19,148.07,264.58,148.66,264.92Zm1.84,4c.38.89.59,1.37.59,1.43a.8.8,0,0,1-.11.34c-.69,1.74-1.36,3.23-2,4.46-.35.71-.75,1.44-1.23,2.28a1.84,1.84,0,0,0-.13.82c0,.22-.08.33-.22.33a8.36,8.36,0,0,1-1.49-1.57.33.33,0,0,1-.16-.31.45.45,0,0,1,.1-.31,9.22,9.22,0,0,0,1.29-1.66c.58-.9,1.17-1.94,1.76-3.09s.91-1.91,1.28-2.75c0-.12.11-.2.16-.2S150.48,268.79,150.5,268.94Zm-.21-8c.67.5,1.25,1,1.73,1.35a.83.83,0,0,1-.13.22c-.53.82-.8,1.21-.8,1.21a24.19,24.19,0,0,0-2.38-1.74A12.19,12.19,0,0,0,147,261a5.55,5.55,0,0,1,.8-1.24c.08-.11.16-.2.24-.2C149,260.08,149.7,260.5,150.29,260.9Zm8.7-1.18q.24.21.24.33c0,.23-.16.31-.42.31a.53.53,0,0,0-.46.28,3.65,3.65,0,0,0-.24.51h7.48a.7.7,0,0,1,.42.14,2.72,2.72,0,0,1,.51.73,18.45,18.45,0,0,1-1.65,2.9,14.93,14.93,0,0,1-2,2.1l-.56.43a13,13,0,0,0,2.51,1.06,21.14,21.14,0,0,0,3.57.85c.24,0,.38.08.38.25a.71.71,0,0,1-.16.37,9,9,0,0,0-.67,1,.3.3,0,0,1-.32.22,25.35,25.35,0,0,1-4.35-1.38,11.7,11.7,0,0,1-2.65-1.35,1.75,1.75,0,0,1-.24.14,20.64,20.64,0,0,1-3.71,1.47,22.48,22.48,0,0,1-3.55.78.47.47,0,0,1-.45-.19,8.6,8.6,0,0,1-.56-.88.28.28,0,0,1-.14-.22c0-.06.06-.11.19-.14.91-.14,1.79-.31,2.67-.51a16.57,16.57,0,0,0,4.06-1.37,1.49,1.49,0,0,0,.24-.14,8.12,8.12,0,0,1-1.07-1,13.51,13.51,0,0,1-1.81-2.3,1.5,1.5,0,0,0-.14.2,12.43,12.43,0,0,1-1.2,1.4,7.71,7.71,0,0,1-1,.9.41.41,0,0,1-.37-.25,5.08,5.08,0,0,0-.72-.9c-.16-.11-.24-.2-.24-.28a.13.13,0,0,1,.05-.11,8.71,8.71,0,0,0,1.36-1.07,13.69,13.69,0,0,0,1.5-1.91,9.59,9.59,0,0,0,.82-1.44,16.7,16.7,0,0,0,.67-1.63c.05-.11.11-.19.16-.19Zm6.17,11.18c.27,0,.43.12.43.34v7.14c0,.22-.16.34-.43.34h-1c-.27,0-.4-.12-.4-.34v-.65h-7.1v.65c0,.22-.16.34-.43.34h-1c-.27,0-.4-.12-.4-.34v-7.14c0-.22.13-.34.4-.34Zm-1.44,5.17v-3.51h-7.1v3.51Zm-4.86-11.24a11.83,11.83,0,0,0,1.95,1.66,7.25,7.25,0,0,0,.88-.62,8.91,8.91,0,0,0,1.76-2,8,8,0,0,0,.67-1.07h-6.81A11.94,11.94,0,0,0,158.86,264.83Z"/><path class="cls-1" d="M158.14,296a5.71,5.71,0,0,1-1.71,2l-.69-.82a4.41,4.41,0,0,0,1.78-3.2h-2v-3.38h3.2v3.1A5.1,5.1,0,0,1,158.14,296Z"/><path class="cls-1" d="M110.31,1.1c0,.25-.08.39-.24.39s-.27.25-.27.59v8.46h10.31a.28.28,0,0,1,.32.31V12c0,.28-.11.42-.32.42h-7.4v9.67c0,.9.51,1.32,1.58,1.32h3.34c.66,0,1.06-.39,1.2-1.23a19.49,19.49,0,0,0,.45-2.84,3.84,3.84,0,0,0,1.47.87.41.41,0,0,1,.32.45,14,14,0,0,1-.8,3.26,1.87,1.87,0,0,1-2,1.35h-5c-1.6,0-2.41-.62-2.41-1.86v-11h-4c0,1.47-.08,2.7-.14,3.71a15.82,15.82,0,0,1-.77,3.38,8.33,8.33,0,0,1-1.63,2.81,9.28,9.28,0,0,1-2.72,2.19c-.94.42-2,.81-3.07,1.21-.19,0-.3-.11-.32-.34a10,10,0,0,1-.75-1.21.81.81,0,0,1-.08-.34,15,15,0,0,0,3.79-1.23A4.73,4.73,0,0,0,103,21a6,6,0,0,0,1.07-1.89,12.78,12.78,0,0,0,.72-2.81c.11-.87.16-2.16.19-3.88H97.82c-.22,0-.32-.14-.32-.42V10.85a.28.28,0,0,1,.32-.31h10V1.1c0-.23.13-.34.4-.34C109.62.76,110.31.87,110.31,1.1Zm-9.69,1.2A46.36,46.36,0,0,1,105,7.9c0,.31-.08.48-.19.48a3.31,3.31,0,0,1-1.68.73A53.89,53.89,0,0,0,99,3.18c0-.23.43-.54,1.34-1A.46.46,0,0,1,100.62,2.3ZM119,2.73c.27.14.43.28.43.45s-.16.33-.43.39a.66.66,0,0,0-.69.45,22.62,22.62,0,0,1-3,4.92c-.24.28-.43.39-.56.39a.91.91,0,0,1-.51-.22c-.4-.17-.77-.37-1.12-.54-.16-.05-.24-.08-.24-.11a.63.63,0,0,1,.16-.31,15.89,15.89,0,0,0,2.22-2.7,12.79,12.79,0,0,0,1.62-3c.11-.28.22-.45.38-.45Z"/><path class="cls-1" d="M101.93,48.37c.24.11.37.22.37.36s-.13.25-.37.31-.51.11-.56.34a18.62,18.62,0,0,1-2.49,3.76c-.21.2-.34.31-.45.31a.77.77,0,0,1-.43-.17,6.25,6.25,0,0,0-.93-.47.53.53,0,0,1-.21-.12.27.27,0,0,1,.13-.22,15.79,15.79,0,0,0,1.87-2,9.29,9.29,0,0,0,1.33-2.34c.08-.22.19-.33.32-.33Zm7.87-19.28c.27,0,.4.11.4.33v6.92c0,.22-.13.31-.4.31h-4.27v1.54h6.36c.13,0,.21.11.21.34v.87c0,.22-.08.34-.21.34H97.18c-.16,0-.22-.12-.22-.34v-.87c0-.23.06-.34.22-.34h6.46V36.65H99.05c-.27,0-.41-.09-.41-.31V29.42c0-.22.14-.33.41-.33Zm.11,12.19c.27,0,.4.12.4.31v4.84c0,.22-.13.33-.4.33h-4.48v5.15c0,1.32-1,2-3.05,2h-.72c-.11,0-.16-.17-.16-.5a4.24,4.24,0,0,0-.35-1.38v-.11a3.39,3.39,0,0,0,1.15.22c.88,0,1.34-.34,1.34-1V46.76H99.15c-.27,0-.4-.11-.4-.33V41.59c0-.19.13-.31.4-.31ZM108.34,32V30.63h-7.83V32Zm0,1.54h-7.83v1.55h7.83Zm.1,9.33h-7.82v2.2h7.82Zm.11,5.17a19.41,19.41,0,0,0,2.75,3.74.33.33,0,0,1,.16.31.7.7,0,0,1-.19.34c-.53.5-.85.76-1,.76a.37.37,0,0,1-.19-.12,19.77,19.77,0,0,1-3-4.27,13.19,13.19,0,0,1,1.26-1S108.44,47.94,108.55,48.08Zm11.37-18.35c0,.17-.16.23-.43.23s-.32.14-.45.39c-.35.56-.83,1.26-1.47,2.11a16,16,0,0,1-2.27,2.42,17.56,17.56,0,0,1-2,1.46.48.48,0,0,1-.5-.28c-.27-.31-.51-.62-.72-.9-.16-.06-.24-.14-.24-.26a.24.24,0,0,1,.08-.17,10.81,10.81,0,0,0,2.51-1.65,13.37,13.37,0,0,0,2-2.08,16.37,16.37,0,0,0,1.5-2.45.36.36,0,0,1,.29-.22A7.15,7.15,0,0,1,119.92,29.73Zm1.15,16.58c0,.17-.16.23-.43.23s-.35.17-.51.45c-.4.59-1,1.38-1.65,2.33A20.13,20.13,0,0,1,116,52.05c-.56.47-1.31,1-2.22,1.63a.51.51,0,0,1-.48-.28c-.26-.34-.53-.62-.74-.9-.16-.09-.22-.17-.22-.26a.16.16,0,0,1,.08-.16,13.29,13.29,0,0,0,2.78-1.86,15.87,15.87,0,0,0,2.22-2.36,16.8,16.8,0,0,0,1.65-2.7c.11-.17.24-.28.35-.28C120.51,45.7,121.07,46.17,121.07,46.31Zm0-9c0,.17-.16.22-.43.22s-.35.15-.48.4c-.4.56-1,1.29-1.65,2.19A16.2,16.2,0,0,1,116,42.72a18,18,0,0,1-2.16,1.51.45.45,0,0,1-.48-.28c-.27-.31-.53-.62-.75-.9-.16,0-.24-.14-.24-.25s0-.11.11-.17a10.42,10.42,0,0,0,2.72-1.71,13.1,13.1,0,0,0,2.19-2.22A15.92,15.92,0,0,0,119,36.14a.46.46,0,0,1,.35-.25C120.51,36.7,121.07,37.18,121.07,37.32Z"/><path class="cls-1" d="M104.41,61a25.43,25.43,0,0,0,1.07-4c0-.22.16-.36.35-.36,1.52.56,2.29.92,2.29,1.09a.36.36,0,0,1-.29.34.62.62,0,0,0-.62.45c-.24.9-.5,1.74-.77,2.53h13.48c.19,0,.29.11.29.31v1.09c0,.31-.1.45-.29.45H105.75c-.19.45-.38.85-.54,1.24a34.17,34.17,0,0,1-1.87,3.4V81.67c0,.22-.18.33-.53.33h-1c-.3,0-.43-.11-.43-.33V70a21,21,0,0,1-2.88,2.61.7.7,0,0,1-.46.15.53.53,0,0,1-.48-.34,3.73,3.73,0,0,0-.64-.73.37.37,0,0,1-.21-.37.24.24,0,0,1,.19-.22,6.85,6.85,0,0,0,1.86-1.27,14.4,14.4,0,0,0,2.81-3,17.74,17.74,0,0,0,2.19-4H97.9c-.22,0-.3-.14-.3-.45V61.35c0-.2.08-.31.3-.31Zm7.16,9V65.65c0-.23.13-.34.42-.34,1.39,0,2.08.11,2.08.34s-.1.39-.26.39-.27.25-.27.59V70h5.34c.19,0,.29.17.29.45v1.1c0,.28-.1.42-.29.42h-5.34v7.47h6.38c.19,0,.29.14.29.45v.88c0,.28-.1.42-.29.42H105.21c-.21,0-.32-.14-.32-.42v-.88c0-.31.11-.45.32-.45h6.36V72H106c-.21,0-.32-.14-.32-.42v-1.1c0-.28.11-.45.32-.45Z"/><path class="cls-1" d="M104.06,85.94V84.73c0-.2.14-.31.43-.31,1.31,0,2,.11,2,.31s-.11.42-.27.42-.27.22-.27.59v.2H112V84.73c0-.2.14-.31.4-.31,1.34,0,2,.11,2,.31s-.11.42-.27.42-.27.22-.27.59v.2h6.89c.13,0,.21.11.21.33v.87c0,.23-.08.34-.21.34h-6.89v1.21c0,.22-.16.34-.43.34h-1c-.26,0-.4-.12-.4-.34V87.48h-6.06v1.21c0,.22-.13.34-.4.34h-1c-.11,0-.19,0-.21,0,0,.17-.08.28-.16.28s-.16.2-.16.51v.45h3.44c.13,0,.21.11.21.3v.68c0,.28-.08.42-.21.42H104V93h4.91c.11,0,.19.11.19.34V94c0,.28-.08.42-.19.42H107v1.33c0,.22,0,.33.11.33H108c.27,0,.51-.31.75-1l1.34.87c-.48,1-1.07,1.55-1.76,1.55h-1.77a.93.93,0,0,1-.64-.14v.14c0,.22-.08.31-.21.31H104V99c1.28-.17,2.51-.34,3.68-.53,0,0,.11,0,.19,0a.18.18,0,0,1,.18.2,4.54,4.54,0,0,1-.1,1.32c-2.94.36-5.93.7-9,1-.24.45-.42.65-.53.65s-.4-.62-.83-1.86c1.28-.11,2.86-.28,4.7-.56V97.8h-2.21c-.14,0-.19-.09-.19-.31v-.68c0-.22,0-.34.19-.34h2.21V95.15c0-.11.14-.19.4-.19,1.12,0,1.68.08,1.68.19s-.08.37-.21.4-.21.19-.21.5v.42h1.57V94.39h-4.62a.86.86,0,0,0,0,.15,3.75,3.75,0,0,1-.43.92c-.16.26-.37.51-.58.79a3,3,0,0,1-.8.67,3.65,3.65,0,0,1-.83.48c-.27.11-.56.2-.83.28a.36.36,0,0,1-.32-.14c-.24-.33-.48-.64-.69-.92a.31.31,0,0,1-.14-.26s0,0,.06,0a4.26,4.26,0,0,0,.82-.17c.22-.09.43-.17.64-.28a4.36,4.36,0,0,0,.78-.51,2.73,2.73,0,0,0,.53-.59,1.57,1.57,0,0,0,.3-.37H97.71c-.16,0-.21-.14-.21-.42V93.3c0-.23,0-.34.21-.34h4.67V91.64H99.05c-.14,0-.19-.14-.19-.42v-.68c0-.19,0-.3.19-.3h3.33V88.91c0-.14.11-.22.32-.22a6.68,6.68,0,0,1,1.39.11.18.18,0,0,1,0-.11V87.48H97.18c-.16,0-.22-.11-.22-.34v-.87c0-.22.06-.33.22-.33Zm16.69,17.79c.13,0,.21.11.21.33v.87c0,.23-.08.34-.21.34h-5.23c.56.51,1.06,1,1.49,1.43.75.9,1.42,1.69,2,2.42l-.14.2c-.53.73-.8,1.09-.82,1.09-.54-.73-1.07-1.4-1.63-2q-8.58.84-16.1,1.27c-.16,0-.27.11-.32.36s-.19.62-.4.62-.62-.84-1.15-2.53c.51,0,1.44-.06,2.83-.11,0-.06,0-.09,0-.09.62-1,1.18-1.82,1.66-2.64H97.18c-.16,0-.22-.11-.22-.34v-.87c0-.22.06-.33.22-.33Zm-7.21,2a1.37,1.37,0,0,1,.24-.42h-8.94c-.7,1.15-1.26,2-1.63,2.61,3.79-.22,7.74-.5,11.88-.87A10.12,10.12,0,0,0,113.54,105.69Zm1.36-4.49c.14,0,.22.11.22.33v.65c0,.31-.08.45-.22.45H103.53c-.13,0-.19-.14-.19-.45v-.65c0-.22.06-.33.19-.33Zm.75-11.64a.4.4,0,0,1-.21.31c-.16.06-.22.22-.22.48s0,.48,0,.64h3.36a.71.71,0,0,1,.32.2,3,3,0,0,1,.29.79,7.22,7.22,0,0,0-.8,2.22,7.34,7.34,0,0,0-.24,1.85,3.41,3.41,0,0,0,.43,1.86c.27.39.51.56.72.56a.47.47,0,0,0,.45-.34,5.65,5.65,0,0,0,.54-1.94.33.33,0,0,1,.27-.14c.08,0,.13.06.18.14a4.42,4.42,0,0,0,.72.62.4.4,0,0,1,.14.34,9.63,9.63,0,0,1-1.42,3.15,1.11,1.11,0,0,1-.88.47,1.75,1.75,0,0,1-1.25-.61,3.48,3.48,0,0,1-1-1.72,7.81,7.81,0,0,1-.35-2.39,11.79,11.79,0,0,1,.72-3.62h-2.27a23.52,23.52,0,0,1-.21,2.61c-.11.51-.21.93-.32,1.29.64.73,1.2,1.35,1.65,1.92,0,0-.05.08-.1.19l-.72,1c-.48-.56-.94-1.12-1.42-1.63a3.83,3.83,0,0,1-.72.93,5.62,5.62,0,0,1-2,1.24,3.27,3.27,0,0,1-.85.22.29.29,0,0,1-.32-.19,5.73,5.73,0,0,0-.62-1,.56.56,0,0,1-.1-.36,4.88,4.88,0,0,0,1.89-.65A3.85,3.85,0,0,0,112.5,97a1.2,1.2,0,0,0,.21-.39,17.06,17.06,0,0,0-1.65-1.29,4.5,4.5,0,0,1,.72-1,.23.23,0,0,1,.21-.17c.48.39.88.73,1.26,1a16.21,16.21,0,0,0,.34-2.64h-3c-.16,0-.21-.14-.21-.45v-.65c0-.22,0-.34.21-.34h3c0-.5,0-1,0-1.54,0-.11,0-.2.1-.2A5.5,5.5,0,0,1,115.65,89.56Z"/><path class="cls-1" d="M103.74,121a.53.53,0,0,1-.4.56.7.7,0,0,0-.4.34c-.5,1-1,1.86-1.49,2.61v13.41c0,.22-.14.34-.4.34h-1c-.3,0-.43-.12-.43-.34V127c-.48.59-1,1.21-1.68,1.89a11.92,11.92,0,0,0-1.23-1.3c-.16-.17-.21-.28-.21-.36a.53.53,0,0,1,.08-.2,15.85,15.85,0,0,0,3.17-3.65,24.16,24.16,0,0,0,2.08-3.77c.06-.11.11-.17.19-.17A10.12,10.12,0,0,1,103.74,121Zm-.26-6.69a.7.7,0,0,1,.37.56c0,.23-.11.31-.32.31a.75.75,0,0,0-.69.37A25.4,25.4,0,0,1,98,120.75a.46.46,0,0,1-.42-.25,5.82,5.82,0,0,0-.83-.87.6.6,0,0,1-.19-.31c0-.11,0-.17.11-.2a6.57,6.57,0,0,0,1.52-1.23,15.83,15.83,0,0,0,2-2.11,15.38,15.38,0,0,0,1.39-2.45c.1-.16.18-.28.24-.28Zm3.25,9c.16,0,.24.14.24.25s-.08.37-.21.39-.35.43-.4.93a38.93,38.93,0,0,1-.4,6.91c-.35,1.27-.69,2.37-1,3.27,0,.16-.19.25-.54.25-1-.31-1.46-.54-1.46-.65a16.7,16.7,0,0,0,1.22-3.6,60.69,60.69,0,0,0,.51-7.87c0-.16.11-.28.35-.28Zm1.18-4.78v-5.51c0-.2.13-.31.43-.31,1.3,0,2,.11,2,.31s-.08.39-.24.42-.27.23-.27.56v4.53h3.55c.19,0,.3.14.3.42v.87c0,.31-.11.45-.3.45H109.8v17.57c0,.22-.16.33-.42.33h-1c-.3,0-.43-.11-.43-.33V120.19h-3.23c-.22,0-.3-.14-.3-.45v-.87c0-.28.08-.42.3-.42Zm4.3-4.41a30.19,30.19,0,0,1,1.65,2.64c0,.28,0,.42-.16.45a2.58,2.58,0,0,1-1.39.64,32.32,32.32,0,0,0-1.47-3c0-.19.38-.5,1.15-.9A.29.29,0,0,1,112.21,114Zm1.14,9.33c0,.14-.1.28-.32.45v8.57c0,.22.06.31.22.31h.5c.24,0,.48-.87.75-2.62l1.55,1c-.51,2.27-1.12,3.4-1.87,3.4h-1.57c-.91,0-1.36-.39-1.36-1.21v-10a.28.28,0,0,1,.32-.31C112.74,123.06,113.35,123.2,113.35,123.37Zm7.83-2.73c.18,0,.29.14.29.42v.9c0,.28-.11.42-.29.42h-1.79v13.75c0,1.37-1.1,2.08-3.23,2.08H115c-.13,0-.19-.2-.19-.54a5.33,5.33,0,0,0-.42-1.46v-.08a8.7,8.7,0,0,0,1.65.19c1,0,1.47-.33,1.47-1v-13h-2.94c-.21,0-.29-.14-.29-.42v-.9c0-.28.08-.42.29-.42Zm-.43-5.93c.21,0,.32.14.32.42v.9c0,.28-.11.42-.32.42h-5.63c-.22,0-.32-.14-.32-.42v-.9c0-.28.1-.42.32-.42Z"/><path class="cls-1" d="M104.06,148.41a.57.57,0,0,1-.42.56.57.57,0,0,0-.43.31,21.45,21.45,0,0,1-2,2.89V166c0,.23-.13.34-.4.34h-1c-.29,0-.42-.11-.42-.34V154.31q-.81.84-1.77,1.68a12.48,12.48,0,0,0-1.17-1.2.84.84,0,0,1-.19-.34.43.43,0,0,1,.08-.2,15.61,15.61,0,0,0,3.5-3.48,21.82,21.82,0,0,0,2.27-3.63.25.25,0,0,1,.21-.17A13.19,13.19,0,0,1,104.06,148.41Zm-1-6.16a.73.73,0,0,1,.34.56c0,.17-.13.23-.4.23a.72.72,0,0,0-.66.31,23.67,23.67,0,0,1-4.54,4.94.49.49,0,0,1-.43-.19,7.87,7.87,0,0,0-.75-.82.43.43,0,0,1-.18-.31.2.2,0,0,1,.1-.19A5.87,5.87,0,0,0,98,145.62a14.16,14.16,0,0,0,1.9-2,14.56,14.56,0,0,0,1.33-2.34c.08-.16.16-.28.22-.28Zm4.32,14.28v-2.84c0-.23.13-.34.43-.34,1.31,0,2,.11,2,.34s-.1.39-.26.39-.27.26-.27.59v1.86h3.44c.22,0,.32.17.32.45v.87c0,.31-.1.45-.32.45h-3.44v4c1.39-.22,2.72-.48,4-.76.06,0,.11,0,.16,0a.21.21,0,0,1,.22.23,5.85,5.85,0,0,1-.11,1.52c-3,.59-6.06,1.09-9.16,1.54-.26.51-.48.76-.64.76s-.5-.79-1-2.3c1.31-.11,2.89-.34,4.7-.65V158.3h-3.76c-.22,0-.3-.14-.3-.45V157c0-.28.08-.45.3-.45Zm0-11.86V141c0-.19.13-.31.43-.31,1.31,0,2,.12,2,.31s-.1.4-.26.42-.27.23-.27.57v2.64h3c.19,0,.3.17.3.45V146c0,.31-.11.45-.3.45h-3v4.16h3.66c.21,0,.32.17.32.45v.87c0,.31-.11.45-.32.45h-9.29c-.22,0-.3-.14-.3-.45v-.87c0-.28.08-.45.3-.45h3.76v-4.16h-3.23c-.21,0-.32-.14-.32-.45v-.87c0-.28.11-.45.32-.45Zm13.67,4.38c.19,0,.29.17.29.45v.87c0,.31-.1.45-.29.45H119v13.3c0,1.37-1.1,2.08-3.26,2.08H114.4c-.14,0-.19-.2-.19-.54a4.52,4.52,0,0,0-.46-1.43v-.11a11.54,11.54,0,0,0,1.9.19c1,0,1.44-.33,1.44-1V150.82h-3c-.21,0-.32-.14-.32-.45v-.87c0-.28.11-.45.32-.45Zm-.43-6.12c.22,0,.32.14.32.42v.9c0,.28-.1.42-.32.42h-6.06c-.21,0-.29-.14-.29-.42v-.9c0-.28.08-.42.29-.42Z"/><path class="cls-1" d="M104.65,169.43c.21,0,.35.16.35.39s-.14.39-.4.39a.54.54,0,0,0-.32.37c-.54,1.26-1,2.36-1.55,3.29h4.14c.26,0,.42.11.42.33v18.66c0,.23-.16.34-.42.34h-1c-.27,0-.4-.11-.4-.34v-1.43H99.79v2.19c0,.23-.16.34-.42.34H98.32c-.29,0-.42-.11-.42-.34v-19.3c0-.29.13-.45.42-.45h2.41c.66-1.27,1.36-2.81,2.08-4.61a.32.32,0,0,1,.32-.23Zm.78,12.25v-6H99.79v6Zm0,8v-6.27H99.79v6.27Zm9.18-20.15c.19.17.29.28.29.39a.31.31,0,0,1-.21.31.38.38,0,0,0-.4.34c-.4,1.23-.75,2.22-1.07,3h6.59a.47.47,0,0,1,.51.53c0,6.41-.11,10.82-.32,13.27a15.88,15.88,0,0,1-1,4.69,2.76,2.76,0,0,1-1.44,1.55,8.1,8.1,0,0,1-3,.47c-1.12,0-1.71-.19-1.71-.56a8.24,8.24,0,0,0-.37-1.4c0-.17,0-.23.11-.23l.21,0a11.54,11.54,0,0,0,1.36.08,4.32,4.32,0,0,0,2.67-.59c.54-.42.91-1.6,1.12-3.54a110.55,110.55,0,0,0,.48-12.56h-6a18.45,18.45,0,0,1-.91,1.66,16.78,16.78,0,0,1-1.6,2,1.68,1.68,0,0,1-.59-.08l-1-.42c-.14-.06-.19-.09-.19-.14a.27.27,0,0,1,.11-.25,14.55,14.55,0,0,0,2.35-3.24,18.3,18.3,0,0,0,1.07-2.36,28,28,0,0,0,1-3.4c0-.11.13-.19.21-.19Zm-2.3,10.82a45.76,45.76,0,0,1,2.7,5.48c0,.28-.05.42-.16.45a2.89,2.89,0,0,1-1.5.64c-.9-2.33-1.73-4.27-2.51-5.81,0-.2.38-.48,1.15-.87A.42.42,0,0,1,112.31,180.36Z"/><path class="cls-1" d="M101.34,205.59a56.67,56.67,0,0,1-.48,8.32A23.64,23.64,0,0,1,99.61,219,13.86,13.86,0,0,1,98.22,222a.51.51,0,0,1-.27-.06,5.89,5.89,0,0,0-1-.75.51.51,0,0,1-.13-.4,13.83,13.83,0,0,0,1.44-3.54,36,36,0,0,0,.88-5,64.77,64.77,0,0,0,.29-6.64v-7.44c0-.23.14-.34.43-.34h19c.27,0,.4.11.4.34v5.36c0,.31-.13.45-.4.45H101.34Zm18.26.57c.13,0,.21.11.21.3v.9c0,.28-.08.43-.21.43H109.32c-.9,1.71-1.63,3-2.11,3.82q4.17-.35,8.73-.85c-.42-.67-.85-1.32-1.25-1.88,0-.17.37-.48,1.15-.87a.48.48,0,0,1,.32.11,47.39,47.39,0,0,1,3.55,5.29c0,.28-.08.42-.19.42a2.91,2.91,0,0,1-1.49.67c-.4-.78-.81-1.52-1.18-2.19-1.76.22-3.44.42-5.07.59v2.9h6.57c.13,0,.21.11.21.33V217c0,.31-.08.45-.21.45h-6.57v2.87h8.76c.13,0,.21.08.21.31v.9c0,.28-.08.42-.21.42H101.15c-.16,0-.21-.14-.21-.42v-.9c0-.23,0-.31.21-.31h8.76v-2.87h-6.49c-.13,0-.18-.14-.18-.45v-.87c0-.22.05-.33.18-.33h6.49v-2.7q-2.88.33-5.53.5c-.18,0-.32.14-.4.4,0,.47-.18.7-.45.7s-.61-.9-1.15-2.73c.43,0,1.23-.05,2.43-.17a1.72,1.72,0,0,0,.32,0c.08-.12.16-.26.24-.4.75-1.29,1.42-2.5,2-3.59h-4.56c-.16,0-.21-.15-.21-.43v-.9c0-.19.05-.3.21-.3Zm-18.26-3.86h16.07v-2.86H101.34Z"/><path class="cls-1" d="M119.71,226.33c.21,0,.32.11.32.34v1.09c0,.31-.11.45-.32.45h-12.5l-.77,3.85h8.89c.27,0,.4.2.4.54l-2.19,13a3.36,3.36,0,0,0,.27,1.68c.18.65.5,1,1,1H117a1.28,1.28,0,0,0,1.15-.48,14.81,14.81,0,0,0,.83-3.4c0-.34.08-.51.21-.51a.67.67,0,0,1,.3.17,8.15,8.15,0,0,0,1,.79c.19.14.3.25.3.34a20,20,0,0,1-1.28,4.32,1.58,1.58,0,0,1-1.34.85h-3.84a2.21,2.21,0,0,1-2.11-1.13,5.69,5.69,0,0,1-.48-2.19c-.75.11-1.5.25-2.24.39-3.29.62-6.65,1.24-10.09,1.94-.22.54-.43.82-.62.87a.47.47,0,0,1-.35-.16l-.69-2.67c.64-.06,1.87-.26,3.74-.54l3.79-18.58H97.9c-.22,0-.3-.14-.3-.45v-1.09c0-.23.08-.34.3-.34Zm-6,7.7H106l-2.51,12.42c1.79-.28,3.92-.64,6.43-1.06l1.9-.37Zm-4,5.9a28.42,28.42,0,0,1,1.28,3,5.63,5.63,0,0,1-1.79.57,12.85,12.85,0,0,0-.93-2.53,19.14,19.14,0,0,0-2.09-3.4c0-.12.48-.45,1.47-1C108.55,237.8,109.24,238.92,109.78,239.93Z"/><path class="cls-1" d="M100.62,259.15v-3.71a6.08,6.08,0,0,0-.11-1.23,1.59,1.59,0,0,1-.1-.54c0-.14.16-.22.53-.22l2.08.31c.22.11.32.2.32.25s-.1.25-.32.25c-.37.15-.53.57-.53,1.3v3.59h2.83c.21,0,.32.17.32.45v.88c0,.3-.11.45-.32.45h-2.83v5.59a23,23,0,0,0,2.37-1.55.16.16,0,0,1,.14-.08.19.19,0,0,1,.21.2,6.18,6.18,0,0,1-.1,1.54c-.91.62-1.77,1.21-2.62,1.77v8.24c0,1.29-.94,2-2.8,2H97.82c-.16,0-.24-.17-.24-.47a5.13,5.13,0,0,0-.51-1.3c0-.14.05-.19.21-.19a16.36,16.36,0,0,0,2.19.19c.75,0,1.15-.33,1.15-1v-6.27c-.88.56-1.76,1.07-2.62,1.55-.26.53-.45.78-.61.78s-.51-.75-1-2.3a26.26,26.26,0,0,0,4.06-1.91l.21-.11v-6.66H97.39c-.21,0-.32-.15-.32-.45v-.88c0-.28.11-.45.32-.45Zm13.64-5.56c.16.11.24.22.24.31s-.16.34-.43.34a1,1,0,0,0-.66.19c-.38.45-.7.82-1,1.13h6.75a.94.94,0,0,1,.43.11,2.28,2.28,0,0,1,.51.76,15.57,15.57,0,0,1-1.66,2.84,14.2,14.2,0,0,1-1.89,2.1,12.66,12.66,0,0,1-2.51,1.61,17.85,17.85,0,0,1-2.51,1.07c.43.28.67.44.67.5s-.06.25-.16.25a.55.55,0,0,0-.48.29c-.06.05-.08.11-.11.11h7.82c.21,0,.32.17.32.45v.87c0,.31-.11.45-.32.45H114v2.95h6.57c.21,0,.32.17.32.45v.87c0,.31-.11.45-.32.45H114v3.82h3.87v-2.39c0-.22.13-.33.4-.33,1.31,0,2,.11,2,.33s-.08.4-.24.4-.26.25-.26.59v4.27c0,.22-.16.34-.43.34h-1c-.27,0-.4-.12-.4-.34v-1.1H107.61v1.1c0,.22-.16.34-.42.34h-1c-.3,0-.43-.12-.43-.34v-5.17c0-.2.13-.31.43-.31,1.3,0,2,.11,2,.31s-.11.42-.27.42-.24.25-.24.59v1.29h4.49v-3.82h-6.57c-.21,0-.32-.14-.32-.45v-.87c0-.28.11-.45.32-.45h6.57V267h-2.43c-.21.17-.43.28-.59.39a17.63,17.63,0,0,1-2.32,1.35.57.57,0,0,1-.45-.25c-.24-.2-.48-.4-.72-.62a.41.41,0,0,1-.16-.34c.56-.28,1.12-.62,1.7-1a10,10,0,0,0,2-1.52l.3-.31a23.07,23.07,0,0,1-2.51.51.45.45,0,0,1-.46-.23c-.18-.28-.37-.56-.56-.84a.31.31,0,0,1-.13-.25c0-.06,0-.12.21-.14a23.21,23.21,0,0,0,2.62-.48c.64-.14,1.25-.31,1.81-.48-.85-1-1.62-1.74-2.35-2.42,0-.17.38-.47,1.15-.87a.31.31,0,0,1,.22.11,25.73,25.73,0,0,1,2.85,2.48l.35-.17c.43-.23.85-.45,1.23-.68-1.07-1-2.06-1.82-3-2.5,0-.19.38-.47,1.15-.87a.27.27,0,0,1,.22.09c1.12.73,2.16,1.46,3.12,2.22a8.75,8.75,0,0,0,1.73-2,8.06,8.06,0,0,0,.65-1h-7.16c-.16.11-.27.22-.37.28a17.45,17.45,0,0,1-1.76,1.18,10.28,10.28,0,0,1-1.45.73.39.39,0,0,1-.37-.25,4.31,4.31,0,0,0-.72-.9c-.16-.12-.24-.2-.24-.28l.08-.06a13.54,13.54,0,0,0,2-.93,14,14,0,0,0,2.27-1.54,9.44,9.44,0,0,0,1.23-1.21,8.14,8.14,0,0,0,1-1.35c.11-.11.19-.17.27-.17Z"/><path class="cls-1" d="M107,284.53c0-.9,0-1.85,0-2.87,0-.28.11-.42.32-.42l2.14.26c.24.05.37.14.37.28,0,.33-.16.47-.45.47s-.48.71-.48,1.72v.56h9.48c.26,0,.42.11.42.31v12.42c0,.23-.16.34-.42.34h-1c-.29,0-.42-.11-.42-.34v-.87h-6.54a3,3,0,0,0,.24.73,13.32,13.32,0,0,0,1.23,2.9c.9-.57,1.76-1.13,2.56-1.72a1.62,1.62,0,0,1,.85-.28c1.23.9,1.87,1.41,1.87,1.55s-.13.33-.4.33a2.09,2.09,0,0,0-1.25.4c-.7.39-1.55.84-2.59,1.35a10.13,10.13,0,0,0,2.4,2.44,2.23,2.23,0,0,0,.91.42,1.54,1.54,0,0,0,1.2-.53,13.72,13.72,0,0,0,1.79-3.06c0-.17.13-.26.34-.26a.38.38,0,0,1,.24.14,5.23,5.23,0,0,0,.89.59.47.47,0,0,1,.24.37,12.35,12.35,0,0,1-2,3.57,3.29,3.29,0,0,1-2.43,1.37,4.82,4.82,0,0,1-2.46-.78,12.82,12.82,0,0,1-3-3.35,50.4,50.4,0,0,1-6.28,2.5c-1.38.45-3.28,1-5.65,1.52a.64.64,0,0,1-.57-.28c-.29-.36-.56-.7-.82-1-.19-.09-.27-.17-.27-.28s.08-.14.27-.17a57.43,57.43,0,0,0,7-1.74,37.79,37.79,0,0,0,5.45-2.2,17.9,17.9,0,0,1-1.23-3.06,13.84,13.84,0,0,1-.42-1.49h-7.59v1.74c0,.23-.16.34-.42.34h-1c-.27,0-.41-.11-.41-.34V284.84c0-.2.14-.31.41-.31Zm.24,5c-.11-1-.16-2.11-.19-3.4h-6.22v3.4Zm.77,5.06c-.24-1.07-.42-2.16-.56-3.29h-6.62v3.29Zm1.07-5.06h7.8v-3.4h-8C108.92,287.43,109,288.55,109.08,289.56Zm.24,2.28a19.48,19.48,0,0,0,.51,2.78h7v-3.29h-7.64Z"/><path class="cls-1" d="M102.09,322.5c.27,0,.4.11.4.33v6.5a9.35,9.35,0,0,0,.08,1,4.21,4.21,0,0,0,1.33,1.49,6,6,0,0,0,3.15.64h7c.62,0,1.68-.08,3.18-.25a21.27,21.27,0,0,0,3.15-.51l.32,0a.2.2,0,0,1,.21.22c-.32.62-.56,1.15-.77,1.66-.06.34-.22.53-.48.53H107.05a7.09,7.09,0,0,1-4.35-1.23,6.18,6.18,0,0,1-1.31-1.78c-.9.85-1.73,1.58-2.43,2.28a1.11,1.11,0,0,0-.66.87c0,.28-.08.42-.19.42s-.19-.08-.32-.22l-1.23-2c.43-.05,1.66-.81,3.63-2.33a.81.81,0,0,0,.43-.84v-5.06H97.39c-.21,0-.32-.14-.32-.45V323c0-.28.11-.45.32-.45Zm-1.9-5.57c.75.51,1.36,1,1.9,1.41a.84.84,0,0,1-.14.22c-.53.82-.8,1.21-.8,1.21a25.6,25.6,0,0,0-2.56-1.83,16.36,16.36,0,0,0-1.84-.92,5.6,5.6,0,0,1,.83-1.24c.08-.11.16-.2.24-.2C98.78,316.09,99.55,316.54,100.19,316.93Zm1.18-5.7c.8.45,1.49.84,2,1.18a1.44,1.44,0,0,1-.1.22,12.56,12.56,0,0,1-.83,1.21,23.46,23.46,0,0,0-2.8-1.52,19.54,19.54,0,0,0-2-.78,5.31,5.31,0,0,1,.8-1.24c.08-.11.16-.2.24-.2C99.82,310.5,100.67,310.89,101.37,311.23Zm17.7-.68c.26,0,.42.11.42.31V330c0,.23-.16.34-.42.34h-1c-.27,0-.4-.11-.4-.34v-1.32H107v1.44c0,.22-.13.33-.4.33h-1c-.29,0-.42-.11-.42-.33V311a.37.37,0,0,1,.42-.42Zm-1.44,16.36V312.3H107v14.61Zm-2.41-12.31c.27,0,.43.11.43.34V324c0,.23-.16.34-.43.34h-1c-.21,0-.32-.11-.32-.34v-1h-3v1.1c0,.22-.16.33-.42.33h-1c-.22,0-.32-.11-.32-.33v-9.22c0-.23.1-.34.32-.34Zm-1.36,6.8v-5.14h-3v5.14Z"/><path class="cls-1" d="M99.82,343.49c.53.39,1,.76,1.41,1.07,0,.05,0,.11-.1.22-.54.73-.8,1.1-.83,1.1a12.59,12.59,0,0,0-1.9-1.35,8.53,8.53,0,0,0-1.33-.73,5.1,5.1,0,0,1,.75-1.13c.05-.11.13-.19.18-.19C98.75,342.87,99.34,343.21,99.82,343.49Zm17.7,12.62c.27,0,.4.11.4.31v4.3h2.51c.13,0,.21.08.21.31v.89c0,.2-.08.31-.21.31H97.6c-.16,0-.21-.11-.21-.31V361c0-.23,0-.31.21-.31h2.59v-4.3c0-.2.14-.31.43-.31Zm-14.47-10.35c.37.9.59,1.38.59,1.44a.37.37,0,0,1-.14.28q-1.2,2.28-2.24,3.88a24.13,24.13,0,0,1-1.44,2,1.25,1.25,0,0,0-.13.68c0,.22-.08.34-.22.34A8.07,8.07,0,0,1,98,352.76a.3.3,0,0,1-.13-.28.36.36,0,0,1,.1-.28,12.12,12.12,0,0,0,1.45-1.43,28.06,28.06,0,0,0,1.94-2.67c.54-.85,1-1.66,1.45-2.39,0-.09.1-.14.16-.14S103,345.65,103.05,345.76Zm-.64-6.66c.59.51,1.12.93,1.55,1.3a1.44,1.44,0,0,1-.14.19c-.53.76-.8,1.13-.8,1.13a19.15,19.15,0,0,0-2.08-1.66,11.63,11.63,0,0,0-1.47-.87,5.62,5.62,0,0,1,.72-1.13c.08-.11.16-.19.22-.19C101.21,338.32,101.87,338.74,102.41,339.1Zm3.23,21.62v-3.21h-3.55v3.21Zm15-14.17c.14,0,.22.11.22.34v.65c0,.3-.08.44-.22.44H108.39c-.27.48-.48.88-.67,1.21H120c.1,0,.18.12.18.31a22.37,22.37,0,0,1-.26,3.23,4.63,4.63,0,0,1-.78,1.75c-.29.42-1.09.62-2.4.62-.72,0-1.09-.17-1.12-.54a5.55,5.55,0,0,0-.43-1.43v-.23a4.07,4.07,0,0,0,1.55.34c.64,0,1.07-.11,1.26-.37a2,2,0,0,0,.5-1.09,6.54,6.54,0,0,0,.27-1.29h-3.47c-.21.56-.4,1.09-.59,1.57a12.66,12.66,0,0,1-.85,1.52,10.8,10.8,0,0,1-1.07,1.32.45.45,0,0,1-.4-.14l-1.07-.51c-.13,0-.19,0-.19-.14a9.1,9.1,0,0,0,1.37-1.46,7.5,7.5,0,0,0,.82-1.35,7.73,7.73,0,0,0,.35-.81H111c-.21.56-.43,1.06-.61,1.51a12.78,12.78,0,0,1-.94,1.49,10.72,10.72,0,0,1-1.14,1.3.47.47,0,0,1-.41-.14l-1.06-.51c-.14,0-.19,0-.19-.14a10.06,10.06,0,0,0,1.47-1.43,7.1,7.1,0,0,0,.88-1.3,5.85,5.85,0,0,0,.37-.78h-2.51a10.49,10.49,0,0,1-1,1.2,13.44,13.44,0,0,1-1.55,1.44A.54.54,0,0,1,104,353c-.3-.31-.59-.59-.88-.87a.58.58,0,0,1-.06-.28,7.78,7.78,0,0,0,1.2-.87,9.08,9.08,0,0,0,1.47-1.61c.22-.28.48-.73.86-1.35h-1.77c-.16,0-.21-.14-.21-.44v-.65c0-.23.05-.34.21-.34Zm-2.8-8.23c.27,0,.4.11.4.33v6.24c0,.23-.13.34-.4.34H107.19c-.3,0-.43-.11-.43-.34v-6.24c0-.22.13-.33.43-.33ZM111,360.72v-3.21H107.4v3.21Zm5.53-19.56v-1.52h-7.93v1.52Zm0,1.32h-7.93v1.43h7.93Zm-.43,18.24v-3.21h-3.34v3.21Z"/><path class="cls-1" d="M110,380.27a5.5,5.5,0,0,1-1.7,2l-.7-.81a4.43,4.43,0,0,0,1.79-3.21h-2v-3.37h3.21v3.09A5,5,0,0,1,110,380.27Z"/><path class="cls-1" d="M56.21,2.64c.27,0,.4.11.4.31V20.63c0,.22-.13.34-.4.34h-1c-.29,0-.43-.12-.43-.34V19.08H50.68v3c0,.23-.16.34-.42.34h-1c-.3,0-.43-.11-.43-.34v-19c0-.28.13-.42.43-.42ZM54.74,9.86V4.38H50.68V9.86Zm0,7.48v-5.7H50.68v5.7ZM64.33,3.63V.76c0-.23.13-.34.42-.34,1.31,0,2,.11,2,.34s-.11.39-.27.42-.24.23-.24.56V3.63h5.31c.22,0,.32.14.32.42V5c0,.28-.1.42-.32.42H66.22V9.22h6.35c.22,0,.32.17.32.45v.87c0,.28-.1.42-.32.42H69.66v3.32h2.49c.21,0,.32.14.32.42v.87c0,.31-.11.45-.32.45H69.66v7.7c0,1.38-1.09,2.08-3.25,2.08h-2.7c-.13,0-.19-.2-.19-.53a4.64,4.64,0,0,0-.45-1.47v-.08c1.12.11,2.19.2,3.26.2s1.44-.34,1.44-1V16H59.23c-.22,0-.32-.14-.32-.45V14.7c0-.28.1-.42.32-.42h8.54V11H58.29c-.21,0-.32-.14-.32-.42V9.67c0-.28.11-.45.32-.45h6V5.37h-5.1c-.22,0-.32-.14-.32-.42v-.9c0-.28.1-.42.32-.42Zm-.59,15.54c.67.5,1.25.95,1.73,1.35a.59.59,0,0,1-.13.25,11.26,11.26,0,0,1-.8,1.18,24.19,24.19,0,0,0-2.38-1.74c-.69-.4-1.25-.71-1.68-.9a5.6,5.6,0,0,1,.83-1.24c0-.11.13-.2.21-.2A23.62,23.62,0,0,1,63.74,19.17Z"/><path class="cls-1" d="M69.74,43.47c.22,0,.32.15.32.43v.9c0,.28-.1.42-.32.42h-7.6v6.15H72.36c.21,0,.32.14.32.45v.87c0,.28-.11.42-.32.42H49.72c-.21,0-.29-.14-.29-.42v-.87c0-.31.08-.45.29-.45H60.27V45.22h-7.5c-.22,0-.32-.14-.32-.42v-.9c0-.28.1-.43.32-.43ZM62.46,29c0,.26-.11.4-.27.42s-.27.23-.27.57v1.43h9.61c.27,0,.4.11.4.34v4.49c0,.23-.13.34-.4.34h-1c-.29,0-.43-.11-.43-.34V33.13H64.33V38.3c0,.82.48,1.21,1.46,1.21h3a2.26,2.26,0,0,0,1.42-.31c.32-.14.5-.62.61-1.46a.26.26,0,0,1,.27-.2,3.1,3.1,0,0,0,1.62.54c.22,0,.35.14.35.34a4.71,4.71,0,0,1-1.36,2.5,2.84,2.84,0,0,1-1.87.45h-5q-2.4,0-2.4-1.86V33.13H58.19l1.25.59a.51.51,0,0,1,.29.42c0,.12-.1.14-.32.14a.45.45,0,0,0-.4.29,20.49,20.49,0,0,1-1.52,2.75A11.71,11.71,0,0,1,55.14,40a18.34,18.34,0,0,1-2.69,1.82,15.45,15.45,0,0,1-1.58.74c-.27,0-.43-.06-.45-.2A10.41,10.41,0,0,0,49.54,41a16,16,0,0,0,2.4-1.1,15.26,15.26,0,0,0,2.53-1.91,10,10,0,0,0,2-2.42,13.65,13.65,0,0,0,1.15-2.39H51.51v3.52c0,.22-.16.33-.43.33H50c-.26,0-.4-.11-.4-.33V31.84c0-.28.14-.45.4-.45h10V29c0-.22.14-.33.43-.33C61.79,28.64,62.46,28.75,62.46,29Z"/><path class="cls-1" d="M57.76,63.65a.54.54,0,0,1-.4.56.75.75,0,0,0-.54.4,31.92,31.92,0,0,1-2.4,3.54V81.67c0,.22-.13.33-.4.33H53c-.29,0-.43-.11-.43-.33V70.34c-.74.79-1.63,1.66-2.61,2.56a14.9,14.9,0,0,0-1.15-1.21c-.16-.17-.22-.28-.22-.34a.43.43,0,0,1,.11-.22A19.35,19.35,0,0,0,53,66.86a30.48,30.48,0,0,0,2.78-4.42.28.28,0,0,1,.24-.19A10.93,10.93,0,0,1,57.76,63.65Zm-1.07-6.24A.75.75,0,0,1,57,58c0,.16-.16.22-.43.22a.94.94,0,0,0-.83.39,29.46,29.46,0,0,1-5.74,6,.45.45,0,0,1-.4-.22,5.11,5.11,0,0,0-.77-.82.47.47,0,0,1-.19-.28.26.26,0,0,1,.16-.23,8.2,8.2,0,0,0,1.84-1.37,16.06,16.06,0,0,0,2.38-2.36,19.19,19.19,0,0,0,1.71-2.76c.11-.19.21-.31.29-.31Zm10.14-.67c0,.25-.1.39-.26.42s-.24.22-.24.56v3h6.24c.22,0,.32.17.32.45V62c0,.28-.1.42-.32.42H63.82c-.06,1.66-.08,3.09-.14,4.3h7.53c.22,0,.32.14.32.42a84.54,84.54,0,0,1-.4,8.52,17,17,0,0,1-1,4.58c-.43,1.07-1.52,1.63-3.29,1.63-1.3,0-2-.22-2-.62A4.55,4.55,0,0,0,64,79.7v-.23a12.76,12.76,0,0,0,2.8.34,1.68,1.68,0,0,0,1.79-1.12,12.37,12.37,0,0,0,.78-3.54q.27-2,.42-6.66H63.58c-.06.78-.14,1.46-.19,2a32.19,32.19,0,0,1-1.2,5.9,11.59,11.59,0,0,1-1.6,3.23,11.82,11.82,0,0,1-2.19,2.48c-.48-.54-.91-1-1.26-1.44a7.68,7.68,0,0,0,1.58-1.77,13.18,13.18,0,0,0,1.68-3.23,31.39,31.39,0,0,0,1.12-5.56,74.68,74.68,0,0,0,.4-7.68H58.29c-.21,0-.32-.14-.32-.42v-.87c0-.28.11-.45.32-.45h6.14v-4c0-.2.14-.31.43-.31C66.17,56.43,66.83,56.54,66.83,56.74Z"/><path class="cls-1" d="M57.14,91.87a.57.57,0,0,1-.42.56c-.27.08-.43.19-.48.36A27.69,27.69,0,0,1,54,95.94v13.72c0,.22-.16.33-.43.33h-1c-.29,0-.42-.11-.42-.33V98.08c-.7.7-1.5,1.46-2.41,2.24a10.69,10.69,0,0,0-1.15-1.2.56.56,0,0,1-.18-.34.41.41,0,0,1,.1-.2,18.88,18.88,0,0,0,4-3.9,27.57,27.57,0,0,0,2.61-4.05.27.27,0,0,1,.22-.17A12.07,12.07,0,0,1,57.14,91.87Zm-1.2-6.24a.63.63,0,0,1,.38.53c0,.17-.16.23-.43.23a.75.75,0,0,0-.72.39,28.49,28.49,0,0,1-5,5.76.45.45,0,0,1-.4-.22,4.15,4.15,0,0,0-.77-.79.54.54,0,0,1-.19-.31.23.23,0,0,1,.13-.23,6.7,6.7,0,0,0,1.6-1.32,16,16,0,0,0,2.06-2.27,17.1,17.1,0,0,0,1.49-2.67c.11-.2.19-.31.24-.31ZM61.74,88V85.18c0-.23,0-.34.1-.34a10.4,10.4,0,0,1,2.3.45.28.28,0,0,1-.24.31c-.22.11-.3.34-.3.67V88h2.19V85.18c0-.23.14-.34.43-.34,1.31,0,2,.11,2,.34s-.11.39-.27.42-.27.22-.27.56V88h3.77c.26,0,.42.12.42.31v6.49a.38.38,0,0,1-.42.43H67.66v3.85h5.13c.18,0,.29.16.29.45,0,2.08-.11,3.54-.21,4.41a9.19,9.19,0,0,1-.62,2.42c-.26.56-.9.84-2,.84-.78,0-1.18-.17-1.2-.54a5.55,5.55,0,0,0-.48-1.43v-.22a12.88,12.88,0,0,0,1.68.11.64.64,0,0,0,.67-.54,7.56,7.56,0,0,0,.29-1.63c.05-.47.08-1.18.13-2.1H67.66v8.88c0,.22-.13.34-.4.34h-1c-.29,0-.43-.12-.43-.34v-8.88H63.07a14.55,14.55,0,0,1-.67,2.41,14.25,14.25,0,0,1-1.79,3.55A16.36,16.36,0,0,1,58,109.66c-.11,0-.19-.09-.29-.26a7.54,7.54,0,0,0-.83-.78c-.16-.12-.24-.2-.24-.29a14.7,14.7,0,0,0,2.64-2.83,13.38,13.38,0,0,0,1.36-2.76,13.55,13.55,0,0,0,.51-1.85h-3c-.16.59-.35,1.15-.51,1.66-.08.22-.13.3-.16.3a1.09,1.09,0,0,1-.45-.08,12.21,12.21,0,0,1-1.23-.25.22.22,0,0,1-.21-.23,21.15,21.15,0,0,0,.8-2.36,29.81,29.81,0,0,0,.8-3.06c.21-1.18.4-2.45.51-3.74,0-.22.08-.37.29-.37a8.81,8.81,0,0,1,1.58.76h2.19V89.79H58c-.21,0-.32-.14-.32-.45v-.88c0-.28.11-.42.32-.42Zm-.27,10.74a31.34,31.34,0,0,0,.27-3.51H59.33c-.18,1.29-.4,2.5-.64,3.57a.81.81,0,0,0-.08.28h2.81A1.27,1.27,0,0,1,61.47,98.78Zm4.32-3.51H63.6c0,1.09-.1,2.27-.21,3.57a1.06,1.06,0,0,0,0,.28h2.43ZM63.6,93.52h2.19V89.79H63.6Zm4.06,0H70V89.79h-2.3Z"/><path class="cls-1" d="M52.21,124.46c.42,1,.66,1.49.66,1.55a1.24,1.24,0,0,1-.08.48c-.45,2.41-.88,4.44-1.25,6.12-.22,1-.48,2-.78,3.15a6.58,6.58,0,0,0-.08,1.13c0,.22-.08.33-.21.33s-.67-.56-1.6-1.68a.37.37,0,0,1-.19-.31,1,1,0,0,1,.08-.42,15.53,15.53,0,0,0,.94-2.28c.42-1.24.85-2.67,1.28-4.24.37-1.38.66-2.65.93-3.8,0-.14.06-.22.11-.22S52.15,124.35,52.21,124.46Zm-.27-7.61c.53,1.07,1,2.05,1.33,2.89a.61.61,0,0,1-.13.26,12.89,12.89,0,0,1-.8,1.18,39.59,39.59,0,0,0-1.82-3.74,17.08,17.08,0,0,0-1.3-2,5.56,5.56,0,0,1,.82-1.24c.08-.11.16-.19.22-.19A25.26,25.26,0,0,1,51.94,116.85Zm5.36,5.76c.16.14.24.25.24.34a.31.31,0,0,1-.18.31.2.2,0,0,0-.22.22,11.42,11.42,0,0,1-.32,1.21H62c.13,0,.21.11.21.34v.87c0,.31-.08.45-.21.45H59.52c-.05,1.35-.11,2.44-.19,3.29h3.34c.13,0,.21.11.21.33v.87c0,.31-.08.45-.21.45h-3.2a8,8,0,0,0,.9,1.66,9.4,9.4,0,0,0,1.55,1.86.46.46,0,0,1-.16.39,12.83,12.83,0,0,0-1,.93s-.08,0-.11-.09a6.85,6.85,0,0,1-1-1.23,14.54,14.54,0,0,1-.93-1.86,15,15,0,0,1-.67,1.83,8.49,8.49,0,0,1-1.47,2,8.26,8.26,0,0,1-2,1.55l-1.14-1.21A6.9,6.9,0,0,0,54.93,136a8.5,8.5,0,0,0,1.52-1.94,12.36,12.36,0,0,0,.93-2.81H53.91c-.16,0-.21-.14-.21-.45V130c0-.22,0-.33.21-.33h3.74c.08-.9.13-2,.19-3.29H56.29c-.16.42-.32.81-.48,1.15a8.22,8.22,0,0,1-.75,1.26,1,1,0,0,1-.53-.11c-.32-.11-.64-.25-1-.39-.14-.06-.19-.11-.19-.17a.16.16,0,0,1,0-.14,9.42,9.42,0,0,0,1.15-2.11,16.2,16.2,0,0,0,.54-1.54c.16-.57.29-1.33.45-2.23,0,0,0-.11.11-.11Zm-1-9.28c.16,0,.27.09.27.17s0,.31-.13.34-.16.14-.16.31v2c.5-.14,1-.28,1.44-.45a7.33,7.33,0,0,0,1.92-.9,7.6,7.6,0,0,0,1.23-.9.12.12,0,0,1,.08,0c.08,0,.19.09.29.26a15.19,15.19,0,0,1,1.07,1.52c0,.16-.08.22-.21.22l-.51-.11c-.05,0-.08,0-.11,0a13.39,13.39,0,0,1-1.41.81,21.55,21.55,0,0,1-2.06.76c-.48.17-1,.31-1.73.48v1.21c0,.73.42,1.09,1.33,1.09h1.47c.8,0,1.28-.11,1.47-.34a5.7,5.7,0,0,0,.72-2.08,2.61,2.61,0,0,0,1,1c.22.11.35.23.35.37a6,6,0,0,1-1,2.27c-.21.34-.69.48-1.41.48H57.46c-1.89,0-2.83-.59-2.83-1.77v-6.69a.19.19,0,0,1,.22-.22Zm15.81,8.41a.47.47,0,0,1,.42.33,6.14,6.14,0,0,1,.94,1.19c-1,2.24-1.55,3.68-1.76,4.3-.06.16-.08.22-.11.22a.54.54,0,0,1-.4-.17,9,9,0,0,1-.88-.79.26.26,0,0,1-.19-.25l1.71-3.2h-3v6.15h3c.14,0,.22.12.22.34v.87c0,.31-.08.45-.22.45h-3v4.75a15.05,15.05,0,0,0,1.81.08c.46,0,1.34-.08,2.67-.22a.63.63,0,0,1-.13.34,7.09,7.09,0,0,0-.38,1.29c0,.22-.1.34-.21.34H71a9.12,9.12,0,0,1-3.45-.48,4.76,4.76,0,0,1-1.44-.9,3.79,3.79,0,0,1-.85-1.07,4.45,4.45,0,0,1-.56-1.23A12.16,12.16,0,0,1,63,138.21a.51.51,0,0,1-.43-.2c-.29-.28-.56-.56-.77-.79a.6.6,0,0,1-.16-.33c0-.17,0-.28.13-.34a7.56,7.56,0,0,0,1.07-1.69,12.68,12.68,0,0,0,.69-2c.14-.7.27-1.51.38-2.41.1-1.07.19-2.39.21-3.91,0-.28.06-.45.22-.45l1.62.45c.16.11.27.2.27.31s-.13.37-.4.37a.86.86,0,0,0-.35.53q-.07,1.68-.24,3.12a13.91,13.91,0,0,0,.54,2.11,3.86,3.86,0,0,0,.64,1.35,2.91,2.91,0,0,0,.75.81v-11.8H63.5c-.16,0-.22-.14-.22-.42v-.88c0-.22.06-.33.22-.33Zm-.51-8.12a.68.68,0,0,1,.43.11c.32.28.5.5.5.64L69,119.1c.56.39,1,.75,1.47,1.09,0,0,0,.09-.13.2l-.7,1a28.78,28.78,0,0,0-3.12-2.16,18,18,0,0,0-2.21-1.13,4.72,4.72,0,0,1,.74-1c.06-.11.14-.17.19-.17.91.45,1.68.87,2.35,1.27l2.32-2.92H64c-.21,0-.32-.15-.32-.43v-.9a.28.28,0,0,1,.32-.3Z"/><path class="cls-1" d="M56.9,141.94a3.18,3.18,0,0,0,.14.31c0,.17-.16.25-.46.25a.88.88,0,0,0-.8.31c-1.25,1.46-2.43,2.79-3.55,4,.64.56,1.28,1.18,1.92,1.82,1.07-1.23,2-2.36,2.67-3.37a11.74,11.74,0,0,1,1.87,1.86c0,.11-.13.16-.34.16a1.38,1.38,0,0,0-.89.2c-1.65,2-3.25,3.79-4.85,5.42,1.33-.11,3-.28,4.88-.45a21,21,0,0,0-1.09-2.24c0-.12.45-.42,1.36-.9.59,1.21,1.09,2.3,1.47,3.31a24.84,24.84,0,0,1,.93,2.95,5.49,5.49,0,0,1-1.57.54,16.45,16.45,0,0,0-.62-2.36l-3,.62V166c0,.23-.16.34-.43.34h-1c-.3,0-.43-.11-.43-.34V154.73l-3.52.7a4.22,4.22,0,0,1-.86.87,13,13,0,0,1-.51-2.72,5.53,5.53,0,0,1,1.93-.4c1.25-1.35,2.32-2.53,3.17-3.54-1-.78-1.73-1.35-2.24-1.71-.77-.45-1.6-.87-2.46-1.27,0-.17.38-.64,1.13-1.49a.25.25,0,0,1,.24-.16l1,.67c.69-.76,1.33-1.49,1.89-2.22,1-1.21,1.63-2.11,2.06-2.73ZM51.83,157.4a.46.46,0,0,1-.32.45.65.65,0,0,0-.24.51c-.13,1.68-.29,3.06-.48,4.13-.11.62-.24,1.2-.4,1.82,0,.14-.11.23-.13.23a8.88,8.88,0,0,0-1.55-.4c-.16,0-.22-.14-.22-.25.25-.78.46-1.68.67-2.64a32.53,32.53,0,0,0,.46-4.19c0-.19.05-.31.21-.31C51.16,157,51.83,157.26,51.83,157.4Zm5.93-.53a58.79,58.79,0,0,1,1.79,6.46c0,.22-.54.39-1.58.56-.24,0-.35-.08-.35-.28a59.77,59.77,0,0,0-1.3-6.41c0-.17.42-.36,1.33-.56C57.7,156.64,57.73,156.72,57.76,156.87Zm7.61-12v-3.51c0-.22.13-.34.42-.34,1.31,0,2,.12,2,.34s-.11.39-.27.42-.24.23-.24.56v2.53h5.63c.19,0,.3.17.3.45v.87c0,.31-.11.45-.3.45H67.26v4.92H72c.21,0,.32.17.32.45v.87c0,.31-.11.45-.32.45H61.1c-.22,0-.3-.14-.3-.45V152c0-.28.08-.45.3-.45h4.27v-4.92H60.16c-.21,0-.32-.14-.32-.45v-.87c0-.28.11-.45.32-.45ZM71.85,156c.27,0,.4.12.4.31V166c0,.23-.13.34-.4.34h-1c-.29,0-.42-.11-.42-.34v-1.09H63V166c0,.23-.16.34-.43.34h-1c-.29,0-.42-.11-.42-.34v-9.55c0-.29.13-.43.42-.43Zm-1.46,7.12v-5.37H63v5.37Z"/><path class="cls-1" d="M61.79,183.56a5.71,5.71,0,0,1-1.71,2l-.69-.82a4.46,4.46,0,0,0,1.79-3.2h-2v-3.37h3.2v3.09A5,5,0,0,1,61.79,183.56Z"/><path class="cls-1" d="M3.71,9.19c.69.51,1.31,1,1.82,1.35a.84.84,0,0,1-.14.22c-.53.82-.8,1.21-.8,1.21a26,26,0,0,0-2.51-1.74,12.85,12.85,0,0,0-1.76-.9,5.55,5.55,0,0,1,.8-1.24c.08-.11.16-.19.24-.19C2.3,8.38,3.07,8.8,3.71,9.19ZM5.9,13.74c.43,1,.67,1.58.67,1.63a.74.74,0,0,1-.14.4c-.77,2.19-1.49,4-2.19,5.53-.37.87-.85,1.83-1.38,2.84a2.37,2.37,0,0,0-.16,1c0,.22-.08.33-.19.33S1.79,24.87.8,23.69a.4.4,0,0,1-.19-.31A.48.48,0,0,1,.75,23a11.71,11.71,0,0,0,1.41-2,37.43,37.43,0,0,0,2-3.82c.53-1.24,1-2.37,1.41-3.4.06-.15.11-.23.19-.23S5.87,13.57,5.9,13.74ZM5.45,2.11c.69.48,1.25.9,1.73,1.29a.82.82,0,0,1-.13.23,12.65,12.65,0,0,1-.8,1.2A20.58,20.58,0,0,0,3.87,3.18,14.19,14.19,0,0,0,2.19,2.3,5.19,5.19,0,0,1,3,1.07c.08-.11.16-.2.21-.2A19,19,0,0,1,5.45,2.11Zm10,15.57V15.15c0-.23.13-.34.43-.34,1.31,0,2,.11,2,.34s-.1.39-.26.39-.27.25-.27.59v1.55h7.53c.18,0,.29.14.29.42V19c0,.28-.11.42-.29.42H17.3v6.16c0,.22-.13.33-.4.33h-1c-.3,0-.43-.11-.43-.33V19.42H7.72q-.33,0-.33-.42v-.9q0-.42.33-.42ZM13.59,6.83c.24.11.37.25.37.42a.46.46,0,0,1-.37.45.6.6,0,0,0-.64.51l-.43,1.06a10.44,10.44,0,0,0,1.23,1.61,11.6,11.6,0,0,0,1.73,1.32.63.63,0,0,1,.16.31c0,.14-.34.59-1,1.32a.4.4,0,0,1-.21-.09,17.78,17.78,0,0,1-2.64-2.67,20.28,20.28,0,0,1-1.55,2.84c-.22.31-.4.45-.51.45a.72.72,0,0,1-.43-.17l-1-.45c-.13-.05-.18-.08-.18-.14a.63.63,0,0,1,.13-.33,20.87,20.87,0,0,0,2-3.1,16.25,16.25,0,0,0,1.44-3.51c.11-.34.21-.51.35-.51ZM17.83.31c0,.28-.1.42-.26.42s-.27.25-.27.59V3.63H24c.22,0,.32.14.32.42V5c0,.28-.1.42-.32.42H8.76c-.22,0-.32-.14-.32-.42v-.9c0-.28.1-.42.32-.42h6.67V.31c0-.2.13-.31.43-.31C17.17,0,17.83.11,17.83.31Zm4.3,6.63c.27.11.4.25.4.4s-.16.36-.43.45a.6.6,0,0,0-.64.44c-.16.34-.29.65-.4.93a16.48,16.48,0,0,0,1.55,2.17,11.77,11.77,0,0,0,2,1.68c.11.17.19.28.19.37s-.38.59-1.07,1.32a.47.47,0,0,1-.21-.09,21.19,21.19,0,0,1-3.34-3.68,19,19,0,0,1-1.55,2.59c-.24.28-.4.42-.51.42a.71.71,0,0,1-.45-.2l-1-.45c-.16,0-.21-.08-.21-.11a.63.63,0,0,1,.16-.31A18.83,18.83,0,0,0,18.69,10a13.54,13.54,0,0,0,1.49-3.26c.11-.31.22-.48.35-.48Z"/><path class="cls-1" d="M7.55,29.17c.17.14.27.25.27.37s-.18.3-.53.3a.55.55,0,0,0-.4.14,10.64,10.64,0,0,0,1.76,2.08,12.44,12.44,0,0,0,2.62,2,.51.51,0,0,1-.19.4l-1,.92a.29.29,0,0,1-.19-.08,8,8,0,0,1-1.76-1.35,21.84,21.84,0,0,1-2.11-2.56,11.57,11.57,0,0,1-.69,1A19.1,19.1,0,0,1,4.16,34a14.26,14.26,0,0,1-1.44,1.46,7.15,7.15,0,0,1-.58.48H9.58c.22,0,.32.17.32.45v.87c0,.31-.1.45-.32.45H6.67v3.17h3.45c.18,0,.29.17.29.45v.87c0,.29-.11.43-.29.43H6.67V49.8c1-.17,2-.37,3-.59,0,0,.1,0,.16,0a.2.2,0,0,1,.21.23,5.28,5.28,0,0,1-.11,1.51q-4.08.77-8.24,1.44c-.27.5-.46.75-.62.75s-.51-.78-1-2.3c1.25-.11,2.78-.34,4.59-.65l.22,0V42.58H1.15c-.22,0-.32-.14-.32-.43v-.87c0-.28.1-.45.32-.45H4.81V37.66H2.19c-.21,0-.32-.14-.32-.45v-.87c0-.14,0-.23,0-.28a4.48,4.48,0,0,1-.37.28.45.45,0,0,1-.4-.28,4.49,4.49,0,0,0-.78-1c-.18-.11-.26-.19-.26-.28s0-.06.08-.11a9.08,9.08,0,0,0,1.63-1.13,14.1,14.1,0,0,0,1.81-2,10.39,10.39,0,0,0,1-1.49,15.76,15.76,0,0,0,.77-1.69c.08-.11.16-.2.24-.2ZM3.36,46.4a13.7,13.7,0,0,1,.8,2.11,4.5,4.5,0,0,1-1.54.56A14,14,0,0,0,2,47.3,17.54,17.54,0,0,0,.72,44.88c0-.11.45-.39,1.36-.87A19.11,19.11,0,0,1,3.36,46.4Zm7.26-1.94c.22.11.33.22.33.34s-.08.16-.19.22a.3.3,0,0,0-.32.28,16.36,16.36,0,0,1-1.34,3c-.1.17-.18.23-.24.23a.63.63,0,0,1-.37-.14l-.83-.43c-.11,0-.16,0-.16-.08a.27.27,0,0,1,.08-.17A13.76,13.76,0,0,0,8.52,46a8.69,8.69,0,0,0,.69-1.85c0-.17.11-.28.16-.28Zm6.17-13.52V28.75c0-.14.08-.23.3-.23,1.25,0,1.89.12,1.89.34s-.08.37-.21.37-.22.19-.22.5v1.21H24.4c.13,0,.21.11.21.34v.87c0,.31-.08.45-.21.45H18.55V35h5c.27,0,.4.11.4.33v9.33c0,.23-.13.31-.4.31h-1c-.21,0-.32-.08-.32-.31V43.9H19.09a19.28,19.28,0,0,0,1.2,2.81A10.76,10.76,0,0,0,22,49.35a9,9,0,0,0,2.83,2.56c.1.05.18.11.18.22a.46.46,0,0,1-.13.31,12.83,12.83,0,0,0-1,.93c-.08.11-.16.19-.21.19a8.6,8.6,0,0,1-2.08-1.85,12.07,12.07,0,0,1-2.11-3.09,20.85,20.85,0,0,1-.94-1.94v7c0,.22-.13.33-.4.33H17.09c-.22,0-.3-.11-.3-.33v-6.8c-.27.5-.51.95-.72,1.29a26.9,26.9,0,0,1-2.05,3,25.17,25.17,0,0,1-2.54,2.53.57.57,0,0,1-.45-.17c-.33-.37-.65-.7-.94-1a.81.81,0,0,1-.08-.28,15.31,15.31,0,0,0,2-1.65,17.45,17.45,0,0,0,2.32-3,41.57,41.57,0,0,0,2-3.73H13.35v.78c0,.23-.16.31-.43.31h-1c-.21,0-.32-.08-.32-.31V35.35a.29.29,0,0,1,.32-.33h4.91V32.6H11.16c-.16,0-.21-.14-.21-.45v-.87c0-.23.05-.34.21-.34Zm0,11.33V36.56H13.35v5.71ZM15.7,39.65a13.63,13.63,0,0,1,.56,1.52,4.66,4.66,0,0,1-1.36.42,8.22,8.22,0,0,0-.38-1.21,10.67,10.67,0,0,0-.85-1.63c0-.11.37-.36,1.15-.78C15.16,38.58,15.46,39.15,15.7,39.65Zm2.85,2.62h3.66V36.56H18.55Zm3.13-3.74c.21.11.32.22.32.34a.14.14,0,0,1-.16.14.22.22,0,0,0-.24.19,10.41,10.41,0,0,1-1.07,2.11c-.11.11-.16.17-.19.17a.57.57,0,0,1-.37-.14c-.3-.14-.56-.28-.83-.42-.11,0-.16-.06-.16-.09a.21.21,0,0,1,.05-.14,12.76,12.76,0,0,0,.75-1.18,9.5,9.5,0,0,0,.54-1.35c0-.11.05-.19.1-.19Z"/><path class="cls-1" d="M11.77,57.52c0,.2-.13.29-.34.29s-.38.08-.38.25c-.77,1.74-1.73,3.74-2.91,6C7.58,65.08,7,66.1,6.38,67c4.43-.42,8.86-1,13.29-1.71a30.54,30.54,0,0,0-2.88-4.38c0-.15.51-.48,1.55-1A44.7,44.7,0,0,1,21.54,65a27.87,27.87,0,0,1,2,4.47c0,.11-.64.34-1.89.67a19.26,19.26,0,0,0-1.12-3.09c-5.18.76-10.95,1.46-17.25,2.08a.8.8,0,0,0-.69.45c-.08.31-.22.45-.43.45S1.52,69.19.83,67.5c1.17,0,2.37-.17,3.55-.28A73.46,73.46,0,0,0,7.9,60.11,24.84,24.84,0,0,0,9,56.6c0-.12.11-.17.27-.17C11,57,11.77,57.36,11.77,57.52Zm8.57,13.27c.27,0,.4.11.4.34V81.78c0,.22-.13.34-.4.34h-1c-.29,0-.43-.12-.43-.34V80.35H6v1.32c0,.22-.13.33-.4.33h-1c-.29,0-.43-.11-.43-.33V71.24a.4.4,0,0,1,.43-.45ZM18.87,78.6v-6H6v6Z"/><path class="cls-1" d="M11.88,89.79V85.06c0-.22.13-.33.43-.33,1.38,0,2.08.11,2.08.33s-.11.4-.27.43-.26.22-.26.56v3.74h9c.35,0,.54.11.54.33v12.73c0,.23-.19.34-.54.34h-1c-.26,0-.4-.11-.4-.34v-2.08H13.86v9.11c0,.23-.19.34-.51.34h-1c-.3,0-.43-.11-.43-.34v-9.11h-8v2c0,.23-.18.34-.5.34h-1c-.3,0-.43-.11-.43-.34V90.24c0-.29.13-.45.43-.45Zm0,9v-7h-8v7Zm2,0h7.52v-7H13.86Z"/><path class="cls-1" d="M24.29,123.37c.14,0,.22.11.22.34v.87c0,.31-.08.45-.22.45H12v12.73c0,.22-.16.33-.43.33h-1c-.27,0-.4-.11-.4-.33v-2.08c-2.57.31-5.13.59-7.72.87-.26.5-.48.76-.64.76s-.45-.73-.93-2.19l2.08-.2V125h-2c-.16,0-.21-.14-.21-.45v-.87c0-.23.05-.34.21-.34Zm-3.65-10.2c.26,0,.42.11.42.33v8c0,.23-.16.34-.42.34H5c-.26,0-.4-.11-.4-.34v-8c0-.22.14-.33.4-.33ZM10.12,127v-2H4.81v2Zm0,3.74v-2.08H4.81v2.08Zm-4.59,3.85c1.6-.2,3.15-.42,4.59-.67v-1.52H4.81v2.3A5.78,5.78,0,0,0,5.53,134.58Zm13.66-17.9v-1.86H6.46v1.86Zm0,1.66H6.46v1.85H19.19Zm3.23,8.54a.57.57,0,0,1,.35.17l.4.59a1.24,1.24,0,0,1,.19.56,23.8,23.8,0,0,1-2.86,5.4c-.16.22-.32.39-.42.53a6.83,6.83,0,0,0,1.68,1.07,13.07,13.07,0,0,0,2.85,1.1c.14,0,.22.08.22.14a.49.49,0,0,1-.14.31,8.15,8.15,0,0,0-1,1c-.1.17-.21.25-.26.25a.94.94,0,0,1-.38-.17c-.59-.22-1.2-.47-1.87-.78A15,15,0,0,1,19,135.62a1,1,0,0,1-.19-.17,8.71,8.71,0,0,1-1.06.82,29.47,29.47,0,0,1-3.23,1.6.53.53,0,0,1-.48-.37,10,10,0,0,0-.57-.92c-.16-.17-.21-.28-.21-.37a.29.29,0,0,1,.19-.28,10.21,10.21,0,0,0,3.92-1.74s.06,0,.08-.09a3.75,3.75,0,0,1-.26-.33,7.48,7.48,0,0,1-1.29-2.28,13,13,0,0,1-1-2.84H13.75c-.22,0-.3-.14-.3-.45v-.87c0-.28.08-.45.3-.45ZM17.11,130a10,10,0,0,0,1.18,2.25,6,6,0,0,0,.45.59,11.5,11.5,0,0,0,1.18-1.57c.4-.65.85-1.52,1.38-2.62H16.68A9,9,0,0,0,17.11,130Z"/><path class="cls-1" d="M11.37,157.4a6.54,6.54,0,0,0,.24-1.83c.06-.22.19-.36.38-.36l1.92.33c.16.06.27.12.27.23a.74.74,0,0,1-.19.34.58.58,0,0,0-.32.53c-.06.28-.14.54-.19.76h9.45c.22,0,.32.17.32.45v.87c0,.31-.1.45-.32.45H14.12a7.87,7.87,0,0,0,1.1,1.26,9.28,9.28,0,0,0,2.27,1.8,13.53,13.53,0,0,0,3.44,1.55,26.77,26.77,0,0,0,3.42.79c.24,0,.37.05.37.19a.85.85,0,0,1-.19.42,8.46,8.46,0,0,0-.74,1.1.32.32,0,0,1-.32.25,31.63,31.63,0,0,1-4.17-1.29,18.22,18.22,0,0,1-2.72-1.32,9.67,9.67,0,0,1-2.27-1.83,12.08,12.08,0,0,1-1.82-2.22,13,13,0,0,1-1.33,2,10.06,10.06,0,0,1-2.56,2A21.72,21.72,0,0,1,5,165.55c-.8.25-1.84.53-3.12.87a.66.66,0,0,1-.64-.31A7.37,7.37,0,0,0,.45,165a.43.43,0,0,1-.13-.26.22.22,0,0,1,.16-.22,25.11,25.11,0,0,0,3.84-.93A14.17,14.17,0,0,0,8,162a7.6,7.6,0,0,0,1.9-1.68,5.88,5.88,0,0,0,.8-1.1H2.4c-.21,0-.32-.14-.32-.45v-.87c0-.28.11-.45.32-.45ZM9.88,142.56c.26.39.5.76.72,1.12h4.54a7.24,7.24,0,0,0,1.14-1.18,5.34,5.34,0,0,0,1.07-1.65c.08-.14.16-.23.27-.23l1.6.68c.24.11.37.25.37.42s-.1.17-.29.19-.43.09-.48.23a12.67,12.67,0,0,1-1.12,1.54h5.45c.21,0,.32.17.32.45V145c0,.3-.11.45-.32.45H13.56V148h7.93c.19,0,.29.17.29.45v.87c0,.31-.1.45-.29.45H13.56v3H24c.22,0,.32.17.32.45V154c0,.31-.1.45-.32.45H1.36c-.21,0-.32-.14-.32-.45v-.87c0-.28.11-.45.32-.45H11.67v-3H3.74c-.22,0-.3-.14-.3-.45v-.87c0-.28.08-.45.3-.45h7.93v-2.5H2.08c-.21,0-.32-.15-.32-.45v-.88c0-.28.11-.45.32-.45H8.54a1.25,1.25,0,0,0-.16-.22,10.35,10.35,0,0,0-1.49-1.63c0-.14.48-.48,1.44-1A19.4,19.4,0,0,1,9.88,142.56Z"/><path class="cls-1" d="M8.3,169.43c.22,0,.35.16.35.39s-.13.39-.4.39a.54.54,0,0,0-.32.37c-.54,1.26-1,2.36-1.55,3.29h4.14c.27,0,.43.11.43.33v18.66c0,.23-.16.34-.43.34h-1c-.27,0-.4-.11-.4-.34v-1.43H3.44v2.19c0,.23-.16.34-.42.34H2c-.3,0-.43-.11-.43-.34v-19.3c0-.29.13-.45.43-.45h2.4a49.21,49.21,0,0,0,2.08-4.61.32.32,0,0,1,.32-.23Zm.78,12.25v-6H3.44v6Zm0,8v-6.27H3.44v6.27Zm9.18-20.15c.19.17.29.28.29.39a.31.31,0,0,1-.21.31.38.38,0,0,0-.4.34c-.4,1.23-.75,2.22-1.07,3h6.6a.47.47,0,0,1,.5.53c0,6.41-.1,10.82-.32,13.27a15.88,15.88,0,0,1-1,4.69,2.76,2.76,0,0,1-1.44,1.55,8.06,8.06,0,0,1-3,.47c-1.12,0-1.71-.19-1.71-.56a8.24,8.24,0,0,0-.37-1.4c0-.17,0-.23.11-.23l.21,0a11.54,11.54,0,0,0,1.36.08,4.32,4.32,0,0,0,2.67-.59c.54-.42.91-1.6,1.12-3.54a110.55,110.55,0,0,0,.48-12.56h-6a18.45,18.45,0,0,1-.91,1.66,15.82,15.82,0,0,1-1.6,2,1.68,1.68,0,0,1-.59-.08l-1-.42c-.13-.06-.19-.09-.19-.14a.27.27,0,0,1,.11-.25,14.55,14.55,0,0,0,2.35-3.24,18.3,18.3,0,0,0,1.07-2.36,28,28,0,0,0,1-3.4c0-.11.13-.19.21-.19ZM16,180.36a45.76,45.76,0,0,1,2.7,5.48c0,.28-.05.42-.16.45a2.9,2.9,0,0,1-1.49.64c-.91-2.33-1.74-4.27-2.51-5.81,0-.2.37-.48,1.14-.87A.42.42,0,0,1,16,180.36Z"/><path class="cls-1" d="M8.54,199.35c.22,0,.32.14.32.43v.87c0,.31-.1.45-.32.45h-3v6H8.22c.22,0,.32.14.32.42v.9c0,.28-.1.42-.32.42H5.53v6.35c1.06-.39,2.08-.78,3.09-1.23a.2.2,0,0,1,.14-.06c.13,0,.21.11.21.34a6.05,6.05,0,0,1-.11,1.63c-2.29,1-4.64,1.85-7,2.64-.29.51-.54.76-.72.76s-.51-.79-1-2.39c1-.23,2.19-.59,3.55-1v-7H1c-.21,0-.32-.14-.32-.42v-.9c0-.28.11-.42.32-.42H3.66v-6H.93c-.21,0-.32-.14-.32-.45v-.87c0-.29.11-.43.32-.43Zm8.65-1.65c0,.08-.1.16-.29.22a.91.91,0,0,0-.62.39c-.29.54-.61,1.07-.93,1.58h7c.26,0,.4.11.4.34V211c0,.22-.14.31-.4.31h-5V217a6.44,6.44,0,0,0,.85-.12c.35-1.06.67-2.16.94-3.34.13-.62.24-1.21.32-1.8,0-.06,0-.08.08-.08,1.33.45,2,.73,2,.87s-.11.25-.32.25-.32.08-.32.2c-.21.81-.48,1.74-.8,2.78-.11.31-.19.59-.3.84a23.25,23.25,0,0,0,2.46-.53,14.75,14.75,0,0,0-.72-1.35c0-.09.37-.34,1.15-.76a20.38,20.38,0,0,1,1.07,2c.26.59.48,1.21.69,1.83a4.51,4.51,0,0,1-1.36.42c-.06-.22-.11-.48-.22-.78a39.84,39.84,0,0,1-4.19,1.09c-.08,0-.13.09-.18.25a.42.42,0,0,1-.4.34c-.14,0-.38-.45-.75-1.35v1.46c0,.73.4,1.1,1.25,1.1h3.66a.84.84,0,0,0,.69-.28c.17-.11.27-.56.33-1.32,0-.11.05-.17.13-.17a3.39,3.39,0,0,0,1.52.48c.21,0,.35.11.35.28a5.2,5.2,0,0,1-.86,2.3,1.32,1.32,0,0,1-1.12.45H17.73c-1.47,0-2.19-.59-2.19-1.74v-9H14.28a31.93,31.93,0,0,1-.5,3.2,26,26,0,0,1-.86,2.7,8,8,0,0,1-1.41,2.25,12.85,12.85,0,0,1-2,2c-.45.29-1,.59-1.71,1-.32,0-.51-.08-.61-.25a5.1,5.1,0,0,0-.72-1,.41.41,0,0,1-.14-.26.28.28,0,0,1,.11-.25,6.68,6.68,0,0,0,2.11-1.07,7.21,7.21,0,0,0,2-1.88,7.31,7.31,0,0,0,1-1.91,12.32,12.32,0,0,0,.72-2.53,15.26,15.26,0,0,0,.24-1.91H10.22c-.29,0-.42-.09-.42-.31V200.23c0-.23.13-.34.42-.34h3c.24-.31.42-.59.59-.82a12.54,12.54,0,0,0,1-2.25c0-.14.08-.22.18-.22A15.3,15.3,0,0,1,17.19,197.7Zm-1.76,7v-3.17H11.67v3.17Zm0,1.66H11.67v3.29h3.76Zm1.87-1.66h3.55v-3.17H17.3Zm3.55,1.66H17.3v3.29h3.55Z"/><path class="cls-1" d="M14,225.46q0,.38-.24.42c-.19,0-.27.23-.27.56v.68H23.76c.27,0,.43.11.43.34v4.16c0,.22-.16.33-.43.33h-1c-.22,0-.3-.11-.3-.33v-3.07H2.7v3.07c0,.22-.14.33-.4.33h-1a.29.29,0,0,1-.32-.33v-4.16c0-.23.11-.34.32-.34H11.56v-1.66c0-.22.13-.34.43-.34C13.29,225.12,14,225.24,14,225.46Zm-2.8,4.38c.13,0,.21.12.21.34v.68c0,.22-.08.31-.21.31H8.22v1.77h2.62c.13,0,.21.11.21.33v.65c0,.22-.08.34-.21.34H8.22v1.82c1.36-.08,2.65-.19,3.87-.31v1.44c-1.79.17-4.78.42-9,.78-.18.6-.4.88-.61.88s-.24-.09-.29-.31l-.67-2.22c1.47,0,3.12,0,4.94-.14h.08v-1.94H4.27c-.16,0-.21-.12-.21-.34v-.65c0-.22.05-.33.21-.33h2.3v-1.77H3.84c-.13,0-.18-.09-.18-.31v-.68c0-.22,0-.34.18-.34Zm8.65,8.91c.27,0,.43.12.43.34v8.24c0,.22-.16.3-.43.3H16.6c1.34.29,2.46.54,3.37.76,1.2.34,2.21.62,3.07.9a2.21,2.21,0,0,0-.14.26c-.58.84-.88,1.29-.9,1.29-1.28-.45-2.65-.87-4.06-1.24A21.38,21.38,0,0,0,15,249a4.92,4.92,0,0,1,.83-1.24l.08-.09H9.21c.85.76,1.31,1.21,1.31,1.33s-.11.19-.27.19c-.35,0-.53,0-.56.14a44.48,44.48,0,0,1-6,1.63.44.44,0,0,1-.43-.22,1.76,1.76,0,0,0-.56-.65.6.6,0,0,1-.16-.34c0-.05.08-.11.24-.11,1.09-.25,2.06-.5,2.88-.76a19.82,19.82,0,0,0,3-1.21H5.42c-.29,0-.43-.08-.43-.3v-8.24c0-.22.14-.34.43-.34Zm-1.47,2.53v-1.21H6.89v1.21Zm0,2.53V242.6H6.89v1.21Zm0,1.3H6.89v1.2H18.34ZM16,229.68a.48.48,0,0,1,.16.28h5.34c.11,0,.19.11.19.33V231c0,.22-.08.31-.19.31h-3v2h4.48c.14,0,.22.12.22.31v.68c0,.22-.08.31-.22.31H22v2.86c0,.23-.16.34-.43.34h-7.9c-.3,0-.43-.11-.43-.34v-2.86h-.83c-.16,0-.21-.09-.21-.31v-.68c0-.19.05-.31.21-.31h4.38v-2h-2a9.7,9.7,0,0,1-1.39,1,.31.31,0,0,1-.32-.17,9.39,9.39,0,0,1-.7-.64.16.16,0,0,1-.13-.17s0,0,.05-.09a3.27,3.27,0,0,0,.7-.36,5.84,5.84,0,0,0,1-.93c.24-.28.51-.62.83-1,0-.06,0-.11.08-.11Zm.8,6.77v-1.88H14.9v1.88Zm3.55-1.88H18.45v1.88h1.89Z"/><path class="cls-1" d="M15.16,268.74a3.39,3.39,0,0,1-2.56,1.12A3.31,3.31,0,0,1,10,268.74,3.69,3.69,0,0,1,9,266a3.78,3.78,0,0,1,1.07-2.7,3.41,3.41,0,0,1,2.56-1.12,3.49,3.49,0,0,1,2.56,1.12,3.87,3.87,0,0,1,1.07,2.7A3.77,3.77,0,0,1,15.16,268.74Zm-.69-4.67a2.57,2.57,0,0,0-1.87-.81,2.49,2.49,0,0,0-1.87.81,2.76,2.76,0,0,0-.77,2,2.66,2.66,0,0,0,.77,2,2.39,2.39,0,0,0,1.87.81,2.46,2.46,0,0,0,1.87-.81,2.74,2.74,0,0,0,.77-2A2.84,2.84,0,0,0,14.47,264.07Z"/></g></g></svg>