<svg xmlns="http://www.w3.org/2000/svg" viewBox="0 0 35.55 469.51"><defs><style>.cls-1{fill:#b28247;}</style></defs><title>資產 22</title><g id="圖層_2" data-name="圖層 2"><g id="圖層_2-2" data-name="圖層 2"><path class="cls-1" d="M28.25,27.13c.44-.19.89-.42,1.36-.68s.91-.54,1.32-.82.79-.54,1.14-.81a5.77,5.77,0,0,0,.77-.68,3.89,3.89,0,0,0,1-1.65,9.62,9.62,0,0,0,.27-2.26c0-.45,0-.85,0-1.19s0-.67,0-1V15.64H31.65c-1,0-2.12,0-3.25,0H14.27c-.7,0-1.37,0-2,.05a2.63,2.63,0,0,0-1.36.35,2.68,2.68,0,0,0-1.08,1.53,17.09,17.09,0,0,0-.44,1.79H9V7.59h.36a11.48,11.48,0,0,0,.37,1.8A3.62,3.62,0,0,0,11,11.09a1.2,1.2,0,0,0,.59.27c.28.06.59.11.94.15s.73.06,1.14.07l1.19,0c.34,0,.79,0,1.34,0l1.84,0,2.1,0h14V9.29c0-.32,0-.65,0-1s0-.75,0-1.21a8.11,8.11,0,0,0-.32-2.26,4.36,4.36,0,0,0-1-1.64A4.86,4.86,0,0,0,32,2.51c-.34-.25-.71-.52-1.11-.79a12.15,12.15,0,0,0-1.28-.8A7.72,7.72,0,0,0,28.25.33L28.36,0l6.87,1.08c-.12.56-.22,1.07-.29,1.54a19.28,19.28,0,0,0-.15,2c0,.92,0,1.74,0,2.46s0,1.42,0,2.09v6.87c0,.72,0,1.42,0,2.09s0,1.38,0,2.1,0,1.54,0,2.46a12.13,12.13,0,0,0,.2,2c.11.51.25,1.05.42,1.6l-7,1.16Z"/><path class="cls-1" d="M11.24,43.47a4.68,4.68,0,0,1-1.18-.76,3.1,3.1,0,0,1-.79-1.11A3.48,3.48,0,0,1,9,40.21,3.53,3.53,0,0,1,9.72,38a3,3,0,0,1,2.53-1l0-.07a9,9,0,0,1-1-.78,6.75,6.75,0,0,1-1.09-1.16,5.72,5.72,0,0,1-.81-1.48A4.86,4.86,0,0,1,9,31.8a4.43,4.43,0,0,1,.17-1.18,2.68,2.68,0,0,1,.57-1.08,3.23,3.23,0,0,1,1.07-.8,3.75,3.75,0,0,1,1.59-.31,3,3,0,0,1,2,.82,9.1,9.1,0,0,1,1.7,2c.5.8.94,1.5,1.3,2.12s.67,1.15.92,1.6L19,36.18c.18.35.34.65.49.89h3.72a1.06,1.06,0,0,0,.34-.13,1.87,1.87,0,0,0,.56-.43,2.82,2.82,0,0,0,.53-.85,3.71,3.71,0,0,0,.23-1.41,3.26,3.26,0,0,0-.2-1.14,4.18,4.18,0,0,0-.5-1,3.57,3.57,0,0,0-.62-.69.87.87,0,0,0-.52-.25H21.35a1.12,1.12,0,0,1-.9-.52,1.82,1.82,0,0,1-.4-1.14,1.32,1.32,0,0,1,.42-1,1.29,1.29,0,0,1,1-.42,1.47,1.47,0,0,1,.79.22,2.56,2.56,0,0,1,.65.54,5,5,0,0,1,.51.7c.14.26.27.48.39.67.37.63.71,1.27,1.05,1.92s.63,1.27.87,1.86.43,1.13.58,1.62a4.71,4.71,0,0,1,.21,1.21A3.46,3.46,0,0,1,26,38.62a3,3,0,0,1-1.21,1.2,2.46,2.46,0,0,1-.89.18l-1.25,0c-.86,0-1.65,0-2.34,0h-2l-2,0L14,40a3,3,0,0,0-2.15.56A2,2,0,0,0,11.69,43a1.65,1.65,0,0,0,.88.54v.22A3.7,3.7,0,0,1,11.24,43.47Zm7.62-6.4a15.06,15.06,0,0,1-1-1.63q-.53-1-1.14-1.89A7.9,7.9,0,0,0,15.37,32a2.41,2.41,0,0,0-1.68-.67,2.54,2.54,0,0,0-1.69.65,2.11,2.11,0,0,0-.76,1.7,6,6,0,0,0,.21,1.66,3.26,3.26,0,0,0,.83,1.34,1.33,1.33,0,0,0,1,.43Z"/><path class="cls-1" d="M9,43.83h.36l.09.86a3.43,3.43,0,0,0,.19.78,1.59,1.59,0,0,0,.34.58.71.71,0,0,0,.54.23H22.94a2,2,0,0,0,.51-.05.76.76,0,0,0,.4-.31,5.89,5.89,0,0,0,.43-.77c.14-.31.28-.63.4-1h.21l1.59,4.88v.21H10.33a.79.79,0,0,0-.52.31,1.58,1.58,0,0,0-.24.56,7,7,0,0,0-.09.7,4.4,4.4,0,0,1-.09.74H9ZM30.8,49a1.9,1.9,0,0,1-.56-1.39,2,2,0,0,1,3.33-1.39,2.06,2.06,0,0,1,0,2.78,1.86,1.86,0,0,1-1.38.56A1.9,1.9,0,0,1,30.8,49Z"/><path class="cls-1" d="M12.16,67.31a7.31,7.31,0,0,1-1.7-1.59,7.16,7.16,0,0,1-1.14-2.11,8,8,0,0,1-.4-2.55,7.75,7.75,0,0,1,.67-3.21,7.17,7.17,0,0,1,1.88-2.53,9.06,9.06,0,0,1,2.84-1.65,9.92,9.92,0,0,1,3.47-.59,9,9,0,0,1,6.07,2.31A8.34,8.34,0,0,1,25.76,58a7.46,7.46,0,0,1,.72,3.27,9.28,9.28,0,0,1-.29,2.35,7.17,7.17,0,0,1-.83,2.06A4.68,4.68,0,0,1,24,67.11a3.09,3.09,0,0,1-1.85.56,1.91,1.91,0,0,1-1.87-1.88,1.81,1.81,0,0,1,.36-1.1,1.66,1.66,0,0,1,.9-.63,3.71,3.71,0,0,0,1.23.18,3.45,3.45,0,0,0,2.22-.7,2.68,2.68,0,0,0,.89-2.23,3.93,3.93,0,0,0-.58-2.06,5.71,5.71,0,0,0-1.56-1.62,8.1,8.1,0,0,0-2.27-1.09,9.68,9.68,0,0,0-2.78-.39,9.78,9.78,0,0,0-3,.43,6.89,6.89,0,0,0-2.31,1.23,5.4,5.4,0,0,0-1.48,1.93,6,6,0,0,0-.52,2.55,7.11,7.11,0,0,0,.74,3.54A6,6,0,0,0,14.34,68l-.14.29A7.37,7.37,0,0,1,12.16,67.31Z"/><path class="cls-1" d="M9,79.09h.4a10,10,0,0,0,.24,1.63.72.72,0,0,0,.74.65h9a11.88,11.88,0,0,0,1.95-.15,4.56,4.56,0,0,0,1.55-.52,2.7,2.7,0,0,0,1-1A3.32,3.32,0,0,0,24.32,78a4.78,4.78,0,0,0-.47-2.21,3.94,3.94,0,0,0-1.27-1.44,2,2,0,0,0-.45-.2A1.73,1.73,0,0,0,21.5,74H10.41a.69.69,0,0,0-.51.18,1.14,1.14,0,0,0-.27.47,3.73,3.73,0,0,0-.13.65,6,6,0,0,1-.11.72H9V68.86h.36a7,7,0,0,0,.28,1.5.84.84,0,0,0,.88.67H31.07a1.61,1.61,0,0,0,.44,0,.89.89,0,0,0,.32-.31,3.4,3.4,0,0,0,.49-.78c.16-.32.33-.64.52-1h.22l2.2,4.84v.29L22.73,74l0,.07a6.91,6.91,0,0,1,1.16.78,6.45,6.45,0,0,1,1.22,1.31,8.31,8.31,0,0,1,1,1.82,6,6,0,0,1,.41,2.25,4.45,4.45,0,0,1-.41,2,3.29,3.29,0,0,1-1.16,1.29,4.9,4.9,0,0,1-1.75.69,11.6,11.6,0,0,1-2.2.2H10.3a.56.56,0,0,0-.44.21,1.52,1.52,0,0,0-.27.54,5,5,0,0,0-.14.69q-.06.36-.09.69H9Z"/><path class="cls-1" d="M9,100.05v-.26h3.65l0,0a13.42,13.42,0,0,1-1.3-1,9.05,9.05,0,0,1-1.25-1.3,6.12,6.12,0,0,1-.88-1.61A5.37,5.37,0,0,1,8.92,94a4.11,4.11,0,0,1,1.38-3.42,6.3,6.3,0,0,1,4-1.1h9.21a3.32,3.32,0,0,0,.53,0l.5,0a.66.66,0,0,0,.34-.09.93.93,0,0,0,.47-.42,2.32,2.32,0,0,0,.22-.59,3.83,3.83,0,0,0,.09-.69q0-.36.06-.69h.39v5.57H15.61a6.71,6.71,0,0,0-3.52.72A3,3,0,0,0,11,95.91a3.74,3.74,0,0,0,.2,1.32,4.4,4.4,0,0,0,.5,1,5.11,5.11,0,0,0,.71.83,8,8,0,0,0,.83.71h10.3a7.14,7.14,0,0,0,.92-.07,1.81,1.81,0,0,0,.85-.29,5,5,0,0,0,.28-1.17c.08-.5.14-1,.19-1.54h.39v6.07H11.85a1.16,1.16,0,0,0-.43.06.73.73,0,0,0-.33.3c-.12.22-.28.54-.47,1s-.35.78-.47,1.07H9.94Z"/><path class="cls-1" d="M9,116.92h.4a8,8,0,0,0,.24,1.55.7.7,0,0,0,.74.58h9.1a6.45,6.45,0,0,0,3.38-.79,2.93,2.93,0,0,0,1.28-2.68,3.72,3.72,0,0,0-.5-2,11.09,11.09,0,0,0-1.49-1.77H10.33a1,1,0,0,0-.52.26,1.07,1.07,0,0,0-.24.43,4.18,4.18,0,0,0-.09.58,4.24,4.24,0,0,1-.09.68H9v-7h.36a4.7,4.7,0,0,0,.33,1.43.85.85,0,0,0,.83.59H23a1.2,1.2,0,0,0,.43,0,.83.83,0,0,0,.33-.31c.12-.21.26-.47.41-.76a7.58,7.58,0,0,0,.42-.86h.22l1.69,4.73v.22h-3.9l0,.07a12.89,12.89,0,0,1,1.31,1,9.18,9.18,0,0,1,1.29,1.35,7.53,7.53,0,0,1,1,1.66,4.63,4.63,0,0,1,.38,1.87,3.68,3.68,0,0,1-1.55,3.2,6.68,6.68,0,0,1-4,1.12H10.3a.55.55,0,0,0-.44.23,1.71,1.71,0,0,0-.27.56,5,5,0,0,0-.14.71c0,.25-.07.49-.09.7H9Z"/><path class="cls-1" d="M23.54,143.56a1.19,1.19,0,0,1-.42-.92,1.94,1.94,0,0,1,.18-.65c.12-.29.27-.61.44-1s.35-.71.56-1.07l.56-1-.15-.14c-.55.36-1.07.67-1.55.92a4.08,4.08,0,0,1-1.88.38,4.91,4.91,0,0,1-4.28-2,9.26,9.26,0,0,1-1.43-5.49,9.06,9.06,0,0,1,.07-1,8.84,8.84,0,0,0,.08-1.25,3.58,3.58,0,0,0-.55-1.84,1.38,1.38,0,0,0-1.19-.68,1.32,1.32,0,0,0-1,.36,2.37,2.37,0,0,0-.6.9,4.42,4.42,0,0,0-.29,1.19,11.18,11.18,0,0,0-.07,1.27v5.78a6.25,6.25,0,0,1-.4,2.27,5.45,5.45,0,0,1-1.08,1.74A4.75,4.75,0,0,1,9,142.48a5,5,0,0,1-2,.38,5.55,5.55,0,0,1-2.7-.7,7.34,7.34,0,0,1-2.25-2,9.88,9.88,0,0,1-1.54-3A12.28,12.28,0,0,1,0,133.43a13.1,13.1,0,0,1,1.17-6.12,3.6,3.6,0,0,1,3.24-2.19,2.38,2.38,0,0,1,1.37.42,6.25,6.25,0,0,1,1.18,1A10.29,10.29,0,0,1,8,128c.33.52.65,1,1,1.54H9a5.39,5.39,0,0,1,1.05-2.84,2.73,2.73,0,0,1,2.2-1,2.85,2.85,0,0,1,1.31.32,4.12,4.12,0,0,1,1.12.91,5.06,5.06,0,0,1,.84,1.35A6.13,6.13,0,0,1,16,130h.1a5.45,5.45,0,0,1,1.81-2.47,5,5,0,0,1,3-.89,4.6,4.6,0,0,1,2.16.53,5.22,5.22,0,0,1,1.76,1.46,7.43,7.43,0,0,1,1.17,2.22,8.65,8.65,0,0,1,.43,2.8,10.53,10.53,0,0,1-.25,2.44,9.42,9.42,0,0,1-.87,2.22,5.18,5.18,0,0,0-.18.74c0,.21,0,.45,0,.74a2.37,2.37,0,0,0,.12.78,4.6,4.6,0,0,0,.29.63,3.92,3.92,0,0,1,.29.62,1.93,1.93,0,0,1,.13.75,1.34,1.34,0,0,1-.44,1,1.48,1.48,0,0,1-1,.39A1.36,1.36,0,0,1,23.54,143.56ZM7.37,140a2.41,2.41,0,0,0,1-1A6.55,6.55,0,0,0,9,137a25.46,25.46,0,0,0,.16-3.29c0-.5,0-1-.07-1.55s-.1-1-.15-1.3a3.84,3.84,0,0,0-1.37-2.35,3.55,3.55,0,0,0-2.06-.65,3.35,3.35,0,0,0-2,.63A5.62,5.62,0,0,0,2,130a7.22,7.22,0,0,0-.89,2,7.7,7.7,0,0,0-.29,2,14.09,14.09,0,0,0,.11,1.86,7.3,7.3,0,0,0,.32,1.39,5.71,5.71,0,0,0,1.63,2.22,4,4,0,0,0,2.67,1A3.7,3.7,0,0,0,7.37,140Zm15.68-3a4.57,4.57,0,0,0,1.46-.74,3.7,3.7,0,0,0,1-1.23,3.79,3.79,0,0,0,.38-1.72,3.16,3.16,0,0,0-.42-1.62,3.6,3.6,0,0,0-1.12-1.21,5.29,5.29,0,0,0-1.61-.75,7.1,7.1,0,0,0-1.84-.25,5.29,5.29,0,0,0-3.49,1.1,3.41,3.41,0,0,0-1.32,2.7,3.3,3.3,0,0,0,.44,1.71,4,4,0,0,0,1.15,1.25,5.31,5.31,0,0,0,1.65.76,7.19,7.19,0,0,0,1.93.25A6,6,0,0,0,23.05,137Z"/><path class="cls-1" d="M28.25,177.94c.44-.19.89-.42,1.36-.68s.91-.54,1.32-.82.79-.55,1.14-.81a5.73,5.73,0,0,0,.77-.69,3.8,3.8,0,0,0,1-1.64,9.62,9.62,0,0,0,.27-2.26c0-.46,0-.85,0-1.19s0-.68,0-1v-2.39c-.6,0-1.42,0-2.46,0H14.27c-.7,0-1.37,0-2,.05a2.75,2.75,0,0,0-1.36.34,2.73,2.73,0,0,0-1.08,1.54,17.09,17.09,0,0,0-.44,1.79H9V158.4h.36a11.72,11.72,0,0,0,.37,1.8A3.62,3.62,0,0,0,11,161.9a1.2,1.2,0,0,0,.59.27c.28.06.59.11.94.15s.73.06,1.14.07l1.19,0h1.34l1.84,0,2.1,0h14v-2.39c0-.31,0-.64,0-1s0-.75,0-1.21a8.05,8.05,0,0,0-.32-2.26,4.28,4.28,0,0,0-1-1.64,4.39,4.39,0,0,0-.75-.67l-1.11-.8a14,14,0,0,0-1.28-.79,8.65,8.65,0,0,0-1.34-.6l.11-.32,6.87,1.08c-.12.56-.22,1.07-.29,1.54a19.28,19.28,0,0,0-.15,2c0,.91,0,1.73,0,2.46s0,1.42,0,2.09v6.87c0,.72,0,1.42,0,2.09s0,1.37,0,2.1,0,1.54,0,2.45a11.89,11.89,0,0,0,.2,2c.11.52.25,1.06.42,1.61l-7,1.16Z"/><path class="cls-1" d="M9,191v-.25h3.65l0,0a13.21,13.21,0,0,1-1.3-1,8.63,8.63,0,0,1-1.25-1.31,6.06,6.06,0,0,1-.88-1.6,5.42,5.42,0,0,1-.33-1.9,4.09,4.09,0,0,1,1.38-3.41,6.24,6.24,0,0,1,4-1.11h9.21l.53,0,.5-.06a.66.66,0,0,0,.34-.09.87.87,0,0,0,.47-.41,2.25,2.25,0,0,0,.22-.6,3.83,3.83,0,0,0,.09-.69c0-.24,0-.47.06-.68h.39v5.56H15.61a6.6,6.6,0,0,0-3.52.73A3,3,0,0,0,11,186.81a3.84,3.84,0,0,0,.2,1.33,4.53,4.53,0,0,0,.5,1,5.18,5.18,0,0,0,.71.84,9.41,9.41,0,0,0,.83.71h10.3a7.45,7.45,0,0,0,.92-.08,1.81,1.81,0,0,0,.85-.28,5.12,5.12,0,0,0,.28-1.18c.08-.49.14-1,.19-1.53h.39v6.07H11.85a1.2,1.2,0,0,0-.43.05.83.83,0,0,0-.33.31c-.12.21-.28.53-.47.95s-.35.78-.47,1.07H9.94Z"/><path class="cls-1" d="M9,207.82h.4a8.3,8.3,0,0,0,.24,1.56.7.7,0,0,0,.74.57h9.1a6.36,6.36,0,0,0,3.38-.79,2.9,2.9,0,0,0,1.28-2.67,3.69,3.69,0,0,0-.5-2,11.09,11.09,0,0,0-1.49-1.77H10.33a.94.94,0,0,0-.52.25,1.14,1.14,0,0,0-.24.43,4.43,4.43,0,0,0-.09.58,4.36,4.36,0,0,1-.09.69H9v-7h.36a4.64,4.64,0,0,0,.33,1.42.86.86,0,0,0,.83.6H23a1.16,1.16,0,0,0,.43-.06.73.73,0,0,0,.33-.3c.12-.22.26-.47.41-.76a8.64,8.64,0,0,0,.42-.87h.22l1.69,4.74v.21h-3.9l0,.07c.4.27.84.6,1.31,1a9.18,9.18,0,0,1,1.29,1.35,7.77,7.77,0,0,1,1,1.66,4.63,4.63,0,0,1,.38,1.87,3.71,3.71,0,0,1-1.55,3.21,6.74,6.74,0,0,1-4,1.11H10.3a.54.54,0,0,0-.44.24,1.54,1.54,0,0,0-.27.56,4.56,4.56,0,0,0-.14.7c0,.26-.07.49-.09.71H9Z"/><path class="cls-1" d="M23.54,234.47a1.19,1.19,0,0,1-.42-.92,1.89,1.89,0,0,1,.18-.65c.12-.29.27-.61.44-1s.35-.7.56-1.07.39-.68.56-1l-.15-.15a16,16,0,0,1-1.55.92,4,4,0,0,1-1.88.38,4.93,4.93,0,0,1-4.28-2,9.3,9.3,0,0,1-1.43-5.49,8.91,8.91,0,0,1,.07-1,8.94,8.94,0,0,0,.08-1.25,3.55,3.55,0,0,0-.55-1.84,1.39,1.39,0,0,0-1.19-.69,1.32,1.32,0,0,0-1,.36,2.37,2.37,0,0,0-.6.9,4.49,4.49,0,0,0-.29,1.2,10.88,10.88,0,0,0-.07,1.26v5.78a6.3,6.3,0,0,1-.4,2.28,5.52,5.52,0,0,1-1.08,1.73A4.75,4.75,0,0,1,9,233.38a4.79,4.79,0,0,1-2,.38,5.55,5.55,0,0,1-2.7-.7,7.34,7.34,0,0,1-2.25-2,9.77,9.77,0,0,1-1.54-3A12.19,12.19,0,0,1,0,224.33a13.15,13.15,0,0,1,1.17-6.12A3.6,3.6,0,0,1,4.41,216a2.38,2.38,0,0,1,1.37.42A6.69,6.69,0,0,1,7,217.49a10.29,10.29,0,0,1,1,1.41c.33.51.65,1,1,1.53H9a5.36,5.36,0,0,1,1.05-2.83,2.71,2.71,0,0,1,2.2-1,2.74,2.74,0,0,1,1.31.33,3.9,3.9,0,0,1,1.12.9,5.29,5.29,0,0,1,.84,1.36,5.94,5.94,0,0,1,.46,1.68h.1a5.48,5.48,0,0,1,1.81-2.48,5,5,0,0,1,3-.88,4.59,4.59,0,0,1,2.16.52,5.46,5.46,0,0,1,1.76,1.46,7.56,7.56,0,0,1,1.17,2.22,8.7,8.7,0,0,1,.43,2.8,10.53,10.53,0,0,1-.25,2.44,9.65,9.65,0,0,1-.87,2.23,4.61,4.61,0,0,0-.18.74c0,.2,0,.45,0,.74a2.3,2.3,0,0,0,.12.77,5.38,5.38,0,0,0,.29.64,3.81,3.81,0,0,1,.29.61,2,2,0,0,1,.13.76,1.3,1.3,0,0,1-.44,1,1.44,1.44,0,0,1-1,.4A1.41,1.41,0,0,1,23.54,234.47ZM7.37,230.91a2.41,2.41,0,0,0,1-1,6.55,6.55,0,0,0,.56-2,25.39,25.39,0,0,0,.16-3.28c0-.51,0-1-.07-1.56s-.1-1-.15-1.3a3.87,3.87,0,0,0-1.37-2.35,3.55,3.55,0,0,0-2.06-.65,3.29,3.29,0,0,0-2,.64A5.48,5.48,0,0,0,2,220.94a7,7,0,0,0-.89,2,7.7,7.7,0,0,0-.29,2,14.09,14.09,0,0,0,.11,1.86,7.3,7.3,0,0,0,.32,1.39,5.67,5.67,0,0,0,1.63,2.23,4,4,0,0,0,2.67,1A3.59,3.59,0,0,0,7.37,230.91Zm15.68-3a4.37,4.37,0,0,0,1.46-.74,3.6,3.6,0,0,0,1-1.23,3.71,3.71,0,0,0,.38-1.71,3.17,3.17,0,0,0-.42-1.63,3.7,3.7,0,0,0-1.12-1.21,5.28,5.28,0,0,0-1.61-.74,6.7,6.7,0,0,0-1.84-.25,5.23,5.23,0,0,0-3.49,1.1,3.46,3.46,0,0,0-.88,4.41,4,4,0,0,0,1.15,1.24,5.31,5.31,0,0,0,1.65.76,7.19,7.19,0,0,0,1.93.25A6,6,0,0,0,23.05,227.91Z"/><path class="cls-1" d="M9,261.69h.36a7.68,7.68,0,0,0,.49,2.24,2.48,2.48,0,0,0,.85,1.19,1.09,1.09,0,0,0,.43.13,6.92,6.92,0,0,0,.76.09c.29,0,.59,0,.91.06h.9c.79,0,1.61,0,2.46,0H21.9V251.18H14.13c-.7,0-1.38,0-2,0a2.67,2.67,0,0,0-1.37.33,2.74,2.74,0,0,0-.94,1.23,5.46,5.46,0,0,0-.4,1.55H9V243.66h.36a7.88,7.88,0,0,0,.49,1.74,3.28,3.28,0,0,0,.85,1.26,1.43,1.43,0,0,0,.6.24,7.16,7.16,0,0,0,.95.14c.37,0,.76.07,1.18.09s.82,0,1.21,0,.79,0,1.37,0l1.9,0,2.11,0H30.49c.44,0,.84,0,1.21-.05a7,7,0,0,0,1-.17,1.69,1.69,0,0,0,.7-.32,2.85,2.85,0,0,0,.89-1.25,7.71,7.71,0,0,0,.38-1.68h.36v10.77h-.36c0-.34-.13-.7-.22-1.09a3.6,3.6,0,0,0-.45-1,2.62,2.62,0,0,0-.85-.8,2.91,2.91,0,0,0-1.37-.36l-2.73-.05c-1,0-1.91,0-2.8,0H22.62v14.27h5.81c.63,0,1.34,0,2.14,0l1.42-.09A2.58,2.58,0,0,0,33.2,265a2.7,2.7,0,0,0,1.21-1.48,7.49,7.49,0,0,0,.28-1.66h.36v10.87h-.36a6.21,6.21,0,0,0-.49-1.7,2.58,2.58,0,0,0-1.1-1.22,2.13,2.13,0,0,0-.71-.22,9.18,9.18,0,0,0-1-.11c-.37,0-.75,0-1.14,0H18.43l-2.1,0-2.38,0c-.7,0-1.35,0-1.94.06a2.53,2.53,0,0,0-1.21.27,2.46,2.46,0,0,0-1,1.26,8.26,8.26,0,0,0-.4,1.73H9Z"/><path class="cls-1" d="M11.24,291.07a4.68,4.68,0,0,1-1.18-.76,3.15,3.15,0,0,1-.79-1.1,3.7,3.7,0,0,1,.45-3.58,3,3,0,0,1,2.53-1l0-.07a8,8,0,0,1-1-.78,7.06,7.06,0,0,1-1.09-1.15,6.06,6.06,0,0,1-.81-1.48A5,5,0,0,1,9,279.4a4.43,4.43,0,0,1,.17-1.18,2.68,2.68,0,0,1,.57-1.08,3.23,3.23,0,0,1,1.07-.8,3.76,3.76,0,0,1,1.59-.3,3,3,0,0,1,2,.81,9.1,9.1,0,0,1,1.7,2c.5.8.94,1.5,1.3,2.12s.67,1.15.92,1.61.47.86.65,1.21.34.64.49.88h3.72a1.22,1.22,0,0,0,.34-.12,1.92,1.92,0,0,0,.56-.44,2.82,2.82,0,0,0,.53-.85,3.71,3.71,0,0,0,.23-1.41,3.17,3.17,0,0,0-.2-1.13,4.07,4.07,0,0,0-.5-1,3.22,3.22,0,0,0-.62-.68.9.9,0,0,0-.52-.26H21.35a1.12,1.12,0,0,1-.9-.52,1.82,1.82,0,0,1-.4-1.14,1.32,1.32,0,0,1,.42-1,1.29,1.29,0,0,1,1-.42,1.47,1.47,0,0,1,.79.22,2.56,2.56,0,0,1,.65.54,5,5,0,0,1,.51.7c.14.26.27.48.39.67.37.63.71,1.27,1.05,1.92s.63,1.27.87,1.86.43,1.13.58,1.62a4.7,4.7,0,0,1,.21,1.22,3.51,3.51,0,0,1-.48,1.77,3,3,0,0,1-1.21,1.19,2.46,2.46,0,0,1-.89.18l-1.25,0H20.31c-.7,0-1.38,0-2,0l-2,0-2.26,0a3,3,0,0,0-2.15.56,1.84,1.84,0,0,0-.53,1.29,1.81,1.81,0,0,0,.35,1.22,1.72,1.72,0,0,0,.88.55v.21A3.7,3.7,0,0,1,11.24,291.07Zm7.62-6.4a14.82,14.82,0,0,1-1-1.62c-.35-.65-.73-1.29-1.14-1.9a7.9,7.9,0,0,0-1.36-1.59,2.41,2.41,0,0,0-1.68-.67,2.54,2.54,0,0,0-1.69.65,2.11,2.11,0,0,0-.76,1.7,5.93,5.93,0,0,0,.21,1.66,3.26,3.26,0,0,0,.83,1.34,1.33,1.33,0,0,0,1,.43Z"/><path class="cls-1" d="M9,291.43h.36l.09.87a3.47,3.47,0,0,0,.19.77,1.59,1.59,0,0,0,.34.58.68.68,0,0,0,.54.23H22.94a2,2,0,0,0,.51-.05.76.76,0,0,0,.4-.31,5.89,5.89,0,0,0,.43-.77c.14-.3.28-.62.4-1h.21l1.59,4.88v.21H10.33a.79.79,0,0,0-.52.31,1.58,1.58,0,0,0-.24.56,6.86,6.86,0,0,0-.09.71,4.53,4.53,0,0,1-.09.74H9Zm21.77,5.18a1.88,1.88,0,0,1-.56-1.39,2,2,0,0,1,3.33-1.39,2.06,2.06,0,0,1,0,2.78,1.82,1.82,0,0,1-1.38.56A1.86,1.86,0,0,1,30.8,296.61Z"/><path class="cls-1" d="M9,323.58h.36a4.49,4.49,0,0,0,.08.53,4.15,4.15,0,0,0,.25.87,2.44,2.44,0,0,0,.51.79,1.07,1.07,0,0,0,.83.34,4.35,4.35,0,0,0,1.06-.2c.5-.13,1.1-.31,1.81-.56s1.5-.51,2.36-.83,1.78-.65,2.71-1V313.9l-2.61-1-2.52-1a9.3,9.3,0,0,0-2.74-.76,1.11,1.11,0,0,0-.78.29,2.24,2.24,0,0,0-.5.74,3.85,3.85,0,0,0-.29,1c-.06.35-.12.68-.17,1H9v-7.69h.4a3.87,3.87,0,0,0,.51,1.6,3.2,3.2,0,0,0,.54.78,7.23,7.23,0,0,0,1.19.83A24.65,24.65,0,0,0,14.45,311c1.13.51,2.42,1.07,3.87,1.7l4.46,1.93q2.29,1,4.63,2l4.35,1.84.79-.36a6.42,6.42,0,0,0,.69,1.18,7.48,7.48,0,0,0,.83.92,8.72,8.72,0,0,0,.83.67c.27.18.48.32.65.41v.29l-5.69,2.13-5.18,1.94-4.83,1.78-4.6,1.74a19.41,19.41,0,0,0-1.86.74l-1.68.78a3.21,3.21,0,0,0-.51.32,4.44,4.44,0,0,0-.74.67,4.17,4.17,0,0,0-.67,1,3.72,3.72,0,0,0-.32,1.44H9Zm21.9-4.73-1.48-.63-2.46-1c-1-.41-2-.86-3.27-1.36l-4-1.6v9L23,322l3.12-1.23,2.75-1.09Z"/><path class="cls-1" d="M23.25,345.77a1.44,1.44,0,0,1-.52-1.09,1.88,1.88,0,0,1,.19-.92,3.09,3.09,0,0,1,.46-.59,4.6,4.6,0,0,0,.45-.54,1.43,1.43,0,0,0,.2-.8,1.46,1.46,0,0,0-.31-.85,3.6,3.6,0,0,0-.78-.78,6.8,6.8,0,0,0-1.06-.65c-.4-.19-.78-.36-1.14-.5H10.33a.88.88,0,0,0-.5.47,2.85,2.85,0,0,0-.26.81c0,.3-.07.61-.09.94a4.93,4.93,0,0,1-.09.85H9V334h.36a4.64,4.64,0,0,0,.33,1.42.86.86,0,0,0,.83.6H22.76a1.25,1.25,0,0,0,.44-.06.77.77,0,0,0,.32-.3c.12-.22.27-.47.45-.76a6,6,0,0,0,.45-.87h.22l1.84,4.74V339l-5-.07V339c.29.12.71.31,1.27.58a10.84,10.84,0,0,1,1.68,1,6.41,6.41,0,0,1,1.46,1.48,3.35,3.35,0,0,1,.61,2,2.32,2.32,0,0,1-.54,1.54,1.73,1.73,0,0,1-1.37.63A1.92,1.92,0,0,1,23.25,345.77Z"/><path class="cls-1" d="M23.92,357.4v-5.49h-9.5a3.8,3.8,0,0,0-2.68.8,2.7,2.7,0,0,0-.83,2.05,4,4,0,0,0,.34,1.74,3.25,3.25,0,0,0,1.07,1.19l-.11.22a7.91,7.91,0,0,1-1.14-.6,4.44,4.44,0,0,1-1.08-1,4.93,4.93,0,0,1-.76-1.48,6.7,6.7,0,0,1-.27-2,4.41,4.41,0,0,1,.24-1.45,3.51,3.51,0,0,1,.68-1.23,4.18,4.18,0,0,1,1-.88,2.18,2.18,0,0,1,1.14-.34q3.41,0,6.45,0l5.44,0v-2.63h.4l4.95,5.2v.29H26.12v6.68Z"/><path class="cls-1" d="M11.87,370.35a4.74,4.74,0,0,1-1.68-1.49,6.42,6.42,0,0,1-.94-2.15A11.13,11.13,0,0,1,9,364.16a15.12,15.12,0,0,1,.29-3,12,12,0,0,1,.83-2.6h4.77v.29a17.11,17.11,0,0,0-1.82.72,9,9,0,0,0-1.78,1,5.22,5.22,0,0,0-1.33,1.48,3.86,3.86,0,0,0-.53,2.05,3.75,3.75,0,0,0,1,2.75,4.09,4.09,0,0,0,3,1,2.58,2.58,0,0,0,1.86-.71,3.5,3.5,0,0,0,1-1.92c.13-.65.26-1.27.4-1.87s.3-1.14.47-1.62a4.53,4.53,0,0,1,1.63-2.22,4.61,4.61,0,0,1,2.78-.84,4.21,4.21,0,0,1,2,.47,4.87,4.87,0,0,1,1.56,1.26,5.77,5.77,0,0,1,1,1.85,7.06,7.06,0,0,1,.34,2.24,11.81,11.81,0,0,1-.27,2.67,16.57,16.57,0,0,1-.67,2.2l-4.48.44-.07-.29c.72-.34,1.39-.68,2-1a8.46,8.46,0,0,0,1.59-1.12,4.57,4.57,0,0,0,1-1.39,4.24,4.24,0,0,0,.36-1.79,3.36,3.36,0,0,0-.22-1.21,3,3,0,0,0-.63-1.05,3.25,3.25,0,0,0-1.05-.74,3.37,3.37,0,0,0-1.46-.29,2.26,2.26,0,0,0-1.92.76,5.18,5.18,0,0,0-.86,1.91c-.13.53-.25,1.11-.38,1.74s-.26,1.16-.38,1.62a5.35,5.35,0,0,1-1.67,2.77,4.44,4.44,0,0,1-3.1,1.13A5,5,0,0,1,11.87,370.35Z"/><path class="cls-1" d="M13,398.43a7.1,7.1,0,0,1-2.35-1.95,8.27,8.27,0,0,1-1.44-3,14.65,14.65,0,0,1-.47-3.8,17.57,17.57,0,0,1,.22-3,12.11,12.11,0,0,1,.52-2.1,7.4,7.4,0,0,1,.56-1.25,1.5,1.5,0,0,0,.25-.52c0-.07-.14-.23-.43-.47s-.57-.46-.83-.65v-.32l7.19-.11v.36a11.77,11.77,0,0,0-1.9.83,15.9,15.9,0,0,0-1.73,1.1,9.87,9.87,0,0,0-1.43,1.27,6.21,6.21,0,0,0-.94,1.28,10.4,10.4,0,0,0-.65,1.62A6.83,6.83,0,0,0,10.75,394a5,5,0,0,0,4,1.66,4.44,4.44,0,0,0,1.77-.32,4.11,4.11,0,0,0,1.31-.89,5,5,0,0,0,1-1.32,12,12,0,0,0,.72-1.62c.22-.58.4-1.09.55-1.52s.28-.84.41-1.21.27-.76.4-1.16.31-.87.52-1.42a7.88,7.88,0,0,1,1-1.81,7.3,7.3,0,0,1,3.36-2.56,5.86,5.86,0,0,1,2.18-.4,7.44,7.44,0,0,1,3.36.71,6.79,6.79,0,0,1,2.35,1.92A7.94,7.94,0,0,1,35,386.83a12,12,0,0,1,.45,3.31,12.4,12.4,0,0,1-.27,2.78,11.57,11.57,0,0,1-.59,1.89,6.39,6.39,0,0,1-.6,1.12,3.07,3.07,0,0,0-.27.42c0,.07.14.22.43.45s.58.44.87.63v.4H28.33v-.4a13.65,13.65,0,0,0,2.36-1.12,10.09,10.09,0,0,0,2.1-1.59,7.68,7.68,0,0,0,1.5-2.06,5.7,5.7,0,0,0,.58-2.56,6.61,6.61,0,0,0-.33-2.11,4.93,4.93,0,0,0-1-1.74A4.47,4.47,0,0,0,32,385.1a5.41,5.41,0,0,0-2.19-.42,4.14,4.14,0,0,0-3.07,1.15,8.3,8.3,0,0,0-1.84,3c-.2.48-.36.93-.51,1.36s-.28.83-.41,1.24-.27.82-.42,1.24-.3.86-.47,1.32a8.33,8.33,0,0,1-2.62,3.8,6.7,6.7,0,0,1-4.28,1.35A6.72,6.72,0,0,1,13,398.43Z"/><path class="cls-1" d="M23.92,412.36v-5.5h-9.5a3.8,3.8,0,0,0-2.68.8,2.73,2.73,0,0,0-.83,2.06,4,4,0,0,0,.34,1.73,3.18,3.18,0,0,0,1.07,1.19l-.11.22a6.92,6.92,0,0,1-1.14-.59,4.69,4.69,0,0,1-1.08-1,4.81,4.81,0,0,1-.76-1.48,6.58,6.58,0,0,1-.27-2,4.47,4.47,0,0,1,.24-1.46,3.7,3.7,0,0,1,.68-1.23,4.18,4.18,0,0,1,1-.88,2.26,2.26,0,0,1,1.14-.33q3.41,0,6.45,0c2,0,3.85,0,5.44,0V401.3h.4l4.95,5.21v.28H26.12v6.69Z"/><path class="cls-1" d="M23.25,425.33a1.44,1.44,0,0,1-.52-1.09,1.88,1.88,0,0,1,.19-.92,2.81,2.81,0,0,1,.46-.59,4,4,0,0,0,.45-.55,1.38,1.38,0,0,0,.2-.79,1.46,1.46,0,0,0-.31-.85,3.6,3.6,0,0,0-.78-.78,6.11,6.11,0,0,0-1.06-.65c-.4-.19-.78-.36-1.14-.5H10.33a.85.85,0,0,0-.5.47,2.85,2.85,0,0,0-.26.81c0,.3-.07.61-.09.94a5,5,0,0,1-.09.85H9v-8.1h.36A4.7,4.7,0,0,0,9.72,415a.86.86,0,0,0,.83.6H22.76a1.25,1.25,0,0,0,.44-.06.85.85,0,0,0,.32-.3c.12-.22.27-.47.45-.76a6,6,0,0,0,.45-.87h.22l1.84,4.73v.22l-5-.07v.07c.29.12.71.31,1.27.58a10.84,10.84,0,0,1,1.68,1,6.41,6.41,0,0,1,1.46,1.48,3.35,3.35,0,0,1,.61,2,2.27,2.27,0,0,1-.54,1.53,1.71,1.71,0,0,1-1.37.64A1.92,1.92,0,0,1,23.25,425.33Z"/><path class="cls-1" d="M12.74,440.43a7,7,0,0,1-1.83-1.37A7.3,7.3,0,0,1,9.54,437,6.56,6.56,0,0,1,9,434.29a8.17,8.17,0,0,1,.68-3.36,7.33,7.33,0,0,1,1.94-2.59,8.78,8.78,0,0,1,2.92-1.64,10.76,10.76,0,0,1,3.56-.58,9,9,0,0,1,5.71,2.08,7.63,7.63,0,0,1,1.93,2.42,6.66,6.66,0,0,1,.74,3.16,9.55,9.55,0,0,1-.36,2.66A6.13,6.13,0,0,1,25,438.6a5.5,5.5,0,0,1-1.86,1.5,6.67,6.67,0,0,1-2.64.69v-11.6l-.67,0a6.51,6.51,0,0,0-.77,0,9.72,9.72,0,0,0-2.91.43,7.56,7.56,0,0,0-2.46,1.27A5.85,5.85,0,0,0,12,432.91a6.64,6.64,0,0,0-.61,2.93,5.44,5.44,0,0,0,.92,3.16,4.32,4.32,0,0,0,2.26,1.79l-.08.29A6.61,6.61,0,0,1,12.74,440.43Zm12.17-4.14a3.26,3.26,0,0,0,1-2.47,3,3,0,0,0-.6-1.83,6.64,6.64,0,0,0-1.39-1.41A7.64,7.64,0,0,0,21,429.26v1.49c0,.43,0,.86,0,1.28s0,.86,0,1.32,0,1,0,1.51c0,.37,0,.7,0,1a2.6,2.6,0,0,0,.18.83,2.69,2.69,0,0,0,.54.38,1.85,1.85,0,0,0,.76.12A3.16,3.16,0,0,0,24.91,436.29Z"/><path class="cls-1" d="M12.74,456.15a6.84,6.84,0,0,1-1.83-1.38,7.39,7.39,0,0,1-1.37-2.07A6.58,6.58,0,0,1,9,450a8.23,8.23,0,0,1,.68-3.36,7.39,7.39,0,0,1,1.94-2.58,8.78,8.78,0,0,1,2.92-1.64,10.76,10.76,0,0,1,3.56-.58,8.87,8.87,0,0,1,3,.54,8.65,8.65,0,0,1,2.69,1.54,7.52,7.52,0,0,1,1.93,2.42,6.66,6.66,0,0,1,.74,3.16,9.48,9.48,0,0,1-.36,2.65,6.18,6.18,0,0,1-1.1,2.17,5.62,5.62,0,0,1-1.86,1.5,6.67,6.67,0,0,1-2.64.69v-11.6a5.79,5.79,0,0,1-.67,0c-.25,0-.51,0-.77,0a9.72,9.72,0,0,0-2.91.43,7.56,7.56,0,0,0-2.46,1.27A5.85,5.85,0,0,0,12,448.63a6.61,6.61,0,0,0-.61,2.93,5.44,5.44,0,0,0,.92,3.16,4.36,4.36,0,0,0,2.26,1.79l-.08.29A7,7,0,0,1,12.74,456.15ZM24.91,452a3.28,3.28,0,0,0,1-2.48,3,3,0,0,0-.6-1.82,6.64,6.64,0,0,0-1.39-1.41,6.92,6.92,0,0,0-1.61-.92A6.49,6.49,0,0,0,21,445v1.48c0,.44,0,.86,0,1.29s0,.86,0,1.31,0,1,0,1.52c0,.36,0,.7,0,1a2.54,2.54,0,0,0,.18.83,2.34,2.34,0,0,0,.54.38,1.67,1.67,0,0,0,.76.13A3.2,3.2,0,0,0,24.91,452Z"/><path class="cls-1" d="M23.92,468.39V462.9h-9.5a3.8,3.8,0,0,0-2.68.8,2.73,2.73,0,0,0-.83,2.06,4,4,0,0,0,.34,1.73,3.18,3.18,0,0,0,1.07,1.19l-.11.22a6.32,6.32,0,0,1-1.14-.6,4.44,4.44,0,0,1-1.08-1,4.81,4.81,0,0,1-.76-1.48,6.63,6.63,0,0,1-.27-2,4.43,4.43,0,0,1,.24-1.46,3.51,3.51,0,0,1,.68-1.23,4.18,4.18,0,0,1,1-.88A2.27,2.27,0,0,1,12,459.9c2.27,0,4.42,0,6.45,0s3.85,0,5.44,0v-2.64h.4l4.95,5.2v.29H26.12v6.68Z"/></g></g></svg>