<svg xmlns="http://www.w3.org/2000/svg" viewBox="0 0 42.13 392.72"><defs><style>.cls-1{fill:#231815;}</style></defs><title>資產 25</title><g id="圖層_2" data-name="圖層 2"><g id="圖層_2-2" data-name="圖層 2"><path class="cls-1" d="M7.78,26.63v3.54H3.59V9.1h15V0H23V9.1H38.13V29.88H33.94V26.63H23V44.78H18.61V26.63ZM18.61,11.49H7.78V24.33H18.61Zm15.33,0H23V24.33h11Z"/><path class="cls-1" d="M12.47,68.77V92.62H8.55V71.79A41.46,41.46,0,0,1,1.27,83.72L.14,82.62c3.5-5.32,6.09-12.46,7.64-19.45H1V61H8.55v-7c-2.5.48-5,.82-7,1l-.32-1.63a43.54,43.54,0,0,0,14.52-6l3.23,3.74a51.93,51.93,0,0,1-6.46,2V61h6.46v2.15H12.47V66a49.41,49.41,0,0,1,7,6.41l-3.23,3.16C15.38,73.71,13.88,71.12,12.47,68.77ZM35,76.87V92.15H31V77.83c-4.87,1.15-9.78,2.29-14.65,3.35L15.7,79c5.09-1.1,10.23-2.25,15.33-3.45V48.13h4V74.62c1.87-.48,3.78-.91,5.65-1.39l.54,2.11C39.17,75.86,37.08,76.39,35,76.87ZM20,64.32a33.13,33.13,0,0,1,8.38,7.14l-3.46,3.21a76.45,76.45,0,0,0-6.05-9.1Zm6-2.25a84,84,0,0,0-6.37-8.33l1-1.3A34.54,34.54,0,0,1,29,58.86Z"/><path class="cls-1" d="M3.32,140V97.8H19v17.43H7.42V140Zm4.1-34.82H15V100H7.42ZM15,107.38H7.42v5.74H15Zm19.66,25.86v-18H23.16V97.8h15.6v36.59c0,5.89-4.77,7.85-12.92,2l.59-1.68C33,136.69,34.67,136.45,34.67,133.24Zm-7.51-28h7.51V100H27.16Zm7.51,2.16H27.16v5.74h7.51Z"/><path class="cls-1" d="M37.63,156v15.47H33.44v-2.73l-22.2.05c-1,10.44-4.1,15.8-7.92,19.82l-1.27-1.1c3.27-5.41,5.18-10.58,5.18-24.28V147.94l4.24,1.1c8.55-.76,16.65-2.58,21.29-5.22l4.5,3.93c-6.64,1.92-17,3-25.75,2.92V156Zm-4.19,10.53v-8.33H11.51V162c0,1.63,0,3.12-.14,4.55Z"/><path class="cls-1" d="M10.37,222.85v25.91H6.55V227.35a48.47,48.47,0,0,1-5.28,11L0,237.21a86.75,86.75,0,0,0,6.05-20.88H.86v-2.15H6.55v-10h3.82v10h5.28v2.2H10.37v3.07a37.22,37.22,0,0,1,4.55,6.61v-4.41h8.92V235.2H18.11v2.21H14.92V228l-2.5,1.39C11.83,227.25,11.06,224.91,10.37,222.85Zm1.41,22h29V247h-29Zm9.6-35.59H13.19v-2.15H40.45v2.15H25.57c-.5,1.68-1.23,3.79-2.05,5.8h6c-.05,12.93-.46,20.21-1,24.18-.64,4.65-4.83,5.89-11.29,1.39L17.7,239c5.73,1.48,6.91,1.19,7.23-1.39.37-3.12.69-10.4.78-20.36H22.66c-.41,1-.82,2-1.23,2.78l-3.78-.81A73.2,73.2,0,0,0,21.38,209.29Zm-3.27,14.37v9.53h2.46v-9.53Zm15.42,8.43c-1.27-2.44-2.64-4.79-4-7.09l1.18-1c1.28,1.34,2.59,2.83,3.82,4.36a48.26,48.26,0,0,0,1.1-7.33H30.21v-2H35.4l.82-.91,3.55,1.1a42.13,42.13,0,0,1-2.64,12.59,40.22,40.22,0,0,1,4.14,7.47l-3.69,2.16a56.34,56.34,0,0,0-2.27-5.7,23.54,23.54,0,0,1-6.15,7.37l-1-1.38A25,25,0,0,0,33.53,232.09Z"/><path class="cls-1" d="M23.07,287.26c-5,2.69-15.79,6.61-21.25,7.43L.55,289.56a72.49,72.49,0,0,0,8.6-.91v-8.09H1.46l-.1-2.16H9.15v-6h4.09v6h8.28v2.16H13.24v7.37a91.46,91.46,0,0,0,9.37-2.2Zm19.06,4.27-3,4.88A23.4,23.4,0,0,1,29.76,288c-3.23,3.59-7.83,6.71-14.47,8.86l-.68-1.48c6.55-2.92,10.73-6.33,13.46-10.49a39.68,39.68,0,0,1-3.14-15,26.75,26.75,0,0,1-4.32,6.56l-1.23-1a28,28,0,0,0,2.14-4.59l-3.46,1.72a29.09,29.09,0,0,0-1.27-4.36,77,77,0,0,1-14.51,4.41l-1.1-4.79c1.19,0,2.37,0,3.6-.1a40.55,40.55,0,0,0,3.46-10.39H1.18v-2.15H22.39v2.15H13a39.92,39.92,0,0,1-6,10.25c3.05-.24,6.19-.67,9.19-1.15-.54-1.39-1.09-2.68-1.59-3.74l1.23-.81a29.73,29.73,0,0,1,5.91,8.38c1.87-5.27,2.69-11.68,3-18.29l4.55.67a59.22,59.22,0,0,1-1.6,9.43h13.2v2.16H37.13c-.23,6.75-1,14.22-5,20.59C34.44,287.5,37.67,289.66,42.13,291.53Zm-12.24-10c2.05-4.79,2.73-10.44,3-17.29H27.07c-.18.57-.36,1.19-.59,1.77C26.8,272.37,27.66,277.4,29.89,281.52Z"/><path class="cls-1" d="M41.77,337.65l-1.14,4.83a175.86,175.86,0,0,1-18.61.34c-7-.43-9.55-1.49-12.78-7a45.46,45.46,0,0,1-6.51,8.91L.14,341.86C2.5,340,5.69,337.36,7,335.2V324.43H.59v-2.2H11v12.59c2.68,3.93,5.28,4,11.24,4.17A135.21,135.21,0,0,0,41.77,337.65ZM8,319c-1.5-2.11-4.27-5.51-6.19-7.62l.91-1.43a41.51,41.51,0,0,1,8.24,5.51ZM3.23,301.3l.86-1.44a36.71,36.71,0,0,1,8.38,5.27l-2.92,3.49A61.19,61.19,0,0,0,3.23,301.3Zm19.61,20.54h-7.6V311.21h9.19v-3.78H13.74v-2.16H24.43v-5.22h4v5.22H39.77v2.16H28.44v3.78h9.41v10.63H28.44v1.34a53.93,53.93,0,0,1,11.69,7l-2.91,4a69.9,69.9,0,0,0-8.78-8.57V337h-4V325.58a33.2,33.2,0,0,1-11,9.48l-.91-1.53A36.15,36.15,0,0,0,22.84,321.84Zm-3.69-2.15h5.28v-6.32H19.15Zm9.29,0h5.5v-6.32h-5.5Z"/><path class="cls-1" d="M8.6,363.51c0,17.29-2.28,23.85-6.87,29.21l-1.27-1.1c3-5.31,3.86-11.11,3.86-27.15v-11.4H23a70.06,70.06,0,0,0-7-4l.41-1.73a36.79,36.79,0,0,1,10.28,2.83l-1.36,2.92H39.54v2.15H8.6v5.46h7v-4.31h3.82v4.31H28.3v-4.31h3.82v4.31h7.37v2.16H32.12v7.52H15.61v-7.52h-7Zm29,28.3a41.38,41.38,0,0,1-13.06-5c-4.64,2.64-10.33,4.27-17,5.08l-.45-1.63a43.6,43.6,0,0,0,14.69-5.55A25.73,25.73,0,0,1,15,375.05H11V372.9H30.8l1.09-.72L36,374.43a28.09,28.09,0,0,1-8,10.06A54.15,54.15,0,0,0,40.17,387Zm-13.15-9a23.13,23.13,0,0,0,6.14-7.76H16.79A23.07,23.07,0,0,0,24.48,382.81ZM19.43,368.2H28.3v-5.36H19.43Z"/></g></g></svg>