<svg xmlns="http://www.w3.org/2000/svg" viewBox="0 0 28.42 528.9"><defs><style>.cls-1{fill:#956134;}</style></defs><title>資產 27</title><g id="圖層_2" data-name="圖層 2"><g id="圖層_2-2" data-name="圖層 2"><path class="cls-1" d="M14,1.15c.37.13.58.29.58.48s-.24.41-.7.73a69.65,69.65,0,0,1-4.88,8c4-.32,8-.71,11.89-1.18A43.08,43.08,0,0,0,18,5.49l2-1.75a52.66,52.66,0,0,1,6.76,9l-2.6,1.85c-.55-1-1.13-2-1.7-3-4.19.58-10.38,1.31-18.57,2.24-.21.41-.42.6-.6.6S3,14.3,2.94,14l-.7-3.09c1.19-.07,2.37-.13,3.52-.23,1-1.47,1.76-2.81,2.43-4A54.53,54.53,0,0,0,11.25,0Zm8.77,14.21V28.58H20V26.82H8.77v1.76H6V15.36ZM20,24.2V18.1H8.77v6.1Z"/><path class="cls-1" d="M12.68,37.93V31.67l2.67.23c.48.06.76.19.76.41s-.21.42-.61.74v4.88h9.37V52.14H22V50.26H15.5V60.51H12.68V50.26H6.28v1.88H3.43V37.93Zm0,9.58V40.68H6.28v6.83Zm2.82,0H22V40.68H15.5Z"/><path class="cls-1" d="M16.29,64.59c.33.13.51.32.51.51s-.27.39-.81.51l-.09.1a26.34,26.34,0,0,0,6.06,4A30.73,30.73,0,0,0,28.09,72l-1.91,2.74a38.13,38.13,0,0,1-6.92-3.41,28.08,28.08,0,0,1-5-4.19c-1.4,1.19-2.76,2.24-4,3.2a49.89,49.89,0,0,1-7.37,4.15L.45,72.22a35,35,0,0,0,7.38-3.64,35,35,0,0,0,6-5Zm5.13,11.75,1.39,1a.57.57,0,0,1,.27.42c0,.25-.21.51-.57.73l-4.25,3.86h5.43V92.44H21V91.06H7.7v1.38H5V82.31h10l3.25-3.48H5.55V76.34H20l.7-.25A1.2,1.2,0,0,1,21.42,76.34ZM21,88.57V84.8H7.7v3.77ZM19.54,71.71v2.4H8.89v-2.4Z"/><path class="cls-1" d="M16.53,96.14c.34.16.52.35.52.54s-.28.35-.82.48c-.12.13-.24.26-.33.38a17.57,17.57,0,0,0,5,4.47,21,21,0,0,0,7.25,3.13l-2.24,3a32.93,32.93,0,0,1-7.1-4.15,23.08,23.08,0,0,1-4.46-4.79c-1.37,1.47-2.7,2.85-4,4.06a52,52,0,0,1-7.52,5.39l-2.4-2.26A33.74,33.74,0,0,0,8,101.66a43.52,43.52,0,0,0,6.16-6.48Zm4.19,9.77v2.62h-5.1v3.35h8.56v2.49H15.62v6.86h4.13l-2-1a15.51,15.51,0,0,0,2.94-4.89l2.21,1.09c.18.09.28.19.28.28a.77.77,0,0,1-.22.51,25.15,25.15,0,0,1-2.51,4h6.06v2.62H1.88v-2.62H8.31c-.85-1.53-1.76-3.06-2.76-4.59l2.37-1.28q1.55,2.49,2.73,4.89l-1.52,1H12.8v-6.86H4.13v-2.49H12.8v-3.35H7.58v-2.62Z"/><path class="cls-1" d="M23.81,140.81v8.24h-8.4v1.37H25v2H15.41v1.37H27.85v2.11H.7V153.8H12.8v-1.37H3.31v-2H12.8v-1.37H4.49v-8.24Zm3.67-3.23v2H1.06v-2Zm-4-9.35v8.11H4.85v-8.11ZM12.8,144.06v-1.37H7.1v1.37Zm0,1.76H7.1v1.37h5.7Zm8-14.5v-1.24H7.46v1.24Zm0,1.76H7.46v1.37H20.84Zm-5.43,11H21.2v-1.37H15.41Zm5.79,1.76H15.41v1.37H21.2Z"/><path class="cls-1" d="M27.73,171.14v2.36H14.11v14.72H11.62v-2.55c-2.37.38-5.64.86-9.86,1.43a.82.82,0,0,1-.58.36q-.27,0-.27-.39l-.58-2.49c1.1-.06,2.16-.13,3.22-.22V173.5H.7v-2.36Zm-4.28-11.75v10.25H5.55V159.39ZM11.62,173.5H6v2h5.58Zm0,4H6v2.24h5.58Zm0,4.25H6v2.4c1.88-.16,3.76-.39,5.58-.64Zm9.22-18.36v-1.72H8.16v1.72Zm0,2H8.16v2H20.84ZM25.06,175a1.21,1.21,0,0,1,.63-.25l.37.25,1,1.28a1.57,1.57,0,0,1,.18.58c0,.19-.27.44-.82.76a19.68,19.68,0,0,1-2.79,5.11,8.44,8.44,0,0,1-.76.93,3.72,3.72,0,0,0,.31.22,11.83,11.83,0,0,0,4.67,1.72l-1.79,2.49a16.79,16.79,0,0,1-4.77-2.42,1,1,0,0,1-.24-.19,30.43,30.43,0,0,1-4.25,2.74l-1.75-2a24.73,24.73,0,0,0,4.24-2.65,9.8,9.8,0,0,1-.85-1.28,18.82,18.82,0,0,1-2-5H15.29V175Zm-4.58,6.2c.18.25.36.51.54.73a13.88,13.88,0,0,0,1.4-1.82c.45-.76.94-1.72,1.48-2.87H18.75A14.13,14.13,0,0,0,20.48,181.2Z"/><path class="cls-1" d="M15.41,191.29c.45.06.7.19.7.41s-.18.42-.49.77v1.12H27.36v2.49H1.06v-2.49H12.92v-2.5ZM26.3,206.42v10.73a2.5,2.5,0,0,1-1.82,2.62,8.72,8.72,0,0,1-2.79.51l-1.09-2.75,2.18-.06c.61-.06.91-.42.91-1.18v-7.38h-19v11.24H2.12V206.42H26.3Zm-3.79-8.59v7H5.91v-7Zm-2.13,12.71v6.61H7.83v-6.61ZM19.9,200.2H8.52v2.23H19.9Zm-2,12.58H10.31v2.13H17.9Z"/><path class="cls-1" d="M9.52,224.52c.28.07.43.2.43.36s-.18.44-.49.63l-1.6,2.62H12.8V251H10.19v-2H3.79v2.11H1.18V228.13H5.1l2.12-4.24Zm.67,12.33v-6.23H3.79v6.23Zm0,9.61v-7.12H3.79v7.12ZM20,224.27c.3.1.49.22.49.35a.54.54,0,0,1-.25.38c-.24.13-.63,1-1.18,2.75-.06.16-.12.29-.15.38h8.43c0,9.33-.24,15.17-.73,17.6-.3,2.36-.94,3.92-1.91,4.82S21.9,252,19.41,252l-1.3-2.87c2.7,0,4.31-.26,4.82-.83.49-.42.85-1.44,1.16-3.1s.6-6.61.66-14.53H18a52,52,0,0,1-2.34,4.73L13,233.85a39.88,39.88,0,0,0,4.64-10.47Zm2.37,17.34-2.13,2a30.82,30.82,0,0,0-4.85-5l1.88-1.89A33.23,33.23,0,0,1,22.39,241.61Z"/><path class="cls-1" d="M5.34,261.31v-6.26l2.4.22c.42.07.66.19.66.42s-.18.35-.48.64v5H11.5v2.62H7.92v.95a22.1,22.1,0,0,0,4.15,6.64l-1.76,2a30,30,0,0,1-2.39-4.19v13.54H5.34V269.8a7.58,7.58,0,0,0-.24.77,50.15,50.15,0,0,1-2.49,6.32L0,275a35.54,35.54,0,0,0,3.12-5.52c.55-1.24,1.25-3.1,2-5.55H.7v-2.62Zm10.4,2.36h9.1a3.16,3.16,0,0,1,.76-.51,1,1,0,0,1,.61.32L27.66,265a.86.86,0,0,1,.31.6c0,.2-.34.45-1,.74a41.71,41.71,0,0,1-3.52,10.89,29.13,29.13,0,0,0,4.94,4.56l-2.12,2.4a33,33,0,0,1-4.49-4.54A18.52,18.52,0,0,1,16,284.14l-1.88-2.62A15.44,15.44,0,0,0,18,279.44a11.47,11.47,0,0,0,2.15-2.14,11,11,0,0,1-.91-1.62,27.76,27.76,0,0,1-2.52-9.39H15.68a52,52,0,0,1-.88,8.08,55.39,55.39,0,0,1-2.73,9L9.46,282a44.4,44.4,0,0,0,2.7-8.3,55.68,55.68,0,0,0,1-10.16v-6.86H26.18v2.74H15.74Zm5.77,10.63c.06.13.15.26.21.39a.11.11,0,0,1,0-.07,37.17,37.17,0,0,0,2.37-8.33h-5A21,21,0,0,0,21.51,274.3Z"/><path class="cls-1" d="M3.67,295.09v-7.86l2.49.23c.45.06.7.19.7.41a1.43,1.43,0,0,1-.46.74v6.48H9.71v2.62H6.4v8.39c1.21-.28,2.46-.63,3.67-1v2.62c-1.79.67-4.61,1.53-8.43,2.62-.18.41-.4.61-.58.61s-.33-.16-.36-.52L0,307.32c1.21-.16,2.46-.35,3.67-.61v-9H.33v-2.62Zm16.26-7.31c.3.06.45.19.45.35s-.18.41-.48.6l-1.31,1.76h6.89v12.58H16.74a21.32,21.32,0,0,1-1.12,5.75A14.16,14.16,0,0,1,13.16,313a15,15,0,0,1-3.94,2.94L6.73,313.8a10.48,10.48,0,0,0,4-2.43,9.91,9.91,0,0,0,2.33-3.45,16.25,16.25,0,0,0,1.07-4.85H10.65V290.49h5.12l1.88-3.38Zm-3.22,8v-2.88H13.26v2.88Zm0,2.1H13.26v2.88h3.45ZM20.29,304c.37.06.55.19.55.44a1.08,1.08,0,0,1-.52.8,1,1,0,0,0-.42,1v2.59a3.66,3.66,0,0,0,.67,0c.27-.7.51-1.37.69-2a31.12,31.12,0,0,0,.88-3.19l1.95.77c.27.13.42.22.42.35s-.15.35-.46.64c-.36,1-.78,2.07-1.3,3.22a15.91,15.91,0,0,0,1.91-.29c-.3-.51-.57-1-.85-1.43l1.31-1.25a30.94,30.94,0,0,1,2.24,4.09l-1.42,1.37a10.92,10.92,0,0,1-.46-1.05l-5.55,1.24a2.84,2.84,0,0,0,.3,1.41c.22.38.7.54,1.46.54h2.24a2.49,2.49,0,0,0,1.34-.29,2.65,2.65,0,0,0,.79-1.59l2.36,1.12A5.08,5.08,0,0,1,27.18,315a2.52,2.52,0,0,1-1.58.54H20.72a3.15,3.15,0,0,1-2.55-1.11,5,5,0,0,1-.76-3v-7.86Zm-1.09-8.27h3.67v-2.88H19.2Zm3.67,2.1H19.2v2.88h3.67Z"/><path class="cls-1" d="M12.68,346.56V340.3l2.67.22c.48.07.76.19.76.42s-.21.41-.61.73v4.89h9.37v14.21H22v-1.89H15.5v10.25H12.68V358.88H6.28v1.89H3.43V346.56Zm0,9.58V349.3H6.28v6.84Zm2.82,0H22V349.3H15.5Z"/><path class="cls-1" d="M7.46,384l-1.33.86h5.31l-1.61-.77L12.19,379l2,1.09c.3.16.45.29.45.42a1,1,0,0,1-.57.76l-2,3.61h4.13v2.49H.33v-2.49H5.07c-.85-1.53-1.73-3.1-2.7-4.63L4.73,379C5.76,380.69,6.67,382.35,7.46,384Zm2.25-11.4c.48.06.72.19.72.41a1.51,1.51,0,0,1-.48.74v2.36h5.46v2.52H1.18v-2.52h6v-3.73Zm4.73,17V400.8H11.83v-1.75h-7v1.75H2.24V389.57Zm-2.61,7v-4.5h-7v4.5ZM27.6,375.23,24.39,384c2.3,2.71,3.46,5.2,3.46,7.47A5.52,5.52,0,0,1,26,395.76a6.63,6.63,0,0,1-4.58,1.56l-1.07-2.87c2-.22,3.28-.61,3.89-1.15a2.61,2.61,0,0,0,.85-2.11c0-1.78-1.16-4.11-3.43-7l2.58-8H20.14v25.1H17.41V373.73h7.46c.13-.32.25-.48.37-.48Z"/><path class="cls-1" d="M11.13,407.06a21.73,21.73,0,0,1-2.48.93v5.65h4.73v2.62h-4a18.17,18.17,0,0,0,4,5.36L11.25,424a27.09,27.09,0,0,1-2.6-4.48V433H6V420.6c-.28.86-.52,1.57-.76,2.14a34.19,34.19,0,0,1-2.67,5L.24,425.49a25.92,25.92,0,0,0,3.1-4.6,36.14,36.14,0,0,0,1.79-4.63H.82v-2.62H6v-4.92a28.32,28.32,0,0,1-3.19.67l-1.79-2.62a23.38,23.38,0,0,0,5.1-.79,22.66,22.66,0,0,0,4.73-1.7l1.94,2a.64.64,0,0,1,.18.47c0,.2-.12.26-.33.26l-.76-.16A2,2,0,0,0,11.13,407.06Zm13.38-2.55c.49.06.73.19.73.41s-.18.42-.49.74v15.83c1.06-.31,2.1-.67,3.1-1v2.75l-3.1.93V433H22v-8l-6.85,2c-.31.67-.61,1-.85,1s-.31-.16-.43-.51l-1-2.85c3-.63,6.07-1.43,9.1-2.33v-18Zm-4.73,14.24-1.88,1.88a27.56,27.56,0,0,0-4-3.73l1.76-1.76A28.65,28.65,0,0,1,19.78,418.75Zm.73-7.86-1.92,1.89a24.4,24.4,0,0,0-4.27-3.61l1.79-1.76A30.22,30.22,0,0,1,20.51,410.89Z"/><path class="cls-1" d="M8.68,438.42c-1,.32-2.13.6-3.34.89v1.41h4v2.1h-4v1.63h4v2.14h-4v1.6H23v-1.6H19.08v-2.14H23v-1.63H19.08v-2.1H23v-1.63H19v-2.37H25.6v11.47h2v6.26H25v-3.87H3.43v3.87H.82v-6.26H2.73V436.6l1.24.67c.7-.13,1.37-.26,2-.45a10,10,0,0,0,2.27-1l1.64,1.79a.84.84,0,0,1,.27.58c0,.19-.09.25-.24.25l-.67-.19A2.51,2.51,0,0,0,8.68,438.42Zm11.25,13.5,1.36.9c.19.12.28.25.28.38s-.21.48-.61.73l-4.55,3.48H27.24v2.5H15.62v1.62a3.29,3.29,0,0,1-1.12,2.72c-.61.6-2.18.92-4.67.92l-1.06-2.74H11.5A1.33,1.33,0,0,0,13,461.05v-1.14H1.06v-2.5H13v-1.5l1.7.23,2-1.95H7v-2.27H18.72l.57-.22A1.15,1.15,0,0,1,19.93,451.92ZM17.84,437c.18.1.27.2.27.29,0,.26-.15.42-.46.51-.57.51-1.12,1-1.63,1.37.66.52,1.33,1,2,1.51l-1.43,1.37c-.79-.64-1.51-1.21-2.21-1.73-.82.52-1.73,1.06-2.76,1.6l-1.31-1.37a19.52,19.52,0,0,0,2.4-1.41c-.79-.48-1.55-.92-2.28-1.34l1.28-1.24c.85.44,1.73.95,2.58,1.47a16,16,0,0,0,1.94-1.86Zm.12,6.13c.18.07.27.16.27.29s-.15.38-.45.48c-.58.51-1.13,1-1.61,1.34.57.45,1.15.93,1.73,1.41l-1.43,1.37c-.67-.58-1.27-1.12-1.88-1.63-.79.51-1.76,1.05-2.88,1.63l-1.28-1.37a18.93,18.93,0,0,0,2.58-1.5c-.85-.58-1.7-1.12-2.48-1.6l1.3-1.25c.91.55,1.82,1.12,2.7,1.73a22.31,22.31,0,0,0,1.82-1.73Z"/><path class="cls-1" d="M27,469v27.68H24.51v-.89H4v.89H1.55V469Zm-2.49,24.29v-21.8H4v21.8Zm-3.43-13.57V485H16.17a9.91,9.91,0,0,0,1.91,2.46,24.45,24.45,0,0,0,3.12-2.11L22.72,487a.71.71,0,0,1,.15.38c0,.2-.24.26-.73.26-.75.38-1.51.77-2.3,1.15a27.07,27.07,0,0,0,4.21,2l-2.36,2a17.43,17.43,0,0,1-5.19-3.8A13,13,0,0,1,14.2,485h-.58a17.86,17.86,0,0,1-1.43,1.37v3.55c1.46-.26,2.76-.51,3.92-.8l.24,2c-2.55.7-4.82,1.25-6.89,1.63-.15.25-.27.38-.33.38s-.27-.13-.39-.38l-1.16-2.14c.85-.1,1.64-.19,2.37-.32V488A15.42,15.42,0,0,1,6.4,489.6l-1.91-2a24.71,24.71,0,0,0,4.76-1.72,10.94,10.94,0,0,0,1.58-.9H7.46v-5.24Zm-8.16-6.25V472l2.31.19c.42,0,.63.13.63.32a1.37,1.37,0,0,1-.45.73v.26h6.28v2H15.41v1.12h7.67v2.1H5.22v-2.1h7.7v-1.12H6.73v-2Zm5.8,8.23H9.83V483h8.89Z"/><path class="cls-1" d="M27.12,503.58H4.73v21.56H27.85v2.61H4.73v1.15H2V501H27.12ZM15.29,514.79v8.88H6.86v-8.88Zm-2.49,2.36H9.34v4.12H12.8Zm10-12v8.11h-13v-8.11Zm-2.49,2.39H12.19v3.36h8.07Zm5.68,7.22v8.88H17.41v-8.88Zm-2.49,2.36H19.9v4.12h3.55Z"/></g></g></svg>