<svg xmlns="http://www.w3.org/2000/svg" viewBox="0 0 42.08 390.95"><defs><style>.cls-1{fill:#231815;}</style></defs><title>資產 28</title><g id="圖層_2" data-name="圖層 2"><g id="圖層_2-2" data-name="圖層 2"><path class="cls-1" d="M2.67,44.86l-.81-1.48c4.81-2.77,6.71-6.2,7.48-13.6A36.65,36.65,0,0,1,2.72,34.6L.86,30.69c.73-.19,1.45-.43,2.22-.67V3.63l3.22,1A20.82,20.82,0,0,0,10.38,0l3.54,2.29a27.81,27.81,0,0,1-7.12,4V28.54c.91-.43,1.86-.91,2.77-1.43.27-4.82.27-11.12.27-19.47l3.63.09C13.47,31,13.69,39.8,2.67,44.86ZM39.45,3.2V32.36c0,4.1-3.86,4.15-6.94,2.48v9.64H28.7V38.94l-3.49,1.39c-.27-1.39-.64-3.06-1-4.82a58.3,58.3,0,0,1-9.93,6.11l-1.86-4.2c.77-.19,1.72-.43,2.76-.77V3.48H26.89V23.24H18.77V35.51c1.72-.62,3.45-1.29,4.85-2-.45-1.67-1-3.29-1.49-4.68l1.4-.81A42.81,42.81,0,0,1,28.7,38V3.2ZM18.77,12h4.49V5.63H18.77Zm0,9.11h4.49v-7H18.77Zm17-15.74H32.51v27.1c2.54.48,3.22.1,3.22-1.71Z"/><path class="cls-1" d="M2.67,92.59l-.81-1.48c4.81-2.77,6.71-6.2,7.48-13.6a36.65,36.65,0,0,1-6.62,4.82L.86,78.42c.73-.2,1.45-.43,2.22-.67V51.36l3.22,1a21,21,0,0,0,4.08-4.63L13.92,50A27.81,27.81,0,0,1,6.8,54V76.27c.91-.43,1.86-.91,2.77-1.43.27-4.82.27-11.12.27-19.48l3.63.1C13.47,78.75,13.69,87.53,2.67,92.59ZM39.45,50.93V80.09c0,4.1-3.86,4.15-6.94,2.48v9.64H28.7V86.67l-3.49,1.39c-.27-1.39-.64-3.06-1-4.82a57.6,57.6,0,0,1-9.93,6.1l-1.86-4.2c.77-.19,1.72-.42,2.76-.76V51.21H26.89V71H18.77V83.24c1.72-.62,3.45-1.29,4.85-2-.45-1.67-1-3.29-1.49-4.68l1.4-.81a42.81,42.81,0,0,1,5.17,9.93V50.93ZM18.77,59.71h4.49V53.36H18.77Zm0,9.11h4.49v-7H18.77Zm17-15.75H32.51V80.18c2.54.48,3.22.1,3.22-1.72Z"/><path class="cls-1" d="M4.4,125.57l1.59.19a54.75,54.75,0,0,1-1.41,13.56L.41,137.5A36.35,36.35,0,0,0,4.4,125.57Zm.32-6.35a48.67,48.67,0,0,0,5.93-8.87,59.87,59.87,0,0,1-7.93,1.81L1.9,108c1,.09,1.86.14,2.72.19A60.48,60.48,0,0,0,8.75,95.07L13,96.75a55.1,55.1,0,0,1-6.4,11.5c1.73,0,3.41,0,5.22-.15A65.11,65.11,0,0,0,14.24,102l3.9,1.81A52.26,52.26,0,0,1,7,119.13a63.17,63.17,0,0,0,6.8-.77c-.41-1.19-.86-2.38-1.32-3.38l1.32-1A33.28,33.28,0,0,1,19,122.14L15.55,124c-.32-1.19-.72-2.63-1.18-4.06a66.75,66.75,0,0,1-11.79,3.72l-1-4.39C2.58,119.27,3.67,119.27,4.72,119.22Zm4.76,6.21A64.75,64.75,0,0,1,12,136.5l-4,.72a86.92,86.92,0,0,0,0-11.51ZM12.7,124a57,57,0,0,1,4.67,9.35l-3.81,1.58a85.06,85.06,0,0,0-2.27-10.12Zm29,5.87-3,3.91a85.64,85.64,0,0,0-8.89-8.88v10c0,5.34-4.71,6.3-10.42,1.57l.45-1.52c5.35,1.52,6.07,1.09,6.07-1.15v-8a52.59,52.59,0,0,1-7.75,6.11l-2-4.06a48.54,48.54,0,0,0,9.74-4.63v-9H15.73v-2.15H29.38c.27-1.1.59-2.34.86-3.58H22.67l-.91,2.53-3.31-.81a132.36,132.36,0,0,0,4-14.79l3.68.81c-.23,1-.5,2-.73,2.91h6.12l.82-.62L36,99.94c-.91,3.82-1.77,8.07-2.9,12.17h7.21v2.15H29.83v8.54l1,.43a34.83,34.83,0,0,0,5.35-7.82l3.36,2.67a33,33,0,0,1-7.12,6A50.81,50.81,0,0,1,41.67,129.87Zm-20.31-5.63a46.44,46.44,0,0,0-3.77-7.59l1.18-1.15a31.9,31.9,0,0,1,5.85,6.35Zm9.34-17.81c.4-2,.77-3.86,1-5.2H24.85c-.5,1.72-1,3.44-1.5,5.16Z"/><path class="cls-1" d="M12.29,149.39H1v-2.2H12.29v-4.05h3.9v4.05H25.3v-4.05h3.9v4.05H40.94v2.2H29.2v2.38H25.3v-2.38H16.19v3.43h-3.9ZM7.71,178.17l.59-1.53c2.76,1.05,3.72.86,3.72-2.34a14,14,0,0,0-3-8.92,58.77,58.77,0,0,0,2.81-8.78H7.3l0,31.06H3.45l0-34.41,3.58,1.34h5l.81-.72,3.63,2a70.89,70.89,0,0,1-6,9.36c2.95,2.95,4.77,6.1,4.9,9C15.78,181.13,11.15,181.89,7.71,178.17Zm16.68-18.9a18.39,18.39,0,0,1,4.9,3.2l-1.9,2.29h3.26l.68-.67L34.69,166a28.94,28.94,0,0,1-3.27,4.68H39v2H17v-2H29.29a30.25,30.25,0,0,0,1.18-3.92H18.73v-2h7.93a46.28,46.28,0,0,0-3.45-4.35,29.84,29.84,0,0,1-10,6.3l-.77-1.33a29.13,29.13,0,0,0,12-13.27l4.44,1.53-.81,1.19c3.31,3.15,8,5.49,13.19,7L39,166.14c-4.31-1.62-8.89-5.44-11.93-9.93C26.21,157.26,25.3,158.31,24.39,159.27Zm16.14,25.39-3,2.91c-1.14-1.86-2.13-3.29-3.09-4.58a98.82,98.82,0,0,1-18.13,3.43L15,182.27c1.36,0,2.81.1,4.31,0a37.31,37.31,0,0,0,2.94-5.2H16.05l.09-2.06H40.08v2.06H26.75a39.82,39.82,0,0,1-5.26,5.2c4-.1,8.07-.33,11.79-.76-.77-1-1.54-1.82-2.36-2.72l1-1.2A34.25,34.25,0,0,1,40.53,184.66Z"/><path class="cls-1" d="M6.94,247.61H2.86V226.52h16v20.85h-4v-4H6.94Zm7.93-6.35v-12.6H6.94v12.6Zm-5.76-20h23.4V205.56H9.11Zm4.17-2.15V207.71H28.34v11.41Zm9.84,28.54V226.52h16v20.85H35.05v-4H27.11v4.25Zm4-19v12.6h7.94v-12.6Z"/><path class="cls-1" d="M14.51,283.5h-8v3.87H2.67V256.44H14.51Zm-3.72-24.91H6.48v22.76h4.31Zm31.29,29.35-3.31,4.34c-3-2.38-7.62-8.25-9.71-16.22v19.09H24.89V276.68a41.63,41.63,0,0,1-13.78,16l-.95-1.44c5.75-5,9.79-11.45,12.87-18.75H15.42v-2.15h9.47v-7.92h-8v-2.15h8v-8.83h4.17v8.83h8.3v2.15h-8.3v7.92H39.45v2.15h-9.8A31.08,31.08,0,0,0,42.08,287.94Z"/><path class="cls-1" d="M41.85,336.29l-2.58,4.87c-4.36-1.53-11.07-6.16-16.42-13.89v16H18.68V327.79C14,334.24,7.57,338.53.73,341.54L0,340c5.35-3,12.15-8.68,16-14.46H6.26V310.61H18.68V306.7H2.4v-2.39H18.68v-5.68h4.17v5.68H39.72v2.39H22.85v3.91H35.32v14.84H23.76C29.74,331.47,35.91,334.86,41.85,336.29ZM10.29,316.86h8.39v-4.15H10.29Zm0,6.49h8.39V319H10.29Zm12.56-10.64v4.15h8.48v-4.15Zm8.48,6.21H22.85v4.43h8.48Z"/><path class="cls-1" d="M1.31,357.24a44.64,44.64,0,0,1,8.57,5.68l-3.12,3.82c-2-2.86-4.49-5.87-6.35-8Zm7,11.89,1.54.66a138.72,138.72,0,0,1-4.58,18.9L.82,386.12C3.13,381.68,6,375.09,8.3,369.13Zm.9-13.37a78.4,78.4,0,0,0-5.39-8l1-1.38a32.86,32.86,0,0,1,7.79,6.06ZM37.09,371.7c-.23,3.92-.45,7-.68,9.45h4.22v2.15H36.18c-.09.62-.13,1.15-.22,1.62-1.05,7.4-5.94,7.69-11.7,2.53l.63-1.67c5.4,1.86,6.39,1.62,6.89-1.81,0-.19,0-.43.09-.67l-14.46.05c-.14.95-.32,1.86-.45,2.77l-4.17-.53c.77-4.34,1.49-8.83,2.13-13.89H11v-2.14h4.17c.41-3.2.82-6.69,1.18-10.55l21.35-.1-.5,10.65h4v2.14ZM11.15,361.49a50.53,50.53,0,0,0,5.35-15.61l4.31,1.24c-.54,1.72-1.22,3.49-1.95,5.21h22v2.14h-23a34.54,34.54,0,0,1-5.44,8.07ZM32.87,371.7H19c-.41,3.15-.82,6.35-1.27,9.45H32.15C32.42,378.38,32.69,375,32.87,371.7Zm-13.6-2.14H33c.18-3.49.32-6.69.41-8.55l-13.2.1C20,363.83,19.59,366.69,19.27,369.56ZM21,374.61l.59-1.57a39.25,39.25,0,0,1,9,3.63l-2.18,3.77C26.39,378.67,23.31,376.24,21,374.61Zm10-9-2.22,3.49c-1.82-1.72-4.67-4-6.85-5.73l.68-1.58A33.85,33.85,0,0,1,31.06,365.64Z"/></g></g></svg>