<svg xmlns="http://www.w3.org/2000/svg" viewBox="0 0 28.57 527.68"><defs><style>.cls-1{fill:#956134;}</style></defs><title>資產 30</title><g id="圖層_2" data-name="圖層 2"><g id="圖層_2-2" data-name="圖層 2"><path class="cls-1" d="M12.76,3V0l2.66.19c.48.06.75.19.75.41s-.21.45-.6.77V3H26.9V5.57H15.57V7.7h8.16V19.89H16.84a20.81,20.81,0,0,0,4.56,2.92,37.06,37.06,0,0,0,6.92,2.42L25.51,28a28.16,28.16,0,0,1-5.8-3,21,21,0,0,1-4.14-3.47v6.55H12.76V21.64a26.6,26.6,0,0,1-4.33,3.59A30.59,30.59,0,0,1,2.48,28L.12,25.46a37.06,37.06,0,0,0,7.35-2.87,21.79,21.79,0,0,0,3.87-2.7H4.84V7.7h7.92V5.57H1.42V3Zm0,9.7V10.18H7.56v2.48Zm0,2.36H7.56v2.39h5.2Zm2.81-2.36H21V10.18H15.57ZM21,15H15.57v2.39H21Z"/><path class="cls-1" d="M7,44.36l-1.75,2a35.72,35.72,0,0,0-4.75-3.5l1.91-2A25.73,25.73,0,0,1,7,44.36Zm.61,7.35A76.73,76.73,0,0,1,3.3,59.53c0,.64-.22,1-.58,1l-2.27-2a57.24,57.24,0,0,0,5.44-9ZM8,36.4l-1.75,2a33.21,33.21,0,0,0-4.39-3.5l1.91-2A23.57,23.57,0,0,1,8,36.4Zm7.26-3.82c.36.07.54.19.54.35s-.27.45-.82.61c-.3.6-.6,1.17-.9,1.75H27.15v2.48H12.61A53.91,53.91,0,0,1,9,42.64L6.62,41.36A29.9,29.9,0,0,0,12.76,32Zm10.58,7.67c0,2.67,0,5-.06,7h2.53V49.7H25.73c-.1,2.1-.19,3.66-.31,4.74h1.85v2.48H25a5.48,5.48,0,0,1-1.36,2.77c-.85.8-2.3,1.21-4.32,1.21L18.05,58c2.11,0,3.35-.23,3.78-.7a2.59,2.59,0,0,0,.3-.42h-11a1.68,1.68,0,0,0-.06.26H8.49c.61-2.39,1.18-4.87,1.7-7.48H7.44V47.22h3.2c.36-2.26.73-4.58,1-7ZM19,54.44a34.51,34.51,0,0,0-4.08-2.73L16.54,50a23.79,23.79,0,0,1,4.23,3l-1.33,1.49h3.35c.12-.89.24-2.48.34-4.74H12.79c-.34,1.66-.67,3.25-1,4.74Zm.43-7.22a26.81,26.81,0,0,0-3.81-2.48L17.23,43a24.63,24.63,0,0,1,4,2.73l-1.33,1.5h3.27c0-1.34,0-2.83.06-4.49H13.94c-.25,1.56-.46,3.06-.7,4.49Z"/><path class="cls-1" d="M12.94,72.32c0-.25,0-.47,0-.73V66.37A20.61,20.61,0,0,0,12.76,64l3,.25c.51,0,.79.16.79.38s-.25.67-.73,1v6c0,.26,0,.51,0,.73H27.15v2.74H15.84a23,23,0,0,0,4.44,8.69A20,20,0,0,0,28.2,89.6l-2.47,3a22.23,22.23,0,0,1-7.68-6.93,26.15,26.15,0,0,1-3.21-6.24c-.24.83-.48,1.56-.75,2.26A17.89,17.89,0,0,1,9,88.23a34.16,34.16,0,0,1-6.29,4.36L.24,90.24a33.91,33.91,0,0,0,5.9-3.6,16,16,0,0,0,4.74-5.25,19.52,19.52,0,0,0,1.88-6.33H1.3V72.32Z"/><path class="cls-1" d="M8.65,98.13c-1,.32-2.12.6-3.33.89v1.4h4v2.1h-4v1.62h4v2.13h-4v1.6H22.91v-1.6H19v-2.13h3.9v-1.62H19v-2.1h3.9V98.8h-4V96.44h6.62v11.43h2v6.23h-2.6v-3.85H3.42v3.85H.82v-6.23h1.9V96.31L4,97a19.25,19.25,0,0,0,2-.44,10.17,10.17,0,0,0,2.26-1l1.64,1.78a.88.88,0,0,1,.27.58c0,.19-.09.25-.24.25L9.25,98A2.51,2.51,0,0,0,8.65,98.13Zm11.21,13.46,1.36.89c.18.13.27.25.27.38s-.21.48-.6.73l-4.54,3.47h10.8v2.48H15.57v1.63a3.27,3.27,0,0,1-1.12,2.7c-.6.6-2.18.92-4.66.92l-1-2.73h2.72A1.33,1.33,0,0,0,13,120.69v-1.15H1.06v-2.48H13v-1.49l1.69.22,2-1.94H7v-2.26h11.7l.58-.22A1.07,1.07,0,0,1,19.86,111.59ZM17.77,96.76c.19.1.28.19.28.29,0,.25-.15.41-.46.51-.57.5-1.12,1-1.63,1.36l2,1.5-1.42,1.37c-.79-.64-1.52-1.21-2.21-1.72-.82.51-1.72,1.05-2.75,1.59l-1.3-1.37a18.85,18.85,0,0,0,2.39-1.4c-.79-.48-1.55-.92-2.27-1.33l1.27-1.25c.84.45,1.72,1,2.57,1.47a15.1,15.1,0,0,0,1.93-1.85Zm.13,6.11c.18.06.27.16.27.29s-.15.38-.46.47c-.57.51-1.11,1-1.6,1.34.58.45,1.15.92,1.73,1.4l-1.43,1.37c-.66-.57-1.27-1.12-1.87-1.62-.79.5-1.75,1-2.87,1.62l-1.27-1.37a20.07,20.07,0,0,0,2.57-1.5c-.85-.57-1.69-1.11-2.48-1.59l1.3-1.24c.91.54,1.81,1.12,2.69,1.72A22.05,22.05,0,0,0,16.29,102Z"/><path class="cls-1" d="M27.75,160.75v2.86H.57v-2.86Z"/><path class="cls-1" d="M14.87,185.76h11.7V190H24v-2h-9.1v1.59l7.8-.6.24,2.13-8,.61v.51c0,1.08.18,1.59.58,1.59H21a2.39,2.39,0,0,0,1.27-.29,3.88,3.88,0,0,0,.72-1.81l2.51.73a4,4,0,0,1-1.42,2.61,4.78,4.78,0,0,1-2.6.63H15.11c-1.81,0-2.72-.7-2.72-2.1V191.9l-5.89.44-.12-2.13,6-.44V188H5.2v7.32a37.35,37.35,0,0,1-.7,7.54,36.62,36.62,0,0,1-1.9,6.27L0,207.74a28.85,28.85,0,0,0,1.87-5.6,33.1,33.1,0,0,0,.73-6.84v-9.54h9.67v-5.48l2.39.19c.45.07.7.2.7.42s-.18.38-.49.63v.86H24v1.88h-9.1Zm8.38,11.42v5.73c0,.41.33.6,1,.6a.8.8,0,0,0,.73-.28,4.89,4.89,0,0,0,.33-1.69l2.12.35a6,6,0,0,1-.94,3.28,3.18,3.18,0,0,1-2.24.57c-1.57,0-2.51-.32-2.81-.86a2.77,2.77,0,0,1-.39-1.62v-3.85H19a14.83,14.83,0,0,1-.51,3.82A11,11,0,0,1,17,206a54.83,54.83,0,0,0,7.53.39h3.2l-1.18,2.73a74.22,74.22,0,0,1-9.16-.44,15.72,15.72,0,0,1-4.26-1.12,9.57,9.57,0,0,1-1.51-.86,17.14,17.14,0,0,1-5.38,2.8l-2-2.26A15,15,0,0,0,9.67,205a10.25,10.25,0,0,1-1.51-2.36c-.33.64-.66,1.24-1,1.75L5,202.91A20.42,20.42,0,0,0,7,199a28.09,28.09,0,0,0,1.48-5.18l2.48.86c.25.09.37.22.37.41s-.31.22-.85.35q-.18.85-.36,1.62h5.56q-.36,5.25-2.27,7.83a7.49,7.49,0,0,0,1.88.73,1.33,1.33,0,0,0,.45.13l-.88-.73a7.5,7.5,0,0,0,1.48-2.58,20.72,20.72,0,0,0,.4-5.25Zm-11.82,6.2a8.68,8.68,0,0,0,1.66-4.23H9.55c-.12.35-.21.67-.3.93A14.67,14.67,0,0,0,11.43,203.38Z"/><path class="cls-1" d="M9.31,217.45v2.48H.57v-2.48ZM9,230.24v5.19a31.86,31.86,0,0,0,4.2-1.56,11.87,11.87,0,0,0,1.18-.64H9.92v-2.35h3.65V229.6H10.73v-2.1h2.84v-1.24H10V224h3.53v-1.11H10.28v-5.35H18v5.35H16.05V224h5v-1.11H19v-5.35h7.77v5.35H23.49V224h3.66v2.23H23.49v1.24h3.08v2.1H23.49v1.28h4.26v2.35h-8a12,12,0,0,0,2,2.42A2.05,2.05,0,0,0,22,236a28.83,28.83,0,0,0,3.56-2.61l1.64,1.72a.65.65,0,0,1,.15.38c0,.19-.24.25-.7.25L24,237.24a4.87,4.87,0,0,0,1,.48,14.67,14.67,0,0,0,3.63,1l-2,2.48a8.67,8.67,0,0,1-3-1.2,12.69,12.69,0,0,1-3.69-2.77,15.34,15.34,0,0,1-2.6-3.76,16.46,16.46,0,0,1-1.6,1.34v3.09c1.21-.2,2.39-.42,3.54-.67v2.1q-2.32.66-7.32,1.75a.78.78,0,0,1-.57.38c-.19,0-.31-.16-.31-.41l-.54-2.45c.94-.1,1.84-.2,2.72-.32v-1.94c-.88.44-1.9.92-3.05,1.36L9,236.6v4.08H6.5v-1.37H3.42v1.87H.94V230.24Zm-.24-8.46v2.38H1.06v-2.38Zm0,4.23v2.35H1.06V226Zm-.25-12.67v2.36H1.18v-2.36ZM6.5,237v-4.23H3.42V237Zm13.36-24.4c.42.06.67.19.67.41s-.16.35-.46.64v.6h7.68v2.23h-18V214.2h7.68v-1.88Zm-4.29,7.13H12.64v1.11h2.93ZM21,226.26h-5v1.24h5Zm0,3.34h-5v1.28h5Zm3.42-9.92H21.37v1.11h3.06Z"/><path class="cls-1" d="M15.87,244.78c.51,0,.79.13.79.38s-.25.67-.73,1v1.75a43.9,43.9,0,0,1-.45,6.58,30,30,0,0,0,3.84,7.58,36.2,36.2,0,0,0,8.76,8.33l-3.41,2.23a48.5,48.5,0,0,1-7.92-9.32,35.92,35.92,0,0,1-2.24-4.52c-.12.35-.21.67-.3.92a20.74,20.74,0,0,1-5.05,7.7,33,33,0,0,1-6.23,5.09L.45,270.14a35.89,35.89,0,0,0,5.87-4.26A18.82,18.82,0,0,0,11,259.61a29.61,29.61,0,0,0,2.09-11.71v-1a20,20,0,0,0-.21-2.35Z"/><path class="cls-1" d="M4.72,281v-5.22l2.81.35c.3.06.48.19.48.38s-.24.48-.69.76V281h3.41v2.61H7.32v5.79c1.08-.64,2.2-1.34,3.29-2.07V290l-3.29,2.16v9.39a3.61,3.61,0,0,1-.91,2.7c-.52.57-1.78.89-3.81.89l-1.06-2.7h2c.69,0,1.09-.48,1.15-1.37v-7.19l-2.24,1.46c-.3.67-.61,1-.85,1s-.3-.16-.42-.54l-1-2.8c1.51-.64,3-1.37,4.48-2.17v-7.28H.82V281Zm15.78-4.43c.24.1.39.26.39.45s-.33.22-.94.35c-.09.19-.18.32-.24.45a27.56,27.56,0,0,0,4.05,4.07,31,31,0,0,0,4.56,3l-2,2.1a27.41,27.41,0,0,1-2.84-2v1.5H19.83v3h6.5v2.48h-6.5v2.64h5.32v10.57H22.43v-1h-7.8v1H11.91V294.51h5.32v-2.64H10.85v-2.48h6.38v-3H13.81v-1.11c-.78.66-1.57,1.27-2.35,1.84L9.1,285.54a24.43,24.43,0,0,0,5.14-4.26A22.09,22.09,0,0,0,18,275.61Zm1.93,25.17v-4.83h-7.8v4.83Zm0-17.66a5.41,5.41,0,0,1-.6-.54,24.62,24.62,0,0,1-3.27-3.69,19.76,19.76,0,0,1-2.42,3.25,12.9,12.9,0,0,1-1,1Z"/><path class="cls-1" d="M27.27,309.78v2.74H15.93a36.71,36.71,0,0,1-2.39,5.28l2,.16c.51,0,.78.16.78.42s-.21.47-.6.86v17.4H12.76V319.11a17.23,17.23,0,0,1-1.24,1.65,34.43,34.43,0,0,1-8.47,6.81l-2.72-2a29.76,29.76,0,0,0,8.41-6.14,25,25,0,0,0,4.17-6.91H1.18v-2.74Zm.24,17-2.6,1.88a50.47,50.47,0,0,0-6.86-9.84l2-1.75A58.47,58.47,0,0,1,27.51,326.81Z"/><path class="cls-1" d="M9.76,341.09c.25.13.4.26.4.39,0,.31-.24.57-.73.76a30.64,30.64,0,0,1-3.38,4.1,42,42,0,0,1-3.57,3.22l-1.91-2a26.32,26.32,0,0,0,3.87-3.5,26.55,26.55,0,0,0,3-4.07Zm1.39,6.72c.28.13.43.25.43.38,0,.32-.24.57-.73.73-1.15,1.53-2.2,2.83-3.17,3.88v15.66H5v-13c-.79.7-1.6,1.37-2.48,2.07l-1.91-2a30.34,30.34,0,0,0,4.69-4.11,28.74,28.74,0,0,0,3.6-4.71ZM27.51,353v2.61h-3.3v2h4v2.74h-4v4.71c0,1.59-.42,2.57-1.24,3-.6.32-2.29.51-5,.51L17.11,366a34.73,34.73,0,0,0,3.78-.1.73.73,0,0,0,.6-.79v-4.71H8.74v-2.74H21.49v-2H10.85V353Zm-11.1,12.18-2,1.88a25.47,25.47,0,0,0-4.6-4.1l1.88-1.88A31.32,31.32,0,0,1,16.41,365.21ZM26.69,341v10.34H12V341Zm-2.6,4v-1.59H14.63v1.59Zm0,2.26H14.63v1.72h9.46Z"/><path class="cls-1" d="M13,375v-3.5l2.48.23c.48.06.72.19.72.41s-.18.41-.48.73V375h9.82v2.61H15.69v4.24H27.63v2.61H15.69v4.1H26.45v2.61H15.69v4.84a41.81,41.81,0,0,0,9.46.85,25.42,25.42,0,0,0,3.17-.25l-.93,3.25c-5.93,0-10.46-.51-13.61-1.5a20.43,20.43,0,0,1-7-3.91,10.12,10.12,0,0,1-.54,1.17,20,20,0,0,1-3.36,4.62L.24,398.4a14.11,14.11,0,0,0,3.84-5,30,30,0,0,0,2.06-6.65l2.63.67c.36.13.54.26.54.45s-.21.44-.57.63c-.4,1.43-.76,2.68-1.12,3.76a26.85,26.85,0,0,0,5.35,3V384.5H1.06v-2.61H13v-4.24H3.17V375Z"/><path class="cls-1" d="M27.27,417.81v2.61H18.41V428c0,.83.3,1.24.94,1.24h4a1.43,1.43,0,0,0,1.21-.51,8.54,8.54,0,0,0,.69-2.86l2.72.89c-.3,2.1-.78,3.44-1.39,4.07a3.36,3.36,0,0,1-2.51,1H18.77c-2.05,0-3.08-.79-3.08-2.35v-9.07h-4c-.24,3.05-.88,5.31-1.94,6.78-1.45,2-3.9,3.62-7.31,4.9L.33,429.74c3.57-1.24,6-2.64,7.2-4.17A9.26,9.26,0,0,0,9,420.42h-8v-2.61Zm-11.73-14.1c.48.07.75.19.75.42s-.21.41-.6.73v2.26H26.78v6.81H24.09v-4.2H4.23v4.2H1.54v-6.81H12.88v-3.63Zm6.19,8.63v2.48H6.38v-2.48Z"/><path class="cls-1" d="M9.49,436.45c.27.07.43.2.43.35s-.19.45-.49.64l-1.6,2.61h4.93V462.8h-2.6v-2H3.78v2.1H1.18V440.05h3.9l2.11-4.23Zm.67,12.29v-6.21H3.78v6.21Zm0,9.57v-7.09H3.78v7.09ZM20,436.2c.3.1.49.22.49.35s-.1.25-.25.38-.63,1-1.18,2.74c-.06.16-.12.28-.15.38h8.41c0,9.29-.25,15.11-.73,17.53-.3,2.36-.94,3.92-1.9,4.81s-2.81,1.4-5.29,1.4l-1.3-2.87c2.69,0,4.29-.25,4.8-.82S23.7,458.66,24,457s.61-6.59.67-14.48H17.9c-.73,1.66-1.49,3.22-2.33,4.71L13,445.75a40,40,0,0,0,4.62-10.44Zm2.36,17.28-2.12,2a31,31,0,0,0-4.83-5l1.87-1.88A33.44,33.44,0,0,1,22.31,453.48Z"/><path class="cls-1" d="M15.75,467.48c.51,0,.79.16.79.41s-.22.48-.61.86V489.4h7.68V473.49l2.66.19c.48.07.75.19.75.42s-.21.41-.57.73v20.65H23.61v-3.25H4.47v3.25H1.63v-22l2.69.19c.49.07.76.19.76.42s-.21.41-.61.73V489.4H13V467.25Z"/><path class="cls-1" d="M3.78,506.65v-7.83l2.48.22c.45.07.69.19.69.42a1.41,1.41,0,0,1-.45.73v6.46H9.43v2.64H6.5v8.11c.79-.19,1.57-.41,2.36-.67v2.61c-1.45.58-3.75,1.31-6.86,2.23-.22.45-.4.64-.58.64s-.36-.16-.39-.51l-.7-3.12A34.45,34.45,0,0,0,3.78,518v-8.72H.7v-2.64Zm9,3.5h5.89a56.32,56.32,0,0,1-.42,9,3.86,3.86,0,0,1-1.06,2.48,4.64,4.64,0,0,1-3,.73L13,519.72c1.33,0,2.14-.12,2.42-.41a2.46,2.46,0,0,0,.57-1.4,35.11,35.11,0,0,0,.33-5.41H12.76v.26a28.4,28.4,0,0,1-1.12,8.14,34.68,34.68,0,0,1-3.15,6.78l-2.6-1.37A24.71,24.71,0,0,0,9,520.2a25.94,25.94,0,0,0,1.15-7.44v-8.82h9.49c-.06-1.65-.06-3.4-.06-5.25l2.48.51c.3.06.48.19.48.38a1.48,1.48,0,0,1-.36.86c0,1.24,0,2.42,0,3.5H28v2.48H22.28a91.12,91.12,0,0,0,.75,9.36,29.67,29.67,0,0,0,1.88-6.14l2.42.76c.27.1.42.22.42.35a1.07,1.07,0,0,1-.48.76,30.17,30.17,0,0,1-3.42,8.41,18.84,18.84,0,0,0,.91,2.8c.33.76.6,1.11.84,1.11s.49-1,.85-3l2.12,1.84c-1.09,3.15-2.06,4.74-2.84,4.74s-1.43-.82-2.39-2.48a15.75,15.75,0,0,1-1.21-2.7,29.12,29.12,0,0,1-5.72,4.93l-2.14-1.75a25.29,25.29,0,0,0,4.32-3.28,17.35,17.35,0,0,0,2.6-3,29.75,29.75,0,0,1-.72-3.6,75.49,75.49,0,0,1-.76-9.1h-7Zm14.75-8.09-1.78,1.63a18.31,18.31,0,0,0-2.6-2.74l1.66-1.49A24.14,24.14,0,0,1,27.51,502.06Z"/></g></g></svg>