<svg xmlns="http://www.w3.org/2000/svg" viewBox="0 0 77.21 189.37"><defs><style>.cls-1{fill:#956134;}</style></defs><title>資產 31</title><g id="圖層_2" data-name="圖層 2"><g id="圖層_2-2" data-name="圖層 2"><path class="cls-1" d="M59,1.47v9.76H56.42v3.39h2.74v2.24H56.42v7.2c1.16-.28,2.31-.6,3.47-1v2.28c-2.13.7-5.45,1.56-10,2.72-.21.32-.42.51-.6.51s-.28-.16-.28-.42l-.54-2.59c.36,0,.73-.1,1.06-.16V15l2.22.19c.42,0,.64.13.64.32s-.18.35-.49.61V25c.7-.12,1.37-.25,2-.38V11.23H50.61V1.47Zm-2.49,2.4H53.11v5h3.43Zm9.21,8.9c.28.09.43.22.43.35s-.09.22-.24.35-.55.51-1,1.28h3.53l1.4-2.53,1.85.42c.34.06.52.16.52.35s-.18.48-.49.74l-.73,1h5.14v2H71v1.88h4.62v1.86H71v1.76h4.62V24.1H71v1.76h5.48V28h-12v.86H62V19c-.51.64-1,1.21-1.55,1.76l-2.25-1.38A24.05,24.05,0,0,0,63.69,12ZM67.82,1.25v10H65.45V9.47c-.33.26-.64.48-.91.67a14.83,14.83,0,0,1-3.35,1.73l-1.43-1.76A14.24,14.24,0,0,0,63.11,8.9a14.42,14.42,0,0,0,2.34-1.57V5.12a5.82,5.82,0,0,1-.88.77,12.58,12.58,0,0,1-2.92,1.73L60.22,5.86a11.5,11.5,0,0,0,2.92-1.22,8.5,8.5,0,0,0,1.58-1.15H60.59V1.25Zm.73,15.49h-4v1.88h4Zm0,3.74h-4v1.76h4Zm0,5.38V24.1h-4v1.76ZM76,1.25V11.36H73.66v-2c-.31.22-.55.41-.76.54a14,14,0,0,1-3.16,1.57L68.31,9.73A14.68,14.68,0,0,0,71.5,8.67,17.45,17.45,0,0,0,73.66,7.3v-2c-.25.2-.46.39-.64.55a12.08,12.08,0,0,1-2.8,1.73L68.79,5.86a10.8,10.8,0,0,0,2.83-1.22,9.54,9.54,0,0,0,1.55-1.15H69.49V1.25Z"/><path class="cls-1" d="M62.29,32.51c.3.07.45.19.45.35s-.18.42-.48.61l-1,.9h11v8.48H55.6V44.1H76.39v2.14H55.6v1.5H75c0,5.12-.21,8.36-.57,9.67a3.74,3.74,0,0,1-1.55,2.65,8.63,8.63,0,0,1-4.29.8l-1.12-2.49H53V60H50.49V52.22l2.31.2c.43,0,.67.12.67.32s-.18.41-.49.73V56.1h5.36V50.75l2.4.19c.45.07.7.2.7.42s-.19.35-.49.64v4.1h5V52l2.31.16c.42,0,.67.13.67.32s-.19.45-.49.77V57.7a5.31,5.31,0,0,0,2.31-.36,2.29,2.29,0,0,0,.85-1.47A26,26,0,0,0,72.08,50H52.86V34.37h5.32l1.71-2.5ZM55.6,37.6H69.49V36.48H55.6Zm0,3.14H69.49V39.49H55.6Z"/><path class="cls-1" d="M54.9,79.61V76.09l2.4.23c.43.06.67.19.67.41s-.15.36-.46.64v2.24h4.38v2.63H57.51v.13a10.8,10.8,0,0,0,1.8,1.79,15.73,15.73,0,0,0,2.95,1.69l-2.13,2.37A11.94,11.94,0,0,1,57.51,86v6.27H54.9V86.14a7.08,7.08,0,0,1-.58.83A23.35,23.35,0,0,1,51,90.85L48.36,89a23,23,0,0,0,6.54-6.53v-.22H49.31V79.61ZM61.44,67v-3.1l2.4.19c.42.07.67.19.67.42s-.19.38-.49.64V67H75V69.6H64.39A25.89,25.89,0,0,0,69.58,72a54.24,54.24,0,0,0,7.06,1.7L73.9,76.35a33.32,33.32,0,0,1-6-2.24A20.88,20.88,0,0,1,64,71.74v4.61H61.44V71.71a34.47,34.47,0,0,1-4.29,2.59,34.26,34.26,0,0,1-6.17,2L48.73,74a45.45,45.45,0,0,0,7.6-2.14,23,23,0,0,0,4.32-2.24h-10V67Zm6.75,12.64V76.09l2.4.23c.45.06.7.19.7.41s-.19.36-.49.64v2.24h5.35v2.63H70.8v.16a19.42,19.42,0,0,0,2.65,3.68A20.41,20.41,0,0,0,77.21,89l-2.12,2.37a18.5,18.5,0,0,1-3.59-3.78,8.7,8.7,0,0,1-.7-1v5.53H68.19V85.57c-.43.64-.83,1.18-1.22,1.69a27.82,27.82,0,0,1-3.89,4.23L60.46,89.6A23.81,23.81,0,0,0,64.93,86,31.63,31.63,0,0,0,68,82.24H63.44V79.61Z"/><path class="cls-1" d="M54.41,103.23V96.09l2.41.23c.45.06.69.19.69.41s-.18.36-.48.64v5.86h4.41v2.62H57.27a24.28,24.28,0,0,0,4.87,7.52L60,115a26.75,26.75,0,0,1-3-4.64V124H54.41V112.45a9.34,9.34,0,0,0-.45,1,36.51,36.51,0,0,1-3.22,5.31l-2.25-1.5A27.87,27.87,0,0,0,52,111.74a33.93,33.93,0,0,0,2.16-5.89H49.31v-2.62Zm13.41,0V96.09l2.43.23c.43.06.67.19.67.41s-.18.36-.48.64v5.86h5v2.62H70.65c0,.07-.06.07-.12.07A40.33,40.33,0,0,0,77,118.24L74.6,120a49.53,49.53,0,0,1-4.16-8v12H67.82V112c-.42.89-.82,1.69-1.25,2.46a35.14,35.14,0,0,1-4.19,6L60.13,119a30.09,30.09,0,0,0,4.56-6.24,34.45,34.45,0,0,0,2.83-6.88H63.2v-2.62Z"/><path class="cls-1" d="M61.13,147.23a12.73,12.73,0,0,0,.4-2.24l2.86.32c.39,0,.6.13.6.29s-.24.54-.73.77c-.09.32-.18.6-.24.86H75.66v2.5H65.27a11.23,11.23,0,0,0,3.55,2.65,29.52,29.52,0,0,0,8,2.37l-2.37,2.62a27.29,27.29,0,0,1-7.54-3.07,14.73,14.73,0,0,1-4.07-4,4.37,4.37,0,0,1-.37.64,12.38,12.38,0,0,1-5.11,4.22,33.51,33.51,0,0,1-6.9,2.34l-1.76-2.37c3.71-.73,6.35-1.57,7.9-2.53A8.69,8.69,0,0,0,60,149.73H49.91v-2.5Zm-1.06-14.88H65.6A15.47,15.47,0,0,0,67.94,128l2.65.64c.36.06.57.19.57.35s-.27.54-.82.74A19.66,19.66,0,0,1,69,132.35h6.68v2.5H64.26v2.4H74v2.36H64.26v2.5h11.4v2.5H49.91v-2.5H61.53v-2.5H51.34v-2.36H61.53v-2.4H49.91v-2.5H57c-.79-1.09-1.58-2.14-2.43-3.23l2.37-1.25C58.09,129.41,59.16,130.88,60.07,132.35Z"/><path class="cls-1" d="M57.18,162.56c-1,.32-2.13.6-3.34.89v1.41h4V167h-4v1.63h4v2.15h-4v1.6H71.53v-1.6H67.61V168.6h3.92V167H67.61v-2.11h3.92v-1.63h-4v-2.37h6.65v11.49h2v6.27H73.54v-3.87H51.92v3.87H49.31v-6.27h1.91V160.73l1.25.67a19.43,19.43,0,0,0,2-.44,10.82,10.82,0,0,0,2.28-1l1.64,1.79a.84.84,0,0,1,.27.57c0,.2-.09.26-.24.26l-.67-.19A2.58,2.58,0,0,0,57.18,162.56Zm11.28,13.53,1.37.9c.18.13.27.25.27.38s-.21.48-.61.74l-4.56,3.49H75.79v2.49H64.14v1.63A3.28,3.28,0,0,1,63,188.44c-.61.61-2.19.93-4.68.93l-1.07-2.75H60a1.34,1.34,0,0,0,1.52-1.38v-1.15h-12V181.6h12v-1.51l1.7.23,2-2H55.48v-2.27H67.24l.58-.22A1.1,1.1,0,0,1,68.46,176.09Zm-2.1-14.91c.18.1.27.19.27.29,0,.25-.15.41-.45.51-.58.51-1.13,1-1.64,1.38l2,1.5-1.42,1.38c-.8-.64-1.53-1.22-2.22-1.73-.83.51-1.74,1.05-2.77,1.6l-1.31-1.38a19.52,19.52,0,0,0,2.4-1.41c-.79-.48-1.55-.92-2.28-1.34l1.28-1.25c.85.45,1.73,1,2.58,1.47a15.21,15.21,0,0,0,2-1.85Zm.12,6.14c.19.07.28.16.28.29s-.16.39-.46.48c-.58.51-1.12,1-1.61,1.35.58.44,1.15.92,1.73,1.4L65,172.22c-.67-.58-1.27-1.12-1.88-1.63-.79.51-1.76,1-2.89,1.63l-1.28-1.38a19.72,19.72,0,0,0,2.59-1.5c-.85-.58-1.7-1.12-2.5-1.6l1.31-1.25c.91.55,1.83,1.12,2.71,1.73a22.31,22.31,0,0,0,1.82-1.73Z"/><path class="cls-1" d="M9.85,1.09c.24.13.37.25.37.38,0,.29-.25.51-.7.64l0,0a25,25,0,0,0,5.25,5.22L12.83,9.12a3.41,3.41,0,0,1-.61-.58V11H9V14.5h4.5V17H9v8.07c1.46-.2,2.89-.42,4.29-.71v2.27c-2.28.48-5.84,1.16-10.71,2-.21.32-.39.51-.57.51S1.7,29,1.7,28.67L1.06,26c1.83-.12,3.65-.32,5.48-.57V17h-5V14.5h5V11H3.34V9.66c-.48.48-1,1-1.55,1.44L0,9.25A33.25,33.25,0,0,0,4.38,4.93,33.57,33.57,0,0,0,7.72,0ZM5.59,23.49l-2,1.25c-.64-1.67-1.34-3.33-2.13-5l2.13-1.12C4.32,20.29,5,21.89,5.59,23.49Zm6.57-15A33.32,33.32,0,0,1,8.24,4,29.48,29.48,0,0,1,5.78,7.17c-.43.45-.82.89-1.25,1.31ZM13.5,19.62c.24.12.39.25.39.38a.69.69,0,0,1-.45.61L11.52,24l-1.79-.9,2-4.35ZM27,1.73V15.1H22.56a24.42,24.42,0,0,0,1,3.94,30.3,30.3,0,0,0,3.07-2.82l1.73,1.86a.62.62,0,0,1,.19.42c0,.19-.25.25-.73.25-1.1.8-2.25,1.57-3.41,2.34a1.64,1.64,0,0,0,.24.41,18.55,18.55,0,0,0,4.47,5.6l-2.49,2a35.59,35.59,0,0,1-3.1-4.32,22.06,22.06,0,0,1-2.07-4.58,29.94,29.94,0,0,1-1.21-5.12H17.69v10a37.67,37.67,0,0,0,4.41-1.38V26c-1.52.64-3.86,1.54-7,2.63-.21.32-.4.51-.58.51s-.33-.16-.33-.45L13.53,26a14,14,0,0,0,1.67-.32V1.73Zm-2.5,5.5V4.1H17.69V7.23Zm0,5.51V9.6H17.69v3.14Z"/><path class="cls-1" d="M4.89,51.14c.22.06.34.16.34.35a1.09,1.09,0,0,1-.49.73,43.29,43.29,0,0,1-1.76,7L.61,58.37A20,20,0,0,0,1.7,55.3a42.42,42.42,0,0,0,.91-4.8ZM8.73,33.06c.27.15.42.28.42.41a.76.76,0,0,1-.49.64L5.11,39c.67.57,1.3,1.18,1.94,1.76L10.34,36l1.94,1.34a.68.68,0,0,1,.31.52c0,.19-.22.32-.58.38L6.08,46c1.61-.16,3.19-.35,4.74-.6-.24-.74-.48-1.44-.73-2.15l2.37-.48a34.18,34.18,0,0,1,1.8,6.11l-2.37.52c-.16-.64-.31-1.25-.43-1.83l-3,.51V61.12H5.93V48.45c-1.16.19-2.4.35-3.68.54-.18.32-.4.48-.58.48s-.27-.13-.27-.41L.82,46.5l2.31-.2,2.4-3.42c-1.7-1.6-3.22-3-4.59-4.13l1.43-2c.31.25.64.51.94.73L6.78,32ZM12.5,54.91a19.65,19.65,0,0,0,1.55-3.68,31.24,31.24,0,0,0,1.39-9.5V36.22h-2V33.86h9.73l.69-.39a1.33,1.33,0,0,1,.73.26l1.49,1c.19.13.28.26.28.38,0,.32-.25.61-.7.9L23.5,42.62h2.25c.21-.16.33-.25.4-.25a.83.83,0,0,1,.54.25L28,43.87a.63.63,0,0,1,.24.48c0,.23-.3.48-.85.77-1.09,4.64-2.34,8-3.74,10.05l-.27.38a8.42,8.42,0,0,0,1.15,1,11.68,11.68,0,0,0,4.17,2l-2.13,2.5a16.1,16.1,0,0,1-4.26-3,8.51,8.51,0,0,1-.6-.64,18.8,18.8,0,0,1-5.48,3.62l-1.64-2.37a15.81,15.81,0,0,0,4-1.89,11.24,11.24,0,0,0,1.61-1.31,11.76,11.76,0,0,1-1.07-1.79A19.42,19.42,0,0,1,17.33,49c-.18.93-.4,1.83-.64,2.66A24.68,24.68,0,0,1,12.59,60L10,58.62a23.59,23.59,0,0,0,2.13-3L10.34,56a54.92,54.92,0,0,0-1.19-5.38l2.25-.51A39.89,39.89,0,0,1,12.5,54.91Zm8.32-12.29L23,36.22H18.06v5.51c0,.32,0,.61,0,.89Zm-1.39,5.6a16.34,16.34,0,0,0,1.76,4.39,4.4,4.4,0,0,0,.61,1l.54-1a28.8,28.8,0,0,0,2.44-7.46h-6A16.25,16.25,0,0,0,19.43,48.22Z"/><path class="cls-1" d="M8.36,65.12c.27.13.43.22.43.35s-.16.38-.46.51c-.12.26-.24.45-.33.64h7.93V69H11.34c-.06,1-.12,1.86-.24,2.62h6.35v2.5H11.67a11.55,11.55,0,0,0,1.92,1.7,9.66,9.66,0,0,0,2.8,1.31l-2,2.49a12.62,12.62,0,0,1-2.83-2.08,15.86,15.86,0,0,1-1.61-1.79c-.09.16-.18.29-.24.42a12.89,12.89,0,0,1-6.14,5.09L1.55,79c3-1.28,4.93-2.72,6-4.35.09-.16.18-.32.27-.51H2v-2.5H3.89L2.13,70.49a27,27,0,0,0,4.28-6.4ZM8.76,69H6.57a26,26,0,0,1-2,2.62h4C8.63,70.85,8.69,70,8.76,69Zm15.1,11.1V93H21.25V91.87H9.39v1.25H6.78v-13Zm-2.61,4.77V82.62H9.39v2.24Zm0,4.51V87.1H9.39v2.27Zm6.08-22.14V78.75H18.18V67.23Zm-2.49,2.5H20.67v6.49h4.17Z"/><path class="cls-1" d="M6,119.49c.3.12.45.25.45.38s-.18.35-.48.48a18.94,18.94,0,0,1-3.07,4.38L.73,123.36A19.85,19.85,0,0,0,4,118.49ZM6.9,97.85V96l2.31.16c.43,0,.64.13.64.32a1.32,1.32,0,0,1-.46.77v.6h4.87V100H9.39v1.25h4.14v2H9.39v1.28c1.71-.13,3.41-.26,5.11-.42V106c-1.34.19-3,.39-5.11.58v1.79H20.55v-1.6H15.2v-2.14h5.35v-1.38H16.14v-2h4.41V100H15.69V97.85h4.86V96l2.31.16c.43,0,.67.13.67.32s-.18.45-.49.77v.6h4.5V100H23v1.25h4.05v2H23v1.38h4.87v2.14H23v1.6h3v3.39h2.25v2.11H26v3.62H15.66a29.48,29.48,0,0,1,2.76,2.88l-2,1.38a18.89,18.89,0,0,0-2.86-3.36l1-.9H3.8v-2.11H23.41v-1.51H1.19v-2.11H23.41v-1.25H3.8v-2.14H6.9v-1.54c-1.37.13-2.83.29-4.41.42-.18.26-.33.38-.45.38s-.25-.12-.28-.38L1.31,105c1.88-.06,3.74-.16,5.59-.29v-1.47H2.49v-2H6.9V100H1.67V97.85ZM11,118.27c.37.06.55.22.55.48a1.06,1.06,0,0,1-.51.77,1,1,0,0,0-.43,1,4.09,4.09,0,0,0,.33,2,1.59,1.59,0,0,0,1.43.54h6.2a2.9,2.9,0,0,0,1.8-.48c.42-.25.76-1.15,1-2.62L23.74,121a7,7,0,0,1-1.61,3.52,3.16,3.16,0,0,1-2.07.74H11.4a3,3,0,0,1-2.55-1.16,4.91,4.91,0,0,1-.76-3v-3.27Zm18.12,4.35-2.25,1.6a23.93,23.93,0,0,0-3.8-4.73l1.8-1.51A27.38,27.38,0,0,1,29.09,122.62Z"/><path class="cls-1" d="M17,130.24v-1.76l2.5.22c.45,0,.7.16.7.42a1.41,1.41,0,0,1-.46.73v.39H26v4.25h2.71V137H26v4.26H19.73v2h6.63v2.5H19.73v2h7.36v2.63H19.73v3.52c1.61.06,3.44.09,5.44.09.91,0,2.1,0,3.56-.13L27.42,157a116.39,116.39,0,0,1-12.28-.51,24.88,24.88,0,0,1-5.75-1.22,14.31,14.31,0,0,1-3-1.5,13.41,13.41,0,0,1-3.67,3.61l-2-2.27a10,10,0,0,0,3.5-3.17,19.67,19.67,0,0,1-3-4.7l2.15-.86a27,27,0,0,0,2.25,3.1A24,24,0,0,0,7,142.11H4.53l-1,2.11-2.37-.86,4.65-10.24H1.31v-2.63h5.1l.73-.25a1.22,1.22,0,0,1,.7.25l1.49,1a.61.61,0,0,1,.31.42c0,.29-.25.58-.73.86l-3.16,6.76H9.64c-.19,5.12-.76,8.92-1.74,11.36a3.79,3.79,0,0,1-.21.48,12.16,12.16,0,0,0,4.5,1.82,26.07,26.07,0,0,0,4.8.61v-3.39H9.64v-2.63H17v-2H10.58v-2.5H17v-2H11.28v-2.5H17V137H8.79v-2.5H17v-1.76H11.28v-2.49Zm2.74,4.25h3.68v-1.76H19.73Zm0,4.26h3.68V137H19.73Z"/><path class="cls-1" d="M7.69,160.92c.34.07.52.16.52.32s-.21.42-.61.61c-.15.32-.3.64-.43.9h7.21V165H10.73a24.29,24.29,0,0,1,1,2.88l-2.38.48A23.52,23.52,0,0,0,8.09,165H5.87a32.65,32.65,0,0,1-2.53,3.49l-2.28-1.25a22.53,22.53,0,0,0,4.29-6.88Zm5.63,18.82v-2.62l2.4.22c.42,0,.67.16.67.38s-.16.39-.46.64v1.38h12v2.37H17.54a19.74,19.74,0,0,0,4.32,2.4,46.13,46.13,0,0,0,6.53,2l-2.73,2.63a32.39,32.39,0,0,1-5.5-2.53,20.06,20.06,0,0,1-4.23-3.23v5.76H13.32v-5.41A24.5,24.5,0,0,1,9,186.88a30.4,30.4,0,0,1-5.63,2.24l-2.28-2.37a39.36,39.36,0,0,0,7-2.37,19.77,19.77,0,0,0,3.8-2.27H1.55v-2.37Zm-.61-10.88v2.37H8.66v4.38c1.37-.09,2.71-.22,4.05-.38v2.14c-2.07.32-5.29.74-9.73,1.25a.8.8,0,0,1-.61.35c-.18,0-.27-.13-.27-.38l-.55-2.5c1.52-.06,3-.13,4.5-.25v-4.61H2.49v-2.37Zm11-.13v5.89c0,.58.37.86,1.1.86a1.22,1.22,0,0,0,.91-.28,4.55,4.55,0,0,0,.4-1.73l2.24.38a5.8,5.8,0,0,1-1,3.3,3.91,3.91,0,0,1-2.52.57c-1.58,0-2.53-.32-2.83-.86a3,3,0,0,1-.39-1.63V171H19.46a8.64,8.64,0,0,1-.4,2.27c-.06.2-.15.39-.21.55l1.46,1.05-1.55,1.76c-.46-.32-.88-.64-1.31-1A8.85,8.85,0,0,1,15,177.12L13,175a5.67,5.67,0,0,0,2.31-.86c-.55-.35-1-.67-1.49-1l1.31-1.76,1.73,1a6.79,6.79,0,0,0,.37-1.44H13.65v-2.24Zm-4.31-7.81c.33.07.51.16.51.32s-.21.42-.57.61c-.16.32-.31.64-.43.9h8.48V165H23a21,21,0,0,1,.91,2.88l-2.37.48A32.23,32.23,0,0,0,20.34,165H17.78a40.88,40.88,0,0,1-2.34,3.49l-2.25-1.25a22.69,22.69,0,0,0,3.93-6.88Z"/></g></g></svg>