<svg xmlns="http://www.w3.org/2000/svg" viewBox="0 0 41.59 530.43"><defs><style>.cls-1{fill:#231815;}</style></defs><title>資產 32</title><g id="圖層_2" data-name="圖層 2"><g id="圖層_2-2" data-name="圖層 2"><path class="cls-1" d="M40.67,29.09v3.12H.59V29.09ZM37.48,0V2.88H3.78V0Z"/><path class="cls-1" d="M.59,61.1V58.46h18V41.18h4.38V58.46h18V61.1h-18V85.24H18.56V61.1Z"/><path class="cls-1" d="M40.76,117.69v2.4H24.81v13.73H20.52V120.09H.87v-2.4H8.21V105.12H20.52V97.58H11.26a42.41,42.41,0,0,1-8.07,10.47L2,106.8c3.69-4.9,6.47-12,7.79-18.58l4.88,1.49a43.12,43.12,0,0,1-2.23,5.57H37.89v2.3H24.81v7.54H36.66v2.16H24.81v10.41ZM20.52,107.28H12.31v10.41h8.21Z"/><path class="cls-1" d="M6.57,156.48c-2-2.5-4.66-5.28-6.57-7.4l.87-1.48a48.59,48.59,0,0,1,8.43,5.18Zm2.73,2.68c-.86,5.43-2.92,16-4.6,20.64L.18,177.64c2.56-4.84,5.7-13.53,7.48-19Zm-.59-13.1c-1.78-2.4-4.47-5.85-6.16-7.82l1-1.39a43.86,43.86,0,0,1,8.11,5.61Zm32.47,31.58v2.21H8v-2.21h3.42V161.85H38.07v15.79Zm-5.61-19.82H14V139.29H35.57ZM19.2,164H15.46v13.63H19.2Zm12.54-22.56H17.83v14.21H31.74ZM19.65,155.28l-1.14-1.35c3.1-3.45,3.74-7.39,4.33-11.66l4,.86a25.91,25.91,0,0,1-1,3.84,24,24,0,0,1,5.61,5.23l-3,2.5A59.94,59.94,0,0,0,25,148.89,15.93,15.93,0,0,1,19.65,155.28ZM26.72,164h-4v13.63h4Zm7.34,0H30.28v13.63h3.78Z"/><path class="cls-1" d="M10,222.47V219H5.93v5H2.1V189.4H13.73v33.07ZM5.93,203.08H10V191.56H5.93ZM10,216.81V205.24H5.93v11.57Zm28.59,12.72A27.44,27.44,0,0,1,29,224.3a32.26,32.26,0,0,1-13.54,5.57l-.64-1.59A29,29,0,0,0,26.68,222a25.18,25.18,0,0,1-4.61-7.68c-2.65,7.78-6.93,12.82-10.76,15.36l-1.05-1.29c5-4.28,8.34-12.58,9.67-20.88l-5.57-.05v-2.16l5.84,0c.14-1.25.23-2.5.27-3.7H15.59v-2.16h4a42,42,0,0,0-3.1-7.49l1.14-1.1a28.72,28.72,0,0,1,5.51,6.58l-3.14,2h10.3a36.06,36.06,0,0,0,3.24-10.32,145.2,145.2,0,0,1-18.51,1.49L14.64,189c7.57-.48,17.19-2.3,20.93-4.42l3.92,3.56c-1.87.38-3.79.76-5.79,1.05L38.07,191a35.77,35.77,0,0,1-5.7,8.54h7v2.16H24.49c-.09,1.3-.23,2.5-.37,3.7l16.6.09v2.16l-17-.09c-.23,1.39-.5,2.69-.82,3.93h9.62l1-.76L38,213a34.85,34.85,0,0,1-6.29,9A27.34,27.34,0,0,0,41,225.16Zm-9.81-9.6a27.73,27.73,0,0,0,4.11-6.29H23.26A21.85,21.85,0,0,0,28.77,219.93Zm.69-21.69-3.92,1a50.32,50.32,0,0,0-1.14-8.21l1.55-.62A35.42,35.42,0,0,1,29.46,198.24Z"/><path class="cls-1" d="M6.61,277.38H2.51V256.17H18.6v21h-4v-4h-8Zm8-6.38V258.33h-8V271ZM8.8,250.89H32.33V235.1H8.8Zm4.2-2.16V237.26H28.13v11.47Zm9.89,28.7V256.17H39v21H34.88v-4h-8v4.27Zm4-19.1V271h8V258.33Z"/><path class="cls-1" d="M7,303.88h8.21V325.1H11.4V306H7c-.37,11.42-2.19,15.89-5.57,20L.14,324.9c2.46-4.12,3-9.84,3-24.28V281.18h4c0,5.37,0,10.22,0,14.45h3.78v-14h3.74v14h2v2.16H7.07v2.92C7.07,301.82,7.07,302.87,7,303.88ZM40.81,314H31.74v11.57H27.82V314H16V311.8H27.82v-6.58h3.92v6.58h9ZM24.21,303.3H17.78V286.12H25a36.25,36.25,0,0,0,1.14-5.71l4.75,1.15a25.68,25.68,0,0,1-3.7,4.56H39V303.3H27.77c-1.87,3.94-5.06,6.34-10.12,7.68l-.55-1.63C20.56,307.82,22.8,306,24.21,303.3Zm-2.6-9.74h4.7c.09-1.58.14-3.36.14-5.28H21.61Zm3.51,7.59a26.74,26.74,0,0,0,1-5.43H21.61v5.43Zm10-5.43H29.73a29.26,29.26,0,0,1-1.09,5.43h6.52Zm0-7.44H30.05c0,1.87,0,3.65-.09,5.28h5.2Z"/><path class="cls-1" d="M13.18,360.71V386h-4V363.45a43.32,43.32,0,0,1-7.94,12.38L.05,374.58a55.23,55.23,0,0,0,8.48-20.21H2v-2.16H9.17v-10.6h4v10.6h6v2.21h-6v3.51a36.48,36.48,0,0,1,7.07,7.77L17,368.25A83.41,83.41,0,0,0,13.18,360.71ZM38,376.07c-1.09-1.25-4.69-6.58-7.11-16v26.21h-4v-25.2c-1.69,4.89-5.7,11.95-10.13,15.88l-1.14-1.24a52.86,52.86,0,0,0,9.9-21.36H20.25v-2.16h6.61V341.61h4v10.56H38.8v2.2H31.1c2.14,8.16,6.56,14.6,10.39,18Z"/><path class="cls-1" d="M5.65,420.08a43.26,43.26,0,0,1-1.5,13.54L0,431.6a31,31,0,0,0,4.06-11.71Zm-1.91-6.71a46.12,46.12,0,0,0,6.15-9,65.74,65.74,0,0,1-7.84,1.87L1.23,402c.91.09,1.83.14,2.74.19a61.43,61.43,0,0,0,4.15-13l4,1.44a60.9,60.9,0,0,1-6.2,11.67c1.64,0,3.33-.05,5.11-.2q1.3-2.73,2.46-5.9l4,1.87A50.75,50.75,0,0,1,6.06,413.27c2.24-.14,4.61-.38,6.84-.67-.45-1.35-.91-2.64-1.36-3.79l1.23-.72a31.71,31.71,0,0,1,5.06,8l-3.51,1.68c-.23-1-.55-2.16-.87-3.36a61.6,61.6,0,0,1-11.63,3.36l-1-4.41C1.73,413.37,2.74,413.37,3.74,413.37Zm5.52,6a87.19,87.19,0,0,1,3,11.37l-4.11.62c.09-3-.18-7.82-.41-11.71Zm3.92-1.3a46.21,46.21,0,0,1,4.83,9.6l-3.69,1.58c-.64-3.17-1.74-7.58-2.56-10.56ZM41,430H22.66v3.89H18.74V405.78a27.77,27.77,0,0,1-2.92,3.7l-1.18-1.06c3-5,5.29-11,6.7-19.44l4.47,1.3a52.93,52.93,0,0,1-3.24,8.64h7.62A90.48,90.48,0,0,0,27.63,390l1.37-.77a35.76,35.76,0,0,1,5.2,8.3l-3.06,1.35h9.4v2.16H32.69v6.72h6.66V410H32.69v7.34h6.66v2.16H32.69v8.35H41ZM22.66,401.08v6.72h6.2v-6.72Zm6.2,8.88h-6.2v7.34h6.2Zm-6.2,17.85h6.2v-8.35h-6.2Z"/><path class="cls-1" d="M41.22,475.81l-1.55,5.09c-8.07.58-18.06.67-23.39-1.06a17.29,17.29,0,0,1-7.89-5.08A27,27,0,0,1,1,482.48l-1-1.39a25.88,25.88,0,0,0,6.43-8.93A28.69,28.69,0,0,1,2.78,461.7l1.6-.48a26.44,26.44,0,0,0,3.23,8.06,54.38,54.38,0,0,0,2.65-12.71h-4a26,26,0,0,1-2,3.31l-3.24-1.44a115.21,115.21,0,0,0,7.3-15.6H.87v-2.07H13.45a128.11,128.11,0,0,1-6,13.64h2.74l.73-.77,3.6,1.44a46.18,46.18,0,0,1-4.61,17A15.59,15.59,0,0,0,15,475.38C20.93,477.73,32.37,476.92,41.22,475.81Zm-17.28-26H14v-2.07h10v-3.84H16.1v-2.16h7.84v-4.27h3.92v4.27h8.89v6h3.7v2.07h-3.7v6.48H27.86v3.79h9.3v2.16h-9.3v4.46h11.4v2.16H27.86v6.34H23.94v-6.34h-10v-2.16h10v-4.46H15.55v-2.16h8.39v-3.79H15.87v-2.16h8.07Zm3.92-2.07h5.29v-3.84H27.86Zm0,6.39h5.29V449.8H27.86Z"/><path class="cls-1" d="M18.65,496.17H.5V494H8.8c-1.28-2.83-3-6-4-7.87L6.06,485a35.42,35.42,0,0,1,6.48,7.39L10.26,494H18.7Zm-2.46,4.65v1.87H2.37v-1.87Zm0,8.5H2.37v-1.88H16.19Zm.27,17.08h-10v3.27H2.51V514.16h14Zm-3.83-10.12H6.43v8h6.2ZM39,529.91a26.22,26.22,0,0,1-11.12-6.67,32.8,32.8,0,0,1-12.32,7.19l-.68-1.58a31,31,0,0,0,10.85-8.06,28.57,28.57,0,0,1-5.33-11.52H17.69v-2.16H31.55l1.14-.82,4.2,1.83a36.66,36.66,0,0,1-6.43,12.38,32.48,32.48,0,0,0,11.13,4.37Zm-18.42-37.3v-4.22H33.24v9.69c0,1.49.23,2.12,1.87,2.12a4,4,0,0,0,3.42-1.35l1.73,3.31c-1.14,1.25-3,1.88-5.83,1.88-4.2,0-5.2-1.2-5.2-5.28v-8.21H24.71v2.21c0,7.92-2.64,10.89-8,13.53l-.82-1.49C19.74,501.64,20.61,500.39,20.61,492.61Zm7.07,25.63a28.09,28.09,0,0,0,4-9H22.16A20.32,20.32,0,0,0,27.68,518.24Z"/></g></g></svg>