<svg xmlns="http://www.w3.org/2000/svg" viewBox="0 0 28.37 264.32"><defs><style>.cls-1{fill:#956134;}</style></defs><title>資產 34</title><g id="圖層_2" data-name="圖層 2"><g id="圖層_2-2" data-name="圖層 2"><path class="cls-1" d="M4,2.82c.46.06.7.19.7.41s-.18.36-.48.64v15a47.12,47.12,0,0,0,4.65-2V0L11.4.19c.46.07.7.19.7.42s-.18.41-.48.77v28.1H8.91v-10c-1.82,1-4.23,2.15-7.27,3.52-.18.45-.39.64-.58.64s-.33-.16-.36-.51l-.7-3c.55-.13,1.09-.25,1.64-.41V2.62ZM19.46.64c.31.1.49.26.49.48s-.28.42-.82.61c-.22,1.15-.43,2.14-.64,3h9.18V7.49h-2V8.1a43.66,43.66,0,0,1-.91,10.14A14.43,14.43,0,0,1,22.84,23a30.41,30.41,0,0,0,5.53,4.29l-2.13,2.37a33.47,33.47,0,0,1-5.14-4.39,17,17,0,0,1-6.87,4.16l-2-2.75A13.09,13.09,0,0,0,19,23.14l.18-.19a11,11,0,0,1-.88-1.34,22.63,22.63,0,0,1-2.86-9c-.43.74-.85,1.44-1.34,2.15L12,12.87a22.51,22.51,0,0,0,3.19-6A34.89,34.89,0,0,0,16.72.1ZM17.7,11.36a19.23,19.23,0,0,0,2.86,8.87,1.68,1.68,0,0,0,.3.45,13.53,13.53,0,0,0,1-2.66A35.33,35.33,0,0,0,22.93,8.1V7.49h-5.2c-.12.42-.25.77-.37,1.09a32.17,32.17,0,0,1-1.3,3Z"/><path class="cls-1" d="M8.42,48.75a34.29,34.29,0,0,1-.64,7,40.54,40.54,0,0,1-1.73,5.76L3.56,60.24a25.61,25.61,0,0,0,1.7-5.15c.18-.9.3-1.83.43-2.73H4.38a34.77,34.77,0,0,1-.7,4A21.74,21.74,0,0,1,2.25,60L0,58.51a13.41,13.41,0,0,0,1.37-3.1,25.92,25.92,0,0,0,.61-3H.58V50H5.9c0-.42,0-.84,0-1.25V47.24H1.06V39.75l2.22.16c.43,0,.64.13.64.32s-.18.39-.48.64v4.39H5.93V40.11H19v-2l2.37.51c.3.07.45.2.45.36a1.22,1.22,0,0,1-.33.76v.36h2.37a17.17,17.17,0,0,0-1.55-1.6L24,37a18.26,18.26,0,0,1,2.37,2.37l-.82.74h1.77v2.52H21.56a47.54,47.54,0,0,0,.94,8.9,1,1,0,0,0,.06.32,4.6,4.6,0,0,0,.25-.61,32.28,32.28,0,0,0,1.43-5.76l2.28.87a.43.43,0,0,1,.3.41c0,.13-.15.23-.46.36a35.81,35.81,0,0,1-1.67,5.63A18.14,18.14,0,0,1,23.57,55a11.38,11.38,0,0,0,.94,1.82c.39.58.73.83,1,.83s.46-.6.82-1.85l2,1.85c-1.06,2.34-2,3.53-2.74,3.53s-1.55-.68-2.58-2a13.39,13.39,0,0,1-1.16-1.86,23,23,0,0,1-4.8,4L15.2,59.5a23,23,0,0,0,3-1.89H11.52v.64H9.24V44.49h9v2.15h-3v1.6h3v5.63H15.42v1.5h3.1v2a12,12,0,0,0,2.34-2.43,24.29,24.29,0,0,1-.94-3.33,54.8,54.8,0,0,1-.85-9H8.42Zm.25-14.63v-2l2.31.2c.42,0,.64.12.64.32s-.16.41-.46.76v.74H17v-2l2.31.2c.43,0,.67.12.67.32s-.18.41-.49.76v.74h8.33v2.24H19.46v1.51H17V36.36H11.16V38H8.67V36.36H.7V34.12Zm4.62,14.12v-1.6H11.52v1.6ZM16,52V50.12H11.52V52Zm-2.62,3.36v-1.5H11.52v1.5Z"/><path class="cls-1" d="M8.3,78c.31.1.49.23.49.39s-.09.22-.25.38-.48.48-.85,1.25h6.09V77.39l2.49.2c.45.06.7.19.7.41a1.51,1.51,0,0,1-.46.77V80h9.37v2.5H16.51v2.62h7.82v2.37H16.51V90H27.06V92.5h-26V90H13.78v-2.5H6.29V85.14h7.49V82.52H6.42a32.79,32.79,0,0,1-2.62,4L1.19,85a26.2,26.2,0,0,0,4.74-7.87ZM24.24,65.39V76.75H5V65.39ZM21.5,70V67.89H7.72V70Zm0,2.24H7.72v2H21.5Z"/><path class="cls-1" d="M15.2,96.6c.46.06.7.19.7.41a1.51,1.51,0,0,1-.48.74v2.37H27.31v9.63H24.57v-7.1H17.7v3.49c0,.83.3,1.25.94,1.25h1.67a1.06,1.06,0,0,0,.88-.36,5,5,0,0,0,.55-2l2.59.73a5.69,5.69,0,0,1-1.16,3.2,2.92,2.92,0,0,1-2.16.8H18c-2,0-3-.73-3-2.24v-4.86H3.8v7.1H1.06v-9.63H12.71V96.37Zm8.31,15.65v2.63h-8V121H27.31v2.75H1.06V121H12.71v-6.14H5v-2.63Zm-11.16-7.84c.3.13.48.29.48.48s-.24.35-.73.51c-.85,1.09-1.64,2-2.43,2.91a19.71,19.71,0,0,1-3.13,2.56l-2.16-2a13.39,13.39,0,0,0,3.19-2.27,21.49,21.49,0,0,0,2.65-3.11Z"/><path class="cls-1" d="M12.89,147.3c0-.26,0-.48,0-.74v-5.25a20.91,20.91,0,0,0-.21-2.4l3,.26c.52,0,.79.16.79.38s-.24.67-.73,1v6c0,.26,0,.51,0,.74H27.19v2.75H15.81a23.14,23.14,0,0,0,4.47,8.74,20.16,20.16,0,0,0,8,5.89l-2.49,3a22.53,22.53,0,0,1-7.73-7,26.4,26.4,0,0,1-3.22-6.27c-.24.83-.49,1.56-.76,2.27a18,18,0,0,1-5.11,6.59,34.66,34.66,0,0,1-6.32,4.39l-2.5-2.37a34.49,34.49,0,0,0,5.93-3.62,16.19,16.19,0,0,0,4.78-5.28,19.51,19.51,0,0,0,1.88-6.37H1.19V147.3Z"/><path class="cls-1" d="M8.7,171.46c.27.07.42.2.42.36a.8.8,0,0,1-.45.6l-1.31,2.76h4.5v8.9H4v3h8.21v11H9.61v-1.63H4v3H1.43V175.18H4.65l1.77-4.39Zm.54,10.09v-3.88H4v3.88Zm.37,12.38v-4.38H4v4.38Zm18.18-20.87v2.63H21.62v4.38h5.32v13.48a2.53,2.53,0,0,1-1.46,2.66,6.24,6.24,0,0,1-2.34.48l-1.06-2.76,1.58-.06c.42,0,.67-.42.67-1.18v-10H21.62v17.12H18.88V182.7H16.15v13.86H13.53V180.07h5.35v-4.38h-6v-2.63Z"/><path class="cls-1" d="M24.94,204.56v2.62H15.66v4.9c0,.8-.06,1.54-.12,2.24H27.19v2.75H16.33a17.42,17.42,0,0,0,4.29,7.05A19.44,19.44,0,0,0,28.37,229L26,231.83A21.18,21.18,0,0,1,18.43,226a24.48,24.48,0,0,1-4-7.17,20.59,20.59,0,0,1-1.88,4A27.1,27.1,0,0,1,3.19,232l-3-1.51q6.8-3.88,9.4-8.06a20.41,20.41,0,0,0,2.52-5.32H1.19v-2.75H12.71a19,19,0,0,0,.12-2.24v-4.9H3.31v-2.62Z"/><path class="cls-1" d="M7.6,236c.12-.26.25-.38.34-.38l2.16,1.76L8.15,242.1a20.88,20.88,0,0,0,5.5-7.39l1.77.67c.24.13.36.23.36.32s-.12.23-.36.26c-.22.38-.43.77-.61,1.12h2.37a1.69,1.69,0,0,1,.76-.38,9,9,0,0,1,1,.89.77.77,0,0,1-.1-.38l2-.26a15.73,15.73,0,0,0,2.46,6.28.85.85,0,0,0,.16.19l1.67-4.36h-3.1v-2.24h3.46l.58-.25a1.26,1.26,0,0,1,.64.22l1.34.9c.18.13.27.25.27.38s-.21.51-.58.74l-2.64,6.56a23,23,0,0,0,3,2.46l-2.25,1.73A17.31,17.31,0,0,1,24.33,248v1.66H13.41V248a15.29,15.29,0,0,1-3.07,1.83L8.79,248a15.16,15.16,0,0,0,3.53-1.82.42.42,0,0,0,.12-.1,30.6,30.6,0,0,0-2.53-2.43l-1,1-1.19-1.41-1,2.4a11.83,11.83,0,0,1,2.49,6.53A8.1,8.1,0,0,1,8,256.92a3.77,3.77,0,0,1-3.23,1.8l-.94-2.63a3.48,3.48,0,0,0,2.43-1.53,5.69,5.69,0,0,0,.52-2.72c0-1.54-.85-3.53-2.49-6l2.67-7.49H3.44v26H.94V236H7.6Zm7.09,21.32c.18.16.27.28.27.41s-.18.35-.49.39a29.18,29.18,0,0,1-4.5,4.86l-2.25-1.85a22.52,22.52,0,0,0,5.2-5Zm12.62-5.19v2.5H20.07v6.11a3,3,0,0,1-.82,2.34c-.46.51-1.58.8-3.35.8l-1.06-2.75h1.67a.87.87,0,0,0,.94-.9v-5.6H10.34v-2.5ZM13.93,244.7c.27-.32.54-.64.82-1l.06-.06a35.71,35.71,0,0,0-2.77-2.4c-.3.38-.55.7-.79,1A26.15,26.15,0,0,1,13.93,244.7Zm1.91-2.88c.37-.74.7-1.57,1.07-2.5H13.44a3.59,3.59,0,0,1-.21.32A20.49,20.49,0,0,1,15.84,241.82Zm7.94,5.63c-.49-.51-.88-1-1.25-1.44a15.68,15.68,0,0,1-2.19-3.84,16,16,0,0,1-1-2.95,12.52,12.52,0,0,0-.79,1.7,16.88,16.88,0,0,1-3.16,5.31,11.42,11.42,0,0,1-1.31,1.22ZM28.13,261l-2.13,2a23.55,23.55,0,0,1-4.5-5.6l1.88-1.15A20.48,20.48,0,0,0,28.13,261Z"/></g></g></svg>