<svg xmlns="http://www.w3.org/2000/svg" viewBox="0 0 94.06 380.39"><defs><style>.cls-1{fill:#231815;}</style></defs><title>資產 35</title><g id="圖層_2" data-name="圖層 2"><g id="圖層_2-2" data-name="圖層 2"><path class="cls-1" d="M62,19.54c-1,5.76-3.11,16.75-4.61,21.75L53.06,39c2.65-5,5.61-14.16,7.34-20Zm-1.65-6.82a87.7,87.7,0,0,0-6-9.36L55.34,2a43.59,43.59,0,0,1,8.35,7.44Zm30.56,32c-5.2-1.1-9.53-2.73-13-5.85C73.59,42,68,43.78,61,44.79l-.41-1.68C67,41.77,72,39.56,75.68,36.58a26.66,26.66,0,0,1-3.78-6.53,31.12,31.12,0,0,1-8.12,7.49l-.91-1.25A28.44,28.44,0,0,0,72.4,21.22L76,22.47A28.21,28.21,0,0,1,74.45,26H81.8l.63-.62,4,1.73a25.4,25.4,0,0,1-6,9.55c3.55,2,7.8,2.83,12.81,3.26ZM70.3,14.64H63.73V12.48h11V7.73h-8.3V5.57h8.3V0h4V5.57h9.17V7.73H78.69v4.75H90.87v2.16H82.16v2.5c0,2.3.91,2.45,3.79,2.4s3.78-.48,4.51-1.2l1.51,3c-1,.92-2.1,1.54-6,1.54-5.75,0-7.57-.43-7.57-5.14V14.64H74.27c-.82,5.19-4.33,10-11.27,12.1l-.68-1.58C68.2,22.32,69.66,18.87,70.3,14.64Zm2.56,14.07a20.21,20.21,0,0,0,4.79,6,17,17,0,0,0,3.92-6.58H73.22C73.08,28.37,73,28.57,72.86,28.71Z"/><path class="cls-1" d="M75.05,87.91h17.1v2.64H53.88V87.91h17V77.44H58.49V75h29.1v2.4H75.05ZM58.31,64.53h-4v-9.7H73.54c-2.1-1.92-5.29-4.37-7.53-6l.64-1.63a43.67,43.67,0,0,1,10.49,4L75,54.83H91.56v9.36h-4V57h-8v8c0,1.77.5,2.45,4.29,2.45,3.28,0,4.47.09,6.16-1.59l2.28,3.27c-1.55,2.11-4.15,2.21-9.63,2.21-6.34,0-7-1.4-7-5.19V57H70.17l0,2.3C70,67.45,63.37,72.83,55.07,74.61L54.52,73C60.86,70.72,65.88,66.4,66,59l0-2H58.31Z"/><path class="cls-1" d="M69.16,111.72a39.12,39.12,0,0,1-4.1,6.82l-.14,21.94H61V123.34a44,44,0,0,1-8.34,6.77l-.87-1.44a45.36,45.36,0,0,0,12.95-18.92ZM93,101.5v2.16H82v5.71H78v-5.71l-10.26,0v5.09h-4V103.7H52.79v-2.16H63.73V95.83h4v5.71l10.26,0V95.83h4v5.67ZM91.1,127.08c2.78,9.13,1.64,11.81-3.33,12.15a59.78,59.78,0,0,1-8.25,0c-4.61-.29-6.25-.82-6.25-5.95V111.34h4.19v12.72a37.3,37.3,0,0,0,9.26-9.36L91,117.63A43.36,43.36,0,0,1,77.46,126V133c0,1.82.41,2.11,2.56,2.3a34,34,0,0,0,6.61,0c2.65-.29,3-1.1,2.83-8.21Z"/><path class="cls-1" d="M90.87,145.86v42.39h-4v-2.83h-28v2.93h-4V145.86Zm-4,2.16h-28v35.24h28ZM60.45,176.25l-.55-1.63a31.78,31.78,0,0,0,8.81-5.19H63.46V161.6h18.7v7.83H73.59a18.72,18.72,0,0,1-3.11,2.4v4.9c1.83-.53,3.52-1.06,4.79-1.49l.64,1.58a66.73,66.73,0,0,1-13.18,5.48l-1.28-3.41c1.51-.24,3.38-.67,5.29-1.15v-3.8A45.47,45.47,0,0,1,60.45,176.25Zm25-16.71H60.18v-2.16H70.85V154.6h-8.8v-2.17h8.8v-3.16h3.92v3.16h8.85v2.17H74.77v2.78H85.4Zm-18.11,7.78h11v-3.6h-11Zm18.56,4a27.18,27.18,0,0,1-5.1,3.56A42.39,42.39,0,0,1,86,178.6L83.35,182A79.83,79.83,0,0,0,73,172.6l.77-1.49a53.61,53.61,0,0,1,5.29,2.74A33.13,33.13,0,0,0,82.94,169Z"/><path class="cls-1" d="M94.06,230.84l-3.32,5.47c-4.38-2.11-14-11.23-16.42-28-2.38,14.6-11.13,24.39-21,28.38L52.51,235c7.94-4.75,15.06-12.62,17.2-27.65H54v-2.64H70c.09-1.1.18-2.26.23-3.41.13-2.93.18-6.38.22-9.55l4.66.14c0,3.79-.09,7.25-.28,10.95l-.13,1.87H91.92v2.64h-16C79.24,221.14,87.86,228,94.06,230.84Z"/><path class="cls-1" d="M62,259.74v24.77H58.12V262.14a49.72,49.72,0,0,1-4.6,10.8l-1.33-1.05A80.69,80.69,0,0,0,57.39,252H53.11v-2.16h5V239.72H62v10.13h3.69V252H62v4.22a28.17,28.17,0,0,1,4.24,5.09v-4.13H78.92v10.13H66.2v-4.94l-2.6,1.78C63.1,262.67,62.55,261.13,62,259.74ZM82,276.35a77.32,77.32,0,0,1-17.42,6.53l-1.37-4.42a78.55,78.55,0,0,0,10-1.53,66.35,66.35,0,0,0,1.55-8.69l3.92,1.2a41.25,41.25,0,0,1-3.33,7c2.24-.58,4.34-1.16,6.07-1.73ZM70.67,248h-6v-2.16h6v-6h3.92v6h6.48V248H74.59v4.61h4.88v2H66.06v-2h4.61Zm-4.38,21,1.55-.57a29.14,29.14,0,0,1,3.83,7l-3.47,1.39A65.13,65.13,0,0,0,66.29,269Zm3.46-3.84h5.61v-5.85H69.75ZM93.2,254.27H90v25.39c0,5.33-4.43,6.87-11.36,1.35l.59-1.59c5.75,1.83,6.84,1.2,6.84-1V254.27h-5.7v-2.16h5.7V240H90v12.1H93.2ZM81.7,271.4a84.86,84.86,0,0,0-1.55-12.09l1.51-.44a52.16,52.16,0,0,1,3.78,11.72Z"/><path class="cls-1" d="M93,324.36,90,329c-4.7-3-8.44-8.45-10.72-15.89-.82.38-1.73.77-2.64,1.15a26.07,26.07,0,0,1,1.59,8.88c-.18,10.47-5.56,11.57-12.72,6l.64-1.64c6.34,2.12,7.84,1.4,8-6.38,0-.48,0-1,0-1.54-3.19,3.36-9.58,7.49-19.75,10.18l-.54-1.63c8.66-3.22,15.14-7.87,19.52-13.44-.19-.77-.37-1.54-.6-2.26-4.65,3.79-11.4,6.63-17.88,8.35l-.54-1.63c6.61-2.5,12.63-6.1,16.87-10.71a14,14,0,0,0-.91-1.68,49.94,49.94,0,0,1-14.37,5.48l-.45-1.63c7.16-2.55,10.67-4.76,13.68-7.83h-9.3v-2.16H86.08v2.16H75.32a21,21,0,0,1-3.42,2.93,26.26,26.26,0,0,1,4.06,7,31.91,31.91,0,0,0,7.66-8l4,2.83a37.3,37.3,0,0,1-6.84,4.85A25.86,25.86,0,0,0,93,324.36ZM58.12,303.29h-4V294H74c-2.28-1.63-5.29-3.65-7.66-5.18l.59-1.64a44.71,44.71,0,0,1,10.4,3.56L75.5,294H91.78v9.32h-4v-7.16H58.12Z"/><path class="cls-1" d="M90.87,337.9v42.39h-4v-2.83h-28v2.93h-4V337.9Zm-4,2.16h-28V375.3h28ZM60.45,368.29l-.55-1.63a31.78,31.78,0,0,0,8.81-5.19H63.46v-7.82h18.7v7.82H73.59a18.78,18.78,0,0,1-3.11,2.41v4.89c1.83-.53,3.52-1,4.79-1.49l.64,1.59a66.06,66.06,0,0,1-13.18,5.47l-1.28-3.41c1.51-.24,3.38-.67,5.29-1.15V366A46.58,46.58,0,0,1,60.45,368.29Zm25-16.71H60.18v-2.16H70.85v-2.78h-8.8v-2.16h8.8v-3.17h3.92v3.17h8.85v2.16H74.77v2.78H85.4Zm-18.11,7.78h11v-3.6h-11Zm18.56,4a26.66,26.66,0,0,1-5.1,3.55A43.46,43.46,0,0,1,86,370.64L83.35,374A81.31,81.31,0,0,0,73,364.64l.77-1.49a55.85,55.85,0,0,1,5.29,2.74A32.61,32.61,0,0,0,82.94,361Z"/><path class="cls-1" d="M33.34,42.87c-1.87-1.15-4-3.31-5.84-7.25A35.56,35.56,0,0,1,17.15,42.3l-.82-1.54a34.73,34.73,0,0,0,9.8-8.45A66,66,0,0,1,23.26,15.6H15l-.05,7.73c2.38-.81,4.61-1.63,6.85-2.54l.68,1.58a62.25,62.25,0,0,1-7.53,4.52L14.82,39c0,6-4.42,7.88-11.63,2.26l.55-1.63c5.79,1.58,7.21,1.63,7.21-2v-9a82.7,82.7,0,0,1-8.44,3l-1.6-4.8a83.93,83.93,0,0,0,10-2.31l0-9H1.14V13.44H11V7.2c-2.78.58-5.74,1-8.71,1.35L2,6.82C9,5,13.59,3.5,18.06.43l3.7,3.51a33.29,33.29,0,0,1-6.71,2.35l0,7.15h8.16a6.77,6.77,0,0,1-.05-1C23,9.51,22.9,3.41,22.85,0h4c.05,3.74.14,8.93.23,12,0,.48.05,1,.05,1.44h13V15.6H27.27A63.38,63.38,0,0,0,29.1,28.09a48.77,48.77,0,0,0,4.42-9.89l4.11,1.92a51.92,51.92,0,0,1-7.07,12.24c2.05,4.94,4.61,6.67,6.11,7.15s1.64-2.16,1.37-8.26h1.64C43,41.43,41.05,47.48,33.34,42.87Zm.87-31.78a102.92,102.92,0,0,0-5.07-9L30.38.82A34.14,34.14,0,0,1,37.9,8.11Z"/><path class="cls-1" d="M14.46,80.66l4.61,2.59C14.6,87.62,6.8,91.32.91,93L.27,91.32C6.57,88.19,11,84.93,14.46,80.66Zm26.68-.48H.82V78H4.7c-.23-9.22-.55-17.09-1-26.41l3.7.53a31.12,31.12,0,0,0,5.15-4.75l3.33,3.17a42.06,42.06,0,0,1-8,3.6L8,59.49h5.93v2H8.07c0,2.16.09,4.37.19,6.53H14v2H8.3c.09,2.64.14,5.33.23,8h5.84c.59-4.28,1-7.44,1.37-11.86l3.83.72C19.16,71.1,18.79,74,18.2,78h3.69c.37-4.18.73-10.37,1-14.89h-4c-.09.68-.23,1.3-.32,1.92l-3.74-.52c.77-5.28,1.55-11.43,2.05-16.71l3.83.48c-.13,1.73-.36,3.65-.59,5.62H27.5v2.16H19.89c-.19,1.63-.41,3.31-.64,4.94H27c-.28,4.85-.73,12.29-1.19,17H32.7l.46-7.54H28.1v-2h5.15L33.66,62H28.28V60H33.8l.41-7h-6V50.8h9.94L36.53,78h4.61Zm.64,8.11-3,4.71A81.57,81.57,0,0,0,24.08,82.72l.64-1.63A60.75,60.75,0,0,1,41.78,88.29Z"/><path class="cls-1" d="M1.19,117.58l-1-1.35A33.22,33.22,0,0,0,8.8,104H2.23v-2.16H9.81v-6h3.83v6h6.61V104H13.64v.67a34.64,34.64,0,0,1,6.84,5L18,112.63a69.33,69.33,0,0,0-4.33-5.71v10.61H9.81V108.7A29.19,29.19,0,0,1,1.19,117.58ZM40,127.47c2.24,8.88,1.65,11-2.64,11.38a38.55,38.55,0,0,1-6.71,0c-4-.33-4.83-1.1-4.83-5.08V121.56l-10.44,0c0,8.65-1.51,17-13.51,19.35l-.54-1.63C10.67,136.06,11,130.4,11,119.4H29.69v13.49c0,1.4.32,2.07,1.6,2.21a18,18,0,0,0,5.33,0c1.69-.24,1.87-1.78,1.69-7.63Zm-15.32,4.22L21,134.33a68,68,0,0,0-4.83-9.21L17.38,124A38.76,38.76,0,0,1,24.63,131.69ZM26.5,104H21.16v-2.16h6.66V95.93h3.83v5.95H39.5V104H32.16c2,3.41,6.33,6.82,9.89,8.69l-2.55,3.89c-2.92-1.78-5.89-5.86-7.85-9.75v10.66H27.82v-9.65a32.44,32.44,0,0,1-9.44,9.41l-1-1.34A35.83,35.83,0,0,0,26.5,104Z"/><path class="cls-1" d="M42.28,168l-2.87,5.23A35.43,35.43,0,0,1,21.62,157,47.6,47.6,0,0,1,.78,173.51L0,172a45.78,45.78,0,0,0,19.25-20.74L24,153.11c-.41.77-.87,1.53-1.33,2.25C27,161.08,32.84,165.16,42.28,168ZM2.65,159.78l-.87-1.49a46.74,46.74,0,0,0,11.63-14.21l4.42,2.69A48.42,48.42,0,0,1,2.65,159.78Zm5.83,10.75H33.66v17.72h-4.1v-2.93h-17v3.22H8.48Zm4.11,12.63h17V172.69h-17ZM23.22,146.1l.86-1.49a62.1,62.1,0,0,1,14.73,9.6l-3.55,4.23A117.67,117.67,0,0,0,23.22,146.1Z"/><path class="cls-1" d="M11.45,211.39v24.87H7.53V216.05a34.29,34.29,0,0,1-6.07,5.09l-1-1.44a47.93,47.93,0,0,0,11.86-18.58l3.92,1.78A40.92,40.92,0,0,1,11.45,211.39Zm29.28-10.75H1v-2.16H22.49a58.43,58.43,0,0,0-7.62-5.23l.64-1.69A46.08,46.08,0,0,1,26,195.12l-2,3.36H40.73Zm-1.82,35.72a36.51,36.51,0,0,1-11.5-7.11c-3.83,3.46-8.48,5.48-14,7.35L12.68,235A39,39,0,0,0,25,226.71a35.09,35.09,0,0,1-5.93-11,32.29,32.29,0,0,1-5.06,5.86l-1.14-1.34c3.56-4.37,6.88-11.43,8.57-19.11l4.29,1.39a35.37,35.37,0,0,1-1.92,5H32.7l1.1-.82,3.92,1.78c-1.82,8.25-4.33,13.87-7.57,17.9a36.71,36.71,0,0,0,11.77,4.9ZM27.27,224c2.6-3.7,4.43-8.3,5.57-14.35h-10c-.77,1.44-1.59,2.88-2.46,4.27A29.54,29.54,0,0,0,27.27,224Zm2.65-6.67-3.42,2.45a59,59,0,0,0-3.79-7.59L24,211A38.83,38.83,0,0,1,29.92,217.3Z"/><path class="cls-1" d="M35.48,282.88c-6.43.05-7.52-1.1-7.52-4.8V267.52c-3.56,11.09-11.68,15.22-16.37,17.09L10.86,283c4-2.35,10.71-5.9,13.54-16.75H20.57v3.17H16.74V255.56c-.64.63-1.32,1.25-2,1.88l-.55-.72V277.5H10.45v-3.79H6.07v5.14H2.23V243.51h12v11.91a43.47,43.47,0,0,0,7.58-15.94L26.23,241a44.59,44.59,0,0,1-1.87,4.22h5.06l1-.91L35,246.82a38.26,38.26,0,0,1-6.11,6.73h9.76v15H34.85v-2.26h-3v10.32c0,1.92.32,2.35,3,2.4,3.24.05,3.33-.86,3.24-7.39h1.64C42.83,281,40.41,282.83,35.48,282.88ZM6.07,257.05h4.38V245.67H6.07Zm4.38,14.5V259.21H6.07v12.34Zm12.72-24.2a40.66,40.66,0,0,1-4.52,6.2h7.71a33.64,33.64,0,0,0,3.24-6.2Zm1.73,16.76a48.58,48.58,0,0,0,.82-8.4H20.57v8.4Zm10-8.4H29.74a46.45,46.45,0,0,1-.87,8.4h6Z"/><path class="cls-1" d="M19.29,311.54l-3.24,2.64c-1.18-2.45-2.28-4.65-3.37-6.72v24.77H8.76V308.18a56.11,56.11,0,0,1-7.48,13.44l-1.23-1.1A75.1,75.1,0,0,0,7.8,300.31H1.19v-2.16H8.76V287.92h3.92v10.23h6.11v2.16H12.68v4.13A41,41,0,0,1,19.29,311.54Zm19.2-20.45V331.8h-4v-4l-10.63.05v4.36l-4,0v-41.1Zm-4,2.16-10.63.05v8.79l10.63,0Zm0,10.95-10.63.05v9.21l10.63,0Zm0,11.38-10.63,0v10.09l10.63,0Z"/><path class="cls-1" d="M39.41,352.21a33.94,33.94,0,0,1-3.33-1.39v10.75H5.75V350.91c-1.6.72-3.29,1.39-4.93,2l-.64-1.63C7.66,348,16.6,340.3,20.11,335.12l4.25,2.25c-.37.39-.73.82-1.1,1.25a46.1,46.1,0,0,0,18.38,9.12Zm-4.24-1.87a47.45,47.45,0,0,1-7.3-4.8v2.06H14.14v-1.44a60,60,0,0,1-7.21,4.18ZM8.35,364.45H33.48v15.89H29.56v-2.21H12.27v2.21H8.35Zm2.46-11.33.68-.62H9.58v6.91h4.65C13.23,357.39,11.77,354.61,10.81,353.12Zm1.46,13.49v3.46H29.56v-3.46ZM29.56,376v-3.79H12.27V376ZM19,352.5H12.45a31.63,31.63,0,0,1,5.11,5.18l-2.28,1.73H19Zm-3.74-7.06H27.78A45.64,45.64,0,0,1,22,339.87,59,59,0,0,1,15.23,345.44Zm7.57,7.06v6.91h2.1l-.64-.62a46.29,46.29,0,0,0,3.29-6.29Zm9.31,0H28.32l2.88,1.73A41,41,0,0,1,26,359.41h6.16Z"/></g></g></svg>