<svg xmlns="http://www.w3.org/2000/svg" viewBox="0 0 265.41 385.29"><defs><style>.cls-1{fill:#231815;}</style></defs><title>資產 36</title><g id="圖層_2" data-name="圖層 2"><g id="圖層_2-2" data-name="圖層 2"><path class="cls-1" d="M246.28,6.33c.27,0,.43.11.43.34v4.25c0,.23-.16.34-.43.34h-1.62l.82.36c.27.12.4.26.4.42s-.13.31-.37.37a.58.58,0,0,0-.61.39c-.16.34-.29.62-.4.87h3.62l.29-.39a6.66,6.66,0,0,0,.85-1.63.15.15,0,0,1,.16-.17,14,14,0,0,1,1.86.87c0,.14-.1.25-.32.34a.53.53,0,0,0-.45.28c-.16.25-.32.47-.48.7h3.83c.14,0,.22.11.22.33v.87c0,.31-.08.45-.22.45h-4v1.43h3.33c.13,0,.21.11.21.31v.87c0,.3-.08.44-.21.44h-3.33V19.8h3.33c.13,0,.21.11.21.34V21c0,.28-.08.42-.21.42h-3.33V23h4c.14,0,.22.11.22.33v.87c0,.28-.08.45-.22.45h-9.33v.87c0,.22-.16.33-.43.33h-1c-.21,0-.29-.11-.29-.33V16.81l-.48.64c-.21.28-.37.39-.48.39a.69.69,0,0,1-.42-.19l-1-.45c-.16-.06-.22-.09-.22-.14a.49.49,0,0,1,.14-.28,15,15,0,0,0,1.91-2.55,11.61,11.61,0,0,0,1.36-2.86.14.14,0,0,1,.05-.11h-1.7c-.27,0-.4-.11-.4-.34V6.67c0-.23.13-.34.4-.34Zm.64-5.57c0,.25-.11.39-.27.42s-.26.22-.26.56V5.35c0,.22-.13.34-.4.34h-1c-.29,0-.42-.12-.42-.34V4H241.2c-.16,0-.21-.14-.21-.42V2.74c0-.22,0-.33.21-.33h3.33V.76c0-.23.13-.34.42-.34C246.26.42,246.92.53,246.92.76Zm-1.89,7h-1.86V9.83H245Zm3,7.56h-3.53v1.43h3.53Zm0,3.05h-3.53V19.8h3.53Zm0,4.6V21.43h-3.53V23Zm5-16.64c.27,0,.43.11.43.34v4.25c0,.23-.16.34-.43.34h-4.47c-.27,0-.4-.11-.4-.34V6.67c0-.23.13-.34.4-.34Zm-2-5.57c0,.22-.08.36-.21.36s-.21.2-.21.5v.56h3.64c.13,0,.21.12.21.34v.87c0,.31-.08.45-.21.45h-3.64V5.35c0,.22-.14.34-.4.34h-1a.3.3,0,0,1-.32-.34V.64c0-.14.11-.22.32-.22C250.43.42,251.07.53,251.07.76Zm.72,7h-2V9.83h2Zm9.26,1.65c0,.2-.08.31-.22.34a.83.83,0,0,0-.31.75v3.36a14.29,14.29,0,0,0,.26,2.22,21.44,21.44,0,0,0,.8,3.05,12.08,12.08,0,0,0,1.3,2.63,15.61,15.61,0,0,0,2.32,2.75c0,.11-.08.19-.21.28-.3.22-.62.45-.94.73a.54.54,0,0,1-.39.19,13.83,13.83,0,0,1-1.65-2,12.14,12.14,0,0,1-1.57-2.83,6.26,6.26,0,0,1-.35-.9,7.68,7.68,0,0,1-.64,1.71,8.17,8.17,0,0,1-1.65,2.24,11.31,11.31,0,0,1-2.37,1.82c-.1,0-.18-.08-.26-.22a5.23,5.23,0,0,0-.77-.73c-.16-.11-.22-.2-.22-.25a12,12,0,0,0,2.37-1.77,7.14,7.14,0,0,0,1.2-1.68,9.3,9.3,0,0,0,.8-2.43,16.15,16.15,0,0,0,.21-2.55V9.41c0-.22,0-.34.11-.34A12.2,12.2,0,0,1,261.05,9.41Zm-2-8.35c.16.17.26.28.26.37a.31.31,0,0,1-.21.31q-.24,0-.24.42c-.21,1.34-.37,2.43-.53,3.3h5.85a.89.89,0,0,1,.45.11c.32.28.48.51.48.68L263,12.41c-.05.11-.13.17-.19.17-.95-.26-1.43-.48-1.43-.65l1.78-4.82H258c-.24,1-.48,2-.72,2.92s-.59,1.71-.9,2.43a1.46,1.46,0,0,1-.54-.08c-.32-.14-.64-.28-1-.39-.11-.06-.16-.11-.16-.17a.47.47,0,0,1,.05-.28,23.72,23.72,0,0,0,1.33-3.92c.24-.87.45-1.82.64-2.83s.37-2.41.56-4.09c0-.17.05-.28.1-.28Z"/><path class="cls-1" d="M245.88,42.85c.27,0,.4.11.4.34v6.33a5.36,5.36,0,0,0,.27,1.87,1.62,1.62,0,0,0,.61,1,2.94,2.94,0,0,0,1.25.65,8.88,8.88,0,0,0,2.13.22h5.77a47.44,47.44,0,0,0,8-.78.82.82,0,0,1,.4-.09c.14,0,.22.06.22.11a13.77,13.77,0,0,0-.51,2.27c0,.28-.19.45-.45.45H250.54a7.78,7.78,0,0,1-1.7-.17,10.82,10.82,0,0,1-1.63-.56,5,5,0,0,1-1.3-1,6.46,6.46,0,0,1-.9-1.84l-.06-.14c-.16,0-.24.05-.24.11-1.86,1.93-2.9,3.25-3.06,3.92-.05.17-.13.25-.24.25s-.48-.47-1-1.43a1.22,1.22,0,0,1-.11-.56,20.15,20.15,0,0,0,4-3.47,1.38,1.38,0,0,0,.13-.78V44.59h-3.11c-.22,0-.32-.14-.32-.42v-.9c0-.28.1-.42.32-.42Zm-1.57-4.79c.85.45,1.57.84,2.18,1.18a.83.83,0,0,1-.13.22c-.53.81-.8,1.2-.8,1.2a33.39,33.39,0,0,0-3-1.54c-.85-.33-1.57-.58-2.1-.75a5.38,5.38,0,0,1,.8-1.23c.08-.12.16-.2.24-.2C242.64,37.33,243.57,37.72,244.31,38.06Zm.75-6.36c.74.51,1.41.93,2,1.29,0,.06-.06.14-.14.25l-.79,1.18a23.93,23.93,0,0,0-2.69-1.65,16.2,16.2,0,0,0-1.89-.87,6.11,6.11,0,0,1,.8-1.24c.08-.11.16-.19.24-.19C243.57,30.92,244.39,31.34,245.06,31.7Zm9.68.67c-.32.23-.69.45-1.06.68a14,14,0,0,1-1.52.67,10.39,10.39,0,0,1-1.09.31V46.66A38.61,38.61,0,0,0,254.8,45a.18.18,0,0,1,.13-.06c.11,0,.18.09.18.23a6.25,6.25,0,0,1-.1,1.54c-2,1.06-4,2-6.12,2.83-.27.5-.45.75-.61.75s-.53-.75-1.07-2.3a16.64,16.64,0,0,0,2-.61V32.12c0-.22.08-.33.29-.33l1.25.53a9,9,0,0,0,1-.37,6,6,0,0,0,1.44-.78,4.64,4.64,0,0,0,.87-.79l.08,0c.11,0,.19.08.3.25a16.88,16.88,0,0,1,1.17,1.62c0,.17-.08.23-.22.23l-.61-.11A.15.15,0,0,0,254.74,32.37Zm3.7,19.11c0,.22-.13.33-.4.33h-1c-.29,0-.42-.11-.42-.33v-19c0-.28.13-.45.42-.45h6.34c.32,0,.5.17.5.45V47.13a1.55,1.55,0,0,1-1,1.43,6.78,6.78,0,0,1-2.36.51c-.19,0-.3-.09-.32-.31a6.68,6.68,0,0,0-.62-1.77c0-.05.06-.11.19-.11a4.54,4.54,0,0,0,1.86-.19A.71.71,0,0,0,262,46V33.77h-3.54Z"/><path class="cls-1" d="M248.2,64.8a23.91,23.91,0,0,0,1.06-4c.06-.22.16-.36.35-.36,1.51.56,2.29.92,2.29,1.09s-.11.28-.3.33a.61.61,0,0,0-.61.45c-.24.9-.5,1.74-.77,2.52h13.44a.28.28,0,0,1,.29.31V66.2c0,.31-.11.45-.29.45H249.53c-.19.45-.37.84-.53,1.23a36.1,36.1,0,0,1-1.87,3.39V85.36c0,.23-.18.34-.53.34h-1c-.29,0-.42-.11-.42-.34V73.77a21.54,21.54,0,0,1-2.88,2.6.72.72,0,0,1-.45.14.51.51,0,0,1-.48-.34,3.67,3.67,0,0,0-.64-.72.39.39,0,0,1-.21-.37.26.26,0,0,1,.19-.22,6.8,6.8,0,0,0,1.86-1.26,14.32,14.32,0,0,0,2.79-3,17.57,17.57,0,0,0,2.19-3.95h-5.8c-.22,0-.3-.14-.3-.45V65.11c0-.19.08-.31.3-.31Zm7.13,9V69.4c0-.23.13-.34.42-.34,1.39,0,2.08.11,2.08.34s-.11.39-.27.39-.26.25-.26.59v3.39h5.32c.18,0,.29.16.29.44v1.1c0,.28-.11.42-.29.42H257.3v7.45h6.36c.18,0,.29.14.29.45v.86c0,.28-.11.42-.29.42H249c-.22,0-.32-.14-.32-.42v-.86c0-.31.1-.45.32-.45h6.33V75.73h-5.51c-.21,0-.32-.14-.32-.42v-1.1c0-.28.11-.44.32-.44Z"/><path class="cls-1" d="M245.24,96.06V90.79c0-.22.14-.34.43-.34,1.3,0,2,.12,2,.34s-.11.39-.27.42-.24.22-.24.56v4.29h3.52c.21,0,.31.14.31.42v.86c0,.31-.1.45-.31.45h-3.33a21.07,21.07,0,0,0,1.54,3.2,15.48,15.48,0,0,0,2.9,3.61.37.37,0,0,1,.24.31s-.08.14-.18.22a4.6,4.6,0,0,1-.78.84c-.1.17-.21.25-.29.25a.61.61,0,0,1-.42-.22,15.68,15.68,0,0,1-2.5-3.42,14.55,14.55,0,0,1-.7-1.37V115.3c0,.22-.16.33-.42.33h-1c-.29,0-.43-.11-.43-.33V103.56a29.6,29.6,0,0,1-1.25,2.8,19.84,19.84,0,0,1-2,3.36.55.55,0,0,1-.46-.16,9.85,9.85,0,0,1-1.17-.59c-.16,0-.24,0-.24-.11a27,27,0,0,0,2.48-3.9,25.15,25.15,0,0,0,1.46-3.5,34.39,34.39,0,0,0,1-3.67H241.2c-.21,0-.32-.14-.32-.45v-.86c0-.28.11-.42.32-.42Zm18.31-4.71c.26,0,.4.11.4.31V115.3c0,.22-.14.33-.4.33h-1c-.29,0-.42-.11-.42-.33v-1.21h-7.8v1.21c0,.22-.16.33-.43.33h-1c-.27,0-.4-.11-.4-.33V91.77c0-.28.13-.42.4-.42Zm-1.46,7.2V93.09h-7.8v5.46Zm0,6.89v-5.13h-7.8v5.13Zm0,6.92V107.2h-7.8v5.16Z"/><path class="cls-1" d="M248,121.71c0,.17-.08.25-.21.25a.72.72,0,0,0-.62.31c-.58,1.82-1.14,3.36-1.67,4.59v18.6c0,.22-.16.34-.43.34h-1c-.26,0-.4-.12-.4-.34V130.31c-.5.78-1.14,1.71-1.88,2.77a.69.69,0,0,1-.54-.25l-.82-.7a.46.46,0,0,1-.19-.34c.64-.9,1.28-1.82,1.94-2.83a25.18,25.18,0,0,0,2.19-4.31,33.75,33.75,0,0,0,1.27-4.15c0-.14.11-.22.22-.22A8.13,8.13,0,0,1,248,121.71Zm3.94-.42c0,.25-.11.39-.27.39s-.24.25-.24.59v16.08l.19-.09a50.08,50.08,0,0,0,5.34-3.08.27.27,0,0,1,.19-.11c.11,0,.19.11.19.31a6.89,6.89,0,0,1-.11,1.65,86.6,86.6,0,0,1-8.73,5c-.29.5-.53.76-.71.76s-.51-.79-1-2.41a21.27,21.27,0,0,0,2.79-1.15v-18c0-.23.13-.34.43-.34C251.23,121,251.9,121.06,251.9,121.29Zm11.33.08c0,.17-.13.31-.35.42a.54.54,0,0,0-.37.59q-.24,8.56-.64,11.09a26.57,26.57,0,0,1-1.14,4.9c-.11.28-.19.51-.27.73a28.69,28.69,0,0,1,2.58,2.1c.91.93,1.71,1.77,2.37,2.5a1.45,1.45,0,0,1-.13.25l-.91,1.29a29.32,29.32,0,0,0-3.16-3.31c-.59-.53-1.09-1-1.49-1.26a8.35,8.35,0,0,1-1.15,1.54,11.4,11.4,0,0,1-4.17,2.91,9.06,9.06,0,0,1-1.76.56.39.39,0,0,1-.4-.28,5,5,0,0,0-.72-1.17.59.59,0,0,1-.13-.42,12.22,12.22,0,0,0,4.07-1.57,9,9,0,0,0,2.63-2.66,15.25,15.25,0,0,0,1.57-4.4,49.77,49.77,0,0,0,.8-7.65c0-2.07.06-4.14.06-6.24,0-.23.05-.34.21-.34A7.72,7.72,0,0,1,263.23,121.37ZM257,127.2a25.42,25.42,0,0,1,1.3,3.47,5.27,5.27,0,0,1-1.75.56,15.54,15.54,0,0,0-1-2.94,23.24,23.24,0,0,0-2.12-4.06c0-.11.47-.45,1.46-1A42.66,42.66,0,0,1,257,127.2Z"/><path class="cls-1" d="M248.44,150.61a.38.38,0,0,1,.34.39c0,.28-.13.39-.4.39a.57.57,0,0,0-.32.37,34.23,34.23,0,0,1-1.54,3.27h4.13c.26,0,.42.12.42.34V174c0,.22-.16.33-.42.33h-1c-.27,0-.4-.11-.4-.33v-1.43h-5.62v2.18c0,.23-.15.34-.42.34h-1c-.29,0-.42-.11-.42-.34V155.48c0-.28.13-.45.42-.45h2.4c.66-1.26,1.35-2.8,2.07-4.59a.32.32,0,0,1,.32-.22Zm.77,12.21v-6h-5.62v6Zm0,8v-6.24h-5.62v6.24Zm9.15-20.08c.19.17.29.28.29.39a.31.31,0,0,1-.21.31.38.38,0,0,0-.4.34c-.4,1.23-.74,2.21-1.06,3h6.57a.47.47,0,0,1,.5.53q0,9.57-.31,13.22a16.21,16.21,0,0,1-1,4.68,2.74,2.74,0,0,1-1.44,1.54,8,8,0,0,1-3,.47c-1.11,0-1.7-.19-1.7-.56a8.49,8.49,0,0,0-.37-1.4c0-.17,0-.22.11-.22l.21,0c.5,0,1,.08,1.35.08a4.39,4.39,0,0,0,2.67-.59c.53-.42.9-1.59,1.11-3.53a109.8,109.8,0,0,0,.48-12.52h-6a17,17,0,0,1-.91,1.65,15.89,15.89,0,0,1-1.59,2,1.66,1.66,0,0,1-.59-.09l-1-.42c-.13,0-.18-.08-.18-.14a.28.28,0,0,1,.1-.25,14.07,14.07,0,0,0,2.34-3.22,18.79,18.79,0,0,0,1.07-2.35,28.34,28.34,0,0,0,1-3.39c.05-.12.13-.2.21-.2Zm-2.29,10.78a45.58,45.58,0,0,1,2.69,5.47c0,.28-.05.42-.16.44a2.91,2.91,0,0,1-1.49.65q-1.35-3.5-2.5-5.8c0-.2.37-.48,1.14-.87A.46.46,0,0,1,256.07,161.5Z"/><path class="cls-1" d="M261.26,180.49a1,1,0,0,1,.4.22,3.51,3.51,0,0,1,.43,1c-.22,2-.38,3.9-.43,5.63-.05,1.57-.08,3.14-.08,4.65a49.08,49.08,0,0,0,.53,8.38c.32,1.65.64,2.46.91,2.46s.32-.14.42-.45a12.89,12.89,0,0,0,.48-2.74.29.29,0,0,1,.24-.2.25.25,0,0,1,.24.17,4.82,4.82,0,0,0,.85.73c.11.06.16.2.16.42a14.6,14.6,0,0,1-1.46,4.17,1.17,1.17,0,0,1-.93.65c-.54,0-1-.59-1.55-1.77a16.64,16.64,0,0,1-1.25-4.93,52.37,52.37,0,0,1-.42-6.89c0-2.52.18-5.77.56-9.72H245v9.5a38.77,38.77,0,0,1-.5,6.94A17.08,17.08,0,0,1,243.2,203a10.35,10.35,0,0,1-1.39,2.47.59.59,0,0,1-.26-.06,5.92,5.92,0,0,0-1-.79.57.57,0,0,1-.11-.36,11.87,11.87,0,0,0,1.41-2.94,24.89,24.89,0,0,0,.88-4.09,43.8,43.8,0,0,0,.29-5.46V180.94a.4.4,0,0,1,.43-.45Zm-4.28,5a20.43,20.43,0,0,1-2.69.76c-.45.11-.88.19-1.25.25v2.63h4.15c.27,0,.43.12.43.31v8.43c0,.23-.16.34-.43.34H253v3.19c1.3-.17,2.55-.33,3.72-.56-.31-.45-.66-.87-1-1.31,0-.12.46-.42,1.36-.87a30.32,30.32,0,0,1,2.1,3.05,18.69,18.69,0,0,1,1.31,2.74,7.64,7.64,0,0,1-1.65.54,9.32,9.32,0,0,0-1-2.3.13.13,0,0,1,0-.08c-3.68.5-7.4,1-11.15,1.4q-.48.75-.72.75c-.19,0-.53-.81-1-2.41,1.68-.11,3.73-.36,6.12-.7h.11v-3.44h-4c-.26,0-.4-.11-.4-.34v-8.43c0-.19.14-.31.4-.31h4v-2.35a1.28,1.28,0,0,1-.32.06,30.77,30.77,0,0,1-3.43.19c-.32,0-.48-.11-.54-.36-.26-.34-.53-.73-.79-1.15,0-.22.08-.34.29-.34H248a23.24,23.24,0,0,0,3.32-.19,14.21,14.21,0,0,0,2.53-.42,9.78,9.78,0,0,0,2.45-1,.4.4,0,0,1,.21-.09.69.69,0,0,1,.45.14c1,.95,1.52,1.51,1.52,1.74s-.11.33-.29.33l-.75-.33A1.59,1.59,0,0,0,257,185.5Zm-5.8,5.38h-2.5v5.57h2.5Zm4.57,0H253v5.57h2.71Z"/><path class="cls-1" d="M260.83,210.43c.27,0,.43.11.43.33v8.32c0,.22-.16.31-.43.31h-1c-.27,0-.4-.09-.4-.31v-.34h-5.83v1.85h10.91c.13,0,.21.11.21.34v.87c0,.31-.08.45-.21.45H241c-.16,0-.22-.14-.22-.45v-.87c0-.23.06-.34.22-.34h10.69v-1.85H246v.34c0,.22-.16.31-.43.31h-1c-.3,0-.43-.09-.43-.31v-8.32c0-.22.13-.33.43-.33ZM249,231c.13.17.21.28.21.39s-.11.11-.27.11a1.29,1.29,0,0,0-.58.17,18.61,18.61,0,0,1-2.1,1.68,22.61,22.61,0,0,1-3.41,1.77.44.44,0,0,1-.43-.23c-.37-.3-.66-.56-.93-.78-.13-.06-.18-.14-.18-.2s0-.11.13-.14a7.53,7.53,0,0,0,1.62-.58,12.45,12.45,0,0,0,2.37-1.49,23.21,23.21,0,0,0,1.92-1.68c.05-.11.1-.17.18-.17Zm11.33-7.37c.27,0,.4.12.4.31v4.82c0,.22-.13.34-.4.34h-6.76v4.25c0,1.4-1.09,2.1-3.22,2.1h-.74c-.14,0-.19-.19-.19-.53a4.17,4.17,0,0,0-.42-1.45v-.12a3.89,3.89,0,0,0,1.25.23c.95,0,1.43-.34,1.43-1v-3.5h-6.44c-.26,0-.39-.12-.39-.34V224c0-.19.13-.31.39-.31Zm-.93-9.86V212H246v1.84Zm0,3.39v-1.84H246v1.84Zm-.53,8.1H246.71v2.18h12.16Zm2.1,6.52c1,.76,1.94,1.41,2.69,2l-.14.23c-.53.78-.8,1.2-.8,1.2a30.39,30.39,0,0,0-3.64-2.58,20.07,20.07,0,0,0-2.61-1.37,6,6,0,0,1,.83-1.23c.08-.11.16-.2.21-.2C258.89,230.62,260.06,231.26,261,231.82Z"/><path class="cls-1" d="M246.81,240.47c0,.26-.1.4-.26.42s-.27.23-.27.56v3.17h1.89a1.29,1.29,0,0,1,.45.11l.59.59a1.88,1.88,0,0,1,.11.5c-.56,1.18-1.23,2.41-2,3.7-.27.48-.54.9-.8,1.29a5.11,5.11,0,0,0,.4.78.15.15,0,0,1,.05-.08,7.54,7.54,0,0,0,1.09-1.29,4.64,4.64,0,0,0,.8-1.45c.05-.12.13-.2.21-.2l1.41.62c.06,0,.08.05.14.05v-8a.37.37,0,0,1,.42-.42h12.16c.27,0,.43.11.43.31v14.12c0,.22-.16.33-.43.33h-1c-.29,0-.42-.11-.42-.33v-1.85H258v4h5.4c.22,0,.32.17.32.45v.87c0,.3-.1.44-.32.44H258v3.73h6.55c.21,0,.32.14.32.42v.9c0,.28-.11.42-.32.42H249.93c-.22,0-.32-.14-.32-.42v-.9c0-.28.1-.42.32-.42h6.22v-3.73h-4.87c-.21,0-.32-.14-.32-.44v-.87c0-.28.11-.45.32-.45h4.87v-4h-3.62v1.73c0,.23-.16.34-.42.34h-1c-.29,0-.42-.11-.42-.34v-5.37c-.22,0-.32.08-.35.19a12.24,12.24,0,0,1-1.54,2.27c-.14.14-.24.2-.3.2a.67.67,0,0,1-.4-.2l-.95-.45c-.06,0-.11,0-.11,0a7.75,7.75,0,0,0,.88,1.48,10.73,10.73,0,0,0,2.05,2.27.45.45,0,0,1-.19.42l-1.06,1c-.06,0-.08,0-.14-.09a7.4,7.4,0,0,1-1.3-1.54,17.63,17.63,0,0,1-1.06-1.93v11.76c0,.23-.14.34-.4.34h-1c-.29,0-.43-.11-.43-.34V253.64a28,28,0,0,1-2.68,2.49.51.51,0,0,1-.46-.19c-.32-.28-.63-.56-.95-.79a.21.21,0,0,1-.16-.22.4.4,0,0,1,.18-.31,15.61,15.61,0,0,0,3-2.52,20.31,20.31,0,0,0,2.26-3c.42-.62,1-1.54,1.7-2.75H241c-.22,0-.32-.14-.32-.44v-.87c0-.28.1-.45.32-.45h3.43v-4.15c0-.22.13-.33.43-.33C246.15,240.14,246.81,240.25,246.81,240.47Zm9.34,5.69v-3.61h-3.62v3.61Zm0,5.46v-3.7h-3.62v3.7Zm1.89-5.46h3.73v-3.61H258Zm3.73,5.46v-3.7H258v3.7Z"/><path class="cls-1" d="M253.73,284.44a5.46,5.46,0,0,1-1.7,2l-.69-.81a4.39,4.39,0,0,0,1.78-3.19h-2V279h3.19v3.08A5,5,0,0,1,253.73,284.44Z"/><path class="cls-1" d="M254.61,301.55c0,.14-.16.25-.43.34a1,1,0,0,0-.74.45c-.37.61-.75,1.17-1.17,1.73h10.64c.35,0,.53.14.53.42v18.15a2,2,0,0,1-1.33,1.8,12.94,12.94,0,0,1-3.24.64.35.35,0,0,1-.38-.34,6.26,6.26,0,0,0-.66-1.84c0-.12.08-.14.26-.14a7.72,7.72,0,0,0,2.85-.28.89.89,0,0,0,.53-.87V305.92H244.21v18.6c0,.22-.19.34-.51.34h-1c-.29,0-.42-.12-.42-.34V304.41c0-.22.13-.34.42-.34h7.13a5.84,5.84,0,0,0,.72-.89,11.73,11.73,0,0,0,1.36-2.58c0-.17.11-.25.24-.25A19.52,19.52,0,0,1,254.61,301.55Zm2.9,7.76c.27,0,.42.11.42.34v9.63c0,.23-.15.34-.42.34h-1c-.26,0-.4-.11-.4-.34v-1.09h-6.65v1.62c0,.23-.16.34-.42.34h-1c-.29,0-.43-.11-.43-.34V309.76a.4.4,0,0,1,.43-.45Zm-1.44,7.12v-5.35h-6.65v5.35Z"/><path class="cls-1" d="M248.46,331.15c0,.17-.08.26-.18.26a.9.9,0,0,0-.64.3,43.62,43.62,0,0,1-1.86,4.85v18.23c0,.23-.16.34-.43.34h-1c-.29,0-.42-.11-.42-.34V339.86c-.53.79-1.17,1.71-2,2.78a.7.7,0,0,1-.53-.26l-.83-.7a.43.43,0,0,1-.18-.33c.66-.9,1.35-1.85,2-2.86a23.7,23.7,0,0,0,2.32-4.37A33.72,33.72,0,0,0,246.1,330c0-.14.08-.23.18-.23A8.2,8.2,0,0,1,248.46,331.15Zm13.94,7.9c.27,0,.4.11.4.31v4.71c0,.22-.13.33-.4.33h-3.64v1.85h4.68c.14,0,.22.11.22.34v.86c0,.31-.08.45-.22.45h-4.68v2.52h5.93c.14,0,.22.12.22.31v.9c0,.28-.08.42-.22.42h-5.93v2.85c0,.23-.16.34-.43.34h-1c-.27,0-.4-.11-.4-.34v-2.85h-9.37c-.16,0-.21-.14-.21-.42v-.9c0-.19.05-.31.21-.31h2.18v-3.83c0-.23.14-.34.43-.34h6.76V344.4h-6.15c-.26,0-.4-.11-.4-.33v-4.71c0-.2.14-.31.4-.31Zm-8.11-7.45.32-1.43c0-.22.13-.33.4-.33,1.33,0,2,.11,2,.33s-.1.39-.26.42-.27.23-.27.56l-.13.45h5.75c.34,0,.53.11.53.34l-.56,3.69h2.42c.13,0,.21.12.21.34v.87c0,.31-.08.45-.21.45H248.17c-.16,0-.21-.14-.21-.45V336c0-.22,0-.34.21-.34h5.22l.53-2.4h-3.46c-.16,0-.21-.14-.21-.42v-.87c0-.23.05-.34.21-.34Zm-2.69,18.82h5.3V347.9h-5.3Zm9.34-9.74h-8.73v2.07h8.73Zm-.82-5.05.5-2.4h-4.71l-.64,2.4Z"/><path class="cls-1" d="M251.79,367.45c.05-.34.08-.7.11-1a44,44,0,0,0,0-6.52l2.82.33a.42.42,0,0,1-.24.39.71.71,0,0,0-.4.59c-.06,2.63-.19,4.71-.35,6.25h10.54c.21,0,.32.14.32.42V369c0,.28-.11.42-.32.42h-9.95a23.44,23.44,0,0,0,1.11,3.53,19.35,19.35,0,0,0,1.6,3.39,15.63,15.63,0,0,0,3.38,3.95,11.35,11.35,0,0,0,4,2.35.3.3,0,0,1,.19.25c0,.17-.11.31-.3.48a11,11,0,0,0-1,1.23.53.53,0,0,1-.48.36,4.36,4.36,0,0,1-1.06-.7,20,20,0,0,1-4.87-4.42,17,17,0,0,1-2.34-4.12,25.32,25.32,0,0,1-1.44-4.26c-.13.56-.26,1.12-.42,1.63a24.15,24.15,0,0,1-1.87,4.26,15.31,15.31,0,0,1-2.47,3.52,31.79,31.79,0,0,1-5.56,4.09c-.16,0-.27-.11-.37-.33a9.76,9.76,0,0,0-1-1.09.63.63,0,0,1-.27-.45c.56-.26,1.31-.59,2.21-1.1a14.71,14.71,0,0,0,2.53-1.79,10.11,10.11,0,0,0,2.18-2.38,17,17,0,0,0,1.94-3.33,24,24,0,0,0,1.28-3.73c.11-.45.19-.89.27-1.34H241.31c-.22,0-.32-.14-.32-.42v-1.12c0-.28.1-.42.32-.42Z"/><path class="cls-1" d="M198,15.74V12.46c0-.22.13-.33.4-.33,1.3,0,2,.11,2,.33s-.08.4-.24.42-.27.23-.27.56v2.3h4.58c.21,0,.32.17.32.45v.87c0,.31-.11.45-.32.45h-4.58v4c.85-.11,1.76-.28,2.77-.45s1.59-.28,2.13-.39c0,0,.08.06.08.11a5.91,5.91,0,0,0-.16,1.38c0,.19-.06.28-.14.28-.8.11-1.59.25-2.39.42-2.64.56-5.35,1.14-8.12,1.76-.18.45-.34.7-.5.76a.49.49,0,0,1-.35-.17l-.69-2.58c.77-.05,2.61-.33,5.51-.81V17.51h-4.9c-.21,0-.32-.14-.32-.45v-.87c0-.28.11-.45.32-.45Zm7.15-14.2c.22,0,.32.14.32.42v.87c0,.31-.1.45-.32.45h-5.74c-1.12,2.8-1.94,4.87-2.48,6.16,1.6-.28,3.28-.59,5-.95-.32-.76-.64-1.43-.91-2,0-.17.38-.47,1.15-.87a.43.43,0,0,1,.32.12A47.92,47.92,0,0,1,204.92,11c0,.28,0,.44-.16.44a2.91,2.91,0,0,1-1.49.65c-.26-.73-.53-1.43-.77-2.1-2.82.73-5.48,1.29-7.95,1.68-.19,0-.32.14-.4.39-.06.48-.19.7-.46.7s-.61-.9-1.14-2.74a11.22,11.22,0,0,0,1.65-.2,2.55,2.55,0,0,0,.61-.08c.11-.28.21-.56.35-.85.85-2,1.62-3.92,2.29-5.65H193c-.22,0-.32-.14-.32-.45V2c0-.28.1-.42.32-.42ZM210.27.7c.16.17.27.31.27.39a.34.34,0,0,1-.22.34c-.16,0-.26.17-.32.47-.16,1-.29,1.77-.42,2.47h7c.21,0,.31.17.31.45v.87c0,.3-.1.44-.31.44h-1.49a44.9,44.9,0,0,1-.78,8.15,21.58,21.58,0,0,1-1.89,5.44,11.41,11.41,0,0,0,1,1.4A20.62,20.62,0,0,0,217,24.51c0,.11-.08.19-.24.31-.31.22-.66.5-1,.81a.78.78,0,0,1-.48.19,26.92,26.92,0,0,1-2.56-2.49,14.62,14.62,0,0,1-1.43-1.85,13.74,13.74,0,0,1-2.1,2.08,19.3,19.3,0,0,1-4.1,2.49c-.48-.53-.91-1-1.25-1.43a13,13,0,0,0,3.14-1.79,13.33,13.33,0,0,0,3.24-3.2,20.08,20.08,0,0,1-1.51-4.22A24.76,24.76,0,0,1,208,11a.39.39,0,0,0,0,.11,26.59,26.59,0,0,1-1.23,2.83,1.93,1.93,0,0,1-.58-.08l-1-.42c-.13-.06-.19-.09-.19-.14a.68.68,0,0,1,.08-.34,25.44,25.44,0,0,0,1.78-4.54c.3-1,.56-2.12.8-3.3s.48-2.83.72-4.76c0-.2.11-.31.16-.31ZM209.1,8.63c.32,0,.5.16.5.44a23,23,0,0,0,.59,5,28.31,28.31,0,0,0,1.06,3.47,16.85,16.85,0,0,0,1.17-3.64,39.25,39.25,0,0,0,.8-7.76h-4c-.1.45-.18.84-.24,1.12-.13.48-.26.93-.37,1.38Z"/><path class="cls-1" d="M197,38c.16.17.26.28.26.37a.31.31,0,0,1-.21.31c-.16,0-.24.11-.27.28a4.39,4.39,0,0,1-.16.61h8c.19,0,.29.14.29.42q-.07,6.39-.34,9.16a23.4,23.4,0,0,1-.91,5c-.37,1.15-1.33,1.73-2.9,1.73-1.3,0-2-.19-2-.53a4.32,4.32,0,0,0-.77-1.46v-.19a26.33,26.33,0,0,0,2.79.19,1.49,1.49,0,0,0,1.54-1.23,16.82,16.82,0,0,0,.67-3.86c.16-1.52.27-4,.37-7.48h-7.26c-.11.28-.19.53-.24.7-.21.59-.43,1.12-.64,1.6h5.46c.26,0,.42.11.42.33v7.42c0,.31-.16.45-.42.45h-1c-.22,0-.32-.14-.32-.45v-.53h-2.69v1.09c0,.23-.16.34-.42.34h-1c-.22,0-.32-.11-.32-.34V44.36a16.16,16.16,0,0,1-.93,1.43,1.6,1.6,0,0,1-.53-.08c-.32-.14-.64-.28-1-.4-.11-.05-.16-.11-.16-.16a.26.26,0,0,1,.05-.2,12.13,12.13,0,0,0,1.57-2.66,17.33,17.33,0,0,0,.72-2c.21-.73.42-1.65.64-2.77,0-.12.08-.2.13-.2Zm1.73-7.2c0,.26-.11.4-.27.43s-.27.22-.27.56v4.92c0,.23-.13.34-.39.34h-1c-.29,0-.43-.11-.43-.34V34.64H193c-.22,0-.32-.14-.32-.45v-.86c0-.28.1-.45.32-.45h3.32V30.8c0-.22.14-.33.43-.33C198,30.47,198.7,30.58,198.7,30.8Zm.61,18.38V45.26h-2.69v3.92Zm4-18.26c0,.25-.1.39-.26.42s-.27.22-.27.56v1h3.43c.22,0,.32.17.32.45v.86c0,.31-.1.45-.32.45h-3.43v2.19c0,.22-.13.33-.4.33h-1c-.29,0-.42-.11-.42-.33V30.92c0-.23.13-.34.42-.34C202.61,30.58,203.27,30.69,203.27,30.92Zm6.79-.51a.84.84,0,0,1,.26.39.36.36,0,0,1-.18.34c-.16,0-.27.14-.3.39-.26,1.4-.47,2.55-.66,3.45h7.4c.21,0,.31.14.31.42v.87c0,.3-.1.44-.31.44h-1.49a47.11,47.11,0,0,1-.67,7.68,20.61,20.61,0,0,1-2,5.69.26.26,0,0,0-.08.14,8.9,8.9,0,0,0,1.68,1.84A10,10,0,0,0,217,53.88a.47.47,0,0,1-.24.4,12.51,12.51,0,0,0-.95,1.12c-.19.17-.3.25-.35.25a13.58,13.58,0,0,1-3-2.19,7.45,7.45,0,0,1-1.39-1.54,10.22,10.22,0,0,1-1.3,1.26,15.64,15.64,0,0,1-3.62,2.36c-.48-.53-.9-1-1.25-1.43a10.71,10.71,0,0,0,2.77-1.68,12.27,12.27,0,0,0,2.31-2.3A14.29,14.29,0,0,1,209,48a17.17,17.17,0,0,1-1.12-4,20.78,20.78,0,0,1-.34-3.64c-.27.59-.51,1.09-.75,1.54a1.25,1.25,0,0,1-.58-.11l-1-.4c-.13,0-.18-.11-.18-.16a.43.43,0,0,1,.08-.28,20.87,20.87,0,0,0,1.59-4c.27-.9.54-1.85.75-2.86s.45-2.46.66-4.15c0-.16.08-.25.14-.25Zm-.77,8.83a23,23,0,0,0,.37,4.34,16.55,16.55,0,0,0,1,3.44,7.6,7.6,0,0,0,.53,1.23A19.51,19.51,0,0,0,212.53,44a42.32,42.32,0,0,0,.69-7.32h-4.49c-.24.9-.48,1.74-.75,2.53Z"/><path class="cls-1" d="M205.72,74.89a5.74,5.74,0,0,1-1.7,2l-.69-.82a4.39,4.39,0,0,0,1.78-3.19h-2V69.48h3.19v3.08A5.06,5.06,0,0,1,205.72,74.89Z"/><path class="cls-1" d="M214,91.24c.34,0,.53.14.53.42v21a2.3,2.3,0,0,1-1.3,2,10.76,10.76,0,0,1-3.17.76c-.21,0-.32-.11-.35-.34a5,5,0,0,0-.58-1.73c0-.11.08-.17.27-.17a6.14,6.14,0,0,0,2.74-.31,1.21,1.21,0,0,0,.5-1.06v-4.48h-6.76v7.33c0,.2-.13.31-.4.31h-1c-.3,0-.43-.11-.43-.31v-7.33h-7.05c-.05.25-.08.47-.11.7a19.31,19.31,0,0,1-1.27,4.76,12.42,12.42,0,0,1-1.44,2.74.76.76,0,0,1-.27,0,4.23,4.23,0,0,0-.95-.76.52.52,0,0,1-.14-.39,12.54,12.54,0,0,0,1.47-3.28,30.8,30.8,0,0,0,1-4.59,55.5,55.5,0,0,0,.3-6.14V91.66c0-.28.13-.42.4-.42Zm-10,14.31v-5.46h-6.65v.22c0,2-.08,3.78-.19,5.24Zm0-7.2V93h-6.65v5.37Zm1.86,0h6.76V93h-6.76Zm6.76,7.2v-5.46h-6.76v5.46Z"/><path class="cls-1" d="M204.87,121.34c.16.14.26.26.26.37s-.18.33-.5.33a1.1,1.1,0,0,0-.88.34c-.21.28-.4.53-.56.76h9.13a.87.87,0,0,1,.58.19c.56.48.86.81.86,1-.86,1.35-1.79,2.66-2.8,3.95a31.17,31.17,0,0,1-3.4,3.64,21.35,21.35,0,0,1-3.17,2.16h10.32c.32,0,.51.11.51.31v10.5c0,.22-.19.34-.51.34h-1.06c-.27,0-.4-.12-.4-.34v-1.09H202.34v1.31c0,.23-.18.34-.53.34h-1c-.29,0-.42-.11-.42-.34v-9.3a19.85,19.85,0,0,1-1.92.56,15.75,15.75,0,0,1-4,.76.64.64,0,0,1-.64-.53c-.27-.56-.58-1.21-.93-1.88,0-.28,0-.45.11-.45l1.46.12a16.52,16.52,0,0,0,3.91-.45,19,19,0,0,0,3.57-.95,12.09,12.09,0,0,0,1.72-.87,38.5,38.5,0,0,0-4.12-3.42c0-.22.45-.53,1.36-1a.48.48,0,0,1,.32.11,41.94,41.94,0,0,1,4.23,3.08l.58-.45a21.25,21.25,0,0,0,3.28-3.3c.61-.73,1.22-1.51,1.8-2.3h-9.36a.61.61,0,0,1-.19.2,16.25,16.25,0,0,1-1.91,1.88,23.86,23.86,0,0,1-2.29,1.76,16,16,0,0,1-1.86,1.09.45.45,0,0,1-.43-.28,5.49,5.49,0,0,0-.85-1.06c-.21-.11-.29-.2-.29-.28s0-.09.13-.14a17.62,17.62,0,0,0,2.66-1.35,19.08,19.08,0,0,0,2.93-2.35,14.32,14.32,0,0,0,1.62-1.79,12,12,0,0,0,1.25-2c.13-.17.24-.25.35-.25ZM213.25,142v-6H202.34v6Z"/><path class="cls-1" d="M204.1,151.76v-1.43c0-.2.13-.31.42-.31,1.31,0,2,.11,2,.31s-.1.39-.26.42-.27.22-.27.56v.45h7.29c.27,0,.4.11.4.33v2.3h2.5c.13,0,.21.11.21.34v.64c0,.31-.08.45-.21.45h-2.5v2.29c0,.28-.13.42-.4.42H206v1.21h8.22c.13,0,.21.11.21.34v.64c0,.31-.08.45-.21.45H206v1.31h10.4c.14,0,.22.12.22.34v.64c0,.31-.08.45-.22.45H193.08c-.16,0-.21-.14-.21-.45v-.64c0-.22,0-.34.21-.34h11v-1.31h-8.62c-.16,0-.22-.14-.22-.45v-.64c0-.23.06-.34.22-.34h8.62v-1.21h-7.8c-.16,0-.21-.14-.21-.42v-.67c0-.22,0-.33.21-.33h7.8v-1.29H193.4c-.16,0-.21-.14-.21-.45v-.64c0-.23.05-.34.21-.34h10.7v-1.21h-7.8c-.16,0-.21-.13-.21-.44v-.65c0-.22,0-.33.21-.33Zm11.54,21.56c.11,0,.19.09.19.31v.67c0,.28-.08.42-.19.42H194c-.16,0-.21-.14-.21-.42v-.67c0-.22,0-.31.21-.31Zm-2.5-8.31c.27,0,.43.11.43.3V172c0,.22-.16.31-.43.31H197c-.27,0-.4-.09-.4-.31v-6.7c0-.19.13-.3.4-.3Zm-9,3.05v-1.63h-5.62v1.63Zm0,1.2h-5.62v1.66h5.62ZM206,154.39h5.83v-1.21H206Zm0,2.72h5.83v-1.29H206Zm0,10.95h5.72v-1.63H206Zm5.72,1.2H206v1.66h5.72Z"/><path class="cls-1" d="M200.77,180.82c0,.09-.1.17-.32.23a.79.79,0,0,0-.53.36c-.24.45-.48.87-.74,1.26h3.16c.32,0,.51.12.51.34v8.35c.42-.09.85-.2,1.27-.31a.39.39,0,0,1,.19-.06.21.21,0,0,1,.21.23,6.25,6.25,0,0,1-.1,1.54c-.54.14-1.07.25-1.57.33v9.69a2.25,2.25,0,0,1-1.09,1.94,8.87,8.87,0,0,1-2.64.73c-.21,0-.32-.12-.34-.34a6.23,6.23,0,0,0-.62-1.74c0-.11.06-.17.22-.17a4.58,4.58,0,0,0,2.21-.3,1.09,1.09,0,0,0,.39-1v-8.43c-.53.12-1.06.23-1.57.31v6.25q0,.33-.39.33h-1a.29.29,0,0,1-.32-.33v-5.88c-.56.11-1.12.22-1.65.3-.08,1.43-.19,2.66-.35,3.67a22.69,22.69,0,0,1-1.06,4.76,13.34,13.34,0,0,1-1.2,2.75.63.63,0,0,1-.29-.06,5.12,5.12,0,0,0-1-.78.6.6,0,0,1-.11-.37,14.8,14.8,0,0,0,1.18-3.3,35.42,35.42,0,0,0,.77-4.59c0-.56.08-1.12.13-1.71a1.41,1.41,0,0,1-.43.08c-.26.51-.45.76-.61.76s-.5-.76-1-2.3c.64-.08,1.36-.19,2.16-.31,0-.84,0-1.71,0-2.63V183c0-.22.13-.34.42-.34H197a4.42,4.42,0,0,0,.48-.7,9,9,0,0,0,.93-2c0-.11.08-.2.19-.2A17,17,0,0,1,200.77,180.82Zm-3,11.6c1.09-.2,2.16-.42,3.19-.64v-7.45h-4.89v6.13c0,.81,0,1.57,0,2.3C196.59,192.64,197.18,192.53,197.79,192.42Zm1.94-4a16.6,16.6,0,0,1,.62,2.07,6.27,6.27,0,0,1-1.65.53,14.65,14.65,0,0,0-.43-1.71,17.28,17.28,0,0,0-.93-2.32c0-.11.45-.42,1.36-.9A24,24,0,0,1,199.73,188.39Zm14.24,4a.57.57,0,0,1,.42.17,3.58,3.58,0,0,1,.51.92,39.7,39.7,0,0,1-1.28,3.9,15.89,15.89,0,0,1-1.49,2.88,5.63,5.63,0,0,1-.58.76,8.48,8.48,0,0,0,2.21,1.54,15.32,15.32,0,0,0,3.4,1.34c.16.06.24.11.24.2a.55.55,0,0,1-.13.31,8,8,0,0,0-.93,1c-.14.17-.24.25-.3.25a1.65,1.65,0,0,1-.42-.2c-.69-.28-1.41-.58-2.21-.95a15.9,15.9,0,0,1-2.61-1.71,2.94,2.94,0,0,1-.48-.45l-.1.12a15,15,0,0,1-2.88,2,13,13,0,0,1-2.71,1.1.51.51,0,0,1-.51-.25c-.21-.31-.42-.62-.61-.93a.42.42,0,0,1-.13-.25c0-.11,0-.2.13-.2.69-.19,1.39-.42,2.05-.67a9.68,9.68,0,0,0,3.11-1.93c.11-.11.24-.2.35-.31a4.12,4.12,0,0,1-.37-.45,8.68,8.68,0,0,1-1.52-2.72,16.22,16.22,0,0,1-1.22-3.69h-.56c-.22,0-.32-.14-.32-.42v-.87c0-.28.1-.45.32-.45Zm-1.25-11.6a.38.38,0,0,1,.42.42v6.7c0,.25.06.42.19.48a1.38,1.38,0,0,0,.74.16h.22c.37,0,.64-.08.74-.25a3.58,3.58,0,0,0,.45-1.18c0-.05.08-.11.27-.11a3.08,3.08,0,0,1,.32.11,4.82,4.82,0,0,0,.85.34.45.45,0,0,1,.37.45,10.22,10.22,0,0,1-.82,2.13c-.24.33-.72.47-1.46.47h-1.87a3,3,0,0,1-1.57-.33,1,1,0,0,1-.29-.84v-6.81H208v1.32a17.32,17.32,0,0,1-.29,3.3,5.77,5.77,0,0,1-1,2.36,6.94,6.94,0,0,1-1.25,1.34.54.54,0,0,1-.47-.2c-.24-.33-.48-.64-.72-1a.53.53,0,0,1-.16-.36,5.59,5.59,0,0,0,1.73-2.89,13.51,13.51,0,0,0,.24-2.69v-2.55a.37.37,0,0,1,.42-.42Zm-4.42,15.35a11.45,11.45,0,0,0,1.38,2.78,3.86,3.86,0,0,0,.56.75l.56-.75a13.31,13.31,0,0,0,1.36-2.78,16.94,16.94,0,0,0,.66-2h-5.13A10.45,10.45,0,0,0,208.3,196.17Z"/><path class="cls-1" d="M200.43,210.48c.21.06.34.17.34.39s-.13.4-.4.4a.53.53,0,0,0-.32.36,35.71,35.71,0,0,1-1.54,3.28h4.12c.27,0,.43.11.43.33v18.6c0,.23-.16.34-.43.34h-1c-.27,0-.4-.11-.4-.34v-1.43h-5.62v2.19c0,.22-.16.33-.42.33h-1c-.29,0-.43-.11-.43-.33V215.36a.4.4,0,0,1,.43-.45h2.39a47.77,47.77,0,0,0,2.08-4.6.32.32,0,0,1,.32-.22Zm.77,12.21v-6h-5.62v6Zm0,8v-6.25h-5.62v6.25Zm9.15-20.09c.19.17.29.28.29.4a.3.3,0,0,1-.21.3.39.39,0,0,0-.4.34c-.4,1.23-.74,2.21-1.06,3h6.57a.47.47,0,0,1,.5.53c0,6.39-.1,10.78-.32,13.22a15.78,15.78,0,0,1-1,4.68,2.71,2.71,0,0,1-1.44,1.54,7.82,7.82,0,0,1-3,.48c-1.11,0-1.7-.2-1.7-.56a8,8,0,0,0-.37-1.4c0-.17,0-.23.1-.23l.22,0a11.27,11.27,0,0,0,1.35.08,4.26,4.26,0,0,0,2.66-.59c.54-.42.91-1.59,1.12-3.52a115.09,115.09,0,0,0,.48-12.52h-6c-.29.58-.59,1.14-.91,1.65a15.77,15.77,0,0,1-1.59,2,1.66,1.66,0,0,1-.59-.09l-1-.42c-.13-.05-.19-.08-.19-.14a.28.28,0,0,1,.11-.25,14.07,14.07,0,0,0,2.34-3.22,18.79,18.79,0,0,0,1.07-2.35,28.57,28.57,0,0,0,.95-3.39c.06-.11.14-.2.22-.2Zm-2.29,10.79a46.18,46.18,0,0,1,2.69,5.46c0,.28-.05.42-.16.45a2.9,2.9,0,0,1-1.49.64c-.91-2.32-1.73-4.26-2.5-5.8,0-.19.37-.47,1.14-.86A.42.42,0,0,1,208.06,221.38Z"/><path class="cls-1" d="M198.24,240.33c.22.12.35.23.35.37s-.16.36-.45.42a.71.71,0,0,0-.59.22h4.9a.58.58,0,0,1,.37.11c.29.28.45.51.45.68l-2.58,3.92h2.37c.35,0,.53.17.53.45v5.4c.35-.28.69-.59,1-.89a9.65,9.65,0,0,0,1.44-1.66,6.68,6.68,0,0,0,.74-1.31h-1.57c-.29,0-.42-.12-.42-.34v-6.47c0-.2.13-.31.42-.31h10.7c.26,0,.42.11.42.31v6.47c0,.22-.16.34-.42.34h-8.28a4.42,4.42,0,0,1,1.23.75c0,.17-.08.26-.19.26-.29,0-.48.11-.56.28a8.88,8.88,0,0,1-.48.78h9c.19,0,.29.11.29.31-.05,4.09-.13,7-.29,8.79a25.21,25.21,0,0,1-.82,4.76,2.38,2.38,0,0,1-2.61,1.66c-1,0-1.46-.17-1.49-.51a4.07,4.07,0,0,0-.59-1.34v-.23h2.08c.64,0,1-.39,1.22-1.14a1,1,0,0,0,.08-.23,9.72,9.72,0,0,1-1.41.39,5.57,5.57,0,0,0-.24-.78c-2.26.53-4.55,1-6.83,1.46-.22.42-.4.64-.51.64s-.48-.7-.93-2.07c1.09-.14,2.39-.37,3.94-.67v-2.53h-3.12c-.29,0-.42-.08-.42-.3V254c0-.2.13-.31.42-.31h3.12v-2h-2.24a17.82,17.82,0,0,1-1.7,1.43.53.53,0,0,1-.45-.22l-.59-.53v11a1.91,1.91,0,0,1-1,1.65,7.6,7.6,0,0,1-2.28.59.3.3,0,0,1-.32-.28,5.51,5.51,0,0,0-.62-1.68c0-.12.06-.14.19-.14a3.63,3.63,0,0,0,1.86-.26.91.91,0,0,0,.35-.78v-3.75h-6.15a3.79,3.79,0,0,0,0,.39,18.69,18.69,0,0,1-1,4.06,14.18,14.18,0,0,1-1,2.35.89.89,0,0,1-.29-.05,3.58,3.58,0,0,0-1-.7.61.61,0,0,1-.1-.37,12.42,12.42,0,0,0,1.06-2.8,28.61,28.61,0,0,0,.69-3.89c.14-1.43.22-3.17.22-5.21v-5.6l0,0c-.27.28-.48.42-.59.42a.74.74,0,0,1-.42-.16l-1-.48c-.13-.06-.19-.08-.19-.11a.6.6,0,0,1,.19-.31,18.51,18.51,0,0,0,2.42-2.88,12,12,0,0,0,1.76-3.23c.1-.3.26-.47.42-.47Zm.56,5.72,2.08-3.06H196.7a23.82,23.82,0,0,1-1.81,3.06h3.91Zm-.72,11.06v-3.72H196c0,1.45-.08,2.69-.16,3.72Zm0-5.38v-4H196v4Zm1.76,0h2v-4h-2Zm2,5.38v-3.72h-2v3.72Zm6.33-14.56H206.6v3.83h1.54Zm.43,12.57H206.7v2.1h1.87Zm2.82-12.57h-1.57v3.83h1.57Zm2.47,17.84a14.15,14.15,0,0,1,.72,1.68,30.67,30.67,0,0,0,.43-3.31c.13-1.4.23-3.75.29-7h-5.06v2h3.22c.27,0,.4.11.4.31v4.29c0,.22-.13.3-.4.3h-.61A15.64,15.64,0,0,1,213.86,260.39Zm-1.65-5.27h-2v2.1h2Zm-.64,4.06c0-.08.24-.28.78-.56h-2.11v2.22c.69-.14,1.39-.31,2-.48A13.33,13.33,0,0,0,211.57,259.18Zm3-16.63H213v3.83h1.57Z"/><path class="cls-1" d="M204,270.75c0,.17-.08.25-.19.25a.61.61,0,0,0-.53.28,4,4,0,0,1-.32.45h8.52a.87.87,0,0,1,.5.11c.35.34.53.59.53.76l-3.35,3.95h5.35c.32,0,.51.14.51.42V293.3c0,.67-.46,1.2-1.31,1.59a13.72,13.72,0,0,1-3.16.59c-.19,0-.3-.11-.32-.34a6.53,6.53,0,0,0-.62-1.76c0-.08.08-.11.27-.11a9.48,9.48,0,0,0,2.77-.23.83.83,0,0,0,.5-.78v-3.14h-14.5a.83.83,0,0,0-.08.31,13.13,13.13,0,0,1-1.35,3.75,9.6,9.6,0,0,1-1.52,2.19.63.63,0,0,1-.29-.06,5,5,0,0,0-1-.78.6.6,0,0,1-.11-.37,9.37,9.37,0,0,0,1.57-2.55,15.72,15.72,0,0,0,1-3.55,28.83,28.83,0,0,0,.32-4.74v-6.19c-.53.37-1.11.76-1.75,1.15A.68.68,0,0,1,195,278c-.26-.2-.5-.39-.77-.62a.37.37,0,0,1-.19-.33c.91-.56,1.84-1.18,2.8-1.85a15.79,15.79,0,0,0,3.16-2.86,12.38,12.38,0,0,0,1.84-2.71c0-.14.05-.23.11-.23C203.3,270.16,204,270.61,204,270.75Zm2.87,5.8,2.69-3.09h-8a14.08,14.08,0,0,1-2.37,2.22,11.41,11.41,0,0,1-1.15.87h8.78Zm-1.94,10.81v-3.81h-5.8c0,1.48-.1,2.74-.21,3.81Zm0-5.58v-3.5h-5.8v3.5Zm1.89,0h6.33v-3.5h-6.33Zm6.33,5.58v-3.81h-6.33v3.81Z"/><path class="cls-1" d="M205.72,314.38a5.56,5.56,0,0,1-1.7,2l-.69-.81a4.41,4.41,0,0,0,1.78-3.19h-2V309h3.19v3.09A5,5,0,0,1,205.72,314.38Z"/><path class="cls-1" d="M197.77,342.86c.31,0,.5.11.5.34v6.55a9.64,9.64,0,0,0,.08,1.07,4.17,4.17,0,0,0,1.36,1.48,6.59,6.59,0,0,0,3.24.64h7.29c.64,0,1.73-.08,3.28-.25a23.13,23.13,0,0,0,3.24-.5c.11,0,.21,0,.32,0a.2.2,0,0,1,.21.22c-.32.62-.61,1.21-.82,1.74-.05.36-.21.56-.53.56H203a7.25,7.25,0,0,1-4.49-1.26,5.52,5.52,0,0,1-1.39-1.88c-.82.73-1.54,1.35-2.18,1.94a1,1,0,0,0-.61.72c0,.23-.05.37-.16.37s-.19-.09-.35-.25l-1.3-2.05c.4,0,1.54-.61,3.41-1.82a.69.69,0,0,0,.42-.7v-5.12h-3c-.22,0-.32-.14-.32-.45v-.87c0-.28.1-.45.32-.45Zm.53-3.58c.1.05.18.14.18.19s0,.14-.16.2c-.53.61-.87.89-1,.89a.41.41,0,0,1-.27-.08,27.2,27.2,0,0,0-3.72-2.18c-.11-.06-.16-.09-.16-.14A6.47,6.47,0,0,1,194,337a.52.52,0,0,1,.32-.19A35.56,35.56,0,0,1,198.3,339.28Zm.61-5.41c.13.08.21.17.21.25s-.05.14-.16.2c-.56.61-.88.89-1,.89a.36.36,0,0,1-.29-.11,27.07,27.07,0,0,0-4-2.69c-.11-.05-.16-.11-.16-.16a5.87,5.87,0,0,1,.82-1.13.52.52,0,0,1,.32-.19A37.12,37.12,0,0,1,198.91,333.87Zm15.27-3.14c.27,0,.43.11.43.31v8.88c0,.22-.16.31-.43.31h-5.29v1.43h6.43c.32,0,.51.16.51.44v8.6c0,.37-.27.65-.8.82a8.94,8.94,0,0,1-2,.33c-.22,0-.32-.11-.35-.33a5.56,5.56,0,0,0-.58-1.77s0-.05.13-.05a6.32,6.32,0,0,0,1.46-.09.35.35,0,0,0,.27-.33v-5.86h-5.08v3.28c.66-.2,1.27-.39,1.86-.62a13,13,0,0,0-.72-1.45c0-.12.45-.42,1.36-.9.45.92.82,1.76,1.11,2.49a16.38,16.38,0,0,1,.75,2.21c0,.09-.53.29-1.57.56a7.48,7.48,0,0,0-.32-1.31c-2.21.7-4.42,1.31-6.62,1.88-.27.5-.48.75-.64.75s-.46-.73-.93-2.18c1.06-.2,2.34-.51,3.83-.9v-3.81h-5.08v7.76c0,.22-.16.34-.43.34h-1c-.26,0-.4-.12-.4-.34V342.1c0-.28.14-.44.4-.44H207v-1.43h-5.08c-.3,0-.43-.09-.43-.31V331c0-.2.13-.31.43-.31ZM207,334.65v-2.29h-3.62v2.29Zm0,1.66h-3.62v2.29H207Zm1.89-1.66h3.83v-2.29h-3.83Zm3.83,1.66h-3.83v2.29h3.83Z"/><path class="cls-1" d="M212.11,360.33c.26,0,.39.12.39.34v16.41c0,.23-.13.31-.39.31h-1c-.29,0-.43-.08-.43-.31v-1.31h-2.5v5.79c0,.82.48,1.21,1.46,1.21h2.9c1,0,1.68-.14,1.89-.42a7.63,7.63,0,0,0,.93-2.66,2.9,2.9,0,0,0,1.1,1c.24.12.37.23.37.4a8.46,8.46,0,0,1-1.2,2.91,2,2,0,0,1-1.73.59h-4.47c-2.07,0-3.11-.67-3.11-2v-6.89h-2.85a12.11,12.11,0,0,1-.56,2.91,9.83,9.83,0,0,1-1.38,2.88,7.21,7.21,0,0,1-1.76,1.57,15.36,15.36,0,0,1-2.82,1.18,11.5,11.5,0,0,1-3,.53.38.38,0,0,1-.38-.33c-.18-.45-.37-.87-.55-1.26a.48.48,0,0,1-.22-.37l.85.11a18.29,18.29,0,0,0,2-.36,10.09,10.09,0,0,0,2.29-.79,5.52,5.52,0,0,0,1.78-1.26,6,6,0,0,0,1.2-2.1,10.53,10.53,0,0,0,.61-2.71H199v1.31c0,.23-.16.31-.43.31h-1c-.29,0-.42-.08-.42-.31V360.67c0-.22.13-.34.42-.34Zm-1.47,4.48V362H199v2.82Zm0,4.6v-2.83H199v2.83Zm0,4.59v-2.83H199V374Z"/><path class="cls-1" d="M150.26,3.5V.76c0-.23.13-.34.43-.34,1.3,0,2,.11,2,.34s-.1.39-.26.42-.24.22-.24.56V3.5h3.62c.21,0,.32.14.32.42v.9c0,.28-.11.42-.32.42h-3.2a11.06,11.06,0,0,0,1.07,1.51,10.52,10.52,0,0,0,2.55,2.13c.14,0,.22.14.22.19s-.08.15-.22.23a4.08,4.08,0,0,1-.74.87c-.14.17-.24.22-.3.22a.82.82,0,0,1-.37-.11,10.39,10.39,0,0,1-2.18-2.16,4.89,4.89,0,0,1-.45-.64V12.8c0,.22-.16.34-.43.34h-1c-.3,0-.43-.12-.43-.34v-5c-.16.23-.29.39-.4.56a20.72,20.72,0,0,1-2,2.19,15.6,15.6,0,0,1-2.39,1.87.59.59,0,0,1-.46-.16c-.31-.34-.63-.68-.93-1A.79.79,0,0,1,144,11a11.5,11.5,0,0,0,1.84-1.21,12.31,12.31,0,0,0,2.21-2.13,28.08,28.08,0,0,0,1.73-2.46H145.6c-.21,0-.32-.14-.32-.42v-.9c0-.28.11-.42.32-.42Zm12.16,10.62a.38.38,0,0,1,.42.42v8a.65.65,0,0,0,.19.56,1.16,1.16,0,0,0,.75.19h2.28a.61.61,0,0,0,.64-.44,11.64,11.64,0,0,0,.4-2.13c0-.12.05-.17.21-.17a1.56,1.56,0,0,1,.35.11,6.47,6.47,0,0,0,.85.34.41.41,0,0,1,.37.42,22.58,22.58,0,0,1-.77,3.11,1.32,1.32,0,0,1-1.33.72h-3.94a2.71,2.71,0,0,1-1.57-.39,1.42,1.42,0,0,1-.29-1v-8h-8.43v1.21a27.73,27.73,0,0,1-.24,4.12,7.16,7.16,0,0,1-.91,2.35A3.46,3.46,0,0,1,150,24.68a17.25,17.25,0,0,1-3.56,1.37c-.21,0-.35-.09-.35-.23-.26-.47-.5-.92-.77-1.34a.63.63,0,0,1-.13-.42,8.26,8.26,0,0,0,3.24-.78,4.2,4.2,0,0,0,1.36-1,4.17,4.17,0,0,0,.69-1.63,27.52,27.52,0,0,0,.22-4v-2.1a.37.37,0,0,1,.42-.42Zm-4.71,5.57c.74.78,1.38,1.46,1.91,2.07,0,.06-.05.12-.13.23-.53.81-.8,1.2-.8,1.2a34.54,34.54,0,0,0-2.6-2.66,14.14,14.14,0,0,0-1.87-1.4,6,6,0,0,1,.83-1.23.25.25,0,0,1,.21-.17A29.81,29.81,0,0,1,157.71,19.69Zm4-16.19V.76c0-.23.13-.34.43-.34,1.3,0,2,.11,2,.34s-.1.39-.26.42-.27.22-.27.56V3.5H168c.21,0,.32.14.32.42v.9c0,.28-.11.42-.32.42h-3.88a19.61,19.61,0,0,0,1,1.85A9.38,9.38,0,0,0,166.62,9a8.1,8.1,0,0,0,2.48,1.88c.1,0,.18.08.18.14a.45.45,0,0,1-.13.33c-.37.31-.69.62-1,.9-.07.14-.15.19-.23.19a6.3,6.3,0,0,1-1.81-1.37,9.48,9.48,0,0,1-1.87-2.3,8.27,8.27,0,0,1-.69-1.2v5.32c0,.23-.13.34-.4.34h-1c-.3,0-.43-.11-.43-.34V8a2.81,2.81,0,0,0-.24.34,19.37,19.37,0,0,1-1.81,2.15,16.93,16.93,0,0,1-2.21,1.85.59.59,0,0,1-.45-.17c-.32-.33-.61-.67-.93-.95a.79.79,0,0,1-.08-.31,10.41,10.41,0,0,0,1.7-1.17,12.41,12.41,0,0,0,2-2.1,22.46,22.46,0,0,0,1.6-2.41h-3.75c-.21,0-.32-.14-.32-.42v-.9c0-.28.11-.42.32-.42Z"/><path class="cls-1" d="M158.8,36.38a.29.29,0,0,1-.32.33.9.9,0,0,0-.19,0A19.11,19.11,0,0,0,160.42,39a14.07,14.07,0,0,0,3.12,2.13,18.78,18.78,0,0,0,5.18,2.1c.22.06.35.12.35.17a.64.64,0,0,1-.13.37c-.4.33-.75.64-1.07,1-.08.17-.16.22-.24.22a18.49,18.49,0,0,1-3.85-1.51,16.64,16.64,0,0,1-3.94-2.58,27.77,27.77,0,0,1-3-2.88c-.63.59-1.41,1.26-2.28,2a27.91,27.91,0,0,1-4.53,3.22,32.71,32.71,0,0,1-4,1.94.53.53,0,0,1-.53-.28,9.55,9.55,0,0,1-.77-.9c-.19-.06-.27-.14-.27-.25s.05-.14.21-.2a24.73,24.73,0,0,0,4.87-2.18,23.35,23.35,0,0,0,3.89-2.83,21.49,21.49,0,0,0,2.92-3.2A.77.77,0,0,1,157,35,7.94,7.94,0,0,1,158.8,36.38Zm-4-5.29a.72.72,0,0,1,.21.39c0,.08-.11.14-.32.14a1.77,1.77,0,0,0-.72.25,18.44,18.44,0,0,1-2.55,2.32,23.62,23.62,0,0,1-4.1,2.41c-.21,0-.37-.05-.43-.22a7.18,7.18,0,0,1-.93-.79c-.16,0-.21-.08-.21-.19s.05-.11.19-.17a7.6,7.6,0,0,0,1.94-.81,14.79,14.79,0,0,0,2.9-2c.69-.62,1.46-1.37,2.31-2.3.08-.11.16-.19.27-.19Zm8.72,14.06c.27,0,.43.11.43.33v10c0,.22-.16.33-.43.33h-1q-.39,0-.39-.33v-.87H151.3v.87c0,.22-.14.33-.4.33h-1c-.29,0-.43-.11-.43-.33V45.57a.37.37,0,0,1,.43-.42Zm-1.43,7.64V46.88H151.3v5.91Zm1.54-19.86a18.27,18.27,0,0,0,3.72,1.94c.22.16.35.3.35.42s-.4.64-1.14,1.42a1.41,1.41,0,0,1-.43-.08,30.83,30.83,0,0,1-6.84-5c-.16-.17-.24-.28-.24-.34s.38-.59,1.15-1.31A20.18,20.18,0,0,0,163.67,32.93Z"/><path class="cls-1" d="M155.39,62.81a14.48,14.48,0,0,1-2.44.82,1.47,1.47,0,0,1-.4.08V68h4.79c.21,0,.32.17.32.45v.86c0,.28-.11.42-.32.42h-4.55a25.26,25.26,0,0,0,1.57,3.23,16.74,16.74,0,0,0,3,3.69c.16.09.27.2.27.31s-.08.14-.22.25a4,4,0,0,1-.74.84c-.14.17-.24.23-.29.23a.71.71,0,0,1-.46-.2,16.52,16.52,0,0,1-2.6-3.53,13.12,13.12,0,0,1-.8-1.59V85.25c0,.22-.14.34-.4.34h-1c-.29,0-.42-.12-.42-.34V73.77c-.16.39-.32.7-.46,1a31.35,31.35,0,0,1-2,3.5,26.78,26.78,0,0,1-2.47,3,.5.5,0,0,1-.45-.2c-.35-.34-.69-.64-1-1a.67.67,0,0,1-.08-.28,14.56,14.56,0,0,0,1.91-2,18.83,18.83,0,0,0,2.26-3.5c.48-.9,1.17-2.44,2-4.6h-5.27c-.22,0-.32-.14-.32-.42v-.86c0-.28.1-.45.32-.45h5.51V64.1c-.32.06-.59.11-.86.14a20.92,20.92,0,0,1-3.08.23c-.32,0-.51-.12-.56-.4a12.5,12.5,0,0,1-.8-1.14c0-.2.08-.31.29-.31h1.57a15.47,15.47,0,0,0,3-.23,9.3,9.3,0,0,0,2.26-.44,7.59,7.59,0,0,0,2.18-1,.32.32,0,0,1,.19-.09.71.71,0,0,1,.45.14c1,.93,1.51,1.49,1.51,1.71s-.1.34-.29.34l-.74-.34A1.51,1.51,0,0,0,155.39,62.81Zm11.92.12c.27,0,.43.11.43.33v20c0,.22-.16.34-.43.34h-1c-.3,0-.43-.12-.43-.34V81.75h-5.4v2.63c0,.23-.13.34-.4.34H159c-.27,0-.4-.11-.4-.34v-21c0-.28.13-.44.4-.44ZM165.85,80V64.69h-5.4V80Z"/><path class="cls-1" d="M151.19,92.22V90.34c0-.19.13-.31.43-.31,1.3,0,2,.12,2,.31s-.08.42-.24.42-.27.23-.27.59v.87h6.86V90.34c0-.19.14-.31.4-.31,1.31,0,2,.12,2,.31s-.08.42-.24.42-.26.23-.26.59v.87h6.43c.22,0,.32.14.32.42v.9c0,.28-.1.42-.32.42h-6.43v1.31c0,.23-.16.34-.43.34h-1c-.26,0-.4-.11-.4-.34V94h-6.86v1.31c0,.23-.16.34-.43.34h-1c-.3,0-.43-.11-.43-.34V94h-6c-.22,0-.32-.14-.32-.42v-.9c0-.28.1-.42.32-.42Zm13.41,4.7c.27,0,.43.12.43.31v8.32c0,.23-.16.34-.43.34h-6.81a.18.18,0,0,0,0,.11,14.49,14.49,0,0,1-.53,2h11c.22,0,.32.17.32.45v.87c0,.3-.1.44-.32.44h-9.81a1.51,1.51,0,0,0,.34.48,5.71,5.71,0,0,0,1.47,1.32,7.87,7.87,0,0,0,1.81.92,11,11,0,0,0,2.55.81,33.26,33.26,0,0,0,3.62.65c.16,0,.24,0,.24.08a.47.47,0,0,1-.14.31,10.26,10.26,0,0,0-1,1.06c-.13.17-.24.28-.32.28s-.21,0-.45-.11c-.69-.17-1.46-.33-2.31-.5a23.82,23.82,0,0,1-2.74-.9,14.26,14.26,0,0,1-2.26-1.23,4.7,4.7,0,0,1-1.6-1.46,5.67,5.67,0,0,1-1.14-1.71h-.08a14.27,14.27,0,0,1-1,1.49,8.63,8.63,0,0,1-2.42,2,21.93,21.93,0,0,1-3.35,1.76c-.75.25-1.73.53-2.9.87-.35,0-.56-.11-.64-.31a6.88,6.88,0,0,0-.8-1.09.36.36,0,0,1-.13-.25c0-.12,0-.17.16-.23a18.63,18.63,0,0,0,3.59-1,13.43,13.43,0,0,0,3.4-1.65,7.76,7.76,0,0,0,1.76-1.66h-8.91c-.22,0-.32-.14-.32-.44v-.87c0-.28.1-.45.32-.45h9.95c.05-.17.13-.36.18-.53a5.52,5.52,0,0,0,.38-1.54h-7c-.3,0-.43-.11-.43-.34V97.23c0-.19.13-.31.43-.31Zm-1.44,3.51V98.66h-13v1.77Zm0,1.73h-13v2h13Z"/><path class="cls-1" d="M156.17,125.66a25.15,25.15,0,0,1-.27-3.28h-4.07c-.21,0-.32-.14-.32-.45v-.87c0-.28.11-.44.32-.44h5.29c.27,0,.43.11.43.33a28.08,28.08,0,0,0,.35,4.71h8.48c.32,0,.51.14.51.42v17.11a1.91,1.91,0,0,1-1.15,1.65,10.45,10.45,0,0,1-2.79.62c-.21,0-.32-.11-.35-.34a5,5,0,0,0-.58-1.73c0-.11.08-.14.24-.14a6,6,0,0,0,2.34-.25.9.9,0,0,0,.43-.82v-5c-.06,0-.08.06-.11.06a11.93,11.93,0,0,0-.93,1,.84.84,0,0,1-.53.17,7.12,7.12,0,0,1-2.37-1.83,12.77,12.77,0,0,1-2.77-3.8,15.08,15.08,0,0,1-1.28-3.06,12.08,12.08,0,0,1-.66,1.26,29.28,29.28,0,0,1-2,3.28,29.09,29.09,0,0,1-2.58,2.86,9,9,0,0,1-2,1.51c-.16,0-.27-.11-.37-.39-.29-.34-.61-.73-1-1.12-.05-.06-.11-.09-.13-.14v8.43c0,.22-.16.33-.43.33h-1c-.26,0-.4-.11-.4-.33V126.08a.37.37,0,0,1,.4-.42Zm-4.66,8.74a20.79,20.79,0,0,0,2.66-3.25,41.09,41.09,0,0,0,1.86-3.76H148.4v9.25A19.06,19.06,0,0,0,151.51,134.4Zm8.19-2.83a12,12,0,0,0,5.17,5.07.57.57,0,0,0,.16.11v-9.36h-6.79A14.78,14.78,0,0,0,159.7,131.57Z"/><path class="cls-1" d="M157.71,164.7a5.85,5.85,0,0,1-1.7,2l-.7-.81a4.44,4.44,0,0,0,1.79-3.2h-2v-3.36h3.19v3.08A5.06,5.06,0,0,1,157.71,164.7Z"/><path class="cls-1" d="M166,181.05c.34,0,.53.14.53.42v20.95a2.3,2.3,0,0,1-1.3,2,10.76,10.76,0,0,1-3.17.76c-.21,0-.32-.11-.35-.33a4.94,4.94,0,0,0-.58-1.74c0-.11.08-.17.26-.17a6.08,6.08,0,0,0,2.74-.31,1.2,1.2,0,0,0,.51-1.06v-4.48h-6.76v7.33c0,.2-.13.31-.4.31h-1c-.3,0-.43-.11-.43-.31v-7.33h-7c-.05.25-.08.47-.11.7a19.76,19.76,0,0,1-1.27,4.76,12.42,12.42,0,0,1-1.44,2.74.59.59,0,0,1-.27-.05,4.23,4.23,0,0,0-1-.76.52.52,0,0,1-.14-.39,12.87,12.87,0,0,0,1.47-3.28,30.54,30.54,0,0,0,.95-4.59,55.5,55.5,0,0,0,.3-6.14v-8.65c0-.28.13-.42.4-.42Zm-10,14.31V189.9h-6.65v.22c0,2-.08,3.79-.19,5.24Zm0-7.2v-5.37h-6.65v5.37Zm1.86,0h6.76v-5.37h-6.76Zm6.76,7.2V189.9h-6.76v5.46Z"/><path class="cls-1" d="M158.27,210.09c0,.28-.11.42-.27.42s-.24.22-.24.59v2.71h3.49a8.68,8.68,0,0,0,1-1.42,9.31,9.31,0,0,0,.91-2c.05-.2.13-.31.24-.31l1.57.7c.26.11.39.25.39.39s-.1.23-.26.28a.42.42,0,0,0-.43.25,22.57,22.57,0,0,1-1.06,2.1h4c.27,0,.4.12.4.34v6.13c0,.23-.13.31-.4.31h-1c-.3,0-.43-.08-.43-.31v-4.7H147.25v4.7c0,.23-.16.31-.42.31h-1c-.27,0-.4-.08-.4-.31v-6c0-.28.13-.45.4-.45h4.82c-.54-1.09-1-2-1.49-2.82,0-.2.37-.51,1.14-.9a.46.46,0,0,1,.32.11,33.58,33.58,0,0,1,2.18,3.61h3.11v-3.72c0-.2.14-.31.43-.31C157.6,209.78,158.27,209.89,158.27,210.09Zm4.25,7.79c.27,0,.43.11.43.3v5.61c0,.22-.16.3-.43.3h-4.86v2.64h8c.34,0,.53.17.53.45v6.55c0,.28-.4.48-1.14.64s-1.68.17-2.8.23a.31.31,0,0,1-.34-.31,6.68,6.68,0,0,0-.62-1.77,1.1,1.1,0,0,1,.24,0,19.08,19.08,0,0,0,2.37-.06c.27-.06.43-.11.43-.22v-3.73h-6.65v6.67c0,.22-.16.33-.43.33h-1c-.29,0-.42-.11-.42-.33v-6.67h-6.34v5.8c0,.2-.15.31-.42.31h-1c-.26,0-.4-.11-.4-.31v-7.11c0-.28.14-.45.4-.45h7.8v-2.64H151c-.29,0-.42-.08-.42-.3v-5.61c0-.19.13-.3.42-.3Zm-1.43,1.73h-8.65v2.75h8.65Z"/><path class="cls-1" d="M167.1,241.45a.3.3,0,0,1,.32.34v1.09c0,.31-.11.45-.32.45h-9.34v7.87h7.88c.21,0,.32.11.32.34v1.09c0,.28-.11.42-.32.42h-7.88v9.08h10.38a.29.29,0,0,1,.32.33v1.09c0,.28-.11.45-.32.45h-23c-.22,0-.32-.17-.32-.45v-1.09c0-.22.1-.33.32-.33h10.59v-9.08h-8.09c-.21,0-.32-.14-.32-.42v-1.09c0-.23.11-.34.32-.34h8.09v-7.87h-9.55c-.22,0-.32-.14-.32-.45v-1.09c0-.22.1-.34.32-.34Zm-3,15.72c.86.75,1.57,1.43,2.19,2a1.41,1.41,0,0,1-.14.26c-.58.86-.9,1.28-.9,1.28a24.69,24.69,0,0,0-2.93-2.68,14.68,14.68,0,0,0-2.07-1.38,5.65,5.65,0,0,1,.82-1.23c.08-.11.16-.2.21-.2A29,29,0,0,1,164.09,257.17Z"/><path class="cls-1" d="M152.41,270.36c.22.05.35.16.35.39s-.13.39-.4.39a.57.57,0,0,0-.32.36c-.53,1.26-1,2.36-1.54,3.28h4.12c.27,0,.43.11.43.34v18.6c0,.22-.16.33-.43.33h-1c-.27,0-.4-.11-.4-.33v-1.43h-5.62v2.18c0,.23-.16.34-.42.34h-1c-.29,0-.43-.11-.43-.34V275.23a.4.4,0,0,1,.43-.45h2.39a48.63,48.63,0,0,0,2.08-4.59.32.32,0,0,1,.32-.23Zm.78,12.21v-6h-5.62v6Zm0,8V284.3h-5.62v6.25Zm9.15-20.08c.18.17.29.28.29.39a.31.31,0,0,1-.21.31.38.38,0,0,0-.4.33c-.4,1.24-.75,2.22-1.07,3h6.58a.47.47,0,0,1,.5.53c0,6.39-.1,10.79-.32,13.23a16.11,16.11,0,0,1-1,4.67,2.68,2.68,0,0,1-1.44,1.54,7.82,7.82,0,0,1-3,.48c-1.12,0-1.7-.2-1.7-.56a8.24,8.24,0,0,0-.37-1.4c0-.17,0-.23.1-.23l.22,0a11.44,11.44,0,0,0,1.35.09,4.35,4.35,0,0,0,2.66-.59c.54-.42.91-1.6,1.12-3.53a115.09,115.09,0,0,0,.48-12.52h-6c-.3.59-.59,1.15-.91,1.65a16.73,16.73,0,0,1-1.59,2,2,2,0,0,1-.59-.08l-1-.42c-.13-.06-.19-.09-.19-.14a.27.27,0,0,1,.11-.25,14.3,14.3,0,0,0,2.34-3.22,17.56,17.56,0,0,0,1.06-2.36,28.34,28.34,0,0,0,1-3.39c.06-.11.14-.19.22-.19Zm-2.29,10.78a47.77,47.77,0,0,1,2.69,5.46c0,.28-.06.42-.16.45a2.94,2.94,0,0,1-1.49.65c-.91-2.33-1.73-4.26-2.5-5.8,0-.2.37-.48,1.14-.87A.42.42,0,0,1,160.05,281.25Z"/><path class="cls-1" d="M147.49,310.68c.19.06.29.17.29.28s-.1.37-.26.4-.43.42-.48.92a65.24,65.24,0,0,1-.27,7c-.24,1.29-.47,2.38-.71,3.31,0,.16-.14.28-.38.28-1-.34-1.54-.56-1.54-.68a20.91,20.91,0,0,0,.85-3.67c.19-1.79.32-4.51.37-8.09,0-.17.08-.25.24-.25Zm6.63-4.2c.21,0,.32.14.32.42v.9c0,.28-.11.42-.32.42h-3.65v16.64c0,.22-.13.33-.4.33H149c-.27,0-.4-.11-.4-.33V308.22h-3.86c-.21,0-.29-.14-.29-.42v-.9c0-.28.08-.42.29-.42ZM153,301.22c.22,0,.32.16.32.44v.87c0,.31-.1.45-.32.45h-7c-.21,0-.32-.14-.32-.45v-.87c0-.28.11-.44.32-.44Zm.22,9.07c.18,0,.29.17.29.45a28.25,28.25,0,0,0-.19,3.25,20.68,20.68,0,0,0,1.44,7.81c0,.12-.11.23-.27.28a13.78,13.78,0,0,1-1.49.14l-.32-.44a62.69,62.69,0,0,1-.93-11,.4.4,0,0,1,.43-.45Zm13.59-9.61c.27,0,.43.12.43.31v14.23c0,.23-.16.34-.43.34h-2.29v6.89c0,.28.06.45.22.45h2.07c.32,0,.64-1,1-3.09l1.65,1.1c-.59,2.55-1.28,3.83-2.08,3.83H164c-.91,0-1.36-.44-1.36-1.31v-7.87h-2.1a22.59,22.59,0,0,1-.48,3.86,9.65,9.65,0,0,1-1.38,3.06,7.69,7.69,0,0,1-1.89,1.65,12.93,12.93,0,0,1-2.56,1.29c-.48-.54-.9-1-1.25-1.43a10,10,0,0,0,1.89-.87,7.75,7.75,0,0,0,2-1.54,7.51,7.51,0,0,0,1.33-2.63,15.32,15.32,0,0,0,.48-3.39h-2.16c-.29,0-.42-.11-.42-.34V301c0-.19.13-.31.42-.31Zm-1.44,4.37v-2.63H158v2.63Zm0,4.37v-2.63H158v2.63Zm0,1.77H158v2.6h7.39Z"/><path class="cls-1" d="M156,330.62c0,.17-.08.25-.19.25a.61.61,0,0,0-.53.28c-.11.17-.21.31-.32.45h8.52a1,1,0,0,1,.5.11c.35.34.53.59.53.76l-3.35,3.95h5.35c.32,0,.5.14.5.42v16.33c0,.67-.45,1.2-1.3,1.59a13.2,13.2,0,0,1-3.17.59c-.18,0-.29-.11-.31-.33a6.68,6.68,0,0,0-.62-1.77c0-.08.08-.11.27-.11a9.7,9.7,0,0,0,2.77-.22.84.84,0,0,0,.5-.79V349h-14.5a.88.88,0,0,0-.08.31,13.3,13.3,0,0,1-1.35,3.76,9.77,9.77,0,0,1-1.52,2.18.84.84,0,0,1-.29-.05,5.92,5.92,0,0,0-1-.79.57.57,0,0,1-.11-.36,9.69,9.69,0,0,0,1.57-2.55,15.81,15.81,0,0,0,1-3.56,28.78,28.78,0,0,0,.32-4.73V337c-.53.36-1.12.75-1.75,1.15a.69.69,0,0,1-.51-.26c-.27-.19-.51-.39-.77-.61A.39.39,0,0,1,146,337c.91-.56,1.84-1.18,2.8-1.85a16,16,0,0,0,3.16-2.85,12.67,12.67,0,0,0,1.84-2.72c0-.14,0-.23.1-.23C155.29,330,156,330.48,156,330.62Zm2.87,5.8,2.69-3.08h-7.95a14.41,14.41,0,0,1-2.37,2.21,11.41,11.41,0,0,1-1.15.87h8.78Zm-1.94,10.81v-3.81h-5.8c0,1.49-.11,2.75-.21,3.81Zm0-5.57v-3.5h-5.8v3.5Zm1.89,0h6.33v-3.5H158.8Zm6.33,5.57v-3.81H158.8v3.81Z"/><path class="cls-1" d="M157.71,374.25a5.66,5.66,0,0,1-1.7,2l-.7-.81a4.4,4.4,0,0,0,1.79-3.19h-2v-3.36h3.19v3.08A5,5,0,0,1,157.71,374.25Z"/><path class="cls-1" d="M116.88,2.58a57.11,57.11,0,0,1-7.29,1.06h0a.47.47,0,0,0,0,.25q-.24.89-.48,1.68H119.3c.22,0,.32.17.32.45v.87c0,.31-.1.45-.32.45H108.39c-.21.53-.4,1-.61,1.48-.13.28-.24.51-.34.7h12.9c.21,0,.32.14.32.42v.9c0,.28-.11.42-.32.42H106.45a23,23,0,0,1-1.43,2h11.89c.26,0,.42.11.42.31V25.71c0,.23-.16.34-.42.34h-1c-.29,0-.43-.11-.43-.34v-.33h-10.9v.22c0,.22-.14.34-.4.34h-1c-.29,0-.43-.12-.43-.34V15.88a20.45,20.45,0,0,1-3.51,2.77,2.47,2.47,0,0,1-1,.4.66.66,0,0,1-.58-.26c-.37-.28-.75-.5-1.07-.72a.31.31,0,0,1-.21-.34c0-.08.08-.17.27-.25a17.59,17.59,0,0,0,3.75-2.21,20.07,20.07,0,0,0,3.75-4h-7c-.21,0-.32-.14-.32-.42v-.9c0-.28.11-.42.32-.42h8.22a21.14,21.14,0,0,0,1.12-2.18H98.31c-.21,0-.32-.14-.32-.45V6c0-.28.11-.45.32-.45h8.78a10.27,10.27,0,0,0,.51-1.79Q103.76,4,99.85,4c-.32,0-.5-.08-.58-.3a3.75,3.75,0,0,0-.35-1.13.69.69,0,0,1-.1-.42c4.15,0,7.39-.11,9.76-.33A41.94,41.94,0,0,0,116.19.67a2.6,2.6,0,0,1,.72-.14.65.65,0,0,1,.34.2q1.44,1.31,1.44,1.68c0,.28-.11.42-.32.42l-.74-.31A5.06,5.06,0,0,0,116.88,2.58Zm-1.44,14.17V14.87h-10.9v1.88Zm0,3.58v-2h-10.9v2Zm0,3.42V22h-10.9v1.76Z"/><path class="cls-1" d="M116.08,31c.27,0,.4.11.4.34V47.78c0,.22-.13.31-.4.31h-1c-.3,0-.43-.09-.43-.31V46.46h-2.5v5.8c0,.81.48,1.2,1.46,1.2h2.9c1,0,1.68-.14,1.89-.42a7.54,7.54,0,0,0,.93-2.66,3,3,0,0,0,1.09,1c.24.11.38.22.38.39a8.91,8.91,0,0,1-1.2,2.92c-.27.39-.85.58-1.73.58h-4.47c-2.08,0-3.11-.67-3.11-2V46.46h-2.85a12.72,12.72,0,0,1-.56,2.92,10,10,0,0,1-1.38,2.88,7.42,7.42,0,0,1-1.76,1.57A16.09,16.09,0,0,1,100.89,55a12.09,12.09,0,0,1-3,.53c-.19,0-.32-.11-.38-.34-.18-.45-.37-.87-.56-1.26a.44.44,0,0,1-.21-.36l.85.11c.56-.06,1.25-.2,2-.37a9.78,9.78,0,0,0,2.29-.78,5.63,5.63,0,0,0,1.78-1.26,6,6,0,0,0,1.2-2.1,11.06,11.06,0,0,0,.61-2.72H103v1.32c0,.22-.16.31-.42.31h-1c-.29,0-.43-.09-.43-.31V31.37c0-.23.14-.34.43-.34Zm-1.46,4.48V32.68H103v2.83Zm0,4.59V37.28H103V40.1Zm0,4.6V41.87H103V44.7Z"/><path class="cls-1" d="M100.07,81.75c0,.89.5,1.32,1.57,1.32h13.91c1.12,0,1.76-.43,2-1.27a10.92,10.92,0,0,0,.74-2.88,4.12,4.12,0,0,0,1.47.84.44.44,0,0,1,.29.45,10.16,10.16,0,0,1-1,3.36c-.37.9-1.3,1.34-2.79,1.34H100.6c-1.6,0-2.4-.61-2.4-1.84V61.83c0-.22.14-.33.43-.33H116.8c.27,0,.43.11.43.33V75.31c0,.22-.16.3-.43.3h-1c-.26,0-.4-.08-.4-.3V72.9H100.07Zm0-10.73h7V63.37h-7Zm15.29,0V63.37H109V71Z"/><path class="cls-1" d="M110.47,100.17c.21.12.32.23.32.37s-.13.19-.35.19a.35.35,0,0,0-.32.2,17.22,17.22,0,0,0,2.56,2.49,13.88,13.88,0,0,0,2.63,1.54,16.2,16.2,0,0,0,2.74,1,26.24,26.24,0,0,0,2.82.76.29.29,0,0,1-.24.3,7.07,7.07,0,0,0-.72,1,.45.45,0,0,1-.39.16,28.61,28.61,0,0,1-3.7-1.12,16.78,16.78,0,0,1-2.8-1.45,17.87,17.87,0,0,1-2.42-1.74,18.8,18.8,0,0,1-1.54-1.62,14.66,14.66,0,0,1-1.3,1.31,15,15,0,0,1-3.52,2.41,28.52,28.52,0,0,1-4,1.65c-1,.31-1.73.54-2.36.68-.27,0-.43-.06-.46-.2a7.67,7.67,0,0,0-.9-1.34,30.88,30.88,0,0,0,3.64-1A22.32,22.32,0,0,0,104,104a13,13,0,0,0,3.06-2.21,10.58,10.58,0,0,0,1.73-2.19c0-.11.06-.19.11-.19Zm-3.7-8.12a13.37,13.37,0,0,1-2.29.62,2.54,2.54,0,0,1-.34,0v2.33H108c.13,0,.21.11.21.33v.87c0,.31-.08.45-.21.45h-3.46a10.26,10.26,0,0,0,3.14,2.94.48.48,0,0,1-.16.42c-.27.23-.59.53-1,.9a.15.15,0,0,1-.14-.06,5.49,5.49,0,0,1-1.3-1,10.53,10.53,0,0,1-.93-1.15v4c0,.23-.16.34-.43.34h-1c-.21,0-.32-.11-.32-.34V99a2.88,2.88,0,0,1-.21.28,18.7,18.7,0,0,1-1.67,1.85,22,22,0,0,1-2,1.59.55.55,0,0,1-.46-.19c-.31-.34-.61-.65-.93-1a.81.81,0,0,1-.08-.28,9.74,9.74,0,0,0,1.57-1,12.85,12.85,0,0,0,1.89-1.8c.32-.39.75-1,1.31-1.79H97.38c-.16,0-.21-.14-.21-.45v-.87c0-.22,0-.33.21-.33h5V93a4.54,4.54,0,0,1-.82.11,26.1,26.1,0,0,1-2.9.17c-.32,0-.48-.11-.51-.36-.23-.31-.47-.68-.74-1.07,0-.22.08-.33.29-.33l1.47.11a16.44,16.44,0,0,0,2.79-.2,9.69,9.69,0,0,0,2.13-.39,7.05,7.05,0,0,0,2.07-.87.49.49,0,0,1,.19,0,.78.78,0,0,1,.42.11q1.44,1.33,1.44,1.62c0,.23-.11.34-.32.34l-.72-.23A2.31,2.31,0,0,0,106.77,92.05Zm-.34,18.54a5.82,5.82,0,0,1-.11,1.54c-2,1-3.94,1.77-5.93,2.52-.27.51-.46.76-.62.76s-.53-.78-1-2.3a29.62,29.62,0,0,0,3.48-1.09,37.49,37.49,0,0,0,3.86-1.59.21.21,0,0,1,.35.16Zm-1.73-2.85,1.41.89a1,1,0,0,1-.14.23c-.53.81-.8,1.2-.8,1.2a20.4,20.4,0,0,0-1.94-1.18,8.87,8.87,0,0,0-1.38-.58,6.11,6.11,0,0,1,.8-1.24c.08-.11.16-.19.24-.19C103.61,107.2,104.22,107.48,104.7,107.74Zm5.77-3.09c.21.12.32.2.32.26s-.11.25-.32.25c-.37.17-.53.59-.53,1.29v.5a7.88,7.88,0,0,0,.93,1.65,4.87,4.87,0,0,0,.72,1,22.82,22.82,0,0,0,2.07-2.38A.49.49,0,0,1,114,107a.51.51,0,0,1,.34.2c1,.78,1.52,1.28,1.52,1.45s-.11.31-.32.31l-.61-.08a.71.71,0,0,0-.43.22c-.48.48-1.06,1.06-1.7,1.74a12.8,12.8,0,0,0,2.55,1.68,14.5,14.5,0,0,0,3.68,1.26c.1,0,.16,0,.16.11a.51.51,0,0,1-.22.39,12.44,12.44,0,0,0-.8,1,.36.36,0,0,1-.34.28,4.29,4.29,0,0,1-1-.39,19.09,19.09,0,0,1-4.5-2.46,8.7,8.7,0,0,1-2.15-2.27,1.64,1.64,0,0,1-.29-.42v3.89c0,1.32-.93,2-2.8,2h-1.35c-.16,0-.22-.17-.22-.51a5,5,0,0,0-.5-1.26c0-.16.05-.22.21-.22a7.29,7.29,0,0,0,1.65.22c.75,0,1.14-.33,1.14-1v-6.77a7.13,7.13,0,0,0-.1-1.24,1.33,1.33,0,0,1-.11-.53c0-.14.16-.22.53-.22Zm2.85-13.78c.16.17.26.28.26.37a.31.31,0,0,1-.21.31c-.16,0-.24.08-.24.22-.16.53-.27,1-.37,1.32H120a.29.29,0,0,1,.32.33,46.64,46.64,0,0,1-.29,5.18,9.67,9.67,0,0,1-.77,2.81c-.32.67-1.15,1-2.48,1-.88,0-1.33-.17-1.33-.51a5.07,5.07,0,0,0-.53-1.34v-.23a13.68,13.68,0,0,0,1.86.12,1.11,1.11,0,0,0,1.17-.65,5.67,5.67,0,0,0,.51-2,30.31,30.31,0,0,0,.24-3.05h-2.66c-.22.84-.46,1.62-.7,2.3a16.7,16.7,0,0,1-1,2.24,13.55,13.55,0,0,1-1.25,1.9.58.58,0,0,1-.46-.14l-1.11-.59c-.16,0-.22,0-.22-.14a15.3,15.3,0,0,0,1.6-2.15,15.64,15.64,0,0,0,.93-2c.13-.34.29-.82.48-1.46h-2.18c-.21.45-.4.9-.61,1.29a13.5,13.5,0,0,1-.93,1.31,1.4,1.4,0,0,1-.54-.08c-.32-.14-.64-.28-1-.39-.14-.06-.19-.11-.19-.17a.27.27,0,0,1,.08-.17,9.42,9.42,0,0,0,1.38-2.21,11.53,11.53,0,0,0,.64-1.63,16.5,16.5,0,0,0,.59-2.29c0-.11.08-.17.13-.17Z"/><path class="cls-1" d="M104.75,121c0,.09-.11.17-.32.23a.71.71,0,0,0-.53.36,12.7,12.7,0,0,1-.75,1.26h3.17c.32,0,.5.11.5.34v8.34c.43-.08.86-.19,1.28-.3a.36.36,0,0,1,.19-.06.2.2,0,0,1,.21.22,5.35,5.35,0,0,1-.11,1.54,15.82,15.82,0,0,1-1.57.34v9.69a2.21,2.21,0,0,1-1.09,1.93,8.51,8.51,0,0,1-2.63.73c-.21,0-.32-.11-.35-.33a6,6,0,0,0-.61-1.74c0-.11.06-.17.21-.17a4.35,4.35,0,0,0,2.21-.31,1,1,0,0,0,.4-1v-8.43c-.53.11-1.06.22-1.57.31v6.24c0,.23-.13.34-.4.34h-1c-.22,0-.32-.11-.32-.34v-5.88c-.56.11-1.12.23-1.65.31-.08,1.43-.19,2.66-.35,3.67a23.49,23.49,0,0,1-1.06,4.76,14.16,14.16,0,0,1-1.2,2.75.63.63,0,0,1-.29-.06,5.38,5.38,0,0,0-1-.78.62.62,0,0,1-.11-.37,14.36,14.36,0,0,0,1.17-3.3,33.68,33.68,0,0,0,.77-4.6c.06-.56.08-1.12.14-1.71a1.23,1.23,0,0,1-.43.09c-.26.5-.45.75-.61.75s-.51-.75-1-2.29l2.16-.31c0-.84,0-1.71,0-2.63v-7.45c0-.23.14-.34.43-.34H101a6.38,6.38,0,0,0,.48-.7,9,9,0,0,0,.93-2c0-.12.08-.2.19-.2A18,18,0,0,1,104.75,121Zm-3,11.6c1.09-.2,2.15-.42,3.19-.65v-7.45h-4.89v6.14c0,.81,0,1.57,0,2.29Zm1.94-4a17.26,17.26,0,0,1,.61,2.08,6.77,6.77,0,0,1-1.65.53,13.87,13.87,0,0,0-.42-1.71,17.28,17.28,0,0,0-.93-2.32q0-.18,1.35-.9A22,22,0,0,1,103.71,128.51Zm14.24,4a.57.57,0,0,1,.42.17,3.58,3.58,0,0,1,.51.92,38.46,38.46,0,0,1-1.28,3.89,16,16,0,0,1-1.49,2.89,5,5,0,0,1-.59.75,8.41,8.41,0,0,0,2.21,1.54,14.92,14.92,0,0,0,3.41,1.35c.16.06.24.11.24.2a.51.51,0,0,1-.14.3,8.88,8.88,0,0,0-.93,1c-.13.17-.24.26-.29.26a2.41,2.41,0,0,1-.43-.2c-.69-.28-1.41-.59-2.2-.95a16.57,16.57,0,0,1-2.61-1.71,2.3,2.3,0,0,1-.48-.45,1,1,0,0,1-.11.11,14.28,14.28,0,0,1-2.87,2,13.31,13.31,0,0,1-2.71,1.09c-.27,0-.43-.08-.51-.25s-.42-.61-.61-.92a.36.36,0,0,1-.13-.25c0-.12,0-.2.13-.2.69-.2,1.38-.42,2.05-.67a9.7,9.7,0,0,0,3.11-1.94c.11-.11.24-.19.35-.3-.16-.17-.27-.31-.38-.45a9,9,0,0,1-1.51-2.72,16.62,16.62,0,0,1-1.23-3.7h-.55c-.22,0-.32-.14-.32-.42V133c0-.28.1-.45.32-.45ZM116.69,121a.38.38,0,0,1,.43.42v6.7c0,.25,0,.42.19.47a1.35,1.35,0,0,0,.74.17h.21c.38,0,.64-.08.75-.25a3.68,3.68,0,0,0,.45-1.18s.08-.11.27-.11a3.08,3.08,0,0,1,.32.11,5.32,5.32,0,0,0,.85.34.43.43,0,0,1,.37.45,10.69,10.69,0,0,1-.82,2.12c-.24.34-.72.48-1.47.48h-1.86a2.91,2.91,0,0,1-1.57-.34,1,1,0,0,1-.29-.84v-6.8h-3.33V124a17.35,17.35,0,0,1-.29,3.31,5.67,5.67,0,0,1-1,2.35,7.33,7.33,0,0,1-1.25,1.35.57.57,0,0,1-.48-.2c-.24-.34-.48-.64-.72-.95a.58.58,0,0,1-.16-.37,5.46,5.46,0,0,0,1.73-2.88,13.51,13.51,0,0,0,.24-2.69v-2.55a.37.37,0,0,1,.43-.42Zm-4.41,15.35a11,11,0,0,0,1.38,2.77,3.93,3.93,0,0,0,.56.76l.56-.76a13.48,13.48,0,0,0,1.36-2.77,16.57,16.57,0,0,0,.66-2h-5.13A10.35,10.35,0,0,0,112.28,136.3Z"/><path class="cls-1" d="M104.4,150.61a.38.38,0,0,1,.35.39c0,.28-.13.39-.4.39a.54.54,0,0,0-.32.37c-.53,1.26-1,2.35-1.54,3.27h4.12c.27,0,.43.12.43.34V174c0,.22-.16.33-.43.33h-1c-.26,0-.4-.11-.4-.33v-1.43H99.56v2.18c0,.23-.16.34-.42.34h-1c-.3,0-.43-.11-.43-.34V155.48c0-.28.13-.45.43-.45h2.39a48.63,48.63,0,0,0,2.08-4.59.32.32,0,0,1,.32-.22Zm.77,12.21v-6H99.56v6Zm0,8v-6.24H99.56v6.24Zm9.16-20.08c.18.17.29.28.29.39a.31.31,0,0,1-.21.31.38.38,0,0,0-.4.34c-.4,1.23-.75,2.21-1.07,3h6.58a.47.47,0,0,1,.5.53q0,9.57-.32,13.22a16.27,16.27,0,0,1-1,4.68,2.77,2.77,0,0,1-1.44,1.54,8,8,0,0,1-3,.47c-1.12,0-1.7-.19-1.7-.56a9.62,9.62,0,0,0-.37-1.4c0-.17,0-.22.1-.22l.21,0c.51,0,1,.08,1.36.08a4.35,4.35,0,0,0,2.66-.59c.53-.42.91-1.59,1.12-3.53a115,115,0,0,0,.48-12.52h-6c-.3.59-.59,1.15-.91,1.65a15.94,15.94,0,0,1-1.6,2,1.61,1.61,0,0,1-.58-.09l-1-.42c-.13,0-.19-.08-.19-.14a.28.28,0,0,1,.11-.25,14.07,14.07,0,0,0,2.34-3.22,18.76,18.76,0,0,0,1.06-2.35,28.34,28.34,0,0,0,1-3.39c0-.12.13-.2.21-.2ZM112,161.5a47.13,47.13,0,0,1,2.69,5.47c0,.28-.06.42-.16.44a2.94,2.94,0,0,1-1.49.65c-.91-2.33-1.73-4.26-2.5-5.8,0-.2.37-.48,1.14-.87A.46.46,0,0,1,112,161.5Z"/><path class="cls-1" d="M103.37,193.32c.42,1,.66,1.57.66,1.62a.59.59,0,0,1-.19.42q-1.66,3.31-3.13,5.63c-.56.9-1.23,1.85-2,2.89a1.85,1.85,0,0,0-.22,1c0,.22-.08.33-.21.33a8.94,8.94,0,0,1-1.7-1.76.33.33,0,0,1-.16-.31.48.48,0,0,1,.13-.39,14.28,14.28,0,0,0,1.92-2.1,38.8,38.8,0,0,0,2.58-3.9c.72-1.23,1.35-2.38,1.89-3.44,0-.17.13-.25.21-.25S103.31,193.15,103.37,193.32Zm-3.22-5.18c.77.61,1.43,1.14,2,1.65a.59.59,0,0,1-.13.25,14.37,14.37,0,0,1-.91,1.29,25.44,25.44,0,0,0-2.66-2.24,12.92,12.92,0,0,0-1.91-1.15,5,5,0,0,1,.82-1.23c.08-.12.16-.2.24-.2A23.24,23.24,0,0,1,100.15,188.14Zm2.28-6.47c.75.61,1.36,1.17,1.89,1.68a.83.83,0,0,1-.13.22c-.58.87-.88,1.29-.9,1.29a23.83,23.83,0,0,0-2.53-2.21,11.14,11.14,0,0,0-1.84-1.18,6,6,0,0,1,.83-1.23c.08-.12.16-.2.21-.2A20.34,20.34,0,0,1,102.43,181.67Zm12.08-1.29c0,.25-.1.39-.26.42s-.24.22-.24.56v1.54h4.47c.26,0,.4.11.4.33v10.82c0,.3-.14.44-.4.44H113.1a14.31,14.31,0,0,0,1.07,2.92,8.09,8.09,0,0,0,.61,1.14,23.52,23.52,0,0,0,3.06-2.52,1,1,0,0,1,.53-.22.53.53,0,0,1,.35.2c1,.78,1.51,1.28,1.51,1.45s-.1.31-.32.31l-.61-.11a1.2,1.2,0,0,0-.66.28c-.8.56-1.76,1.23-2.85,2a6.47,6.47,0,0,0,.43.51,9.46,9.46,0,0,0,3.14,2.52,10.87,10.87,0,0,0,1.64.7c.16,0,.27.14.27.19a.49.49,0,0,1-.16.4c-.29.36-.56.7-.77,1a.38.38,0,0,1-.32.25,4.43,4.43,0,0,1-1.17-.51,15.46,15.46,0,0,1-4.07-3.25,14.7,14.7,0,0,1-2.1-3.27,27.31,27.31,0,0,1-1.39-4h-3.53V202c1.62-.36,3.16-.75,4.62-1.2.06,0,.11,0,.16,0a.2.2,0,0,1,.22.22,5.85,5.85,0,0,1-.11,1.52c-2.66.72-5.37,1.37-8.11,2-.27.51-.46.76-.62.76s-.5-.78-1-2.3c.87-.11,1.89-.3,3-.53V183.23c0-.22.14-.33.43-.33H112v-2.52c0-.23.13-.34.4-.34C113.82,180,114.51,180.15,114.51,180.38Zm-6.75,7.45H117v-3.28h-9.25Zm0,5H117v-3.31h-9.25Z"/><path class="cls-1" d="M102,223.79c.42,1,.66,1.45.66,1.51a.7.7,0,0,1-.13.42c-.85,2.13-1.62,3.95-2.37,5.46-.42.84-.9,1.77-1.49,2.77a2.75,2.75,0,0,0-.16,1c0,.23-.08.34-.21.34s-.66-.56-1.6-1.68a.41.41,0,0,1-.18-.28.45.45,0,0,1,.13-.39,14.53,14.53,0,0,0,1.49-2,38.61,38.61,0,0,0,2-3.78c.59-1.21,1.07-2.33,1.49-3.33.06-.14.11-.23.19-.23S102,223.65,102,223.79ZM100,218.66c.69.5,1.28,1,1.78,1.4a.76.76,0,0,1-.16.25c-.58.87-.87,1.29-.87,1.29a23.55,23.55,0,0,0-2.37-1.88,13.61,13.61,0,0,0-1.71-1,6,6,0,0,1,.83-1.23c.08-.11.16-.19.21-.19C98.6,217.82,99.37,218.27,100,218.66Zm1.52-6.95c.66.54,1.22,1,1.7,1.46a1.15,1.15,0,0,1-.13.25c-.59.84-.88,1.26-.91,1.26a24.37,24.37,0,0,0-2.29-1.93,10.34,10.34,0,0,0-1.65-1,6,6,0,0,1,.83-1.23c.08-.11.16-.2.21-.2A24.75,24.75,0,0,1,101.48,211.71ZM118,227.06a.75.75,0,0,1,.42.14,2.89,2.89,0,0,1,.51.73,12.66,12.66,0,0,1-1.87,2.44,11,11,0,0,1-2.18,1.79,10.55,10.55,0,0,1-1.25.73l1.28.34a31,31,0,0,0,5.91.39,1.38,1.38,0,0,1-.22.53,5,5,0,0,0-.34,1c-.06.19-.14.3-.3.3a23.36,23.36,0,0,1-5.56-.67,19.26,19.26,0,0,1-3-1,35.76,35.76,0,0,1-3.48,1,36.4,36.4,0,0,1-4,.7.53.53,0,0,1-.5-.25l-.61-.92a.39.39,0,0,1-.14-.25c0-.06.06-.12.22-.12q1.52-.16,3-.42a33.56,33.56,0,0,0,3.51-.78,6.26,6.26,0,0,1-1.41-1.21,9.43,9.43,0,0,1-2.15-2.85h-1c-.22,0-.32-.14-.32-.42v-.87c0-.22.1-.34.32-.34Zm1.78-6.89c.26,0,.4.11.4.31v4.82c0,.22-.14.33-.4.33H104.24c-.29,0-.42-.11-.42-.33v-4.82c0-.2.13-.31.42-.31Zm-1.68-9.74c.27,0,.43.11.43.33v7.65c0,.22-.16.33-.43.33H105.68c-.27,0-.4-.11-.4-.33v-7.65c0-.22.13-.33.4-.33Zm-9.44,11.26h-2.93v2.4h2.93Zm8-7.88V212h-9.45v1.84Zm0,1.55h-9.45v1.84h9.45Zm-7.8,14.95a10.11,10.11,0,0,0,2.56,1.77,17.46,17.46,0,0,0,2.29-1.12,8.21,8.21,0,0,0,2-1.66,5.63,5.63,0,0,0,.56-.61h-8.65A7.46,7.46,0,0,0,108.79,230.31Zm4.47-8.62h-2.9v2.4h2.9Zm5,0h-3.21v2.4h3.21Z"/><path class="cls-1" d="M109.7,254.51a5.77,5.77,0,0,1-1.71,2l-.69-.81a4.44,4.44,0,0,0,1.79-3.2h-2V249.1h3.19v3.08A5.06,5.06,0,0,1,109.7,254.51Z"/><path class="cls-1" d="M110.68,271.73c0,.14-.16.25-.42.33a1.15,1.15,0,0,0-.8.42,16.18,16.18,0,0,1-1.31,1.77H118c.34,0,.53.11.53.31v20.25c0,.22-.19.33-.53.33h-1c-.29,0-.43-.11-.43-.33v-1.74H101.21v1.74c0,.22-.19.33-.5.33h-1c-.3,0-.43-.11-.43-.33V274.56c0-.2.13-.31.43-.31h5.93a12.56,12.56,0,0,0,.88-1,11,11,0,0,0,1.44-2.49c0-.17.13-.26.26-.26A14,14,0,0,1,110.68,271.73Zm5.8,10.84V276.1H101.21v6.47Zm0,8.51v-6.66H101.21v6.66Z"/><path class="cls-1" d="M120.45,322.78c.13,0,.21.12.21.34V324c0,.19-.08.31-.21.31H97c-.16,0-.21-.12-.21-.31v-.87c0-.22.05-.34.21-.34Zm-12.88-21.34V300c0-.19.13-.31.4-.31,1.3,0,2,.12,2,.31s-.08.39-.24.42-.27.23-.27.56v.45h7.16c.26,0,.42.11.42.34v2.41h2.9c.14,0,.22.11.22.3v.68c0,.3-.08.44-.22.44H117v2.3a.38.38,0,0,1-.42.42h-7.16v1.43h8.73c.13,0,.21.11.21.34v.64c0,.31-.08.45-.21.45h-8.73v1.31h10.48c.14,0,.22.12.22.31v.67c0,.28-.08.42-.22.42H97.38c-.16,0-.21-.14-.21-.42v-.67c0-.19,0-.31.21-.31h10.19v-1.31H99.45c-.15,0-.21-.14-.21-.45v-.64c0-.23.06-.34.21-.34h8.12v-1.43h-7.5c-.16,0-.22-.14-.22-.42v-.67c0-.23.06-.34.22-.34h7.5v-1.29H97.38c-.16,0-.21-.14-.21-.44v-.68c0-.19,0-.3.21-.3h10.19v-1.32H100c-.13,0-.19-.14-.19-.45v-.64c0-.23.06-.34.19-.34Zm9,13.56c.26,0,.42.11.42.33v5.91c0,.23-.16.34-.42.34H100.92c-.29,0-.43-.11-.43-.34v-5.91c0-.22.14-.33.43-.33Zm-1.44,2.63v-1.32h-12.8v1.32Zm0,1.32h-12.8v1.31h12.8Zm-5.72-14.76h5.72v-1.32h-5.72Zm0,2.71h5.72v-1.29h-5.72Z"/><path class="cls-1" d="M104.4,330.23a.38.38,0,0,1,.35.39c0,.28-.13.39-.4.39a.54.54,0,0,0-.32.37c-.53,1.26-1,2.35-1.54,3.27h4.12c.27,0,.43.12.43.34v18.6c0,.22-.16.33-.43.33h-1c-.26,0-.4-.11-.4-.33v-1.43H99.56v2.18c0,.23-.16.34-.42.34h-1c-.3,0-.43-.11-.43-.34V335.1c0-.28.13-.45.43-.45h2.39a48.63,48.63,0,0,0,2.08-4.59.32.32,0,0,1,.32-.22Zm.77,12.21v-6H99.56v6Zm0,8v-6.24H99.56v6.24Zm9.16-20.08c.18.17.29.28.29.39a.31.31,0,0,1-.21.31.38.38,0,0,0-.4.34c-.4,1.23-.75,2.21-1.07,3h6.58a.47.47,0,0,1,.5.53q0,9.57-.32,13.22a16.27,16.27,0,0,1-1,4.68,2.77,2.77,0,0,1-1.44,1.54,7.84,7.84,0,0,1-3,.47c-1.12,0-1.7-.19-1.7-.56a9.62,9.62,0,0,0-.37-1.4c0-.17,0-.22.1-.22l.21,0c.51.05,1,.08,1.36.08a4.35,4.35,0,0,0,2.66-.59c.53-.42.91-1.59,1.12-3.53a115,115,0,0,0,.48-12.52h-6c-.3.59-.59,1.15-.91,1.66a16.6,16.6,0,0,1-1.6,2,1.61,1.61,0,0,1-.58-.09l-1-.42c-.13-.05-.19-.08-.19-.14a.28.28,0,0,1,.11-.25,14.07,14.07,0,0,0,2.34-3.22,18.76,18.76,0,0,0,1.06-2.35,28.34,28.34,0,0,0,1-3.39c0-.12.13-.2.21-.2ZM112,341.12a47.13,47.13,0,0,1,2.69,5.47c0,.28-.06.42-.16.44a2.94,2.94,0,0,1-1.49.65c-.91-2.33-1.73-4.26-2.5-5.8,0-.2.37-.48,1.14-.87A.46.46,0,0,1,112,341.12Z"/><path class="cls-1" d="M110,360.45c0,.25-.08.39-.24.39s-.26.25-.26.59v8.43h10.27a.28.28,0,0,1,.32.3v1.13c0,.28-.11.42-.32.42h-7.37v9.63c0,.9.5,1.32,1.57,1.32h3.32c.67,0,1.07-.4,1.2-1.24a19,19,0,0,0,.45-2.82,3.93,3.93,0,0,0,1.47.86.41.41,0,0,1,.32.45,14.4,14.4,0,0,1-.8,3.25,1.86,1.86,0,0,1-2,1.35h-5c-1.6,0-2.39-.62-2.39-1.85v-11h-4c0,1.45-.08,2.68-.13,3.69a15.49,15.49,0,0,1-.77,3.36,8.19,8.19,0,0,1-1.63,2.8,9.23,9.23,0,0,1-2.71,2.19c-.93.42-1.94.81-3.06,1.2-.19,0-.29-.11-.32-.33a11.4,11.4,0,0,1-.74-1.21.67.67,0,0,1-.08-.33,14.7,14.7,0,0,0,3.77-1.24,4.63,4.63,0,0,0,1.84-1.59,5.77,5.77,0,0,0,1.06-1.88,12.83,12.83,0,0,0,.72-2.8c.11-.87.16-2.16.19-3.86H97.59c-.21,0-.32-.14-.32-.42v-1.13a.28.28,0,0,1,.32-.3h10v-9.41c0-.23.13-.34.4-.34C109.35,360.11,110,360.22,110,360.45Zm-9.65,1.2a45.89,45.89,0,0,1,4.36,5.57c0,.31-.08.48-.19.48a3.28,3.28,0,0,1-1.67.73,56,56,0,0,0-4.15-5.91c0-.23.42-.53,1.33-1A.43.43,0,0,1,100.39,361.65Zm18.27.42c.27.14.43.28.43.45s-.16.33-.43.39a.67.67,0,0,0-.69.45,22.45,22.45,0,0,1-3,4.9c-.24.28-.43.39-.56.39a.8.8,0,0,1-.51-.22c-.4-.17-.77-.37-1.12-.53-.16-.06-.24-.09-.24-.12a.78.78,0,0,1,.16-.3,16.14,16.14,0,0,0,2.21-2.69,13.22,13.22,0,0,0,1.63-3c.1-.28.21-.45.37-.45Z"/><path class="cls-1" d="M53.55,20.7q.39.16.39.42c0,.14-.13.22-.34.28s-.48.11-.53.34a19.47,19.47,0,0,1-2.34,3.69c-.19.17-.32.28-.43.28a.91.91,0,0,1-.48-.22c-.37-.2-.74-.37-1.06-.53a1,1,0,0,1-.24-.12.27.27,0,0,1,.13-.22,15.37,15.37,0,0,0,1.76-2,8.07,8.07,0,0,0,1.25-2.27c.08-.19.18-.3.29-.3Zm4-19.38c.27,0,.43.11.43.3V17.84c0,.23-.16.31-.43.31h-1c-.21,0-.29-.08-.29-.31v-1H51.76v1.88c0,.22-.16.34-.42.34h-1a.3.3,0,0,1-.32-.34v-17c0-.28.11-.42.32-.42ZM56.23,8.21V3.05H51.76V8.21Zm0,7V9.83H51.76v5.38Zm2.82,7.51a12.78,12.78,0,0,1,.8,2.21,7.9,7.9,0,0,1-1.76.56,12,12,0,0,0-.55-1.79,15.77,15.77,0,0,0-1.23-2.47c0-.14.48-.47,1.47-1A23.5,23.5,0,0,1,59.05,22.72ZM71.18,1.2c.22,0,.32.14.32.42a36.08,36.08,0,0,1-.29,4.57,7.74,7.74,0,0,1-.77,2.46c-.32.59-1.14.87-2.47.87-1.12,0-1.71-.16-1.73-.5a3.87,3.87,0,0,0-.67-1.37V7.42H68a1.12,1.12,0,0,0,1.11-.53,4.61,4.61,0,0,0,.48-1.68c.08-.5.13-1.26.19-2.27H65.23a13.39,13.39,0,0,1-.38,2.61,6.53,6.53,0,0,1-1.11,2.24A5.73,5.73,0,0,1,62.25,9a9.53,9.53,0,0,1-2.08.92,13.61,13.61,0,0,1-1.25-1.31A6,6,0,0,0,60.44,8,7.75,7.75,0,0,0,62,7,5.34,5.34,0,0,0,63.1,5.07a10,10,0,0,0,.37-2.13h-3.3c-.21,0-.32-.14-.32-.42v-.9c0-.28.11-.42.32-.42Zm-.42,9.72c.26,0,.42.12.42.34V18.6c0,.22-.16.33-.42.33h-1c-.21,0-.29-.11-.29-.33V18h-7.9v.67c0,.22-.16.34-.43.34h-1a.3.3,0,0,1-.32-.34V11.26a.3.3,0,0,1,.32-.34ZM69.43,16.3V12.58h-7.9V16.3Zm-4.05,6.42a13.15,13.15,0,0,1,1.23,2.12,8.32,8.32,0,0,1-1.76.54,7.33,7.33,0,0,0-.9-1.71,14.48,14.48,0,0,0-2-2.33c0-.14.47-.47,1.46-1A27.24,27.24,0,0,1,65.38,22.72Zm5.17-.82c.69.82,1.27,1.52,1.78,2.16a1.15,1.15,0,0,1-.13.25l-.91,1.29a23.62,23.62,0,0,0-2.37-2.88,12.2,12.2,0,0,0-1.67-1.49,5.21,5.21,0,0,1,.8-1.23c.07-.11.15-.2.23-.2A24.55,24.55,0,0,1,70.55,21.9Z"/><path class="cls-1" d="M61.69,45a5.68,5.68,0,0,1-1.71,2l-.69-.81a4.38,4.38,0,0,0,1.78-3.2h-2V39.54H62.3v3.09A5,5,0,0,1,61.69,45Z"/><path class="cls-1" d="M57.67,67.41a.54.54,0,0,1-.4.56.7.7,0,0,0-.53.39,32.69,32.69,0,0,1-2.4,3.53V85.36c0,.23-.13.34-.4.34h-1c-.3,0-.43-.11-.43-.34V74.07c-.74.79-1.62,1.66-2.61,2.55a13.1,13.1,0,0,0-1.14-1.2c-.16-.17-.21-.28-.21-.34a.39.39,0,0,1,.1-.22,19.26,19.26,0,0,0,4.29-4.26,30.2,30.2,0,0,0,2.76-4.4c.06-.11.14-.19.24-.19A10.44,10.44,0,0,1,57.67,67.41ZM56.6,61.19a.72.72,0,0,1,.35.53c0,.17-.16.23-.43.23a.93.93,0,0,0-.82.39,29.44,29.44,0,0,1-5.72,6,.43.43,0,0,1-.4-.22,4.63,4.63,0,0,0-.77-.81.49.49,0,0,1-.19-.28.26.26,0,0,1,.16-.23,8.43,8.43,0,0,0,1.84-1.37A16.42,16.42,0,0,0,53,63a19,19,0,0,0,1.7-2.75c.11-.19.21-.3.29-.3Zm10.11-.67c0,.25-.1.39-.26.42s-.24.22-.24.56v3h6.22c.22,0,.32.16.32.45v.86c0,.28-.1.42-.32.42H63.71c-.05,1.66-.08,3.08-.13,4.29h7.5c.21,0,.32.14.32.42q-.09,5.93-.4,8.49A17.27,17.27,0,0,1,70,84c-.43,1.07-1.52,1.63-3.28,1.63-1.3,0-2-.23-2-.62a4.33,4.33,0,0,0-.77-1.57v-.22a13.18,13.18,0,0,0,2.79.33,1.69,1.69,0,0,0,1.79-1.12,11.94,11.94,0,0,0,.77-3.53c.19-1.34.32-3.55.42-6.63H63.47c0,.78-.13,1.45-.19,2a32.7,32.7,0,0,1-1.19,5.88,11.59,11.59,0,0,1-1.6,3.23,11.93,11.93,0,0,1-2.18,2.46c-.48-.53-.91-1-1.25-1.43a8.08,8.08,0,0,0,1.57-1.76A13.1,13.1,0,0,0,60.3,79.4a31.45,31.45,0,0,0,1.12-5.55c.21-1.71.35-4.26.4-7.65H58.2c-.21,0-.32-.14-.32-.42v-.86c0-.29.11-.45.32-.45h6.12V60.52c0-.2.13-.31.43-.31C66.05,60.21,66.71,60.32,66.71,60.52Z"/><path class="cls-1" d="M57.06,97.46a.57.57,0,0,1-.43.56c-.26.08-.42.19-.48.36a26.31,26.31,0,0,1-2.21,3.14v13.67c0,.22-.16.33-.42.33h-1c-.29,0-.42-.11-.42-.33V103.65c-.7.7-1.49,1.45-2.4,2.24a13.5,13.5,0,0,0-1.14-1.21.52.52,0,0,1-.19-.33.49.49,0,0,1,.11-.2,18.69,18.69,0,0,0,4-3.89,26.16,26.16,0,0,0,2.61-4,.24.24,0,0,1,.21-.16A10.77,10.77,0,0,1,57.06,97.46Zm-1.2-6.22a.62.62,0,0,1,.37.53c0,.17-.16.22-.42.22a.74.74,0,0,0-.72.4,28.29,28.29,0,0,1-5,5.74.43.43,0,0,1-.4-.23,4.75,4.75,0,0,0-.77-.78.54.54,0,0,1-.19-.31.21.21,0,0,1,.13-.22,7.45,7.45,0,0,0,1.6-1.32,16.61,16.61,0,0,0,2-2.27A17.75,17.75,0,0,0,54,90.34c.1-.19.18-.31.24-.31Zm5.77,2.41V90.79c0-.22,0-.34.11-.34A11.87,11.87,0,0,1,64,90.9a.28.28,0,0,1-.24.31c-.21.11-.29.34-.29.67v1.77h2.18V90.79c0-.22.13-.34.42-.34,1.31,0,2,.12,2,.34s-.1.39-.26.42-.27.22-.27.56v1.88h3.75c.27,0,.43.11.43.31v6.47a.38.38,0,0,1-.43.42H67.54v3.83h5.11c.18,0,.29.17.29.45,0,2.07-.11,3.53-.21,4.4a9.16,9.16,0,0,1-.61,2.41c-.27.56-.91.84-2,.84-.77,0-1.17-.17-1.2-.53a4.78,4.78,0,0,0-.48-1.43v-.23a11.43,11.43,0,0,0,1.68.12.63.63,0,0,0,.66-.54,7,7,0,0,0,.29-1.62c.06-.48.08-1.18.14-2.1h-3.7v8.85c0,.22-.13.33-.4.33h-1c-.29,0-.42-.11-.42-.33v-8.85H63a15.61,15.61,0,0,1-.66,2.41,14.8,14.8,0,0,1-1.78,3.53,17.19,17.19,0,0,1-2.64,2.8c-.1,0-.18-.09-.29-.26a6.74,6.74,0,0,0-.83-.78c-.16-.11-.24-.2-.24-.28a12,12,0,0,0,4-5.57,15.87,15.87,0,0,0,.5-1.85H58c-.16.59-.34,1.15-.5,1.65-.08.22-.14.31-.16.31a1.18,1.18,0,0,1-.46-.09,9.8,9.8,0,0,1-1.22-.25c-.16,0-.21-.11-.21-.22a24.4,24.4,0,0,0,.8-2.35,30,30,0,0,0,.79-3.06,37.52,37.52,0,0,0,.51-3.72c0-.23.08-.37.29-.37a7.72,7.72,0,0,1,1.57.76h2.18V95.38H57.88c-.21,0-.32-.14-.32-.44v-.87c0-.28.11-.42.32-.42Zm-.26,10.7a29.13,29.13,0,0,0,.26-3.5H59.24c-.19,1.28-.4,2.49-.64,3.55a.87.87,0,0,0-.08.28h2.79A1.28,1.28,0,0,1,61.37,104.35Zm4.31-3.5H63.5c0,1.09-.11,2.26-.22,3.55a1.63,1.63,0,0,0,0,.28h2.42ZM63.5,99.11h2.18V95.38H63.5Zm4,0h2.29V95.38H67.54Z"/><path class="cls-1" d="M55.17,122.16v-1.88c0-.2.13-.31.42-.31,1.31,0,2,.11,2,.31s-.08.42-.24.42-.26.22-.26.59v.87h6.86v-1.88c0-.2.13-.31.4-.31,1.3,0,2,.11,2,.31s-.08.42-.24.42-.27.22-.27.59v.87h6.44c.21,0,.32.14.32.42v.89c0,.28-.11.42-.32.42H65.78v1.32c0,.22-.16.34-.42.34h-1c-.27,0-.4-.12-.4-.34v-1.32H57.06v1.32c0,.22-.16.34-.43.34h-1c-.29,0-.42-.12-.42-.34v-1.32h-6c-.22,0-.32-.14-.32-.42v-.89c0-.28.1-.42.32-.42Zm13.41,4.7c.26,0,.42.11.42.31v8.32c0,.22-.16.33-.42.33H61.77a.23.23,0,0,0,0,.12,16.14,16.14,0,0,1-.53,2h11c.21,0,.32.17.32.45v.86c0,.31-.11.45-.32.45H62.4a1.7,1.7,0,0,0,.35.48,5.81,5.81,0,0,0,1.46,1.31,7.9,7.9,0,0,0,1.81.93,11.06,11.06,0,0,0,2.56.81,33.26,33.26,0,0,0,3.62.65c.16,0,.23,0,.23.08a.48.48,0,0,1-.13.31,10.26,10.26,0,0,0-1,1.06c-.13.17-.24.28-.32.28s-.21,0-.45-.11c-.69-.17-1.46-.34-2.32-.5a24.48,24.48,0,0,1-2.74-.9,15.23,15.23,0,0,1-2.26-1.23,4.86,4.86,0,0,1-1.59-1.46,6.16,6.16,0,0,1-1.15-1.71h-.08a17.48,17.48,0,0,1-1,1.49,8.6,8.6,0,0,1-2.42,2,22,22,0,0,1-3.35,1.77c-.75.25-1.73.53-2.9.87-.35,0-.56-.12-.64-.31a7.05,7.05,0,0,0-.8-1.09.38.38,0,0,1-.13-.26c0-.11.05-.16.16-.22a18.63,18.63,0,0,0,3.59-.95,13.28,13.28,0,0,0,3.4-1.66,7.71,7.71,0,0,0,1.76-1.65H49.16c-.22,0-.32-.14-.32-.45v-.86c0-.28.1-.45.32-.45h10c0-.17.13-.37.18-.53a5.26,5.26,0,0,0,.37-1.55h-7c-.29,0-.42-.11-.42-.33v-8.32c0-.2.13-.31.42-.31Zm-1.44,3.5V128.6h-13v1.76Zm0,1.74h-13v2h13Z"/><path class="cls-1" d="M60.14,155.59a23.44,23.44,0,0,1-.26-3.27H55.81c-.22,0-.32-.14-.32-.45V151c0-.28.1-.45.32-.45H61.1c.27,0,.43.11.43.34a28.1,28.1,0,0,0,.34,4.7h8.49c.32,0,.51.14.51.42v17.12a1.91,1.91,0,0,1-1.15,1.65,11,11,0,0,1-2.79.62c-.22,0-.32-.12-.35-.34a5.07,5.07,0,0,0-.58-1.74c0-.11.08-.14.24-.14a5.8,5.8,0,0,0,2.34-.25.9.9,0,0,0,.42-.81v-5l-.1,0c-.32.31-.64.62-.93,1a.8.8,0,0,1-.54.17,7.28,7.28,0,0,1-2.36-1.82,12.35,12.35,0,0,1-2.77-3.81A14.76,14.76,0,0,1,61,159.6a12.08,12.08,0,0,1-.66,1.26,31.22,31.22,0,0,1-2,3.28A27.88,27.88,0,0,1,55.81,167a9.29,9.29,0,0,1-2,1.52c-.16,0-.27-.12-.37-.4-.3-.33-.62-.72-1-1.12a.47.47,0,0,1-.14-.14v8.43c0,.23-.16.34-.42.34h-1c-.26,0-.4-.11-.4-.34V156a.37.37,0,0,1,.4-.42Zm-4.65,8.74a20.89,20.89,0,0,0,2.66-3.25A40.64,40.64,0,0,0,60,157.33H52.37v9.24A17.66,17.66,0,0,0,55.49,164.33Zm8.19-2.83a11.85,11.85,0,0,0,5.16,5.07.74.74,0,0,0,.16.12v-9.36H62.22A14.22,14.22,0,0,0,63.68,161.5Z"/><path class="cls-1" d="M55.7,180.71c0,.17-.08.26-.19.26a.6.6,0,0,0-.53.27c-.24.48-.48.93-.72,1.32h6.23c.13,0,.21.11.21.34v.87c0,.3-.08.44-.21.44H56.58a20.55,20.55,0,0,1,1.51,2c0,.28-.08.42-.18.45a2.62,2.62,0,0,1-1.39.65,27.5,27.5,0,0,0-2-3.06H53.17c-.26.31-.5.59-.72.82a26.6,26.6,0,0,1-2.36,2.24.71.71,0,0,1-.51-.25l-.77-.62a.39.39,0,0,1-.19-.34c.59-.5,1.17-1,1.76-1.59a13.67,13.67,0,0,0,2-2.5,12.12,12.12,0,0,0,1.15-2.35c0-.14,0-.22.11-.22A8,8,0,0,1,55.7,180.71Zm4,7.23v-1.21c0-.22.14-.33.43-.33,1.3,0,2,.11,2,.33s-.11.4-.27.4-.24.25-.24.59v.22h7.16c.27,0,.43.11.43.31v3h3.21c.14,0,.22.11.22.33v.87c0,.31-.08.45-.22.45H69.22v3a.39.39,0,0,1-.43.45H61.63v1.4h7.59c.13,0,.21.11.21.34V199c0,.3-.08.44-.21.44H61.63v1.43H71.9c.14,0,.22.11.22.31v.9c0,.28-.08.42-.22.42H61.63v2.85c0,.23-.16.34-.42.34h-1c-.29,0-.43-.11-.43-.34v-2.85H49.47c-.15,0-.21-.14-.21-.42v-.9c0-.2.06-.31.21-.31H59.74v-1.43H52.16c-.16,0-.21-.14-.21-.44v-.87c0-.23,0-.34.21-.34h7.58v-1.4H52.59c-.16,0-.22-.14-.22-.45v-.87c0-.22.06-.33.22-.33h7.15v-1.85H49.05c-.16,0-.21-.14-.21-.45v-.87c0-.22,0-.33.21-.33H59.74v-1.66H52.59c-.16,0-.22-.14-.22-.42v-.89c0-.2.06-.31.22-.31Zm6.36-7.12c0,.17-.08.26-.18.26-.3,0-.48.11-.56.28a10.63,10.63,0,0,1-.48,1.09h7.45c.13,0,.21.11.21.34v.86c0,.31-.08.45-.21.45H68.26a23.23,23.23,0,0,1,1.57,2c0,.28-.06.42-.16.45a2.58,2.58,0,0,1-1.39.64,29.41,29.41,0,0,0-2.07-3.05H64c-.16.23-.27.39-.37.51-.32.44-.88,1.06-1.65,1.9a.68.68,0,0,1-.51-.25c-.24-.2-.48-.42-.74-.65a.34.34,0,0,1-.19-.3c.4-.42.8-.9,1.22-1.4a11.49,11.49,0,0,0,1.39-2.13,14.84,14.84,0,0,0,.82-2.05c0-.14,0-.22.11-.22C65.41,180.24,66.1,180.68,66.1,180.82Zm-4.47,10.4h5.72v-1.66H61.63Zm0,3.5h5.72v-1.85H61.63Z"/><path class="cls-1" d="M72.33,211.29a.3.3,0,0,1,.32.34v1.09c0,.31-.11.45-.32.45H61.42v5.52a51.17,51.17,0,0,1,4.6,2.8c1.49,1.12,2.74,2.16,3.81,3a1,1,0,0,1-.16.25,13.15,13.15,0,0,1-1,1.4,44.73,44.73,0,0,0-5.13-4c-.8-.51-1.49-.95-2.13-1.29v14.34c0,.22-.19.34-.53.34h-1c-.35,0-.5-.12-.5-.34v-22.1H49.05c-.21,0-.32-.14-.32-.45v-1.09a.3.3,0,0,1,.32-.34Z"/><path class="cls-1" d="M69.11,241.12c.32,0,.5.11.5.33v23.64c0,.23-.18.34-.5.34h-1c-.29,0-.42-.11-.42-.34v-1.54H54.45V265c0,.23-.19.34-.51.34h-1c-.3,0-.43-.11-.43-.34V241.45c0-.22.13-.33.43-.33Zm-1.46,10V243H54.45v8.1Zm0,10.62v-8.77H54.45v8.77Z"/><path class="cls-1" d="M53.63,272.37c0,.25-.11.39-.27.42s-.27.23-.27.56v6.36H60v-9.52c0-.23.13-.34.42-.34,1.31,0,2,.11,2,.34s-.1.39-.26.42-.27.22-.27.56v8.54h6.46v-7.23c0-.19.14-.3.4-.3,1.33,0,2,.11,2,.3s-.11.4-.27.42-.26.23-.26.56v9.3c0,.23-.16.34-.43.34h-1c-.26,0-.4-.11-.4-.34v-1.28H61.82v10.16h7.29V285c0-.23.13-.34.43-.34,1.3,0,2,.11,2,.34s-.1.39-.26.39-.27.25-.27.59v8.85c0,.22-.13.33-.4.33h-1c-.3,0-.43-.11-.43-.33v-1.43H52.27v1.43c0,.22-.16.33-.43.33h-1q-.39,0-.39-.33V285c0-.23.13-.34.39-.34,1.34,0,2,.11,2,.34s-.11.39-.27.39-.26.25-.26.59v5.68H60V281.48H53.09v1.28c0,.23-.13.34-.4.34h-1c-.3,0-.43-.11-.43-.34V272.37c0-.19.13-.31.43-.31C53,272.06,53.63,272.18,53.63,272.37Z"/><path class="cls-1" d="M61.69,314.38a5.59,5.59,0,0,1-1.71,2l-.69-.81a4.38,4.38,0,0,0,1.78-3.19h-2V309H62.3v3.09A5,5,0,0,1,61.69,314.38Z"/><path class="cls-1" d="M57.38,336.53c0,.17-.08.22-.19.22-.29.06-.48.14-.56.31a33.13,33.13,0,0,1-2.07,4v13.61c0,.22-.16.34-.43.34h-1c-.26,0-.4-.12-.4-.34V343.51c-.61.72-1.43,1.59-2.5,2.63a.65.65,0,0,1-.5-.23l-.77-.64a.36.36,0,0,1-.19-.34c.77-.72,1.54-1.54,2.31-2.38a16.94,16.94,0,0,0,2.61-3.64,20,20,0,0,0,1.52-3.47c0-.14,0-.23.1-.23C56.66,335.94,57.38,336.39,57.38,336.53Zm5.08-6.47c0,.25-.11.39-.27.42s-.26.22-.26.56v1.88H72.22c.21,0,.32.14.32.42v.89c0,.28-.11.42-.32.42H49.16c-.22,0-.32-.14-.32-.42v-.89c0-.28.1-.42.32-.42H60v-2.86c0-.22.13-.34.42-.34C61.77,329.72,62.46,329.84,62.46,330.06Zm1.81,6.22c.16.14.26.25.26.36s-.18.31-.5.31a.62.62,0,0,0-.61.39c-.16.4-.32.73-.48,1h6.49a.63.63,0,0,1,.42.17,3.58,3.58,0,0,1,.51.92,45.42,45.42,0,0,1-1.57,5.07A22.73,22.73,0,0,1,67,348.27a14.85,14.85,0,0,1-1.14,1.57,15.68,15.68,0,0,0,2.26,1.42,19,19,0,0,0,5,1.82c.13.06.21.12.21.17a.58.58,0,0,1-.24.45,8.54,8.54,0,0,0-.9,1.09c-.11.23-.24.34-.4.34a5.73,5.73,0,0,1-1.33-.56,24.73,24.73,0,0,1-5.88-3.33,16.4,16.4,0,0,1-3.38,2.46,15.43,15.43,0,0,1-3.35,1.43.47.47,0,0,1-.48-.25c-.22-.31-.43-.62-.62-.93-.1-.11-.16-.19-.16-.25a.23.23,0,0,1,.19-.25c.85-.25,1.68-.56,2.53-.9a12.21,12.21,0,0,0,3.83-2.49l0-.06a9.28,9.28,0,0,1-1.7-2.1,19.18,19.18,0,0,1-2-3.81l-.55.68a18,18,0,0,1-1.31,1.28.44.44,0,0,1-.4-.28,4.63,4.63,0,0,0-.77-1c-.18-.11-.26-.19-.26-.28a.21.21,0,0,1,.08-.16,12.07,12.07,0,0,0,1.86-1.57,17.44,17.44,0,0,0,2-2.72c.42-.73.8-1.43,1.11-2.1a18.68,18.68,0,0,0,.88-2.35c.08-.17.16-.28.24-.28Zm-2.34,9.38a14.62,14.62,0,0,0,2,2.58,2.88,2.88,0,0,0,.45.42,15.83,15.83,0,0,0,1.31-1.74,16.74,16.74,0,0,0,1.67-3.64,22.89,22.89,0,0,0,.93-3.14H62.06c-.08.14-.16.26-.21.37a17.31,17.31,0,0,1-1.36,2.18l0,0A14.93,14.93,0,0,0,61.93,345.66Zm2.87-3q.67.81,1.2,1.41c0,.05-.06.11-.14.22l-.79,1.2c-.54-.64-1.1-1.23-1.65-1.79a7.84,7.84,0,0,0-1.17-.95,5.16,5.16,0,0,1,.82-1.23c.08-.12.16-.17.21-.17A17.45,17.45,0,0,1,64.8,342.66Z"/><path class="cls-1" d="M55.91,362c.27,0,.4.11.4.3v17.2c0,.23-.13.31-.4.31h-1c-.3,0-.43-.08-.43-.31v-.89H51v2.29c0,.23-.14.34-.4.34h-1c-.29,0-.42-.11-.42-.34V362.41a.37.37,0,0,1,.42-.42Zm-1.46,7.31v-5.58H51v5.58Zm0,7.56v-5.8H51v5.8Zm9.92-16.33c.16.14.27.25.27.34s-.19.33-.53.33a.67.67,0,0,0-.56.23c-.19.28-.35.53-.51.75h5.64a1,1,0,0,1,.51.11c.35.28.53.51.53.68l-3.3,4.25h4.76c.27,0,.43.12.43.34v7.23c0,.22-.16.3-.43.3H66.29v7.34c0,.28,0,.45.21.45h3.86c.37,0,.77-1,1.14-3L73.15,381c-.61,2.47-1.38,3.73-2.28,3.73H65.78a1.18,1.18,0,0,1-1.35-1.32v-5.79a14.89,14.89,0,0,1-1.36,2.91,10.17,10.17,0,0,1-2.58,2.69A16.21,16.21,0,0,1,57,385.29c-.48-.53-.9-1-1.25-1.43a11.47,11.47,0,0,0,2.69-1.46,11.1,11.1,0,0,0,2.82-2.66,13.82,13.82,0,0,0,1.89-4.56s0-.06,0-.09H58.2c-.29,0-.42-.08-.42-.3v-7.23c0-.22.13-.34.42-.34h6l2.74-3.39H61.74a10.56,10.56,0,0,1-.93,1c-.51.48-1,.9-1.49,1.27a12.32,12.32,0,0,1-1.23.81.47.47,0,0,1-.39-.25,3.51,3.51,0,0,0-.8-1c-.19-.12-.27-.2-.27-.28s0-.06.11-.12a11.71,11.71,0,0,0,1.73-1,13.32,13.32,0,0,0,1.89-1.73,7.42,7.42,0,0,0,1-1.32,12,12,0,0,0,.83-1.48c.08-.12.16-.17.24-.17ZM63.79,369H59.64v4.37h3.8A42.56,42.56,0,0,0,63.79,369Zm5.93,0H65.65c-.05,1.73-.16,3.19-.29,4.37h4.36Z"/><path class="cls-1" d="M8.38.92c.21.06.35.17.35.4s-.14.39-.4.39A.51.51,0,0,0,8,2.07C7.48,3.33,7,4.43,6.47,5.35h4.12c.26,0,.42.11.42.34V24.28c0,.23-.16.34-.42.34h-1c-.26,0-.4-.11-.4-.34V22.86H3.54V25c0,.22-.16.34-.43.34h-1c-.3,0-.43-.12-.43-.34V5.8c0-.28.13-.45.43-.45H4.47A48.8,48.8,0,0,0,6.54.76.33.33,0,0,1,6.86.53Zm.77,12.22v-6H3.54v6Zm0,8V14.87H3.54v6.25ZM18.3,1c.19.16.3.28.3.39a.3.3,0,0,1-.22.31.37.37,0,0,0-.39.33c-.4,1.24-.75,2.22-1.07,3h6.57a.48.48,0,0,1,.51.53q0,9.59-.32,13.22a15.72,15.72,0,0,1-1,4.68A2.73,2.73,0,0,1,21.26,25a7.85,7.85,0,0,1-3,.48c-1.12,0-1.7-.2-1.7-.56a8.26,8.26,0,0,0-.38-1.4c0-.17,0-.23.11-.23l.21,0a11.74,11.74,0,0,0,1.36.09,4.37,4.37,0,0,0,2.66-.59c.53-.42.9-1.6,1.12-3.53a115.09,115.09,0,0,0,.48-12.52h-6a17,17,0,0,1-.9,1.65,16.78,16.78,0,0,1-1.6,2,1.89,1.89,0,0,1-.58-.08l-1-.42c-.14-.06-.19-.09-.19-.14A.27.27,0,0,1,12,9.5a14.14,14.14,0,0,0,2.34-3.23,18.13,18.13,0,0,0,1.06-2.35,28.34,28.34,0,0,0,1-3.39c.05-.11.13-.19.21-.19ZM16,11.82a46.14,46.14,0,0,1,2.68,5.46c0,.28-.05.42-.16.45a2.84,2.84,0,0,1-1.49.64q-1.35-3.48-2.5-5.79c0-.2.38-.48,1.15-.87A.43.43,0,0,1,16,11.82Z"/><path class="cls-1" d="M6.57,40.83c.27.12.4.26.4.42s-.16.34-.43.43a.63.63,0,0,0-.69.47l-.18.39h6.49V40.13c0-.19.13-.3.42-.3,1.31,0,2,.11,2,.3s-.1.42-.26.42-.27.26-.27.59v1.4h8c.21,0,.32.17.32.45v.87c0,.31-.11.45-.32.45H14v2.63H21.1c.21,0,.32.14.32.42v.9c0,.28-.11.42-.32.42H14v2.74H24.21c.21,0,.32.14.32.42v.9c0,.28-.11.42-.32.42H1.14c-.21,0-.32-.14-.32-.42v-.9c0-.28.11-.42.32-.42h11V48.68H5c-.22,0-.3-.14-.3-.42v-.9c0-.28.08-.42.3-.42h7.18V44.31H4.82a25,25,0,0,1-2,3.19c-.24.28-.43.42-.53.42a.72.72,0,0,1-.48-.22c-.37-.17-.75-.37-1.06-.54-.16,0-.24-.08-.24-.11a.6.6,0,0,1,.18-.31A17.94,17.94,0,0,0,3,43.86,13,13,0,0,0,4.6,40.64c.11-.34.22-.51.38-.51Zm14.1-11.51c.27,0,.43.12.43.31v9c0,.23-.16.31-.43.31H4.58c-.3,0-.43-.08-.43-.31v-9c0-.19.13-.31.43-.31Zm-1.43,3.92V31H6v2.29Zm0,1.77H6v2.3h13.2Z"/><path class="cls-1" d="M4.15,65c.8.62,1.49,1.15,2.08,1.63a1.5,1.5,0,0,1-.14.25q-.87,1.26-.9,1.26A28.51,28.51,0,0,0,2.39,66a18.47,18.47,0,0,0-2-1.12,6.17,6.17,0,0,1,.79-1.23c.08-.11.16-.19.24-.19C2.53,64,3.43,64.53,4.15,65Zm1.33,5c.43,1,.64,1.57.64,1.62a1,1,0,0,1-.08.42c-.69,2.08-1.33,3.87-1.92,5.32-.32.84-.71,1.74-1.19,2.72a2.32,2.32,0,0,0-.14,1c0,.23-.08.34-.18.34S1.89,80.8.9,79.63a.44.44,0,0,1-.18-.31.79.79,0,0,1,.1-.4,12.76,12.76,0,0,0,1.31-2c.58-1.06,1.14-2.29,1.73-3.67.48-1.17.93-2.26,1.3-3.27,0-.14.08-.23.13-.23S5.43,69.88,5.48,70ZM5.43,58.67c.88.62,1.62,1.21,2.26,1.71a.54.54,0,0,1-.13.25c-.59.87-.91,1.29-.91,1.29a28,28,0,0,0-3-2.29,15.29,15.29,0,0,0-2.16-1.21,5.63,5.63,0,0,1,.8-1.23c.08-.11.16-.2.24-.2C3.67,57.61,4.66,58.17,5.43,58.67Zm17.32,4.46c.21,0,.32.14.32.42C23,65.93,23,68,23,69.68h1.57c.21,0,.32.17.32.45V71c0,.31-.11.45-.32.45H22.91c-.06,1.14-.14,2.1-.19,2.85s-.13,1.4-.19,2h1.36c.21,0,.32.14.32.42v.87c0,.31-.11.45-.32.45H22.32c-.16.87-.32,1.57-.48,2.13a2.61,2.61,0,0,1-2.82,2c-1.54,0-2.34-.23-2.39-.62a4.63,4.63,0,0,0-.93-1.68v-.2a14.64,14.64,0,0,0,3.32.42c.72,0,1.2-.5,1.41-1.45a4.58,4.58,0,0,0,.16-.62H10.22c-.14.34-.24.67-.35,1a.46.46,0,0,1-.5.37c-.62-.06-1.1-.12-1.44-.14s-.35-.09-.35-.2c.51-1,1-2,1.36-3a33.63,33.63,0,0,0,1.3-4.51H8.94c-.21,0-.32-.14-.32-.45v-.87c0-.28.11-.45.32-.45h1.65c0-.05,0-.08,0-.11a26.88,26.88,0,0,0,.29-6,.37.37,0,0,1,.42-.42ZM12.9,56.94c.19.17.3.28.3.39a.28.28,0,0,1-.22.31.29.29,0,0,0-.29.28c-.08.33-.16.64-.24.92H24.32c.21,0,.32.17.32.45v.87c0,.31-.11.45-.32.45H12c-.06.16-.11.3-.16.42-.3.78-.62,1.54-.94,2.21a10.87,10.87,0,0,1-1.09,1.62,1.36,1.36,0,0,1-.55-.08c-.35-.14-.7-.28-1-.39-.11-.06-.16-.11-.16-.17a.28.28,0,0,1,.05-.2,11.9,11.9,0,0,0,1.57-2.74,15.91,15.91,0,0,0,.72-2c.21-.73.43-1.71.64-2.88,0-.12.08-.17.13-.17ZM21,74.05c.05-.7.13-1.57.18-2.6H12.11c-.06.28-.14.56-.19.78-.37,1.49-.75,2.83-1.12,4h10C20.89,75.62,21,74.89,21,74.05Zm.26-4.37c.06-1.4.08-3,.11-4.82H12.74c-.05,1.8-.16,3.42-.34,4.82Zm-3.77,3.64c.66.51,1.25,1,1.73,1.4,0,0-.06.09-.14.2A13,13,0,0,1,18.28,76c-.75-.64-1.49-1.26-2.29-1.82a16,16,0,0,0-1.65-.93,6.09,6.09,0,0,1,.72-1.12c.08-.11.16-.19.21-.19C16.18,72.48,16.92,72.93,17.51,73.32Zm.4-6.44c.66.5,1.25,1,1.72,1.37,0,.06-.05.12-.13.23a8.85,8.85,0,0,1-.8,1.09c-.74-.64-1.49-1.23-2.28-1.79a9.7,9.7,0,0,0-1.65-.93,5.09,5.09,0,0,1,.71-1.15.26.26,0,0,1,.22-.16C16.6,66,17.32,66.49,17.91,66.88Z"/><path class="cls-1" d="M13.68,99A5.59,5.59,0,0,1,12,101l-.69-.81A4.38,4.38,0,0,0,13.06,97h-2V93.63h3.2v3.08A5.15,5.15,0,0,1,13.68,99Z"/><path class="cls-1" d="M23.71,124.71c.18,0,.29.17.29.45V126c0,.28-.11.42-.29.42H13.62V130h7.05c.22,0,.32.17.32.45v.87c0,.31-.1.45-.32.45H13.62v3.72h.8a85,85,0,0,0,10-.56c.14,0,.22.11.22.34-.27.73-.48,1.34-.62,1.85-.05.22-.16.33-.31.33H14.42a19.74,19.74,0,0,1-3.41-.25,6.9,6.9,0,0,1-2.52-1,5.17,5.17,0,0,1-1.71-1.71,1.2,1.2,0,0,1-.16-.28,7.78,7.78,0,0,1-1.22,1.9A7.2,7.2,0,0,1,2.79,138a.41.41,0,0,1-.37-.14,6.68,6.68,0,0,0-.9-.7c-.19-.17-.27-.28-.27-.36s.08-.2.27-.23a7.22,7.22,0,0,0,2.12-1.59A4.84,4.84,0,0,0,4.92,133a11.35,11.35,0,0,0,.8-4.79c0-.23.11-.34.32-.34l1.76.17c.31,0,.5.14.5.39s-.13.5-.35.53-.37.23-.37.56c0,.79-.13,1.49-.21,2.07a5.26,5.26,0,0,0,.88,1.94,3.78,3.78,0,0,0,1.67,1.34,6.71,6.71,0,0,0,1.81.42v-8.85H1.65c-.21,0-.29-.14-.29-.42v-.87c0-.28.08-.45.29-.45Zm-3.44-11.48c.27,0,.4.11.4.34v8.85c0,.22-.13.33-.4.33H5.83c-.3,0-.43-.11-.43-.33v-8.85c0-.23.13-.34.43-.34Zm-1.46,3.84V115H7.26v2.1Zm0,1.73H7.26V121H18.81Z"/><path class="cls-1" d="M9.87,142.22c0,.17,0,.25-.16.25a.48.48,0,0,0-.45.31,29.82,29.82,0,0,1-2.42,3.5c.21.56.45,1.2.69,1.9a27.3,27.3,0,0,1,1,4.34,36.4,36.4,0,0,1,.48,4.91,23.68,23.68,0,0,1-.4,5.12,8,8,0,0,1-.77,2.27,1.94,1.94,0,0,1-1,.59,9.92,9.92,0,0,1-2.48.34c-.16,0-.24-.14-.24-.4-.13-.5-.26-1.06-.42-1.65a.59.59,0,0,1-.16-.36l1.86.22c.67,0,1.09-.2,1.28-.64A8.37,8.37,0,0,0,7,161.1c.08-1.1.14-2.33.14-3.67,0-1.12-.06-2.22-.16-3.22-.27.39-.51.7-.72,1a18.18,18.18,0,0,1-1.92,2.1A17.91,17.91,0,0,1,2,159.08a.5.5,0,0,1-.43-.2l-.95-.95a.63.63,0,0,1-.08-.28,12.77,12.77,0,0,0,1.83-1.15,12.89,12.89,0,0,0,2.16-2,25,25,0,0,0,2.07-2.89c-.21-.92-.45-1.79-.72-2.63-.13-.42-.26-.84-.42-1.23-.69.67-1.86,1.59-3.46,2.83a.5.5,0,0,1-.45-.26c-.24-.19-.48-.42-.72-.64a.35.35,0,0,1-.19-.31c.85-.61,1.73-1.29,2.64-2,.5-.42,1-.85,1.38-1.29l-.56-1a14.18,14.18,0,0,0-2.21-2.72c0-.17.37-.64,1.15-1.43a23,23,0,0,1,2.92,3.61l.24-.3a14.61,14.61,0,0,0,1.73-3c0-.14,0-.23.11-.23A7,7,0,0,1,9.87,142.22Zm14,.11c.21,0,.32.17.32.45v.87c0,.28-.11.42-.32.42H18.6v8.31h5c.19,0,.29.17.29.45v.87c0,.31-.1.45-.29.45h-5v9.07h5.93c.21,0,.32.14.32.45v.87c0,.28-.11.42-.32.42H10.08c-.21,0-.32-.14-.32-.42v-.87c0-.31.11-.45.32-.45h6.55v-9.07h-5c-.22,0-.3-.14-.3-.45v-.87c0-.28.08-.45.3-.45h5v-8.31H11.12c-.21,0-.32-.14-.32-.42v-.87c0-.28.11-.45.32-.45Z"/><path class="cls-1" d="M14.77,168.8c0,.16-.14.3-.38.42a1,1,0,0,0-.58,1c-.05,1.38-.11,2.64-.16,3.76a25.06,25.06,0,0,0,.48,4.81,22.82,22.82,0,0,0,1.41,4.37,16.57,16.57,0,0,0,1.94,3.28,13.72,13.72,0,0,0,3.06,3.11,14,14,0,0,0,4.31,2.33.56.56,0,0,1-.27.42c-.34.39-.66.78-.95,1.17-.19.17-.3.28-.35.28A22.13,22.13,0,0,1,18.94,191a11.33,11.33,0,0,1-2.87-3.14,17.69,17.69,0,0,1-2.18-3.67,17.24,17.24,0,0,1-1.23-3.42c-.08.28-.16.56-.21.81a24.25,24.25,0,0,1-1.38,3.76,14.85,14.85,0,0,1-2.4,3.78,19.24,19.24,0,0,1-2.47,2.18,15.65,15.65,0,0,1-4.12,2.41c-.16,0-.27-.11-.38-.28a8.76,8.76,0,0,0-1-1.09c-.16-.17-.21-.25-.21-.28s.05-.17.18-.17a19.35,19.35,0,0,0,3.41-1.76,13.3,13.3,0,0,0,2.74-2.24,12.65,12.65,0,0,0,2.37-3.34,19.89,19.89,0,0,0,1.49-3.83,16.94,16.94,0,0,0,.69-3.84,55.92,55.92,0,0,0,.34-7.14,8.32,8.32,0,0,0-.1-1.21c0-.11,0-.19.21-.19A9.51,9.51,0,0,1,14.77,168.8Z"/><path class="cls-1" d="M6.23,199.55V196.8c0-.22.13-.33.42-.33,1.3,0,2,.11,2,.33s-.11.39-.27.42-.24.23-.24.56v1.77h3.62c.22,0,.32.14.32.42v.89c0,.28-.1.42-.32.42H8.54A11.25,11.25,0,0,0,9.6,202.8a10.41,10.41,0,0,0,2.56,2.12c.13.06.21.14.21.2s-.08.14-.21.22a4.2,4.2,0,0,1-.75.87c-.13.17-.24.23-.29.23a.79.79,0,0,1-.37-.11,10.39,10.39,0,0,1-2.18-2.16,6.29,6.29,0,0,1-.46-.65v5.33c0,.22-.16.33-.42.33h-1c-.29,0-.42-.11-.42-.33v-5c-.16.22-.3.39-.4.56a22.92,22.92,0,0,1-2,2.18,15.15,15.15,0,0,1-2.4,1.88.58.58,0,0,1-.45-.17c-.32-.33-.64-.67-.93-1a.79.79,0,0,1-.08-.31,10.87,10.87,0,0,0,1.84-1.2A13,13,0,0,0,4,203.75a26,26,0,0,0,1.73-2.47H1.57c-.21,0-.32-.14-.32-.42V200c0-.28.11-.42.32-.42Zm12.15,10.61a.38.38,0,0,1,.43.42v8c0,.28.05.48.19.56a1.13,1.13,0,0,0,.74.2H22a.62.62,0,0,0,.64-.45,12.18,12.18,0,0,0,.4-2.13c0-.11.05-.17.21-.17a2,2,0,0,1,.35.12,5.42,5.42,0,0,0,.85.33.42.42,0,0,1,.37.42,25,25,0,0,1-.77,3.11,1.33,1.33,0,0,1-1.33.73H18.81a2.71,2.71,0,0,1-1.57-.39,1.44,1.44,0,0,1-.29-1v-8H8.51v1.2a27.64,27.64,0,0,1-.24,4.12,7.08,7.08,0,0,1-.9,2.35A3.36,3.36,0,0,1,6,220.72a16.29,16.29,0,0,1-3.57,1.37c-.21,0-.34-.08-.34-.22-.27-.48-.51-.92-.77-1.34a.64.64,0,0,1-.14-.42,8.14,8.14,0,0,0,3.25-.79,4.28,4.28,0,0,0,1.36-1,4.12,4.12,0,0,0,.69-1.62,29.58,29.58,0,0,0,.21-4v-2.1c0-.28.13-.42.43-.42Zm-4.7,5.58c.74.78,1.38,1.45,1.91,2.07,0,.06-.05.11-.13.22-.53.82-.8,1.21-.8,1.21a32.88,32.88,0,0,0-2.61-2.66,12.75,12.75,0,0,0-1.86-1.4,5.75,5.75,0,0,1,.82-1.24.26.26,0,0,1,.22-.16A29.41,29.41,0,0,1,13.68,215.74Zm4-16.19V196.8c0-.22.13-.33.42-.33,1.31,0,2,.11,2,.33s-.11.39-.27.42-.26.23-.26.56v1.77H24c.21,0,.32.14.32.42v.89c0,.28-.11.42-.32.42H20.11a18.45,18.45,0,0,0,1,1.85,9.21,9.21,0,0,0,1.52,1.93,7.76,7.76,0,0,0,2.47,1.88c.11,0,.19.09.19.14a.49.49,0,0,1-.13.34c-.38.31-.7.61-1,.89-.08.14-.16.2-.24.2a6.44,6.44,0,0,1-1.81-1.37,9.89,9.89,0,0,1-1.86-2.3,8.42,8.42,0,0,1-.69-1.2V209c0,.22-.13.33-.4.33h-1c-.29,0-.42-.11-.42-.33v-4.9q-.17.21-.24.33a19.67,19.67,0,0,1-1.81,2.16,18.52,18.52,0,0,1-2.21,1.85.6.6,0,0,1-.45-.17c-.32-.34-.61-.67-.93-.95A.68.68,0,0,1,12,207a9.82,9.82,0,0,0,1.7-1.18,11.7,11.7,0,0,0,2-2.1,23,23,0,0,0,1.6-2.41H13.52c-.22,0-.32-.14-.32-.42V200c0-.28.1-.42.32-.42Z"/><path class="cls-1" d="M14.77,230.49c0,.23-.11.34-.32.34a.9.9,0,0,0-.19,0,17.59,17.59,0,0,0,2.13,2.24,14.25,14.25,0,0,0,3.11,2.13,18.85,18.85,0,0,0,5.19,2.1c.21,0,.35.11.35.17a.6.6,0,0,1-.14.36c-.4.34-.74.65-1.06.95-.08.17-.16.23-.24.23a18,18,0,0,1-3.86-1.52A17.13,17.13,0,0,1,15.8,235a27,27,0,0,1-3-2.89c-.64.59-1.41,1.26-2.29,2.05A28,28,0,0,1,6,237.33a33.63,33.63,0,0,1-4,1.93.54.54,0,0,1-.54-.28,11.28,11.28,0,0,1-.77-.89c-.18-.06-.26-.14-.26-.26s.05-.14.21-.19a24.7,24.7,0,0,0,4.87-2.19,23.25,23.25,0,0,0,3.88-2.83,21.49,21.49,0,0,0,2.93-3.19.77.77,0,0,1,.58-.34A8.56,8.56,0,0,1,14.77,230.49Zm-4-5.29c.13.17.21.28.21.39s-.1.14-.31.14A1.76,1.76,0,0,0,10,226a18.57,18.57,0,0,1-2.56,2.32,24.83,24.83,0,0,1-4.09,2.41c-.22,0-.38-.06-.43-.23a8.08,8.08,0,0,1-.93-.78c-.16,0-.21-.08-.21-.2s.05-.11.18-.16a7.6,7.6,0,0,0,1.94-.82,14.47,14.47,0,0,0,2.9-2c.7-.62,1.47-1.38,2.32-2.3.08-.11.16-.2.27-.2Zm8.73,14.06c.26,0,.42.11.42.34v9.94c0,.23-.16.34-.42.34h-1c-.27,0-.4-.11-.4-.34v-.87H7.26v.87c0,.23-.13.34-.4.34h-1c-.3,0-.43-.11-.43-.34v-9.86c0-.28.13-.42.43-.42Zm-1.44,7.65V241H7.26v5.91Zm1.54-19.86A18.2,18.2,0,0,0,23.36,229c.21.17.35.31.35.42s-.4.65-1.15,1.43a1.67,1.67,0,0,1-.42-.08,31.14,31.14,0,0,1-6.84-5.05c-.16-.16-.24-.28-.24-.33s.37-.59,1.14-1.32A21.15,21.15,0,0,0,19.63,227.05Z"/><path class="cls-1" d="M8.38,253c.21.06.35.17.35.4s-.14.39-.4.39a.51.51,0,0,0-.32.36c-.53,1.26-1,2.35-1.54,3.28h4.12c.26,0,.42.11.42.33v18.6c0,.23-.16.34-.42.34h-1c-.26,0-.4-.11-.4-.34v-1.43H3.54v2.19c0,.22-.16.34-.43.34h-1c-.3,0-.43-.12-.43-.34V257.86c0-.28.13-.45.43-.45H4.47a48.8,48.8,0,0,0,2.07-4.59.33.33,0,0,1,.32-.23Zm.77,12.22v-6H3.54v6Zm0,8v-6.25H3.54v6.25ZM18.3,253.1c.19.16.3.28.3.39a.3.3,0,0,1-.22.31.37.37,0,0,0-.39.33c-.4,1.23-.75,2.21-1.07,3h6.57a.48.48,0,0,1,.51.53q0,9.58-.32,13.22a15.72,15.72,0,0,1-1,4.68,2.73,2.73,0,0,1-1.43,1.54,7.85,7.85,0,0,1-3,.48c-1.12,0-1.7-.2-1.7-.56a8.26,8.26,0,0,0-.38-1.4c0-.17,0-.23.11-.23l.21,0a11.54,11.54,0,0,0,1.36.08,4.38,4.38,0,0,0,2.66-.58c.53-.42.9-1.6,1.12-3.53a115.09,115.09,0,0,0,.48-12.52h-6a17,17,0,0,1-.9,1.65,16.78,16.78,0,0,1-1.6,2,1.89,1.89,0,0,1-.58-.08L12,262c-.14-.06-.19-.09-.19-.14a.29.29,0,0,1,.11-.26,13.86,13.86,0,0,0,2.34-3.22A18.76,18.76,0,0,0,15.35,256a28.34,28.34,0,0,0,1-3.39c.05-.11.13-.19.21-.19ZM16,263.88a46.14,46.14,0,0,1,2.68,5.46c0,.28-.05.42-.16.45a2.84,2.84,0,0,1-1.49.64q-1.35-3.48-2.5-5.79c0-.2.38-.48,1.15-.87A.43.43,0,0,1,16,263.88Z"/><path class="cls-1" d="M7.34,293.76c.43,1,.67,1.57.67,1.63a.63.63,0,0,1-.19.42C6.7,298,5.67,299.9,4.68,301.44c-.56.89-1.22,1.85-2,2.88a1.87,1.87,0,0,0-.21,1c0,.22-.08.34-.21.34a8.85,8.85,0,0,1-1.7-1.77.32.32,0,0,1-.16-.31.49.49,0,0,1,.13-.39,13.72,13.72,0,0,0,1.91-2.1,39.78,39.78,0,0,0,2.59-3.89c.71-1.24,1.35-2.38,1.88-3.45.06-.17.14-.25.22-.25S7.29,293.59,7.34,293.76Zm-3.22-5.18c.78.62,1.44,1.15,2,1.65a.61.61,0,0,1-.13.26,14.93,14.93,0,0,1-.91,1.28,25.44,25.44,0,0,0-2.66-2.24,13.86,13.86,0,0,0-1.91-1.15,5,5,0,0,1,.82-1.23c.08-.11.16-.19.24-.19A22.17,22.17,0,0,1,4.12,288.58Zm2.29-6.47c.75.62,1.36,1.18,1.89,1.68a.7.7,0,0,1-.13.22,14.37,14.37,0,0,1-.91,1.29,23.73,23.73,0,0,0-2.52-2.21,11.86,11.86,0,0,0-1.84-1.18,6.15,6.15,0,0,1,.82-1.23c.08-.11.16-.19.22-.19A21.24,21.24,0,0,1,6.41,282.11Zm12.08-1.29c0,.25-.11.39-.27.42s-.23.23-.23.56v1.54h4.46c.27,0,.4.11.4.34v10.81c0,.31-.13.45-.4.45H17.08a14,14,0,0,0,1.06,2.91,8.84,8.84,0,0,0,.62,1.15,24.22,24.22,0,0,0,3.06-2.52,1,1,0,0,1,.53-.23.56.56,0,0,1,.34.2c1,.79,1.52,1.29,1.52,1.46s-.11.31-.32.31l-.61-.12a1.31,1.31,0,0,0-.67.28c-.79.56-1.75,1.24-2.84,2.05a6.19,6.19,0,0,0,.42.5,9.41,9.41,0,0,0,3.14,2.52,10.39,10.39,0,0,0,1.65.7c.16.06.27.14.27.2a.46.46,0,0,1-.16.39c-.29.37-.56.7-.77,1A.36.36,0,0,1,24,306a4.46,4.46,0,0,1-1.17-.5,15.3,15.3,0,0,1-4.07-3.25,15,15,0,0,1-2.1-3.28,27.15,27.15,0,0,1-1.39-4H11.73v7.48c1.63-.37,3.17-.76,4.63-1.21.06,0,.11,0,.16,0s.21.09.21.23a6,6,0,0,1-.1,1.51c-2.66.73-5.38,1.37-8.12,2-.26.5-.45.76-.61.76s-.5-.79-1-2.3c.88-.11,1.89-.31,3-.53V283.68c0-.23.13-.34.43-.34H16v-2.52c0-.22.13-.33.4-.33Q18.49,280.49,18.49,280.82Zm-6.76,7.45H21V285H11.73Zm0,5H21V290H11.73Z"/><path class="cls-1" d="M6,322.3c.42.95.66,1.46.66,1.51a.7.7,0,0,1-.13.42c-.85,2.13-1.62,3.95-2.37,5.47-.43.84-.9,1.76-1.49,2.77a2.51,2.51,0,0,0-.16,1c0,.22-.08.33-.21.33s-.67-.56-1.6-1.68a.37.37,0,0,1-.18-.28.47.47,0,0,1,.13-.39,14.58,14.58,0,0,0,1.49-2,40,40,0,0,0,2-3.79c.59-1.2,1.06-2.32,1.49-3.33.05-.14.11-.22.19-.22S6,322.16,6,322.3Zm-2.05-5.12c.69.5,1.27,1,1.78,1.4a.89.89,0,0,1-.16.25c-.58.87-.88,1.29-.88,1.29a20.37,20.37,0,0,0-2.37-1.88,13.07,13.07,0,0,0-1.7-1A6,6,0,0,1,1.44,316c.08-.12.16-.2.21-.2C2.58,316.33,3.35,316.78,3.94,317.18Zm1.51-6.95c.67.53,1.23,1,1.71,1.46a2.11,2.11,0,0,1-.14.25,15,15,0,0,1-.9,1.26,24.13,24.13,0,0,0-2.29-1.93,9.65,9.65,0,0,0-1.65-1A5.6,5.6,0,0,1,3,309c.08-.11.16-.19.21-.19A22.41,22.41,0,0,1,5.45,310.23Zm16.47,15.35a.69.69,0,0,1,.43.14,2.42,2.42,0,0,1,.5.73A12.47,12.47,0,0,1,21,328.88a11.67,11.67,0,0,1-2.18,1.8,10.53,10.53,0,0,1-1.25.72l1.28.34a30.77,30.77,0,0,0,5.9.39,1.49,1.49,0,0,1-.21.53,6,6,0,0,0-.35,1c-.05.2-.13.31-.29.31a23.88,23.88,0,0,1-5.56-.67,20.39,20.39,0,0,1-3-1c-1.09.36-2.26.7-3.48,1-1,.25-2.35.47-4,.7a.54.54,0,0,1-.5-.25c-.22-.31-.4-.62-.62-.93a.39.39,0,0,1-.13-.25c0-.06,0-.11.21-.11,1-.11,2-.25,3-.42,1.33-.23,2.5-.51,3.51-.79a6,6,0,0,1-1.41-1.2,9.63,9.63,0,0,1-2.16-2.86h-1c-.21,0-.32-.14-.32-.42v-.87a.29.29,0,0,1,.32-.33Zm1.79-6.89c.26,0,.39.11.39.31v4.81c0,.23-.13.34-.39.34H8.22c-.29,0-.42-.11-.42-.34V319c0-.2.13-.31.42-.31ZM22,308.94c.27,0,.42.11.42.34v7.64c0,.23-.15.34-.42.34H9.66c-.27,0-.4-.11-.4-.34v-7.64c0-.23.13-.34.4-.34ZM12.58,320.2H9.66v2.41h2.92Zm8-7.87v-1.85H11.12v1.85Zm0,1.54H11.12v1.85h9.45Zm-7.8,15a10,10,0,0,0,2.55,1.76,15.28,15.28,0,0,0,2.29-1.12,8.05,8.05,0,0,0,2-1.65,7.09,7.09,0,0,0,.56-.62H11.52A7.8,7.8,0,0,0,12.77,328.83Zm4.47-8.63h-2.9v2.41h2.9Zm5,0H19v2.41h3.22Z"/><path class="cls-1" d="M15.22,352a3.39,3.39,0,0,1-2.56,1.12A3.29,3.29,0,0,1,10.11,352a3.66,3.66,0,0,1-1.06-2.69,3.75,3.75,0,0,1,1.06-2.69,3.39,3.39,0,0,1,2.55-1.12,3.49,3.49,0,0,1,2.56,1.12,3.88,3.88,0,0,1,1.06,2.69A3.78,3.78,0,0,1,15.22,352Zm-.69-4.65a2.59,2.59,0,0,0-1.87-.81,2.48,2.48,0,0,0-1.86.81,2.72,2.72,0,0,0-.77,2,2.62,2.62,0,0,0,.77,2,2.38,2.38,0,0,0,1.86.81,2.47,2.47,0,0,0,1.87-.81,2.74,2.74,0,0,0,.77-2A2.85,2.85,0,0,0,14.53,347.31Z"/></g></g></svg>