<svg xmlns="http://www.w3.org/2000/svg" viewBox="0 0 93.88 286.01"><defs><style>.cls-1{fill:#231815;}</style></defs><title>資產 38</title><g id="圖層_2" data-name="圖層 2"><g id="圖層_2-2" data-name="圖層 2"><path class="cls-1" d="M62.17,20.14C61.2,25.92,59.05,37,57.54,42l-4.3-2.27c2.66-5,5.63-14.21,7.37-20.08ZM60.52,13.3a91.65,91.65,0,0,0-6-9.4l1.05-1.35A43.84,43.84,0,0,1,63.9,10ZM91.18,45.43c-5.22-1.11-9.56-2.75-13.09-5.88-4.25,3.08-9.84,4.91-16.89,5.92l-.41-1.68c6.41-1.35,11.49-3.57,15.15-6.55a27,27,0,0,1-3.8-6.55A31.29,31.29,0,0,1,64,38.2L63.08,37a28.67,28.67,0,0,0,9.57-15.13l3.61,1.25a31.77,31.77,0,0,1-1.55,3.57h7.36l.64-.63,4,1.74a25.42,25.42,0,0,1-6,9.58c3.57,2,7.83,2.85,12.86,3.28ZM70.54,15.22H64V13.05h11V8.29H66.6V6.12h8.33V.53h4V6.12h9.2V8.29H79v4.76H91.18v2.17H82.44v2.51c0,2.31.91,2.45,3.8,2.41s3.8-.49,4.53-1.21l1.51,3c-1,.91-2.11,1.54-6,1.54-5.76,0-7.59-.44-7.59-5.16V15.22H74.52c-.82,5.21-4.35,10-11.3,12.14l-.69-1.59C68.44,22.93,69.9,19.46,70.54,15.22ZM73.1,29.34a20.54,20.54,0,0,0,4.81,6.07,16.93,16.93,0,0,0,3.93-6.6H73.47A6.08,6.08,0,0,1,73.1,29.34Z"/><path class="cls-1" d="M75.3,88.74H92.46v2.65H54.07V88.74h17V78.23H58.69v-2.4h29.2v2.4H75.3ZM58.5,65.28h-4V55.54H73.79c-2.11-1.92-5.31-4.38-7.55-6l.64-1.63a43.89,43.89,0,0,1,10.53,4l-2.2,3.61H91.87v9.4h-4V57.71h-8v8c0,1.78.5,2.46,4.3,2.46,3.3,0,4.49.09,6.18-1.59l2.29,3.27C91,72,88.43,72.07,82.94,72.07c-6.36,0-7-1.4-7-5.2V57.71H70.4l0,2.31c-.14,8.19-6.78,13.59-15.1,15.37l-.55-1.64c6.36-2.26,11.39-6.6,11.53-14l0-2H58.5Z"/><path class="cls-1" d="M90.72,101.65v37.91H86.51v-4.77H59.65v4.91H55.44v-38Zm-4.21,31V125H80.7c-4,0-4.9-1.88-4.9-6.36V103.82H70.4c-.09,14.5-1.6,20.81-9.33,25.82l-1-1.35c5.58-5.69,6.27-10.22,6.32-24.47H59.65v28.8Zm0-28.8H79.74V118c0,2.36.46,3.08,2.75,3.08h4Z"/><path class="cls-1" d="M53,169.48l-.6-1.55a32.29,32.29,0,0,0,14.51-11.32H54.34v-2.16H71.09v-3.62c-5.35.34-10.62.44-14.32.34l-.28-1.69c13.59-.52,22.24-2.21,28.6-4.86l3.62,3.56c-3.11,1.06-8.19,1.83-13.59,2.32v3.95H92v2.16H77.08c5.54,5.11,11.31,6.6,16.8,7.62l-2.29,4.33c-4.48-1-11.67-4.77-16.47-11.56v8.48h-4v-8.34C67.61,162.64,61.07,166.92,53,169.48Zm22.93,6.31H93.1V178H75.9v6.7c0,5-3.76,8.24-12.22,1.3l.64-1.64c6.4,2.17,7.55,1.69,7.55-.91V178H53.56v-2.16H71.87v-3.66l3.43.81a22.47,22.47,0,0,0,4.12-4.09H60.56v-2.17H80.11l1.09-.62,4.26,3.18c-2.29,2.12-6.86,4.28-9.56,5.34Z"/><path class="cls-1" d="M69.4,209a38.45,38.45,0,0,1-4.12,6.84l-.14,22h-4v-17.2a43.66,43.66,0,0,1-8.38,6.79L51.91,226a45.35,45.35,0,0,0,13-19Zm23.93-10.26v2.17h-11v5.73h-4v-5.73l-10.3.05V206H64v-5.1H53v-2.17H64V193h4v5.74l10.3-.05V193h4v5.69ZM91.41,224.4c2.79,9.15,1.65,11.85-3.34,12.18a57.21,57.21,0,0,1-8.28,0c-4.63-.29-6.27-.82-6.27-6v-22h4.21v12.77A37.54,37.54,0,0,0,87,212l4.3,2.94a43.62,43.62,0,0,1-13.59,8.38v7.08c0,1.83.41,2.12,2.56,2.31a34.16,34.16,0,0,0,6.63,0c2.66-.29,3-1.11,2.84-8.24Z"/><path class="cls-1" d="M91.18,243.23v42.54h-4v-2.84H59.05v2.93H55V243.23Zm-4,2.17H59.05v35.36h28.1ZM60.66,273.72l-.55-1.63a31.56,31.56,0,0,0,8.83-5.21H63.68V259H82.44v7.85h-8.6a18.73,18.73,0,0,1-3.12,2.41v4.92c1.83-.53,3.53-1.06,4.81-1.5l.64,1.59a66.2,66.2,0,0,1-13.23,5.49l-1.28-3.42c1.51-.24,3.39-.67,5.31-1.15v-3.81A46.07,46.07,0,0,1,60.66,273.72Zm25-16.76H60.38v-2.17H71.09V252H62.26v-2.17h8.83v-3.18H75v3.18H83.9V252H75v2.79H85.69Zm-18.17,7.8H78.6v-3.61H67.52Zm18.63,4A27.29,27.29,0,0,1,81,272.33a42.7,42.7,0,0,1,5.31,3.75l-2.7,3.38a80.41,80.41,0,0,0-10.34-9.4l.77-1.49a54,54,0,0,1,5.31,2.75,33.35,33.35,0,0,0,3.85-4.87Z"/><path class="cls-1" d="M19,36.61C15.42,38.83,6.54,41.91,2.06,43L.73,38.06c1.88-.1,4.35-.39,7-.77V22.79H1.05V20.62H7.69V15.46H3.43V15c-.73.67-1.46,1.3-2.19,1.88l-1-1.35C3.57,12.19,7.28,5.54,8.79,0L13,1.54c-.27.63-.55,1.25-.87,1.88a36.55,36.55,0,0,1,7.28,6l-2.93,2.89A69.19,69.19,0,0,0,11.35,5,40.28,40.28,0,0,1,5.22,13.3H16.57v2.16h-5v5.16H18v2.17H11.58V36.61a64.24,64.24,0,0,0,7-1.59ZM6.54,34.73,3,35.5c-.09-3-.5-6.74-.91-9.92l1.51-.29A40.9,40.9,0,0,1,6.54,34.73Zm6.09-.67a65.55,65.55,0,0,0,1.6-9.49L18,25.68a37.83,37.83,0,0,1-4,8.86Zm28.74,6.07-3.48,4.43C34,41.91,28.42,36.18,27,21.63H24.07v17.2c2-.53,4-1.11,5.95-1.79l.69,1.55a50.57,50.57,0,0,1-14,6.11l-1.46-4.38c1.69-.19,3.29-.39,4.85-.67V3.18H37.8V21.63H28.69a32.15,32.15,0,0,0,2.93,9.15,31.3,31.3,0,0,0,5.13-7.13l3.89,2.89a35.7,35.7,0,0,1-8.15,5.78C34.74,35.74,37.62,37.82,41.37,40.13ZM24.07,11.27h9.8V5.35h-9.8Zm0,8.19h9.8v-6h-9.8Z"/><path class="cls-1" d="M6,79.25A41.57,41.57,0,0,1,4.26,93L0,91.14A30.52,30.52,0,0,0,4.39,79.05ZM4.16,73.32A44.7,44.7,0,0,0,10,63.78,48.75,48.75,0,0,1,2,66L1,62H3.84A67,67,0,0,0,8.47,48.22l4.25,1.5A57.15,57.15,0,0,1,5.72,62c1.83-.09,3.66-.19,5.26-.38.74-1.64,1.42-3.42,2.2-5.35l3.75,2c-3.84,7.28-6.77,11.28-10.71,15a67,67,0,0,0,7.19-1c-.37-1.2-.73-2.36-1.14-3.56l1.32-.73a29.54,29.54,0,0,1,4.49,8l-3.39,1.49c-.27-1.3-.55-2.45-.87-3.56A55.5,55.5,0,0,1,1.6,77.75L.5,73.42C1.78,73.42,3,73.37,4.16,73.32Zm5.31,5.06A61.65,61.65,0,0,1,12.36,89l-4,.63a94.36,94.36,0,0,0-.37-11ZM42,88.69,38.81,93.6a28.82,28.82,0,0,1-9.15-7.66c-3.48,3.47-7.78,5.88-13.23,7.81l-.69-1.55a33.27,33.27,0,0,0,12-9.2,36.68,36.68,0,0,1-4.76-15.85h-.05c-.82,10.6-3.06,19.37-9.06,24.62l-1.19-1.16a19.28,19.28,0,0,0,3.2-5.39l-1.73.87a68.7,68.7,0,0,0-2.43-8.63L13,76.79a42.59,42.59,0,0,1,3.76,5.83C19,75.3,19.27,65.47,19.27,53.57h-4V51.4H35c-.82,4.82-1.46,9-2.52,13.59h1.93l.86-.92,4.08,1.78c-1.74,7.23-4,12.62-7,16.77A34.9,34.9,0,0,0,42,88.69ZM23.29,53.57Q23.29,59.5,23,65h5.54c.91-4.63,1.51-8.43,1.87-11.42Zm6.59,26.25a42,42,0,0,0,4.54-12.67H24.48A32.2,32.2,0,0,0,29.88,79.82Z"/><path class="cls-1" d="M1.14,123.61.46,122c4.48-2.4,8.14-4.91,9.79-10.93H1.92v-2.17h8.83a35.87,35.87,0,0,0,.46-4.91H7.87A27.06,27.06,0,0,1,4,108.58l-1.14-1.2A34.29,34.29,0,0,0,7.14,96.2l4.39,1.21a34.29,34.29,0,0,1-2.29,4.43H22.33V104H15.42a38.92,38.92,0,0,1-.5,4.91h8.42v2.17h-9c-.14.48-.32,1-.46,1.44a37.08,37.08,0,0,1,8.88,4.2l-2.42,3.8a61.78,61.78,0,0,0-7.28-6.17C10.71,119,6.59,121.69,1.14,123.61Zm7.19-2.31H34.14v19.8h-4V138H12.36v3.32h-4Zm4,6.89H30.11v-4.72H12.36Zm0,7.66H30.11v-5.49H12.36ZM39.45,101v18.36H35.51v-3.28H28.15v3.76H24.21V101Zm-3.94,12.91V103.14H28.15v10.74Z"/><path class="cls-1" d="M7.14,176.36l1.56.49A23.5,23.5,0,0,1,4,188.26L.55,184.94C3.43,182.82,6,180.41,7.14,176.36ZM32,170.15H1.1V168H32v-2.26H5.54v-2H35.93V168H41.1v2.17H35.93v4.53H5.26v-2H32ZM9.61,159.65H1.92v-2H9.61V155H3.48v-2H9.61v-2.5H2.47v-2H9.61V145.1h3.84v3.42H19.5v2H13.45V153H19v2H13.45v2.69H19.5v2H13.45v2.89H9.61Zm21.46,18.59c2.06,7.28.32,9.3-3.47,9.78a49.19,49.19,0,0,1-9.34.19c-4.21-.33-6.91-.77-6.91-4.33v-7.8h4v5.54c0,1.92.64,2.55,3.2,2.74a39.55,39.55,0,0,0,8.1-.14c2.24-.34,2.7-.87,2.75-6Zm-13.36-.86.6-1.59A25.48,25.48,0,0,1,26.77,179l-2.24,3.75A52.07,52.07,0,0,0,17.71,177.38Zm10.21-17.73H21.24v-2h6.68V155H22.15v-2h5.77v-2.5H21.24v-2h6.68V145.1h3.84v3.42h7.46v2H31.76V153h6.77v2H31.76v2.69h8.51v2H31.76v2.89H27.92Zm13.59,24.47L37.89,187a73.34,73.34,0,0,0-5.21-9.73l1.19-1A33.91,33.91,0,0,1,41.51,184.12Z"/><path class="cls-1" d="M41.55,231.52,40,236.63c-8.1.58-18.12.68-23.48-1.06a17.28,17.28,0,0,1-7.92-5.11,26.94,26.94,0,0,1-7.41,7.76l-1-1.4a26.06,26.06,0,0,0,6.46-9A28.84,28.84,0,0,1,3,217.36l1.61-.48A26.14,26.14,0,0,0,7.83,225a54.86,54.86,0,0,0,2.65-12.76h-4a26.14,26.14,0,0,1-2,3.32l-3.25-1.44A115.57,115.57,0,0,0,8.6,198.43H1.05v-2.07H13.68a127.78,127.78,0,0,1-6,13.68h2.75l.73-.77,3.62,1.44a46.5,46.5,0,0,1-4.63,17.11,15.6,15.6,0,0,0,5.13,3.27C21.19,233.45,32.68,232.63,41.55,231.52Zm-17.34-26.1h-10v-2.08h10v-3.85H16.34v-2.17h7.87V193h3.94v4.29h8.92v6h3.71v2.08H37.07v6.5H28.15v3.8h9.33v2.17H28.15v4.48H39.59v2.17H28.15v6.36H24.21v-6.36H14.14v-2.17H24.21v-4.48H15.79v-2.17h8.42v-3.8h-8.1v-2.17h8.1Zm3.94-2.08h5.3v-3.85h-5.3Zm0,6.41h5.3v-4.33h-5.3Z"/><path class="cls-1" d="M1.1,254.89l-1-1.35a27.34,27.34,0,0,0,7.5-12.86L12,242A21.87,21.87,0,0,1,10,245.74H21.69v2.16H13.87a28.26,28.26,0,0,1,3.38,4.34l-3.38,1.3a34.94,34.94,0,0,0-2.11-5.64H8.42A33.65,33.65,0,0,1,1.1,254.89Zm40.82,24.76-2.43,4.77c-4.62-.77-12.35-5-16.52-11.37v13H19V273.19c-3.25,5.06-11.4,9.35-18.26,11l-.55-1.55C7,280,11.67,277.1,15.29,272.52H1.56v-2.17H19v-4.09a21.31,21.31,0,0,1-3.85,2l-.77-1.54a11.82,11.82,0,0,0,4.07-3.81,76.18,76.18,0,0,1-15.7,4.58l-1-4c2.61-.14,4.85-.34,7-.58v-6.4H2.33v-2.17H18.9v2.17H12.54v5.87c1.92-.33,3.89-.72,6-1.25l.28,1.06c.91-2.07.91-4.58.91-8.33H34v7.22c0,1.79.32,2.07,2.25,2.07,2.1,0,2.47-.43,2.28-5.34h1.65c2.29,7.75.46,8.77-4,8.81-5,.05-5.94-1-5.94-5.05v-5.54h-6.6c0,5-1.46,7.85-4.21,9.92H23v4.38H40.55v2.17H24.62C29.75,277.19,35.51,278.59,41.92,279.65ZM19.08,252a29.6,29.6,0,0,0,6.09-11.47l4.21,1.5a29.58,29.58,0,0,1-2.1,3.66H41.1v2.17H32.22a19,19,0,0,1,3.34,3.8l-3.34,1.45a39.93,39.93,0,0,0-2.34-5.25H25.67a32.81,32.81,0,0,1-5.53,5.39Zm5.36,5.59,1.37-.58a28.52,28.52,0,0,1,3.39,7.61l-3.3.92A65,65,0,0,0,24.44,257.59Z"/></g></g></svg>