<svg xmlns="http://www.w3.org/2000/svg" viewBox="0 0 29.08 286.16"><defs><style>.cls-1{fill:#956134;}</style></defs><title>資產 37</title><g id="圖層_2" data-name="圖層 2"><g id="圖層_2-2" data-name="圖層 2"><path class="cls-1" d="M10.62,1.73v9.93H8v5.27h3.09V19.3H8v5.33c1.22-.32,2.41-.67,3.57-1.06v2.25c-2.07.71-5.27,1.67-9.67,2.89-.18.32-.39.52-.58.52S1,29.07,1,28.81l-.55-2.6L1.56,26V14.55l1.95.16c.36,0,.55.13.55.32s-.12.29-.37.51V25.66c.67-.13,1.31-.26,1.92-.42V11.66H1.56V1.73ZM8.21,4H3.94v5.4H8.21Zm9-.77c.18-1,.33-2.05.46-3.24l2.65.19c.37.07.58.23.58.42s-.3.39-.85.77c-.13.71-.25,1.32-.37,1.86h8V5.88H23.53a12.21,12.21,0,0,0,1.18,1.89A15.75,15.75,0,0,0,29,11.53L26.21,13.3a23.25,23.25,0,0,1-2.38-2.7v2.31H16V10.86a25.77,25.77,0,0,1-3,2.56L10.74,12a15.84,15.84,0,0,0,3.17-2.57A12.66,12.66,0,0,0,16.39,6s0-.06,0-.09H12.14V3.24ZM27.89,14.81v2.37h-8L18.34,20.3h8.72c0,3.6-.24,5.84-.73,6.77a2.87,2.87,0,0,1-2,1.84,17.64,17.64,0,0,1-5.4.57l-1.19-2.76a25.58,25.58,0,0,0,4.94-.26,1.87,1.87,0,0,0,1.16-1,6,6,0,0,0,.64-2.79H17.15l-1.07,2.12-2.84-.13L17,17.18H12V14.81Zm-4.12-4.28a8.77,8.77,0,0,1-1-1.44,19.41,19.41,0,0,1-1.4-3.21H19a11.72,11.72,0,0,1-.79,1.89,13.2,13.2,0,0,1-1.93,2.76Z"/><path class="cls-1" d="M6.32,36.13V32.34l2.41.23c.45.06.7.19.7.41s-.18.36-.49.61v2.54H13.7v2.63H8.94v3.38h5.37v2.63H9.89v3.89h3.69v2.63H9.89v5.49a13.55,13.55,0,0,0,2.93.77c2.1.45,6.34.65,12.69.65h3.2L27.52,61c-5.12,0-9.09-.16-11.84-.42a26.18,26.18,0,0,1-5.52-1A12.33,12.33,0,0,1,5.71,57.3a8.63,8.63,0,0,1-1.53-1.51,1.33,1.33,0,0,0-.09.45,33.28,33.28,0,0,1-1.34,5.1L.24,59.58A27.34,27.34,0,0,0,1.8,54q.46-2.61.82-7.42l2.57.61c.33.09.52.22.52.38s-.22.52-.58.74c-.19,1.74-.37,3.28-.52,4.56a13.47,13.47,0,0,0,2.65,2.6V44.77H.82V42.14h5.5V38.76H1.43V36.13Zm21.81,3.12H22.52a55.15,55.15,0,0,0,.76,7.67c.06.36.12.68.18.93a44.93,44.93,0,0,0,2.29-7.09l2.44,1.12a.61.61,0,0,1,.31.51c0,.2-.25.36-.73.52a52.58,52.58,0,0,1-3.06,8c-.09.16-.18.32-.27.45.18.45.37.86.55,1.25.33.64.64.93.88.93s.52-1.28.95-3.92L29,51.55c-1.16,3.79-2.14,5.65-3,5.65s-1.47-.71-2.44-2.15a6.73,6.73,0,0,1-.71-1.29c-.27.36-.55.68-.79,1a23.87,23.87,0,0,1-3.11,3l-1.89-2a16.56,16.56,0,0,0,3.23-2.86,14.79,14.79,0,0,0,1.43-1.73,28.93,28.93,0,0,1-1.06-4.18,56.55,56.55,0,0,1-.74-7.67H17.51V50.87a33.36,33.36,0,0,0,3.12-1.44v2.5a70.88,70.88,0,0,1-6.56,3.5c-.22.45-.43.65-.61.65s-.34-.17-.37-.52l-.7-3a21.54,21.54,0,0,0,2.5-.7V36.61h4.94c-.06-1.35-.06-2.76-.06-4.27l2.5.52c.31.06.49.19.49.38a1.5,1.5,0,0,1-.36.87c0,.86,0,1.7,0,2.5h5.7Zm.25-4.63-1.93,1.86a19.11,19.11,0,0,0-3.2-2.24L25,32.47A24.41,24.41,0,0,1,28.38,34.62Z"/><path class="cls-1" d="M10.37,67.22V88.8H7.75V87.16H4.3v3H1.68v-23ZM7.75,76.28V69.72H4.3v6.56Zm0,8.38V78.52H4.3v6.14ZM18.12,68.47V64.33l2.41.22c.43.07.68.2.68.42s-.16.35-.46.64v2.86h7.38V71H20.75v4H27.4v2.64H24.07V80.9h4.31v2.63H24.07v6.52a2.62,2.62,0,0,1-1.16,2.35c-.64.51-2.22.8-4.79.8l-1.06-2.76h2.8c1,0,1.53-.29,1.59-.87v-6H11.56V80.9h9.89V77.66H12.27V75h5.85V71H11.56V68.47Zm0,19.34-2,1.89a21.4,21.4,0,0,0-3.2-3l1.89-1.89A23.26,23.26,0,0,1,18.12,87.81Z"/><path class="cls-1" d="M10.56,97.79c.24.13.39.26.39.42,0,.32-.24.58-.7.77-1,2.25-1.89,4.24-2.74,5.91v20.69H4.76v-16c-.79,1.22-1.68,2.51-2.62,3.82l-2-2.15a45.38,45.38,0,0,0,4.52-6.81,58.93,58.93,0,0,0,3.48-7.87Zm16.38,10-9.4,2a15.81,15.81,0,0,0,.55,2.79,17.94,17.94,0,0,0,3.63,7.13c1.23,1.48,2.26,2.19,3.06,2.19.12,0,.24-.1.42-.36a12.46,12.46,0,0,0,.89-2.66l2.41,2.12A13.4,13.4,0,0,1,27,124a2.58,2.58,0,0,1-2,1.29,5.35,5.35,0,0,1-3.3-1.35,16.78,16.78,0,0,1-4-4.69,23.41,23.41,0,0,1-2.9-8.38,2.15,2.15,0,0,1-.09-.61l-5.86,1.22-.12-2.76,5.7-1.19c-.24-2.83-.33-6.46-.33-10.86l3,.32c.45.07.7.23.7.45s-.28.68-.83,1.26c0,3.21.1,5.94.31,8.25l9.46-2Zm-1.43-5.52-2.14,2a25.54,25.54,0,0,0-3.72-4.4L21.57,98A30.57,30.57,0,0,1,25.51,102.23Z"/><path class="cls-1" d="M13.94,147.54l-1.06-1.38a4.88,4.88,0,0,0,1.8-2.95H12.6V139.1h3.91v3.5A6.13,6.13,0,0,1,13.94,147.54Z"/><path class="cls-1" d="M7,177.51v-3.76l2.44.22c.43,0,.67.16.67.39s-.18.38-.49.64v2.51h4.55V180H9.64v4.56c1.65-.25,3.3-.58,4.91-.93v2.41C12,186.69,8,187.5,2.62,188.56c-.21.32-.42.48-.61.48s-.3-.16-.3-.45l-.64-2.8c2-.19,4-.45,5.95-.77v-5H1.8v-2.5Zm8-14.68v2.5H8.91l-2.35,5.3c1.62-.22,3.2-.48,4.76-.77-.37-.64-.7-1.22-1.07-1.76l1.68-1.38a32.54,32.54,0,0,1,3.2,5.2,26.18,26.18,0,0,0,1.38-3.6,44.26,44.26,0,0,0,1.37-7.26l2.75.52q.45.19.45.48c0,.26-.27.45-.82.64-.24,1.57-.49,3-.73,4.14h8.6v2.64H25.81a42.11,42.11,0,0,1-1.06,7.22,26.32,26.32,0,0,1-1.62,4.79c0,.06,0,.1.06.1a22.71,22.71,0,0,0,5.89,6.07l-2.63,2.15a26.11,26.11,0,0,1-4.6-5.4l-.19-.29A13.2,13.2,0,0,1,20.23,186a34.43,34.43,0,0,1-4.49,3.82l-2.16-2.38a19.45,19.45,0,0,0,4-2.73,13.53,13.53,0,0,0,2.62-3.11,40.59,40.59,0,0,1-2.72-7.23l2-1.25a35.69,35.69,0,0,0,2.07,5.62c.31-.87.58-1.8.83-2.8a40.45,40.45,0,0,0,1-6.45H18.89c-.06.19-.13.38-.16.51a34.44,34.44,0,0,1-2.89,6.52l-2.14-1.89c.37-.58.67-1.16,1-1.77l-1.44,1c-.3-.68-.58-1.32-.85-2q-3.25.72-9.77,1.83c-.21.32-.42.48-.61.48s-.27-.13-.27-.42l-.55-2.57c.79-.06,1.62-.16,2.41-.25l2.53-5.66H1.19v-2.5Z"/><path class="cls-1" d="M6.29,201.82c.24.1.39.22.39.38s-.3.26-.85.39c-.06.26-.12.45-.15.64H15.74v2.35a61.31,61.31,0,0,0,3.57-12.27l2.26.86c.31.13.49.26.49.39a.56.56,0,0,1-.24.39,11.29,11.29,0,0,0-1,3.34c-.06.25-.12.48-.18.67h7.47v2.63H26.79c-.21,5.53-.92,9.57-2.08,12.18-.24.51-.48,1-.73,1.41a21.41,21.41,0,0,0,4.52,4.59l-2.05,2.28a25.14,25.14,0,0,1-4.08-4.56,19.89,19.89,0,0,1-5.31,4.43l-1.93-2.15A22.47,22.47,0,0,0,20.9,215a.69.69,0,0,1-.12-.26,25.78,25.78,0,0,1-2.17-8.83c-.21.61-.42,1.16-.61,1.67l-2.26-1.35A66.73,66.73,0,0,1,15,217a5.64,5.64,0,0,1-1.89,3.82A9.4,9.4,0,0,1,8,221.92L6.68,219c2.63,0,4.18-.19,4.67-.64a3.9,3.9,0,0,0,1.1-2.31c.37-1.32.61-4.75.67-10.34H4.88c-.18.51-.39,1-.58,1.44s-.27.58-.39.81h6.83v8.15H6v1.51H3.69v-9.28a22.06,22.06,0,0,1-1.31,2.12L.12,209a15.12,15.12,0,0,0,2.17-3.44A24,24,0,0,0,3.81,201Zm1-8.67c.46.06.7.19.7.41s-.18.36-.48.61v6.56H4.88v-2.41H1.07v-2.76H4.88v-2.64Zm1.16,20.74v-3.66H6v3.66Zm4.21-20.74c.43.06.67.19.67.41s-.15.36-.45.61v1.51h3.44v2.77H12.88V202H10.25v-9.06Zm8.21,12.33a21.4,21.4,0,0,0,1.62,7.13c.06-.13.15-.29.21-.42,1-2.25,1.53-5.78,1.62-10.6H20c-.43,1.45-.86,2.83-1.29,4.15Z"/><path class="cls-1" d="M13.46,229.82V225l2.5.22c.49.07.73.2.73.42s-.18.42-.49.74v3.4H26v2.51H16.2v4.53H28v2.63H17.27a31.37,31.37,0,0,0,5.52,5.72,28.49,28.49,0,0,0,6.29,3.92l-2.63,2.76a37.31,37.31,0,0,1-6.1-5.11,30.07,30.07,0,0,1-4.15-5.39v11.27H13.46V241.51a35.71,35.71,0,0,1-5,6.24,24.6,24.6,0,0,1-6.19,4.14L0,249.51a31.69,31.69,0,0,0,7.63-4.59,27.88,27.88,0,0,0,4.79-5.43H1.07v-2.63H13.46v-4.53H3.11v-2.51Z"/><path class="cls-1" d="M13.24,260.56v-3.28l2.5.23c.46.06.71.19.71.42s-.19.41-.49.73v1.9H26.7v2.76H16v8.93a19.41,19.41,0,0,0,5,5.59,18.63,18.63,0,0,0,7.2,3.92l-2.26,3a33.23,33.23,0,0,1-7-5,20.93,20.93,0,0,1-2.9-3.47v9.9H13.24v-9.77a26.12,26.12,0,0,1-3,3.34,41.21,41.21,0,0,1-7,5L.58,282.27a40.6,40.6,0,0,0,7.69-4.59,27.19,27.19,0,0,0,5-5.21v-9.15h-11v-2.76Zm-4.61,4.5c.28.12.43.25.43.38s-.18.39-.49.64c-.18.9-.33,1.67-.51,2.32a17.2,17.2,0,0,0,3.75,4l-2.05,1.89A24.11,24.11,0,0,1,7.11,271a.29.29,0,0,0-.09.16,13.79,13.79,0,0,1-3.08,4.05l-2-1.64a15.12,15.12,0,0,0,1.8-1.93,10.49,10.49,0,0,0,1.56-2.89,24.07,24.07,0,0,0,1.07-4.46Zm15,.12c.27.13.42.26.42.39s-.18.38-.48.64c-.16.74-.31,1.38-.49,2a19.38,19.38,0,0,0,4.3,4.18l-2,1.89a28.08,28.08,0,0,1-3.21-3.56.09.09,0,0,0,0,.06,11.59,11.59,0,0,1-2.84,3.63l-2-1.64A14.63,14.63,0,0,0,18.92,271a11.54,11.54,0,0,0,1.43-2.6,20.93,20.93,0,0,0,1-3.95Z"/></g></g></svg>