<?xml version="1.0" encoding="UTF-8"?><svg id="_層_2" xmlns="http://www.w3.org/2000/svg" viewBox="0 0 187.55 541.58"><defs><style>.cls-1{fill:#b6242d;}.cls-2{fill:#231815;}</style></defs><g id="_層_1-2"><g><g><path class="cls-1" d="M24.51,234.83c.82-.22,1.62-.55,2.03-.8,.61-.39,.78-.62,.78-1.93v-2.21H15.87c-1.87,0-2.11,.2-2.26,2.42h-.7v-7.06h.7c.15,2.17,.37,2.36,2.26,2.36h11.45v-2.03c0-1.31-.15-1.68-.84-2.1-.47-.29-1.09-.51-1.98-.81v-.74c1.49,.15,3.05,.29,4.34,.36v.57c-.56,.36-.55,.62-.55,1.29v9.39c0,.66,.1,.87,.55,1.24v.59c-1.09,0-2.86,.1-4.27,.22l-.07-.74Z"/><path class="cls-1" d="M23.61,240.32c0,3.03-2.29,5.21-5.31,5.21-3.83,0-5.67-2.82-5.67-5.23,0-3.32,2.64-5.32,5.31-5.32,3.81,0,5.67,3,5.67,5.33Zm-.83-.28c0-1.37-1.34-2.61-4.11-2.61-2.99,0-5.18,1.26-5.18,3.12,0,1.36,.98,2.55,4.26,2.55,2.86,0,5.03-1.08,5.03-3.06Z"/><path class="cls-1" d="M22.66,262.85c-.19-1.19-.43-1.4-1.74-1.9-1.89-.72-5.11-1.83-8.26-2.87v-.78c2.47-.93,4.9-1.91,7.27-2.82-2.18-.88-4.71-1.91-7.27-2.84v-.76c2.83-.87,5.65-1.79,8.46-2.74,1.25-.42,1.4-.62,1.54-1.77h.67v5.11h-.67c-.23-1.41-.37-1.51-1.4-1.2-1.77,.53-3.65,1.14-5.36,1.68,2.35,.93,4.79,1.86,7.31,2.75v.7c-2.4,.86-4.9,1.83-7.39,2.81,1.39,.5,3.71,1.27,5.31,1.67,1.17,.29,1.32,.08,1.52-1.53h.67v4.48h-.67Z"/><path class="cls-1" d="M12.63,271.16c0-.41,.19-.93,.46-1.18,.3-.31,.63-.46,1.03-.58-.63-.94-1.49-2.1-1.49-2.78,0-1.74,1.43-2.95,2.94-2.95,1.18,0,1.9,.63,2.36,1.92,.5,1.44,1.11,3.23,1.54,3.75h.58c1.6,0,2.52-.78,2.52-1.97,0-.52-.25-.85-.53-1.08-.34-.26-.85-.42-1.54-.63-.43-.13-.59-.37-.59-.75,0-.48,.49-1.11,1.08-1.11,.35,0,.64,.3,.98,.79,.54,.75,1.38,2.13,1.66,3.48,0,.75-.21,1.5-.65,2.07-.71,.86-1.55,1.22-2.78,1.22h-4.48c-1.1,0-1.42,.4-1.42,.82,0,.28,.11,.57,.25,.83l-.69,.24-1.21-2.1Zm5.98-1.81c-.26-.5-.71-1.51-.95-2.04-.4-.87-.84-1.39-1.71-1.39-1.27,0-1.82,.94-1.82,1.66,0,.56,.31,1.32,.77,1.78h3.7Z"/><path class="cls-1" d="M12.91,279.81v-5.59h.69c.14,1.45,.26,1.59,1.78,1.59h4.97c1.49,0,1.57-.09,1.75-1.42h.62c.19,1.21,.47,2.33,.96,3.5h-2.59c1.3,.87,2.53,1.84,2.53,2.98,0,.88-.55,1.4-1.19,1.4s-1.2-.46-1.43-.88c-.14-.25-.1-.45,.06-.64,.35-.36,.61-.65,.61-1.07,0-.47-.66-1.3-1.81-1.8h-4.46c-1.54,0-1.65,.13-1.8,1.92h-.69Z"/><path class="cls-1" d="M13.51,294.65c-.09-.51-.38-2.36-.88-3.84h1.51c-.26-.43-.6-1.04-.86-1.46-.51-.88-.64-1.47-.64-1.75,0-1.91,1.86-4.49,5.22-4.49s5.76,2.88,5.76,6.21c0,.3-.04,1.01-.23,1.49h3.34c1.47,0,1.53-.16,1.68-1.8h.65c.17,1.25,.49,2.96,.8,3.89H15.7c-1.24,0-1.4,.16-1.46,1.04l-.05,.71h-.68Zm7.95-3.84c.8-.49,1.2-1.44,1.2-2.36,0-1.06-.71-3-4.12-3-2.91,0-4.35,1.77-4.38,3.2,0,.78,.36,1.6,.77,2.16h6.53Z"/><path class="cls-1" d="M12.93,305.96c-.21-.4-.3-.78-.3-1,0-1.57,.91-2.43,2.85-2.43h6.84v-1.61l.28-.1,.72,.65v1.07h1.98c.49,.51,1.13,1.29,1.62,1.8l-.07,.35c-.93-.04-2.28-.07-3.53-.07v2.64c-.24,.21-.8,.14-1.01-.15v-2.49h-6.01c-1.9,0-2.23,.76-2.23,1.34,0,.54,.19,1.04,.35,1.39l-.66,.22-.84-1.6Z"/><path class="cls-1" d="M12.91,315.08h.69c.15,1.31,.27,1.48,1.78,1.48h3.93c1.94,0,2.86-.76,2.85-2.22,0-.84-.4-1.73-1.13-2.37h-5.65c-1.49,0-1.64,.18-1.78,1.54h-.69v-5.24h.69c.12,1.33,.23,1.62,1.8,1.62h11.33c1.22,0,1.52-.08,1.68-1.62h.64c.12,1.34,.47,2.8,.8,3.71h-7.94c.84,.85,1.69,2.12,1.69,3.39,0,1.96-1.23,3.29-4.03,3.29h-4.2c-1.55,0-1.65,.19-1.78,1.52h-.69v-5.08Z"/><path class="cls-1" d="M14.98,330.25c-1.94-1.5-2.35-3.2-2.35-4,0-2.94,2.36-4.7,5.1-4.7,1.62,0,3.13,.61,4.16,1.58,1.1,1.01,1.71,2.31,1.71,3.56,0,2.11-1.8,3.68-3.7,3.67-.46-.02-.71-.08-.8-.44-.1-.47-.3-3.55-.4-6.28-3.05-.04-4.35,1.8-4.35,3.49,0,.96,.39,1.87,1.18,2.74l-.56,.39Zm7.72-4.11c0-1.06-1.03-2.08-2.94-2.38,0,1.26,0,2.51,.07,3.83,0,.41,.11,.55,.47,.55,1.24,.02,2.4-.75,2.4-2.01Z"/><path class="cls-1" d="M12.91,337.49h.7c.2,1.92,.31,2.11,2.31,2.11h9.33c2.03,0,2.14-.2,2.34-2.11h.7v6.52h-.7c-.2-1.93-.31-2.13-2.34-2.13H15.93c-2.02,0-2.11,.19-2.31,2.13h-.7v-6.52Z"/><path class="cls-1" d="M13.51,356.76c-.09-.51-.38-2.36-.88-3.84h1.51c-.26-.43-.6-1.04-.86-1.46-.51-.88-.64-1.47-.64-1.75,0-1.91,1.86-4.49,5.22-4.49s5.76,2.88,5.76,6.21c0,.3-.04,1.01-.23,1.49h3.34c1.47,0,1.53-.16,1.68-1.8h.65c.17,1.25,.49,2.96,.8,3.89H15.7c-1.24,0-1.4,.16-1.46,1.04l-.05,.71h-.68Zm7.95-3.84c.8-.49,1.2-1.44,1.2-2.36,0-1.06-.71-3-4.12-3-2.91,0-4.35,1.77-4.38,3.2,0,.78,.36,1.6,.77,2.16h6.53Z"/><path class="cls-1" d="M14.98,366.63c-1.94-1.5-2.35-3.2-2.35-4,0-2.94,2.36-4.7,5.1-4.7,1.62,0,3.13,.61,4.16,1.58,1.1,1.01,1.71,2.31,1.71,3.56,0,2.11-1.8,3.68-3.7,3.67-.46-.02-.71-.08-.8-.44-.1-.47-.3-3.55-.4-6.28-3.05-.04-4.35,1.8-4.35,3.49,0,.96,.39,1.87,1.18,2.74l-.56,.39Zm7.72-4.11c0-1.06-1.03-2.08-2.94-2.38,0,1.26,0,2.51,.07,3.83,0,.41,.11,.55,.47,.55,1.24,.02,2.4-.75,2.4-2.01Z"/><path class="cls-1" d="M12.63,375.87c0-.41,.19-.93,.46-1.18,.3-.31,.63-.46,1.03-.58-.63-.94-1.49-2.1-1.49-2.78,0-1.74,1.43-2.95,2.94-2.95,1.18,0,1.9,.63,2.36,1.92,.5,1.44,1.11,3.23,1.54,3.75h.58c1.6,0,2.52-.78,2.52-1.97,0-.52-.25-.85-.53-1.08-.34-.26-.85-.42-1.54-.63-.43-.13-.59-.37-.59-.75,0-.48,.49-1.11,1.08-1.11,.35,0,.64,.3,.98,.79,.54,.75,1.38,2.13,1.66,3.48,0,.75-.21,1.5-.65,2.07-.71,.86-1.55,1.22-2.78,1.22h-4.48c-1.1,0-1.42,.4-1.42,.82,0,.28,.11,.57,.25,.83l-.69,.24-1.21-2.1Zm5.98-1.81c-.26-.5-.71-1.51-.95-2.04-.4-.87-.84-1.39-1.71-1.39-1.27,0-1.82,.94-1.82,1.66,0,.56,.31,1.32,.77,1.78h3.7Z"/><path class="cls-1" d="M12.91,378.6h.69c.15,1.48,.27,1.65,1.82,1.65h11.23c1.41,0,1.55-.12,1.75-1.59h.64c.15,1.34,.51,2.84,.8,3.67H15.42c-1.56,0-1.68,.13-1.82,1.63h-.69v-5.36Z"/></g><g><g><path class="cls-2" d="M45.25,17.15V0l5.77,.54c1.1,.15,1.68,.46,1.68,1,0,.31-.44,.85-1.17,1.54v14.08h10.6v6.31h-10.01c3,7.08,6.87,13.08,11.69,18.08l-5.12,3.85c-2.63-3.31-5.04-7-7.16-11.15v32.84h-6.28v-27.77c-.44,.85-.8,1.62-1.1,2.38-2.34,4.69-4.9,8.92-7.75,12.77l-5.41-3.62c3.51-4.31,6.36-8.77,8.48-13.23,1.83-3.69,3.58-8.38,5.19-14.15h-11.69v-6.31h12.28Zm32.23,0V0l5.85,.54c1.02,.15,1.61,.46,1.61,1,0,.31-.44,.85-1.17,1.54v14.08h11.98v6.31h-11.47c-.07,.15-.15,.15-.29,.15,3.87,11.61,9.06,21.46,15.49,29.61l-5.7,4.23c-3.65-5.62-7.02-12-10.01-19.15v28.77h-6.28v-28.85c-1.02,2.15-1.97,4.08-3,5.92-3,5.38-6.36,10.15-10.08,14.46l-5.41-3.62c4.53-4.85,8.18-9.85,10.96-15,2.41-4.15,4.68-9.69,6.8-16.54h-10.38v-6.31h11.11Z"/><path class="cls-2" d="M123.01,3.23c.66,.38,1.02,.69,1.02,1,0,.62-.37,1.08-1.1,1.54l-7.89,10.31c1.46,1.15,2.92,2.31,4.38,3.38l4.9-8,4.68,3.23c.44,.31,.73,.77,.73,1.31,0,.46-.51,.69-1.39,.85l-12.06,18.31c2.78-.31,5.55-.69,8.26-1.15-.58-1.54-1.24-3.08-1.9-4.54l4.46-.92c6.06-8.77,10.6-18.08,13.52-27.92l6.28,1.54c.88,.15,1.39,.46,1.39,.92,0,.69-.66,1.31-1.97,1.77-1.17,3.15-2.41,6.23-3.73,9.23v.69h10.16l4.97-12,5.63,1.23c1.02,.15,1.54,.54,1.54,1.15s-.58,1.15-1.75,1.77l-3.51,7.85h11.55v6h-12.28v9h10.81v5.69h-10.81v9.08h10.81v5.69h-10.81v9h12.28v6h-28.57v4.54h-6.28V26.46c-1.17,2-2.27,3.85-3.43,5.69l-4.09-2.23c1.9,4.15,3.21,8.15,4.09,11.85l-5.41,1.23c-.37-1.23-.73-2.54-1.1-3.85-1.1,.23-2.26,.46-3.43,.62v30h-6.28v-28.84c-2.63,.46-5.48,1-8.62,1.46-.44,.85-.95,1.23-1.39,1.23s-.66-.31-.66-1l-1.32-6.23c1.61-.15,3.14-.31,4.68-.46l7.09-11.62c-3.95-3.31-7.6-6.15-10.96-8.61l3.14-4.23c.73,.46,1.39,.92,1.97,1.31L118.33,.62l4.68,2.62Zm-8.04,44.38c.51,.08,.8,.31,.8,.77,0,.62-.44,1.23-1.17,1.85-1.02,6.15-2.34,11.46-3.95,15.92l-5.77-2.08c1.02-2.15,1.83-4.46,2.56-7.08,.88-3.23,1.53-6.92,2.05-11l5.48,1.62Zm19.37,15.85l-5.7,1.15c-1.17-6.31-2.63-12.08-4.31-17.38l5.7-1.23c1.97,6.08,3.43,11.92,4.31,17.46Zm18.56-42.69h-10.3v9h10.3v-9Zm0,14.69h-10.3v9.08h10.3v-9.08Zm0,23.77v-9h-10.3v9h10.3Z"/></g><g><g><path class="cls-2" d="M103.88,132.32c7.8-.19-3.3,.46,4.5,.44,3.01,0,6-.97,9.02-1.27,3.32-.33,6.67-.57,9.99-.43,.82,.03,1.96,1.54,2.29,2.58,1.5,4.71,2.67,9.52,4.12,14.24,1.65,5.39,.99,6.8-3.91,9.86-7.75,4.85-16.05,4.2-24.28,2.34-9.8-2.21-.72-2.49-10.66-2.02-1.78,.08-3.56,.01-4.65,.01-.64-4.05-.6-7.78-1.87-11-2.5-6.37-1.94-11.94,2.73-17.36,4.25,2.88,5.37,2.78,12.71,2.6Zm4.71,21.61c1.98,.23,5.61-.54,5.93-1.62,.82-2.71,.28-5.87,.03-8.82-.04-.46-1.39-1.11-2.17-1.16-11.46-.84-4-1.59-15.47-2.34-.24-.02-.49,.15-1.13,.36-.41,2.71-.84,5.59-1.36,9.09,11.4,1.59,3.31,3.22,14.17,4.49Z"/><path class="cls-2" d="M62.8,200.39c-9.35-10.84-10.47-66-5.46-78.74,2.53-6.45,2.46-13.92,3.74-22.01,2.18,0,5.75-.14,9.31,.02,19.88,.94,39.55,.38,59.16-4.04,16.45-3.71,33.05-5.01,48.56,4.69,9.79,6.12,11.12,8.93,7.81,19.72-2.9,9.45-5.25,63.09-8.24,72.51-.66,2.08-2.94,5.1-4.58,5.16-6.64,.27-13.35-.22-19.99-.87-6.05-.59-12.03-2.52-18.05-2.53-15.61-.04-31.24,1.26-46.84,.88-14.69-.36-16.93-.56-25.42,5.21Zm6.5-83.47c1.05,7,1.92,56.78,2.73,62.2,1.28,.42,1.78,.75,2.26,.72,22.93-1.51,45.86-3.02,68.78-4.69,1.56-.11,4.26-1.41,4.34-2.33,.5-5.91,1.57-56.23-.06-61.66-.65-2.15-7.89-3.7-11.86-3.23-21.73,2.55-43.39,5.81-66.19,8.99Z"/><path class="cls-2" d="M23.67,97.54c8.4,.69,13.32,4.96,16.58,11.49,3.28,6.55,3.33,13.11-1.32,19.16-3.62,4.71-8.81,8.25-14.22,5.34-8.02-4.32-15.72-9.71-22.37-15.91-4.24-3.95-2.37-9.77,2.78-12.5,5.87-3.11,12.34-5.1,18.55-7.58Z"/><path class="cls-2" d="M21,199.17c-5.48-2.45-10.19-3.62-13.72-6.32-8.02-6.14-7.78-14.98,.31-20.96,7.16-5.29,15.48-6.38,23.86-3.92,8.93,2.61,11.79,15.51,4.56,22.53-4,3.89-9.9,5.83-15.01,8.68Z"/><path class="cls-2" d="M15.14,162.99c-5.74-.03-11.23-7-11.29-14.19-.05-5.74,1.77-10.62,8.71-10.52,8.29,.11,16.67,.09,24.84,1.25,6.06,.86,7.28,4.81,3.54,10.18-6.46,9.26-16.12,11.8-25.81,13.28Z"/></g><g><path class="cls-2" d="M66.59,360.47c-5.74-.03-11.23-7-11.29-14.19-.05-5.74,1.77-10.62,8.71-10.52,8.29,.11,16.67,.09,24.84,1.25,6.06,.86,7.28,4.81,3.54,10.18-6.46,9.26-16.12,11.8-25.81,13.28Z"/><path class="cls-2" d="M143.73,283.7c-2.12-.67-4.2-1.91-6.36-1.93-8.86-.06-18.02,1.05-26.55,.21-10.1-.99-19.6-3.64-29.49-5.35-3.14-.55-6.68-.42-10.58-.63,.4,2.59-.52,5.19,1.15,5.91,2.27,.99,4.69,1.92,7.21,2.75,0,1.52-.2,2.85,.82,3.29,3.92,1.7,8.38,3.25,13.09,4.08,4.96,.87,10.42,1.04,15.7,1.17,8,.2,16.22,1.26,23.88-1.06,1.59-.48,2.36-1.84,3.51-2.8-.78-.25-1.56-.59-2.33-.89,1.84-.29,3.67-.65,5.47-1.19,2.03-.61,3.02-2.35,4.48-3.57Z"/><path class="cls-2" d="M121.87,249.04c4.7,0,9.39-.03,14.09,0,7.23,.06,12.45,3.66,14.15,9.76,.19,.67,.4,1.56,.06,2.1-5.84,9.16-3.7,19.19-4.58,28.91-.34,3.73,2.79,10.07,1.31,13.62-.6,1.45-5.99,4.07-7.57,4.18-7.25,1.86-9.65,3.33-15.69,6.5-12.49,1.92-22.67,3.96-34.87,6.77-2.65,4.34-11.48,3.95-16.91-.04-6.81-5-10.43-11.3-10.55-19.06-.15-9.15-.9-6.85-.46-15.98,.46-9.69,1.66-19.38,3.2-28.99,.85-5.3,4.12-7.01,10.39-7.44,10.87-.75,36.51-.23,47.37-1.05l.07,.73Zm9.5,43.72c.38-4.12,.29-16.5,.46-21.08,.04-.99-.99-2.46-2.02-2.96-9.47-4.6-34.37-5.29-44.45-3.52-1.17,.21-2.75,2.8-2.54,4.09,1.21,7.4-3.01,27.64,3.48,36.92,9.2,1.39,36.24-4.18,45.06-13.45Z"/><path class="cls-2" d="M156,233.78c-.47-.29-.93-.57-1.45-.89,2.38-2.17,2.39-4.93,.19-8.84-17.05,5.73-34.75,6.89-52.89,7.72v-.08c-2.39,.25-5.74,.09-7.59-.04-.2,.13-.4,.22-.55,.21-.6-.02-1.19-.09-1.78-.13v.05c-2.44-.15-4.82-.4-7.02-.68-.33-.03-.67-.07-1-.1l-.02-.04c-6.01-.83-10.39-1.9-10.39-1.9-2.94-.41-5.23-1.48-7.57-2.41-2.49-.99-5.09-2.15-7.34,.48-1.87,2.17-1.73,5.52,.43,8,1.29,1.48,2.68,2.94,4.28,4.05,1.98,1.38,4.03,2.78,6.4,.07,.75-.86,2.77-.79,4.21-.82,1.49-.04,2.99,.32,4.49,.5,3.77,.43,7.54,.87,11.75,1.35,1.23,.1,9.76,.77,14.51,.8,.59-.1,1.24-.17,2.02-.16,10.8,.07,21.66-.69,32.41-1.86,5.78-.63,11.4-2.79,17.09-4.27-.05-.33-.11-.66-.16-.99Z"/><path class="cls-2" d="M105.84,278.45c.44,1.37,1,2.32,1.01,3.29,.07,7.58,1.44,15,2.51,22.47,.71,4.97,1.12,10,1.39,15.02,.49,9.15,.78,18.31,1.15,27.46,.26,6.39,.56,12.78,.78,19.18,.07,2.14,.02,4.28-.1,6.42-.05,.93-.02,1.78-1.62,1.95-.99,.11-1.8,1.89-2.32,2.49-1.49,0-2.49-.11-3.45,.02-2.67,.35-4.88-1.42-4.99-4.19-.07-1.68,0-3.37,.05-5.06,.16-5.18,.45-10.36,.48-15.53,.05-8.48,.08-16.96-.17-25.44-.27-9.07-.75-18.14-1.36-27.2-.46-6.83,.41-13.31,4.02-19.23,.41-.67,1.47-.95,2.62-1.65Z"/><path class="cls-2" d="M105.84,319.53c.44-1.37,1-2.32,1.01-3.29,.07-7.58,1.44-15,2.51-22.47,.71-4.97,1.12-10,1.39-15.02,.49-9.15,.78-18.31,1.15-27.46,.26-6.39,.56-12.78,.78-19.18,.07-2.14,.02-4.28-.1-6.42-.05-.93-.02-1.78-1.62-1.95-.99-.11-1.8-1.89-2.32-2.49-1.49,0-2.49,.11-3.45-.02-2.67-.35-4.88,1.42-4.99,4.19-.07,1.68,0,3.37,.05,5.06,.16,5.18,.45,10.36,.48,15.53,.05,8.48,.08,16.96-.17,25.44-.27,9.07-.75,18.14-1.36,27.2-.46,6.83,.41,13.31,4.02,19.23,.41,.67,1.47,.95,2.62,1.65Z"/><path class="cls-2" d="M129.54,309.99c-.22,1.8-.39,2.75-.43,3.69-.31,7.67,2,14.28,8.81,18.36,6.25,3.74,11.76,.43,17.14-2.77,2.2-1.31,4.58-2.33,6.89-3.48,3.1,6.54,1.83,17.16-2.31,25.84-1.58,3.31-2.36,6.99-3.68,11.05-32.09,4.64-46.07-15.34-35.79-53.84,3.79-1.48,7.12-.27,9.38,1.15Z"/></g><g><path class="cls-2" d="M31.97,434.44c5.34,.62,9.17,3.06,12.39,6.5,.7,.74,.99,2.46,.66,3.46-1.73,5.19-3.72,10.29-5.61,15.42-1.42,3.85-5.97,4.86-8.43,1.59-2.94-3.9-6.7-5.52-11.43-5.66-4.66-.14-6.73-4.25-4.14-8.12,1.98-2.96,3.61-6.46,6.3-8.56,2.87-2.25,6.8-3.14,10.26-4.63Z"/><path class="cls-2" d="M22.39,497.07c-.12-1.08-.26-1.93-.31-2.78-.32-4.94,2.99-10.42,6.62-10.99,3.24-.51,11.46,4.5,12.39,7.69,.53,1.8,.8,3.67,1.13,5.53,1.69,9.68,1.26,10.31-8.28,12.43-7.6,1.69-11.03-.83-11.53-8.5-.08-1.19-.01-2.4-.01-3.37Z"/><path class="cls-2" d="M64.85,541.58c-8.85-10.26-9.91-74.4-5.17-86.46,2.4-6.1,2.33-13.17,3.54-20.82,2.06,0,5.44-.14,8.81,.02,18.81,.89,13.53,.36,32.08-3.83,15.56-3.51,31.27-4.74,45.95,4.44,9.27,5.79,10.52,8.45,7.39,18.66-2.74,8.94-4.97,71.65-7.8,80.56-.63,1.97-26.3,4.88-4.33,4.88,6.29,0-12.63-.21-18.91-.82-5.72-.56-11.38-2.38-17.08-2.4-14.77-.04-5.67,1.19-20.43,.83-13.9-.34-16.02-.53-24.05,4.93Zm6.15-90.93c.99,6.62,1.81,65.68,2.58,70.81,1.21,.4,1.69,.71,2.14,.68,21.69-1.43,19.5-2.85,41.18-4.44,1.48-.11,4.04-1.33,4.11-2.2,.47-5.59,1.49-65.17-.06-70.3-.61-2.03-7.47-3.5-11.22-3.06-20.56,2.41-17.16,5.5-38.73,8.5Z"/><path class="cls-2" d="M99.1,492.99c7.95,.66,12.6,4.69,15.69,10.87,3.1,6.2,3.15,12.4-1.25,18.13-3.43,4.45-8.34,7.81-13.45,5.05-7.59-4.09-14.87-9.19-21.17-15.05-4.01-3.73-2.24-9.24,2.63-11.82,5.56-2.94,11.67-4.83,17.55-7.17Z"/><path class="cls-2" d="M87.18,473.04c-5.43-.03-10.62-6.62-10.68-13.42-.05-5.43,1.68-10.05,8.25-9.96,7.85,.11,15.77,.09,23.51,1.19,5.74,.81,6.89,4.55,3.35,9.63-6.11,8.76-15.25,11.16-24.42,12.57Z"/><path class="cls-2" d="M66.1,472.94c30.03,3.96,60,6,90.13,2.05,2.78-.36,6.4-2.56,7.61-4.94,2.87-5.61,7-6.49,12.31-5.29,8.84,2.01,12.43,11.81,8.86,23.95-3.45-.94-6.91-1.89-10.61-2.9-2.2-1.7-7.92-5.11-14.26-.96,.12-.45,.22-.89,.34-1.34-3.4,.44-6.5,1.01-9.63,1.22-11.31,.75-22.66,2.25-33.95,1.88-24.19-.8-48.33-2.77-72.51-3.86-6.43-.29-10.47-2.87-14.12-10.05,12.78,0,24.48-1.25,35.82,.24Z"/><path class="cls-2" d="M18.19,514.79c-1.4,3.73-1.58,8.46-1.38,12.31,.97,.53,1.84,1.27,2.28,2.05,3.6,6.41,6.24,7.89,13.43,7.29,3.68-.31,7.47-.38,11.1,.15,4.91,.72,7.67-1.72,6.69-6.6-.32-1.6-.91-3.22-.87-4.82,.16-6.66-2.14-10.22-8.61-11.85-3.02-.76-6.27-.61-9.42-.93-4.52-.46-8.66,2.94-13.21,2.41Z"/><path class="cls-2" d="M140.5,414c-2.46-.68-5.11-1.08-7.36-2.09-12.03-5.4-24.61-4.85-36.91-3.89-3.88,.3-7.11,3.57-10.59,5.52-2.26,1.27-4.51,2.56-6.65,3.95-1.96,1.27-3.71,2.74-5.66,4.03-4.32,2.85-8.14,6.55-13.2,8.25-7.71,2.59-13.25-.67-13.54-7.48-.33-7.79,.16-15.55,.37-23.32,.02-.88,.38-1.83,.96-2.54,3.92-4.77,24.23-5.91,28.99-1.11,6.98,7.02,14.42,7.42,24.34,6.03,11.13-1.56,22.98-1.36,34.56-.83,5.78,.26,11.73,2.74,17.42,4.62,3.98,1.32,4.4,3.6,1.85,6.16-3.79,3.82-8.97,3.54-14.57,2.69Z"/></g></g></g></g></g></svg>