<?xml version="1.0" encoding="UTF-8"?><svg id="_層_2" xmlns="http://www.w3.org/2000/svg" viewBox="0 0 392.45 561.27"><defs><style>.cls-1{fill:#231815;}</style></defs><g id="_層_1-2"><g><path class="cls-1" d="M386.67,2.77c-2.8,.61-5.95,1.08-9.37,1.37h-.03c-.07,.11-.07,.22-.07,.32-.21,.76-.41,1.48-.62,2.16h13.2c.27,0,.41,.22,.41,.58v1.12c0,.4-.14,.58-.41,.58h-14.02c-.27,.68-.51,1.33-.79,1.91-.17,.36-.31,.65-.44,.9h16.58c.27,0,.41,.18,.41,.54v1.15c0,.36-.14,.54-.41,.54h-17.85c-.58,.9-1.2,1.76-1.85,2.56h15.29c.34,0,.55,.14,.55,.4v15.62c0,.29-.21,.43-.55,.43h-1.33c-.38,0-.55-.14-.55-.43v-.43h-14.02v.29c0,.29-.17,.43-.51,.43h-1.33c-.38,0-.55-.14-.55-.43v-12.49c-1.4,1.37-2.91,2.56-4.51,3.56-.62,.36-1.03,.5-1.23,.5-.34,0-.62-.11-.75-.32-.48-.36-.96-.65-1.37-.94-.21-.07-.27-.22-.27-.43,0-.11,.1-.22,.34-.32,1.95-.86,3.56-1.83,4.82-2.84,1.85-1.51,3.45-3.2,4.82-5.15h-9.06c-.27,0-.41-.18-.41-.54v-1.15c0-.36,.14-.54,.41-.54h10.57c.51-.86,.99-1.8,1.44-2.81h-10.4c-.27,0-.41-.18-.41-.58v-1.12c0-.36,.14-.58,.41-.58h11.29c.27-.72,.51-1.51,.65-2.3-3.28,.22-6.6,.32-9.95,.32-.41,0-.65-.11-.75-.4-.07-.47-.21-.94-.44-1.44-.1-.14-.14-.32-.14-.54,5.33,0,9.51-.14,12.55-.43,3.62-.25,6.87-.76,9.78-1.51,.34-.11,.65-.18,.92-.18,.14,0,.27,.11,.45,.25,1.23,1.12,1.85,1.84,1.85,2.16,0,.36-.14,.54-.41,.54l-.96-.4c-.38,0-.68,.04-.96,.07Zm-1.85,18.21v-2.41h-14.02v2.41h14.02Zm0,4.61v-2.52h-14.02v2.52h14.02Zm0,4.39v-2.27h-14.02v2.27h14.02Z"/><path class="cls-1" d="M385.65,36.86c.34,0,.51,.14,.51,.43v21.09c0,.29-.17,.4-.51,.4h-1.33c-.38,0-.55-.11-.55-.4v-1.69h-3.21v7.45c0,1.04,.62,1.55,1.88,1.55h3.73c1.33,0,2.15-.18,2.43-.54,.31-.29,.72-1.44,1.2-3.42,.27,.5,.75,.94,1.4,1.33,.31,.14,.48,.29,.48,.5-.68,2.23-1.2,3.49-1.54,3.74-.34,.5-1.09,.76-2.22,.76h-5.75c-2.67,0-4-.86-4-2.52v-8.86h-3.66c-.14,1.51-.38,2.74-.72,3.74-.41,1.37-.99,2.59-1.78,3.71-.55,.72-1.3,1.37-2.26,2.02-.96,.54-2.19,1.04-3.62,1.51-1.54,.43-2.84,.68-3.86,.68-.24,0-.41-.14-.48-.43-.24-.58-.48-1.12-.72-1.62-.21-.14-.27-.32-.27-.47l1.09,.14c.72-.07,1.61-.25,2.63-.47,1.09-.25,2.09-.58,2.94-1.01,.96-.47,1.74-1.01,2.29-1.62,.75-.9,1.26-1.8,1.54-2.7,.34-.86,.62-2.02,.79-3.49h-3.25v1.69c0,.29-.21,.4-.55,.4h-1.33c-.38,0-.55-.11-.55-.4v-21.09c0-.29,.17-.43,.55-.43h18.71Zm-1.88,5.76v-3.64h-14.94v3.64h14.94Zm0,5.9v-3.64h-14.94v3.64h14.94Zm0,5.9v-3.64h-14.94v3.64h14.94Z"/><path class="cls-1" d="M378.02,72.29c0,.32-.14,.5-.34,.54s-.31,.29-.31,.72v1.84h13.47c.27,0,.41,.22,.41,.58v1.12c0,.4-.14,.58-.41,.58h-7.9l2.12,1.22c.21,.18,.31,.32,.31,.47s-.14,.25-.34,.25c-.34,.04-.55,.14-.62,.32-.34,.79-.82,1.69-1.44,2.63h7.86c.34,0,.55,.14,.55,.43v4.93c0,.29-.21,.43-.55,.43h-1.33c-.34,0-.51-.14-.51-.43v-3.1h-25.78v3.1c0,.29-.21,.43-.55,.43h-1.33c-.38,0-.55-.14-.55-.43v-4.79c0-.36,.17-.58,.55-.58h8.65c-.14-.22-.24-.47-.34-.72-.55-1.01-1.2-2.05-2.02-3.06,0-.14,.51-.54,1.57-1.12h-7.59c-.27,0-.41-.18-.41-.58v-1.12c0-.36,.14-.58,.41-.58h13.34v-3.1c0-.25,.17-.4,.55-.4,1.68,0,2.53,.14,2.53,.4Zm-.27,14.22c0,.32-.1,.5-.31,.5-.24,.07-.34,.32-.34,.76v1.26h12.41c.27,0,.41,.22,.41,.58v1.12c0,.4-.14,.58-.41,.58h-16.58c-.07,1.3-.17,2.34-.31,3.2h13.17c.24,0,.38,.22,.38,.58-.07,2.59-.24,4.46-.51,5.62-.34,1.33-.82,2.34-1.4,3.02-.55,.72-2.05,1.08-4.48,1.08-1.68,0-2.53-.25-2.6-.68-.14-.54-.44-1.15-.99-1.87v-.25c1.3,.07,2.5,.11,3.59,.11,1.3,0,2.15-.22,2.56-.65,.41-.36,.79-1.04,1.06-2.05,.21-.58,.38-1.44,.51-2.63h-11.76c-.55,1.66-1.23,3.02-2.12,4.1-.82,.9-1.78,1.66-2.94,2.3-1.03,.65-2.36,1.22-4,1.76-.68-.72-1.27-1.4-1.74-1.98,.82-.22,1.85-.58,3.01-1.15,1.3-.65,2.33-1.33,3.15-2.12,.99-1.08,1.71-2.34,2.15-3.71,.34-1.04,.62-2.59,.75-4.68h-7.59c-.27,0-.41-.18-.41-.58v-1.12c0-.36,.14-.58,.41-.58h11.9v-2.52c0-.29,.17-.43,.51-.43,1.68,0,2.53,.14,2.53,.43Zm2.33-3.96c.48-.68,.89-1.37,1.2-2.02,.44-1.01,.82-1.94,1.09-2.81l.07-.07h-12.86c.79,1.12,1.44,2.12,1.95,2.99,.34,.65,.65,1.26,.92,1.91h7.62Z"/><path class="cls-1" d="M378.84,108.43c0,.22-.17,.4-.48,.54-.48,.22-.72,.65-.75,1.3-.07,1.76-.14,3.38-.21,4.82,.03,2.34,.24,4.39,.62,6.19,.45,2.02,1.06,3.89,1.81,5.62,.68,1.51,1.5,2.92,2.5,4.21,1.23,1.69,2.57,3.02,3.93,4,1.57,1.26,3.42,2.27,5.54,2.99,0,.22-.14,.4-.34,.54-.45,.5-.86,1.01-1.23,1.51-.24,.22-.38,.36-.44,.36-2.87-1.51-4.75-2.7-5.57-3.49-1.4-1.01-2.63-2.38-3.69-4.03-1.09-1.44-2.05-2.99-2.8-4.71-.62-1.26-1.16-2.74-1.57-4.39-.1,.36-.21,.72-.27,1.04-.55,1.87-1.13,3.49-1.78,4.82-.82,1.84-1.85,3.46-3.08,4.86-.96,1.01-2.02,1.94-3.18,2.81-1.44,1.19-3.18,2.23-5.3,3.1-.21,0-.34-.14-.48-.36-.34-.47-.79-.94-1.26-1.4-.21-.22-.27-.32-.27-.36,0-.14,.07-.22,.24-.22,2.08-.9,3.56-1.66,4.38-2.27,1.2-.72,2.36-1.66,3.52-2.88,1.2-1.19,2.22-2.63,3.04-4.28,.82-1.55,1.44-3.2,1.91-4.93,.48-1.48,.75-3.13,.89-4.93,.27-1.91,.44-4.97,.44-9.18,0-.58-.07-1.12-.14-1.55,0-.14,.07-.25,.27-.25,2.5,.22,3.76,.4,3.76,.54Z"/><path class="cls-1" d="M368,170.53c.17,.22,.27,.36,.27,.47s-.07,.18-.21,.18c-.27,.07-.44,.14-.51,.25-.58,.9-1.2,1.69-1.85,2.41-.75,.83-1.74,1.66-2.91,2.52-.27,0-.48-.11-.55-.29-.48-.4-.89-.72-1.2-1.01-.21-.07-.27-.18-.27-.25s.03-.14,.14-.18c.55-.25,.99-.54,1.37-.86,.75-.61,1.44-1.3,2.05-2.09,.48-.65,1.03-1.44,1.64-2.41,.03-.14,.1-.22,.17-.22l1.85,1.48Zm2.67-25.38c0,.22-.07,.32-.21,.32-.38,.04-.62,.14-.72,.36-.34,.65-.65,1.19-.92,1.69h20.69c.27,0,.41,.22,.41,.58v1.12c0,.4-.14,.58-.41,.58h-2.8v6.59h4.27c.27,0,.41,.22,.41,.58v1.12c0,.4-.14,.58-.41,.58h-4.27v6.88h3.35c.24,0,.38,.22,.38,.58v1.12c0,.4-.14,.58-.38,.58h-27.53c-.27,0-.41-.18-.41-.58v-1.12c0-.36,.14-.58,.41-.58h3.49v-6.88h-4.68c-.27,0-.41-.18-.41-.58v-1.12c0-.36,.14-.58,.41-.58h4.68v-5c-.68,.72-1.64,1.66-2.94,2.77-.27,0-.48-.11-.65-.32-.34-.25-.65-.54-.99-.83-.17-.11-.24-.25-.24-.4,.79-.72,1.57-1.44,2.39-2.23,1.03-1.01,1.95-2.12,2.7-3.38,.68-1.08,1.2-2.16,1.57-3.24,0-.18,.07-.29,.14-.29,1.78,.94,2.67,1.51,2.67,1.69Zm1.33,4.64h-3.59v6.59h3.59v-6.59Zm0,15.73v-6.88h-3.59v6.88h3.59Zm1.47,3.82c.96,1.73,1.88,3.53,2.7,5.47,0,.32-.1,.5-.24,.58-.82,.54-1.44,.83-1.91,.83-.86-2.38-1.64-4.32-2.39-5.9,0-.25,.48-.61,1.47-1.12,.21,0,.31,.07,.38,.14Zm4.68-19.55h-3.73v6.59h3.73v-6.59Zm0,15.73v-6.88h-3.73v6.88h3.73Zm2.02,3.82c1.2,1.76,2.29,3.64,3.32,5.62,0,.32-.07,.5-.21,.54-.82,.58-1.47,.86-1.92,.86-1.09-2.45-2.12-4.43-3.08-6.05,0-.25,.48-.61,1.47-1.12,.21,0,.34,.07,.41,.14Zm4.14-19.55h-3.76v6.59h3.76v-6.59Zm0,15.73v-6.88h-3.76v6.88h3.76Zm5.06,6.19c.96,1.04,1.74,1.94,2.43,2.81,0,.04-.07,.14-.17,.29-.68,1.01-1.03,1.55-1.06,1.55-1.03-1.33-2.12-2.52-3.25-3.6-.96-.86-1.74-1.51-2.36-1.87,0-.14,.34-.65,1.06-1.58,.1-.14,.21-.25,.27-.25,1.23,.97,2.26,1.87,3.08,2.66Z"/><path class="cls-1" d="M368.1,197.06c.55,1.3,.85,2.02,.85,2.09,0,.22-.07,.4-.21,.54-1.16,2.92-2.26,5.4-3.28,7.42-.55,1.15-1.23,2.41-2.05,3.78-.14,.32-.21,.76-.21,1.33,0,.29-.1,.43-.27,.43-.21,0-.92-.76-2.19-2.27-.14-.07-.21-.22-.24-.4,0-.22,.03-.4,.17-.54,.68-.72,1.4-1.62,2.09-2.74,.96-1.51,1.88-3.2,2.8-5.11,.79-1.66,1.47-3.17,2.05-4.54,.07-.22,.17-.32,.24-.32,.1,0,.17,.11,.24,.32Zm-2.6-6.41c1.09,.72,2.02,1.33,2.77,1.87,0,.07-.07,.14-.17,.29-.68,1.04-1.03,1.55-1.03,1.55-1.16-.86-2.43-1.69-3.73-2.41-1.09-.58-1.98-.97-2.7-1.26,0-.11,.34-.65,1.06-1.58,.1-.14,.21-.22,.27-.22,1.44,.65,2.6,1.22,3.52,1.76Zm1.61-7.99c1.03,.72,1.88,1.4,2.63,1.98,0,.07-.07,.18-.17,.32-.68,1.01-1.03,1.51-1.03,1.51-1.13-.94-2.33-1.8-3.59-2.59-1.03-.61-1.88-1.04-2.56-1.33,0-.14,.34-.65,1.06-1.58,.1-.14,.21-.25,.27-.25,1.37,.72,2.5,1.37,3.38,1.94Zm12.21,14.9c1.78,.94,2.7,1.51,2.7,1.73,0,.18-.14,.25-.38,.25-.41,.04-.68,.18-.79,.43-1.23,1.94-2.94,4.68-5.13,8.17,3.21-.29,7.11-.68,11.63-1.26-.82-1.8-1.85-3.6-3.04-5.36,0-.14,.65-.58,1.98-1.26,1.44,2.23,2.56,4.32,3.45,6.19,.85,1.73,1.57,3.53,2.15,5.47,0,.11-.82,.4-2.39,.86-.21-1.12-.65-2.41-1.27-3.89-8.31,1.4-13.71,2.27-16.21,2.59-.27,0-.48,.14-.55,.43-.1,.36-.27,.58-.55,.58-.34,0-.72-1.33-1.2-3.96,.96,0,2.09-.07,3.35-.18,1.81-3.13,2.98-5.22,3.49-6.23,.72-1.48,1.33-2.95,1.81-4.39,.07-.18,.24-.29,.44-.29,.14,0,.31,.04,.48,.11Zm.31-11.37v-5.9c0-.25,.17-.4,.55-.4,1.68,0,2.53,.14,2.53,.4,0,.32-.14,.5-.34,.54-.24,.04-.34,.29-.34,.72v4.64h8.31c.24,0,.38,.22,.38,.58v1.12c0,.4-.14,.58-.38,.58h-8.31v6.48h9.23c.27,0,.41,.18,.41,.54v1.12c0,.4-.14,.58-.41,.58h-20.58c-.27,0-.38-.18-.38-.58v-1.12c0-.36,.1-.54,.38-.54h8.96v-6.48h-7.73c-.27,0-.41-.18-.41-.58v-1.12c0-.36,.14-.58,.41-.58h7.73Z"/><path class="cls-1" d="M378.57,226.98c0,.32-.14,.5-.34,.54-.24,.04-.34,.29-.34,.72v7.06h8.04c.24,0,.38,.18,.38,.54v1.15c0,.36-.14,.54-.38,.54h-8.04v7.59h12.96c.27,0,.41,.22,.41,.58v1.12c0,.36-.14,.58-.41,.58h-29.37c-.27,0-.41-.22-.41-.58v-1.12c0-.36,.14-.58,.41-.58h4.79v-12.38c0-.25,.17-.4,.55-.4,1.68,0,2.53,.14,2.53,.4,0,.32-.1,.5-.31,.54-.24,.04-.34,.29-.34,.72v11.12h6.67v-18.14c0-.29,.17-.43,.55-.43,1.78,0,2.67,.14,2.67,.43Zm.17-9.61c.21,.18,.34,.32,.34,.47,0,.4-.24,.58-.65,.58-.31,0-.55,.07-.75,.14,.89,1.55,1.81,2.92,2.77,4.1,1.26,1.51,2.53,2.7,3.79,3.6,1.71,1.44,3.83,2.63,6.29,3.53,.27,.07,.44,.14,.44,.29,0,.18-.07,.32-.21,.47-.55,.47-1.03,.9-1.44,1.33-.14,.22-.27,.32-.34,.32-1.91-.76-3.45-1.62-4.68-2.56-1.74-1.12-3.35-2.52-4.79-4.25-1.09-1.22-2.29-2.84-3.59-4.86-.89,1.19-1.71,2.2-2.53,3.06-.89,1.08-1.92,2.16-3.15,3.24-1.27,1.15-2.53,2.16-3.76,3.06-1.23,.86-2.26,1.51-3.04,1.87-.24,0-.44-.11-.58-.36-.34-.58-.72-1.04-1.13-1.48-.27-.14-.41-.29-.41-.43,0-.04,.07-.11,.21-.18,1.74-.79,3.21-1.55,4.38-2.34,1.57-1.04,3.18-2.38,4.82-4,1.06-1.04,1.95-2.05,2.63-3.06,.75-1.04,1.47-2.2,2.09-3.49,.21-.29,.41-.43,.58-.43l2.7,1.37Z"/><path class="cls-1" d="M364.55,255.53c-.27,0-.41-.18-.41-.54v-1.15c0-.36,.14-.54,.41-.54h20.96c.34,0,.55,.07,.62,.14,.48,.43,.72,.76,.72,.97l-4.41,9.14h6.43c.21,0,.38,.07,.55,.22,.41,.65,.65,1.04,.65,1.19-.82,2.66-1.61,4.72-2.33,6.16-.89,1.84-1.81,3.35-2.7,4.5-.62,.83-1.33,1.62-2.15,2.34,.38,.25,.75,.47,1.16,.68,2.22,1.22,4.68,2.16,7.42,2.77,.21,.07,.34,.18,.34,.29,0,.18-.14,.36-.34,.54-.41,.43-.82,.9-1.16,1.4-.1,.29-.27,.43-.51,.43-.21,0-.86-.29-1.95-.83-2.67-1.12-4.99-2.3-6.91-3.67-1.44,1.08-2.94,1.91-4.51,2.63-1.27,.65-2.91,1.22-4.92,1.73-.31,0-.51-.11-.65-.32-.27-.4-.51-.79-.79-1.15-.14-.14-.17-.29-.17-.36,0-.14,.07-.25,.27-.29,1.23-.29,2.5-.65,3.73-1.08,1.98-.72,3.69-1.58,5.09-2.59-.07-.04-.14-.07-.17-.11-1.92-1.55-3.35-3.17-4.34-4.86-.86-1.04-1.92-3.06-3.15-6.01-.55,3.24-1.26,5.9-2.15,8.06-.82,1.8-1.81,3.35-2.97,4.57-1.03,1.26-2.39,2.38-4.07,3.46-.62-.68-1.16-1.3-1.61-1.84,.86-.43,1.88-1.26,3.08-2.48,1.3-1.37,2.36-2.92,3.21-4.57,.99-2.38,1.71-5,2.15-7.92,.41-2.45,.65-6.08,.79-10.91h-5.2Zm15.29,8.03l4-8.03h-11.69c-.1,3.24-.24,5.94-.38,8.03h8.07Zm-4.92,6.41c.82,1.51,1.81,2.84,2.94,4,.89,.94,1.92,1.84,3.04,2.63,.96-.86,1.81-1.76,2.56-2.7,.96-1.3,1.78-2.74,2.46-4.39,.44-.94,.89-2.2,1.37-3.71h-14.46c.62,1.58,1.3,2.99,2.09,4.18Z"/><path class="cls-1" d="M370.63,288.65c.27,.07,.44,.22,.44,.5,0,.36-.17,.5-.51,.5-.21,.07-.34,.25-.41,.47-.68,1.62-1.33,3.02-1.98,4.21h5.3c.34,0,.55,.14,.55,.43v23.9c0,.29-.21,.43-.55,.43h-1.33c-.34,0-.51-.14-.51-.43v-1.84h-7.21v2.81c0,.29-.21,.43-.55,.43h-1.33c-.38,0-.55-.14-.55-.43v-24.73c0-.36,.17-.58,.55-.58h3.08c.85-1.62,1.74-3.6,2.67-5.9,.07-.18,.21-.29,.41-.29l1.95,.5Zm.99,15.69v-7.74h-7.21v7.74h7.21Zm0,10.26v-8.03h-7.21v8.03h7.21Zm11.76-25.81c.24,.22,.38,.36,.38,.5,0,.22-.1,.32-.27,.4-.27,0-.44,.14-.51,.43-.51,1.58-.96,2.84-1.37,3.82h8.45c.41,0,.65,.25,.65,.68,0,8.21-.14,13.86-.41,16.99-.27,2.81-.72,4.79-1.27,6.01-.48,1.04-1.09,1.69-1.85,1.98-.96,.4-2.22,.61-3.83,.61-1.44,0-2.19-.25-2.19-.72-.1-.61-.27-1.22-.48-1.8,0-.22,.03-.29,.14-.29l.27,.04c.65,.07,1.23,.11,1.74,.11,1.67,0,2.8-.25,3.42-.76,.68-.54,1.16-2.05,1.44-4.54,.38-2.59,.58-7.96,.62-16.09h-7.73c-.38,.76-.75,1.48-1.16,2.12-.65,.94-1.33,1.76-2.05,2.52-.31,0-.55-.04-.75-.11-.44-.18-.89-.36-1.3-.54-.17-.07-.24-.11-.24-.18,0-.14,.03-.25,.14-.32,1.09-1.12,2.12-2.48,3.01-4.14,.51-.94,.96-1.94,1.37-3.02,.41-1.12,.82-2.56,1.23-4.36,.07-.14,.17-.25,.27-.25l2.29,.9Zm-2.94,13.86c1.26,2.2,2.43,4.54,3.45,7.02,0,.36-.07,.54-.21,.58-.82,.58-1.47,.83-1.92,.83-1.16-2.99-2.22-5.47-3.21-7.45,0-.25,.48-.61,1.47-1.12,.21,0,.34,.07,.41,.14Z"/><path class="cls-1" d="M378.29,324.43c0,.32-.14,.5-.34,.54-.24,.04-.34,.29-.34,.72v1.98h13.37c.27,0,.41,.22,.41,.58v1.12c0,.4-.14,.58-.41,.58h-29.65c-.27,0-.41-.18-.41-.58v-1.12c0-.36,.14-.58,.41-.58h13.88v-3.24c0-.29,.17-.43,.55-.43,1.68,0,2.53,.14,2.53,.43Zm10.7,17.03c.41,0,.65,.18,.65,.54v13.17c0,.54-.41,.97-1.2,1.26-.75,.22-1.74,.4-2.94,.5-.27,0-.41-.14-.44-.43-.03-.5-.27-1.26-.75-2.27,0-.07,.07-.07,.21-.07,1.3,0,2.05-.07,2.33-.18,.27-.11,.41-.29,.41-.54v-9.75h-22.33v12.53c0,.29-.17,.43-.51,.43h-1.33c-.38,0-.55-.14-.55-.43v-14.22c0-.36,.17-.54,.55-.54h25.92Zm-4.17-9.43c.34,0,.55,.14,.55,.43v6.59c0,.29-.21,.43-.55,.43h-17.47c-.38,0-.55-.14-.55-.43v-6.59c0-.29,.17-.43,.55-.43h17.47Zm-1.57,14.07c.34,0,.51,.14,.51,.4v6.33c0,.29-.17,.43-.51,.43h-13.64c-.38,0-.55-.14-.55-.43v-6.33c0-.25,.17-.4,.55-.4h13.64Zm-.27-11.81h-13.78v2.95h13.78v-2.95Zm-1.61,13.89h-9.88v2.95h9.88v-2.95Z"/><path class="cls-1" d="M380.45,360.43c0,.32-.14,.5-.34,.54-.24,.04-.34,.29-.34,.72v1.55h11.22c.27,0,.41,.22,.41,.58v1.12c0,.4-.14,.58-.41,.58h-25.1v9c0,3.89-.24,6.98-.65,9.29-.27,1.91-.82,3.82-1.61,5.69-.41,1.15-.99,2.23-1.74,3.31-.17,0-.31-.04-.38-.07-.38-.4-.79-.72-1.23-1.01-.1-.14-.14-.29-.14-.47,.65-.97,1.27-2.27,1.81-3.96,.51-1.73,.89-3.53,1.16-5.47,.21-2.02,.34-4.43,.34-7.31v-10.69c0-.36,.17-.58,.55-.58h13.37v-2.81c0-.29,.17-.43,.51-.43,1.71,0,2.57,.14,2.57,.43Zm6.39,19.4c.24,0,.45,.07,.62,.18,.48,.5,.72,.83,.72,.97-.89,1.66-1.71,2.92-2.46,3.78-.92,1.15-1.88,2.12-2.84,2.84-.27,.22-.58,.43-.89,.65,.75,.29,1.64,.58,2.63,.79,1.57,.43,3.66,.83,6.19,1.19,.27,.04,.44,.07,.44,.14,0,.18-.07,.32-.17,.43-.48,.43-.96,.9-1.4,1.44-.21,.25-.34,.4-.44,.4s-.38-.07-.79-.22c-1.2-.22-2.5-.5-3.93-.86-1.71-.5-3.28-1.01-4.72-1.58-.21-.11-.38-.18-.55-.25-.03,0-.07,.04-.07,.04-1.64,.76-3.45,1.4-5.44,1.94-1.33,.36-3.08,.72-5.2,1.08-.34,0-.58-.14-.72-.36-.27-.43-.55-.83-.82-1.26-.14-.14-.21-.29-.21-.36,0-.11,.07-.18,.27-.18,1.33-.18,2.63-.4,3.93-.65,2.26-.47,4.17-1.01,5.68-1.66-.27-.14-.55-.32-.75-.5-1.23-.83-2.15-1.69-2.7-2.59-.79-.83-1.47-1.91-2.09-3.28h-2.19c-.27,0-.41-.18-.41-.58v-1.12c0-.29,.14-.43,.41-.43h17.88Zm-14.43-10.12v-2.23c0-.29,.17-.43,.55-.43,1.68,0,2.53,.14,2.53,.43,0,.32-.14,.5-.34,.5-.24,.07-.34,.32-.34,.76v.97h7.9v-2.23c0-.29,.17-.43,.55-.43,1.68,0,2.53,.14,2.53,.43,0,.32-.14,.5-.34,.5-.24,.07-.34,.32-.34,.76v.97h5.74c.17,0,.27,.14,.27,.43v1.12c0,.4-.1,.58-.27,.58h-5.74v4.75c0,.4-.17,.58-.51,.58h-11.63c-.38,0-.55-.18-.55-.58v-4.75h-5.06c-.21,0-.27-.18-.27-.58v-1.12c0-.29,.07-.43,.27-.43h5.06Zm2.22,13.64c.62,.94,1.47,1.73,2.53,2.45,.62,.5,1.33,.9,2.09,1.26,.68-.36,1.3-.72,1.85-1.12,1.03-.76,1.88-1.62,2.6-2.63,.34-.36,.65-.83,.96-1.37h-10.91c.24,.54,.55,1.01,.89,1.4Zm8.07-11.52h-7.9v3.2h7.9v-3.2Z"/><path class="cls-1" d="M369.23,397.62c.24,.22,.38,.4,.38,.5,0,.29-.14,.5-.41,.58-.27,0-.44,.18-.51,.47-.41,1.51-.75,2.77-1.06,3.74h8.14v-6.33c0-.29,.17-.43,.51-.43,1.71,0,2.56,.14,2.56,.43,0,.32-.14,.5-.34,.54-.24,.04-.34,.29-.34,.72v5.08h11.22c.27,0,.41,.14,.41,.43v1.4c0,.36-.14,.54-.41,.54h-11.22v8.03h9.61c.27,0,.41,.22,.41,.58v1.12c0,.36-.14,.54-.41,.54h-9.61v9.57h12.82c.27,0,.41,.14,.41,.43v1.4c0,.36-.14,.54-.41,.54h-29.65c-.27,0-.41-.18-.41-.54v-1.4c0-.29,.14-.43,.41-.43h14.43v-9.57h-10.43c-.27,0-.41-.18-.41-.54v-1.12c0-.36,.14-.58,.41-.58h10.43v-8.03h-8.99c-.48,1.15-.96,2.27-1.47,3.31-.62,1.08-1.27,2.02-1.95,2.88-.34,0-.58-.04-.79-.14-.48-.22-.92-.4-1.4-.58-.17-.07-.24-.18-.24-.25,0-.14,.03-.25,.14-.32,1.09-1.3,2.05-2.88,2.94-4.75,.51-1.08,.96-2.23,1.33-3.46,.41-1.3,.82-2.92,1.2-4.93,.07-.22,.17-.32,.27-.32l2.43,.9Z"/><path class="cls-1" d="M364.86,443.3c.89,.58,1.68,1.08,2.36,1.51,0,.04-.07,.14-.17,.29-.68,1.04-1.03,1.55-1.03,1.55-1.03-.72-2.09-1.37-3.21-1.94-.92-.47-1.67-.79-2.29-1.01,0-.14,.34-.65,1.06-1.58,.1-.14,.21-.25,.31-.25,1.2,.5,2.19,1.01,2.97,1.44Zm3.39,6.73c.55,1.3,.82,2.02,.82,2.09,0,.18-.07,.36-.17,.5-1.13,2.56-2.19,4.72-3.21,6.52-.55,1.01-1.23,2.12-1.98,3.35-.17,.29-.24,.65-.24,1.15,0,.29-.1,.43-.24,.43-.21,0-.92-.76-2.19-2.27-.14-.07-.21-.22-.24-.4,0-.18,.03-.32,.17-.47,.65-.65,1.33-1.44,2.02-2.41,.96-1.33,1.88-2.84,2.77-4.54,.75-1.44,1.44-2.77,2.02-4,.07-.14,.17-.25,.24-.25,.1,0,.17,.11,.24,.29Zm-1.88-15.51c.99,.68,1.85,1.3,2.6,1.87,0,.04-.07,.14-.17,.29-.68,1.01-1.03,1.51-1.06,1.51-1.09-.86-2.26-1.66-3.49-2.41-1.03-.58-1.85-.97-2.5-1.22,0-.14,.34-.65,1.03-1.58,.1-.14,.21-.25,.31-.25,1.33,.65,2.43,1.26,3.28,1.8Zm21.51,.25c-1.81,.65-3.8,1.15-5.98,1.48v5.76h9.23c.27,0,.41,.18,.41,.54v1.15c0,.36-.14,.54-.41,.54h-9.23v6.19h7.21c.34,0,.55,.14,.55,.43v13.21c0,.29-.21,.43-.55,.43h-1.33c-.34,0-.51-.14-.51-.43v-1.84h-13.37v1.84c0,.29-.21,.43-.55,.43h-1.33c-.34,0-.51-.14-.51-.43v-13.07c0-.36,.17-.58,.51-.58h7.49v-6.19h-9.2c-.27,0-.41-.18-.41-.54v-1.15c0-.36,.14-.54,.41-.54h9.2v-5.44c-2.29,.25-4.62,.36-6.94,.36-.38,0-.62-.11-.68-.36-.07-.43-.21-.83-.41-1.26-.07-.14-.1-.29-.1-.47,3.76-.04,6.7-.22,8.86-.54,2.53-.29,4.86-.83,6.91-1.66,.27-.14,.48-.22,.65-.22,.14,0,.27,.07,.41,.22,1.06,1.01,1.61,1.62,1.61,1.91,0,.36-.14,.54-.41,.54l-.79-.4c-.27,0-.51,.04-.72,.07Zm-.62,25.23v-7.31h-13.37v7.31h13.37Z"/><path class="cls-1" d="M387.12,468.58c.17,.04,.34,.14,.51,.29,.34,.65,.55,1.08,.55,1.26-.27,2.59-.48,5-.55,7.23-.07,2.02-.1,4.03-.1,5.98,0,4.61,.21,8.21,.68,10.76,.41,2.12,.82,3.17,1.16,3.17,.24,0,.41-.18,.55-.58,.17-.36,.38-1.55,.62-3.53,.07-.14,.17-.25,.31-.25s.24,.07,.31,.22c.38,.4,.75,.72,1.09,.94,.14,.07,.21,.25,.21,.54-.55,2.45-1.2,4.21-1.88,5.36-.34,.54-.75,.83-1.2,.83-.68,0-1.33-.76-1.98-2.27-.75-1.62-1.3-3.74-1.61-6.33-.38-2.81-.55-5.76-.55-8.86s.24-7.42,.72-12.49h-19.8v12.2c0,3.78-.24,6.77-.65,8.93-.27,1.87-.82,3.71-1.61,5.51-.41,1.08-1.03,2.16-1.78,3.17-.14,0-.27-.04-.34-.07-.38-.4-.79-.72-1.23-1.01-.1-.14-.14-.29-.14-.47,.65-.94,1.27-2.2,1.81-3.78,.51-1.66,.89-3.42,1.13-5.25,.24-1.91,.38-4.25,.38-7.02v-13.89c0-.36,.17-.58,.55-.58h22.84Zm-5.51,6.44c-.96,.36-2.12,.68-3.45,.97-.58,.14-1.13,.25-1.61,.32v3.38h5.33c.34,0,.55,.14,.55,.4v10.83c0,.29-.21,.43-.55,.43h-5.33v4.1c1.67-.22,3.28-.43,4.79-.72-.41-.58-.85-1.12-1.3-1.69,0-.14,.58-.54,1.74-1.12,1.09,1.44,2.02,2.74,2.7,3.92,.65,1.12,1.2,2.27,1.68,3.53,0,.07-.72,.29-2.12,.68-.21-.83-.62-1.8-1.26-2.95-.03-.04-.03-.07-.03-.11-4.72,.65-9.51,1.26-14.33,1.8-.41,.65-.72,.97-.92,.97-.24,0-.68-1.04-1.33-3.1,2.15-.14,4.79-.47,7.87-.9h.14v-4.43h-5.1c-.34,0-.51-.14-.51-.43v-10.83c0-.25,.17-.4,.51-.4h5.1v-3.02c-.14,.04-.27,.07-.41,.07-1.61,.18-3.08,.25-4.41,.25-.41,0-.62-.14-.68-.47-.34-.43-.68-.94-1.03-1.48,0-.29,.1-.43,.38-.43h2.02c1.64,0,3.04-.07,4.27-.25,1.06-.07,2.15-.25,3.25-.54,1.23-.32,2.29-.72,3.15-1.22,.1-.07,.21-.11,.27-.11,.27,0,.44,.07,.58,.18,1.3,1.22,1.95,1.94,1.95,2.23s-.14,.43-.38,.43l-.96-.43c-.14,0-.34,.04-.55,.11Zm-7.45,6.91h-3.21v7.16h3.21v-7.16Zm5.88,0h-3.49v7.16h3.49v-7.16Z"/><path class="cls-1" d="M386.57,504.58c.34,0,.55,.14,.55,.43v10.69c0,.29-.21,.4-.55,.4h-1.33c-.34,0-.51-.11-.51-.4v-.43h-7.49v2.38h14.02c.17,0,.27,.14,.27,.43v1.12c0,.4-.1,.58-.27,.58h-30.19c-.21,0-.27-.18-.27-.58v-1.12c0-.29,.07-.43,.27-.43h13.75v-2.38h-7.32v.43c0,.29-.21,.4-.55,.4h-1.33c-.38,0-.55-.11-.55-.4v-10.69c0-.29,.17-.43,.55-.43h20.96Zm-15.22,26.49c.17,.22,.27,.36,.27,.5,0,.11-.14,.14-.34,.14-.34,.04-.62,.11-.75,.22-.89,.83-1.78,1.51-2.7,2.16-1.16,.76-2.6,1.51-4.38,2.27-.27,0-.48-.11-.55-.29-.48-.4-.85-.72-1.2-1.01-.17-.07-.24-.18-.24-.25s.03-.14,.17-.18c.82-.22,1.54-.47,2.09-.76,1.16-.58,2.15-1.19,3.04-1.91,.75-.58,1.57-1.3,2.46-2.16,.07-.14,.14-.22,.24-.22l1.88,1.48Zm14.57-9.47c.34,0,.51,.14,.51,.4v6.19c0,.29-.17,.43-.51,.43h-8.69v5.47c0,1.8-1.4,2.7-4.14,2.7h-.96c-.17,0-.24-.25-.24-.68-.03-.54-.21-1.15-.55-1.87v-.14c.55,.18,1.06,.29,1.61,.29,1.23,0,1.85-.43,1.85-1.26v-4.5h-8.28c-.34,0-.51-.14-.51-.43v-6.19c0-.25,.17-.4,.51-.4h19.39Zm-1.2-12.67v-2.38h-17.23v2.38h17.23Zm0,4.36v-2.38h-17.23v2.38h17.23Zm-.68,10.4h-15.63v2.81h15.63v-2.81Zm2.7,8.39c1.33,.97,2.5,1.8,3.45,2.59,0,0-.07,.11-.17,.29-.68,1.01-1.03,1.55-1.03,1.55-1.5-1.22-3.04-2.34-4.68-3.31-1.37-.83-2.46-1.4-3.35-1.76,0-.11,.34-.65,1.06-1.58,.1-.14,.21-.25,.27-.25,1.78,.94,3.28,1.76,4.45,2.48Z"/><path class="cls-1" d="M377.44,558.75c-.55,1.01-1.26,1.87-2.19,2.52l-.89-1.04c1.37-1.04,2.12-2.41,2.29-4.1h-2.53v-4.32h4.1v3.96c0,1.01-.27,1.98-.79,2.99Z"/><path class="cls-1" d="M298.81,1.01c.34,0,.55,.14,.55,.43V28.98c0,.29-.21,.43-.55,.43h-1.33c-.34,0-.51-.14-.51-.43v-1.4h-5.23v3.1c0,.29-.17,.43-.51,.43h-1.33c-.38,0-.55-.14-.55-.43V1.55c0-.36,.17-.54,.55-.54h8.92Zm-1.85,7.99V3.24h-5.23v5.76h5.23Zm0,8.17v-5.9h-5.23v5.9h5.23Zm0,8.17v-5.9h-5.23v5.9h5.23Zm8.14,2.77c2.02-.68,3.9-1.44,5.68-2.27,.07-.07,.14-.11,.21-.11,.17,0,.27,.11,.27,.29,0,1.22-.07,1.87-.14,1.98-3.08,1.4-6.22,2.63-9.37,3.78-.34,.65-.58,1.01-.79,1.01-.24,0-.68-1.01-1.33-2.95,.89-.22,1.92-.5,3.08-.9V1.55c0-.36,.17-.54,.51-.54h13.64c.34,0,.51,.14,.51,.43V15.33c0,.4-.17,.58-.51,.58h-5.85c.14,1.15,.34,2.16,.58,2.95,.27,1.19,.58,2.27,.99,3.2,.68-.32,1.27-.68,1.78-1.08,.92-.61,1.85-1.44,2.8-2.52,.14-.11,.27-.18,.34-.18,1.44,1.26,2.15,1.98,2.15,2.12,0,.18-.17,.25-.45,.25-.48,0-.75,.07-.79,.18-1.54,1.44-3.11,2.59-4.75,3.46,.27,.5,.58,.97,.92,1.33,.58,.9,1.37,1.73,2.33,2.45,.82,.72,1.92,1.37,3.28,1.91,.14,.07,.24,.18,.24,.25,0,.14-.07,.29-.17,.4-.41,.36-.79,.76-1.2,1.26-.17,.22-.31,.32-.38,.32s-.21-.11-.41-.29c-.68-.36-1.4-.79-2.15-1.3-.96-.72-1.85-1.51-2.6-2.41-.89-1.08-1.61-2.16-2.12-3.2-.68-1.22-1.16-2.48-1.47-3.85-.48-1.37-.85-3.1-1.2-5.25h-3.66v12.2Zm0-20.77h9.88V3.24h-9.88V7.34Zm0,6.3h9.88v-4.07h-9.88v4.07Z"/><path class="cls-1" d="M301.68,51.73c.21,.18,.34,.32,.34,.47,0,.29-.24,.4-.68,.4-.48,0-.79,.11-.99,.32-.92,1.04-1.81,1.91-2.63,2.59-.62,.58-1.4,1.19-2.29,1.8-.89,.65-1.81,1.19-2.7,1.69-.92,.5-1.64,.83-2.19,1.04-.24,0-.41-.11-.55-.32-.31-.54-.68-1.01-1.09-1.37-.27-.14-.38-.29-.38-.4,0-.04,.03-.07,.17-.14,1.27-.43,2.33-.86,3.15-1.3,1.13-.58,2.29-1.33,3.45-2.27,.75-.58,1.4-1.15,1.88-1.73,.55-.58,1.03-1.22,1.5-1.94,.14-.14,.27-.22,.41-.22l2.6,1.37Zm13.3-15.44c.34,0,.55,.14,.55,.43v14.22c0,.29-.21,.4-.55,.4h-1.33c-.38,0-.55-.11-.55-.4v-.86h-4.04c.79,1.19,1.61,2.2,2.46,3.06,.96,.94,1.92,1.69,2.87,2.27,1.3,.94,2.91,1.66,4.79,2.23,.21,.07,.34,.11,.34,.18,0,.18-.07,.32-.21,.43-.51,.43-.96,.83-1.33,1.26-.14,.22-.24,.29-.34,.29-1.44-.47-2.63-1.01-3.56-1.66-1.33-.72-2.53-1.62-3.62-2.7-.99-.94-2.12-2.27-3.38-3.96l1.71-1.4h-13.71v.72c0,.29-.21,.4-.55,.4h-1.33c-.34,0-.51-.11-.51-.4v-13.93c0-.36,.17-.58,.51-.58h21.78Zm-14.26,19.83c.24,0,.38,.14,.38,.43,0,.25-.21,.43-.55,.54-.21,0-.31,.11-.31,.29-.07,2.16-.24,3.85-.51,5.08-.34,1.37-.82,2.48-1.37,3.35-.65,.94-1.47,1.76-2.5,2.56-.34,0-.55-.04-.68-.11-.48-.29-.92-.58-1.37-.86-.24-.04-.34-.14-.34-.29,0-.07,.03-.14,.14-.18,1.13-.72,2.02-1.58,2.7-2.74,.62-1.04,1.03-2.2,1.27-3.42,.21-1.04,.27-2.59,.27-4.64,0-.18,.1-.29,.31-.29l2.56,.29Zm1.98-14.07v-3.49h-7.63v3.49h7.63Zm0,5.8v-3.53h-7.63v3.53h7.63Zm2.39-5.8h8v-3.49h-8v3.49Zm8,5.8v-3.53h-8v3.53h8Zm-1.98,8.42c0,.32-.14,.5-.34,.54-.24,.04-.34,.29-.34,.72v10.69c0,.29-.24,.43-.65,.43h-1.33c-.38,0-.55-.14-.55-.43v-11.95c0-.29,.17-.43,.55-.43,1.78,0,2.67,.14,2.67,.43Z"/><path class="cls-1" d="M298.09,74.84c-1.27,.5-2.77,.94-4.48,1.26v3.92h5.33c.27,0,.41,.22,.41,.58v1.12c0,.4-.14,.58-.41,.58h-5.33v4.64h5.47c.27,0,.41,.18,.41,.54v1.12c0,.4-.14,.58-.41,.58h-5.47v4.79h7.49v-7.74c0-.18,.17-.29,.51-.29,1.44,0,2.15,.11,2.15,.29,0,.29-.1,.47-.27,.47-.21,.04-.27,.25-.27,.65v6.62h2.67v-9.72h-4.14c-.34,0-.51-.18-.51-.54v-11.41c0-.18,.17-.29,.51-.29,1.44,0,2.15,.11,2.15,.29,0,.29-.1,.47-.27,.47-.21,.04-.27,.25-.27,.68v2.81h4.55c.17,0,.27,.14,.27,.4v1.15c0,.36-.1,.54-.27,.54h-4.55v3.67h4.27c.34,0,.55,.14,.55,.43v11.52h6.53v-4.79h-5.06c-.27,0-.41-.18-.41-.58v-1.12c0-.36,.14-.54,.41-.54h5.06v-4.64h-5.06c-.27,0-.41-.18-.41-.58v-1.12c0-.36,.14-.58,.41-.58h5.06v-4.5h-5.2c-.27,0-.41-.18-.41-.54v-1.44c0-.25,.14-.4,.41-.4h7.08c.34,0,.51,.14,.51,.4v20.41h2.15c.27,0,.41,.18,.41,.54v1.15c0,.36-.14,.54-.41,.54h-30.33c-.27,0-.41-.18-.41-.54v-1.15c0-.36,.14-.54,.41-.54h2.29v-20.27c0-.25,.1-.4,.38-.4l1.57,.65c.85-.14,1.54-.32,2.08-.5,1.03-.36,1.95-.76,2.77-1.22,.21-.14,.34-.22,.41-.22,.89,1.51,1.33,2.41,1.33,2.7,0,.22-.1,.29-.27,.29l-.96-.29c-.07,0-.24,.07-.44,.14Zm2.8,23.04c.21,.18,.34,.32,.34,.43,0,.29-.24,.43-.68,.43-.38,0-.65,.07-.79,.22-.75,.86-1.44,1.58-2.09,2.12-.48,.47-1.09,.97-1.81,1.48-.72,.5-1.44,.94-2.12,1.37-.72,.36-1.3,.65-1.74,.86-.21,0-.38-.14-.51-.36-.27-.5-.62-.9-.99-1.26-.27-.14-.38-.29-.38-.36s.03-.11,.14-.11c.96-.36,1.78-.72,2.46-1.04,.89-.5,1.81-1.12,2.7-1.87,.62-.47,1.09-.94,1.5-1.4s.82-1.01,1.16-1.58c.14-.11,.24-.18,.34-.18l2.46,1.26Zm12.79,2.2c1.54,1.26,3.11,2.16,4.75,2.74,0,.14-.55,.79-1.57,1.98-1.74-.72-3.18-1.55-4.34-2.56-1.37-1.01-2.67-2.34-3.97-3.92,0-.18,.62-.76,1.88-1.69,1.16,1.58,2.22,2.74,3.25,3.46Z"/><path class="cls-1" d="M292.55,117.58v-7.74c0-.25,.17-.4,.51-.4,1.71,0,2.57,.14,2.57,.4,0,.32-.14,.5-.34,.54-.24,.04-.34,.29-.34,.72v6.48h2.67c.27,0,.41,.22,.41,.58v1.12c0,.4-.14,.58-.41,.58h-2.67v11.73c1.23-.43,2.43-.9,3.56-1.4,.07-.04,.1-.07,.17-.07,.17,0,.27,.11,.27,.29,0,1.19-.07,1.83-.14,1.94-2.63,1.15-5.3,2.2-8,3.1-.34,.68-.62,1.01-.82,1.01s-.65-.97-1.33-2.95c1.13-.22,2.43-.58,3.9-1.08v-12.56h-2.94c-.27,0-.41-.18-.41-.58v-1.12c0-.36,.14-.58,.41-.58h2.94Zm23.49,4.21c.34,0,.55,.14,.55,.43v10.12c0,.29-.21,.43-.55,.43h-3.45v3.92c0,1.01,.55,1.55,1.71,1.55h1.74c.68,0,1.13-.36,1.27-1.01,.14-.36,.31-1.12,.48-2.34,.68,.54,1.26,.86,1.78,1.01,.21,.07,.34,.25,.34,.54-.27,1.4-.55,2.38-.82,2.88-.31,.79-1.06,1.19-2.22,1.19h-3.76c-1.88,0-2.8-.76-2.8-2.27v-5.47h-2.67c-.03,.86-.07,1.55-.14,2.12-.21,.76-.48,1.44-.85,2.05-.38,.65-.96,1.22-1.74,1.76-.82,.5-1.78,.97-2.94,1.33-.99,.25-2.09,.5-3.28,.76-.21,0-.34-.14-.38-.4-.34-.43-.68-.94-.96-1.48-.1-.14-.14-.29-.14-.4,1.71-.22,3.08-.43,4.1-.65,.79-.22,1.44-.47,1.95-.83,.48-.25,.86-.58,1.13-1.01,.34-.43,.58-.9,.79-1.48,.1-.43,.17-1.01,.21-1.8h-3.35c-.38,0-.55-.14-.55-.43v-10.12c0-.29,.17-.43,.55-.43h14.02Zm-9.61-5.76c.24,.47,.44,.94,.65,1.4h4.17c.48-.58,.82-1.12,1.09-1.58,.48-.72,.82-1.44,1.06-2.16,.07-.22,.14-.32,.24-.32l1.81,.79c.27,.14,.44,.29,.44,.47,0,.14-.1,.22-.27,.29-.27,0-.41,.11-.44,.29-.41,.9-.82,1.66-1.16,2.23h4.82c.27,0,.41,.22,.41,.58v1.12c0,.4-.14,.58-.41,.58h-18.94c-.27,0-.41-.18-.41-.58v-1.12c0-.36,.14-.58,.41-.58h4.92c-.07-.07-.1-.18-.14-.32-.38-.76-.86-1.55-1.47-2.34,0-.14,.58-.5,1.74-1.12,.62,.86,1.09,1.66,1.47,2.38Zm4.82-7.6c0,.32-.14,.5-.34,.54-.24,.04-.34,.29-.34,.72v1.15h7.49c.17,0,.27,.14,.27,.4v1.15c0,.36-.1,.54-.27,.54h-17.37c-.21,0-.27-.18-.27-.54v-1.15c0-.25,.07-.4,.27-.4h7.49v-2.41c0-.29,.17-.43,.51-.43,1.71,0,2.56,.14,2.56,.43Zm2.91,17.71v-2.38h-10.26v2.38h10.26Zm0,2.12h-10.26v2.52h10.26v-2.52Z"/><path class="cls-1" d="M301.68,159.73c.21,.18,.34,.32,.34,.47,0,.29-.24,.4-.68,.4-.48,0-.79,.11-.99,.32-.92,1.04-1.81,1.91-2.63,2.59-.62,.58-1.4,1.19-2.29,1.8-.89,.65-1.81,1.19-2.7,1.69-.92,.5-1.64,.83-2.19,1.04-.24,0-.41-.11-.55-.32-.31-.54-.68-1.01-1.09-1.37-.27-.14-.38-.29-.38-.4,0-.04,.03-.07,.17-.14,1.27-.43,2.33-.86,3.15-1.3,1.13-.58,2.29-1.33,3.45-2.27,.75-.58,1.4-1.15,1.88-1.73,.55-.58,1.03-1.22,1.5-1.94,.14-.14,.27-.22,.41-.22l2.6,1.37Zm13.3-15.44c.34,0,.55,.14,.55,.43v14.22c0,.29-.21,.4-.55,.4h-1.33c-.38,0-.55-.11-.55-.4v-.86h-4.04c.79,1.19,1.61,2.2,2.46,3.06,.96,.94,1.92,1.69,2.87,2.27,1.3,.94,2.91,1.66,4.79,2.23,.21,.07,.34,.11,.34,.18,0,.18-.07,.32-.21,.43-.51,.43-.96,.83-1.33,1.26-.14,.22-.24,.29-.34,.29-1.44-.47-2.63-1.01-3.56-1.66-1.33-.72-2.53-1.62-3.62-2.7-.99-.94-2.12-2.27-3.38-3.96l1.71-1.4h-13.71v.72c0,.29-.21,.4-.55,.4h-1.33c-.34,0-.51-.11-.51-.4v-13.93c0-.36,.17-.58,.51-.58h21.78Zm-14.26,19.83c.24,0,.38,.14,.38,.43,0,.25-.21,.43-.55,.54-.21,0-.31,.11-.31,.29-.07,2.16-.24,3.85-.51,5.08-.34,1.37-.82,2.48-1.37,3.35-.65,.94-1.47,1.76-2.5,2.56-.34,0-.55-.04-.68-.11-.48-.29-.92-.58-1.37-.86-.24-.04-.34-.14-.34-.29,0-.07,.03-.14,.14-.18,1.13-.72,2.02-1.58,2.7-2.74,.62-1.04,1.03-2.2,1.27-3.42,.21-1.04,.27-2.59,.27-4.64,0-.18,.1-.29,.31-.29l2.56,.29Zm1.98-14.07v-3.49h-7.63v3.49h7.63Zm0,5.8v-3.53h-7.63v3.53h7.63Zm2.39-5.8h8v-3.49h-8v3.49Zm8,5.8v-3.53h-8v3.53h8Zm-1.98,8.42c0,.32-.14,.5-.34,.54-.24,.04-.34,.29-.34,.72v10.69c0,.29-.24,.43-.65,.43h-1.33c-.38,0-.55-.14-.55-.43v-11.95c0-.29,.17-.43,.55-.43,1.78,0,2.67,.14,2.67,.43Z"/><path class="cls-1" d="M317.37,181.3c.44,0,.68,.18,.68,.54v27.07c0,1.12-.55,1.98-1.57,2.63-.96,.47-2.22,.79-3.76,.97-.31,0-.48-.14-.51-.43-.03-.54-.31-1.33-.85-2.38,0-.14,.1-.22,.34-.22,1.81,0,2.87-.11,3.21-.4,.41-.29,.62-.72,.62-1.33v-24.08h-22.6v28.26c0,.29-.24,.43-.65,.43h-1.33c-.38,0-.55-.14-.55-.43v-30.24c0-.25,.17-.4,.55-.4h26.43Zm-5.06,5.9c.27,0,.41,.14,.41,.4v1.4c0,.4-.14,.58-.41,.58h-16.04c-.27,0-.41-.18-.41-.58v-1.4c0-.25,.14-.4,.41-.4h16.04Zm-2.02,6.44c.34,0,.55,.14,.55,.43v11.66c0,.29-.21,.43-.55,.43h-1.33c-.34,0-.51-.14-.51-.43v-1.55h-8.55v1.69c0,.29-.21,.43-.55,.43h-1.33c-.38,0-.55-.14-.55-.43v-11.66c0-.36,.17-.58,.55-.58h12.28Zm-1.85,8.31v-6.05h-8.55v6.05h8.55Z"/><path class="cls-1" d="M306.98,216c0,.36-.14,.54-.34,.54-.24,.07-.34,.32-.34,.76v3.35h10.02c.27,0,.41,.22,.41,.58v1.12c0,.4-.14,.58-.41,.58h-10.02v4.79h12.69c.27,0,.41,.18,.41,.54v1.15c0,.36-.14,.54-.41,.54h-12.69v9.29c0,1.8-1.4,2.66-4.14,2.66h-2.02c-.17,0-.24-.22-.24-.65-.03-.5-.21-1.15-.55-1.87v-.14c.89,.22,1.78,.29,2.67,.29,1.23,0,1.88-.4,1.88-1.26v-8.31h-14.57c-.27,0-.41-.18-.41-.54v-1.15c0-.36,.14-.54,.41-.54h5.47v-8.71c0-.29,.17-.43,.55-.43,1.67,0,2.53,.14,2.53,.43,0,.32-.14,.5-.34,.5-.24,.07-.34,.32-.34,.76v7.45h6.7v-11.7c0-.25,.17-.4,.51-.4,1.71,0,2.56,.14,2.56,.4Zm-8.24,17.03c.21,.14,.34,.29,.34,.43,0,.29-.24,.43-.65,.43-.27,0-.44,.11-.58,.29-.48,1.01-.96,1.84-1.44,2.48-.34,.58-.75,1.19-1.23,1.76-.48,.58-.99,1.12-1.47,1.58-.48,.5-.89,.83-1.16,1.04-.24,0-.41-.11-.51-.32-.31-.5-.65-.94-1.03-1.3-.24-.14-.34-.25-.34-.36,0-.04,0-.07,.07-.11,.68-.43,1.23-.83,1.68-1.26,.62-.58,1.23-1.3,1.85-2.2,.41-.54,.72-1.08,.99-1.62,.27-.58,.55-1.19,.79-1.91,.07-.14,.17-.22,.24-.22l2.46,1.26Zm18.36,1.26c0,.22-.17,.36-.44,.4-.48,0-.72,.11-.75,.32-.62,1.01-1.23,1.94-1.85,2.81-1.03,1.44-1.98,2.66-2.94,3.6-1.44,1.37-3.08,2.52-4.96,3.53-1.67,.9-3.56,1.69-5.68,2.34-1.57,.5-4,1.04-7.28,1.66-.21,0-.34-.22-.48-.58-.21-.58-.58-1.26-1.13-2.12,1.98-.14,3.83-.43,5.57-.86,1.92-.36,3.76-.9,5.57-1.66,1.5-.61,2.91-1.37,4.21-2.27,1.26-.86,2.46-1.94,3.62-3.31,.96-1.12,1.71-2.23,2.29-3.31,.55-.94,.92-1.76,1.06-2.48,0-.18,.03-.29,.14-.29,2.02,1.4,3.04,2.16,3.04,2.23Z"/><path class="cls-1" d="M293.47,259.49v-5.08c0-.68-.07-1.22-.14-1.58-.1-.25-.14-.47-.14-.68,0-.14,.21-.25,.68-.25l2.67,.36c.27,.14,.41,.25,.41,.32,0,.22-.14,.32-.41,.32-.48,.22-.68,.76-.68,1.66v4.93h3.49c.27,0,.41,.18,.41,.54v1.12c0,.4-.14,.58-.41,.58h-3.49v7.24c1.09-.58,2.15-1.19,3.18-1.8,.07-.07,.1-.11,.17-.11,.17,0,.27,.11,.27,.29,0,1.22-.07,1.87-.14,1.98-1.16,.72-2.33,1.4-3.49,2.05v10.47c0,1.66-1.2,2.52-3.59,2.52h-1.2c-.21,0-.31-.22-.31-.61-.1-.47-.31-1.01-.65-1.66,0-.18,.07-.25,.27-.25,.58,.14,1.13,.25,1.61,.25,.96,0,1.47-.43,1.47-1.26v-8.17c-.96,.5-1.92,1.01-2.8,1.44-.34,.65-.58,.97-.79,.97-.24,0-.68-.97-1.37-2.95,1.4-.43,3.04-1.08,4.96-1.98v-8.42h-4c-.27,0-.41-.18-.41-.58v-1.12c0-.36,.14-.54,.41-.54h4Zm25.92,8.28c.27,0,.41,.22,.41,.58v1.12c0,.36-.14,.54-.41,.54h-8.14v4.25h6.67c.27,0,.41,.18,.41,.54v1.15c0,.36-.14,.54-.41,.54h-6.67v5c.89,.04,2.02,.07,3.45,.07,.86,0,2.5-.14,4.96-.43,0,.18-.07,.32-.21,.5-.27,.65-.45,1.3-.58,1.94-.03,.32-.14,.5-.31,.5h-3.35c-2.94,0-5.06-.18-6.33-.5-1.03-.25-1.92-.58-2.67-.94-.62-.36-1.13-.76-1.54-1.19-.55-.47-.99-1.01-1.3-1.62-.03-.04-.07-.07-.07-.11-.07,.22-.14,.4-.21,.54-.92,1.8-2.19,3.28-3.76,4.39-.24,0-.41-.11-.51-.25-.38-.36-.72-.72-1.03-1.01-.14-.18-.21-.32-.21-.43,0-.22,.07-.32,.27-.36,.85-.58,1.54-1.15,2.09-1.8,.55-.65,1.03-1.37,1.4-2.12,.27-.76,.51-1.62,.75-2.59,.21-1.15,.34-2.52,.38-4.18,0-.29,.14-.47,.44-.47l2.19,.54c.24,.14,.38,.29,.38,.43,0,.32-.17,.5-.44,.54-.21,.14-.31,.36-.38,.72-.1,1.12-.24,2.12-.44,3.02,.34,.9,.65,1.51,.92,1.87,.34,.58,.75,1.01,1.27,1.33,.48,.4,1.06,.72,1.74,.97,.21,.11,.41,.18,.65,.22v-11.09h-7.73c-.27,0-.41-.18-.41-.54v-1.12c0-.36,.14-.58,.41-.58h18.29Zm-2.29-14.76c.34,0,.55,.14,.55,.43v11.52c0,.29-.21,.43-.55,.43h-14.02c-.34,0-.51-.14-.51-.43v-11.52c0-.29,.17-.43,.51-.43h14.02Zm-1.85,5.04v-2.81h-10.29v2.81h10.29Zm0,2.27h-10.29v2.81h10.29v-2.81Z"/><path class="cls-1" d="M300.41,292.32v6.73c0,.86-.03,1.66-.07,2.45h9.03v-12.78c0-.29,.17-.43,.51-.43,1.78,0,2.7,.14,2.7,.43,0,.32-.14,.5-.34,.54-.24,.04-.34,.29-.34,.72v11.52h7.08c.27,0,.41,.22,.41,.58v1.4c0,.4-.14,.58-.41,.58h-7.08v16.16c0,.29-.24,.43-.65,.43h-1.37c-.34,0-.51-.14-.51-.43v-16.16h-9.2c-.17,1.58-.41,3.06-.72,4.46-.62,2.52-1.74,4.75-3.38,6.7-1.06,1.3-2.5,2.59-4.34,3.89-.27,0-.51-.11-.65-.29-.34-.5-.65-.94-.99-1.3-.14-.18-.21-.36-.21-.54,3.62-2.52,5.95-5.51,7.04-8.96,.31-1.22,.55-2.56,.72-3.96h-8.17c-.27,0-.41-.18-.41-.58v-1.4c0-.36,.14-.58,.41-.58h8.34c.03-.65,.07-1.33,.07-2.02v-6.51c-2.15,.47-4.34,.68-6.53,.68-.34,0-.55-.14-.62-.47-.27-.58-.51-1.01-.75-1.37,0-.36,.14-.58,.41-.58,3.42,0,5.88-.18,7.35-.54,2.33-.36,4.34-1.22,6.05-2.63,.21-.11,.41-.18,.62-.18,.14,0,.27,.11,.48,.25,.92,1.15,1.4,1.76,1.4,1.84,0,.29-.1,.43-.27,.43l-.92-.14c-1.3,.83-2.84,1.51-4.68,2.05Z"/><path class="cls-1" d="M305.44,342.75c-.55,1.01-1.26,1.87-2.19,2.52l-.89-1.04c1.37-1.04,2.12-2.41,2.29-4.1h-2.53v-4.32h4.1v3.96c0,1.01-.27,1.98-.79,2.99Z"/><path class="cls-1" d="M247.12,14.36c.27,0,.41,.25,.41,.68v1.44c0,.47-.14,.68-.41,.68h-29.92c-.27,0-.41-.22-.41-.68v-1.44c0-.43,.14-.68,.41-.68h29.92Z"/><path class="cls-1" d="M224.28,39.82v5.08h3.73c.27,0,.41,.18,.41,.54v1.12c0,.4-.14,.58-.41,.58h-3.56c.48,1.58,.89,2.84,1.27,3.78,.48,1.3,1.33,2.77,2.5,4.43,.14,.11,.21,.22,.21,.36,0,.07-.1,.18-.24,.29-.21,.32-.51,.65-.89,1.01-.14,.18-.27,.25-.34,.25-.1,0-.24-.07-.38-.25-.82-1.22-1.5-2.63-2.12-4.21-.07-.18-.14-.36-.17-.5v16.09c0,.29-.21,.43-.55,.43h-1.33c-.27,0-.38-.14-.38-.43v-14.43c-.41,1.15-.85,2.2-1.27,3.13-.58,1.44-1.26,2.77-2.09,4-.24,0-.41-.04-.51-.18-.48-.22-.92-.43-1.37-.65-.21,0-.27-.04-.27-.18,1.09-1.55,2.02-3.1,2.7-4.61,.65-1.44,1.16-2.81,1.54-4.18,.31-.9,.65-2.27,1.06-4.14h-4.48c-.27,0-.41-.18-.41-.58v-1.12c0-.36,.14-.54,.41-.54h4.68v-4.64c-1.2,.18-2.39,.25-3.62,.25-.31,0-.51-.14-.58-.43-.27-.58-.51-1.01-.75-1.37,0-.29,.07-.43,.27-.43,2.26,0,3.9-.07,4.89-.29,1.54-.18,2.87-.61,4.04-1.3,.14-.07,.27-.11,.41-.11,.1,0,.24,.07,.44,.22,.86,1.01,1.3,1.55,1.3,1.62,0,.4-.1,.58-.27,.58l-.92-.14c-.82,.43-1.81,.76-2.94,.97Zm14.84,.29v2.81h7.45c.27,0,.41,.22,.41,.58v1.12c0,.36-.14,.54-.41,.54h-7.45v2.27h6.67c.34,0,.55,.14,.55,.43v10.26c0,.29-.21,.4-.55,.4h-6.67v2.56h6.8c.17,0,.27,.14,.27,.43v1.12c0,.36-.1,.54-.27,.54h-6.8v2.56h8c.27,0,.41,.18,.41,.54v1.15c0,.36-.14,.54-.41,.54h-18.57c-.27,0-.41-.18-.41-.54v-1.15c0-.36,.14-.54,.41-.54h8.28v-2.56h-6.67c-.21,0-.27-.18-.27-.54v-1.12c0-.29,.07-.43,.27-.43h6.67v-2.56h-6.53c-.38,0-.55-.11-.55-.4v-10.26c0-.29,.17-.43,.55-.43h6.53v-2.27h-7.49c-.27,0-.38-.18-.38-.54v-1.12c0-.36,.1-.58,.38-.58h7.49v-2.52c-1.85,.18-3.69,.25-5.61,.25-.31,0-.51-.14-.58-.43-.27-.58-.51-1.01-.75-1.37,0-.36,.14-.58,.41-.58,3.38,0,5.81-.11,7.25-.32,2.33-.18,4.31-.65,6.02-1.4,.17-.07,.38-.11,.62-.11,.1,0,.27,.11,.48,.29,.92,1.12,1.4,1.73,1.4,1.84,0,.29-.1,.43-.27,.43l-.92-.14c-1.54,.5-3.45,.94-5.74,1.26Zm-2.29,11.81v-2.52h-4.79v2.52h4.79Zm0,1.98h-4.79v2.66h4.79v-2.66Zm2.29-1.98h4.92v-2.52h-4.92v2.52Zm4.92,1.98h-4.92v2.66h4.92v-2.66Z"/><path class="cls-1" d="M220.27,79.34c0,.25-.14,.43-.41,.54-.21,.22-.34,.5-.34,.79-.17,2.56-.38,4.64-.62,6.26-.21,.9-.38,1.84-.58,2.77-.07,.22-.14,.29-.21,.29-.75-.22-1.4-.4-1.95-.5-.21-.04-.31-.14-.31-.32,.34-1.19,.65-2.52,.92-3.96,.27-1.4,.48-3.49,.65-6.26,0-.29,.1-.47,.31-.47,1.68,.36,2.53,.65,2.53,.86Zm4.41-6.91c0,.32-.14,.5-.34,.54-.24,.04-.34,.29-.34,.72v30.81c0,.29-.17,.43-.51,.43h-1.33c-.38,0-.55-.14-.55-.43v-32.07c0-.29,.17-.43,.55-.43,1.68,0,2.53,.14,2.53,.43Zm2.67,5.9c.51,1.44,.99,2.92,1.47,4.5,0,.36-.1,.54-.24,.58-.82,.58-1.44,.83-1.92,.83-.41-1.94-.82-3.6-1.2-4.9,0-.25,.48-.65,1.47-1.15,.21,0,.34,.07,.41,.14Zm11.9-5.47c0,.25-.17,.36-.48,.36-.34,0-.48,.11-.48,.32-.79,2.27-1.78,4.82-3.01,7.63-.55,1.33-1.13,2.56-1.71,3.67,3.59-.5,7.15-1.15,10.7-1.98-.68-1.66-1.54-3.31-2.5-4.93,0-.18,.62-.61,1.85-1.3,1.23,2.23,2.22,4.25,2.97,6.05,.72,1.69,1.33,3.49,1.85,5.36,0,.07-.75,.32-2.26,.68-.21-1.01-.55-2.23-1.06-3.67-4.31,.94-9.06,1.8-14.26,2.59-.24,0-.44,.18-.58,.54-.1,.36-.27,.54-.55,.54s-.85-1.08-1.74-3.24c1.03-.07,2.02-.18,3.04-.32,1.3-2.84,2.5-5.83,3.56-9,.48-1.51,.89-3.02,1.16-4.5,0-.14,.07-.22,.27-.22,2.12,.72,3.21,1.19,3.21,1.4Zm5.98,17.57c.34,0,.55,.14,.55,.43v13.21c0,.29-.21,.43-.55,.43h-1.33c-.34,0-.51-.14-.51-.43v-1.84h-10.43v1.84c0,.29-.21,.43-.55,.43h-1.33c-.34,0-.51-.14-.51-.43v-13.07c0-.36,.17-.58,.51-.58h14.16Zm-1.85,9.58v-7.31h-10.43v7.31h10.43Z"/><path class="cls-1" d="M224.17,132.95c.34,.14,.51,.32,.51,.54s-.21,.4-.55,.47c-.48,0-.75,.18-.86,.47-1.3,2.48-2.56,4.39-3.79,5.76-.31,.29-.55,.47-.68,.47-.17,0-.38-.11-.62-.29-.48-.25-.96-.47-1.37-.68-.21-.07-.31-.14-.31-.18,0-.07,.07-.18,.24-.32,1.23-1.19,2.19-2.2,2.84-3.1,.92-1.15,1.61-2.34,2.05-3.49,.14-.36,.31-.54,.51-.54l2.02,.9Zm2.26-23.94c0,.22-.1,.32-.24,.32-.38,.04-.62,.14-.72,.36-.27,.61-.51,1.19-.72,1.69h5.81c.17,0,.38,.07,.62,.22,.38,.36,.58,.61,.58,.79-.27,1.87-.55,3.42-.82,4.61-.34,1.33-.79,2.63-1.33,3.89-.34,.79-.79,1.73-1.37,2.74-.58,1.01-1.27,1.94-2.05,2.81-.58,.68-1.33,1.37-2.26,2.05-.72,.58-1.78,1.19-3.15,1.91-.21,0-.38-.11-.51-.36-.48-.36-.92-.68-1.4-1.04-.14-.14-.21-.22-.21-.29s.03-.14,.17-.22c1.44-.58,2.6-1.22,3.56-1.91,.65-.43,1.23-.9,1.71-1.4-.68-.65-1.4-1.26-2.12-1.84-.85-.65-1.57-1.12-2.12-1.4,0-.11,.31-.58,.92-1.44,.1-.14,.21-.25,.27-.25,1.16,.72,2.12,1.4,2.87,2.02,.55,.5,1.06,.97,1.54,1.4,.62-.79,1.13-1.55,1.5-2.27,.1-.22,.21-.4,.27-.61-.72-.65-1.44-1.22-2.19-1.8-.82-.58-1.47-1.01-1.98-1.26,0-.11,.31-.61,.92-1.48,.1-.14,.21-.22,.27-.22,1.09,.65,1.98,1.26,2.7,1.8,.41,.36,.79,.65,1.13,.94,.1-.29,.21-.58,.34-.9,.31-1.08,.62-2.48,.92-4.21h-5.68c-.55,1.04-1.09,1.91-1.61,2.59-.62,.9-1.68,2.2-3.15,3.85-.24,0-.45-.07-.65-.29-.34-.29-.65-.54-.99-.83-.17-.11-.24-.25-.24-.43,.75-.86,1.54-1.76,2.33-2.74,1.03-1.22,1.92-2.63,2.7-4.18,.62-1.37,1.13-2.74,1.54-4.03,0-.18,.03-.29,.1-.29,1.78,.94,2.7,1.51,2.7,1.69Zm3.18,23.47c.82,2.02,1.61,4.18,2.29,6.48,0,.32-.1,.5-.24,.54-.82,.58-1.44,.86-1.92,.86-.72-2.77-1.37-5.04-1.98-6.88,0-.25,.48-.65,1.47-1.15,.21,0,.31,.07,.38,.14Zm7.18-17.13c.17-1.8,.24-4.1,.24-6.84,0-.32,.14-.5,.48-.5l2.56,.29c.24,0,.38,.14,.38,.43,0,.25-.21,.43-.55,.58-.34,0-.48,.18-.48,.47-.07,2.12-.17,4-.31,5.58h6.94c.24,0,.38,.18,.38,.54v1.12c0,.4-.14,.58-.38,.58h-6.26c.55,1.83,1.09,3.31,1.61,4.39,.58,1.26,1.2,2.3,1.85,3.13,.58,.83,1.2,1.51,1.88,2.09,.58,.58,1.23,1.08,1.98,1.51,0,.18-.1,.29-.27,.36-.34,.4-.68,.83-.96,1.26-.1,.14-.27,.18-.51,.18-.89-.5-1.74-1.22-2.63-2.16-.72-.79-1.4-1.73-2.02-2.74-.58-.94-1.16-2.05-1.71-3.35-.24-.58-.48-1.19-.68-1.91-.55,2.09-1.23,3.85-2.05,5.25-1.06,1.76-2.43,3.35-4.1,4.79-.34,0-.58-.04-.72-.11-.48-.29-.92-.58-1.37-.86-.24-.04-.34-.14-.34-.32,0-.07,.07-.18,.24-.32,1.88-1.3,3.38-3.02,4.48-5.11,.96-1.87,1.61-3.89,1.98-6.08h-3.62c-.27,0-.41-.18-.41-.58v-1.12c0-.36,.14-.54,.41-.54h3.97Zm-.48,16.99c1.16,2.02,2.22,4.18,3.18,6.48,0,.32-.07,.5-.21,.58-.82,.54-1.47,.83-1.92,.83-1.06-2.77-2.05-5.04-2.94-6.88,0-.25,.48-.65,1.47-1.15,.21,0,.34,.07,.41,.14Zm8.41-21.45c.75,.58,1.44,1.08,1.98,1.51,0,.04-.07,.11-.17,.25-.65,.94-.99,1.4-1.03,1.4-.82-.68-1.71-1.33-2.67-1.94-.75-.43-1.4-.79-1.88-1.01,0-.11,.31-.58,.96-1.44,.07-.14,.17-.22,.24-.22,1.03,.5,1.88,1.01,2.56,1.44Zm.75,24.19c.96,1.37,1.74,2.52,2.43,3.6,0,0-.07,.11-.14,.29-.68,1.01-1.03,1.55-1.06,1.55-1.06-1.69-2.19-3.2-3.35-4.64-.96-1.12-1.78-1.91-2.39-2.38,0-.14,.34-.65,1.06-1.58,.1-.14,.21-.25,.27-.25,1.3,1.22,2.36,2.38,3.18,3.42Z"/><path class="cls-1" d="M233.75,145.44c0,.14-.17,.29-.51,.4-.41,.07-.68,.22-.89,.5-.34,.58-.75,1.12-1.16,1.62h11.8c.34,0,.55,.14,.55,.43v27.68c0,.29-.21,.43-.55,.43h-1.33c-.38,0-.55-.14-.55-.43v-2.38h-17.75v2.38c0,.29-.21,.43-.55,.43h-1.33c-.38,0-.55-.14-.55-.43v-27.57c0-.36,.17-.54,.55-.54h6.7c.31-.32,.55-.61,.72-.86,.55-.76,1.06-1.69,1.5-2.81,.07-.18,.17-.29,.31-.29,2.02,.86,3.04,1.37,3.04,1.44Zm7.35,10.26v-5.51h-17.75v5.51h17.75Zm0,7.74v-5.51h-17.75v5.51h17.75Zm0,7.99v-5.76h-17.75v5.76h17.75Z"/><path class="cls-1" d="M228.41,189.58c0,.36-.17,.61-.51,.72-.38,.11-.62,.25-.72,.43-1.03,1.51-2.02,2.81-3.04,3.92v17.57c0,.29-.17,.43-.51,.43h-1.37c-.34,0-.51-.14-.51-.43v-15.15c-1.03,.94-2.22,1.94-3.62,3.06-.68-.79-1.2-1.33-1.57-1.66-.21-.22-.27-.36-.27-.47,0-.04,.03-.11,.14-.22,2.15-1.37,4.07-2.99,5.71-4.9,1.3-1.4,2.53-3.1,3.69-5.04,.1-.14,.21-.25,.34-.25s.89,.68,2.26,1.98Zm-2.33-7.74c.27,.22,.44,.43,.44,.72s-.14,.43-.38,.43c-.48,0-.79,.18-.99,.47-2.46,3.31-4.79,5.79-6.91,7.38-.24,0-.41-.07-.55-.29-.34-.47-.72-.83-1.06-1.12-.17-.18-.24-.32-.24-.43s.03-.18,.14-.25c.75-.4,1.47-.97,2.19-1.73,.99-.83,1.92-1.8,2.8-2.92,.75-1.08,1.44-2.2,2.02-3.38,.14-.29,.24-.43,.31-.43l2.22,1.55Zm20.11,14.22c.24,0,.38,.18,.38,.54v1.15c0,.36-.14,.54-.38,.54h-2.8v2.95h3.86c.27,0,.41,.22,.41,.58v1.12c0,.4-.14,.58-.41,.58h-3.86v6.48c0,1.76-1.4,2.66-4.14,2.66h-1.23c-.14,0-.21-.25-.21-.68-.07-.54-.24-1.15-.58-1.87v-.11c.62,.14,1.26,.25,1.88,.25,1.23,0,1.85-.43,1.85-1.26v-5.47h-13.34c-.27,0-.41-.18-.41-.58v-1.12c0-.36,.14-.58,.41-.58h13.34v-2.95h-12c-.27,0-.41-.18-.41-.54v-1.15c0-.36,.14-.54,.41-.54h17.23Zm-12.65,10.51c.65,.58,1.2,1.12,1.68,1.58,0,.04-.07,.14-.17,.29-.65,1.01-.99,1.55-1.03,1.55-.75-.76-1.5-1.44-2.33-2.05-.68-.5-1.23-.83-1.67-1.04,0-.14,.34-.65,1.06-1.58,.1-.14,.21-.25,.27-.25,.89,.54,1.61,1.04,2.19,1.51Zm11.04-25.41c.34,0,.51,.14,.51,.4v11.41c0,.29-.17,.43-.51,.43h-13.88c-.38,0-.55-.14-.55-.43v-11.27c0-.36,.17-.54,.55-.54h13.88Zm-1.88,4.89v-2.66h-10.16v2.66h10.16Zm0,5.08v-2.81h-10.16v2.81h10.16Z"/><path class="cls-1" d="M226.63,216.65c.27,.07,.44,.22,.44,.5,0,.36-.17,.5-.51,.5-.21,.07-.34,.25-.41,.47-.68,1.62-1.33,3.02-1.98,4.21h5.3c.34,0,.55,.14,.55,.43v23.9c0,.29-.21,.43-.55,.43h-1.33c-.34,0-.51-.14-.51-.43v-1.84h-7.21v2.81c0,.29-.21,.43-.55,.43h-1.33c-.38,0-.55-.14-.55-.43v-24.73c0-.36,.17-.58,.55-.58h3.08c.85-1.62,1.74-3.6,2.67-5.9,.07-.18,.21-.29,.41-.29l1.95,.5Zm.99,15.69v-7.74h-7.21v7.74h7.21Zm0,10.26v-8.03h-7.21v8.03h7.21Zm11.76-25.81c.24,.22,.38,.36,.38,.5,0,.22-.1,.32-.27,.4-.27,0-.44,.14-.51,.43-.51,1.58-.96,2.84-1.37,3.82h8.45c.41,0,.65,.25,.65,.68,0,8.21-.14,13.86-.41,16.99-.27,2.81-.72,4.79-1.27,6.01-.48,1.04-1.09,1.69-1.85,1.98-.96,.4-2.22,.61-3.83,.61-1.44,0-2.19-.25-2.19-.72-.1-.61-.27-1.22-.48-1.8,0-.22,.03-.29,.14-.29l.27,.04c.65,.07,1.23,.11,1.74,.11,1.67,0,2.8-.25,3.42-.76,.68-.54,1.16-2.05,1.44-4.54,.38-2.59,.58-7.96,.62-16.09h-7.73c-.38,.76-.75,1.48-1.16,2.12-.65,.94-1.33,1.76-2.05,2.52-.31,0-.55-.04-.75-.11-.44-.18-.89-.36-1.3-.54-.17-.07-.24-.11-.24-.18,0-.14,.03-.25,.14-.32,1.09-1.12,2.12-2.48,3.01-4.14,.51-.94,.96-1.94,1.37-3.02,.41-1.12,.82-2.56,1.23-4.36,.07-.14,.17-.25,.27-.25l2.29,.9Zm-2.94,13.86c1.26,2.2,2.43,4.54,3.45,7.02,0,.36-.07,.54-.21,.58-.82,.58-1.47,.83-1.92,.83-1.16-2.99-2.22-5.47-3.21-7.45,0-.25,.48-.61,1.47-1.12,.21,0,.34,.07,.41,.14Z"/><path class="cls-1" d="M245.1,262.3c0,.25-.14,.43-.38,.54-.27,0-.44,.14-.51,.36-.48,1.58-.99,3.06-1.61,4.36-.62,1.26-1.26,2.34-1.95,3.28-.27,.32-.51,.61-.79,.9,.41,1.69,.82,3.1,1.27,4.18,.48,1.51,1.13,2.81,1.88,3.89,.48,.43,.89,.65,1.16,.65,.24,0,.55-.29,.89-.9,.41-.65,.82-1.62,1.27-2.92,.1,0,.24,.14,.38,.36,.27,.43,.62,.83,1.06,1.22,.27,.22,.41,.47,.41,.79-.62,1.44-1.2,2.56-1.71,3.38-.75,1.12-1.47,1.69-2.15,1.69-.34,0-.65-.11-.92-.25-.62-.36-1.2-.94-1.81-1.73-.79-.97-1.54-2.3-2.26-3.96-.55-1.37-1.06-2.88-1.47-4.5-.24,.18-.44,.36-.65,.5-.14,.07-.24,.11-.38,.11-.27,0-.48-.14-.62-.43-.27-.36-.55-.65-.82-.94-.21-.11-.31-.25-.31-.47,0-.07,.03-.11,.17-.18,.48-.22,.99-.54,1.5-.97,.17-.14,.34-.25,.48-.4-.41-2.09-.72-4.28-.92-6.55-.17-1.73-.31-3.92-.41-6.52h-13.75v10.4c0,3.17-.17,5.65-.51,7.49-.24,1.55-.68,3.1-1.3,4.61-.34,.94-.79,1.8-1.4,2.66-.17,0-.27-.04-.34-.07-.41-.4-.82-.72-1.26-.97-.1-.14-.14-.32-.14-.5,.48-.76,.96-1.8,1.4-3.13,.38-1.37,.65-2.81,.86-4.32,.17-1.58,.27-3.49,.27-5.76v-12.09c0-.36,.17-.58,.55-.58h15.56c-.03-1.01-.07-2.02-.07-3.1,0-.29,.07-.43,.27-.43l2.29,.22c.41,0,.65,.14,.65,.36,0,.29-.1,.5-.27,.58-.21,.11-.27,.43-.27,.97v1.4h6.16c.27,0,.41,.22,.41,.58v1.12c0,.4-.14,.58-.41,.58h-6.12c0,2.23,.07,4.18,.17,5.76,.14,1.8,.34,3.49,.62,5,.72-1.01,1.37-2.3,1.92-3.82,.41-1.04,.75-2.2,.96-3.46,.03-.18,.14-.29,.31-.29,1.78,.65,2.67,1.08,2.67,1.3Zm-20.45,14.04c.27,.14,.41,.29,.41,.43,0,.22-.07,.36-.17,.43-.17,0-.27,.18-.31,.47-.44,2.3-.85,4.03-1.26,5.29-.14,.29-.21,.43-.24,.43-.14,0-.31-.07-.51-.22-.41-.22-.79-.36-1.13-.5-.17-.07-.24-.14-.24-.14,0-.07,0-.18,.07-.29,.38-1.08,.68-2.05,.89-2.88,.27-1.08,.48-2.16,.65-3.24,.03-.29,.07-.47,.14-.47l1.71,.68Zm9.37-16.31c.17,0,.27,.14,.27,.43v1.12c0,.4-.1,.58-.27,.58h-10.02c-.21,0-.27-.18-.27-.58v-1.12c0-.29,.07-.43,.27-.43h10.02Zm-.79,4.21c.34,0,.51,.14,.51,.43v7.88c0,.29-.17,.43-.51,.43h-1.06c-.38,0-.55-.14-.55-.43v-.86h-5.47v1.01c0,.29-.21,.4-.55,.4h-1.06c-.38,0-.55-.11-.55-.4v-8.03c0-.29,.17-.43,.55-.43h8.69Zm-5.06,9.5c.24,.04,.38,.11,.38,.22,0,.25-.07,.4-.17,.43-.17,.04-.24,.18-.24,.4v5.51c0,1.04,.58,1.55,1.74,1.55h1.61c1.16,0,1.88-.14,2.12-.36,.27-.14,.65-.83,1.09-2.05,.27,.47,.68,.86,1.3,1.22,.27,.14,.45,.29,.45,.47-.62,1.48-1.06,2.3-1.37,2.45-.34,.32-.99,.5-1.98,.5h-3.49c-2.5,0-3.73-.79-3.73-2.38v-7.88c0-.18,.03-.29,.14-.29l2.15,.22Zm3.45-4v-3.53h-5.47v3.53h5.47Zm.31,5.65c.48,.5,.92,.97,1.3,1.37,0,.04-.07,.11-.17,.25-.68,.97-1.03,1.44-1.03,1.44-.55-.65-1.13-1.22-1.74-1.76-.48-.43-.89-.72-1.2-.9,0-.14,.31-.61,.92-1.48,.07-.14,.17-.22,.27-.22,.65,.47,1.2,.9,1.64,1.3Zm4.48,.29c.51,.5,.96,.97,1.37,1.37,0,.04-.07,.11-.17,.25-.68,.97-1.03,1.44-1.06,1.44-.55-.65-1.16-1.22-1.78-1.76-.55-.43-.96-.72-1.27-.94,0-.11,.31-.58,.92-1.44,.07-.14,.17-.22,.27-.22,.68,.47,1.23,.9,1.71,1.29Zm6.5-23.22c.58,.47,1.09,.86,1.54,1.22,0,.07-.07,.14-.17,.29-.68,.94-1.03,1.4-1.03,1.4-.65-.58-1.33-1.08-2.05-1.58-.58-.36-1.06-.65-1.44-.79,0-.14,.31-.61,.96-1.48,.07-.14,.17-.22,.24-.22,.79,.43,1.44,.83,1.95,1.15Z"/><path class="cls-1" d="M220.68,295.34c0,.25-.14,.43-.41,.54-.21,.22-.31,.5-.31,.83-.17,2.59-.38,4.75-.62,6.41-.14,.94-.31,1.87-.51,2.84-.07,.22-.14,.32-.17,.32-.75-.22-1.44-.4-1.98-.5-.21-.04-.27-.14-.27-.32,.31-1.22,.58-2.56,.86-4.07,.24-1.44,.44-3.6,.58-6.44,0-.29,.07-.47,.27-.47,1.71,.36,2.56,.65,2.56,.86Zm3.73-6.77c0,.32-.14,.5-.34,.54-.24,.04-.34,.29-.34,.72v30.38c0,.29-.17,.43-.51,.43h-1.33c-.38,0-.55-.14-.55-.43v-31.64c0-.29,.17-.43,.55-.43,1.68,0,2.53,.14,2.53,.43Zm2.53,6.05c.68,2.02,1.3,4.18,1.88,6.48,0,.36-.1,.54-.24,.54-.82,.58-1.44,.86-1.92,.86-.58-2.74-1.13-5.04-1.61-6.91,0-.22,.48-.61,1.47-1.12,.21,0,.34,.07,.41,.14Zm18.98-5.62c.27,0,.41,.18,.41,.54v1.15c0,.36-.14,.54-.41,.54h-7.25l-1.03,3.96h6.53c.34,0,.55,.14,.55,.4v8.17h2.67c.27,0,.41,.22,.41,.58v1.12c0,.36-.14,.54-.41,.54h-19.77c-.27,0-.41-.18-.41-.54v-1.12c0-.36,.14-.58,.41-.58h5.4l1.64-6.33h-4.65c-.27,0-.41-.18-.41-.54v-1.15c0-.36,.14-.54,.41-.54h5.23l1.03-3.96h-7.45c-.27,0-.41-.18-.41-.54v-1.15c0-.36,.14-.54,.41-.54h17.1Zm-1.06,20.66c.34,0,.51,.14,.51,.43v10.11c0,.29-.17,.43-.51,.43h-1.33c-.38,0-.55-.14-.55-.43v-1.26h-10.7v1.26c0,.29-.17,.43-.51,.43h-1.33c-.38,0-.55-.14-.55-.43v-9.97c0-.36,.17-.58,.55-.58h14.43Zm-1.88,7.02v-4.75h-10.7v4.75h10.7Zm-.68-12.92v-6.33h-5.23l-1.64,6.33h6.87Z"/><path class="cls-1" d="M233.44,342.75c-.55,1.01-1.26,1.87-2.19,2.52l-.89-1.04c1.37-1.04,2.12-2.41,2.29-4.1h-2.53v-4.32h4.1v3.96c0,1.01-.27,1.98-.79,2.99Z"/><path class="cls-1" d="M154.33,5.79c.58-1.58,1.03-3.31,1.37-5.18,.07-.29,.21-.47,.44-.47,1.95,.72,2.94,1.19,2.94,1.4s-.14,.36-.38,.43c-.41,0-.65,.22-.79,.58-.31,1.15-.65,2.23-.99,3.24h17.27c.24,0,.38,.14,.38,.4v1.4c0,.4-.14,.58-.38,.58h-18.16c-.24,.58-.48,1.08-.68,1.58-.79,1.62-1.57,3.06-2.39,4.36v18.11c0,.29-.24,.43-.68,.43h-1.33c-.38,0-.55-.14-.55-.43v-14.9c-1.13,1.22-2.36,2.34-3.69,3.35-.21,.14-.38,.18-.58,.18-.27,0-.48-.14-.62-.43-.24-.36-.51-.65-.82-.94-.21-.11-.27-.25-.27-.47,0-.11,.07-.22,.24-.29,.82-.36,1.61-.9,2.39-1.62,1.33-1.08,2.53-2.34,3.59-3.85,1.03-1.37,1.98-3.06,2.8-5.08h-7.45c-.27,0-.38-.18-.38-.58v-1.4c0-.25,.1-.4,.38-.4h8.34Zm9.16,11.52v-5.62c0-.29,.17-.43,.55-.43,1.78,0,2.67,.14,2.67,.43,0,.32-.14,.5-.34,.5-.24,.07-.34,.32-.34,.76v4.36h6.84c.24,0,.38,.22,.38,.58v1.4c0,.36-.14,.54-.38,.54h-6.84v9.57h8.17c.24,0,.38,.18,.38,.58v1.12c0,.36-.14,.54-.38,.54h-18.84c-.27,0-.41-.18-.41-.54v-1.12c0-.4,.14-.58,.41-.58h8.14v-9.57h-7.08c-.27,0-.41-.18-.41-.54v-1.4c0-.36,.14-.58,.41-.58h7.08Z"/><path class="cls-1" d="M175.12,50.36c.27,0,.41,.25,.41,.68v1.44c0,.47-.14,.68-.41,.68h-29.92c-.27,0-.41-.22-.41-.68v-1.44c0-.43,.14-.68,.41-.68h29.92Z"/><path class="cls-1" d="M156.69,83.55c0,.22-.1,.32-.24,.32-.38,.04-.62,.14-.68,.36-.82,1.58-1.64,2.99-2.43,4.14v15.84c0,.29-.17,.43-.51,.43h-1.33c-.38,0-.55-.14-.55-.43v-12.89c-.07,.07-.14,.14-.14,.14-.92,1.01-2.5,2.45-4.68,4.32-.24,0-.44-.11-.65-.32-.31-.25-.65-.54-.99-.83-.14-.11-.21-.25-.21-.4,1.13-.94,2.29-1.94,3.45-3.02,1.5-1.37,2.8-2.92,3.9-4.64,.96-1.51,1.71-2.99,2.26-4.43,0-.18,.07-.29,.14-.29,1.78,.94,2.67,1.51,2.67,1.69Zm-2.8-8.57v-2.84c0-.25,.17-.4,.55-.4,1.68,0,2.53,.14,2.53,.4,0,.36-.14,.54-.34,.54-.24,.04-.34,.29-.34,.76v1.55h8.28v-2.84c0-.25,.17-.4,.55-.4,1.68,0,2.53,.14,2.53,.4,0,.36-.14,.54-.34,.54-.21,.04-.31,.29-.31,.76v1.55h8.27c.27,0,.41,.18,.41,.54v1.12c0,.4-.14,.58-.41,.58h-8.27v3.24c0,.29-.21,.43-.55,.43h-1.33c-.38,0-.55-.14-.55-.43v-3.24h-8.28v3.1c0,.29-.17,.43-.51,.43h-1.33c-.38,0-.55-.14-.55-.43v-3.1h-8.69c-.27,0-.41-.18-.41-.58v-1.12c0-.36,.14-.54,.41-.54h8.69Zm20.11,13.68c-.82,.61-1.74,1.15-2.77,1.66-1.27,.65-2.6,1.19-4.04,1.62-.99,.36-2.22,.68-3.69,.97v7.09c0,1.04,.62,1.55,1.88,1.55h5.2c1.3,0,2.05-.22,2.33-.72,.31-.36,.68-1.8,1.16-4.36,.27,.5,.75,.94,1.4,1.33,.27,.14,.44,.29,.44,.5-.62,2.84-1.09,4.39-1.44,4.68-.34,.61-1.06,.94-2.15,.94h-7.21c-2.67,0-4-.86-4-2.52v-18.14c0-.29,.07-.43,.27-.43l2.26,.32c.27,.07,.41,.14,.41,.25,0,.25-.1,.4-.24,.43-.21,.04-.31,.18-.31,.4v6.26c1.23-.29,2.39-.65,3.49-1.04,1.37-.47,2.63-1.08,3.83-1.8,.89-.5,1.68-1.12,2.39-1.84,.03,0,.1-.04,.17-.04,.14,0,.24,.14,.38,.36,.99,1.37,1.5,2.09,1.5,2.2,0,.29-.1,.4-.27,.4l-.79-.14c-.07,0-.14,.04-.21,.07Z"/><path class="cls-1" d="M175.12,122.36c.27,0,.41,.25,.41,.68v1.44c0,.47-.14,.68-.41,.68h-29.92c-.27,0-.41-.22-.41-.68v-1.44c0-.43,.14-.68,.41-.68h29.92Z"/><path class="cls-1" d="M153.88,146.84v-2.27c0-.29,.17-.43,.55-.43,1.68,0,2.53,.14,2.53,.43,0,.32-.14,.5-.34,.54-.24,.04-.34,.29-.34,.72v1.01h8.17v-2.27c0-.29,.17-.43,.51-.43,1.68,0,2.53,.14,2.53,.43,0,.32-.1,.5-.31,.54-.24,.04-.34,.29-.34,.72v1.01h8.27c.27,0,.41,.18,.41,.54v1.12c0,.4-.14,.58-.41,.58h-8.27v2.12c0,.29-.21,.4-.55,.4h-1.33c-.34,0-.51-.11-.51-.4v-2.12h-8.17v2.12c0,.29-.17,.4-.51,.4h-1.33c-.38,0-.55-.11-.55-.4v-2.12h-9.1c-.27,0-.38-.18-.38-.58v-1.12c0-.36,.1-.54,.38-.54h9.1Zm15.76,6.16c.34,0,.51,.14,.51,.43v11.95c0,.29-.17,.43-.51,.43h-8.28v3.1h13.75c.27,0,.41,.22,.41,.58v1.12c0,.36-.14,.54-.41,.54h-13.75v5.36c0,.29-.21,.43-.55,.43h-1.33c-.38,0-.55-.14-.55-.43v-5.36h-13.75c-.27,0-.41-.18-.41-.54v-1.12c0-.36,.14-.58,.41-.58h13.75v-3.1h-8.28c-.34,0-.51-.14-.51-.43v-11.95c0-.29,.17-.43,.51-.43h18.98Zm-1.88,5.22v-2.95h-15.22v2.95h15.22Zm0,2.27h-15.22v3.06h15.22v-3.06Z"/><path class="cls-1" d="M175.12,194.36c.27,0,.41,.25,.41,.68v1.44c0,.47-.14,.68-.41,.68h-29.92c-.27,0-.41-.22-.41-.68v-1.44c0-.43,.14-.68,.41-.68h29.92Z"/><path class="cls-1" d="M148.55,223.6v-7.31c0-.25,.17-.4,.51-.4,1.71,0,2.57,.14,2.57,.4,0,.32-.14,.5-.34,.54-.24,.04-.34,.29-.34,.72v6.05h2.67c.27,0,.41,.22,.41,.58v1.12c0,.4-.14,.58-.41,.58h-2.36c.41,1.37,.75,2.45,1.09,3.24,.44,1.19,1.2,2.52,2.29,4,.1,.11,.17,.22,.17,.36,0,.07-.1,.18-.24,.29-.21,.29-.51,.61-.89,.97-.14,.22-.27,.29-.34,.29-.1,0-.21-.07-.31-.25-.75-1.08-1.4-2.38-1.95-3.82-.07-.14-.1-.25-.14-.4v17.53c0,.29-.21,.43-.55,.43h-1.33c-.34,0-.51-.14-.51-.43v-15.84c-.27,.97-.58,1.83-.85,2.63-.44,1.33-.96,2.56-1.57,3.64-.24,0-.41-.04-.51-.14-.44-.22-.89-.43-1.33-.65-.21,0-.27-.04-.27-.18,.82-1.44,1.5-2.84,2.02-4.21,.51-1.3,.92-2.56,1.23-3.78,.21-.79,.44-2.02,.75-3.67h-2.8c-.27,0-.41-.18-.41-.58v-1.12c0-.36,.14-.58,.41-.58h3.35Zm9.78,18.83c.27,.72,.48,1.44,.68,2.16,.1,0,.21,0,.27-.04,.68-.07,1.33-.18,2.02-.32,.27-.68,.51-1.4,.79-2.12,.34-1.22,.62-2.27,.79-3.17,.03-.07,.07-.14,.1-.14l2.33,.79c.21,.14,.34,.25,.34,.36,0,.07-.07,.11-.17,.11-.17,.04-.27,.07-.31,.14-.24,.79-.58,1.69-.99,2.66-.14,.32-.27,.61-.41,.9,.68-.14,1.4-.29,2.09-.43,.03,0,.1-.04,.17-.04,.17,0,.27,.11,.27,.29,0,1.04-.07,1.62-.14,1.69-3.59,.72-7.25,1.37-10.94,1.98-.27,.54-.51,.83-.68,.83-.21,0-.58-.9-1.2-2.66,1.06-.07,2.26-.25,3.56-.47-.1-.4-.24-.83-.38-1.33-.34-1.08-.79-2.2-1.3-3.28,0-.14,.58-.5,1.74-1.12,.55,1.15,1.03,2.23,1.37,3.2Zm.48-22.89v-3.1c0-.29,.17-.43,.55-.43,1.68,0,2.53,.14,2.53,.43,0,.32-.1,.5-.31,.54-.24,.04-.34,.29-.34,.72v1.84h4.27c.17,0,.27,.14,.27,.43v1.12c0,.4-.1,.58-.27,.58h-4.27v3.1h3.73c.17,0,.27,.14,.27,.4v1.15c0,.36-.1,.54-.27,.54h-9.88c-.21,0-.27-.18-.27-.54v-1.15c0-.25,.07-.4,.27-.4h3.73v-3.1h-4.27c-.17,0-.24-.18-.24-.58v-1.12c0-.29,.07-.43,.24-.43h4.27Zm5.23,9.72c.34,0,.51,.14,.51,.4v7.59c0,.29-.17,.43-.51,.43h-8.04c-.34,0-.51-.14-.51-.43v-7.59c0-.25,.17-.4,.51-.4h8.04Zm-1.74,1.94h-4.55v4.5h4.55v-4.5Zm7.45,2.45c.41,.94,.79,1.91,1.09,2.92,0,.07-.68,.32-2.02,.68-.14-.65-.38-1.48-.79-2.45-.44-1.08-1.03-2.2-1.74-3.31,0-.14,.58-.5,1.74-1.12,.68,1.19,1.27,2.27,1.71,3.28Zm1.64-9.75v-5.76c0-.68-.03-1.22-.07-1.58-.07-.25-.07-.47-.07-.65,0-.07,.17-.14,.51-.14l2.6,.36c.21,.14,.34,.25,.34,.32,0,.22-.14,.29-.38,.29-.48,.22-.68,.72-.68,1.55v5.62h1.61c.27,0,.41,.22,.41,.58v1.12c0,.4-.14,.58-.41,.58h-1.61v19.94c0,1.58-1.13,2.41-3.35,2.41h-1.85c-.17,0-.24-.22-.24-.58-.1-.43-.31-.97-.58-1.55,0-.22,.07-.29,.27-.29,.79,.18,1.5,.29,2.15,.29,.89,0,1.33-.4,1.33-1.12v-19.11h-4.41c-.27,0-.41-.18-.41-.58v-1.12c0-.36,.14-.58,.41-.58h4.41Z"/><path class="cls-1" d="M175.12,266.36c.27,0,.41,.25,.41,.68v1.44c0,.47-.14,.68-.41,.68h-29.92c-.27,0-.41-.22-.41-.68v-1.44c0-.43,.14-.68,.41-.68h29.92Z"/><path class="cls-1" d="M159.35,294.91v-6.62c0-.25,.17-.4,.55-.4,1.78,0,2.67,.14,2.67,.4,0,.32-.14,.5-.34,.54-.24,.04-.34,.29-.34,.72v5.36h13.1c.27,0,.41,.14,.41,.43v1.4c0,.36-.14,.54-.41,.54h-12.96c1.5,2.95,2.87,5.18,4.07,6.77,1.33,2.02,2.98,3.82,4.89,5.47,1.57,1.37,3.18,2.41,4.82,3.1,0,.22-.14,.36-.38,.43-.51,.54-.96,1.04-1.3,1.51-.17,.22-.27,.32-.34,.32-2.46-1.51-4.41-3.13-5.92-4.82-1.78-1.8-3.25-3.71-4.45-5.8-.51-.76-1.03-1.62-1.54-2.59v18.54c0,.29-.24,.43-.65,.43h-1.33c-.38,0-.55-.14-.55-.43v-19.51c-1.09,1.8-2.09,3.31-2.91,4.46-1.47,1.98-3.04,3.82-4.68,5.47-1.95,1.87-3.86,3.42-5.78,4.64-.27,0-.48-.07-.62-.25-.48-.47-.96-.9-1.4-1.33-.07-.14-.1-.29-.1-.36,1.81-1.08,3.28-2.12,4.45-3.13,1.71-1.33,3.45-3.17,5.3-5.54,1.13-1.44,2.7-3.92,4.75-7.38h-13.03c-.27,0-.41-.18-.41-.54v-1.4c0-.29,.14-.43,.41-.43h14.02Z"/><path class="cls-1" d="M162.02,324.29c0,.36-.14,.58-.34,.61-.21,.04-.31,.29-.31,.79v4.79h9.47c.41,0,.65,.07,.72,.14,.48,.36,.75,.76,.75,1.12-1.3,2.59-2.84,5-4.58,7.24-2.05,2.63-4.48,5.08-7.28,7.38-1.61,1.4-3.39,2.7-5.37,3.92,.89,.43,1.85,.79,2.91,1.08,1.64,.5,3.32,.83,5.03,1.01,1.74,.22,4.62,.32,8.62,.32,.99,0,2.26-.11,3.76-.4,.17,0,.27,.14,.27,.4-.48,.76-.86,1.51-1.06,2.3-.07,.32-.24,.5-.55,.5-3.42,0-6.57-.11-9.44-.25-2.36-.18-4.45-.47-6.26-.9-2.39-.65-4.34-1.58-5.92-2.92-1.09-.86-1.92-1.76-2.46-2.66-.21,.79-.48,1.51-.79,2.16-.55,1.3-1.44,2.88-2.67,4.86-.21-.07-.38-.14-.51-.29-.48-.4-.99-.79-1.54-1.19-.14-.14-.21-.32-.21-.47,.89-1.08,1.74-2.3,2.53-3.74,.82-1.51,1.5-3.28,2.12-5.25,.1-.07,.27-.14,.48-.14h1.4c.27,0,.41,.11,.41,.29,.07,1.37,.41,2.38,.96,3.06,.17,.25,.34,.47,.55,.61,2.09-1.26,3.9-2.48,5.4-3.71,2.87-2.38,5.44-4.97,7.66-7.77,1.23-1.51,2.22-2.95,3.04-4.28h-21.1c-.27,0-.38-.18-.38-.58v-1.4c0-.29,.1-.43,.38-.43h10.98v-6.19c0-.25,.21-.4,.65-.4,1.78,0,2.67,.14,2.67,.4Z"/><path class="cls-1" d="M158.02,361.15c.34,0,.55,.14,.55,.4v11.27c0,.4-.21,.58-.55,.58h-9.34v18.83c0,.29-.21,.43-.55,.43h-1.33c-.38,0-.55-.14-.55-.43v-30.67c0-.25,.17-.4,.55-.4h11.22Zm-1.88,5.04v-2.95h-7.46v2.95h7.46Zm0,5.08v-2.95h-7.46v2.95h7.46Zm9.75,4.36c.34,0,.55,.14,.55,.43v13.07c0,.29-.21,.43-.55,.43h-1.33c-.27,0-.38-.14-.38-.43v-.83h-8.41v.97c0,.29-.21,.43-.55,.43h-1.33c-.27,0-.41-.14-.41-.43v-13.21c0-.29,.14-.43,.41-.43h12Zm-1.71,5.22v-3.1h-8.41v3.1h8.41Zm0,5.33v-3.24h-8.41v3.24h8.41Zm9.06-25.02c.44,0,.68,.14,.68,.4v27.57c0,1.12-.51,2.02-1.54,2.66-.96,.5-2.15,.83-3.66,1.01-.27,0-.41-.14-.44-.43-.07-.5-.31-1.26-.79-2.27,0-.14,.1-.18,.31-.18,1.78,0,2.8-.14,3.15-.43,.38-.29,.58-.72,.58-1.37v-14.72h-9.51c-.34,0-.51-.18-.51-.58v-11.27c0-.25,.17-.4,.51-.4h11.22Zm-1.71,5.04v-2.95h-7.63v2.95h7.63Zm0,5.08v-2.95h-7.63v2.95h7.63Z"/><path class="cls-1" d="M153.85,397.19c.1,.22,.17,.36,.17,.36,0,.22-.17,.32-.51,.32-.51,0-.82,.14-.96,.4-1.2,1.94-2.33,3.71-3.35,5.29,.75,.68,1.47,1.37,2.19,2.09,.14-.18,.24-.36,.34-.5,1.23-1.8,2.26-3.42,3.08-4.9,1.61,1.37,2.43,2.09,2.43,2.23,0,.18-.14,.25-.41,.25-.51,0-.82,.11-.92,.25-1.98,3.02-3.9,5.79-5.81,8.31,1.27-.07,2.74-.14,4.41-.29-.31-.83-.65-1.66-1.03-2.48,0-.14,.58-.5,1.74-1.12,.62,1.37,1.09,2.63,1.47,3.78,.34,1.08,.65,2.2,.92,3.38,0,.11-.68,.36-1.98,.72-.14-.79-.34-1.69-.65-2.74l-2.43,.5v15.15c0,.29-.21,.43-.55,.43h-1.33c-.34,0-.51-.14-.51-.43v-14.69l-3.9,.76c-.55,.68-.85,1.01-.92,1.01-.1,0-.34-1.12-.68-3.38,0-.07,.86-.18,2.57-.36,1.26-1.73,2.36-3.24,3.25-4.54-1.23-1.01-2.12-1.73-2.74-2.16-.96-.61-1.98-1.15-3.08-1.66,0-.22,.45-.79,1.33-1.76,.07-.14,.17-.22,.27-.22,.44,.32,.89,.65,1.37,1.01,.65-.97,1.23-1.91,1.74-2.84,.89-1.62,1.57-2.84,1.98-3.64l2.5,1.44Zm-5.03,19.87c.14,.04,.24,.14,.24,.32,0,.14-.17,.36-.51,.58-.41,2.63-.75,4.54-1.03,5.76-.27,1.15-.62,2.27-.99,3.38-.24,0-.44-.07-.58-.18-.34-.18-.72-.32-1.13-.4-.14-.07-.17-.18-.17-.29,.14-.29,.24-.65,.38-1.04,.31-.86,.58-1.8,.82-2.81,.17-.94,.34-2.12,.51-3.49,.1-.76,.17-1.55,.17-2.34,0-.07,.03-.14,.14-.14l2.15,.65Zm7.08-.36c.38,1.3,.82,3.42,1.33,6.3,0,.29-.68,.5-2.02,.72-.21,0-.27-.07-.27-.25-.21-2.02-.51-4.14-.92-6.37,0-.22,.58-.43,1.74-.68,.07,0,.1,.11,.14,.29Zm18.91-16.23c.27,.14,.44,.29,.44,.47s-.14,.29-.34,.36c-.31,0-.48,.14-.55,.4-.82,1.87-1.64,3.35-2.43,4.39-.07,.11-.14,.18-.17,.22h2.29c.24,0,.38,.18,.38,.54v1.15c0,.36-.14,.54-.38,.54h-8.92c-.14,1.08-.24,2.12-.38,3.1h10.36c.27,0,.41,.22,.41,.58v1.12c0,.4-.14,.58-.41,.58h-10.77c-.17,1.01-.34,1.87-.51,2.66h8.75c.21,0,.41,.07,.55,.18,.41,.5,.65,.83,.65,.94-.55,1.55-1.06,2.74-1.54,3.56-.58,1.08-1.16,1.94-1.78,2.59-.24,.29-.48,.5-.72,.72,.51,.29,1.13,.58,1.81,.83,.99,.43,2.29,.79,3.93,1.15,.21,.04,.31,.07,.31,.14,0,.14-.07,.25-.17,.4-.41,.36-.82,.76-1.23,1.26-.14,.22-.27,.32-.34,.32s-.24-.07-.51-.18c-.75-.22-1.61-.5-2.5-.83-1.09-.47-2.12-.97-3.01-1.51-.07-.07-.14-.11-.17-.11-.96,.65-2.02,1.19-3.11,1.62-.86,.36-1.95,.72-3.25,1.01-.31,0-.51-.11-.62-.29-.24-.36-.48-.72-.72-1.08-.1-.14-.14-.25-.14-.32,0-.11,.04-.18,.14-.18,.82-.18,1.64-.4,2.43-.61,1.37-.43,2.53-.94,3.49-1.58-.21-.14-.34-.32-.48-.47-.82-.76-1.4-1.55-1.74-2.41-.38-.58-.68-1.26-.96-2.05-.27,.79-.58,1.48-.89,2.05-.55,1.08-1.2,2.09-1.91,3.02-.92,1.15-2.02,2.23-3.28,3.2-.24,0-.38-.07-.38-.22-.31-.43-.65-.94-.99-1.58-.17-.14-.24-.29-.24-.43,.21,0,.55-.22,.96-.58,.51-.32,1.09-.79,1.71-1.4,.79-.94,1.47-1.94,2.05-2.99,.51-1.12,.92-2.12,1.2-2.99,.34-1.12,.65-2.41,.92-3.85h-3.62c-.27,0-.41-.18-.41-.58v-1.12c0-.36,.14-.58,.41-.58h4.04c.14-.9,.27-1.94,.41-3.1h-3.39c-.27,0-.41-.18-.41-.54v-1.15c0-.36,.14-.54,.41-.54h11.66c-.07,0-.14-.04-.17-.11-.44-.22-.85-.4-1.23-.58-.17-.07-.24-.11-.24-.18s.03-.14,.14-.25c.75-.9,1.33-1.69,1.74-2.41,.58-.9,1.03-1.8,1.3-2.7,.07-.25,.17-.4,.31-.4l1.81,.79Zm-1.81-2.27c-1.78,.61-3.73,1.08-5.88,1.4-2.56,.36-5.2,.5-7.9,.5-.38,0-.62-.11-.68-.4-.07-.4-.21-.83-.41-1.26-.07-.14-.1-.29-.1-.47,3.38,0,6.05-.14,7.97-.43,2.33-.25,4.41-.76,6.29-1.51,.21-.07,.41-.14,.58-.14,.1,0,.24,.07,.38,.18,1.06,1.01,1.61,1.62,1.61,1.91,0,.4-.14,.58-.41,.58l-.79-.43c-.24,0-.44,.04-.65,.07Zm-11.25,4.9c.31,.65,.58,1.33,.82,2.05,0,.11-.68,.36-2.02,.72-.1-.43-.31-1.01-.58-1.66-.34-.76-.75-1.51-1.26-2.27,0-.14,.55-.54,1.71-1.15,.55,.86,.99,1.62,1.33,2.3Zm5.27-.32c.27,.65,.55,1.37,.75,2.12,0,.07-.68,.32-1.98,.68-.1-.43-.31-1.01-.58-1.73-.31-.76-.68-1.55-1.16-2.34,0-.14,.58-.54,1.74-1.12,.48,.86,.89,1.66,1.23,2.38Zm-1.85,17.21c.41,.86,.96,1.62,1.64,2.34,.31,.36,.65,.68,1.03,.94,.34-.29,.65-.58,.92-.9,.62-.72,1.16-1.55,1.61-2.48,.21-.36,.41-.83,.62-1.37h-6.39c.17,.58,.38,1.08,.58,1.48Z"/><path class="cls-1" d="M153.85,433.19c.1,.22,.17,.36,.17,.36,0,.22-.17,.32-.51,.32-.51,0-.82,.14-.96,.4-1.2,1.94-2.33,3.71-3.35,5.29,.75,.68,1.47,1.37,2.19,2.09,.14-.18,.24-.36,.34-.5,1.23-1.8,2.26-3.42,3.08-4.9,1.61,1.37,2.43,2.09,2.43,2.23,0,.18-.14,.25-.41,.25-.51,0-.82,.11-.92,.25-1.98,3.02-3.9,5.79-5.81,8.31,1.27-.07,2.74-.14,4.41-.29-.31-.83-.65-1.66-1.03-2.48,0-.14,.58-.5,1.74-1.12,.62,1.37,1.09,2.63,1.47,3.78,.34,1.08,.65,2.2,.92,3.38,0,.11-.68,.36-1.98,.72-.14-.79-.34-1.69-.65-2.74l-2.43,.5v15.15c0,.29-.21,.43-.55,.43h-1.33c-.34,0-.51-.14-.51-.43v-14.69l-3.9,.76c-.55,.68-.85,1.01-.92,1.01-.1,0-.34-1.12-.68-3.38,0-.07,.86-.18,2.57-.36,1.26-1.73,2.36-3.24,3.25-4.54-1.23-1.01-2.12-1.73-2.74-2.16-.96-.61-1.98-1.15-3.08-1.66,0-.22,.45-.79,1.33-1.76,.07-.14,.17-.22,.27-.22,.44,.32,.89,.65,1.37,1.01,.65-.97,1.23-1.91,1.74-2.84,.89-1.62,1.57-2.84,1.98-3.64l2.5,1.44Zm-5.03,19.87c.14,.04,.24,.14,.24,.32,0,.14-.17,.36-.51,.58-.41,2.63-.75,4.54-1.03,5.76-.27,1.15-.62,2.27-.99,3.38-.24,0-.44-.07-.58-.18-.34-.18-.72-.32-1.13-.4-.14-.07-.17-.18-.17-.29,.14-.29,.24-.65,.38-1.04,.31-.86,.58-1.8,.82-2.81,.17-.94,.34-2.12,.51-3.49,.1-.76,.17-1.55,.17-2.34,0-.07,.03-.14,.14-.14l2.15,.65Zm7.08-.36c.38,1.3,.82,3.42,1.33,6.3,0,.29-.68,.5-2.02,.72-.21,0-.27-.07-.27-.25-.21-2.02-.51-4.14-.92-6.37,0-.22,.58-.43,1.74-.68,.07,0,.1,.11,.14,.29Zm18.91-16.23c.27,.14,.44,.29,.44,.47s-.14,.29-.34,.36c-.31,0-.48,.14-.55,.4-.82,1.87-1.64,3.35-2.43,4.39-.07,.11-.14,.18-.17,.22h2.29c.24,0,.38,.18,.38,.54v1.15c0,.36-.14,.54-.38,.54h-8.92c-.14,1.08-.24,2.12-.38,3.1h10.36c.27,0,.41,.22,.41,.58v1.12c0,.4-.14,.58-.41,.58h-10.77c-.17,1.01-.34,1.87-.51,2.66h8.75c.21,0,.41,.07,.55,.18,.41,.5,.65,.83,.65,.94-.55,1.55-1.06,2.74-1.54,3.56-.58,1.08-1.16,1.94-1.78,2.59-.24,.29-.48,.5-.72,.72,.51,.29,1.13,.58,1.81,.83,.99,.43,2.29,.79,3.93,1.15,.21,.04,.31,.07,.31,.14,0,.14-.07,.25-.17,.4-.41,.36-.82,.76-1.23,1.26-.14,.22-.27,.32-.34,.32s-.24-.07-.51-.18c-.75-.22-1.61-.5-2.5-.83-1.09-.47-2.12-.97-3.01-1.51-.07-.07-.14-.11-.17-.11-.96,.65-2.02,1.19-3.11,1.62-.86,.36-1.95,.72-3.25,1.01-.31,0-.51-.11-.62-.29-.24-.36-.48-.72-.72-1.08-.1-.14-.14-.25-.14-.32,0-.11,.04-.18,.14-.18,.82-.18,1.64-.4,2.43-.61,1.37-.43,2.53-.94,3.49-1.58-.21-.14-.34-.32-.48-.47-.82-.76-1.4-1.55-1.74-2.41-.38-.58-.68-1.26-.96-2.05-.27,.79-.58,1.48-.89,2.05-.55,1.08-1.2,2.09-1.91,3.02-.92,1.15-2.02,2.23-3.28,3.2-.24,0-.38-.07-.38-.22-.31-.43-.65-.94-.99-1.58-.17-.14-.24-.29-.24-.43,.21,0,.55-.22,.96-.58,.51-.32,1.09-.79,1.71-1.4,.79-.94,1.47-1.94,2.05-2.99,.51-1.12,.92-2.12,1.2-2.99,.34-1.12,.65-2.41,.92-3.85h-3.62c-.27,0-.41-.18-.41-.58v-1.12c0-.36,.14-.58,.41-.58h4.04c.14-.9,.27-1.94,.41-3.1h-3.39c-.27,0-.41-.18-.41-.54v-1.15c0-.36,.14-.54,.41-.54h11.66c-.07,0-.14-.04-.17-.11-.44-.22-.85-.4-1.23-.58-.17-.07-.24-.11-.24-.18s.03-.14,.14-.25c.75-.9,1.33-1.69,1.74-2.41,.58-.9,1.03-1.8,1.3-2.7,.07-.25,.17-.4,.31-.4l1.81,.79Zm-1.81-2.27c-1.78,.61-3.73,1.08-5.88,1.4-2.56,.36-5.2,.5-7.9,.5-.38,0-.62-.11-.68-.4-.07-.4-.21-.83-.41-1.26-.07-.14-.1-.29-.1-.47,3.38,0,6.05-.14,7.97-.43,2.33-.25,4.41-.76,6.29-1.51,.21-.07,.41-.14,.58-.14,.1,0,.24,.07,.38,.18,1.06,1.01,1.61,1.62,1.61,1.91,0,.4-.14,.58-.41,.58l-.79-.43c-.24,0-.44,.04-.65,.07Zm-11.25,4.9c.31,.65,.58,1.33,.82,2.05,0,.11-.68,.36-2.02,.72-.1-.43-.31-1.01-.58-1.66-.34-.76-.75-1.51-1.26-2.27,0-.14,.55-.54,1.71-1.15,.55,.86,.99,1.62,1.33,2.3Zm5.27-.32c.27,.65,.55,1.37,.75,2.12,0,.07-.68,.32-1.98,.68-.1-.43-.31-1.01-.58-1.73-.31-.76-.68-1.55-1.16-2.34,0-.14,.58-.54,1.74-1.12,.48,.86,.89,1.66,1.23,2.38Zm-1.85,17.21c.41,.86,.96,1.62,1.64,2.34,.31,.36,.65,.68,1.03,.94,.34-.29,.65-.58,.92-.9,.62-.72,1.16-1.55,1.61-2.48,.21-.36,.41-.83,.62-1.37h-6.39c.17,.58,.38,1.08,.58,1.48Z"/><path class="cls-1" d="M149.88,480.24c0,2.74-.1,5.11-.27,7.06h7.08v-3.82h-4.68c-.27,0-.38-.18-.38-.54v-1.15c0-.36,.1-.54,.38-.54h4.68v-2.81c0-.29,.17-.43,.55-.43,1.68,0,2.53,.14,2.53,.43,0,.32-.14,.5-.34,.5-.24,.07-.34,.32-.34,.76v1.55h6.7v-2.81c0-.29,.17-.43,.51-.43,1.68,0,2.53,.14,2.53,.43,0,.32-.1,.5-.31,.5-.24,.07-.34,.32-.34,.76v1.55h5.2c.27,0,.41,.18,.41,.54v1.15c0,.36-.14,.54-.41,.54h-5.2v3.82h6.8c.27,0,.41,.18,.41,.54v1.15c0,.36-.14,.54-.41,.54h-10.87c.55,1.15,1.03,2.02,1.47,2.66,.62,.97,1.37,1.87,2.29,2.66,0,.04,.03,.07,.1,.07,1.37-1.08,2.56-2.12,3.59-3.13,.24-.18,.44-.29,.62-.29,.14,0,.31,.11,.48,.25,1.27,1.01,1.92,1.62,1.92,1.84,0,.29-.14,.43-.38,.43l-.82-.14c-.24,0-.48,.11-.75,.32-.85,.61-1.81,1.33-2.87,2.16,.21,.18,.44,.32,.65,.43,.75,.47,1.68,.9,2.7,1.33,.48,.14,1.06,.29,1.74,.5,.17,0,.27,.04,.27,.18,0,.18-.1,.36-.31,.54-.34,.43-.65,.83-.99,1.26-.14,.22-.34,.32-.58,.32-1.61-.58-3.01-1.26-4.21-2.05-1.13-.76-2.02-1.44-2.67-2.09-.92-.86-1.71-1.84-2.39-2.88-.75-1.15-1.5-2.63-2.26-4.39h-4.38v7.42c2.09-.36,4.07-.76,5.95-1.19,.07,0,.14-.04,.21-.04,.17,0,.27,.11,.27,.29,0,1.22-.07,1.83-.14,1.98-3.69,.72-7.45,1.37-11.22,1.94-.34,.65-.58,1.01-.79,1.01-.24,0-.68-1.01-1.37-2.95,1.33-.14,2.91-.36,4.68-.65v-7.81h-5.57c-.07,.36-.1,.72-.14,1.01-.27,2.12-.82,4.25-1.61,6.33-.41,1.22-.99,2.45-1.74,3.64-.17,0-.31-.04-.38-.07-.38-.4-.79-.72-1.23-.97-.1-.14-.14-.32-.14-.5,.65-1.08,1.27-2.52,1.81-4.39,.51-1.94,.89-4,1.16-6.16,.21-2.23,.34-4.93,.34-8.17v-10.69c0-.36,.17-.54,.55-.54h25c.34,0,.51,.14,.51,.43v6.88c0,.4-.17,.58-.51,.58h-23.12v3.35Zm0-5.62h21.24v-3.38h-21.24v3.38Zm15.9,12.67v-3.82h-6.7v3.82h6.7Z"/><path class="cls-1" d="M158.02,505.15c.34,0,.55,.14,.55,.4v11.27c0,.4-.21,.58-.55,.58h-9.34v18.83c0,.29-.21,.43-.55,.43h-1.33c-.38,0-.55-.14-.55-.43v-30.67c0-.25,.17-.4,.55-.4h11.22Zm-1.88,5.04v-2.95h-7.46v2.95h7.46Zm0,5.08v-2.95h-7.46v2.95h7.46Zm11.49,4.93c.17,0,.27,.14,.27,.4v1.15c0,.36-.1,.54-.27,.54h-3.08v4.21h4.68c.17,0,.27,.14,.27,.43v1.12c0,.4-.1,.58-.27,.58h-4.68v7.16c0,.29-.17,.43-.51,.43h-1.33c-.27,0-.41-.14-.41-.43v-7.16h-4.27c-.1,.68-.24,1.33-.41,1.91-.41,1.4-1.16,2.63-2.33,3.67-.75,.72-1.74,1.44-3.01,2.16-.27,0-.48-.07-.62-.22-.31-.43-.62-.83-.89-1.15-.17-.18-.24-.32-.24-.47,2.46-1.3,4.07-2.88,4.82-4.72,.14-.36,.24-.76,.31-1.19h-4.45c-.21,0-.27-.18-.27-.58v-1.12c0-.29,.07-.43,.27-.43h4.75c0-.4,.03-.79,.03-1.15v-3.06h-3.18c-.21,0-.27-.18-.27-.54v-1.15c0-.25,.07-.4,.27-.4h14.81Zm-5.33,2.09h-4v3.02c0,.43-.03,.83-.03,1.19h4.04v-4.21Zm10.8-17.13c.45,0,.68,.14,.68,.4v27.32c0,1.12-.55,2.02-1.64,2.66-1.03,.47-2.33,.79-3.97,.97-.27,0-.41-.14-.44-.43-.03-.5-.27-1.26-.75-2.23,0-.14,.1-.22,.31-.22,1.95,0,3.11-.14,3.45-.43,.41-.29,.65-.72,.65-1.37v-14.58h-9.1c-.38,0-.55-.18-.55-.58v-11.12c0-.25,.17-.4,.55-.4h10.8Zm-1.71,5.04v-2.95h-7.22v2.95h7.22Zm0,4.93v-2.81h-7.22v2.81h7.22Z"/><path class="cls-1" d="M161.44,558.75c-.55,1.01-1.26,1.87-2.19,2.52l-.89-1.04c1.37-1.04,2.12-2.41,2.29-4.1h-2.53v-4.32h4.1v3.96c0,1.01-.27,1.98-.79,2.99Z"/><path class="cls-1" d="M87.22,6.62V.58c0-.29,.17-.43,.55-.43,1.78,0,2.67,.14,2.67,.43,0,.32-.14,.5-.34,.54-.24,.04-.34,.29-.34,.72V6.62h11.49c.44,0,.68,.14,.68,.43V23.36c0,.29-.24,.43-.68,.43h-1.33c-.34,0-.51-.14-.51-.43v-2.66h-9.64v11.66c0,.29-.24,.43-.65,.43h-1.33c-.38,0-.55-.14-.55-.43v-11.66h-10.29v2.52c0,.29-.24,.43-.65,.43h-1.33c-.38,0-.55-.14-.55-.43V7.2c0-.36,.17-.58,.55-.58h12.28Zm0,11.52V9.14h-10.29v9h10.29Zm2.53,0h9.64V9.14h-9.64v9Z"/><path class="cls-1" d="M81.33,40.5v4.93h4.96c.27,0,.41,.22,.41,.58v1.12c0,.4-.14,.58-.41,.58h-4.51c.89,1.94,1.64,3.28,2.22,4.07,.89,1.33,1.95,2.56,3.21,3.67,0,.25-.1,.43-.24,.54-.34,.32-.79,.76-1.37,1.26-.07,0-.14-.04-.21-.14-.72-.61-1.4-1.44-2.09-2.48-.62-.94-1.26-2.16-1.98-3.67v17.28c0,.29-.17,.43-.51,.43h-1.33c-.38,0-.55-.14-.55-.43v-15.08c-.62,1.33-1.3,2.52-1.98,3.6-.75,1.3-1.67,2.52-2.7,3.6-.27,0-.44-.04-.58-.18-.51-.22-1.03-.47-1.5-.76-.21,0-.31-.04-.31-.18,1.37-1.4,2.5-2.81,3.39-4.17,.82-1.26,1.5-2.52,1.98-3.74,.34-.79,.79-1.98,1.26-3.6h-5.44c-.27,0-.41-.18-.41-.58v-1.12c0-.36,.14-.58,.41-.58h5.88v-4.32c-1.71,.36-3.38,.54-5.06,.54-.34,0-.55-.14-.62-.47-.27-.58-.51-1.01-.75-1.37,0-.36,.14-.58,.41-.58,2.94,0,5.03-.14,6.29-.5,1.98-.32,3.73-1.12,5.23-2.38,.14-.14,.31-.22,.51-.22,.1,0,.24,.11,.44,.29,.92,1.15,1.4,1.76,1.4,1.84,0,.29-.1,.43-.24,.43l-.96-.14c-1.16,.79-2.6,1.44-4.27,1.94Zm22.33,13.93v1.4c0,.4-.14,.58-.41,.58l-3.21,.9v10.91c0,.29-.17,.43-.51,.43h-1.37c-.34,0-.51-.14-.51-.43v-10.26l-10.02,2.81c-.27,0-.41-.18-.41-.58v-1.4c0-.36,.14-.54,.41-.54l10.02-2.81v-18.86c0-.29,.17-.43,.51-.43,1.71,0,2.56,.14,2.56,.43,0,.32-.14,.5-.34,.54-.24,.04-.34,.29-.34,.72v16.95l3.21-.9c.27,0,.41,.18,.41,.54Zm-10.74-4.82c.96,.76,1.74,1.44,2.43,2.02,0,.07-.07,.14-.14,.29-.68,1.04-1.03,1.55-1.06,1.55-1.06-.94-2.19-1.8-3.35-2.59-.96-.65-1.78-1.08-2.39-1.37,0-.11,.34-.61,1.06-1.55,.1-.14,.21-.25,.27-.25,1.3,.68,2.36,1.33,3.18,1.91Zm.58-9.07c.92,.83,1.71,1.58,2.39,2.23,0,.04-.07,.14-.17,.29-.68,1.04-1.03,1.55-1.03,1.55-1.03-1.04-2.12-2.02-3.28-2.88-.96-.68-1.71-1.19-2.33-1.48,0-.14,.34-.65,1.06-1.58,.07-.14,.17-.25,.27-.25,1.23,.79,2.26,1.48,3.08,2.12Z"/><path class="cls-1" d="M86.81,72.86c.34,0,.55,.14,.55,.43v11.52c0,.4-.21,.58-.55,.58h-10.26v18.97c0,.29-.21,.43-.55,.43h-1.33c-.38,0-.55-.14-.55-.43v-31.06c0-.29,.17-.43,.55-.43h12.14Zm-1.85,5.18v-3.06h-8.41v3.06h8.41Zm0,5.22v-3.1h-8.41v3.1h8.41Zm16.14-10.4c.45,0,.68,.14,.68,.43v27.79c0,1.15-.51,2.05-1.54,2.7-.99,.5-2.26,.83-3.8,1.01-.27,0-.41-.14-.44-.43-.03-.5-.27-1.26-.75-2.27,0-.14,.1-.22,.31-.22,1.81,0,2.91-.14,3.25-.43,.38-.25,.58-.72,.58-1.37v-14.69h-9.37c-.34,0-.51-.18-.51-.58v-11.52c0-.29,.17-.43,.51-.43h11.08Zm-1.71,5.18v-3.06h-7.49v3.06h7.49Zm0,5.22v-3.1h-7.49v3.1h7.49Z"/><path class="cls-1" d="M99.56,110.34c-2.46,.72-5.23,1.26-8.28,1.58-3.49,.4-7.04,.58-10.74,.58v3.67h20.31c.34,0,.51,.14,.51,.43v13.07c0,.29-.17,.43-.51,.43h-1.33c-.38,0-.55-.14-.55-.43v-1.98h-18.46c-.14,2.34-.44,4.25-.92,5.76-.45,1.62-1.27,3.24-2.46,4.82-.65,.94-1.57,1.87-2.74,2.77-.17,0-.27-.04-.34-.07-.38-.36-.79-.68-1.23-.97-.14-.14-.17-.29-.17-.5,1.09-.79,2.12-1.87,3.01-3.24,.85-1.44,1.47-2.99,1.88-4.57,.41-1.66,.62-3.71,.62-6.08v-14.76c0-.36,.17-.58,.51-.58h.27c4.72-.04,8.41-.22,11.08-.5,3.21-.29,6.09-.86,8.69-1.69,.31-.11,.58-.18,.82-.18,.1,0,.24,.07,.41,.18,1.13,1.01,1.71,1.62,1.71,1.91,0,.5-.14,.72-.41,.72l-.79-.43c-.34,0-.62,.04-.89,.07Zm-19.01,15.12h18.43v-7.02h-18.43v7.02Z"/><path class="cls-1" d="M90.47,164.88c-.72-1.01-1.71-2.3-3.01-3.82-1.44-1.62-2.63-2.84-3.56-3.63l1.57-1.91c2.43,2.12,4.75,4.64,6.98,7.52l-1.98,1.83Z"/><path class="cls-1" d="M86.7,183.1v-3.1c0-.25,.17-.4,.51-.4,1.68,0,2.53,.14,2.53,.4,0,.36-.1,.54-.31,.54-.24,.07-.34,.32-.34,.76v1.8h13.23c.24,0,.38,.22,.38,.58v1.12c0,.4-.14,.58-.38,.58h-13.23v2.52h10.02c.34,0,.51,.14,.51,.43v13.64c0,.29-.17,.43-.51,.43h-1.33c-.38,0-.55-.14-.55-.43v-1.26h-6.94c.82,1.04,1.67,1.94,2.56,2.74,1.3,1.15,2.6,2.09,3.93,2.77,1.78,1.08,3.97,1.98,6.53,2.7,.31,.07,.48,.14,.48,.22,0,.18-.07,.32-.21,.43-.51,.4-.96,.83-1.33,1.26-.14,.18-.24,.29-.34,.29-1.95-.61-3.56-1.26-4.82-1.98-1.78-.9-3.42-2.02-4.89-3.35-.96-.79-2.02-1.83-3.11-3.1v9.54c0,.29-.21,.43-.55,.43h-1.33c-.34,0-.51-.14-.51-.43v-9.72c-1.06,1.08-1.98,1.98-2.8,2.66-1.3,1.15-2.74,2.2-4.24,3.13-1.78,1.08-3.52,1.94-5.27,2.66-.27,0-.44-.11-.58-.25-.44-.43-.89-.86-1.33-1.22-.07-.14-.07-.29-.07-.36,1.64-.58,3.01-1.15,4.1-1.73,1.57-.72,3.18-1.76,4.86-3.06,.96-.72,2.29-1.94,3.93-3.64h-6.63v1.26c0,.29-.17,.43-.51,.43h-1.37c-.34,0-.51-.14-.51-.43v-13.5c0-.36,.17-.58,.51-.58h9.92v-2.52h-12.72c-.27,0-.38-.18-.38-.58v-1.12c0-.36,.1-.58,.38-.58h12.72Zm0,10.15v-3.1h-8.04v3.1h8.04Zm0,5.18v-3.1h-8.04v3.1h8.04Zm2.39-5.18h8.14v-3.1h-8.14v3.1Zm0,5.18h8.14v-3.1h-8.14v3.1Z"/><path class="cls-1" d="M77.2,227.02c1.03,.79,1.91,1.48,2.67,2.09,0,.04-.07,.14-.17,.32-.75,1.08-1.13,1.62-1.16,1.62-1.13-1.01-2.33-1.91-3.59-2.77-1.03-.65-1.88-1.15-2.53-1.44,0-.11,.34-.65,1.03-1.58,.1-.14,.21-.25,.31-.25,1.37,.72,2.53,1.4,3.45,2.02Zm1.71,6.44c.55,1.33,.82,2.02,.82,2.09,0,.22-.03,.4-.1,.54-.89,2.66-1.71,4.97-2.46,6.84-.41,1.08-.92,2.23-1.54,3.49-.14,.29-.17,.72-.17,1.22,0,.29-.1,.43-.24,.43-.21,0-.92-.76-2.19-2.27-.14-.07-.21-.22-.24-.4,0-.18,.03-.36,.14-.5,.55-.65,1.09-1.51,1.67-2.52,.75-1.37,1.47-2.95,2.22-4.72,.62-1.51,1.2-2.92,1.68-4.21,.03-.18,.1-.29,.17-.29,.1,0,.17,.11,.24,.29Zm-.07-14.58c1.13,.79,2.09,1.55,2.91,2.2,0,.07-.07,.18-.17,.32-.75,1.12-1.16,1.66-1.16,1.66-1.23-1.08-2.53-2.05-3.9-2.95-1.13-.72-2.05-1.26-2.77-1.55,0-.14,.34-.65,1.03-1.58,.1-.14,.21-.25,.31-.25,1.5,.79,2.77,1.51,3.76,2.16Zm22.26,5.72c.27,0,.41,.18,.41,.54-.03,3.06-.07,5.69-.14,7.88h2.02c.27,0,.41,.22,.41,.58v1.12c0,.4-.14,.58-.41,.58h-2.09c-.07,1.48-.17,2.7-.24,3.67-.07,.94-.17,1.8-.24,2.52h1.74c.27,0,.41,.18,.41,.54v1.12c0,.4-.14,.58-.41,.58h-2.02c-.21,1.12-.41,2.02-.62,2.74-.48,1.73-1.68,2.59-3.62,2.59s-3.01-.29-3.08-.79c-.14-.61-.55-1.33-1.2-2.16v-.25c1.54,.36,2.98,.54,4.27,.54,.92,0,1.54-.65,1.81-1.87,.07-.22,.14-.47,.21-.79h-13.34c-.17,.43-.31,.86-.44,1.22-.07,.32-.31,.47-.65,.47-.79-.07-1.4-.14-1.85-.18-.31-.04-.44-.11-.44-.25,.65-1.33,1.23-2.63,1.74-3.89,.68-1.84,1.23-3.78,1.68-5.79h-1.68c-.27,0-.41-.18-.41-.58v-1.12c0-.36,.14-.58,.41-.58h2.12c0-.07,.03-.11,.03-.14,.41-2.41,.55-5,.38-7.74,0-.36,.17-.54,.55-.54h14.67Zm-12.65-7.96c.24,.22,.38,.36,.38,.5,0,.22-.1,.36-.27,.4-.21,0-.34,.14-.38,.36-.1,.43-.21,.83-.31,1.19h15.25c.27,0,.41,.22,.41,.58v1.12c0,.4-.14,.58-.41,.58h-15.9c-.07,.22-.14,.4-.21,.54-.38,1.01-.79,1.98-1.2,2.84-.44,.79-.92,1.48-1.4,2.09-.31,0-.55-.04-.72-.11-.45-.18-.89-.36-1.33-.5-.14-.07-.21-.14-.21-.22,0-.11,0-.18,.07-.25,.75-.94,1.4-2.12,2.02-3.53,.34-.79,.65-1.62,.92-2.56,.27-.94,.55-2.2,.82-3.71,.03-.14,.1-.22,.17-.22l2.29,.9Zm10.43,21.99c.07-.9,.17-2.02,.24-3.35h-11.7c-.07,.36-.17,.72-.24,1.01-.48,1.91-.96,3.64-1.44,5.18h12.89c.07-.83,.17-1.76,.24-2.84Zm.34-5.62c.07-1.8,.1-3.85,.14-6.19h-11.11c-.07,2.3-.21,4.39-.45,6.19h11.42Zm-4.86,4.68c.86,.65,1.61,1.26,2.22,1.8,0,.04-.07,.11-.17,.25-.68,.97-1.03,1.44-1.06,1.44-.96-.83-1.92-1.62-2.94-2.34-.85-.54-1.57-.94-2.12-1.19,0-.11,.31-.58,.92-1.44,.1-.14,.21-.25,.27-.25,1.16,.65,2.12,1.22,2.87,1.73Zm.51-8.28c.85,.65,1.61,1.26,2.22,1.76,0,.07-.07,.14-.17,.29-.65,.94-.99,1.4-1.03,1.4-.96-.83-1.92-1.58-2.94-2.3-.86-.58-1.57-.97-2.12-1.19,0-.14,.31-.61,.92-1.48,.07-.14,.17-.22,.27-.22,1.16,.65,2.09,1.22,2.84,1.73Z"/><path class="cls-1" d="M79.73,269.75v-3.1c0-.29,.17-.43,.55-.43,1.68,0,2.53,.14,2.53,.43,0,.32-.14,.5-.34,.5-.21,.07-.31,.32-.31,.76v1.84h4.79c.27,0,.41,.18,.41,.54v1.15c0,.36-.14,.54-.41,.54h-4.17c.44,.76,.85,1.33,1.23,1.76,.62,.83,1.71,1.76,3.21,2.77,.17,.07,.27,.18,.27,.25s-.1,.18-.27,.32c-.27,.36-.62,.76-1.09,1.19-.14,.22-.27,.32-.38,.32-.14,0-.27-.04-.44-.18-1.03-.79-1.95-1.73-2.7-2.81-.17-.22-.31-.43-.44-.65v9.4c0,.29-.21,.43-.55,.43h-1.33c-.38,0-.55-.14-.55-.43v-8.06c-.07,.11-.1,.18-.1,.18-.75,1.15-1.57,2.2-2.39,3.13-1.03,1.04-2.02,1.91-2.98,2.63-.27,0-.44-.07-.58-.22-.44-.47-.89-.86-1.3-1.22-.07-.14-.1-.29-.1-.36,.92-.58,1.68-1.15,2.29-1.73,.89-.76,1.78-1.76,2.74-3.06,.55-.72,1.26-1.94,2.22-3.67h-5.54c-.27,0-.38-.18-.38-.54v-1.15c0-.36,.1-.54,.38-.54h5.75Zm7.08-14.76v-2.7c0-.25,.17-.4,.55-.4,1.68,0,2.53,.14,2.53,.4,0,.32-.1,.5-.31,.54-.24,.04-.34,.29-.34,.72v1.44h12.14c.27,0,.41,.18,.41,.54v1.12c0,.4-.14,.58-.41,.58h-10.53c.65,.72,1.3,1.37,1.98,1.91,1.2,.97,2.39,1.76,3.62,2.34,1.64,.94,3.62,1.73,5.98,2.3,.27,.07,.41,.14,.41,.22,0,.14-.07,.29-.17,.43-.51,.43-.96,.83-1.37,1.22-.14,.22-.24,.29-.31,.29-1.81-.47-3.32-1.04-4.48-1.69-1.64-.72-3.18-1.66-4.55-2.81-.85-.65-1.78-1.51-2.74-2.52v7.59c0,.29-.21,.43-.55,.43h-1.33c-.38,0-.55-.14-.55-.43v-7.23c-.79,.72-1.47,1.33-2.09,1.8-1.27,1.01-2.6,1.91-4.04,2.74-1.68,.9-3.32,1.66-4.96,2.27-.27,0-.48-.07-.62-.25-.48-.47-.96-.9-1.4-1.33-.07-.14-.1-.29-.1-.4,1.54-.5,2.8-.97,3.83-1.48,1.44-.61,2.97-1.48,4.55-2.59,.85-.58,1.98-1.51,3.35-2.81h-10.53c-.27,0-.41-.18-.41-.58v-1.12c0-.36,.14-.54,.41-.54h12Zm7.9,14.76v-3.1c0-.29,.17-.43,.55-.43,1.68,0,2.53,.14,2.53,.43,0,.32-.14,.5-.34,.5-.24,.07-.34,.32-.34,.76v1.84h5.33c.27,0,.41,.18,.41,.54v1.15c0,.36-.14,.54-.41,.54h-4.92c.72,1.4,1.37,2.48,1.92,3.24,.68,1.08,1.54,2.09,2.53,2.95,.82,.76,1.64,1.33,2.5,1.69,0,.18-.1,.29-.31,.36-.44,.5-.82,.94-1.13,1.33-.14,.18-.24,.29-.31,.29-1.3-.9-2.33-1.83-3.15-2.81-.96-1.04-1.74-2.16-2.36-3.38-.07-.07-.1-.11-.1-.18v8.89c0,.29-.17,.43-.51,.43h-1.33c-.38,0-.55-.14-.55-.43v-8.93c-.21,.36-.41,.68-.62,.97-.75,1.15-1.57,2.2-2.46,3.17-1.03,1.08-2.05,1.94-3.08,2.66-.27,0-.44-.07-.58-.22-.44-.47-.89-.86-1.3-1.22-.07-.14-.1-.29-.1-.36,.96-.61,1.74-1.19,2.36-1.76,.89-.76,1.85-1.8,2.84-3.1,.55-.72,1.27-1.94,2.22-3.6h-4.48c-.27,0-.41-.18-.41-.54v-1.15c0-.36,.14-.54,.41-.54h5.2Z"/><path class="cls-1" d="M76.86,299.3c.89,.58,1.68,1.08,2.36,1.51,0,.04-.07,.14-.17,.29-.68,1.04-1.03,1.55-1.03,1.55-1.03-.72-2.09-1.37-3.21-1.94-.92-.47-1.67-.79-2.29-1.01,0-.14,.34-.65,1.06-1.58,.1-.14,.21-.25,.31-.25,1.2,.5,2.19,1.01,2.97,1.44Zm3.39,6.73c.55,1.3,.82,2.02,.82,2.09,0,.18-.07,.36-.17,.5-1.13,2.56-2.19,4.72-3.21,6.52-.55,1.01-1.23,2.12-1.98,3.35-.17,.29-.24,.65-.24,1.15,0,.29-.1,.43-.24,.43-.21,0-.92-.76-2.19-2.27-.14-.07-.21-.22-.24-.4,0-.18,.03-.32,.17-.47,.65-.65,1.33-1.44,2.02-2.41,.96-1.33,1.88-2.84,2.77-4.54,.75-1.44,1.44-2.77,2.02-4,.07-.14,.17-.25,.24-.25,.1,0,.17,.11,.24,.29Zm-1.88-15.51c.99,.68,1.85,1.3,2.6,1.87,0,.04-.07,.14-.17,.29-.68,1.01-1.03,1.51-1.06,1.51-1.09-.86-2.26-1.66-3.49-2.41-1.03-.58-1.85-.97-2.5-1.22,0-.14,.34-.65,1.03-1.58,.1-.14,.21-.25,.31-.25,1.33,.65,2.43,1.26,3.28,1.8Zm21.51,.25c-1.81,.65-3.8,1.15-5.98,1.48v5.76h9.23c.27,0,.41,.18,.41,.54v1.15c0,.36-.14,.54-.41,.54h-9.23v6.19h7.21c.34,0,.55,.14,.55,.43v13.21c0,.29-.21,.43-.55,.43h-1.33c-.34,0-.51-.14-.51-.43v-1.84h-13.37v1.84c0,.29-.21,.43-.55,.43h-1.33c-.34,0-.51-.14-.51-.43v-13.07c0-.36,.17-.58,.51-.58h7.49v-6.19h-9.2c-.27,0-.41-.18-.41-.54v-1.15c0-.36,.14-.54,.41-.54h9.2v-5.44c-2.29,.25-4.62,.36-6.94,.36-.38,0-.62-.11-.68-.36-.07-.43-.21-.83-.41-1.26-.07-.14-.1-.29-.1-.47,3.76-.04,6.7-.22,8.86-.54,2.53-.29,4.86-.83,6.91-1.66,.27-.14,.48-.22,.65-.22,.14,0,.27,.07,.41,.22,1.06,1.01,1.61,1.62,1.61,1.91,0,.36-.14,.54-.41,.54l-.79-.4c-.27,0-.51,.04-.72,.07Zm-.62,25.23v-7.31h-13.37v7.31h13.37Z"/><path class="cls-1" d="M7.87,7.59c.34,0,.55,.14,.55,.43v5.47c0,.29-.21,.43-.55,.43h-2.09l1.06,.47c.34,.14,.51,.32,.51,.54s-.17,.4-.48,.47c-.41,0-.68,.18-.79,.5-.21,.43-.38,.79-.51,1.12h4.65c.14-.18,.27-.36,.38-.5,.41-.54,.75-1.22,1.09-2.09,0-.14,.07-.22,.21-.22,1.57,.68,2.39,1.04,2.39,1.12,0,.18-.14,.32-.41,.43-.27,.04-.48,.14-.58,.36-.21,.32-.41,.61-.62,.9h4.92c.17,0,.27,.14,.27,.43v1.12c0,.4-.1,.58-.27,.58h-5.2v1.84h4.27c.17,0,.27,.14,.27,.4v1.12c0,.4-.1,.58-.27,.58h-4.27v1.84h4.27c.17,0,.27,.14,.27,.43v1.12c0,.36-.1,.54-.27,.54h-4.27v1.98h5.2c.17,0,.27,.14,.27,.43v1.12c0,.36-.1,.58-.27,.58H5.61v1.12c0,.29-.21,.43-.55,.43h-1.33c-.27,0-.38-.14-.38-.43v-11.16c-.24,.32-.45,.61-.62,.83-.27,.36-.48,.5-.62,.5s-.34-.07-.55-.25c-.48-.22-.89-.4-1.3-.58-.21-.07-.27-.11-.27-.18s.03-.18,.17-.36c1.09-1.22,1.92-2.3,2.46-3.28,.79-1.22,1.37-2.45,1.74-3.67,0-.07,.03-.11,.07-.14H2.26c-.34,0-.51-.14-.51-.43v-5.47c0-.29,.17-.43,.51-.43H7.87ZM8.69,.43c0,.32-.14,.5-.34,.54-.24,.04-.34,.29-.34,.72V6.33c0,.29-.17,.43-.51,.43h-1.33c-.38,0-.55-.14-.55-.43v-1.69H1.33c-.21,0-.27-.18-.27-.54v-1.12c0-.29,.07-.43,.27-.43H5.61V.43c0-.29,.17-.43,.55-.43,1.68,0,2.53,.14,2.53,.43Zm-2.43,9H3.86v2.66h2.39v-2.66Zm3.9,9.72H5.61v1.84h4.55v-1.84Zm0,3.92H5.61v1.84h4.55v-1.84Zm0,5.9v-1.98H5.61v1.98h4.55ZM16.55,7.59c.34,0,.55,.14,.55,.43v5.47c0,.29-.21,.43-.55,.43h-5.75c-.34,0-.51-.14-.51-.43v-5.47c0-.29,.17-.43,.51-.43h5.75ZM14.02,.43c0,.29-.1,.47-.27,.47-.21,.04-.27,.25-.27,.65v.72h4.68c.17,0,.27,.14,.27,.43v1.12c0,.4-.1,.58-.27,.58h-4.68v1.94c0,.29-.17,.43-.51,.43h-1.33c-.27,0-.41-.14-.41-.43V.29c0-.18,.14-.29,.41-.29,1.57,0,2.39,.14,2.39,.43Zm.92,9h-2.53v2.66h2.53v-2.66Zm11.9,2.12c0,.25-.1,.4-.27,.43-.27,.18-.41,.5-.41,.97v4.32c.07,1.15,.17,2.09,.34,2.84,.24,1.3,.58,2.63,1.03,3.92,.38,1.08,.92,2.23,1.68,3.38,.82,1.26,1.81,2.41,2.97,3.53,0,.14-.1,.25-.27,.36-.38,.29-.79,.58-1.2,.94-.14,.14-.31,.25-.51,.25-.75-.76-1.44-1.62-2.12-2.63-.89-1.22-1.54-2.41-2.02-3.63-.17-.36-.31-.72-.44-1.15-.21,.79-.48,1.55-.82,2.2-.55,1.08-1.23,2.02-2.12,2.88-.65,.72-1.68,1.48-3.04,2.34-.14,0-.24-.11-.34-.29-.31-.36-.65-.68-.99-.94-.21-.14-.27-.25-.27-.32,1.47-.94,2.5-1.66,3.04-2.27,.62-.65,1.13-1.37,1.54-2.16,.41-.76,.75-1.8,1.03-3.13,.17-1.04,.27-2.12,.27-3.28V11.55c0-.29,.03-.43,.14-.43,1.85,.22,2.8,.36,2.8,.43ZM24.24,.83c.21,.22,.34,.36,.34,.47,0,.22-.1,.32-.27,.4-.21,0-.31,.18-.31,.54-.27,1.73-.48,3.13-.68,4.25h7.52c.27,0,.48,.07,.58,.14,.41,.36,.62,.65,.62,.86l-2.7,7.92c-.07,.14-.17,.22-.24,.22-1.23-.32-1.85-.61-1.85-.83l2.29-6.19h-6.63c-.31,1.33-.62,2.59-.92,3.74-.38,1.15-.75,2.2-1.16,3.13-.27,0-.48-.04-.68-.11-.41-.18-.82-.36-1.23-.5-.14-.07-.21-.14-.21-.22,0-.14,0-.29,.07-.36,.62-1.37,1.2-3.02,1.71-5.04,.31-1.12,.58-2.34,.82-3.64,.24-1.37,.48-3.1,.72-5.25,.03-.22,.07-.36,.14-.36l2.09,.83Z"/><path class="cls-1" d="M7.35,52.05c.34,0,.51,.14,.51,.43v8.13c0,1.08,.14,1.87,.34,2.41,.14,.58,.41,.97,.79,1.26,.44,.4,.99,.68,1.61,.83,.82,.22,1.74,.29,2.74,.29h7.42c2.91,0,6.33-.32,10.26-1.01,.14-.07,.31-.11,.51-.11,.17,0,.27,.07,.27,.14-.31,.97-.51,1.91-.65,2.92-.07,.36-.24,.58-.58,.58H13.34c-.75,0-1.5-.07-2.19-.22-.72-.18-1.4-.43-2.09-.72-.62-.32-1.16-.76-1.67-1.3-.34-.43-.75-1.22-1.16-2.38l-.07-.18c-.21,0-.31,.07-.31,.14-2.39,2.48-3.73,4.18-3.93,5.04-.07,.22-.17,.32-.31,.32-.17,0-.62-.61-1.33-1.83-.1-.22-.14-.43-.14-.72,1.37-.79,3.11-2.3,5.16-4.46,.1-.11,.17-.43,.17-1.01v-6.33H1.47c-.27,0-.41-.18-.41-.54v-1.15c0-.36,.14-.54,.41-.54H7.35Zm-2.02-6.16c1.09,.58,2.02,1.08,2.8,1.51,0,.04-.07,.14-.17,.29-.68,1.04-1.03,1.55-1.03,1.55-1.23-.72-2.5-1.37-3.83-1.98-1.09-.43-2.02-.76-2.7-.97,0-.14,.34-.65,1.03-1.58,.1-.14,.21-.25,.31-.25,1.44,.5,2.63,1.01,3.59,1.44Zm.96-8.17c.96,.65,1.81,1.19,2.53,1.66,0,.07-.07,.18-.17,.32l-1.03,1.51c-1.09-.79-2.26-1.48-3.45-2.12-.99-.5-1.81-.9-2.43-1.12,0-.11,.34-.65,1.03-1.58,.1-.14,.21-.25,.31-.25,1.3,.58,2.36,1.12,3.21,1.58Zm12.45,.86c-.41,.29-.89,.58-1.37,.86-.62,.32-1.26,.61-1.95,.86-.41,.14-.89,.29-1.4,.4v16.23c1.67-.65,3.28-1.37,4.79-2.16,.03-.04,.1-.07,.17-.07,.14,0,.24,.11,.24,.29,0,1.22-.07,1.87-.14,1.98-2.6,1.37-5.2,2.56-7.87,3.64-.34,.65-.58,.97-.79,.97-.24,0-.68-.97-1.37-2.95,.75-.18,1.61-.43,2.56-.79v-19.58c0-.29,.1-.43,.38-.43l1.61,.68c.48-.14,.92-.29,1.33-.47,.65-.25,1.27-.58,1.85-1.01,.41-.29,.79-.61,1.13-1.01,.03,0,.07-.04,.1-.04,.14,0,.24,.11,.38,.32,.99,1.3,1.5,2.02,1.5,2.09,0,.22-.1,.29-.27,.29l-.79-.14c-.07,0-.1,.04-.1,.04Zm4.75,24.55c0,.29-.17,.43-.51,.43h-1.33c-.38,0-.55-.14-.55-.43v-24.44c0-.36,.17-.58,.55-.58h8.14c.41,0,.65,.22,.65,.58v18.86c0,.79-.41,1.4-1.23,1.84-.79,.36-1.81,.58-3.04,.65-.24,0-.38-.11-.41-.4-.07-.5-.31-1.26-.79-2.27,0-.07,.07-.14,.24-.14,1.37,0,2.15-.07,2.39-.25,.27-.14,.44-.43,.44-.86v-15.73h-4.55v22.75Z"/><path class="cls-1" d="M8.99,72.47c.31,.18,.48,.36,.48,.54,0,.36-.21,.58-.55,.72-.51,0-.82,.29-.96,.79-.27,.79-.55,1.48-.79,2.12h9.1c.27,0,.41,.22,.41,.58v1.12c0,.4-.14,.58-.41,.58h-4.51v.04c-.07,3.49-.24,6.44-.48,8.82h6.6c.27,0,.41,.22,.41,.58v1.12c0,.36-.14,.54-.41,.54h-6.7c1.06,2.34,1.95,4,2.7,4.97,.96,1.51,2.19,2.92,3.62,4.18,0,.29-.1,.47-.27,.58-.38,.32-.85,.76-1.47,1.26-.07,0-.17-.04-.27-.14-.82-.72-1.61-1.66-2.36-2.81-.82-1.3-1.74-3.02-2.77-5.15-.55,2.2-1.23,4.07-2.05,5.58-1.13,2.16-2.6,4.1-4.45,5.9-.34,0-.55-.04-.68-.11-.48-.29-.92-.58-1.37-.86-.24-.04-.34-.14-.34-.29s.07-.29,.24-.43c2.05-1.58,3.66-3.71,4.89-6.3,.89-1.98,1.54-4.1,1.95-6.37H1.33c-.27,0-.41-.18-.41-.54v-1.12c0-.36,.14-.58,.41-.58h7.59c.27-2.16,.41-5.11,.41-8.85h-3.04c-.82,1.87-1.61,3.42-2.36,4.64-.34,.47-.58,.68-.72,.68-.21,0-.41-.07-.62-.25-.48-.22-.96-.47-1.4-.68-.21-.07-.27-.11-.27-.18,0-.11,.07-.29,.24-.5,1.37-1.8,2.36-3.42,3.04-4.82,.99-1.8,1.74-3.6,2.22-5.4,.14-.5,.31-.79,.51-.79l2.05,.86Zm21.44,3.64c.34,0,.55,.14,.55,.4v25.34c0,.25-.21,.4-.55,.4h-1.33c-.34,0-.51-.14-.51-.4v-2.12h-6.43v3.1c0,.29-.17,.43-.51,.43h-1.33c-.38,0-.55-.14-.55-.43v-26.17c0-.36,.17-.54,.55-.54h10.12Zm-1.85,21.38v-19.15h-6.43v19.15h6.43Z"/><path class="cls-1" d="M18.29,107.89c0,.32-.14,.5-.34,.5-.24,.07-.34,.32-.34,.76v1.94h11.25c.24,0,.38,.22,.38,.58v1.12c0,.4-.14,.58-.38,.58h-5.64l1.4,.61c.31,.14,.48,.32,.48,.5,0,.22-.14,.36-.34,.43-.27,0-.44,.18-.51,.47-.55,1.62-1.09,2.95-1.64,4.03h8.51c.27,0,.41,.22,.41,.58v1.12c0,.36-.14,.54-.41,.54H1.06c-.27,0-.41-.18-.41-.54v-1.12c0-.36,.14-.58,.41-.58H10.19c-.14-.43-.31-.94-.51-1.44-.48-1.3-1.13-2.59-1.95-3.92,0-.11,.27-.32,.85-.68H3.21c-.27,0-.41-.18-.41-.58v-1.12c0-.36,.14-.58,.41-.58H15.22v-3.2c0-.29,.17-.43,.55-.43,1.68,0,2.53,.14,2.53,.43Zm7.86,16.59c.34,0,.55,.14,.55,.4v15.33c0,.29-.21,.43-.55,.43h-1.33c-.34,0-.51-.14-.51-.43v-.97H8.28v.97c0,.29-.21,.43-.55,.43h-1.33c-.34,0-.51-.14-.51-.43v-15.19c0-.36,.17-.54,.51-.54H26.16Zm-1.85,6.3v-4.07H8.28v4.07H24.31Zm0,6.19v-3.92H8.28v3.92H24.31Zm-4.79-17.57c.68-1.01,1.2-1.87,1.54-2.63,.55-1.08,.92-2.16,1.2-3.24,0-.07,.03-.11,.07-.18H9.92c.68,1.22,1.23,2.3,1.67,3.31,.38,.9,.72,1.8,1.03,2.74h6.91Z"/><path class="cls-1" d="M7.21,160.88c.41,0,.65,.14,.65,.43v8.42c0,.36,.03,.83,.1,1.37,.41,.76,.99,1.4,1.74,1.91,.92,.54,2.33,.83,4.17,.83h9.37c.82,0,2.22-.11,4.21-.32,1.81-.18,3.21-.4,4.17-.65,.14,0,.27-.04,.41-.04,.17,0,.27,.11,.27,.29-.41,.79-.79,1.55-1.06,2.23-.07,.47-.27,.72-.68,.72H13.88c-2.43,0-4.34-.54-5.78-1.62-.68-.58-1.27-1.37-1.78-2.41-1.06,.94-1.98,1.73-2.8,2.48-.48,.25-.75,.58-.79,.94,0,.29-.07,.47-.21,.47-.1,0-.24-.11-.44-.32l-1.68-2.63c.51,0,1.98-.79,4.38-2.34,.34-.14,.55-.43,.55-.9v-6.59H1.47c-.27,0-.41-.18-.41-.58v-1.12c0-.36,.14-.58,.41-.58H7.21Zm.68-4.61c.14,.07,.24,.18,.24,.25,0,.11-.07,.18-.21,.25-.68,.79-1.13,1.15-1.27,1.15s-.24-.04-.34-.11c-1.68-1.15-3.28-2.09-4.79-2.81-.14-.07-.21-.11-.21-.18s.34-.58,1.06-1.44c.14-.14,.27-.25,.41-.25,1.85,.97,3.52,2.02,5.1,3.13Zm.79-6.95c.17,.11,.27,.22,.27,.32s-.07,.18-.21,.25c-.72,.79-1.13,1.15-1.26,1.15s-.27-.04-.38-.14c-1.81-1.44-3.52-2.59-5.16-3.46-.14-.07-.21-.14-.21-.22s.34-.58,1.06-1.44c.14-.14,.27-.25,.41-.25,1.98,1.19,3.79,2.45,5.47,3.78Zm19.63-4.03c.34,0,.55,.14,.55,.4v11.41c0,.29-.21,.4-.55,.4h-6.8v1.84h8.28c.41,0,.65,.22,.65,.58v11.05c0,.47-.34,.83-1.03,1.04-.68,.22-1.54,.36-2.57,.43-.27,0-.41-.14-.44-.43-.03-.5-.27-1.26-.75-2.27,0-.04,.03-.07,.17-.07,1.06,0,1.68-.04,1.88-.11s.34-.22,.34-.43v-7.52h-6.53v4.21c.85-.25,1.64-.5,2.39-.79-.27-.65-.58-1.26-.92-1.87,0-.14,.58-.54,1.74-1.15,.58,1.19,1.06,2.27,1.44,3.2,.38,.9,.68,1.84,.96,2.84,0,.11-.68,.36-2.02,.72-.07-.5-.21-1.04-.41-1.69-2.84,.9-5.68,1.69-8.51,2.41-.34,.65-.62,.97-.82,.97s-.58-.94-1.2-2.81c1.37-.25,3.01-.65,4.92-1.15v-4.9h-6.53v9.97c0,.29-.21,.43-.55,.43h-1.33c-.34,0-.51-.14-.51-.43v-11.66c0-.36,.17-.58,.51-.58h8.41v-1.84h-6.53c-.38,0-.55-.11-.55-.4v-11.41c0-.25,.17-.4,.55-.4h15.76Zm-9.23,5.04v-2.95h-4.65v2.95h4.65Zm0,2.12h-4.65v2.95h4.65v-2.95Zm2.43-2.12h4.92v-2.95h-4.92v2.95Zm4.92,2.12h-4.92v2.95h4.92v-2.95Z"/><path class="cls-1" d="M25.65,180.86c.34,0,.51,.14,.51,.43v21.09c0,.29-.17,.4-.51,.4h-1.33c-.38,0-.55-.11-.55-.4v-1.69h-3.21v7.45c0,1.04,.62,1.55,1.88,1.55h3.73c1.33,0,2.15-.18,2.43-.54,.31-.29,.72-1.44,1.2-3.42,.27,.5,.75,.94,1.4,1.33,.31,.14,.48,.29,.48,.5-.68,2.23-1.2,3.49-1.54,3.74-.34,.5-1.09,.76-2.22,.76h-5.75c-2.67,0-4-.86-4-2.52v-8.86h-3.66c-.14,1.51-.38,2.74-.72,3.74-.41,1.37-.99,2.59-1.78,3.71-.55,.72-1.3,1.37-2.26,2.02-.96,.54-2.19,1.04-3.62,1.51-1.54,.43-2.84,.68-3.86,.68-.24,0-.41-.14-.48-.43-.24-.58-.48-1.12-.72-1.62-.21-.14-.27-.32-.27-.47l1.09,.14c.72-.07,1.61-.25,2.63-.47,1.09-.25,2.09-.58,2.94-1.01,.96-.47,1.74-1.01,2.29-1.62,.75-.9,1.26-1.8,1.54-2.7,.34-.86,.62-2.02,.79-3.49h-3.25v1.69c0,.29-.21,.4-.55,.4h-1.33c-.38,0-.55-.11-.55-.4v-21.09c0-.29,.17-.43,.55-.43H25.65Zm-1.88,5.76v-3.64H8.82v3.64h14.94Zm0,5.9v-3.64H8.82v3.64h14.94Zm0,5.9v-3.64H8.82v3.64h14.94Z"/><path class="cls-1" d="M9.23,217.62c.24,.22,.38,.4,.38,.5,0,.29-.14,.5-.41,.58-.27,0-.44,.18-.51,.47-.41,1.51-.75,2.77-1.06,3.74H15.76v-6.33c0-.29,.17-.43,.51-.43,1.71,0,2.56,.14,2.56,.43,0,.32-.14,.5-.34,.54-.24,.04-.34,.29-.34,.72v5.08h11.22c.27,0,.41,.14,.41,.43v1.4c0,.36-.14,.54-.41,.54h-11.22v8.03h9.61c.27,0,.41,.22,.41,.58v1.12c0,.36-.14,.54-.41,.54h-9.61v9.57h12.82c.27,0,.41,.14,.41,.43v1.4c0,.36-.14,.54-.41,.54H1.33c-.27,0-.41-.18-.41-.54v-1.4c0-.29,.14-.43,.41-.43H15.76v-9.57H5.33c-.27,0-.41-.18-.41-.54v-1.12c0-.36,.14-.58,.41-.58H15.76v-8.03H6.77c-.48,1.15-.96,2.27-1.47,3.31-.62,1.08-1.27,2.02-1.95,2.88-.34,0-.58-.04-.79-.14-.48-.22-.92-.4-1.4-.58-.17-.07-.24-.18-.24-.25,0-.14,.03-.25,.14-.32,1.09-1.3,2.05-2.88,2.94-4.75,.51-1.08,.96-2.23,1.33-3.46,.41-1.3,.82-2.92,1.2-4.93,.07-.22,.17-.32,.27-.32l2.43,.9Z"/><path class="cls-1" d="M4.86,263.3c.89,.58,1.68,1.08,2.36,1.51,0,.04-.07,.14-.17,.29-.68,1.04-1.03,1.55-1.03,1.55-1.03-.72-2.09-1.37-3.21-1.94-.92-.47-1.67-.79-2.29-1.01,0-.14,.34-.65,1.06-1.58,.1-.14,.21-.25,.31-.25,1.2,.5,2.19,1.01,2.97,1.44Zm3.39,6.73c.55,1.3,.82,2.02,.82,2.09,0,.18-.07,.36-.17,.5-1.13,2.56-2.19,4.72-3.21,6.52-.55,1.01-1.23,2.12-1.98,3.35-.17,.29-.24,.65-.24,1.15,0,.29-.1,.43-.24,.43-.21,0-.92-.76-2.19-2.27-.14-.07-.21-.22-.24-.4,0-.18,.03-.32,.17-.47,.65-.65,1.33-1.44,2.02-2.41,.96-1.33,1.88-2.84,2.77-4.54,.75-1.44,1.44-2.77,2.02-4,.07-.14,.17-.25,.24-.25,.1,0,.17,.11,.24,.29Zm-1.88-15.51c.99,.68,1.85,1.3,2.6,1.87,0,.04-.07,.14-.17,.29-.68,1.01-1.03,1.51-1.06,1.51-1.09-.86-2.26-1.66-3.49-2.41-1.03-.58-1.85-.97-2.5-1.22,0-.14,.34-.65,1.03-1.58,.1-.14,.21-.25,.31-.25,1.33,.65,2.43,1.26,3.28,1.8Zm21.51,.25c-1.81,.65-3.8,1.15-5.98,1.48v5.76h9.23c.27,0,.41,.18,.41,.54v1.15c0,.36-.14,.54-.41,.54h-9.23v6.19h7.21c.34,0,.55,.14,.55,.43v13.21c0,.29-.21,.43-.55,.43h-1.33c-.34,0-.51-.14-.51-.43v-1.84H13.88v1.84c0,.29-.21,.43-.55,.43h-1.33c-.34,0-.51-.14-.51-.43v-13.07c0-.36,.17-.58,.51-.58h7.49v-6.19H10.29c-.27,0-.41-.18-.41-.54v-1.15c0-.36,.14-.54,.41-.54h9.2v-5.44c-2.29,.25-4.62,.36-6.94,.36-.38,0-.62-.11-.68-.36-.07-.43-.21-.83-.41-1.26-.07-.14-.1-.29-.1-.47,3.76-.04,6.7-.22,8.86-.54,2.53-.29,4.86-.83,6.91-1.66,.27-.14,.48-.22,.65-.22,.14,0,.27,.07,.41,.22,1.06,1.01,1.61,1.62,1.61,1.91,0,.36-.14,.54-.41,.54l-.79-.4c-.27,0-.51,.04-.72,.07Zm-.62,25.23v-7.31H13.88v7.31h13.37Z"/><path class="cls-1" d="M10.63,288.65c.27,.07,.44,.22,.44,.5,0,.36-.17,.5-.51,.5-.21,.07-.34,.25-.41,.47-.68,1.62-1.33,3.02-1.98,4.21h5.3c.34,0,.55,.14,.55,.43v23.9c0,.29-.21,.43-.55,.43h-1.33c-.34,0-.51-.14-.51-.43v-1.84H4.41v2.81c0,.29-.21,.43-.55,.43h-1.33c-.38,0-.55-.14-.55-.43v-24.73c0-.36,.17-.58,.55-.58h3.08c.85-1.62,1.74-3.6,2.67-5.9,.07-.18,.21-.29,.41-.29l1.95,.5Zm.99,15.69v-7.74H4.41v7.74h7.21Zm0,10.26v-8.03H4.41v8.03h7.21Zm11.76-25.81c.24,.22,.38,.36,.38,.5,0,.22-.1,.32-.27,.4-.27,0-.44,.14-.51,.43-.51,1.58-.96,2.84-1.37,3.82h8.45c.41,0,.65,.25,.65,.68,0,8.21-.14,13.86-.41,16.99-.27,2.81-.72,4.79-1.27,6.01-.48,1.04-1.09,1.69-1.85,1.98-.96,.4-2.22,.61-3.83,.61-1.44,0-2.19-.25-2.19-.72-.1-.61-.27-1.22-.48-1.8,0-.22,.03-.29,.14-.29l.27,.04c.65,.07,1.23,.11,1.74,.11,1.67,0,2.8-.25,3.42-.76,.68-.54,1.16-2.05,1.44-4.54,.38-2.59,.58-7.96,.62-16.09h-7.73c-.38,.76-.75,1.48-1.16,2.12-.65,.94-1.33,1.76-2.05,2.52-.31,0-.55-.04-.75-.11-.44-.18-.89-.36-1.3-.54-.17-.07-.24-.11-.24-.18,0-.14,.03-.25,.14-.32,1.09-1.12,2.12-2.48,3.01-4.14,.51-.94,.96-1.94,1.37-3.02,.41-1.12,.82-2.56,1.23-4.36,.07-.14,.17-.25,.27-.25l2.29,.9Zm-2.94,13.86c1.26,2.2,2.43,4.54,3.45,7.02,0,.36-.07,.54-.21,.58-.82,.58-1.47,.83-1.92,.83-1.16-2.99-2.22-5.47-3.21-7.45,0-.25,.48-.61,1.47-1.12,.21,0,.34,.07,.41,.14Z"/><path class="cls-1" d="M4.58,335.38c.82,.65,1.5,1.22,2.09,1.73,0,.04-.07,.14-.17,.29-.68,1.04-1.03,1.55-1.03,1.55-.92-.79-1.88-1.55-2.87-2.23-.85-.54-1.54-.94-2.09-1.15,0-.14,.34-.65,1.06-1.58,.1-.14,.21-.25,.31-.25,1.09,.61,1.98,1.15,2.7,1.66Zm2.98,6.23c.55,1.3,.85,2.02,.85,2.09,0,.22-.07,.4-.14,.54-.92,2.74-1.78,5.04-2.6,6.91-.48,1.08-1.03,2.27-1.64,3.56-.14,.29-.17,.72-.17,1.22,0,.29-.1,.43-.27,.43s-.89-.76-2.15-2.27c-.14-.07-.24-.22-.24-.4,0-.22,.03-.36,.14-.5,.55-.65,1.13-1.51,1.74-2.56,.79-1.4,1.57-2.99,2.36-4.79,.65-1.55,1.23-2.95,1.71-4.25,.07-.18,.14-.29,.21-.29,.1,0,.17,.11,.21,.29Zm-1.27-15.37c.75,.68,1.44,1.3,1.98,1.87,0,.04-.07,.14-.17,.29-.68,1.04-1.03,1.55-1.03,1.55-.89-.86-1.78-1.69-2.74-2.41-.79-.58-1.44-1.01-1.95-1.26,0-.11,.34-.65,1.06-1.58,.1-.14,.21-.25,.27-.25,1.03,.65,1.88,1.26,2.56,1.8Zm13.2,.32v-2.56c0-.25,.17-.4,.55-.4,1.68,0,2.53,.14,2.53,.4,0,.36-.14,.54-.34,.54-.24,.07-.34,.32-.34,.76v1.26h8.17c.17,0,.27,.14,.27,.43v1.12c0,.36-.1,.54-.27,.54h-8.17v2.41h7.35c.17,0,.27,.14,.27,.43v1.12c0,.36-.1,.54-.27,.54h-7.35v2.41h9.51c.17,0,.27,.14,.27,.43v1.12c0,.36-.1,.54-.27,.54H9.88c-.21,0-.27-.18-.27-.54v-1.12c0-.29,.07-.43,.27-.43h9.61v-2.41h-7.21c-.21,0-.27-.18-.27-.54v-1.12c0-.29,.07-.43,.27-.43h7.21v-2.41H11.35c-.21,0-.27-.18-.27-.54v-1.12c0-.29,.07-.43,.27-.43h8.14Zm8.96,13.21c.41,0,.65,.14,.65,.43v14.61c0,.61-.44,1.08-1.33,1.44-.89,.25-1.98,.43-3.32,.54-.27,0-.41-.14-.44-.43-.03-.5-.27-1.26-.75-2.27,0-.07,.07-.11,.24-.11,1.54,0,2.43-.07,2.7-.18,.34-.14,.51-.32,.51-.61v-2.2H14.81v5.08c0,.29-.17,.43-.51,.43h-1.33c-.38,0-.55-.14-.55-.43v-15.87c0-.29,.17-.43,.55-.43h15.49Zm-1.74,4.64v-2.52H14.81v2.52h11.9Zm0,4.5v-2.41H14.81v2.41h11.9Z"/><path class="cls-1" d="M5.16,371.52c.96,.65,1.78,1.22,2.46,1.73,0,.04-.07,.14-.21,.29-.75,1.12-1.13,1.66-1.16,1.66-1.03-.83-2.09-1.58-3.25-2.3-.96-.58-1.74-.97-2.36-1.19,0-.14,.34-.65,1.06-1.58,.1-.14,.21-.25,.27-.25,1.3,.61,2.36,1.15,3.18,1.66Zm3.18,6.23c.55,1.3,.85,2.02,.85,2.09,0,.22-.07,.4-.17,.54-1.16,2.74-2.26,5.08-3.28,7.02-.58,1.08-1.27,2.27-2.05,3.56-.17,.32-.24,.76-.24,1.26,0,.29-.1,.43-.24,.43-.21,0-.92-.76-2.19-2.27-.14-.07-.21-.22-.24-.4,0-.22,.03-.4,.17-.5,.68-.68,1.37-1.55,2.09-2.59,.96-1.44,1.88-3.06,2.8-4.86,.79-1.55,1.47-2.99,2.05-4.28,.07-.18,.17-.29,.24-.29,.1,0,.17,.11,.21,.29Zm-1.54-15.59c.96,.65,1.74,1.26,2.39,1.8,0,.04-.07,.14-.17,.32-.75,1.12-1.13,1.66-1.16,1.66-1.03-.86-2.09-1.69-3.18-2.41-.92-.58-1.67-1.01-2.29-1.26,0-.11,.34-.65,1.06-1.58,.1-.14,.21-.25,.27-.25,1.23,.65,2.26,1.22,3.08,1.73Zm8.96,15.84c0,.25-.1,.4-.31,.4-.27,.18-.38,.47-.38,.9v2.38c0,.94-.07,2.02-.17,3.17-.14,1.22-.41,2.34-.82,3.35-.38,.97-.89,1.84-1.5,2.63-.48,.65-1.2,1.33-2.15,2.12-.14,0-.27-.11-.38-.32-.34-.4-.72-.72-1.09-1.01-.21-.14-.27-.25-.27-.36,.99-.83,1.68-1.51,2.05-2.02,.41-.54,.79-1.15,1.06-1.87,.27-.72,.51-1.62,.68-2.77,.14-.94,.21-1.91,.21-2.92v-3.78c0-.29,.03-.43,.14-.43,1.95,.29,2.94,.47,2.94,.54Zm6.8-17.57c0,.32-.14,.5-.34,.54-.24,.04-.34,.29-.34,.72v2.56h9.1c.27,0,.41,.18,.41,.54v1.15c0,.36-.14,.54-.41,.54h-12.51c1.37,.5,2.09,.83,2.09,1.01,0,.25-.17,.36-.45,.36-.34,0-.48,.11-.48,.32-.62,1.04-1.37,2.23-2.33,3.56-.31,.43-.62,.83-.92,1.19,3.28-.29,6.53-.68,9.78-1.12-.62-.97-1.16-1.87-1.71-2.66,0-.22,.48-.61,1.47-1.12,.21,0,.31,.07,.38,.14,1.85,2.48,3.56,5.11,5.1,7.88,0,.36-.1,.54-.24,.54-.82,.58-1.44,.86-1.91,.86-.65-1.26-1.27-2.45-1.88-3.56-4.27,.61-8.99,1.15-14.19,1.66-.27,0-.48,.14-.62,.36-.1,.29-.27,.43-.55,.43-.24,0-.75-.97-1.57-2.95,1.16-.07,2.29-.14,3.45-.25,.96-1.4,1.81-2.88,2.6-4.43,.34-.76,.65-1.51,.89-2.23h-6.43c-.27,0-.41-.18-.41-.54v-1.15c0-.36,.14-.54,.41-.54h8.55v-3.82c0-.29,.17-.43,.55-.43,1.68,0,2.53,.14,2.53,.43Zm-1.2,17.57c0,.36-.14,.54-.34,.54-.24,.07-.34,.32-.34,.76v12.78c0,.29-.17,.43-.51,.43h-1.33c-.38,0-.55-.14-.55-.43v-14.07c0-.25,.17-.4,.55-.4,1.68,0,2.53,.14,2.53,.4Zm5.47,0c0,.22-.1,.43-.27,.72v10.26c0,.4,.07,.58,.27,.58h2.15c.45,0,.89-1.08,1.33-3.24l2.12,1.4c-.75,2.81-1.71,4.21-2.8,4.21h-3.73c-1.16,0-1.74-.58-1.74-1.69v-12.35c0-.29,.07-.43,.27-.43,1.57,.14,2.39,.32,2.39,.54Z"/><path class="cls-1" d="M19.42,415.87c-.92,.97-2.02,1.44-3.28,1.44s-2.39-.47-3.28-1.44c-.92-.94-1.37-2.09-1.37-3.46s.45-2.48,1.37-3.46c.89-.94,1.98-1.44,3.28-1.44s2.36,.5,3.28,1.44c.89,.97,1.37,2.12,1.37,3.46s-.48,2.52-1.37,3.46Zm-.89-5.97c-.68-.68-1.47-1.04-2.39-1.04s-1.74,.36-2.39,1.04c-.68,.72-.99,1.55-.99,2.52s.31,1.84,.99,2.52c.65,.72,1.44,1.04,2.39,1.04s1.71-.32,2.39-1.04c.65-.68,.99-1.51,.99-2.52s-.34-1.8-.99-2.52Z"/></g></g></svg>