<?xml version="1.0" encoding="UTF-8"?><svg id="_層_2" xmlns="http://www.w3.org/2000/svg" viewBox="0 0 108.99 451.05"><defs><style>.cls-1{fill:#b6242d;}</style></defs><g id="_層_1-2"><g><path class="cls-1" d="M76.65,4.31c.33,.04,.54,.22,.54,.53s-.29,.66-.84,1.01c-.21,1.41-.42,2.73-.58,3.96h3.22V.18l3.18,.26c.58,.04,.88,.18,.88,.44,0,.22-.21,.57-.63,1.01v7.92h3.89v3.43h-3.89v8.36c1.25-.35,2.47-.75,3.72-1.14v3.61l-3.72,1.06v14.61h-3.43v-13.6l-5.39,1.54c-.42,.97-.75,1.41-1,1.41s-.46-.22-.59-.75l-1.38-3.74c2.8-.57,5.6-1.23,8.36-2.02V13.25h-3.84c-.42,2.07-.88,3.96-1.38,5.68l-3.47-1.36c.63-1.67,1.17-3.52,1.63-5.59,.54-2.6,1-5.5,1.34-8.67l3.39,1.01Zm18.97,.88V0l3.3,.31c.63,.09,.96,.26,.96,.57,0,.18-.25,.48-.67,.84v3.48h8.99v3.43h-8.99v5.33h7.98v3.43h-18.93v-3.43h7.36v-5.33h-8.82v-3.43h8.82Zm4.1,16.81v-3.61l3.89,.53c.42,.09,.67,.26,.67,.53,0,.31-.33,.66-.96,1.01v1.54h5.06v3.48h-5.06v9.24c0,1.67-.46,2.95-1.38,3.74-.75,.84-2.63,1.28-5.64,1.28l-1.5-3.79h3.13c1.09,0,1.71-.62,1.8-1.89v-8.58h-12.58v-3.48h12.58Zm-3.43,9.99l-2.3,2.42c-2.09-1.76-4.01-3.26-5.73-4.49l1.96-2.6c2.05,1.41,4.05,2.99,6.06,4.67Z"/><path class="cls-1" d="M106.07,46.42v3.78h-17.05l-1.46,10.47h16.05l-1.46,17.38h5.89v3.96h-37.24v-3.96h10.37l1.92-13.6h-8.02v-3.78h8.57l1.46-10.47h-12.16v-3.78h33.14Zm-7.82,31.64l1.13-13.6h-12.37l-1.92,13.6h13.17Z"/><path class="cls-1" d="M86.09,94.73h5.64c1.59-2.11,2.84-4.36,3.72-6.73l3.59,.88c.54,.09,.84,.26,.84,.53,0,.4-.42,.75-1.17,1.01-.67,1.5-1.42,2.9-2.34,4.31h10.99v3.43h-15.59l-1.42,3.78h11.79v25.79h-3.59v-1.89h-18.1v1.89h-3.59v-25.79h9.7l1.42-3.78h-16.68v-3.43h10.41c-1-1.76-2.09-3.39-3.22-4.84l2.59-2.2c1.67,1.85,3.34,4.22,5.02,7.04Zm12.45,14.08v-3.43h-18.1v3.43h18.1Zm0,6.86v-3.61h-18.1v3.61h18.1Zm0,6.73v-3.43h-18.1v3.43h18.1Z"/><path class="cls-1" d="M81.08,132.48c.67,.09,1,.26,1,.57,0,.22-.25,.57-.67,1.01v6.03h6.35v3.61h-17.14v-3.61h7.02v-7.92l3.43,.31Zm5.02,13.82c.58,.13,.88,.35,.88,.66,0,.35-.33,.7-1,1.06l-3.01,14.61c1.59-.31,3.22-.66,4.81-1.06v3.43c-3.13,.88-8.07,2.07-14.84,3.48-.29,.53-.58,.84-.84,.84-.29,0-.46-.26-.5-.7l-.96-4.09c2.84-.31,5.68-.7,8.44-1.19l3.8-17.74,3.22,.7Zm-8.28,14.61l-3.43,.66c-.92-5.32-2.09-10.25-3.43-14.79l3.43-.66c1.59,5.1,2.76,10.03,3.43,14.79Zm19.85-28.43c.67,.09,1.04,.26,1.04,.57,0,.22-.29,.57-.79,1.01v6.03h10.28v3.61h-10.28v7.92h9.28v20.11h-3.76v-2.77h-11.41v2.77h-3.76v-20.11h5.73v-19.45l3.68,.31Zm5.77,32.87v-10.12h-11.41v10.12h11.41Z"/><path class="cls-1" d="M87.47,194.26v-4.09l3.68,.26c.67,.09,1.04,.26,1.04,.57,0,.26-.29,.62-.84,1.06v2.2h15.67v3.61h-15.67v2.95h11.29v16.85h-9.53c2.09,1.72,4.18,3.08,6.31,4.05,2.26,1.14,5.48,2.24,9.57,3.34l-3.89,3.78c-3.43-1.41-6.1-2.73-8.02-4.14-2.01-1.28-3.93-2.86-5.73-4.8v9.07h-3.89v-8.89c-2.01,2.02-4.01,3.7-5.98,4.97-2.3,1.41-5.06,2.68-8.23,3.78l-3.26-3.48c3.89-1.1,7.27-2.42,10.16-3.96,1.67-.88,3.43-2.11,5.35-3.74h-8.99v-16.85h10.95v-2.95h-15.67v-3.61h15.67Zm0,13.42v-3.43h-7.19v3.43h7.19Zm0,3.26h-7.19v3.3h7.19v-3.3Zm3.89-3.26h7.52v-3.43h-7.52v3.43Zm7.52,3.26h-7.52v3.3h7.52v-3.3Z"/><path class="cls-1" d="M79.45,251.51l-2.42,2.77c-2.01-1.76-4.22-3.39-6.56-4.84l2.63-2.73c2.51,1.5,4.6,3.12,6.35,4.8Zm.84,10.17c-1.84,3.87-3.8,7.48-5.89,10.83,0,.88-.29,1.36-.79,1.36l-3.13-2.73c2.76-3.7,5.27-7.83,7.52-12.41l2.3,2.95Zm.63-21.17l-2.42,2.77c-1.88-1.76-3.89-3.39-6.06-4.84l2.63-2.73c2.3,1.5,4.26,3.12,5.85,4.8Zm10.03-5.28c.5,.09,.75,.26,.75,.48,0,.35-.38,.62-1.13,.84-.42,.84-.84,1.63-1.25,2.42h18.06v3.43h-20.1c-1.5,2.29-3.18,4.53-5.01,6.73l-3.26-1.76c3.8-4.05,6.65-8.41,8.48-13.03l3.47,.88Zm14.63,10.61c0,3.7-.04,6.91-.08,9.64h3.51v3.43h-3.59c-.12,2.9-.25,5.06-.42,6.56h2.55v3.43h-3.09c-.42,1.76-1.04,3.04-1.88,3.83-1.17,1.1-3.18,1.67-5.98,1.67l-1.8-3.96c2.92,0,4.64-.31,5.22-.97,.13-.13,.25-.31,.42-.57h-15.17c-.04,.18-.08,.26-.08,.35h-3.59c.84-3.3,1.63-6.73,2.34-10.34h-3.8v-3.43h4.43c.5-3.12,1-6.34,1.42-9.64h19.6Zm-9.53,19.63c-1.76-1.36-3.64-2.64-5.64-3.78l2.3-2.42c2.3,1.32,4.26,2.68,5.85,4.14l-1.84,2.07h4.64c.17-1.23,.33-3.43,.46-6.56h-14.29c-.46,2.29-.92,4.49-1.38,6.56h9.91Zm.58-9.99c-1.63-1.28-3.39-2.42-5.27-3.43l2.3-2.42c2.17,1.23,4.05,2.46,5.56,3.79l-1.84,2.07h4.51c0-1.85,.04-3.92,.08-6.21h-12.87c-.33,2.16-.63,4.22-.96,6.21h8.48Z"/><path class="cls-1" d="M107.03,280.06v38.15h-3.43v-1.36h-28.09v1.36h-3.43v-38.15h34.94Zm-3.43,33.31v-29.88h-28.09v29.88h28.09Zm-13.33-24.91c-.04-1.41-.04-2.82-.04-4.31l3.13,.7c.42,.09,.63,.26,.63,.53,0,.31-.17,.66-.5,1.01,0,.7,0,1.41,.04,2.07h4.89c-1-1.14-1.92-2.02-2.8-2.73l2.13-2.07c1.09,.84,2.17,1.85,3.26,3.08l-1.92,1.72h3.05v3.08h-8.48c.17,3.34,.58,6.25,1.17,8.71,.13,.53,.29,1.01,.46,1.45,0-.04,.04-.09,.04-.09,1.25-2.29,2.17-4.84,2.76-7.66l3.01,.92c.33,.13,.54,.26,.54,.44,0,.26-.21,.57-.63,.88-1.09,3.87-2.38,6.87-3.89,8.89-.08,.13-.17,.22-.21,.31,.21,.4,.42,.7,.63,.97,.5,.71,.96,1.01,1.34,1.01,.33,0,.88-1.23,1.63-3.78l2.63,2.38c-1.59,4.05-2.97,6.03-4.1,6.03-.92,0-2.09-.79-3.47-2.38-.38-.44-.71-.97-1.04-1.5-1.42,1.41-3.09,2.73-5.1,4.05l-2.63-2.24c1.8-1.06,3.3-2.16,4.56-3.3,.54-.48,1.09-1.01,1.59-1.58-.59-1.41-1.09-2.91-1.5-4.58-.5-2.29-.88-5.28-1.04-8.93h-13.37v-3.08h13.25Zm-1,19.27c-2.17,.53-5.56,1.19-10.16,2.02-.25,.48-.54,.7-.79,.7s-.38-.18-.38-.57l-.75-3.57c4.1-.35,8.15-.92,12.08-1.72v3.12Zm-.5-13.77v9.46h-10.62v-9.46h10.62Zm-3.09,2.9h-4.43v3.61h4.43v-3.61Z"/><path class="cls-1" d="M81.58,333.87c.33,.18,.5,.31,.5,.48,0,.31-.25,.62-.67,.88-2.22,6.6-4.56,12.1-7.02,16.5l-4.1-2.07c3.13-4.84,5.64-10.69,7.52-17.56l3.76,1.76Zm10.53-10.52c.5,.04,.75,.22,.75,.53,0,.35-.33,.75-1,1.19v31.82c0,1.85-.58,3.26-1.67,4.14-.92,.88-3.26,1.36-6.98,1.36l-1.63-4.14h4.05c1.42,0,2.17-.75,2.3-2.25v-33.18l4.18,.53Zm11.54,17.6c1.04,2.73,2.67,5.63,4.89,8.71l-4.26,2.07c-1.67-2.95-3.01-5.81-4.05-8.58-1.21-3.12-2.13-6.51-2.8-10.17l3.59-.88c.67,3.3,1.55,6.25,2.63,8.84Z"/><path class="cls-1" d="M17.3,8.62V0l3.68,.31c.67,.09,1.04,.26,1.04,.57,0,.22-.29,.57-.84,1.01v6.73h12.91V28.21h-3.93v-2.6h-8.99v14.13h-3.89v-14.13H8.48v2.6h-3.93V8.62h12.75Zm0,13.2V12.41H8.48v9.42h8.82Zm3.89,0h8.99V12.41h-8.99v9.42Z"/><path class="cls-1" d="M15.17,48c-1.17,.53-2.3,.92-3.43,1.28v7.79h6.52v3.61h-5.43c1.5,2.99,3.3,5.46,5.43,7.39l-2.92,3.26c-1.34-1.85-2.55-3.92-3.59-6.16v18.57h-3.59v-17.08c-.38,1.19-.71,2.16-1.04,2.95-.92,2.2-2.17,4.53-3.68,6.91l-3.26-3.12c1.63-1.94,3.05-4.05,4.26-6.34,.67-1.32,1.5-3.43,2.47-6.38H.96v-3.61h7.19v-6.78c-1.46,.4-2.93,.7-4.39,.92l-2.47-3.61c2.76-.18,5.1-.53,7.02-1.1,1.75-.35,3.93-1.14,6.52-2.33l2.67,2.77c.17,.18,.25,.4,.25,.66s-.17,.35-.46,.35l-1.04-.22c-.33,0-.67,.09-1.09,.26Zm18.43-3.52c.67,.09,1,.26,1,.57,0,.22-.25,.57-.67,1.01v21.83c1.46-.44,2.88-.92,4.26-1.36v3.78l-4.26,1.28v12.15h-3.76v-11.05l-9.45,2.77c-.42,.92-.84,1.36-1.17,1.36-.25,0-.42-.22-.58-.7l-1.34-3.92c4.18-.88,8.36-1.98,12.54-3.21v-24.82l3.43,.31Zm-6.52,19.63l-2.59,2.6c-1.92-2.11-3.76-3.83-5.56-5.15l2.42-2.42c1.96,1.41,3.89,3.04,5.73,4.97Zm1-10.83l-2.63,2.6c-2.01-2.07-3.97-3.74-5.89-4.97l2.47-2.42c2.09,1.32,4.1,2.95,6.06,4.8Z"/><path class="cls-1" d="M18.26,89.41v16.33H5.85v22H2.09v-38.33H18.26Zm-3.76,6.51v-3.26H5.85v3.26H14.5Zm0,6.56v-3.48H5.85v3.48H14.5Zm22.69-13.07v33.84c0,1.94-1,3.21-2.97,3.79-1.59,.44-3.18,.7-4.68,.7l-1.46-3.96,3.76-.09c1.04-.04,1.59-.57,1.59-1.63v-16.33h-12.08v-16.33h15.84Zm-3.76,6.69v-3.43h-8.32v3.43h8.32Zm0,3.08h-8.32v3.3h8.32v-3.3Z"/><path class="cls-1" d="M30.89,136.49c-6.23,.92-13.37,1.76-21.44,2.46v3.87h25.33v16.5h-3.93v-2.2H9.32c-.08,1.28-.13,2.38-.21,3.3-.38,2.64-1.09,5.15-2.17,7.44-.71,1.5-1.71,3.04-3.05,4.71l-3.59-2.55c1.04-1.19,1.8-2.16,2.26-2.86,1-1.58,1.67-3.17,2.09-4.84,.58-2.46,.88-6.07,.88-10.87v-16.85l2.59,.88c4.14-.26,8.11-.57,11.91-1.01,4.51-.53,8.69-1.32,12.62-2.29l2.67,2.99c.25,.26,.42,.62,.42,.97,0,.26-.12,.35-.33,.35l-1.13-.31c-.75,0-1.88,.13-3.39,.31Zm-.04,17.03v-7.04H9.45v7.04H30.84Z"/><path class="cls-1" d="M10.28,213.36c-1.92,3.87-3.93,7.48-6.06,10.83,0,.92-.29,1.36-.79,1.36l-3.13-2.73c2.84-3.7,5.39-7.79,7.69-12.37l2.3,2.9Zm-1.17-12.54l-2.59,2.9c-1.71-2.2-3.55-4.18-5.56-5.99l2.8-2.77c2.09,1.85,3.89,3.83,5.35,5.85Zm14.13,8.89c.38,.18,.58,.4,.58,.57,0,.26-.25,.44-.67,.48-.63,.97-1.25,1.89-1.92,2.77h9.7c.58-.44,.96-.7,1.04-.7,.25,0,.54,.18,.84,.44l1.92,1.89c.25,.26,.38,.53,.38,.79s-.42,.62-1.17,1.01c-1.75,2.95-3.64,5.24-5.68,6.91,2.67,1.06,6.14,2.11,10.41,3.08l-3.09,3.43c-4.51-1.36-8.15-2.77-10.91-4.18-3.38,1.72-8.02,3.12-13.92,4.18l-2.42-3.43c3.51-.48,6.31-.97,8.48-1.5,1.59-.4,2.97-.88,4.22-1.41-.04,0-.08,0-.08-.04-1.92-1.28-3.43-2.95-4.47-5.06-1.42,1.36-2.88,2.6-4.39,3.7l-2.63-3.08c4.35-2.46,7.94-6.16,10.78-11l3.01,1.14Zm-1.55-15.58v-3.65l3.72,.31c.67,.09,1,.26,1,.57,0,.22-.29,.57-.79,1.01v1.76h9.15v3.26h-9.15v3.61h12.41v3.26h-8.32v2.42c0,1.28,.38,1.89,1.13,1.89h3.09c.29,0,.54-.13,.71-.44,.17-.18,.29-.97,.46-2.33l3.55,1.06c-.29,1.98-.75,3.26-1.38,3.83-.67,.66-1.5,.97-2.51,.97h-4.6c-2.72,0-4.05-1.01-4.05-3.08v-4.31h-5.77c-.25,1.41-.58,2.55-1.04,3.48-.75,1.32-1.59,2.33-2.59,3.08-1,.84-2.42,1.58-4.18,2.2l-3.43-2.9c1.92-.44,3.3-.97,4.22-1.54,1-.57,1.84-1.32,2.42-2.2,.42-.62,.75-1.32,.92-2.11h-6.9v-3.26h11.91v-3.61H12.41v-3.26h9.28Zm2.42,27.86c.12,.09,.25,.18,.42,.22,.08-.04,.17-.09,.25-.18,1.75-1.23,3.34-3.04,4.81-5.41h-10.53c.92,2.29,2.63,4.05,5.06,5.37Z"/><path class="cls-1" d="M20.9,235.14c.63,.09,.96,.26,.96,.57,0,.22-.25,.57-.67,1.01v3.26h16.34v13.25h-3.76v-9.77h-9.45v4.8c0,1.14,.42,1.72,1.3,1.72h2.3c.5,0,.92-.13,1.21-.48,.25-.26,.5-1.19,.75-2.77l3.55,1.01c-.33,2.29-.88,3.74-1.59,4.4-.75,.75-1.75,1.1-2.97,1.1h-4.1c-2.72,0-4.05-1.01-4.05-3.08v-6.69H5.22v9.77H1.46v-13.25H17.47v-5.15l3.43,.31Zm11.41,21.52v3.61h-10.95v8.45h16.17v3.78H1.46v-3.78H17.47v-8.45H6.85v-3.61h25.45Zm-15.34-10.78c.42,.18,.67,.4,.67,.66s-.33,.48-1,.7c-1.17,1.5-2.26,2.82-3.34,4-.96,1.01-2.38,2.2-4.31,3.52l-2.97-2.73c1.67-.88,3.13-1.89,4.39-3.12,1.17-1.1,2.38-2.51,3.64-4.27l2.93,1.23Z"/><path class="cls-1" d="M14.71,292.6c.42,.13,.63,.31,.63,.53,0,.13-.13,.31-.33,.48-.5,.18-1.46,1.32-2.8,3.48-.17,.26-.33,.48-.46,.66v20.29h-3.76v-15.4c-1.25,1.41-2.55,2.73-3.93,4.05l-3.43-2.07c4.47-3.65,8.11-8.05,10.95-13.25l3.13,1.23Zm-3.3-9.29v-4.49l3.3,.31c.63,.09,.96,.26,.96,.57,0,.18-.25,.48-.67,.84v2.77h9.15v-4.49l3.43,.31c.63,.09,.96,.26,.96,.57,0,.22-.21,.57-.63,1.01v2.6h10.11v3.61h-10.11v3.78h-3.76v-3.78H15v3.78h-3.59v-3.78H.79v-3.61H11.41Zm24.07,15.84c.17,.22,.25,.44,.25,.66,0,.26-.38,.35-1.13,.35-4.01,1.98-8.23,3.92-12.58,5.76v4.71c0,1.23,.17,2.2,.54,2.82,.33,.53,1.04,.79,2.22,.79h6.06c.92,0,1.67-.26,2.17-.79,.5-.48,.92-1.94,1.25-4.36l3.59,1.72c-.58,3.04-1.25,4.97-2.01,5.85-.71,.79-1.55,1.19-2.55,1.19h-9.99c-1.67,0-2.97-.57-3.89-1.67-.79-1.06-1.17-2.55-1.17-4.53v-20.11l4.43,.57c.5,.09,.79,.31,.79,.66s-.29,.79-.79,1.23c-.46,.31-.67,.79-.67,1.5v6.69c4.1-1.94,7.69-3.96,10.78-5.99l2.67,2.95Z"/><path class="cls-1" d="M37.03,324.06v38.15h-3.43v-1.23H5.39v1.23H1.96v-38.15H37.03Zm-3.43,33.49v-30.06H5.39v30.06h28.21Zm-4.72-18.7v7.22h-6.77c.75,1.32,1.63,2.46,2.63,3.39,1.67-.97,3.09-1.94,4.3-2.9l2.09,2.24c.12,.18,.21,.35,.21,.53,0,.26-.33,.35-1,.35-1.04,.53-2.09,1.06-3.18,1.58,1.46,.88,3.39,1.76,5.81,2.68l-3.26,2.77c-3.39-1.8-5.77-3.57-7.15-5.24-1.25-1.41-2.3-3.21-3.18-5.41h-.79c-.67,.7-1.34,1.36-1.96,1.89v4.88c2.01-.35,3.8-.7,5.39-1.1l.33,2.73c-3.51,.97-6.64,1.72-9.49,2.25-.21,.35-.38,.53-.46,.53-.21,0-.38-.18-.54-.53l-1.59-2.95c1.17-.13,2.26-.26,3.26-.44v-3.08c-1.42,.88-3.05,1.58-4.89,2.16l-2.63-2.73c2.51-.66,4.72-1.45,6.56-2.38,.67-.31,1.42-.7,2.17-1.23h-4.64v-7.22H28.88Zm-11.24-8.62v-2.07l3.18,.26c.58,.04,.88,.18,.88,.44,0,.22-.21,.57-.63,1.01v.35h8.65v2.77h-8.65v1.54h10.57v2.9H7.02v-2.9h10.62v-1.54H9.11v-2.77h8.53Zm7.98,11.35H13.37v1.72h12.25v-1.72Z"/><path class="cls-1" d="M38.03,400.18v3.96H.79v-3.96H38.03Zm-1.96-30.23v3.78H3.26v-3.78H36.07Zm-2.47,14.43v3.79H5.68v-3.79h27.92Z"/><path class="cls-1" d="M32.14,414.26c-6.19,1.14-14.04,1.72-23.66,1.72v1.76h26.62v9.77H8.48c0,1.5-.04,2.82-.08,3.96h11.16v-3.61l3.43,.31c.67,.04,1,.22,1,.57,0,.22-.25,.57-.67,1.01v1.72h14.71v3.43H18.93c-.17,1.14-.33,2.24-.54,3.26h16.84c-.17,3.56-.46,6.25-.88,8.01-.42,1.72-1.21,2.9-2.38,3.61-1.04,.62-3.09,1.01-6.19,1.28l-1.96-3.61,4.01-.35c1.67-.18,2.72-.79,3.13-1.85,.25-.79,.46-2.02,.58-3.61h-14.13c-.42,1.14-.83,2.16-1.34,3.08-1.3,2.38-3.3,4.49-5.98,6.34l-3.43-2.55c2.67-1.67,4.6-3.48,5.85-5.5,1.17-1.85,2.05-4.58,2.59-8.1h-6.9c-.04,.44-.08,.84-.08,1.19-.33,2.95-.96,5.68-1.96,8.23-.67,1.67-1.59,3.34-2.76,5.19l-3.43-2.38c.92-1.32,1.59-2.38,2.01-3.21,.88-1.8,1.5-3.65,1.92-5.5,.5-2.77,.79-6.87,.79-12.28v-14.43l2.3,.84h3.09c8.65,0,16.59-.79,23.82-2.38l2.84,2.99c.17,.13,.25,.4,.25,.79,0,.22-.08,.31-.17,.31-.33,0-.63-.04-.92-.18-.5-.09-.83-.13-1-.13-.58,0-1.55,.13-2.8,.31Zm-.79,9.81v-2.9H8.48v2.9H31.35Z"/></g></g></svg>