<?xml version="1.0" encoding="UTF-8"?><svg id="_層_2" xmlns="http://www.w3.org/2000/svg" viewBox="0 0 320.45 525.67"><defs><style>.cls-1{fill:#231815;}</style></defs><g id="_層_1-2"><g><path class="cls-1" d="M298.46,1.94c.31,.22,.48,.43,.48,.72s-.14,.43-.41,.43c-.48,0-.79,.22-.99,.58-2.56,3.92-4.96,6.84-7.15,8.71-.24,0-.41-.11-.55-.32-.38-.43-.72-.83-1.06-1.12-.21-.18-.27-.32-.27-.4,0-.14,.03-.25,.17-.32,.75-.47,1.5-1.12,2.26-1.98,1.03-1.01,2.02-2.12,2.91-3.38,.79-1.26,1.47-2.59,2.09-3.96,.14-.32,.24-.5,.34-.5l2.19,1.55Zm1.16,8.31c0,.36-.21,.61-.55,.68-.34,.14-.55,.29-.62,.5-.96,1.62-1.88,3.02-2.84,4.21v16.95c0,.29-.21,.43-.55,.43h-1.33c-.38,0-.55-.14-.55-.43v-14.15c-.82,.9-1.78,1.84-2.8,2.77-.68-.79-1.23-1.37-1.57-1.66-.21-.22-.31-.36-.31-.47,0-.04,.03-.11,.14-.25,1.92-1.4,3.62-3.1,5.1-5.08,1.16-1.44,2.26-3.2,3.32-5.26,.07-.14,.17-.25,.27-.25,.14,0,.89,.68,2.29,1.98Zm11.63,5.47c0,.32-.14,.5-.34,.54-.24,.04-.34,.29-.34,.72v3.53h6.16c.24,0,.38,.22,.38,.58v1.12c0,.4-.14,.58-.38,.58h-6.16v6.88c3.21,0,6.39-.22,9.47-.58,.17,0,.27,.11,.27,.29-.34,.94-.62,1.69-.75,2.27-.07,.25-.21,.4-.44,.4h-9.03c-1.37,0-2.53-.11-3.49-.25-1.16-.29-2.02-.65-2.53-1.04-.75-.54-1.33-1.15-1.74-1.91-.03-.04-.07-.07-.07-.14-.17,.54-.34,1.01-.55,1.4-.55,1.22-1.27,2.23-2.09,2.95-.27,0-.41-.07-.48-.18-.31-.29-.68-.58-1.09-.79-.21-.18-.31-.32-.31-.43,0-.18,.07-.29,.21-.36,.79-.79,1.4-1.62,1.81-2.48,.48-.83,.82-1.84,1.06-3.06,.44-1.73,.68-4.21,.68-7.49,0-.36,.07-.54,.24-.54l2.05,.14c.41,0,.62,.14,.62,.43,0,.43-.17,.65-.44,.68-.34,.07-.48,.29-.48,.72-.07,2.3-.21,4.1-.41,5.47,.24,1.12,.55,1.94,.92,2.48,.41,.61,.96,1.08,1.68,1.4,.62,.29,1.44,.47,2.5,.54V15.73c0-.25,.17-.4,.51-.4,1.71,0,2.56,.14,2.56,.4Zm-4.51-14.11c.21,.22,.34,.36,.34,.47,0,.22-.1,.36-.24,.43-.27,0-.44,.18-.51,.47-.41,1.58-.75,2.84-1.06,3.78,.55,.86,1.03,1.51,1.5,2.02,.48,.58,1.2,1.15,2.15,1.8,.1,.14,.17,.29,.17,.36,0,.22-.44,.76-1.33,1.69-.07,0-.14,0-.24-.07-1.3-1.19-2.36-2.34-3.18-3.42-.38,.94-.75,1.8-1.16,2.59-.58,1.01-1.2,1.94-1.85,2.74-.27,0-.51-.04-.72-.11-.44-.18-.89-.36-1.33-.5-.14-.07-.21-.14-.21-.22,0-.14,.03-.25,.1-.32,.99-1.19,1.88-2.66,2.7-4.46,.48-1.01,.85-2.09,1.2-3.24,.38-1.19,.75-2.74,1.09-4.61,.07-.22,.14-.32,.24-.32l2.33,.94Zm9.06-.14c.24,.22,.38,.36,.38,.47,0,.22-.1,.36-.27,.43-.21,0-.34,.14-.34,.43-.34,1.51-.62,2.74-.89,3.71,.62,.94,1.16,1.69,1.64,2.2,.62,.79,1.68,1.66,3.21,2.59,.17,.07,.27,.14,.27,.22s-.1,.18-.27,.29c-.24,.36-.58,.76-.99,1.12-.14,.22-.27,.29-.34,.29-.14,0-.31-.04-.51-.14-1.03-.76-1.95-1.62-2.74-2.59-.34-.43-.68-.94-1.03-1.48-.27,.79-.58,1.58-.85,2.3-.44,.97-.92,1.84-1.44,2.59-.27,0-.51-.04-.72-.11-.44-.18-.89-.36-1.33-.5-.14-.07-.21-.14-.21-.22,0-.14,0-.22,.07-.29,.75-1.15,1.47-2.59,2.09-4.32,.34-.94,.68-1.98,.96-3.13,.27-1.15,.58-2.66,.85-4.5,.03-.18,.1-.29,.17-.29l2.29,.94Z"/><path class="cls-1" d="M303.08,37.69c0,.25-.17,.36-.44,.36-.34,0-.48,.11-.48,.32-.99,2.23-2.22,4.79-3.73,7.63-.72,1.37-1.47,2.66-2.26,3.85,5.68-.54,11.35-1.26,17.03-2.2-1.03-1.91-2.26-3.78-3.69-5.62,0-.18,.65-.61,1.98-1.26,1.71,2.38,3.08,4.54,4.1,6.48,1.03,1.8,1.88,3.71,2.6,5.72,0,.14-.82,.43-2.43,.86-.27-1.12-.75-2.45-1.44-3.96-6.63,.97-14.02,1.87-22.09,2.66-.38,0-.68,.22-.89,.58-.1,.4-.27,.58-.55,.58s-.85-1.08-1.74-3.24c1.5-.07,3.04-.22,4.55-.36,1.64-2.88,3.15-5.94,4.51-9.11,.62-1.55,1.09-3.06,1.44-4.5,0-.14,.14-.22,.34-.22,2.12,.72,3.18,1.19,3.18,1.4Zm10.98,16.99c.34,0,.51,.14,.51,.43v13.64c0,.29-.17,.43-.51,.43h-1.33c-.38,0-.55-.14-.55-.43v-1.84h-16.45v1.69c0,.29-.17,.43-.51,.43h-1.33c-.38,0-.55-.14-.55-.43v-13.35c0-.36,.17-.58,.55-.58h20.18Zm-1.88,10.01v-7.74h-16.45v7.74h16.45Z"/><path class="cls-1" d="M291.93,82.8c.75,.58,1.4,1.12,1.95,1.58,0,.04-.07,.11-.17,.25-.68,.94-1.03,1.4-1.03,1.4-.82-.72-1.71-1.4-2.6-2.02-.75-.5-1.33-.86-1.81-1.08,0-.11,.31-.58,.92-1.44,.07-.14,.17-.22,.27-.22,.99,.54,1.81,1.04,2.46,1.51Zm.51-7.59c.68,.65,1.3,1.19,1.81,1.69,0,.07-.07,.14-.14,.29-.68,.94-1.03,1.4-1.06,1.4-.75-.79-1.57-1.51-2.43-2.2-.68-.54-1.27-.94-1.71-1.15,0-.14,.31-.61,.96-1.48,.07-.14,.17-.22,.24-.22,.96,.61,1.71,1.15,2.33,1.66Zm1.37,15.48c.55,1.26,.85,1.91,.85,1.98,0,.18-.03,.36-.1,.5-.65,2.63-1.27,4.86-1.81,6.7-.34,1.04-.72,2.16-1.16,3.38-.1,.32-.14,.72-.14,1.22,0,.29-.1,.43-.24,.43-.17,0-.85-.72-2.05-2.16-.14-.07-.21-.22-.24-.36,0-.22,.03-.36,.1-.5,.41-.65,.85-1.48,1.33-2.48,.62-1.37,1.2-2.88,1.78-4.61,.48-1.48,.92-2.84,1.33-4.1,0-.18,.07-.29,.14-.29,.1,0,.17,.11,.21,.29Zm3.56-4.72c.24,.11,.38,.22,.38,.36s-.07,.22-.14,.29c-.14,0-.24,.11-.24,.25-.34,1.44-.72,2.52-1.06,3.28-.07,.18-.14,.25-.17,.25-.14,0-.27-.04-.44-.14-.34-.14-.65-.29-.96-.43-.14-.04-.21-.07-.21-.11s0-.11,.07-.18c.27-.68,.51-1.3,.65-1.84,.21-.68,.38-1.37,.51-2.05,0-.18,.03-.29,.1-.29l1.5,.61Zm3.45-12.13c.07,.14,.14,.25,.14,.25,0,.18-.14,.25-.38,.25-.38,0-.62,.11-.68,.32-.62,1.15-1.2,2.16-1.74,3.1,.38,.47,.75,.94,1.13,1.37,.03-.07,.07-.11,.1-.18,.72-1.04,1.33-2.02,1.85-2.88,1.13,1.04,1.71,1.62,1.71,1.69s-.07,.11-.21,.11c-.31,0-.48,.07-.55,.14-1.09,1.58-2.19,3.06-3.25,4.39,.75-.04,1.61-.07,2.56-.11-.17-.4-.34-.79-.55-1.15,0-.11,.38-.4,1.2-.86,.38,.79,.72,1.51,.99,2.16,.21,.61,.41,1.26,.62,1.94,0,.04-.51,.18-1.47,.4-.07-.36-.21-.83-.38-1.4l-1.78,.29v6.19c0,.22-.14,.29-.38,.29h-1.09c-.27,0-.38-.07-.38-.29v-5.87l-2.43,.4c-.48,.47-.72,.68-.79,.68s-.21-.79-.41-2.38c0-.04,.72-.11,2.15-.18,.72-.94,1.3-1.73,1.78-2.41-.75-.72-1.3-1.26-1.68-1.62-.62-.47-1.3-.9-1.98-1.3,0-.14,.31-.54,.99-1.26,.07-.07,.14-.14,.21-.14,.31,.29,.62,.58,.96,.86,.27-.5,.55-.97,.75-1.48,.48-1.01,.85-1.8,1.09-2.34l1.88,1.01Zm16.04,17.85c.34,0,.51,.14,.51,.4v4.25c0,.36-.17,.54-.51,.54h-16.45c-.14,.58-.24,1.08-.38,1.55h18.53c.44,0,.68,.11,.68,.29-.41,1.51-.79,2.74-1.2,3.64-.55,1.19-1.09,1.94-1.64,2.27-.68,.36-1.92,.58-3.69,.58-2.5,0-3.86-.25-4.1-.76-.21-.65-.58-1.26-1.13-1.8,0-.29,.07-.4,.27-.4,2.05,.25,3.93,.4,5.61,.4,1.16,0,1.92-.25,2.33-.76,.24-.36,.51-.9,.79-1.62h-17.06c-.31,.86-.62,1.58-.96,2.27-.07,.14-.14,.25-.17,.25-.21,0-.38-.04-.55-.07-.48-.07-.99-.18-1.47-.29-.21-.04-.27-.11-.27-.18,.48-.86,.79-1.55,.92-1.98,.34-.72,.65-1.58,.92-2.52,.27-.97,.48-2.02,.62-3.1,0-.18,.1-.29,.34-.29,.62,.32,1.09,.54,1.4,.68h14.77v-1.55h-16.96c-.21,0-.27-.18-.27-.54v-.86c0-.25,.07-.4,.27-.4h18.84Zm-14.43-6.48c.41,1.01,.82,2.09,1.2,3.24,0,.25-.07,.4-.17,.4-.55,.4-.99,.58-1.3,.58-.34-1.4-.65-2.59-.92-3.53,0-.18,.34-.47,1.06-.83,.07,0,.1,.07,.14,.14Zm8.55-8.71c.17,0,.27,.14,.27,.4v.86c0,.29-.1,.43-.27,.43h-7.22c-.21,0-.27-.14-.27-.43v-.86c0-.25,.07-.4,.27-.4h7.22Zm-.41-2.81c.17,0,.27,.11,.27,.25v.86c0,.29-.1,.43-.27,.43h-6.15c-.17,0-.24-.14-.24-.43v-.86c0-.14,.07-.25,.24-.25h6.15Zm-.14,5.9c.17,0,.27,.11,.27,.29v.83c0,.29-.1,.43-.27,.43h-5.88c-.21,0-.27-.14-.27-.43v-.83c0-.18,.07-.29,.27-.29h5.88Zm0,2.66c.17,0,.27,.11,.27,.29v.83c0,.29-.1,.43-.27,.43h-5.88c-.21,0-.27-.14-.27-.43v-.83c0-.18,.07-.29,.27-.29h5.88Zm0,2.81c.27,0,.41,.11,.41,.29v4.64c0,.22-.14,.29-.41,.29h-5.74c-.27,0-.41-.07-.41-.29v-4.64c0-.18,.14-.29,.41-.29h5.74Zm-1.47,1.55h-2.8v2.12h2.8v-2.12Zm8.17-12.63c.07,.14,.1,.25,.1,.25,0,.18-.14,.25-.38,.25-.38,0-.62,.11-.68,.32-.65,1.01-1.23,1.94-1.78,2.74,.38,.47,.75,.94,1.13,1.4,0-.04,.03-.07,.07-.11,.82-1.12,1.5-2.12,2.05-3.06,1.16,1.04,1.74,1.62,1.74,1.69,0,.11-.1,.14-.27,.14-.34,0-.55,.07-.62,.14-1.16,1.66-2.33,3.17-3.42,4.5,.75-.04,1.57-.11,2.46-.22-.17-.4-.34-.79-.55-1.19,0-.11,.38-.4,1.2-.86,.38,.79,.68,1.51,.96,2.16,.24,.61,.44,1.26,.65,1.94,0,.07-.51,.18-1.47,.4-.07-.36-.21-.79-.38-1.37l-1.5,.36v6.37c0,.22-.14,.29-.41,.29h-1.06c-.27,0-.41-.07-.41-.29v-5.9l-2.12,.54c-.48,.5-.75,.72-.82,.72s-.17-.79-.38-2.38c0-.07,.51-.18,1.61-.32,.79-1.01,1.44-1.87,1.98-2.63-.65-.65-1.13-1.12-1.47-1.44-.58-.47-1.2-.9-1.88-1.26,0-.14,.31-.54,.99-1.26,.07-.07,.14-.14,.24-.14,.21,.22,.44,.4,.65,.61,.27-.43,.55-.9,.79-1.33,.48-.94,.85-1.62,1.09-2.09l1.88,1.01Zm-3.28,11.99c.21,.11,.31,.22,.31,.36s-.03,.22-.07,.25c-.1,0-.17,.11-.17,.25-.24,1.33-.48,2.34-.68,3.06-.07,.18-.14,.25-.14,.25-.14,0-.24-.04-.38-.18-.34-.14-.62-.29-.89-.43-.14-.04-.21-.07-.21-.11s0-.11,.03-.18c.21-.65,.38-1.19,.48-1.69,.14-.65,.27-1.26,.34-1.91,0-.18,.03-.29,.1-.29l1.27,.61Zm4.58-.76c.55,1.08,1.03,2.27,1.47,3.53,0,.22-.07,.36-.14,.36-.55,.43-.99,.61-1.33,.61-.41-1.51-.82-2.81-1.2-3.82,0-.18,.34-.47,1.09-.83,.03,0,.07,.07,.1,.14Z"/><path class="cls-1" d="M302.94,118.4c.07-.43,.1-.9,.14-1.33,.21-2.3,.21-5.11,0-8.39l3.62,.43c0,.22-.1,.4-.31,.5-.34,.22-.51,.47-.51,.76-.07,3.38-.24,6.05-.44,8.03h13.54c.27,0,.41,.18,.41,.54v1.44c0,.36-.14,.54-.41,.54h-12.79c.41,1.73,.89,3.24,1.44,4.54,.58,1.62,1.27,3.06,2.05,4.36,1.16,1.94,2.63,3.64,4.34,5.08,1.5,1.37,3.21,2.38,5.13,3.02,.14,.07,.24,.18,.24,.32,0,.22-.14,.4-.38,.61-.48,.5-.89,1.01-1.3,1.58-.14,.29-.34,.47-.62,.47-.14,0-.62-.32-1.37-.9-2.5-1.66-4.58-3.53-6.26-5.69-1.3-1.73-2.33-3.49-3.01-5.29-.51-1.01-1.13-2.84-1.85-5.47-.17,.72-.34,1.44-.55,2.09-.62,1.91-1.44,3.74-2.39,5.47-.92,1.76-1.98,3.28-3.18,4.54-1.61,1.58-4,3.31-7.15,5.25-.21,0-.34-.14-.48-.43-.41-.5-.85-.97-1.33-1.4-.24-.22-.34-.4-.34-.58,.72-.32,1.68-.76,2.84-1.4,1.3-.76,2.36-1.51,3.25-2.3,1.16-.94,2.09-1.94,2.8-3.06,.92-1.22,1.74-2.63,2.5-4.28,.65-1.48,1.2-3.06,1.64-4.79,.14-.58,.24-1.15,.34-1.73h-13.1c-.27,0-.41-.18-.41-.54v-1.44c0-.36,.14-.54,.41-.54h13.47Z"/><path class="cls-1" d="M295.35,160.45c.41,0,.65,.14,.65,.43v9.39c0,.43,.03,.94,.1,1.55,.41,.86,.96,1.58,1.71,2.2,.89,.58,2.26,.9,4.07,.9h9.23c.79,0,2.15-.11,4.14-.32,1.78-.18,3.15-.4,4.1-.61,.14-.04,.27-.04,.44-.04,.14,0,.24,.07,.24,.29-.41,.79-.75,1.55-1.03,2.2-.07,.5-.27,.76-.68,.76h-16.45c-2.39,0-4.27-.61-5.68-1.76-.68-.65-1.27-1.55-1.78-2.7-1.09,1.08-2.05,2.02-2.87,2.92-.51,.29-.79,.68-.82,1.12,0,.36-.07,.58-.21,.58-.1,0-.24-.11-.44-.32l-1.68-2.63c.51-.07,2.02-1.04,4.51-2.99,.34-.14,.55-.54,.55-1.12v-7.59h-4.14c-.27,0-.41-.18-.41-.54v-1.15c0-.36,.14-.54,.41-.54h6.02Zm-1.98-6.37c.96,.58,1.81,1.12,2.5,1.58,0,.04-.07,.14-.17,.29-.65,1.04-.99,1.55-1.03,1.55-1.09-.72-2.22-1.4-3.42-2.05-.99-.5-1.81-.83-2.46-1.04,0-.14,.34-.65,1.06-1.58,.1-.14,.21-.25,.27-.25,1.3,.54,2.39,1.04,3.25,1.51Zm.89-7.67c.89,.65,1.64,1.19,2.29,1.66,0,.04-.07,.14-.17,.29-.68,1.04-1.03,1.55-1.03,1.55-.99-.79-2.05-1.48-3.15-2.12-.89-.5-1.64-.9-2.22-1.12,0-.11,.34-.65,1.06-1.58,.1-.14,.21-.25,.31-.25,1.16,.58,2.15,1.12,2.91,1.58Zm10.29,.61c.44,.61,.82,1.22,1.16,1.87h4.51c.68-.72,1.23-1.4,1.57-1.98,.55-.79,.99-1.58,1.27-2.45,.07-.22,.17-.32,.31-.32l2.05,.86c.31,.14,.48,.32,.48,.54,0,.14-.14,.25-.34,.32-.34,0-.51,.11-.58,.32-.55,1.08-1.09,1.98-1.61,2.7h4.14c.27,0,.41,.22,.41,.58v1.12c0,.4-.14,.58-.41,.58h-8.24c-.58,1.15-1.2,2.23-1.88,3.24h8.24c.34,0,.55,.14,.55,.43v18.11c0,.29-.21,.43-.55,.43h-1.33c-.34,0-.51-.14-.51-.43v-1.12h-10.7v1.12c0,.29-.17,.43-.51,.43h-1.33c-.38,0-.55-.14-.55-.43v-18.11c0-.29,.17-.43,.55-.43h3.52c.55-.65,.96-1.22,1.27-1.73,.27-.43,.58-.94,.85-1.51h-8.34c-.27,0-.38-.18-.38-.58v-1.12c0-.36,.1-.58,.38-.58h4.58c-.14-.22-.31-.47-.44-.68-.62-.86-1.4-1.76-2.39-2.66,0-.18,.62-.61,1.88-1.26,.96,1.01,1.78,1.91,2.39,2.74Zm9.23,12.42v-2.95h-10.7v2.95h10.7Zm0,5.08v-2.95h-10.7v2.95h10.7Zm0,5.22v-3.1h-10.7v3.1h10.7Z"/><path class="cls-1" d="M302.81,183.92v-3.53c0-.25,.17-.4,.55-.4,1.68,0,2.53,.14,2.53,.4,0,.36-.1,.54-.31,.54-.24,.07-.34,.32-.34,.76v2.23h12c.27,0,.41,.22,.41,.58v1.12c0,.4-.14,.58-.41,.58h-12v2.95h9.06c.34,0,.55,.14,.55,.4v12.67c0,.29-.21,.43-.55,.43h-9.06v3.1h13.61c.27,0,.41,.18,.41,.54v1.12c0,.4-.14,.58-.41,.58h-13.61v4.79c0,.29-.21,.43-.55,.43h-1.33c-.38,0-.55-.14-.55-.43v-4.79h-13.47c-.27,0-.41-.18-.41-.58v-1.12c0-.36,.14-.54,.41-.54h13.47v-3.1h-8.92c-.38,0-.55-.14-.55-.43v-12.67c0-.25,.17-.4,.55-.4h8.92v-2.95h-11.87c-.27,0-.41-.18-.41-.58v-1.12c0-.36,.14-.58,.41-.58h11.87Zm0,10.83v-3.38h-7.08v3.38h7.08Zm0,2.23h-7.08v3.38h7.08v-3.38Zm2.43-2.23h7.21v-3.38h-7.21v3.38Zm7.21,2.23h-7.21v3.38h7.21v-3.38Z"/><path class="cls-1" d="M293.16,227.91c.96,.65,1.78,1.22,2.46,1.73,0,.04-.07,.14-.21,.29-.75,1.12-1.13,1.66-1.16,1.66-1.03-.83-2.09-1.58-3.25-2.3-.96-.58-1.74-.97-2.36-1.19,0-.14,.34-.65,1.06-1.58,.1-.14,.21-.25,.27-.25,1.3,.61,2.36,1.15,3.18,1.66Zm3.18,6.23c.55,1.3,.85,2.02,.85,2.09,0,.22-.07,.4-.17,.54-1.16,2.74-2.26,5.08-3.28,7.02-.58,1.08-1.27,2.27-2.05,3.56-.17,.32-.24,.76-.24,1.26,0,.29-.1,.43-.24,.43-.21,0-.92-.76-2.19-2.27-.14-.07-.21-.22-.24-.4,0-.22,.03-.4,.17-.5,.68-.68,1.37-1.55,2.09-2.59,.96-1.44,1.88-3.06,2.8-4.86,.79-1.55,1.47-2.99,2.05-4.28,.07-.18,.17-.29,.24-.29,.1,0,.17,.11,.21,.29Zm-1.54-15.59c.96,.65,1.74,1.26,2.39,1.8,0,.04-.07,.14-.17,.32-.75,1.12-1.13,1.66-1.16,1.66-1.03-.86-2.09-1.69-3.18-2.41-.92-.58-1.68-1.01-2.29-1.26,0-.11,.34-.65,1.06-1.58,.1-.14,.21-.25,.27-.25,1.23,.65,2.26,1.22,3.08,1.73Zm8.96,15.84c0,.25-.1,.4-.31,.4-.27,.18-.38,.47-.38,.9v2.38c0,.94-.07,2.02-.17,3.17-.14,1.22-.41,2.34-.82,3.35-.38,.97-.89,1.84-1.5,2.63-.48,.65-1.2,1.33-2.15,2.12-.14,0-.27-.11-.38-.32-.34-.4-.72-.72-1.09-1.01-.21-.14-.27-.25-.27-.36,.99-.83,1.68-1.51,2.05-2.02,.41-.54,.79-1.15,1.06-1.87,.27-.72,.51-1.62,.68-2.77,.14-.94,.21-1.91,.21-2.92v-3.78c0-.29,.03-.43,.14-.43,1.95,.29,2.94,.47,2.94,.54Zm6.8-17.57c0,.32-.14,.5-.34,.54-.24,.04-.34,.29-.34,.72v2.56h9.1c.27,0,.41,.18,.41,.54v1.15c0,.36-.14,.54-.41,.54h-12.52c1.37,.5,2.09,.83,2.09,1.01,0,.25-.17,.36-.44,.36-.34,0-.48,.11-.48,.32-.62,1.04-1.37,2.23-2.33,3.56-.31,.43-.62,.83-.92,1.19,3.28-.29,6.53-.68,9.78-1.12-.62-.97-1.16-1.87-1.71-2.66,0-.22,.48-.61,1.47-1.12,.21,0,.31,.07,.38,.14,1.85,2.48,3.56,5.11,5.1,7.88,0,.36-.1,.54-.24,.54-.82,.58-1.44,.86-1.91,.86-.65-1.26-1.27-2.45-1.88-3.56-4.27,.61-8.99,1.15-14.19,1.66-.27,0-.48,.14-.62,.36-.1,.29-.27,.43-.55,.43-.24,0-.75-.97-1.57-2.95,1.16-.07,2.29-.14,3.45-.25,.96-1.4,1.81-2.88,2.6-4.43,.34-.76,.65-1.51,.89-2.23h-6.43c-.27,0-.41-.18-.41-.54v-1.15c0-.36,.14-.54,.41-.54h8.55v-3.82c0-.29,.17-.43,.55-.43,1.68,0,2.53,.14,2.53,.43Zm-1.2,17.57c0,.36-.14,.54-.34,.54-.24,.07-.34,.32-.34,.76v12.78c0,.29-.17,.43-.51,.43h-1.33c-.38,0-.55-.14-.55-.43v-14.07c0-.25,.17-.4,.55-.4,1.68,0,2.53,.14,2.53,.4Zm5.47,0c0,.22-.1,.43-.27,.72v10.26c0,.4,.07,.58,.27,.58h2.15c.44,0,.89-1.08,1.33-3.24l2.12,1.4c-.75,2.81-1.71,4.21-2.8,4.21h-3.73c-1.16,0-1.74-.58-1.74-1.69v-12.35c0-.29,.07-.43,.27-.43,1.57,.14,2.39,.32,2.39,.54Z"/><path class="cls-1" d="M294.39,254.81v-2.12c0-.18,.14-.29,.41-.29,1.57,0,2.39,.14,2.39,.43s-.1,.47-.24,.47c-.21,.04-.27,.25-.27,.65v.86h5.2c.17,0,.27,.14,.27,.43v1.12c0,.36-.1,.54-.27,.54h-5.2v2.56h4.41c.34,0,.51,.14,.51,.43v13.61c0,.29-.17,.43-.51,.43h-4.41v2.81h5.06c.27,0,.41,.22,.41,.58v1.12c0,.4-.14,.58-.41,.58h-5.06v5.62c0,.29-.21,.43-.55,.43h-1.33c-.27,0-.41-.14-.41-.43v-5.62h-5.2c-.27,0-.41-.18-.41-.58v-1.12c0-.36,.14-.58,.41-.58h5.2v-2.81h-4.41c-.34,0-.51-.14-.51-.43v-13.61c0-.29,.17-.43,.51-.43h4.41v-2.56h-5.33c-.21,0-.27-.18-.27-.54v-1.12c0-.29,.07-.43,.27-.43h5.33Zm0,10.69v-3.82h-2.67v3.82h2.67Zm0,1.94h-2.67v4.25h2.67v-4.25Zm2.29-1.94h2.67v-3.82h-2.67v3.82Zm2.67,1.94h-2.67v4.25h2.67v-4.25Zm10.94-12.92v-1.84c0-.18,.14-.29,.41-.29,1.57,0,2.39,.14,2.39,.43s-.1,.47-.27,.47c-.17,.04-.24,.25-.24,.65v.58h6.67c.17,0,.27,.14,.27,.43v1.12c0,.4-.1,.58-.27,.58h-6.67v2.66h5.61c.34,0,.51,.14,.51,.43v9.25c0,.29-.17,.43-.51,.43h-.03c.41,.65,.79,1.26,1.09,1.76,.48,.83,.85,1.69,1.2,2.59,0,.07-.65,.29-1.88,.58-.07-.4-.24-.86-.44-1.37-.89,.07-1.74,.11-2.63,.18-3.42,.29-6.91,.61-10.53,.9-.21,.61-.38,.94-.55,.97-.14,0-.24-.04-.31-.18l-.75-2.77c.99-.04,3.32-.18,6.94-.47v-2.2h-5.47c-.38,0-.55-.14-.55-.43v-9.25c0-.29,.17-.43,.55-.43h5.47v-2.66h-6.26c-.21,0-.27-.18-.27-.58v-1.12c0-.29,.07-.43,.27-.43h6.26Zm3.08,21.38c0-.54-.03-.97-.07-1.3-.07-.29-.07-.5-.07-.68,0-.07,.17-.14,.55-.14l2.56,.36c.24,.14,.38,.29,.38,.36,0,.22-.14,.29-.41,.29-.41,.14-.62,.54-.65,1.12h3.73c.17,0,.27,.14,.27,.43v1.12c0,.36-.1,.54-.27,.54h-3.76v5.08c0,1.58-1.13,2.38-3.32,2.38h-.96c-.14,0-.21-.22-.21-.58-.1-.43-.31-.94-.58-1.51,0-.22,.07-.29,.27-.29,.41,.18,.82,.29,1.2,.29,.89,0,1.33-.4,1.33-1.12v-4.25h-9.47c-.21,0-.27-.18-.27-.54v-1.12c0-.29,.07-.43,.27-.43h9.47Zm-5.57,4.25c.48,.58,.92,1.08,1.3,1.51,0,.04-.07,.11-.17,.25-.68,.94-1.03,1.44-1.03,1.44-.55-.72-1.13-1.37-1.71-1.94-.51-.47-.92-.79-1.23-1.01,0-.14,.31-.61,.92-1.48,.1-.14,.21-.22,.27-.22,.65,.5,1.2,1.01,1.64,1.44Zm2.5-16.63v-2.23h-3.73v2.23h3.73Zm0,1.83h-3.73v2.09h3.73v-2.09Zm2.29-1.83h3.86v-2.23h-3.86v2.23Zm3.86,1.83h-3.86v2.09h3.86v-2.09Zm-.44,4.07h-3.42v2.02c1.09-.07,2.26-.14,3.49-.25,.41,0,.75-.04,1.06-.07-.34-.58-.72-1.15-1.13-1.69Z"/><path class="cls-1" d="M304.96,289.12c0,.11-.14,.22-.41,.29-.27,.07-.44,.22-.55,.43-.27,.61-.55,1.22-.89,1.8h9.33c.41,0,.65,.22,.65,.58v13.75c.17-.14,.34-.32,.51-.54,.99-.94,1.92-2.09,2.8-3.42,.14-.22,.27-.36,.44-.36,.1,0,.31,.07,.65,.18,1.33,1.33,2.02,2.05,2.02,2.2,0,.4-.14,.58-.41,.58l-.55-.14c-.27,0-.58,.18-.85,.47-1.85,1.84-3.39,3.35-4.62,4.5v8.35c0,1.04-.58,1.87-1.71,2.48-1.06,.43-2.46,.76-4.17,.94-.24,0-.38-.14-.41-.43-.07-.5-.31-1.26-.79-2.27,0-.14,.1-.18,.34-.18,2.05,0,3.28-.14,3.66-.4,.44-.22,.68-.65,.68-1.22v-5.18c-1.2,.94-2.5,1.84-3.86,2.77-1.71,1.08-3.59,2.09-5.68,3.06-2.67,1.15-5.81,2.27-9.44,3.28-.48,0-.75-.11-.82-.29-.27-.5-.72-1.01-1.3-1.48-.21-.18-.27-.32-.27-.47,0-.22,.14-.29,.41-.29,1.85-.25,3.15-.47,3.86-.65,1.57-.36,3.18-.83,4.75-1.44,2.12-.86,4-1.8,5.57-2.77,1.71-1.01,3.52-2.27,5.37-3.78-.75,.07-1.5,.18-2.22,.29-4.89,.68-9.92,1.4-15.08,2.16-.27,.72-.55,1.08-.79,1.12-.17,0-.31-.07-.44-.22l-.89-3.42c.89-.07,2.63-.25,5.2-.58v-16.59c0-.36,.17-.58,.55-.58h4.86c.31-.43,.55-.79,.68-1.08,.34-.65,.65-1.48,.92-2.45,.03-.14,.1-.25,.21-.25,1.78,.76,2.67,1.19,2.67,1.26Zm5.75,7.88v-3.09h-13.23v3.09h13.23Zm0,5.33v-3.1h-13.23v3.1h13.23Zm-2.84,4.89c1.09-.14,2.05-.25,2.84-.4v-2.23h-13.23v3.92c2.8-.32,6.26-.76,10.4-1.3Z"/><path class="cls-1" d="M305.44,343.15c-.55,1.01-1.27,1.87-2.19,2.52l-.89-1.04c1.37-1.04,2.12-2.41,2.29-4.1h-2.53v-4.32h4.1v3.96c0,1.01-.27,1.98-.79,2.99Z"/><path class="cls-1" d="M302.29,365.47v-4.64c0-.29,.17-.43,.51-.43,1.71,0,2.56,.14,2.56,.43,0,.32-.14,.5-.34,.54-.24,.04-.34,.29-.34,.72v3.38h7.35c.27,0,.41,.22,.41,.58v1.12c0,.4-.14,.58-.41,.58h-7.35v5.76h2.8c.31-.29,.65-.58,.99-.9,1.71-1.62,3.15-3.2,4.31-4.71,.99-1.08,1.92-2.41,2.8-3.92,.14-.29,.31-.47,.44-.47s.34,.07,.68,.22c1.3,1.3,1.98,2.05,1.98,2.2,0,.36-.14,.54-.38,.54l-.55-.11c-.31,0-.58,.22-.85,.58-2.53,2.84-4.51,5.04-5.88,6.55l-.03,.04h7.97c.27,0,.41,.18,.41,.54v1.15c0,.36-.14,.54-.41,.54h-10.46c-.82,.68-1.64,1.37-2.53,2.05-1.5,1.08-3.11,2.12-4.89,3.1v3.35c2.05-.5,3.86-1.08,5.44-1.66,2.33-.79,4.68-1.87,7.08-3.24,.38-.14,.65-.22,.82-.22,1.44,1.22,2.15,1.94,2.15,2.12,0,.14-.14,.22-.41,.22-.48,0-.75,.07-.79,.18-4.58,2.09-9.34,3.74-14.29,5.04v1.73c0,1.15,.65,1.69,1.98,1.69h11.35c1.2,0,1.92-.54,2.12-1.62,.27-.54,.55-1.8,.82-3.74,.72,.61,1.33,.97,1.88,1.12,.27,.07,.41,.25,.41,.58-.38,2.16-.79,3.56-1.23,4.28-.41,1.15-1.47,1.76-3.18,1.76h-13.51c-2.05,0-3.08-.79-3.08-2.38v-7.96c-2.33,1.08-4.92,2.09-7.87,3.02-.48,0-.79-.07-.85-.29-.27-.5-.72-.97-1.3-1.48-.17-.14-.24-.32-.24-.5s.14-.29,.41-.29c1.85-.29,3.15-.54,3.9-.76,1.57-.4,3.15-.97,4.75-1.69,2.12-1.01,4-2.05,5.61-3.17,.55-.36,1.13-.79,1.71-1.26h-15.46c-.27,0-.41-.18-.41-.54v-1.15c0-.36,.14-.54,.41-.54h12.96v-5.76h-8.55c-.27,0-.41-.18-.41-.58v-1.12c0-.36,.14-.58,.41-.58h8.55Z"/><path class="cls-1" d="M292.55,403.99v-7.31c0-.25,.17-.4,.51-.4,1.71,0,2.56,.14,2.56,.4,0,.32-.14,.5-.34,.54-.24,.04-.34,.29-.34,.72v6.05h2.67c.27,0,.41,.22,.41,.58v1.12c0,.4-.14,.58-.41,.58h-2.36c.41,1.37,.75,2.45,1.09,3.24,.44,1.19,1.2,2.52,2.29,4,.1,.11,.17,.22,.17,.36,0,.07-.1,.18-.24,.29-.21,.29-.51,.61-.89,.97-.14,.22-.27,.29-.34,.29-.1,0-.21-.07-.31-.25-.75-1.08-1.4-2.38-1.95-3.82-.07-.14-.1-.25-.14-.4v17.53c0,.29-.21,.43-.55,.43h-1.33c-.34,0-.51-.14-.51-.43v-15.84c-.27,.97-.58,1.83-.85,2.63-.44,1.33-.96,2.56-1.57,3.64-.24,0-.41-.04-.51-.14-.44-.22-.89-.43-1.33-.65-.21,0-.27-.04-.27-.18,.82-1.44,1.5-2.84,2.02-4.21,.51-1.3,.92-2.56,1.23-3.78,.21-.79,.44-2.02,.75-3.67h-2.8c-.27,0-.41-.18-.41-.58v-1.12c0-.36,.14-.58,.41-.58h3.35Zm9.78,18.83c.27,.72,.48,1.44,.68,2.16,.1,0,.21,0,.27-.04,.68-.07,1.33-.18,2.02-.32,.27-.68,.51-1.4,.79-2.12,.34-1.22,.62-2.27,.79-3.17,.03-.07,.07-.14,.1-.14l2.33,.79c.21,.14,.34,.25,.34,.36,0,.07-.07,.11-.17,.11-.17,.04-.27,.07-.31,.14-.24,.79-.58,1.69-.99,2.66-.14,.32-.27,.61-.41,.9,.68-.14,1.4-.29,2.09-.43,.03,0,.1-.04,.17-.04,.17,0,.27,.11,.27,.29,0,1.04-.07,1.62-.14,1.69-3.59,.72-7.25,1.37-10.94,1.98-.27,.54-.51,.83-.68,.83-.21,0-.58-.9-1.2-2.66,1.06-.07,2.26-.25,3.56-.47-.1-.4-.24-.83-.38-1.33-.34-1.08-.79-2.2-1.3-3.28,0-.14,.58-.5,1.74-1.12,.55,1.15,1.03,2.23,1.37,3.2Zm.48-22.89v-3.1c0-.29,.17-.43,.55-.43,1.68,0,2.53,.14,2.53,.43,0,.32-.1,.5-.31,.54-.24,.04-.34,.29-.34,.72v1.84h4.27c.17,0,.27,.14,.27,.43v1.12c0,.4-.1,.58-.27,.58h-4.27v3.1h3.73c.17,0,.27,.14,.27,.4v1.15c0,.36-.1,.54-.27,.54h-9.88c-.21,0-.27-.18-.27-.54v-1.15c0-.25,.07-.4,.27-.4h3.73v-3.1h-4.27c-.17,0-.24-.18-.24-.58v-1.12c0-.29,.07-.43,.24-.43h4.27Zm5.23,9.72c.34,0,.51,.14,.51,.4v7.59c0,.29-.17,.43-.51,.43h-8.04c-.34,0-.51-.14-.51-.43v-7.59c0-.25,.17-.4,.51-.4h8.04Zm-1.74,1.94h-4.55v4.5h4.55v-4.5Zm7.45,2.45c.41,.94,.79,1.91,1.09,2.92,0,.07-.68,.32-2.02,.68-.14-.65-.38-1.48-.79-2.45-.44-1.08-1.03-2.2-1.74-3.31,0-.14,.58-.5,1.74-1.12,.68,1.19,1.27,2.27,1.71,3.28Zm1.64-9.75v-5.76c0-.68-.03-1.22-.07-1.58-.07-.25-.07-.47-.07-.65,0-.07,.17-.14,.51-.14l2.6,.36c.21,.14,.34,.25,.34,.32,0,.22-.14,.29-.38,.29-.48,.22-.68,.72-.68,1.55v5.62h1.61c.27,0,.41,.22,.41,.58v1.12c0,.4-.14,.58-.41,.58h-1.61v19.94c0,1.58-1.13,2.41-3.35,2.41h-1.85c-.17,0-.24-.22-.24-.58-.1-.43-.31-.97-.58-1.55,0-.22,.07-.29,.27-.29,.79,.18,1.5,.29,2.15,.29,.89,0,1.33-.4,1.33-1.12v-19.11h-4.41c-.27,0-.41-.18-.41-.58v-1.12c0-.36,.14-.58,.41-.58h4.41Z"/><path class="cls-1" d="M294.15,445.5h8.79c.27,0,.41,.18,.41,.54-.07,3.92-.21,6.73-.41,8.46-.27,2.09-.62,3.6-1.03,4.57-.41,1.08-1.54,1.62-3.39,1.62-1.37,0-2.05-.29-2.09-.86-.1-.61-.38-1.37-.82-2.23v-.29c1.03,.47,2.02,.68,2.91,.68,.82,0,1.37-.36,1.61-1.08,.27-.58,.48-1.69,.65-3.38,.17-1.19,.31-3.13,.38-5.79h-7.01c0,3.67-.24,6.59-.65,8.71-.27,1.8-.82,3.6-1.61,5.36-.41,1.08-1.03,2.09-1.78,3.1-.14,0-.27-.04-.34-.07-.38-.4-.79-.72-1.23-.97-.1-.14-.14-.32-.14-.5,.65-.94,1.27-2.12,1.81-3.67,.51-1.62,.89-3.31,1.13-5.11,.24-1.87,.38-4.14,.38-6.84v-8.57c0-.36,.17-.58,.55-.58h13.64c-.1-1.66-.17-3.46-.17-5.47,0-.29,.07-.43,.27-.43l2.22,.22c.38,0,.58,.14,.58,.36,0,.29-.1,.47-.27,.54-.17,.07-.24,.36-.24,.86,0,1.44,0,2.74,.03,3.92h10.63c.27,0,.41,.22,.41,.58v1.12c0,.4-.14,.58-.41,.58h-10.6c.03,1.33,.1,2.52,.17,3.53,.21,2.66,.62,5.08,1.2,7.24,.27,1.22,.55,2.27,.85,3.2,.79-1.22,1.5-2.59,2.12-4.1,.79-1.69,1.4-3.53,1.85-5.51,.07-.29,.24-.43,.55-.43,1.95,.72,2.94,1.19,2.94,1.4s-.14,.36-.41,.43c-.44,0-.75,.22-.92,.58-.82,2.56-1.81,4.86-2.94,6.91-.68,1.22-1.4,2.34-2.15,3.35,.55,1.44,1.27,2.7,2.12,3.71,.58,.43,1.03,.65,1.37,.65,.27,0,.65-.4,1.09-1.26,.51-.86,1.03-2.23,1.57-4.1,.1,0,.24,.14,.38,.36,.24,.4,.55,.79,.96,1.15,.27,.18,.41,.43,.41,.76-.68,1.84-1.33,3.24-1.88,4.28-.85,1.44-1.64,2.2-2.39,2.2-.38,0-.72-.11-1.06-.29-.65-.32-1.3-.9-1.98-1.73-.82-.94-1.57-2.12-2.29-3.6-1.71,1.84-3.76,3.49-6.16,5.04-.24,.07-.48,.14-.68,.14-.27,0-.48-.14-.62-.4-.27-.4-.55-.72-.82-.97-.21-.14-.31-.29-.31-.47,0-.11,.1-.22,.34-.29,.92-.36,1.85-.83,2.77-1.55,1.57-1.04,2.98-2.27,4.21-3.71,.07-.07,.17-.18,.24-.25-.48-1.3-.92-2.74-1.3-4.25-.55-2.48-.96-5.08-1.27-7.74-.14-1.22-.24-2.63-.31-4.28h-11.87v4.64Zm20.93-11.38c.99,.68,1.85,1.3,2.56,1.8,0,.07-.07,.14-.17,.29-.68,1.04-1.03,1.55-1.03,1.55-1.09-.83-2.29-1.62-3.52-2.34-1.03-.54-1.85-.94-2.5-1.19,0-.11,.34-.65,1.06-1.58,.1-.14,.21-.25,.27-.25,1.33,.65,2.43,1.22,3.32,1.73Z"/><path class="cls-1" d="M297.33,470.81v-1.98c0-.29,.17-.43,.55-.43,1.68,0,2.53,.14,2.53,.43,0,.32-.14,.5-.34,.54s-.31,.29-.31,.72v.72h8.69v-1.98c0-.29,.17-.43,.51-.43,1.68,0,2.53,.14,2.53,.43,0,.32-.1,.5-.31,.54-.24,.04-.34,.29-.34,.72v.72h8.27c.17,0,.27,.14,.27,.43v1.12c0,.36-.1,.54-.27,.54h-8.27v1.44c0,.29-.21,.4-.55,.4h-1.33c-.34,0-.51-.11-.51-.4v-1.44h-8.69v1.44c0,.29-.21,.4-.55,.4h-1.33c-.38,0-.55-.11-.55-.4v-1.44h-8.14c-.21,0-.27-.18-.27-.54v-1.12c0-.29,.07-.43,.27-.43h8.14Zm1.09,5.08c.34,0,.62,.07,.79,.18,.51,.47,.79,.79,.79,.94l-3.73,7.06c-.1,.14-.14,.29-.14,.4,0,.14,.07,.25,.21,.4,.82,.9,1.54,1.98,2.15,3.24,.55,1.3,.85,2.63,.85,3.96,0,1.08-.21,2.05-.55,2.88-.41,.86-1.03,1.44-1.78,1.76-.48,.36-1.33,.54-2.5,.54-.55,0-.82-.18-.82-.54-.1-.83-.27-1.44-.51-1.83,0-.18,.14-.29,.41-.29l1.47,.14c.72,0,1.23-.25,1.54-.83,.27-.47,.44-1.08,.44-1.83,0-.94-.24-1.98-.72-3.13-.62-1.26-1.5-2.48-2.67-3.71-.14-.11-.21-.22-.21-.32,0-.07,.03-.22,.1-.43l3.66-6.48h-4.68v22.79c0,.29-.21,.43-.55,.43h-1.33c-.27,0-.41-.14-.41-.43v-24.48c0-.25,.14-.4,.41-.4h7.76Zm11.83,0c.21,.14,.31,.29,.31,.4,0,.29-.21,.43-.55,.43h-.03c.89,.83,1.68,1.48,2.39,1.94,1.13,.79,2.22,1.4,3.32,1.91,1.23,.61,2.46,1.01,3.69,1.22,0,.14-.1,.29-.27,.36-.65,.58-1.13,1.04-1.4,1.37-.07,.14-.24,.22-.48,.22-1.23-.4-2.43-.94-3.59-1.62v1.22c0,.29-.1,.4-.27,.4h-9.61c-.21,0-.27-.11-.27-.4v-1.33c-.48,.32-.92,.61-1.33,.86-.82,.47-1.5,.79-2.02,1.01-.21,0-.34-.11-.48-.32-.27-.43-.58-.83-.92-1.15-.21-.14-.31-.25-.31-.36,0-.04,.03-.07,.14-.11,1.13-.43,2.09-.83,2.84-1.26,1.03-.58,2.09-1.3,3.18-2.16,.68-.58,1.23-1.12,1.71-1.66,.48-.58,.96-1.19,1.37-1.87,.14-.14,.24-.25,.38-.25l2.22,1.15Zm8.45,17.13c.17,0,.27,.14,.27,.43v1.12c0,.29-.1,.43-.27,.43h-4.58c.75,.65,1.37,1.26,1.91,1.84,.89,1.01,1.64,1.94,2.29,2.81,0,0-.07,.11-.17,.25-.68,.94-1.03,1.44-1.06,1.44-.62-.86-1.23-1.66-1.85-2.38-4.17,.58-8.79,1.12-13.88,1.62-.24,0-.41,.11-.55,.32-.1,.29-.27,.43-.55,.43-.21,0-.65-.9-1.33-2.7,1.09-.07,2.15-.14,3.25-.22,.65-.72,1.27-1.51,1.81-2.3,.24-.36,.44-.76,.62-1.12h-4.62c-.17,0-.24-.14-.24-.43v-1.12c0-.29,.07-.43,.24-.43h18.7Zm-4.27-7.59c.17,0,.34,.07,.51,.18,.21,.25,.31,.47,.31,.68l-1.23,3.1h2.97c.14,0,.24,.14,.24,.4v1.12c0,.29-.1,.43-.24,.43h-15.25c-.21,0-.27-.14-.27-.43v-1.12c0-.25,.07-.4,.27-.4h9.61c.07-.11,.14-.22,.21-.32l.89-1.66h-9.51c-.27,0-.38-.14-.38-.43v-1.12c0-.29,.1-.43,.38-.43h11.49Zm-1.33-3.64c-.55-.29-1.06-.65-1.54-1.01-.82-.54-1.91-1.48-3.28-2.84-.55,.65-1.09,1.15-1.57,1.58-.58,.58-1.27,1.15-2.09,1.73-.31,.22-.58,.4-.79,.54h9.27Zm-1.2,14.04c0-.07,.14-.36,.48-.83h-6.19c.85,.32,1.3,.54,1.3,.68,0,.22-.14,.32-.41,.32s-.38,.11-.38,.25c-.55,.58-1.2,1.22-1.98,1.94,2.98-.29,5.95-.58,8.89-.97-.68-.65-1.27-1.12-1.71-1.4Z"/><path class="cls-1" d="M305.44,523.15c-.55,1.01-1.27,1.87-2.19,2.52l-.89-1.04c1.37-1.04,2.12-2.41,2.29-4.1h-2.53v-4.32h4.1v3.96c0,1.01-.27,1.98-.79,2.99Z"/><path class="cls-1" d="M219.73,32.61c0,.29-.17,.43-.51,.43h-1.33c-.38,0-.55-.14-.55-.43V2.09c0-.36,.17-.54,.55-.54h8.41c.38,0,.65,.07,.85,.22,.55,.5,.85,.86,.85,1.04l-4,9.47c-.1,.22-.14,.36-.14,.5s.03,.32,.17,.5c.68,1.08,1.3,2.41,1.78,3.96,.48,1.58,.72,3.2,.72,4.82,0,1.3-.21,2.41-.55,3.35-.41,1.01-.99,1.69-1.74,2.09-.51,.43-1.33,.61-2.5,.61-.62,0-.89-.18-.89-.61-.14-.86-.31-1.48-.58-1.91,0-.29,.14-.43,.41-.43l1.57,.29c.68,0,1.16-.32,1.44-1.04,.27-.58,.44-1.33,.44-2.34,0-1.15-.21-2.41-.58-3.85-.55-1.58-1.3-3.09-2.29-4.61-.14-.14-.21-.25-.21-.4,0-.11,.03-.29,.14-.58l4.07-8.85h-5.54v28.83Zm27.8-17.28c.24,0,.38,.18,.38,.54v1.12c0,.4-.14,.58-.38,.58h-12.58c-.34,.83-.65,1.58-.99,2.27h12.75c.27,0,.41,.18,.41,.54-.07,3.38-.17,5.83-.38,7.31-.27,1.8-.62,3.1-1.06,3.96-.41,.94-1.47,1.4-3.25,1.4-1.37,0-2.05-.25-2.09-.72-.14-.58-.41-1.22-.85-1.94v-.29c1.06,.18,2.05,.29,2.94,.29,.75,0,1.27-.32,1.5-.94,.27-.47,.48-1.4,.65-2.84,.14-.97,.27-2.48,.34-4.54h-2.94c-.48,1.44-.92,2.77-1.37,3.92-.65,1.37-1.33,2.56-2.02,3.64-.68,1.08-1.5,2.12-2.43,3.13-.31,0-.51-.07-.62-.22-.55-.29-1.09-.58-1.61-.86-.24,0-.34-.07-.34-.18,1.23-1.22,2.26-2.41,3.01-3.56,.75-1.08,1.33-2.16,1.74-3.2,.31-.58,.65-1.48,1.03-2.66h-2.15c-.55,1.26-1.13,2.41-1.71,3.42-.82,1.22-1.68,2.3-2.56,3.24-.89,1.01-1.91,1.91-3.08,2.77-.27,0-.48-.11-.62-.25-.55-.29-1.06-.54-1.61-.83-.21,0-.31-.07-.31-.18,1.54-1.08,2.77-2.12,3.73-3.17,.96-.94,1.68-1.87,2.22-2.81,.34-.5,.75-1.26,1.16-2.2h-1.88c-.34,.47-.68,.9-1.03,1.3-.68,.9-1.5,1.73-2.46,2.52-.27,0-.44-.07-.55-.22-.48-.22-.96-.47-1.44-.76-.21,0-.31-.04-.31-.18,1.27-.94,2.29-1.87,3.08-2.81,.75-.86,1.33-1.69,1.78-2.56,.27-.4,.55-1.01,.89-1.8h-5.06c-.27,0-.41-.18-.41-.58v-1.12c0-.36,.14-.54,.41-.54h20.04Zm-3.62-13.79c.34,0,.55,.14,.55,.4V13.07c0,.29-.21,.43-.55,.43h-12.82c-.34,0-.51-.14-.51-.43V1.94c0-.25,.17-.4,.51-.4h12.82Zm-1.85,4.79V3.78h-9.1v2.56h9.1Zm0,2.23h-9.1v2.66h9.1v-2.66Z"/><path class="cls-1" d="M233.88,37.4c0,.32-.1,.5-.31,.5-.24,.07-.34,.32-.34,.76v10.83h13.2c.27,0,.41,.14,.41,.4v1.44c0,.36-.14,.54-.41,.54h-9.47v12.38c0,1.15,.65,1.69,2.02,1.69h4.27c.85,0,1.37-.5,1.54-1.58,.17-.54,.38-1.76,.58-3.64,.72,.61,1.33,.97,1.88,1.12,.27,.07,.41,.25,.41,.58-.34,2.09-.68,3.46-1.03,4.18-.34,1.15-1.2,1.73-2.6,1.73h-6.39c-2.05,0-3.08-.79-3.08-2.38v-14.07h-5.1c-.03,1.87-.1,3.46-.17,4.75-.21,1.58-.51,3.02-.99,4.32-.44,1.3-1.13,2.52-2.09,3.6-.96,1.15-2.12,2.05-3.49,2.81-1.2,.54-2.5,1.04-3.93,1.55-.24,0-.38-.14-.41-.43-.34-.47-.65-.97-.96-1.55-.07-.14-.1-.29-.1-.43,2.02-.43,3.62-.94,4.86-1.58,.96-.47,1.74-1.15,2.36-2.05,.55-.65,1.03-1.44,1.37-2.41,.41-1.04,.72-2.23,.92-3.6,.14-1.12,.21-2.77,.24-4.97h-9.2c-.27,0-.41-.18-.41-.54v-1.44c0-.25,.14-.4,.41-.4h12.82v-12.09c0-.29,.17-.43,.51-.43,1.78,0,2.67,.14,2.67,.43Zm-12.41,1.55c2.05,2.23,3.93,4.64,5.61,7.16,0,.4-.1,.61-.24,.61-.92,.65-1.64,.94-2.15,.94-1.88-3.02-3.66-5.58-5.33-7.59,0-.29,.55-.68,1.71-1.26,.21,0,.34,.07,.41,.14Zm23.49,.54c.34,.18,.55,.36,.55,.58,0,.25-.21,.43-.55,.5-.48,0-.75,.22-.89,.58-1.3,2.74-2.6,4.82-3.86,6.3-.31,.36-.55,.5-.72,.5s-.38-.07-.65-.29c-.51-.22-.99-.47-1.44-.68-.21-.07-.31-.11-.31-.14,0-.07,.07-.22,.21-.4,1.27-1.3,2.22-2.45,2.84-3.46,.92-1.3,1.61-2.59,2.09-3.89,.14-.36,.27-.58,.48-.58l2.26,.97Z"/><path class="cls-1" d="M233.75,73.83c0,.14-.17,.29-.51,.4-.41,.07-.68,.22-.89,.5-.34,.58-.75,1.12-1.16,1.62h11.8c.34,0,.55,.14,.55,.43v27.68c0,.29-.21,.43-.55,.43h-1.33c-.38,0-.55-.14-.55-.43v-2.38h-17.75v2.38c0,.29-.21,.43-.55,.43h-1.33c-.38,0-.55-.14-.55-.43v-27.57c0-.36,.17-.54,.55-.54h6.7c.31-.32,.55-.61,.72-.86,.55-.76,1.06-1.69,1.5-2.81,.07-.18,.17-.29,.31-.29,2.02,.86,3.04,1.37,3.04,1.44Zm7.35,10.26v-5.51h-17.75v5.51h17.75Zm0,7.74v-5.51h-17.75v5.51h17.75Zm0,7.99v-5.76h-17.75v5.76h17.75Z"/><path class="cls-1" d="M222.26,115.99v-7.31c0-.25,.17-.4,.55-.4,1.68,0,2.53,.14,2.53,.4,0,.32-.1,.5-.31,.54-.24,.04-.34,.29-.34,.72v6.05h4.55c.24,0,.38,.22,.38,.58v1.12c0,.4-.14,.58-.38,.58h-3.97c.48,1.37,.96,2.48,1.4,3.28,.55,1.22,1.54,2.59,2.97,4.1,.14,.11,.24,.22,.24,.36,0,.07-.1,.18-.24,.29-.24,.36-.58,.72-.99,1.08-.14,.22-.27,.32-.38,.32-.14,0-.27-.07-.44-.25-.96-1.15-1.81-2.48-2.53-3.96-.21-.43-.41-.9-.62-1.4v18.54c0,.29-.21,.43-.55,.43h-1.33c-.38,0-.55-.14-.55-.43v-16.34c-.03,.07-.07,.14-.07,.18-.62,1.58-1.23,3.02-1.88,4.32-.79,1.44-1.57,2.66-2.33,3.67-.27,0-.44-.07-.58-.22-.44-.43-.89-.83-1.3-1.22-.07-.14-.1-.29-.1-.36,.72-.83,1.3-1.66,1.78-2.45,.68-1.04,1.4-2.48,2.15-4.32,.41-1.12,1.06-2.99,1.88-5.62h-4.62c-.27,0-.41-.18-.41-.58v-1.12c0-.36,.14-.58,.41-.58h5.06Zm15.52-2.23v-5.22c0-.25,.17-.4,.51-.4,1.68,0,2.53,.14,2.53,.4,0,.36-.1,.54-.31,.54-.24,.04-.34,.29-.34,.76v3.92h7.08c.27,0,.41,.22,.41,.58v1.12c0,.36-.14,.54-.41,.54h-7.08v5.51h4.68c.21,0,.41,.07,.68,.22,.41,.32,.65,.58,.65,.76-.41,1.94-.79,3.56-1.2,4.82-.51,1.37-1.16,2.7-1.91,4-.48,.86-1.13,1.8-1.98,2.88-.14,.14-.24,.29-.34,.36,.75,.76,1.71,1.44,2.8,2.09,1.2,.79,2.77,1.44,4.68,2.05,.21,.07,.34,.14,.34,.25,0,.14-.07,.29-.17,.4-.44,.4-.89,.86-1.3,1.37-.17,.22-.31,.36-.41,.36-.07,0-.27-.11-.58-.32-.92-.36-1.91-.83-3.01-1.4-1.3-.76-2.5-1.58-3.56-2.52-.21-.14-.38-.32-.51-.5-.34,.29-.65,.54-.96,.79-.82,.68-1.92,1.37-3.28,2.09-1.03,.58-2.53,1.26-4.51,2.02-.24,0-.44-.14-.58-.4-.48-.4-.99-.76-1.5-1.12-.14-.18-.21-.29-.21-.32,0-.11,.07-.18,.27-.22,2.05-.61,3.76-1.26,5.13-1.98,1.44-.68,2.7-1.48,3.73-2.41,.1-.07,.21-.18,.31-.25-.34-.4-.62-.76-.82-1.12-.96-1.3-1.64-2.66-2.05-4.1-.65-1.44-1.2-3.28-1.68-5.54h-1.4c-.27,0-.41-.18-.41-.54v-1.15c0-.36,.14-.54,.41-.54h6.29v-5.51h-6.84c-.27,0-.38-.18-.38-.54v-1.12c0-.36,.1-.58,.38-.58h6.84Zm-1.78,13.07c.48,1.58,1.13,2.99,1.92,4.25,.41,.68,.82,1.26,1.27,1.76,.34-.36,.62-.72,.85-1.04,.82-1.15,1.54-2.34,2.12-3.6,.44-1.15,.89-2.63,1.37-4.46h-8.31c.21,1.19,.48,2.23,.79,3.1Z"/><path class="cls-1" d="M226.29,147.24v-2.41c0-.29,.17-.43,.51-.43,1.68,0,2.53,.14,2.53,.43,0,.32-.1,.5-.31,.54-.24,.04-.34,.29-.34,.72v1.15h7.49v-2.27c0-.29,.17-.43,.51-.43,1.71,0,2.56,.14,2.56,.43,0,.32-.14,.5-.34,.54-.24,.04-.34,.29-.34,.72v1.01h8.41c.27,0,.41,.18,.41,.54v1.12c0,.4-.14,.58-.41,.58h-8.41v1.69c0,.29-.21,.43-.55,.43h-1.33c-.34,0-.51-.14-.51-.43v-1.69h-7.49v1.69c0,.29-.21,.43-.55,.43h-1.33c-.34,0-.51-.14-.51-.43v-1.69h-8.96c-.27,0-.41-.18-.41-.58v-1.12c0-.36,.14-.54,.41-.54h8.96Zm-3.76,7.16v-2.41c0-.25,.17-.4,.55-.4,1.68,0,2.53,.14,2.53,.4,0,.36-.14,.54-.34,.54-.21,.07-.31,.32-.31,.76v1.12h5.06v-2.27c0-.25,.17-.4,.55-.4,1.68,0,2.53,.14,2.53,.4,0,.32-.14,.5-.34,.54-.24,.04-.34,.29-.34,.72v1.01h6.29v-2.52c0-.29,.17-.43,.55-.43,1.68,0,2.53,.14,2.53,.43,0,.32-.14,.5-.34,.5-.24,.07-.34,.32-.34,.76v1.26h4.96c.17,0,.27,.14,.27,.43v1.12c0,.36-.1,.54-.27,.54h-4.96v3.82c0,.4-.17,.58-.51,.58h-10.02c-.38,0-.55-.18-.55-.58v-3.82h-5.06v5.9h19.35c.27,0,.41,.22,.41,.58v1.12c0,.4-.14,.58-.41,.58h-10.7v2.38h11.9c.17,0,.27,.14,.27,.43v1.12c0,.4-.1,.58-.27,.58h-10.5c1.09,.72,2.09,1.3,2.98,1.73,1.33,.72,2.94,1.37,4.82,1.94,1.54,.5,3.11,.9,4.72,1.12,0,.14-.14,.29-.34,.4-.48,.5-.89,.97-1.23,1.44-.14,.14-.24,.25-.31,.25-2.39-.65-4.31-1.33-5.81-2.02-1.71-.76-3.18-1.58-4.34-2.48-.65-.4-1.27-.86-1.88-1.4v6.62c0,.29-.17,.43-.51,.43h-1.33c-.38,0-.55-.14-.55-.43v-6.01c-.27,.22-.58,.43-.85,.61-1.09,.86-2.22,1.58-3.39,2.2-1.33,.65-2.8,1.3-4.38,1.91-1.98,.65-3.11,1.01-3.39,1.01-.17,0-.34-.18-.48-.47-.34-.43-.72-.86-1.13-1.33-.21-.22-.27-.36-.27-.43,2.15-.43,4-.9,5.54-1.4,1.5-.5,3.01-1.19,4.55-2.02,.68-.36,1.47-.94,2.39-1.66h-11.01c-.21,0-.27-.18-.27-.58v-1.12c0-.29,.07-.43,.27-.43h12.41v-2.38h-8.14c-.38,0-.55-.18-.55-.58v-7.59h-4.27c-.21,0-.27-.18-.27-.54v-1.12c0-.29,.07-.43,.27-.43h4.27Zm16.17,2.09h-6.29v2.12h6.29v-2.12Z"/><path class="cls-1" d="M226.63,181.04c.27,.07,.44,.22,.44,.5,0,.36-.17,.5-.51,.5-.21,.07-.34,.25-.41,.47-.68,1.62-1.33,3.02-1.98,4.21h5.3c.34,0,.55,.14,.55,.43v23.9c0,.29-.21,.43-.55,.43h-1.33c-.34,0-.51-.14-.51-.43v-1.84h-7.21v2.81c0,.29-.21,.43-.55,.43h-1.33c-.38,0-.55-.14-.55-.43v-24.73c0-.36,.17-.58,.55-.58h3.08c.85-1.62,1.74-3.6,2.67-5.9,.07-.18,.21-.29,.41-.29l1.95,.5Zm.99,15.69v-7.74h-7.21v7.74h7.21Zm0,10.26v-8.03h-7.21v8.03h7.21Zm11.76-25.81c.24,.22,.38,.36,.38,.5,0,.22-.1,.32-.27,.4-.27,0-.44,.14-.51,.43-.51,1.58-.96,2.84-1.37,3.82h8.45c.41,0,.65,.25,.65,.68,0,8.21-.14,13.86-.41,16.99-.27,2.81-.72,4.79-1.27,6.01-.48,1.04-1.09,1.69-1.85,1.98-.96,.4-2.22,.61-3.83,.61-1.44,0-2.19-.25-2.19-.72-.1-.61-.27-1.22-.48-1.8,0-.22,.03-.29,.14-.29l.27,.04c.65,.07,1.23,.11,1.74,.11,1.68,0,2.8-.25,3.42-.76,.68-.54,1.16-2.05,1.44-4.54,.38-2.59,.58-7.96,.62-16.09h-7.73c-.38,.76-.75,1.48-1.16,2.12-.65,.94-1.33,1.76-2.05,2.52-.31,0-.55-.04-.75-.11-.44-.18-.89-.36-1.3-.54-.17-.07-.24-.11-.24-.18,0-.14,.03-.25,.14-.32,1.09-1.12,2.12-2.48,3.01-4.14,.51-.94,.96-1.94,1.37-3.02,.41-1.12,.82-2.56,1.23-4.36,.07-.14,.17-.25,.27-.25l2.29,.9Zm-2.94,13.86c1.27,2.2,2.43,4.54,3.45,7.02,0,.36-.07,.54-.21,.58-.82,.58-1.47,.83-1.92,.83-1.16-2.99-2.22-5.47-3.21-7.45,0-.25,.48-.61,1.47-1.12,.21,0,.34,.07,.41,.14Z"/><path class="cls-1" d="M225.33,217.73c.07,.22,.14,.36,.14,.36,0,.22-.17,.32-.51,.32-.48,0-.82,.14-.96,.4-1.09,1.94-2.12,3.71-3.08,5.25,.48,.5,.99,.97,1.47,1.48,1.06-1.73,1.95-3.31,2.67-4.75,1.61,1.37,2.43,2.09,2.43,2.23s-.14,.22-.34,.22c-.48,0-.75,.11-.89,.32-1.71,3.02-3.42,5.76-5.06,8.24,1.16-.07,2.5-.18,4.03-.29-.27-.83-.62-1.66-.96-2.45,0-.14,.58-.5,1.74-1.12,.55,1.37,1.03,2.59,1.37,3.71,.34,1.04,.62,2.16,.89,3.31,0,.11-.68,.36-1.98,.72-.14-.72-.31-1.58-.58-2.59l-2.09,.43v15.08c0,.29-.21,.43-.55,.43h-1.33c-.38,0-.55-.14-.55-.43v-14.54l-3.45,.76c-.55,.68-.89,1.01-.96,1.01-.1,0-.31-1.12-.65-3.38,0-.07,.72-.22,2.22-.36,1.3-1.98,2.36-3.67,3.18-5.11-.99-.79-1.74-1.4-2.29-1.8-.85-.54-1.78-1.01-2.74-1.44,0-.22,.44-.79,1.33-1.76,.07-.14,.17-.22,.27-.22,.41,.29,.82,.61,1.27,.94,.62-.94,1.16-1.91,1.64-2.84,.82-1.58,1.4-2.77,1.78-3.56l2.53,1.44Zm-4.79,20.48c0,.18-.1,.32-.27,.43-.21,.18-.31,.4-.31,.65-.17,2.16-.38,3.92-.62,5.29-.14,.79-.31,1.55-.51,2.34-.07,.18-.14,.29-.17,.29-.72-.25-1.33-.43-1.85-.5-.21-.07-.31-.18-.31-.32,.31-1.01,.58-2.12,.82-3.35,.21-1.19,.41-2.95,.55-5.29,0-.22,.07-.36,.24-.36,1.61,.36,2.43,.65,2.43,.83Zm6.67-.58c.41,1.3,.92,3.31,1.47,6.05,0,.22-.65,.43-1.88,.58-.21,0-.27-.07-.27-.25-.24-1.91-.58-3.92-1.06-6.08,0-.14,.51-.32,1.61-.54,.07,0,.1,.11,.14,.25Zm3.08-10.47c.48,.65,.85,1.33,1.2,2.05,0,.07-.68,.32-2.02,.68-.14-.43-.41-1.01-.89-1.66-.48-.76-1.09-1.51-1.91-2.27,0-.14,.58-.5,1.74-1.12,.75,.86,1.4,1.62,1.88,2.3Zm1.98,4.28c.34,0,.55,.14,.55,.43v11.41c0,.29,0,.61,.03,1.01,.24,.58,.58,1.08,1.03,1.44,.51,.43,1.3,.65,2.36,.65h6.29c.51,0,1.44-.11,2.74-.29,1.2-.18,2.12-.32,2.77-.54,.07,0,.17-.04,.27-.04,.17,0,.27,.11,.27,.29-.41,.72-.72,1.4-.96,2.02-.07,.43-.27,.65-.65,.65h-10.74c-1.61,0-2.91-.47-3.86-1.33-.38-.43-.72-1.01-1.03-1.66-.79,.76-1.47,1.48-2.05,2.12-.38,.22-.58,.5-.58,.86,0,.29-.07,.43-.17,.43s-.24-.11-.38-.29l-1.5-2.38c.41-.07,1.57-.76,3.45-2.16,.27-.11,.44-.36,.44-.79v-9.72h-2.43c-.17,0-.24-.18-.24-.58v-1.12c0-.29,.07-.43,.24-.43h4.14Zm-1.5-11.66c.48,.65,.92,1.3,1.27,1.98,0,.07-.72,.32-2.15,.68-.14-.43-.44-.94-.89-1.58-.48-.72-1.13-1.48-1.92-2.2,0-.14,.58-.5,1.74-1.12,.79,.79,1.44,1.55,1.95,2.23Zm8.86-2.09c0,.22-.1,.29-.24,.29-.34,.07-.58,.18-.68,.4-.14,.29-.24,.5-.34,.72h7.69c.21,0,.41,.07,.55,.18,.41,.5,.65,.83,.65,.94-.58,1.37-1.13,2.41-1.61,3.13-.62,.94-1.27,1.73-1.92,2.3-.17,.18-.31,.32-.44,.4,.21,.14,.48,.29,.75,.43,.72,.32,1.57,.65,2.53,.97,.44,.11,.99,.22,1.61,.36,.17,0,.27,.07,.27,.14,0,.18-.1,.32-.27,.47-.34,.43-.65,.83-.96,1.19-.14,.22-.31,.29-.51,.29-1.47-.4-2.77-.9-3.86-1.51-.62-.32-1.13-.61-1.54-.9-1.09,.61-2.29,1.12-3.56,1.55-.89,.36-2.05,.65-3.45,.86-.27,0-.48-.07-.58-.25-.27-.36-.51-.72-.72-1.12-.14-.11-.17-.22-.17-.29s.03-.14,.17-.18c.85-.14,1.71-.29,2.56-.5,1.54-.43,2.84-.94,3.86-1.51h.03c-.48-.43-.92-.9-1.3-1.4-.55-.65-1.06-1.48-1.61-2.45-.07,.07-.1,.14-.14,.18-.41,.54-1.13,1.33-2.12,2.34-.21,0-.41-.07-.55-.29-.27-.22-.58-.47-.85-.76-.14-.07-.21-.22-.21-.36,.51-.54,1.03-1.12,1.57-1.73,.68-.79,1.27-1.66,1.81-2.66,.41-.83,.75-1.66,1.03-2.52,0-.07,.07-.11,.14-.11,1.57,.79,2.39,1.26,2.39,1.4Zm-.14,13.64v-1.98c0-.18,.14-.29,.41-.29,1.57,0,2.39,.14,2.39,.43s-.1,.43-.24,.47c-.21,.04-.27,.25-.27,.65v.72h4.65c.17,0,.27,.14,.27,.4v1.15c0,.36-.1,.54-.27,.54h-4.65v2.41h4.41c.14,0,.24,.14,.24,.4v1.15c0,.36-.1,.54-.24,.54h-4.41v2.41h5.33c.17,0,.27,.14,.27,.4v1.15c0,.36-.1,.54-.27,.54h-5.33v2.52c0,.29-.21,.43-.55,.43h-1.33c-.27,0-.41-.14-.41-.43v-2.52h-5.06c-.21,0-.27-.18-.27-.54v-1.15c0-.25,.07-.4,.27-.4h5.06v-2.41h-4.51c-.21,0-.27-.18-.27-.54v-1.15c0-.25,.07-.4,.27-.4h4.51v-2.41h-4.51c-.21,0-.27-.18-.27-.54v-1.15c0-.25,.07-.4,.27-.4h4.51Zm.07-8.24c.48,.61,1.09,1.19,1.81,1.69,.27-.22,.51-.4,.72-.61,.65-.65,1.2-1.37,1.68-2.16,.17-.29,.34-.61,.51-.97h-6.09c.48,.86,.96,1.55,1.37,2.05Z"/><path class="cls-1" d="M226.29,253.4c.34,0,.62,.07,.79,.22,.55,.5,.82,.86,.82,1.04l-3.11,9.07c-.07,.22-.1,.36-.1,.5s.03,.29,.17,.47c.72,1.04,1.33,2.3,1.88,3.78,.48,1.51,.75,3.06,.75,4.61,0,1.37-.21,2.59-.58,3.64-.44,1.12-1.06,1.87-1.88,2.27-.51,.47-1.4,.68-2.63,.68-.55,0-.82-.18-.82-.54-.1-.83-.27-1.44-.51-1.84,0-.18,.14-.29,.41-.29l1.47,.14c.82,0,1.4-.4,1.74-1.26,.34-.68,.51-1.62,.51-2.81,0-1.08-.21-2.3-.62-3.67-.55-1.51-1.37-2.95-2.39-4.39-.14-.11-.17-.25-.17-.4,0-.11,.03-.29,.1-.5l3.32-8.5h-5.44v28.98c0,.29-.21,.43-.55,.43h-1.33c-.34,0-.51-.14-.51-.43v-30.67c0-.36,.17-.54,.51-.54h8.17Zm6.16,24.98c.14,.18,.24,.32,.24,.47,0,.11-.07,.14-.21,.14-.24,.07-.41,.14-.51,.29-.55,.94-1.16,1.73-1.78,2.45-.75,.86-1.71,1.73-2.84,2.59-.27,0-.44-.11-.51-.29-.44-.36-.82-.68-1.13-.97-.17-.07-.24-.18-.24-.29,0-.07,.03-.14,.14-.18,.55-.25,.99-.54,1.33-.86,.75-.61,1.4-1.3,1.98-2.09,.48-.65,1.03-1.44,1.61-2.41,.03-.14,.1-.22,.17-.22l1.74,1.37Zm1.06-22.93c.14,.22,.24,.36,.24,.47s-.07,.18-.17,.18c-.17,.04-.31,.11-.38,.22-.48,.86-.96,1.62-1.44,2.3-.62,.79-1.37,1.58-2.29,2.38-.27,0-.44-.07-.51-.29-.44-.36-.82-.72-1.09-1.01-.17-.07-.24-.14-.24-.25,0-.07,0-.11,.07-.18,.41-.22,.79-.47,1.06-.79,.62-.58,1.13-1.22,1.61-1.94,.38-.58,.79-1.33,1.27-2.23,.03-.14,.07-.22,.14-.22l1.74,1.37Zm5.2,6.95c0,.11-.14,.22-.41,.29-.24,.07-.41,.22-.51,.43-.21,.43-.38,.86-.58,1.26h7.52c.34,0,.51,.14,.51,.4v10.55c0,.29-.17,.43-.51,.43h-5.74v7.02c0,1.76-1.4,2.66-4.14,2.66h-1.33c-.17,0-.24-.22-.24-.65-.07-.54-.24-1.15-.58-1.87v-.14c.68,.18,1.33,.29,2.02,.29,1.23,0,1.85-.43,1.85-1.26v-6.05h-5.61c-.34,0-.51-.14-.51-.43v-10.55c0-.25,.17-.4,.51-.4h3.59c.14-.22,.24-.43,.31-.61,.34-.65,.62-1.51,.89-2.52,0-.14,.07-.25,.17-.25,1.85,.86,2.8,1.33,2.8,1.4Zm4.14,6.73v-2.81h-10.02v2.81h10.02Zm0,1.98h-10.02v2.66h10.02v-2.66Zm-3.32-18.03c.24,.14,.38,.25,.38,.32,0,.22-.14,.29-.41,.29-.44,.18-.65,.68-.65,1.55v2.66c0,1.58-.72,2.38-2.15,2.38h-1.85c-.17,0-.24-.18-.24-.58-.1-.43-.31-.94-.58-1.51,0-.18,.07-.29,.27-.29,.79,.22,1.5,.29,2.15,.29,.07,0,.1-.36,.1-1.15v-1.94c0-.68-.03-1.22-.07-1.58-.03-.25-.03-.47-.03-.68,0-.07,.17-.14,.51-.14l2.56,.4Zm5.2,3.31c.99,.79,1.85,1.48,2.53,2.05,0,.07-.07,.14-.17,.29-.68,.94-1.03,1.4-1.03,1.4-1.09-.97-2.19-1.87-3.35-2.66-.96-.65-1.78-1.12-2.39-1.4,0-.11,.31-.58,.92-1.44,.1-.14,.21-.25,.27-.25,1.3,.72,2.39,1.4,3.21,2.02Zm1.16,23.47c.99,.94,1.85,1.76,2.56,2.52,0,0-.07,.11-.17,.29-.68,1.01-1.03,1.51-1.03,1.51-1.09-1.19-2.29-2.27-3.52-3.24-1.03-.79-1.85-1.33-2.5-1.66,0-.14,.34-.65,1.06-1.58,.1-.14,.21-.25,.27-.25,1.33,.86,2.43,1.69,3.32,2.41Z"/><path class="cls-1" d="M220.45,300.35c.85,.86,1.61,1.62,2.22,2.27,0,.04-.07,.11-.17,.25-.68,.97-1.03,1.44-1.03,1.44-.96-1.08-1.92-2.05-2.94-2.95-.89-.72-1.57-1.22-2.12-1.55,0-.11,.31-.61,.92-1.48,.07-.14,.17-.22,.27-.22,1.16,.79,2.09,1.55,2.84,2.23Zm2.46,6.19c.55,1.26,.82,1.91,.82,1.98,0,.18-.07,.32-.14,.47-.96,2.48-1.88,4.57-2.77,6.3-.48,1.01-1.03,2.05-1.71,3.2-.14,.29-.17,.65-.17,1.15,0,.25-.1,.4-.27,.4s-.85-.72-2.05-2.12c-.14-.07-.21-.18-.21-.4,0-.14,.03-.29,.1-.43,.58-.61,1.16-1.4,1.78-2.34,.82-1.3,1.61-2.74,2.43-4.36,.68-1.37,1.27-2.66,1.74-3.85,.07-.14,.14-.25,.21-.25,.1,0,.17,.11,.24,.25Zm-1.37-14.58c.96,.86,1.78,1.66,2.46,2.38,0,.04-.07,.11-.17,.25-.65,.94-.99,1.4-1.03,1.4-1.03-1.08-2.12-2.12-3.28-3.06-.96-.72-1.71-1.26-2.33-1.55,0-.14,.31-.61,.92-1.48,.1-.14,.21-.22,.27-.22,1.27,.83,2.33,1.58,3.15,2.27Zm12.75,1.22c.34,0,.55,.14,.55,.43v5.33c0-.14,.1-.25,.38-.25,.96,0,1.61,.07,2.02,.14v-5.22c0-.29,.14-.43,.41-.43h8.27c.34,0,.51,.14,.51,.43v5.9c0,.29-.17,.43-.51,.43h-1.33c-.27,0-.41-.14-.41-.43v-4.5h-4.69v4.07c0,.29-.17,.43-.51,.43h-1.33c-.07,0-.14,0-.14-.04-.07,.07-.1,.11-.14,.11-.21,.04-.27,.25-.27,.65v.97h9.75c.17,0,.27,.14,.27,.43v1.12c0,.29-.1,.43-.27,.43h-6.67v1.8h5.61c.34,0,.55,.14,.55,.43v5.08c0,.29-.21,.4-.55,.4h-6.02v3.35c.55-.11,1.03-.22,1.47-.36,.75-.22,1.5-.54,2.22-.94,.51-.25,.99-.54,1.4-.9h.14c.07,0,.17,.11,.31,.29,.82,1.12,1.27,1.73,1.27,1.8,0,.22-.1,.29-.24,.29l-.68-.14c-.07,0-.1,.04-.1,.04-.51,.29-1.06,.54-1.68,.76-.75,.29-1.54,.58-2.39,.79-.48,.14-1.06,.25-1.71,.36v.72c0,.94,.51,1.44,1.61,1.44h2.53c.51,0,.89-.14,1.09-.36,.21-.18,.38-.72,.44-1.69,.03-.14,.1-.22,.21-.22,.58,.36,1.2,.58,1.85,.61,.27,0,.41,.14,.41,.36-.31,1.4-.68,2.34-1.16,2.84-.31,.36-.85,.54-1.64,.54h-4.79c-1.78,0-2.67-.72-2.67-2.09v-7.49h-6.16v1.98h4.41c.17,0,.27,.14,.27,.43v1.12c0,.29-.1,.43-.27,.43h-4.41v2.99c1.57-.25,3.08-.54,4.51-.86,.03,0,.1-.04,.17-.04,.17,0,.27,.11,.27,.29,0,1.01-.07,1.58-.14,1.69-2.7,.58-5.44,1.08-8.17,1.55-.27,.58-.51,.86-.65,.86-.21,0-.62-.9-1.2-2.7,.89-.11,1.85-.25,2.94-.4v-7.34h-1.85c-.1,1.37-.27,2.48-.48,3.42-.27,1.37-.75,2.74-1.44,4.07-.38,.83-.92,1.62-1.61,2.38-.17,0-.27-.04-.34-.07-.38-.36-.79-.65-1.23-.9-.1-.14-.14-.29-.14-.43,.62-.68,1.16-1.58,1.64-2.74,.48-1.22,.85-2.48,1.06-3.85,.21-1.37,.34-3.06,.34-5.08v-6.05c0-.29,.14-.43,.41-.43h9.23v-2.12c0,.29-.21,.43-.55,.43h-1.33c-.27,0-.41-.14-.41-.43v-4.07h-4.41v4.5c0,.29-.17,.43-.51,.43h-1.33c-.27,0-.41-.14-.41-.43v-5.9c0-.29,.14-.43,.41-.43h8Zm.68-3.92c.14,0,.24,.14,.24,.43v1.12c0,.29-.1,.43-.24,.43h-9.51c-.21,0-.27-.14-.27-.43v-1.12c0-.29,.07-.43,.27-.43h9.51Zm-3.35,13.93h-4.14v1.8h4.14v-1.8Zm0,5.76v-1.98h-4.14v1.98h4.14Zm-1.3-13.17c.62,.86,1.13,1.62,1.57,2.34,0,.22-.1,.32-.24,.4-.58,.58-.96,.86-1.09,.86-.07,0-.17-.07-.24-.22-.44-.61-.96-1.26-1.54-1.94-.07-.11-.1-.22-.1-.36,0-.07,.31-.43,.99-1.04,.14-.14,.31-.22,.48-.22,0,0,.07,.07,.17,.18Zm7.56,7.42h-4v1.8h4v-1.8Zm0,5.76v-1.98h-4v1.98h4Zm8.82-19.69c.17,0,.27,.14,.27,.43v1.12c0,.29-.1,.43-.27,.43h-9.47c-.21,0-.27-.14-.27-.43v-1.12c0-.29,.07-.43,.27-.43h9.47Zm-2.67,19.69v-1.98h-3.86v1.98h3.86Zm-2.12-13.17c.55,.9,1.06,1.73,1.47,2.48,0,.22-.1,.32-.24,.4-.58,.58-.96,.86-1.09,.86-.07,0-.14-.07-.21-.22-.41-.65-.89-1.37-1.44-2.09-.07-.11-.1-.22-.1-.36,0-.07,.31-.43,.99-1.04,.14-.14,.27-.22,.48-.22,0,0,.07,.07,.14,.18Z"/><path class="cls-1" d="M225.33,327.38v-2.56c0-.29,.17-.43,.55-.43,1.68,0,2.53,.14,2.53,.43,0,.32-.14,.5-.34,.54s-.31,.29-.31,.72v1.3h9.06v-2.7c0-.25,.17-.4,.55-.4,1.68,0,2.53,.14,2.53,.4,0,.32-.14,.5-.34,.54-.21,.04-.31,.29-.31,.72v1.44h7.73c.27,0,.41,.18,.41,.54v1.12c0,.4-.14,.58-.41,.58h-7.73v2.52c0,.29-.21,.43-.55,.43h-1.33c-.38,0-.55-.14-.55-.43v-2.52h-9.06v2.52c0,.29-.21,.43-.55,.43h-1.33c-.38,0-.55-.14-.55-.43v-2.52h-8c-.27,0-.41-.18-.41-.58v-1.12c0-.36,.14-.54,.41-.54h8Zm-4.03,11.99c.82,.54,1.57,1.04,2.19,1.51,0,.04-.07,.14-.17,.29-.68,1.01-1.03,1.51-1.06,1.51-.96-.72-1.92-1.37-2.94-1.94-.85-.43-1.57-.79-2.12-1.01,0-.11,.34-.65,1.06-1.58,.1-.14,.21-.25,.27-.25,1.09,.54,2.02,1.04,2.77,1.48Zm2.36,5.15c.48,1.15,.75,1.76,.75,1.84,0,.14-.07,.29-.14,.43-.89,2.23-1.74,4.14-2.53,5.72-.44,.9-.96,1.84-1.57,2.92-.14,.29-.17,.61-.17,1.04,0,.29-.1,.43-.27,.43-.14,0-.79-.68-1.91-2.02-.14-.07-.21-.22-.21-.4,0-.14,.03-.29,.14-.4,.55-.54,1.09-1.26,1.64-2.12,.75-1.15,1.5-2.48,2.26-3.96,.62-1.3,1.16-2.45,1.64-3.53,.07-.14,.14-.25,.21-.25s.14,.11,.17,.29Zm-.27-10.29c.85,.65,1.61,1.22,2.22,1.73,0,.04-.07,.14-.17,.29-.68,1.04-1.03,1.55-1.03,1.55-.96-.79-1.98-1.55-3.04-2.23-.89-.54-1.61-.94-2.15-1.15,0-.14,.34-.65,1.03-1.58,.1-.14,.21-.25,.31-.25,1.13,.61,2.09,1.15,2.84,1.66Zm11.15-1.51c.21,.18,.31,.32,.31,.43,0,.29-.21,.4-.55,.4-.27,0-.44,.14-.58,.36-.14,.25-.24,.47-.31,.65h9.57c.21,0,.41,.07,.55,.18,.41,.5,.65,.83,.65,.94-.75,1.58-1.47,2.84-2.12,3.71-.82,1.08-1.68,1.98-2.5,2.7-.27,.22-.51,.4-.72,.54,1.03,.58,2.09,1.01,3.21,1.37,1.23,.43,2.77,.79,4.58,1.08,.31,0,.48,.11,.48,.32,0,.14-.07,.29-.21,.47-.34,.47-.62,.9-.85,1.33-.07,.22-.21,.29-.41,.29-2.43-.58-4.27-1.19-5.57-1.76-1.33-.5-2.46-1.08-3.39-1.73-.14,.07-.24,.14-.31,.18-1.44,.76-3.04,1.37-4.75,1.87-1.16,.4-2.7,.72-4.55,1.01-.27,0-.48-.07-.58-.25-.27-.36-.51-.76-.72-1.12-.14-.11-.17-.22-.17-.29s.07-.14,.24-.18c1.16-.18,2.29-.4,3.42-.65,2.09-.47,3.83-1.04,5.2-1.76,.1-.04,.21-.11,.31-.18-.55-.43-.99-.86-1.37-1.3-.68-.65-1.44-1.62-2.33-2.95-.07,.11-.14,.18-.17,.25-.51,.68-1.03,1.3-1.54,1.8-.51,.54-.92,.94-1.23,1.15-.21,0-.34-.11-.48-.32-.27-.43-.58-.83-.92-1.15-.21-.14-.31-.25-.31-.36,0-.04,0-.07,.07-.14,.68-.43,1.27-.9,1.74-1.37,.62-.65,1.27-1.44,1.92-2.45,.41-.61,.79-1.22,1.06-1.84,.31-.65,.58-1.33,.85-2.09,.07-.14,.14-.25,.21-.25l2.26,1.12Zm7.9,14.33c.34,0,.55,.14,.55,.43v9.14c0,.29-.21,.43-.55,.43h-1.33c-.34,0-.51-.14-.51-.43v-.83h-9.1v.83c0,.29-.21,.43-.55,.43h-1.33c-.34,0-.51-.14-.51-.43v-9.14c0-.29,.17-.43,.51-.43h12.82Zm-1.85,6.62v-4.5h-9.1v4.5h9.1Zm-6.22-14.4c.68,.72,1.5,1.44,2.5,2.12,.41-.25,.79-.5,1.13-.79,.89-.76,1.64-1.62,2.26-2.59,.27-.36,.58-.83,.85-1.37h-8.72c.68,1.12,1.37,1.98,1.98,2.63Z"/><path class="cls-1" d="M233.44,379.15c-.55,1.01-1.27,1.87-2.19,2.52l-.89-1.04c1.37-1.04,2.12-2.41,2.29-4.1h-2.53v-4.32h4.1v3.96c0,1.01-.27,1.98-.79,2.99Z"/><path class="cls-1" d="M161.88,1.4c0,.32-.1,.5-.31,.5-.24,.07-.34,.32-.34,.76V13.5h13.2c.27,0,.41,.14,.41,.4v1.44c0,.36-.14,.54-.41,.54h-9.47v12.38c0,1.15,.65,1.69,2.02,1.69h4.27c.85,0,1.37-.5,1.54-1.58,.17-.54,.38-1.76,.58-3.64,.72,.61,1.33,.97,1.88,1.12,.27,.07,.41,.25,.41,.58-.34,2.09-.68,3.46-1.03,4.18-.34,1.15-1.2,1.73-2.6,1.73h-6.39c-2.05,0-3.08-.79-3.08-2.38V15.87h-5.1c-.03,1.87-.1,3.46-.17,4.75-.21,1.58-.51,3.02-.99,4.32-.44,1.3-1.13,2.52-2.09,3.6-.96,1.15-2.12,2.05-3.49,2.81-1.2,.54-2.5,1.04-3.93,1.55-.24,0-.38-.14-.41-.43-.34-.47-.65-.97-.96-1.55-.07-.14-.1-.29-.1-.43,2.02-.43,3.62-.94,4.86-1.58,.96-.47,1.74-1.15,2.36-2.05,.55-.65,1.03-1.44,1.37-2.41,.41-1.04,.72-2.23,.92-3.6,.14-1.12,.21-2.77,.24-4.97h-9.2c-.27,0-.41-.18-.41-.54v-1.44c0-.25,.14-.4,.41-.4h12.82V1.4c0-.29,.17-.43,.51-.43,1.78,0,2.67,.14,2.67,.43Zm-12.41,1.55c2.05,2.23,3.93,4.64,5.61,7.16,0,.4-.1,.61-.24,.61-.92,.65-1.64,.94-2.15,.94-1.88-3.02-3.66-5.58-5.33-7.59,0-.29,.55-.68,1.71-1.26,.21,0,.34,.07,.41,.14Zm23.49,.54c.34,.18,.55,.36,.55,.58,0,.25-.21,.43-.55,.5-.48,0-.75,.22-.89,.58-1.3,2.74-2.6,4.82-3.86,6.3-.31,.36-.55,.5-.72,.5s-.38-.07-.65-.29c-.51-.22-.99-.47-1.44-.68-.21-.07-.31-.11-.31-.14,0-.07,.07-.22,.21-.4,1.27-1.3,2.22-2.45,2.84-3.46,.92-1.3,1.61-2.59,2.09-3.89,.14-.36,.27-.58,.48-.58l2.26,.97Z"/><path class="cls-1" d="M151.15,61.95c.31,.14,.48,.29,.48,.47,0,.22-.17,.32-.48,.4-.41,0-.65,.14-.72,.43-1.09,2.09-2.15,3.67-3.18,4.82-.27,.25-.44,.4-.58,.4s-.34-.07-.55-.22c-.41-.25-.82-.47-1.2-.61-.21-.07-.27-.14-.27-.14,0-.07,.03-.18,.17-.29,1.06-1.01,1.85-1.87,2.39-2.63,.75-1.01,1.33-1.98,1.71-2.99,.1-.29,.24-.43,.41-.43l1.81,.79Zm10.09-24.69c.34,0,.51,.14,.51,.43v8.85c0,.29-.17,.4-.51,.4h-5.47v1.98h8.14c.17,0,.27,.14,.27,.43v1.12c0,.29-.1,.43-.27,.43h-18.84c-.21,0-.27-.14-.27-.43v-1.12c0-.29,.07-.43,.27-.43h8.27v-1.98h-5.88c-.34,0-.51-.11-.51-.4v-8.85c0-.29,.17-.43,.51-.43h13.78Zm.14,15.62c.34,0,.51,.14,.51,.4v6.19c0,.29-.17,.43-.51,.43h-5.75v6.59c0,1.69-1.3,2.56-3.9,2.56h-.92c-.14,0-.21-.22-.21-.65-.03-.5-.17-1.12-.44-1.76v-.14c.48,.18,.99,.29,1.47,.29,1.13,0,1.71-.43,1.71-1.26v-5.62h-5.74c-.34,0-.51-.14-.51-.43v-6.19c0-.25,.17-.4,.51-.4h13.78Zm-2.02-11.84v-1.8h-10.02v1.8h10.02Zm0,1.98h-10.02v1.98h10.02v-1.98Zm.14,11.95h-10.02v2.81h10.02v-2.81Zm.14,6.62c.82,1.51,2.02,3.13,3.52,4.79,.14,.07,.21,.22,.21,.4,0,.11-.1,.25-.24,.43-.68,.65-1.09,.97-1.23,.97-.07,0-.17-.07-.24-.14-1.71-1.91-3.01-3.71-3.9-5.47,1.03-.83,1.54-1.26,1.61-1.26s.14,.11,.27,.29Zm14.57-23.51c0,.22-.21,.29-.55,.29-.21,0-.41,.18-.58,.5-.44,.72-1.06,1.62-1.88,2.7-.92,1.19-1.88,2.23-2.91,3.1-.62,.58-1.47,1.19-2.5,1.87-.34,0-.55-.11-.65-.36-.34-.4-.65-.79-.92-1.15-.21-.07-.31-.18-.31-.32,0-.07,.03-.14,.1-.22,1.3-.65,2.36-1.33,3.21-2.12,.96-.79,1.78-1.69,2.53-2.66,.72-.97,1.37-2.02,1.92-3.13,.1-.18,.24-.29,.38-.29,1.44,1.04,2.15,1.66,2.15,1.8Zm1.47,21.24c0,.22-.21,.29-.55,.29-.24,0-.44,.22-.65,.58-.51,.76-1.23,1.76-2.12,2.99-1.03,1.33-2.09,2.48-3.21,3.49-.72,.61-1.68,1.3-2.84,2.09-.31,0-.51-.14-.62-.36-.34-.43-.68-.79-.96-1.15-.21-.11-.27-.22-.27-.32s.03-.18,.1-.22c1.44-.76,2.63-1.51,3.56-2.38,1.09-.94,2.02-1.94,2.84-3.02,.82-1.08,1.5-2.23,2.12-3.46,.14-.22,.31-.36,.44-.36,1.44,1.04,2.15,1.66,2.15,1.83Zm0-11.52c0,.22-.21,.29-.55,.29-.24,0-.44,.18-.62,.5-.51,.72-1.23,1.66-2.12,2.81-.99,1.3-2.05,2.38-3.18,3.31-.68,.58-1.61,1.22-2.77,1.94-.31,0-.51-.11-.62-.36-.34-.4-.68-.79-.96-1.15-.21-.07-.31-.18-.31-.32,0-.07,.03-.14,.14-.22,1.44-.65,2.6-1.4,3.49-2.2,1.09-.86,2.02-1.83,2.8-2.84,.79-1.01,1.47-2.09,2.09-3.28,.14-.22,.31-.32,.44-.32,1.44,1.04,2.15,1.66,2.15,1.83Z"/><path class="cls-1" d="M154.33,78.19c.58-1.58,1.03-3.31,1.37-5.18,.07-.29,.21-.47,.44-.47,1.95,.72,2.94,1.19,2.94,1.4s-.14,.36-.38,.43c-.41,0-.65,.22-.79,.58-.31,1.15-.65,2.23-.99,3.24h17.27c.24,0,.38,.14,.38,.4v1.4c0,.4-.14,.58-.38,.58h-18.16c-.24,.58-.48,1.08-.68,1.58-.79,1.62-1.57,3.06-2.39,4.36v18.11c0,.29-.24,.43-.68,.43h-1.33c-.38,0-.55-.14-.55-.43v-14.9c-1.13,1.22-2.36,2.34-3.69,3.35-.21,.14-.38,.18-.58,.18-.27,0-.48-.14-.62-.43-.24-.36-.51-.65-.82-.94-.21-.11-.27-.25-.27-.47,0-.11,.07-.22,.24-.29,.82-.36,1.61-.9,2.39-1.62,1.33-1.08,2.53-2.34,3.59-3.85,1.03-1.37,1.98-3.06,2.8-5.08h-7.45c-.27,0-.38-.18-.38-.58v-1.4c0-.25,.1-.4,.38-.4h8.34Zm9.16,11.52v-5.62c0-.29,.17-.43,.55-.43,1.78,0,2.67,.14,2.67,.43,0,.32-.14,.5-.34,.5-.24,.07-.34,.32-.34,.76v4.36h6.84c.24,0,.38,.22,.38,.58v1.4c0,.36-.14,.54-.38,.54h-6.84v9.57h8.17c.24,0,.38,.18,.38,.58v1.12c0,.36-.14,.54-.38,.54h-18.84c-.27,0-.41-.18-.41-.54v-1.12c0-.4,.14-.58,.41-.58h8.14v-9.57h-7.08c-.27,0-.41-.18-.41-.54v-1.4c0-.36,.14-.58,.41-.58h7.08Z"/><path class="cls-1" d="M153.88,110.09v-1.55c0-.25,.17-.4,.55-.4,1.68,0,2.53,.14,2.53,.4,0,.36-.14,.54-.34,.54-.24,.04-.34,.29-.34,.76v.25h7.76v-1.55c0-.25,.17-.4,.51-.4,1.71,0,2.56,.14,2.56,.4,0,.36-.14,.54-.34,.54-.24,.04-.34,.29-.34,.76v.25h8.82c.17,0,.27,.14,.27,.43v1.12c0,.29-.1,.43-.27,.43h-8.82v1.55c0,.29-.21,.43-.55,.43h-1.33c-.34,0-.51-.14-.51-.43v-1.55h-7.76v1.55c0,.29-.17,.43-.51,.43h-1.33c-.14,0-.24,0-.27-.04-.03,.22-.1,.36-.21,.36-.14,.04-.21,.25-.21,.65v.58h4.41c.17,0,.27,.14,.27,.4v.86c0,.36-.1,.54-.27,.54h-4.41v1.69h6.29c.14,0,.24,.14,.24,.43v.86c0,.36-.1,.54-.24,.54h-2.43v1.69c0,.29,.03,.43,.14,.43h1.2c.34,0,.65-.4,.96-1.26l1.71,1.12c-.62,1.33-1.37,1.98-2.26,1.98h-2.26c-.41,0-.68-.04-.82-.18v.18c0,.29-.1,.4-.27,.4h-2.26v1.58c1.64-.22,3.21-.43,4.72-.68,.07,0,.14-.04,.24-.04,.14,0,.24,.11,.24,.25,0,1.04-.07,1.62-.14,1.69-3.76,.47-7.59,.9-11.46,1.3-.31,.58-.55,.83-.68,.83-.17,0-.51-.79-1.06-2.38,1.64-.14,3.66-.36,6.02-.72v-1.84h-2.84c-.17,0-.24-.11-.24-.4v-.86c0-.29,.07-.43,.24-.43h2.84v-1.69c0-.14,.17-.25,.51-.25,1.44,0,2.15,.11,2.15,.25,0,.29-.1,.47-.27,.5-.21,.04-.27,.25-.27,.65v.54h2.02v-2.66h-5.92c-.03,.07-.07,.14-.07,.18-.14,.47-.34,.86-.55,1.19-.21,.32-.48,.65-.75,1.01-.31,.36-.65,.65-1.03,.86-.38,.29-.72,.47-1.06,.61s-.72,.25-1.06,.36c-.17,0-.31-.04-.41-.18-.31-.43-.62-.83-.89-1.19-.14-.11-.17-.22-.17-.32,0,0,0-.04,.07-.07,.38-.04,.72-.11,1.06-.22,.27-.11,.55-.22,.82-.36,.34-.18,.68-.4,.99-.65,.27-.22,.48-.47,.68-.76,.14-.14,.27-.29,.38-.47h-2.12c-.21,0-.27-.18-.27-.54v-.86c0-.29,.07-.43,.27-.43h5.98v-1.69h-4.27c-.17,0-.24-.18-.24-.54v-.86c0-.25,.07-.4,.24-.4h4.27v-1.69c0-.18,.14-.29,.41-.29,.92,0,1.5,.07,1.78,.14-.03-.07-.03-.11-.03-.14v-1.55h-8.82c-.21,0-.27-.14-.27-.43v-1.12c0-.29,.07-.43,.27-.43h8.82Zm21.37,22.79c.17,0,.27,.14,.27,.43v1.12c0,.29-.1,.43-.27,.43h-6.7c.72,.65,1.37,1.26,1.92,1.83,.96,1.15,1.81,2.16,2.53,3.1,0,0-.07,.11-.17,.25-.68,.94-1.03,1.4-1.06,1.4-.68-.94-1.37-1.8-2.09-2.59-7.32,.72-14.19,1.26-20.62,1.62-.21,0-.34,.14-.41,.47-.07,.5-.24,.79-.51,.79s-.79-1.08-1.47-3.24c.65,0,1.85-.07,3.62-.14,0-.07,.03-.11,.07-.11,.79-1.22,1.5-2.34,2.12-3.38h-7.42c-.21,0-.27-.14-.27-.43v-1.12c0-.29,.07-.43,.27-.43h30.19Zm-9.23,2.52c0-.07,.1-.25,.31-.54h-11.46c-.89,1.48-1.61,2.59-2.09,3.35,4.86-.29,9.92-.65,15.22-1.12-.79-.79-1.44-1.33-1.98-1.69Zm1.74-5.76c.17,0,.27,.14,.27,.43v.83c0,.4-.1,.58-.27,.58h-14.57c-.17,0-.24-.18-.24-.58v-.83c0-.29,.07-.43,.24-.43h14.57Zm.96-14.9c0,.14-.1,.29-.27,.4-.21,.07-.27,.29-.27,.61s-.03,.61-.03,.83h4.31c.14,.04,.27,.11,.41,.25,.24,.54,.38,.86,.38,1.01-.55,1.01-.89,1.98-1.03,2.84-.21,.79-.31,1.58-.31,2.38,0,1.01,.17,1.8,.55,2.38,.34,.5,.65,.72,.92,.72s.44-.14,.58-.43c.21-.25,.44-1.08,.68-2.48,.07-.11,.21-.18,.34-.18,.1,0,.17,.07,.24,.18,.31,.32,.62,.58,.92,.79,.1,.07,.17,.22,.17,.43-.55,1.84-1.13,3.17-1.81,4.03-.34,.43-.72,.61-1.13,.61-.55,0-1.06-.25-1.61-.79-.62-.58-1.03-1.3-1.27-2.2-.31-.97-.44-1.98-.44-3.06,0-1.26,.31-2.81,.92-4.64h-2.91c-.07,1.62-.17,2.74-.27,3.35-.14,.65-.27,1.19-.41,1.66,.82,.94,1.54,1.73,2.12,2.45,0,.04-.07,.11-.14,.25-.62,.86-.92,1.3-.92,1.3-.62-.72-1.2-1.44-1.81-2.09-.27,.47-.58,.86-.92,1.19-.75,.72-1.64,1.26-2.6,1.58-.62,.22-.96,.29-1.09,.29-.21,0-.34-.07-.41-.25-.14-.29-.38-.72-.79-1.26-.1-.14-.14-.29-.14-.47,.99-.14,1.81-.43,2.43-.83,.68-.4,1.2-.86,1.57-1.37,.1-.14,.21-.29,.27-.5-.89-.76-1.57-1.3-2.12-1.66,0-.11,.31-.54,.92-1.33,.07-.14,.17-.22,.27-.22,.62,.5,1.13,.94,1.61,1.3,.21-.79,.34-1.94,.44-3.38h-3.8c-.21,0-.27-.18-.27-.58v-.83c0-.29,.07-.43,.27-.43h3.83c0-.65,.03-1.33,.03-1.98,0-.14,.03-.25,.14-.25,1.61,.14,2.43,.29,2.43,.4Z"/><path class="cls-1" d="M153.47,154.94c0,.36-.17,.61-.51,.72-.27,.11-.44,.25-.51,.43-.65,1.26-1.3,2.38-1.92,3.35v17.17c0,.29-.17,.43-.51,.43h-1.33c-.38,0-.55-.14-.55-.43v-13.93c-.62,.76-1.33,1.55-2.15,2.41-.68-.79-1.2-1.37-1.57-1.66-.21-.22-.27-.36-.27-.47,0-.04,.03-.11,.1-.25,1.54-1.29,2.91-2.84,4.07-4.68,.92-1.33,1.81-2.95,2.67-4.82,.07-.14,.14-.22,.24-.22,.14,0,.89,.65,2.26,1.94Zm-.34-8.57c.31,.22,.48,.43,.48,.72s-.14,.4-.41,.4c-.41,0-.72,.18-.89,.47-2.22,3.02-4.27,5.29-6.19,6.73-.24,0-.41-.11-.55-.32-.34-.43-.72-.83-1.06-1.12-.17-.18-.24-.32-.24-.4,0-.14,.03-.22,.14-.25,.65-.36,1.3-.9,1.95-1.58,.89-.79,1.71-1.69,2.5-2.7,.68-.97,1.27-2.02,1.78-3.13,.14-.22,.24-.36,.31-.36l2.19,1.55Zm4.17,11.48c.21,.07,.31,.18,.31,.32,0,.29-.1,.47-.27,.5-.27,.14-.44,.54-.51,1.19,0,4.28-.17,7.23-.51,8.85-.44,1.62-.89,3.02-1.33,4.18,0,.22-.24,.32-.68,.32-1.27-.4-1.88-.68-1.88-.83,.82-1.87,1.37-3.42,1.57-4.61,.34-2.23,.58-5.62,.65-10.08,0-.22,.14-.36,.44-.36l2.22,.5Zm1.5-6.12v-7.05c0-.25,.17-.4,.55-.4,1.68,0,2.53,.14,2.53,.4,0,.32-.1,.5-.31,.54-.24,.04-.34,.29-.34,.72v5.79h4.55c.24,0,.38,.18,.38,.54v1.12c0,.4-.14,.58-.38,.58h-4.55v22.5c0,.29-.21,.43-.55,.43h-1.33c-.38,0-.55-.14-.55-.43v-22.5h-4.14c-.27,0-.38-.18-.38-.58v-1.12c0-.36,.1-.54,.38-.54h4.14Zm5.51-5.65c.75,1.08,1.47,2.2,2.12,3.38,0,.36-.07,.54-.21,.58-.75,.58-1.37,.83-1.78,.83-.68-1.51-1.3-2.77-1.88-3.78,0-.25,.48-.65,1.47-1.15,.14,0,.21,.07,.27,.14Zm1.47,11.95c0,.18-.14,.36-.41,.58v10.98c0,.29,.07,.4,.27,.4h.65c.31,0,.62-1.12,.96-3.35l1.98,1.26c-.65,2.92-1.44,4.36-2.39,4.36h-2.02c-1.16,0-1.74-.5-1.74-1.55v-12.81c0-.25,.14-.4,.41-.4,1.5,.14,2.29,.32,2.29,.54Zm10.02-3.49c.24,0,.38,.18,.38,.54v1.15c0,.36-.14,.54-.38,.54h-2.29v17.6c0,1.76-1.4,2.66-4.14,2.66h-1.47c-.17,0-.24-.25-.24-.68-.07-.54-.24-1.15-.55-1.87v-.11c.72,.14,1.44,.25,2.12,.25,1.23,0,1.88-.43,1.88-1.26v-16.59h-3.76c-.27,0-.38-.18-.38-.54v-1.15c0-.36,.1-.54,.38-.54h8.45Zm-.55-7.59c.27,0,.41,.18,.41,.54v1.15c0,.36-.14,.54-.41,.54h-7.21c-.27,0-.41-.18-.41-.54v-1.15c0-.36,.14-.54,.41-.54h7.21Z"/><path class="cls-1" d="M153.88,190.11c0,.36-.21,.61-.55,.72-.27,.07-.48,.22-.55,.4-.82,1.4-1.64,2.63-2.53,3.71v17.67c0,.29-.17,.43-.51,.43h-1.33c-.38,0-.55-.14-.55-.43v-14.94c-.68,.72-1.44,1.44-2.26,2.16-.65-.72-1.16-1.26-1.5-1.55-.17-.22-.24-.36-.24-.43s.03-.14,.1-.25c1.71-1.22,3.18-2.7,4.48-4.46,1.03-1.3,1.98-2.84,2.91-4.64,.07-.14,.17-.22,.27-.22s.85,.61,2.26,1.84Zm-1.27-7.88c.27,.22,.44,.43,.44,.72,0,.22-.17,.29-.51,.29-.41,0-.68,.14-.85,.4-2.09,2.88-4.04,4.97-5.81,6.34-.24,0-.41-.07-.55-.25-.34-.43-.65-.76-.96-1.04-.17-.14-.24-.29-.24-.4s.03-.18,.14-.25c.62-.32,1.23-.83,1.85-1.48,.85-.72,1.68-1.58,2.43-2.52,.65-.94,1.23-1.94,1.71-2.99,.1-.22,.21-.36,.27-.36l2.09,1.55Zm5.54,18.29v-3.63c0-.29,.17-.43,.55-.43,1.68,0,2.53,.14,2.53,.43,0,.32-.14,.5-.34,.5-.24,.07-.34,.32-.34,.76v2.38h4.41c.27,0,.41,.22,.41,.58v1.12c0,.4-.14,.58-.41,.58h-4.41v5.08c1.78-.29,3.49-.61,5.13-.97,.07,0,.14-.04,.21-.04,.17,0,.27,.11,.27,.29,0,1.19-.07,1.83-.14,1.94-3.86,.76-7.76,1.4-11.73,1.98-.34,.65-.62,.97-.82,.97s-.65-1.01-1.33-2.95c1.68-.14,3.69-.43,6.02-.83v-5.47h-4.82c-.27,0-.38-.18-.38-.58v-1.12c0-.36,.1-.58,.38-.58h4.82Zm0-15.19v-4.64c0-.25,.17-.4,.55-.4,1.68,0,2.53,.14,2.53,.4,0,.32-.14,.5-.34,.54-.24,.04-.34,.29-.34,.72v3.38h3.9c.24,0,.38,.22,.38,.58v1.12c0,.4-.14,.58-.38,.58h-3.9v5.33h4.68c.27,0,.41,.22,.41,.58v1.12c0,.4-.14,.58-.41,.58h-11.9c-.27,0-.38-.18-.38-.58v-1.12c0-.36,.1-.58,.38-.58h4.82v-5.33h-4.14c-.27,0-.41-.18-.41-.58v-1.12c0-.36,.14-.58,.41-.58h4.14Zm17.51,5.62c.24,0,.38,.22,.38,.58v1.12c0,.4-.14,.58-.38,.58h-2.67v17.03c0,1.76-1.4,2.66-4.17,2.66h-1.71c-.17,0-.24-.25-.24-.68-.07-.54-.24-1.15-.58-1.84v-.14c.82,.14,1.64,.25,2.43,.25,1.23,0,1.85-.43,1.85-1.26v-16.02h-3.86c-.27,0-.41-.18-.41-.58v-1.12c0-.36,.14-.58,.41-.58h8.96Zm-.55-7.85c.27,0,.41,.18,.41,.54v1.15c0,.36-.14,.54-.41,.54h-7.76c-.27,0-.38-.18-.38-.54v-1.15c0-.36,.1-.54,.38-.54h7.76Z"/><path class="cls-1" d="M154.63,217.04c.27,.07,.44,.22,.44,.5,0,.36-.17,.5-.51,.5-.21,.07-.34,.25-.41,.47-.68,1.62-1.33,3.02-1.98,4.21h5.3c.34,0,.55,.14,.55,.43v23.9c0,.29-.21,.43-.55,.43h-1.33c-.34,0-.51-.14-.51-.43v-1.84h-7.21v2.81c0,.29-.21,.43-.55,.43h-1.33c-.38,0-.55-.14-.55-.43v-24.73c0-.36,.17-.58,.55-.58h3.08c.85-1.62,1.74-3.6,2.67-5.9,.07-.18,.21-.29,.41-.29l1.95,.5Zm.99,15.69v-7.74h-7.21v7.74h7.21Zm0,10.26v-8.03h-7.21v8.03h7.21Zm11.76-25.81c.24,.22,.38,.36,.38,.5,0,.22-.1,.32-.27,.4-.27,0-.44,.14-.51,.43-.51,1.58-.96,2.84-1.37,3.82h8.45c.41,0,.65,.25,.65,.68,0,8.21-.14,13.86-.41,16.99-.27,2.81-.72,4.79-1.27,6.01-.48,1.04-1.09,1.69-1.85,1.98-.96,.4-2.22,.61-3.83,.61-1.44,0-2.19-.25-2.19-.72-.1-.61-.27-1.22-.48-1.8,0-.22,.03-.29,.14-.29l.27,.04c.65,.07,1.23,.11,1.74,.11,1.68,0,2.8-.25,3.42-.76,.68-.54,1.16-2.05,1.44-4.54,.38-2.59,.58-7.96,.62-16.09h-7.73c-.38,.76-.75,1.48-1.16,2.12-.65,.94-1.33,1.76-2.05,2.52-.31,0-.55-.04-.75-.11-.44-.18-.89-.36-1.3-.54-.17-.07-.24-.11-.24-.18,0-.14,.03-.25,.14-.32,1.09-1.12,2.12-2.48,3.01-4.14,.51-.94,.96-1.94,1.37-3.02,.41-1.12,.82-2.56,1.23-4.36,.07-.14,.17-.25,.27-.25l2.29,.9Zm-2.94,13.86c1.27,2.2,2.43,4.54,3.45,7.02,0,.36-.07,.54-.21,.58-.82,.58-1.47,.83-1.92,.83-1.16-2.99-2.22-5.47-3.21-7.45,0-.25,.48-.61,1.47-1.12,.21,0,.34,.07,.41,.14Z"/><path class="cls-1" d="M150.39,263.37c0,4.46-.21,8.03-.62,10.66-.27,2.16-.82,4.36-1.61,6.51-.41,1.3-1.03,2.56-1.78,3.78-.17,0-.27-.04-.34-.07-.38-.36-.79-.68-1.23-.97-.14-.14-.17-.29-.17-.5,.68-1.08,1.3-2.59,1.85-4.54,.51-2.02,.89-4.14,1.13-6.37,.24-2.3,.38-5.15,.38-8.5v-9.54c0-.29,.17-.43,.55-.43h24.31c.34,0,.51,.14,.51,.43v6.88c0,.4-.17,.58-.51,.58h-22.47v2.09Zm23.39,.72c.17,0,.27,.14,.27,.4v1.15c0,.36-.1,.54-.27,.54h-13.17c-1.16,2.2-2.09,3.82-2.7,4.9,3.56-.29,7.28-.65,11.18-1.08-.55-.86-1.09-1.69-1.61-2.41,0-.22,.48-.61,1.47-1.12,.21,0,.34,.07,.41,.14,1.64,2.12,3.18,4.39,4.55,6.77,0,.36-.1,.54-.24,.54-.82,.58-1.44,.86-1.92,.86-.51-1.01-1.03-1.94-1.5-2.81-2.26,.29-4.41,.54-6.5,.76v3.71h8.41c.17,0,.27,.14,.27,.43v1.12c0,.4-.1,.58-.27,.58h-8.41v3.67h11.22c.17,0,.27,.11,.27,.4v1.15c0,.36-.1,.54-.27,.54h-24.83c-.21,0-.27-.18-.27-.54v-1.15c0-.29,.07-.4,.27-.4h11.22v-3.67h-8.31c-.17,0-.24-.18-.24-.58v-1.12c0-.29,.07-.43,.24-.43h8.31v-3.46c-2.46,.29-4.82,.5-7.08,.65-.24,0-.41,.18-.51,.5-.07,.61-.24,.9-.58,.9-.27,0-.79-1.15-1.47-3.49,.55,0,1.57-.07,3.11-.22,.14,0,.27,0,.41-.04,.1-.14,.21-.32,.31-.5,.96-1.66,1.81-3.2,2.56-4.61h-5.85c-.21,0-.27-.18-.27-.54v-1.15c0-.25,.07-.4,.27-.4h21.51Zm-23.39-4.93h20.58v-3.67h-20.58v3.67Z"/><path class="cls-1" d="M173.92,289.94c.27,0,.41,.14,.41,.43v1.4c0,.4-.14,.58-.41,.58h-16l-.99,4.93h11.39c.34,0,.51,.25,.51,.68l-2.8,16.59c0,1.08,.1,1.8,.34,2.16,.24,.83,.65,1.22,1.27,1.22h2.8c.68,0,1.16-.18,1.47-.61,.27-.43,.62-1.91,1.06-4.36,0-.43,.1-.65,.27-.65,.07,0,.21,.07,.38,.22,.34,.32,.75,.65,1.27,1.01,.24,.18,.38,.32,.38,.43-.68,3.02-1.23,4.86-1.64,5.54-.48,.72-1.03,1.08-1.71,1.08h-4.92c-1.3,0-2.19-.5-2.7-1.44-.34-.72-.55-1.62-.62-2.81-.96,.14-1.92,.32-2.87,.5-4.21,.79-8.51,1.58-12.93,2.48-.27,.68-.55,1.04-.79,1.12-.17,0-.31-.07-.44-.22l-.89-3.42c.82-.07,2.39-.32,4.79-.68l4.86-23.79h-9.4c-.27,0-.38-.18-.38-.58v-1.4c0-.29,.1-.43,.38-.43h27.94Zm-7.66,9.86h-9.85l-3.21,15.91c2.29-.36,5.03-.83,8.24-1.37,.96-.18,1.74-.32,2.43-.47l2.39-14.07Zm-5.06,7.56c.62,1.22,1.16,2.48,1.64,3.82,0,.11-.79,.36-2.29,.72-.21-.86-.58-1.94-1.2-3.24-.68-1.44-1.57-2.92-2.67-4.36,0-.14,.62-.58,1.88-1.26,1.06,1.58,1.95,3.02,2.63,4.32Z"/><path class="cls-1" d="M149.47,331.99v-4.75c0-.68-.07-1.22-.14-1.58-.1-.29-.14-.5-.14-.68s.21-.29,.68-.29l2.67,.4c.27,.14,.41,.25,.41,.32,0,.22-.14,.32-.41,.32-.48,.18-.68,.72-.68,1.66v4.61h3.62c.27,0,.41,.22,.41,.58v1.12c0,.4-.14,.58-.41,.58h-3.62v7.16c1.06-.61,2.09-1.26,3.04-1.98,.03-.07,.1-.11,.17-.11,.17,0,.27,.11,.27,.25,0,1.22-.07,1.87-.14,1.98-1.16,.79-2.26,1.55-3.35,2.27v10.55c0,1.66-1.2,2.52-3.59,2.52h-2.39c-.21,0-.31-.22-.31-.61-.1-.47-.31-1.01-.65-1.66,0-.18,.07-.25,.27-.25,1.03,.14,1.95,.25,2.8,.25,.96,0,1.47-.43,1.47-1.26v-8.03c-1.13,.72-2.26,1.37-3.35,1.98-.34,.68-.58,1.01-.79,1.01s-.65-.97-1.33-2.95c1.44-.5,3.15-1.3,5.2-2.45,.07-.04,.17-.07,.27-.14v-8.53h-4.14c-.27,0-.41-.18-.41-.58v-1.12c0-.36,.14-.58,.41-.58h4.14Zm17.47-7.13c.21,.14,.31,.29,.31,.4,0,.29-.21,.43-.55,.43-.41,0-.68,.11-.85,.25-.48,.58-.89,1.04-1.27,1.44h8.65c.21,0,.41,.07,.55,.14,.41,.5,.65,.83,.65,.97-.75,1.58-1.47,2.81-2.12,3.64-.82,1.08-1.61,1.98-2.43,2.7-.85,.72-1.92,1.4-3.21,2.05-1.03,.54-2.12,1.01-3.21,1.37,.55,.36,.85,.58,.85,.65,0,.22-.07,.32-.21,.32-.31,.04-.51,.14-.62,.36-.07,.07-.1,.14-.14,.14h10.02c.27,0,.41,.22,.41,.58v1.12c0,.4-.14,.58-.41,.58h-6.81v3.78h8.41c.27,0,.41,.22,.41,.58v1.12c0,.4-.14,.58-.41,.58h-8.41v4.9h4.96v-3.06c0-.29,.17-.43,.51-.43,1.68,0,2.53,.14,2.53,.43,0,.32-.1,.5-.31,.5-.24,.07-.34,.32-.34,.76v5.47c0,.29-.21,.43-.55,.43h-1.33c-.34,0-.51-.14-.51-.43v-1.4h-13.1v1.4c0,.29-.21,.43-.55,.43h-1.33c-.38,0-.55-.14-.55-.43v-6.62c0-.25,.17-.4,.55-.4,1.68,0,2.53,.14,2.53,.4,0,.36-.14,.54-.34,.54-.21,.07-.31,.32-.31,.76v1.66h5.74v-4.9h-8.41c-.27,0-.41-.18-.41-.58v-1.12c0-.36,.14-.58,.41-.58h8.41v-3.78h-3.11c-.27,.22-.55,.36-.75,.5-.58,.43-1.57,1.01-2.98,1.73-.21,0-.41-.11-.58-.32-.31-.25-.62-.5-.92-.79-.14-.11-.21-.25-.21-.43,.72-.36,1.44-.79,2.19-1.26,.96-.58,1.78-1.22,2.5-1.94,.14-.14,.24-.25,.38-.4-.96,.25-2.02,.47-3.21,.65-.27,0-.48-.07-.58-.29-.24-.36-.48-.72-.72-1.08-.14-.11-.17-.22-.17-.32,0-.07,.07-.14,.27-.18,1.13-.14,2.26-.32,3.35-.61,.82-.18,1.61-.4,2.33-.61-1.09-1.22-2.09-2.23-3.01-3.1,0-.22,.48-.61,1.47-1.12,.14,0,.21,.07,.27,.14,1.33,1.01,2.56,2.05,3.66,3.17,.17-.07,.31-.14,.44-.22,.55-.29,1.09-.58,1.57-.86-1.37-1.26-2.63-2.34-3.8-3.2,0-.25,.48-.61,1.47-1.12,.14,0,.21,.04,.27,.11,1.44,.94,2.77,1.87,4,2.84,.89-.72,1.61-1.58,2.22-2.52,.27-.36,.55-.79,.82-1.3h-9.16c-.21,.14-.34,.29-.48,.36-.75,.58-1.5,1.08-2.26,1.51s-1.37,.76-1.85,.94c-.21,0-.38-.11-.48-.32-.27-.43-.58-.83-.92-1.15-.21-.14-.31-.25-.31-.36,0,0,.03-.04,.1-.07,1.06-.4,1.95-.79,2.63-1.19,.96-.5,1.92-1.19,2.91-1.98,.62-.5,1.16-1.04,1.57-1.55,.44-.5,.85-1.08,1.23-1.73,.14-.14,.24-.22,.34-.22l2.26,1.15Z"/><path class="cls-1" d="M157.64,364.5c-.03-1.15-.03-2.38-.03-3.67,0-.36,.14-.54,.41-.54l2.74,.32c.31,.07,.48,.18,.48,.36,0,.43-.21,.61-.58,.61-.41,.18-.62,.9-.62,2.2v.72h12.14c.34,0,.55,.14,.55,.4v15.91c0,.29-.21,.43-.55,.43h-1.33c-.38,0-.55-.14-.55-.43v-1.12h-8.38c.07,.32,.17,.65,.31,.94,.41,1.37,.92,2.59,1.57,3.71,1.16-.72,2.26-1.44,3.28-2.2,.34-.22,.72-.36,1.09-.36,1.57,1.15,2.39,1.8,2.39,1.98,0,.29-.17,.43-.51,.43-.62,0-1.13,.18-1.61,.5-.89,.5-1.98,1.08-3.32,1.73,.89,1.26,1.92,2.3,3.08,3.13,.55,.36,.96,.54,1.16,.54,.65,0,1.16-.25,1.54-.68,.55-.58,1.33-1.91,2.29-3.92,.03-.22,.17-.32,.44-.32,.1,0,.21,.07,.31,.18,.41,.32,.79,.58,1.13,.76,.21,.14,.31,.29,.31,.47-.72,1.94-1.54,3.42-2.5,4.57-.99,1.15-2.02,1.76-3.11,1.76-1.03,0-2.09-.36-3.15-1.01-1.54-1.19-2.84-2.59-3.9-4.28-2.53,1.22-5.2,2.27-8.04,3.2-1.78,.58-4.21,1.22-7.25,1.94-.34,0-.58-.14-.72-.36-.38-.47-.72-.9-1.06-1.26-.24-.11-.34-.22-.34-.36,0-.11,.1-.18,.34-.22,3.62-.72,6.6-1.44,8.93-2.23,2.67-.86,4.99-1.8,6.98-2.81-.62-1.15-1.13-2.48-1.57-3.92-.21-.65-.41-1.26-.55-1.91h-9.71v2.23c0,.29-.21,.43-.55,.43h-1.33c-.34,0-.51-.14-.51-.43v-17.03c0-.25,.17-.4,.51-.4h9.78Zm.31,6.44c-.14-1.26-.21-2.7-.24-4.36h-7.97v4.36h8.21Zm.99,6.48c-.31-1.37-.55-2.77-.72-4.21h-8.48v4.21h9.2Zm1.37-6.48h9.98v-4.36h-10.22c.03,1.62,.1,3.06,.24,4.36Zm.31,2.92c.14,1.22,.34,2.41,.65,3.56h9.03v-4.21h-9.78l.1,.65Z"/><path class="cls-1" d="M151.35,413.13c.34,0,.51,.14,.51,.43v8.31c0,.36,.03,.79,.1,1.33,.41,.76,.96,1.4,1.71,1.91,.89,.58,2.26,.83,4.03,.83h9.03c.79,0,2.15-.11,4.07-.32,1.74-.18,3.08-.4,4.04-.65,.14,0,.27-.04,.41-.04,.17,0,.27,.11,.27,.29-.41,.79-.72,1.48-.99,2.12-.07,.43-.27,.68-.62,.68h-16.21c-2.33,0-4.21-.54-5.57-1.58-.62-.58-1.2-1.3-1.68-2.27-1.16,1.08-2.22,2.02-3.11,2.92-.55,.29-.82,.68-.85,1.12,0,.36-.1,.54-.24,.54-.1,0-.24-.11-.41-.29l-1.57-2.52c.55-.07,2.12-1.04,4.65-2.99,.34-.14,.55-.5,.55-1.08v-6.48h-4.14c-.27,0-.41-.18-.41-.58v-1.12c0-.36,.14-.58,.41-.58h6.02Zm-2.43-7.13c.96,.65,1.74,1.26,2.43,1.8,0,.04-.07,.14-.17,.29-.68,1.04-1.03,1.55-1.03,1.55-1.03-.83-2.12-1.62-3.28-2.34-.96-.54-1.74-.94-2.36-1.19,0-.11,.34-.65,1.06-1.58,.1-.14,.21-.25,.31-.25,1.23,.65,2.22,1.22,3.04,1.73Zm1.5-7.31c1.03,.58,1.91,1.08,2.63,1.51,0,.04-.07,.14-.14,.29-.68,1.04-1.03,1.55-1.06,1.55-1.13-.72-2.33-1.37-3.59-1.94-1.03-.47-1.88-.79-2.53-1.01,0-.14,.34-.65,1.03-1.58,.1-.14,.21-.25,.31-.25,1.37,.5,2.46,1.01,3.35,1.44Zm22.67-.86c.34,0,.55,.14,.55,.4v24.48c0,.29-.21,.43-.55,.43h-1.33c-.34,0-.51-.14-.51-.43v-1.69h-13.64v1.84c0,.29-.17,.43-.51,.43h-1.33c-.38,0-.55-.14-.55-.43v-24.48c0-.36,.17-.54,.55-.54h17.34Zm-1.85,20.95v-18.72h-13.64v18.72h13.64Zm-3.08-15.77c.34,0,.55,.14,.55,.43v11.66c0,.29-.21,.43-.55,.43h-1.33c-.27,0-.41-.14-.41-.43v-1.26h-3.86v1.4c0,.29-.21,.43-.55,.43h-1.33c-.27,0-.41-.14-.41-.43v-11.81c0-.29,.14-.43,.41-.43h7.49Zm-1.74,8.71v-6.59h-3.86v6.59h3.86Z"/><path class="cls-1" d="M148.45,440.03c.68,.5,1.3,.97,1.81,1.37,0,.07-.07,.14-.14,.29-.68,.94-1.03,1.4-1.06,1.4-.75-.65-1.57-1.22-2.43-1.73-.68-.43-1.27-.76-1.71-.94,0-.11,.31-.58,.96-1.44,.07-.14,.17-.25,.24-.25,.96,.5,1.71,.94,2.33,1.3Zm22.67,16.16c.34,0,.51,.14,.51,.4v5.51h3.21c.17,0,.27,.11,.27,.4v1.15c0,.25-.1,.4-.27,.4h-29.24c-.21,0-.27-.14-.27-.4v-1.15c0-.29,.07-.4,.27-.4h3.32v-5.51c0-.25,.17-.4,.55-.4h21.65Zm-18.53-13.25c.48,1.15,.75,1.76,.75,1.84,0,.14-.07,.29-.17,.36-1.03,1.94-1.98,3.6-2.87,4.97-.51,.79-1.13,1.62-1.85,2.52-.14,.22-.17,.5-.17,.86,0,.29-.1,.43-.27,.43-.14,0-.79-.65-1.95-2.02-.1-.07-.17-.18-.17-.36,0-.14,.03-.25,.14-.36,.62-.5,1.23-1.12,1.85-1.84,.82-1.01,1.68-2.12,2.5-3.42,.68-1.08,1.3-2.12,1.85-3.06,.07-.11,.14-.18,.21-.18s.14,.11,.17,.25Zm-.82-8.53c.75,.65,1.44,1.19,1.98,1.66,0,.04-.07,.11-.17,.25-.68,.97-1.03,1.44-1.03,1.44-.85-.79-1.74-1.48-2.67-2.12-.75-.5-1.4-.9-1.88-1.12,0-.11,.31-.58,.92-1.44,.1-.14,.21-.25,.27-.25,1.03,.58,1.88,1.12,2.56,1.58Zm4.14,27.68v-4.1h-4.55v4.1h4.55Zm19.22-18.14c.17,0,.27,.14,.27,.43v.83c0,.4-.1,.58-.27,.58h-15.7c-.34,.61-.62,1.12-.85,1.55h15.76c.14,0,.24,.14,.24,.4-.07,1.94-.17,3.31-.34,4.14-.27,1.01-.58,1.76-.99,2.23-.38,.54-1.4,.79-3.08,.79-.92,0-1.4-.22-1.44-.68-.07-.5-.24-1.12-.55-1.84v-.29c.72,.29,1.37,.43,1.98,.43,.82,0,1.37-.14,1.61-.47,.27-.22,.48-.68,.65-1.4,.14-.36,.24-.94,.34-1.66h-4.45c-.27,.72-.51,1.4-.75,2.02-.34,.72-.72,1.37-1.09,1.94-.41,.61-.89,1.19-1.37,1.69-.24,0-.41-.04-.51-.18-.48-.22-.92-.43-1.37-.65-.17,0-.24-.04-.24-.18,.72-.65,1.3-1.26,1.74-1.87,.44-.58,.79-1.15,1.06-1.73,.14-.25,.27-.61,.44-1.04h-3.42c-.27,.72-.55,1.37-.79,1.94-.38,.72-.79,1.33-1.2,1.91-.44,.58-.92,1.15-1.47,1.66-.24,0-.41-.04-.51-.18-.48-.22-.92-.43-1.37-.65-.17,0-.24-.04-.24-.18,.75-.61,1.4-1.22,1.88-1.84,.48-.58,.85-1.12,1.13-1.66,.14-.25,.31-.58,.48-1.01h-3.21c-.41,.58-.82,1.12-1.23,1.55-.68,.72-1.33,1.33-1.98,1.84-.24,0-.41-.07-.55-.22-.38-.4-.75-.76-1.13-1.12-.07-.14-.07-.29-.07-.36,.62-.36,1.13-.76,1.54-1.12,.62-.5,1.23-1.19,1.88-2.05,.27-.36,.62-.94,1.09-1.73h-2.26c-.21,0-.27-.18-.27-.58v-.83c0-.29,.07-.43,.27-.43h20.31Zm-3.59-10.55c.34,0,.51,.14,.51,.43v7.99c0,.29-.17,.43-.51,.43h-13.64c-.38,0-.55-.14-.55-.43v-7.99c0-.29,.17-.43,.55-.43h13.64Zm-8.82,28.69v-4.1h-4.55v4.1h4.55Zm7.08-25.05v-1.94h-10.16v1.94h10.16Zm0,1.69h-10.16v1.84h10.16v-1.84Zm-.55,23.36v-4.1h-4.27v4.1h4.27Z"/><path class="cls-1" d="M161.44,487.15c-.55,1.01-1.27,1.87-2.19,2.52l-.89-1.04c1.37-1.04,2.12-2.41,2.29-4.1h-2.53v-4.32h4.1v3.96c0,1.01-.27,1.98-.79,2.99Z"/><path class="cls-1" d="M82.29,3.38c.34,0,.51,.14,.51,.4V26.42c0,.29-.17,.43-.51,.43h-1.33c-.38,0-.55-.14-.55-.43v-1.98h-5.2v3.82c0,.29-.21,.43-.55,.43h-1.33c-.38,0-.55-.14-.55-.43V3.92c0-.36,.17-.54,.55-.54h8.96Zm-1.88,9.25V5.62h-5.2v7.02h5.2Zm0,9.58v-7.31h-5.2v7.31h5.2Zm12.28-17.57V.97c0-.29,.17-.43,.55-.43,1.68,0,2.53,.14,2.53,.43,0,.32-.14,.5-.34,.54s-.31,.29-.31,.72v2.41h6.8c.27,0,.41,.18,.41,.54v1.15c0,.36-.14,.54-.41,.54h-6.8v4.93h8.14c.27,0,.41,.22,.41,.58v1.12c0,.36-.14,.54-.41,.54h-3.73v4.25h3.18c.27,0,.41,.18,.41,.54v1.12c0,.4-.14,.58-.41,.58h-3.18v9.86c0,1.76-1.4,2.66-4.17,2.66h-3.45c-.17,0-.24-.25-.24-.68-.07-.54-.24-1.15-.58-1.87v-.11c1.44,.14,2.8,.25,4.17,.25,1.23,0,1.85-.43,1.85-1.26v-8.86h-10.94c-.27,0-.41-.18-.41-.58v-1.12c0-.36,.14-.54,.41-.54h10.94v-4.25h-12.14c-.27,0-.41-.18-.41-.54v-1.12c0-.36,.14-.58,.41-.58h7.73V6.88h-6.53c-.27,0-.41-.18-.41-.54v-1.15c0-.36,.14-.54,.41-.54h6.53Zm-.75,19.91c.85,.65,1.61,1.22,2.22,1.73,0,.07-.07,.18-.17,.32-.65,1.01-.99,1.51-1.03,1.51-.96-.79-1.98-1.55-3.04-2.23-.89-.5-1.61-.9-2.15-1.15,0-.11,.34-.65,1.06-1.58,.07-.14,.17-.25,.27-.25,1.16,.61,2.09,1.15,2.84,1.66Z"/><path class="cls-1" d="M99.63,55.69c.27,0,.41,.18,.41,.54v1.15c0,.36-.14,.54-.41,.54h-9.75v7.88h13.1c.27,0,.41,.18,.41,.58v1.12c0,.36-.14,.54-.41,.54h-29c-.27,0-.38-.18-.38-.54v-1.12c0-.4,.1-.58,.38-.58h13.51v-7.88h-9.61c-.27,0-.41-.18-.41-.54v-1.15c0-.36,.14-.54,.41-.54h21.75Zm-9.33-18.57c0,.32-.14,.5-.34,.54-.24,.04-.34,.29-.34,.72v1.84h12.31c.34,0,.51,.14,.51,.43v5.76c0,.29-.17,.43-.51,.43h-1.33c-.38,0-.55-.14-.55-.43v-3.96h-7.35v6.62c0,1.04,.62,1.55,1.88,1.55h3.86c.85,0,1.47-.11,1.81-.4,.41-.18,.65-.79,.79-1.87,.03-.14,.14-.25,.34-.25,.65,.43,1.33,.65,2.09,.68,.27,.04,.44,.18,.44,.43-.44,1.58-1.03,2.66-1.74,3.2-.44,.4-1.23,.58-2.39,.58h-6.39c-2.05,0-3.08-.79-3.08-2.38v-8.17h-5.47l1.61,.76c.24,.14,.38,.32,.38,.54,0,.14-.14,.18-.41,.18-.24,0-.41,.14-.51,.36-.68,1.44-1.33,2.63-1.95,3.53-.89,1.37-1.88,2.52-3.01,3.46-1.03,.86-2.19,1.62-3.45,2.34-.82,.43-1.47,.72-2.02,.94-.34,0-.55-.07-.58-.25-.31-.61-.68-1.22-1.13-1.84,1.03-.36,2.05-.83,3.08-1.4,1.16-.72,2.26-1.51,3.25-2.45,.99-.86,1.85-1.87,2.6-3.1,.55-.86,1.03-1.91,1.47-3.06h-7.86v4.5c0,.29-.21,.43-.55,.43h-1.33c-.34,0-.51-.14-.51-.43v-6.16c0-.36,.17-.58,.51-.58h12.82v-3.1c0-.29,.17-.43,.55-.43,1.68,0,2.53,.14,2.53,.43Z"/><path class="cls-1" d="M84.28,81.54c0,.36-.17,.61-.51,.72-.38,.11-.62,.29-.68,.5-1.03,1.73-2.05,3.24-3.08,4.54v17.31c0,.29-.17,.43-.51,.43h-1.33c-.38,0-.55-.14-.55-.43v-14.51c-.96,1.01-2.09,2.12-3.35,3.28-.65-.72-1.13-1.26-1.47-1.55-.21-.22-.27-.36-.27-.43s.03-.14,.14-.29c2.09-1.51,3.93-3.31,5.51-5.47,1.23-1.58,2.39-3.46,3.56-5.65,.07-.14,.17-.25,.31-.25s.89,.61,2.26,1.8Zm-1.37-7.99c.27,.22,.44,.43,.44,.68,0,.22-.21,.29-.55,.29-.48,0-.85,.18-1.06,.5-2.63,3.46-5.1,6.01-7.35,7.67-.21,0-.38-.07-.51-.29-.34-.43-.65-.76-.99-1.04-.17-.14-.24-.29-.24-.36,0-.14,.07-.22,.21-.29,.79-.43,1.57-1.01,2.36-1.76,1.09-.86,2.09-1.87,3.04-3.02,.82-1.12,1.57-2.3,2.19-3.53,.14-.25,.27-.4,.38-.4l2.09,1.55Zm12.99-.86c0,.32-.14,.5-.34,.54-.21,.04-.31,.29-.31,.72v3.82h8c.27,0,.41,.22,.41,.58v1.12c0,.36-.14,.54-.41,.54h-11.22c-.07,2.12-.1,3.96-.17,5.51h9.64c.27,0,.41,.18,.41,.54-.07,5.08-.24,8.71-.51,10.91-.31,2.66-.75,4.61-1.3,5.87-.55,1.37-1.95,2.09-4.21,2.09-1.68,0-2.53-.29-2.6-.79-.14-.58-.44-1.26-.99-2.02v-.29c1.3,.29,2.5,.43,3.59,.43,1.16,0,1.95-.47,2.29-1.44,.41-.79,.72-2.3,.99-4.54,.24-1.73,.41-4.57,.55-8.53h-8c-.07,1.01-.17,1.87-.24,2.59-.38,3.02-.89,5.54-1.54,7.56-.55,1.66-1.23,3.02-2.05,4.14-.75,1.15-1.68,2.2-2.8,3.17-.62-.68-1.16-1.3-1.61-1.84,.55-.4,1.23-1.15,2.02-2.27,.89-1.22,1.61-2.63,2.15-4.14,.65-2.12,1.13-4.5,1.44-7.13,.27-2.2,.44-5.47,.51-9.83h-4.65c-.27,0-.41-.18-.41-.54v-1.12c0-.36,.14-.58,.41-.58h7.86v-5.08c0-.25,.17-.4,.55-.4,1.68,0,2.53,.14,2.53,.4Z"/><path class="cls-1" d="M83.49,117.68c0,.36-.21,.61-.55,.72s-.55,.25-.62,.47c-.96,1.55-1.88,2.88-2.84,4.03v17.57c0,.29-.21,.43-.55,.43h-1.33c-.38,0-.55-.14-.55-.43v-14.83c-.89,.9-1.91,1.87-3.08,2.88-.62-.72-1.13-1.26-1.47-1.55-.17-.18-.24-.32-.24-.43,0-.04,.03-.11,.14-.25,1.95-1.37,3.66-3.06,5.16-5,1.16-1.44,2.26-3.17,3.35-5.18,.07-.14,.17-.22,.27-.22,.14,0,.89,.61,2.29,1.8Zm-1.54-7.99c.31,.18,.48,.4,.48,.68,0,.22-.21,.29-.55,.29-.44,0-.75,.18-.92,.5-2.33,3.31-4.45,5.8-6.43,7.38-.21,0-.38-.07-.51-.29-.34-.43-.65-.76-.99-1.01-.17-.18-.24-.32-.24-.4,0-.14,.03-.22,.17-.29,.68-.4,1.37-.97,2.05-1.69,.96-.86,1.81-1.84,2.63-2.92,.75-1.08,1.37-2.23,1.92-3.42,.14-.25,.24-.4,.31-.4l2.09,1.55Zm7.42,3.1v-3.67c0-.29,.03-.43,.14-.43,1.95,.29,2.94,.5,2.94,.58,0,.22-.1,.36-.31,.4-.27,.14-.38,.43-.38,.86v2.27h2.8v-3.67c0-.29,.17-.43,.55-.43,1.68,0,2.53,.14,2.53,.43,0,.32-.14,.5-.34,.54-.24,.04-.34,.29-.34,.72v2.41h4.82c.34,0,.55,.14,.55,.4v8.32c0,.36-.21,.54-.55,.54h-4.82v4.93h6.57c.24,0,.38,.22,.38,.58-.03,2.66-.14,4.54-.27,5.65-.21,1.4-.48,2.45-.79,3.1-.34,.72-1.16,1.08-2.53,1.08-.99,0-1.5-.22-1.54-.68-.07-.5-.27-1.12-.62-1.83v-.29c.79,.11,1.5,.14,2.15,.14,.44,0,.72-.22,.85-.68,.14-.36,.27-1.04,.38-2.09,.07-.61,.1-1.51,.17-2.7h-4.75v11.37c0,.29-.17,.43-.51,.43h-1.33c-.38,0-.55-.14-.55-.43v-11.37h-3.49c-.21,1.12-.51,2.16-.85,3.1-.58,1.66-1.33,3.17-2.29,4.54-.75,1.08-1.88,2.27-3.39,3.6-.14,0-.24-.11-.38-.32-.34-.36-.68-.72-1.06-1.01-.21-.14-.31-.25-.31-.36,1.64-1.44,2.77-2.66,3.39-3.63,.68-1.04,1.27-2.23,1.74-3.53,.24-.65,.44-1.44,.65-2.38h-3.83c-.21,.76-.44,1.48-.65,2.12-.1,.29-.17,.4-.21,.4-.21,0-.41-.04-.58-.11-.51-.07-1.03-.18-1.57-.32-.21-.04-.27-.14-.27-.29,.51-1.33,.85-2.34,1.03-3.02,.38-1.15,.72-2.45,1.03-3.92,.27-1.51,.51-3.13,.65-4.79,0-.29,.1-.47,.38-.47,1.33,.58,2.02,.9,2.02,.97h2.8v-4.79h-4.82c-.27,0-.41-.18-.41-.58v-1.12c0-.36,.14-.54,.41-.54h4.82Zm-.34,13.75c.21-1.48,.31-2.99,.34-4.5h-3.08c-.24,1.66-.51,3.2-.82,4.57-.07,.14-.1,.29-.1,.36h3.59c0-.14,.03-.29,.07-.43Zm5.54-4.5h-2.8c-.03,1.4-.14,2.92-.27,4.57-.03,.14-.03,.29-.03,.36h3.11v-4.93Zm-2.8-2.23h2.8v-4.79h-2.8v4.79Zm5.2,0h2.94v-4.79h-2.94v4.79Z"/><path class="cls-1" d="M77.16,159.44c.55,1.26,.85,1.91,.85,1.98,0,.22-.03,.43-.1,.61-.58,3.1-1.13,5.69-1.61,7.85-.27,1.26-.62,2.59-.99,4.03-.07,.36-.1,.83-.1,1.44,0,.29-.1,.43-.27,.43s-.85-.72-2.05-2.16c-.14-.07-.21-.18-.24-.4,0-.22,.03-.4,.1-.54,.41-.76,.79-1.73,1.2-2.92,.55-1.58,1.09-3.42,1.64-5.44,.48-1.76,.85-3.38,1.2-4.86,.03-.18,.07-.29,.14-.29,.1,0,.17,.11,.24,.25Zm-.34-9.75c.68,1.37,1.23,2.63,1.71,3.71,0,.07-.07,.18-.17,.32-.65,1.01-.99,1.51-1.03,1.51-.75-1.73-1.5-3.35-2.33-4.79-.68-1.15-1.27-2.02-1.68-2.52,0-.11,.34-.65,1.06-1.58,.1-.14,.21-.25,.27-.25,.89,1.3,1.61,2.52,2.15,3.6Zm6.87,7.38c.21,.18,.31,.32,.31,.43,0,.22-.1,.36-.24,.4-.17,0-.27,.11-.27,.29-.14,.61-.27,1.12-.41,1.55h6.67c.17,0,.27,.14,.27,.43v1.12c0,.4-.1,.58-.27,.58h-3.21c-.07,1.73-.14,3.13-.24,4.21h4.27c.17,0,.27,.14,.27,.43v1.12c0,.4-.1,.58-.27,.58h-4.1c.44,1.01,.82,1.69,1.16,2.12,.55,.86,1.2,1.66,1.98,2.38,0,.22-.07,.4-.21,.5-.34,.29-.75,.68-1.23,1.19-.07,0-.1-.04-.14-.11-.44-.43-.89-.94-1.3-1.58-.38-.61-.79-1.4-1.2-2.38-.27,.9-.55,1.69-.85,2.34-.55,1.01-1.16,1.83-1.88,2.56-.65,.72-1.5,1.37-2.53,1.98-.55-.58-1.06-1.12-1.47-1.55,.51-.25,1.13-.72,1.85-1.37,.79-.76,1.44-1.58,1.95-2.48,.51-1.08,.92-2.3,1.2-3.6h-4.45c-.21,0-.27-.18-.27-.58v-1.12c0-.29,.07-.43,.27-.43h4.79c.1-1.15,.17-2.56,.24-4.21h-1.98c-.21,.54-.41,1.04-.62,1.48-.31,.61-.62,1.15-.96,1.62-.27,0-.51-.04-.68-.14-.41-.14-.82-.32-1.23-.5-.17-.07-.24-.14-.24-.22s0-.11,.07-.18c.55-.72,1.03-1.62,1.47-2.7,.24-.61,.48-1.26,.68-1.98s.38-1.69,.58-2.84c.03-.07,.07-.14,.14-.14l2.09,.83Zm-1.23-11.88c.21,.04,.34,.11,.34,.22,0,.25-.07,.4-.17,.43-.14,.04-.21,.18-.21,.4v2.63c.65-.18,1.27-.36,1.85-.58,.89-.29,1.71-.65,2.46-1.15,.55-.32,1.09-.72,1.57-1.15,0,0,.03-.04,.1-.04,.1,0,.24,.11,.38,.32,.89,1.22,1.37,1.87,1.37,1.94,0,.22-.1,.29-.27,.29l-.65-.14c-.07,0-.1,.04-.14,.04-.55,.36-1.16,.72-1.81,1.04-.82,.36-1.71,.68-2.63,.97-.62,.22-1.33,.4-2.22,.61v1.55c0,.94,.55,1.4,1.71,1.4h1.88c1.03,0,1.64-.14,1.88-.43,.24-.22,.55-1.08,.92-2.66,.27,.47,.68,.86,1.3,1.22,.27,.14,.44,.29,.44,.47-.55,1.76-.99,2.74-1.27,2.92-.27,.43-.89,.61-1.81,.61h-3.59c-2.43,0-3.62-.76-3.62-2.27v-8.57c0-.18,.07-.29,.27-.29l1.91,.22Zm20.24,10.76c.24,0,.41,.14,.55,.43,.79,.9,1.2,1.4,1.2,1.51-1.23,2.88-1.98,4.72-2.26,5.51-.07,.22-.1,.29-.14,.29-.21,0-.38-.07-.51-.22-.38-.29-.75-.65-1.13-1.01-.17-.07-.24-.18-.24-.32l2.19-4.1h-3.8v7.88h3.86c.17,0,.27,.14,.27,.43v1.12c0,.4-.1,.58-.27,.58h-3.86v6.08c.62,.07,1.37,.11,2.33,.11,.58,0,1.71-.11,3.42-.29,0,.14-.07,.29-.17,.43-.21,.54-.38,1.08-.48,1.66-.07,.29-.14,.43-.27,.43h-2.12c-2.05,0-3.52-.22-4.41-.61-.72-.29-1.33-.68-1.85-1.15-.44-.4-.82-.86-1.09-1.37-.31-.47-.55-1.01-.72-1.58-.55,2.23-1.3,4-2.22,5.29-.27,0-.44-.11-.55-.25-.38-.36-.72-.72-.99-1.01-.14-.18-.21-.32-.21-.43,0-.22,.03-.36,.17-.43,.55-.65,.99-1.37,1.37-2.16,.34-.79,.65-1.62,.89-2.52,.17-.9,.34-1.94,.48-3.1,.14-1.37,.24-3.06,.27-5,0-.36,.07-.58,.27-.58l2.09,.58c.21,.14,.34,.25,.34,.4,0,.29-.17,.47-.51,.47-.21,.14-.38,.36-.44,.68-.07,1.44-.17,2.77-.31,4,.24,1.26,.48,2.16,.68,2.7,.21,.72,.48,1.29,.82,1.73,.27,.43,.58,.76,.96,1.04v-15.12h-4.68c-.21,0-.27-.18-.27-.54v-1.12c0-.29,.07-.43,.27-.43h11.08Zm-.65-10.4c.27,0,.48,.07,.55,.14,.41,.36,.65,.65,.65,.83l-4.55,6.05c.72,.5,1.33,.97,1.88,1.4,0,.04-.07,.11-.17,.25-.58,.86-.89,1.3-.89,1.3-1.27-1.01-2.6-1.91-4-2.77-1.13-.65-2.09-1.15-2.84-1.44,0-.11,.31-.54,.96-1.33,.07-.14,.17-.22,.24-.22,1.16,.58,2.15,1.12,3.01,1.62l2.97-3.74h-7.56c-.27,0-.41-.18-.41-.54v-1.15c0-.25,.14-.4,.41-.4h9.75Z"/><path class="cls-1" d="M83.18,181.83c.1,.25,.17,.4,.17,.4,0,.22-.21,.32-.58,.32-.55,0-.89,.14-1.03,.4-1.61,1.87-3.11,3.56-4.55,5.08,.82,.72,1.64,1.51,2.46,2.34,1.37-1.58,2.5-3.02,3.42-4.32,1.57,1.44,2.39,2.23,2.39,2.38s-.17,.22-.44,.22c-.62,0-.99,.11-1.13,.25-2.12,2.52-4.17,4.86-6.22,6.95,1.71-.14,3.8-.36,6.26-.58-.41-.97-.85-1.94-1.4-2.88,0-.14,.58-.54,1.74-1.15,.75,1.55,1.4,2.95,1.88,4.25,.48,1.19,.85,2.45,1.2,3.78,0,.07-.68,.32-2.02,.68-.14-.79-.38-1.8-.79-3.02l-3.86,.79v14.9c0,.29-.21,.43-.55,.43h-1.33c-.38,0-.55-.14-.55-.43v-14.4l-4.51,.9c-.65,.76-1.03,1.12-1.09,1.12-.1,0-.31-1.15-.65-3.49,0-.11,.82-.29,2.46-.5,1.61-1.73,2.98-3.24,4.07-4.54-1.27-1.01-2.22-1.73-2.87-2.2-.99-.58-2.05-1.12-3.15-1.62,0-.22,.48-.83,1.44-1.91,.07-.14,.17-.22,.31-.22,.41,.29,.82,.58,1.23,.86,.89-.97,1.71-1.91,2.43-2.84,1.23-1.55,2.09-2.7,2.63-3.49l2.63,1.55Zm-6.5,19.8c0,.29-.14,.47-.41,.58-.21,.18-.31,.4-.31,.65-.17,2.16-.38,3.92-.62,5.29-.14,.79-.31,1.55-.51,2.34-.07,.18-.14,.29-.17,.29-.75-.25-1.44-.43-1.98-.5-.21-.07-.27-.18-.27-.32,.31-1.01,.58-2.16,.85-3.38,.24-1.22,.44-2.99,.58-5.36,0-.25,.07-.4,.27-.4,1.71,.36,2.56,.65,2.56,.83Zm7.59-.68c.65,1.73,1.4,4.5,2.29,8.28,0,.29-.68,.5-2.02,.72-.31,0-.44-.11-.44-.36-.38-2.59-.92-5.33-1.68-8.21,0-.22,.55-.47,1.71-.72,.07,0,.1,.11,.14,.29Zm9.75-15.33v-4.5c0-.29,.17-.43,.55-.43,1.68,0,2.53,.14,2.53,.43,0,.32-.14,.5-.34,.54-.21,.04-.31,.29-.31,.72v3.24h7.22c.24,0,.38,.22,.38,.58v1.12c0,.4-.14,.58-.38,.58h-7.22v6.3h6.12c.27,0,.41,.22,.41,.58v1.12c0,.4-.14,.58-.41,.58h-14.02c-.27,0-.38-.18-.38-.58v-1.12c0-.36,.1-.58,.38-.58h5.47v-6.3h-6.67c-.27,0-.41-.18-.41-.58v-1.12c0-.36,.14-.58,.41-.58h6.67Zm8.31,14.22c.34,0,.51,.14,.51,.4v12.38c0,.29-.17,.43-.51,.43h-1.33c-.38,0-.55-.14-.55-.43v-1.4h-9.47v1.4c0,.29-.21,.43-.55,.43h-1.33c-.38,0-.55-.14-.55-.43v-12.24c0-.36,.17-.54,.55-.54h13.23Zm-1.88,9.11v-6.88h-9.47v6.88h9.47Z"/><path class="cls-1" d="M89.44,235.15c-.55,1.01-1.27,1.87-2.19,2.52l-.89-1.04c1.37-1.04,2.12-2.41,2.29-4.1h-2.53v-4.32h4.1v3.96c0,1.01-.27,1.98-.79,2.99Z"/><path class="cls-1" d="M4.75,11.77c.89,.65,1.68,1.22,2.33,1.73,0,.04-.07,.14-.17,.29-.68,1.04-1.03,1.55-1.03,1.55-1.03-.79-2.09-1.55-3.21-2.23-.92-.54-1.68-.94-2.26-1.15,0-.14,.34-.65,1.03-1.58,.1-.14,.21-.25,.31-.25,1.2,.61,2.19,1.15,3.01,1.66Zm2.8,5.83c.55,1.3,.85,2.02,.85,2.09,0,.18-.07,.36-.17,.5-.99,2.81-1.91,5.15-2.8,7.09-.48,1.12-1.09,2.34-1.78,3.64-.14,.29-.21,.72-.21,1.26,0,.29-.1,.43-.24,.43-.21,0-.92-.76-2.19-2.27-.14-.07-.21-.22-.24-.4,0-.22,.03-.36,.17-.5,.62-.68,1.2-1.55,1.81-2.63,.85-1.44,1.71-3.06,2.53-4.9,.68-1.58,1.3-3.02,1.81-4.36,.07-.18,.14-.29,.24-.29s.17,.11,.21,.32Zm-.58-14.9c.89,.61,1.61,1.15,2.22,1.66,0,.04-.07,.14-.17,.29-.65,1.04-.99,1.55-1.03,1.55-.96-.79-1.98-1.48-3.04-2.12-.89-.5-1.61-.9-2.15-1.12,0-.14,.34-.65,1.06-1.58,.1-.14,.21-.25,.27-.25,1.16,.58,2.09,1.08,2.84,1.58Zm12.79,19.94v-3.24c0-.29,.17-.43,.55-.43,1.68,0,2.53,.14,2.53,.43,0,.32-.14,.5-.34,.5-.24,.07-.34,.32-.34,.76v1.98h9.64c.24,0,.38,.18,.38,.54v1.15c0,.36-.14,.54-.38,.54h-9.64v7.88c0,.29-.17,.43-.51,.43h-1.33c-.38,0-.55-.14-.55-.43v-7.88H9.88c-.27,0-.41-.18-.41-.54v-1.15c0-.36,.14-.54,.41-.54h9.88Zm-2.36-13.89c.31,.14,.48,.32,.48,.54,0,.29-.17,.47-.48,.58-.44,0-.72,.22-.82,.65-.21,.5-.38,.94-.55,1.37,.55,.86,1.09,1.55,1.57,2.05,.51,.5,1.27,1.08,2.22,1.69,.14,.18,.21,.32,.21,.4,0,.18-.44,.76-1.33,1.69-.07,0-.17-.04-.27-.11-1.4-1.19-2.53-2.34-3.39-3.42-.68,1.48-1.33,2.7-1.98,3.64-.27,.4-.51,.58-.65,.58-.17,0-.34-.07-.55-.22-.48-.22-.92-.4-1.33-.58-.17-.07-.24-.11-.24-.18s.03-.22,.17-.43c1.16-1.51,2.02-2.81,2.6-3.96,.82-1.51,1.44-2.99,1.85-4.5,.14-.43,.27-.65,.44-.65l2.05,.86ZM22.84,.4c0,.36-.14,.54-.34,.54-.24,.07-.34,.32-.34,.76v2.95h8.55c.27,0,.41,.18,.41,.54v1.15c0,.36-.14,.54-.41,.54H11.22c-.27,0-.41-.18-.41-.54v-1.15c0-.36,.14-.54,.41-.54h8.55V.4c0-.25,.17-.4,.55-.4,1.68,0,2.53,.14,2.53,.4Zm5.51,8.5c.34,.14,.51,.32,.51,.5,0,.29-.21,.47-.55,.58-.44,0-.72,.22-.82,.58-.21,.43-.38,.83-.51,1.19,.68,1.15,1.37,2.05,1.98,2.77,.58,.65,1.44,1.37,2.6,2.16,.14,.22,.24,.36,.24,.47,0,.22-.48,.76-1.37,1.69-.07,0-.14-.04-.27-.11-1.85-1.66-3.25-3.24-4.27-4.71-.68,1.33-1.33,2.45-1.98,3.31-.31,.36-.51,.54-.65,.54-.17,0-.38-.07-.58-.25-.48-.22-.89-.4-1.3-.58-.21-.07-.27-.11-.27-.14,0-.07,.07-.22,.21-.4,1.16-1.4,2.05-2.63,2.63-3.71,.85-1.37,1.5-2.77,1.91-4.18,.14-.4,.27-.61,.44-.61l2.05,.9Z"/><path class="cls-1" d="M9.68,37.37c.21,.18,.34,.32,.34,.47,0,.29-.24,.4-.68,.4-.24,0-.41,.07-.51,.18,.89,1.26,1.64,2.16,2.26,2.66,.89,.9,2.02,1.73,3.35,2.52,0,.22-.1,.4-.24,.5-.31,.29-.72,.68-1.23,1.19-.07,0-.17-.04-.24-.11-.79-.43-1.54-1.01-2.26-1.73-.82-.83-1.71-1.91-2.7-3.28-.31,.5-.62,.94-.89,1.3-.44,.65-.96,1.33-1.54,2.02-.62,.72-1.23,1.33-1.85,1.87-.31,.29-.55,.47-.75,.61H12.28c.27,0,.41,.22,.41,.58v1.12c0,.4-.14,.58-.41,.58h-3.73v4.07h4.41c.24,0,.38,.22,.38,.58v1.12c0,.36-.14,.54-.38,.54h-4.41v9.25c1.3-.22,2.56-.47,3.8-.76,.07,0,.14-.04,.21-.04,.17,0,.27,.11,.27,.29,0,1.19-.07,1.84-.14,1.94-3.49,.65-7.01,1.26-10.57,1.84-.34,.65-.58,.97-.79,.97s-.65-1.01-1.33-2.95c1.61-.14,3.56-.43,5.88-.83,.1,0,.21-.04,.27-.04v-9.68H1.47c-.27,0-.41-.18-.41-.54v-1.12c0-.36,.14-.58,.41-.58H6.15v-4.07H2.8c-.27,0-.41-.18-.41-.58v-1.12c0-.18,0-.29,.07-.36-.21,.18-.38,.29-.48,.36-.21,0-.38-.11-.51-.36-.27-.47-.62-.9-.99-1.26-.24-.14-.34-.25-.34-.36,0-.04,.03-.07,.1-.14,.82-.47,1.54-.94,2.09-1.44,.75-.65,1.54-1.51,2.33-2.52,.51-.65,.92-1.26,1.27-1.91,.34-.65,.68-1.37,.99-2.16,.1-.14,.21-.25,.31-.25l2.46,1.22Zm-5.37,22.07c.41,.86,.75,1.76,1.03,2.7,0,.11-.68,.36-1.98,.72-.14-.61-.41-1.37-.75-2.27-.44-1.01-.99-2.05-1.68-3.1,0-.14,.58-.5,1.74-1.12,.68,1.12,1.23,2.12,1.64,3.06Zm9.3-2.48c.27,.14,.41,.29,.41,.43s-.1,.22-.24,.29c-.24,0-.38,.14-.41,.36-.58,1.66-1.16,2.92-1.71,3.82-.14,.22-.24,.29-.31,.29-.14,0-.27-.04-.48-.18-.38-.18-.72-.36-1.06-.54-.14-.04-.21-.07-.21-.11,0-.07,.03-.14,.1-.22,.51-.79,.92-1.51,1.2-2.12,.41-.79,.68-1.58,.89-2.38,.07-.22,.14-.36,.21-.36l1.61,.72Zm7.9-17.31v-2.81c0-.18,.1-.29,.38-.29,1.61,0,2.43,.14,2.43,.43s-.1,.47-.27,.47c-.21,.04-.27,.25-.27,.65v1.55h7.49c.17,0,.27,.14,.27,.43v1.12c0,.4-.1,.58-.27,.58h-7.49v3.1h6.43c.34,0,.51,.14,.51,.43v11.95c0,.29-.17,.4-.51,.4h-1.33c-.27,0-.41-.11-.41-.4v-1.01h-4c.48,1.37,.99,2.59,1.54,3.6,.68,1.44,1.44,2.56,2.19,3.38,.99,1.37,2.19,2.45,3.62,3.28,.14,.07,.24,.14,.24,.29s-.07,.29-.17,.4c-.48,.4-.89,.79-1.27,1.19-.1,.14-.21,.25-.27,.25-1.09-.72-1.98-1.51-2.67-2.38-1.03-1.04-1.92-2.38-2.7-3.96-.41-.72-.79-1.55-1.2-2.48v8.96c0,.29-.17,.43-.51,.43h-1.37c-.27,0-.38-.14-.38-.43v-8.71c-.34,.65-.65,1.22-.92,1.66-.82,1.37-1.71,2.66-2.63,3.82-1.09,1.26-2.19,2.34-3.25,3.24-.27,0-.44-.07-.58-.22-.41-.47-.82-.9-1.2-1.26-.07-.14-.1-.29-.1-.36,1.03-.76,1.85-1.44,2.5-2.12,.96-.94,1.95-2.2,2.98-3.78,.62-.94,1.44-2.56,2.53-4.79h-3.73v1.01c0,.29-.21,.4-.55,.4h-1.33c-.27,0-.41-.11-.41-.4v-11.95c0-.29,.14-.43,.41-.43h6.29v-3.1h-7.22c-.21,0-.27-.18-.27-.58v-1.12c0-.29,.07-.43,.27-.43h7.22Zm0,14.51v-7.31h-4.41v7.31h4.41Zm-1.4-3.35c.27,.61,.51,1.26,.72,1.94,0,.07-.58,.25-1.74,.54-.07-.4-.24-.9-.48-1.55-.27-.68-.65-1.37-1.09-2.09,0-.14,.48-.47,1.47-1.01,.44,.79,.82,1.51,1.13,2.16Zm3.66,3.35h4.68v-7.31h-4.68v7.31Zm4-4.79c.27,.14,.41,.29,.41,.43,0,.11-.07,.18-.21,.18-.17,0-.27,.11-.31,.25-.48,1.19-.92,2.09-1.37,2.7-.14,.14-.21,.22-.24,.22-.14,0-.31-.04-.48-.18-.38-.18-.72-.36-1.06-.54-.14-.04-.21-.07-.21-.11s0-.11,.07-.18c.41-.58,.72-1.08,.96-1.51,.27-.58,.51-1.15,.68-1.73,.03-.14,.07-.25,.14-.25l1.61,.72Z"/><path class="cls-1" d="M15.08,73.69c0,.25-.17,.36-.44,.36-.34,0-.48,.11-.48,.32-.99,2.23-2.22,4.79-3.73,7.63-.72,1.37-1.47,2.66-2.26,3.85,5.68-.54,11.35-1.26,17.03-2.2-1.03-1.91-2.26-3.78-3.69-5.62,0-.18,.65-.61,1.98-1.26,1.71,2.38,3.08,4.54,4.1,6.48,1.03,1.8,1.88,3.71,2.6,5.72,0,.14-.82,.43-2.43,.86-.27-1.12-.75-2.45-1.44-3.96-6.63,.97-14.02,1.87-22.09,2.66-.38,0-.68,.22-.89,.58-.1,.4-.27,.58-.55,.58s-.85-1.08-1.74-3.24c1.5-.07,3.04-.22,4.55-.36,1.64-2.88,3.15-5.94,4.51-9.11,.62-1.55,1.09-3.06,1.44-4.5,0-.14,.14-.22,.34-.22,2.12,.72,3.18,1.19,3.18,1.4Zm10.98,16.99c.34,0,.51,.14,.51,.43v13.64c0,.29-.17,.43-.51,.43h-1.33c-.38,0-.55-.14-.55-.43v-1.84H7.73v1.69c0,.29-.17,.43-.51,.43h-1.33c-.38,0-.55-.14-.55-.43v-13.35c0-.36,.17-.58,.55-.58H26.06Zm-1.88,10.01v-7.74H7.73v7.74H24.18Z"/><path class="cls-1" d="M15.22,115.02v-6.05c0-.29,.17-.43,.55-.43,1.78,0,2.67,.14,2.67,.43,0,.32-.14,.5-.34,.54-.24,.04-.34,.29-.34,.72v4.79h11.49c.44,0,.68,.14,.68,.43v16.31c0,.29-.24,.43-.68,.43h-1.33c-.34,0-.51-.14-.51-.43v-2.66h-9.64v11.66c0,.29-.24,.43-.65,.43h-1.33c-.38,0-.55-.14-.55-.43v-11.66H4.92v2.52c0,.29-.24,.43-.65,.43h-1.33c-.38,0-.55-.14-.55-.43v-16.02c0-.36,.17-.58,.55-.58H15.22Zm0,11.52v-9H4.92v9H15.22Zm2.53,0h9.64v-9h-9.64v9Z"/><path class="cls-1" d="M31.12,158.04c.17,0,.27,.14,.27,.43v1.12c0,.4-.1,.58-.27,.58H15.35v16.31c0,.29-.21,.43-.55,.43h-1.33c-.34,0-.51-.14-.51-.43v-2.66c-3.28,.4-6.57,.76-9.88,1.12-.34,.65-.62,.97-.82,.97s-.58-.94-1.2-2.81c.82-.07,1.71-.14,2.67-.25v-12.67H1.2c-.21,0-.27-.18-.27-.58v-1.12c0-.29,.07-.43,.27-.43H31.12Zm-4.68-13.07c.34,0,.55,.14,.55,.43v10.26c0,.29-.21,.43-.55,.43H6.39c-.34,0-.51-.14-.51-.43v-10.26c0-.29,.17-.43,.51-.43H26.43Zm-13.47,17.71v-2.52H6.15v2.52h6.81Zm0,4.79v-2.66H6.15v2.66h6.81Zm-5.88,4.93c2.05-.25,4.04-.54,5.88-.86v-1.94H6.15v2.95c.27-.04,.58-.07,.92-.14Zm17.51-22.93v-2.38H8.27v2.38H24.59Zm0,2.12H8.27v2.38H24.59v-2.38Zm4.14,10.94c.14,0,.27,.07,.44,.22l.51,.76c.14,.25,.24,.5,.24,.72-1.16,2.92-2.39,5.22-3.66,6.91-.21,.29-.41,.5-.55,.68,.58,.5,1.3,.97,2.15,1.37,.92,.54,2.15,.97,3.66,1.4,.17,.07,.27,.11,.27,.18,0,.14-.07,.29-.17,.4-.41,.36-.82,.76-1.23,1.26-.14,.22-.27,.32-.34,.32s-.24-.07-.48-.22c-.75-.29-1.54-.61-2.39-1.01-1.06-.54-2.02-1.15-2.87-1.8-.1-.07-.17-.14-.24-.22-.48,.43-.92,.76-1.37,1.04-1.23,.72-2.6,1.4-4.14,2.05-.27,0-.48-.18-.62-.47-.27-.5-.51-.9-.72-1.19-.21-.22-.27-.36-.27-.47,0-.14,.07-.29,.24-.36,2.26-.58,3.93-1.33,5.03-2.23,.03,0,.07-.04,.1-.11-.14-.14-.24-.29-.34-.43-.75-.94-1.3-1.91-1.64-2.92-.48-.94-.89-2.16-1.23-3.64h-1.5c-.27,0-.38-.18-.38-.58v-1.12c0-.36,.1-.58,.38-.58h11.11Zm-6.8,4c.41,1.08,.89,2.02,1.5,2.88,.21,.29,.38,.54,.58,.76,.55-.61,1.06-1.3,1.5-2.02,.51-.83,1.09-1.94,1.78-3.35h-5.92c.17,.68,.34,1.26,.55,1.73Z"/><path class="cls-1" d="M14.57,201.63c.21-.72,.31-1.48,.31-2.34,.07-.29,.24-.47,.48-.47l2.46,.43c.21,.07,.34,.14,.34,.29,0,.11-.1,.25-.24,.43-.27,.14-.41,.4-.41,.68-.07,.36-.17,.68-.24,.97h12.1c.27,0,.41,.22,.41,.58v1.12c0,.4-.14,.58-.41,.58h-11.28c.48,.65,.92,1.19,1.4,1.62,.72,.79,1.68,1.58,2.91,2.3,1.37,.86,2.84,1.51,4.41,1.98,1.16,.36,2.63,.72,4.38,1.01,.31,0,.48,.07,.48,.25,0,.14-.1,.32-.24,.54-.34,.43-.68,.9-.96,1.4-.07,.22-.21,.32-.41,.32-2.33-.58-4.1-1.15-5.33-1.66-1.37-.54-2.53-1.12-3.49-1.69-1.16-.72-2.15-1.48-2.91-2.34-.68-.58-1.44-1.55-2.33-2.84-.51,.94-1.09,1.76-1.71,2.52-.89,.97-1.98,1.8-3.28,2.52-1.5,.9-3.04,1.66-4.62,2.23-1.03,.32-2.36,.68-4,1.12-.41,0-.68-.14-.82-.4-.27-.47-.58-.94-.99-1.4-.14-.14-.17-.25-.17-.32,0-.14,.07-.22,.21-.29,1.78-.29,3.42-.68,4.92-1.19,1.78-.54,3.35-1.26,4.68-2.12,.92-.58,1.74-1.3,2.43-2.16,.38-.4,.72-.86,1.03-1.4H3.08c-.27,0-.41-.18-.41-.58v-1.12c0-.36,.14-.58,.41-.58H14.57Zm-1.92-19.01c.34,.5,.65,.97,.92,1.44h5.81c.62-.54,1.13-1.04,1.47-1.51,.62-.68,1.09-1.4,1.37-2.12,.1-.18,.21-.29,.34-.29l2.05,.86c.31,.14,.48,.32,.48,.54,0,.14-.14,.22-.38,.25-.34,0-.55,.11-.62,.29-.51,.79-.99,1.48-1.44,1.98h6.98c.27,0,.41,.22,.41,.58v1.12c0,.4-.14,.58-.41,.58h-12.28v3.2h10.16c.24,0,.38,.22,.38,.58v1.12c0,.4-.14,.58-.38,.58h-10.16v3.78h13.34c.27,0,.41,.22,.41,.58v1.12c0,.4-.14,.58-.41,.58H1.74c-.27,0-.41-.18-.41-.58v-1.12c0-.36,.14-.58,.41-.58H14.94v-3.78H4.79c-.27,0-.38-.18-.38-.58v-1.12c0-.36,.1-.58,.38-.58H14.94v-3.2H2.67c-.27,0-.41-.18-.41-.58v-1.12c0-.36,.14-.58,.41-.58H10.94c-.07-.11-.14-.22-.21-.29-.48-.68-1.13-1.37-1.92-2.09,0-.18,.62-.61,1.85-1.3,.82,.83,1.47,1.58,1.98,2.23Z"/><path class="cls-1" d="M10.63,217.04c.27,.07,.44,.22,.44,.5,0,.36-.17,.5-.51,.5-.21,.07-.34,.25-.41,.47-.68,1.62-1.33,3.02-1.98,4.21h5.3c.34,0,.55,.14,.55,.43v23.9c0,.29-.21,.43-.55,.43h-1.33c-.34,0-.51-.14-.51-.43v-1.84H4.41v2.81c0,.29-.21,.43-.55,.43h-1.33c-.38,0-.55-.14-.55-.43v-24.73c0-.36,.17-.58,.55-.58h3.08c.85-1.62,1.74-3.6,2.67-5.9,.07-.18,.21-.29,.41-.29l1.95,.5Zm.99,15.69v-7.74H4.41v7.74h7.21Zm0,10.26v-8.03H4.41v8.03h7.21Zm11.76-25.81c.24,.22,.38,.36,.38,.5,0,.22-.1,.32-.27,.4-.27,0-.44,.14-.51,.43-.51,1.58-.96,2.84-1.37,3.82h8.45c.41,0,.65,.25,.65,.68,0,8.21-.14,13.86-.41,16.99-.27,2.81-.72,4.79-1.27,6.01-.48,1.04-1.09,1.69-1.85,1.98-.96,.4-2.22,.61-3.83,.61-1.44,0-2.19-.25-2.19-.72-.1-.61-.27-1.22-.48-1.8,0-.22,.03-.29,.14-.29l.27,.04c.65,.07,1.23,.11,1.74,.11,1.68,0,2.8-.25,3.42-.76,.68-.54,1.16-2.05,1.44-4.54,.38-2.59,.58-7.96,.62-16.09h-7.73c-.38,.76-.75,1.48-1.16,2.12-.65,.94-1.33,1.76-2.05,2.52-.31,0-.55-.04-.75-.11-.44-.18-.89-.36-1.3-.54-.17-.07-.24-.11-.24-.18,0-.14,.03-.25,.14-.32,1.09-1.12,2.12-2.48,3.01-4.14,.51-.94,.96-1.94,1.37-3.02,.41-1.12,.82-2.56,1.23-4.36,.07-.14,.17-.25,.27-.25l2.29,.9Zm-2.94,13.86c1.27,2.2,2.43,4.54,3.45,7.02,0,.36-.07,.54-.21,.58-.82,.58-1.47,.83-1.92,.83-1.16-2.99-2.22-5.47-3.21-7.45,0-.25,.48-.61,1.47-1.12,.21,0,.34,.07,.41,.14Z"/><path class="cls-1" d="M10.94,255.38c.27,0,.41,.18,.41,.54v1.12c0,.4-.14,.58-.41,.58h-3.86v7.74h3.45c.27,0,.41,.18,.41,.54v1.15c0,.36-.14,.54-.41,.54h-3.45v8.13c1.37-.5,2.67-1.01,3.97-1.58,.03-.04,.1-.07,.17-.07,.17,0,.27,.14,.27,.43,0,1.3-.07,1.98-.14,2.09-2.94,1.26-5.95,2.38-8.96,3.38-.38,.65-.68,.97-.92,.97-.21,0-.65-1.01-1.33-3.06,1.3-.29,2.8-.76,4.55-1.33v-8.96H1.33c-.27,0-.41-.18-.41-.54v-1.15c0-.36,.14-.54,.41-.54h3.35v-7.74H1.2c-.27,0-.41-.18-.41-.58v-1.12c0-.36,.14-.54,.41-.54H10.94Zm11.08-2.12c0,.11-.14,.22-.38,.29-.34,.07-.62,.22-.79,.5-.38,.68-.79,1.37-1.2,2.02h8.92c.34,0,.51,.14,.51,.43v13.79c0,.29-.17,.4-.51,.4h-6.43v7.27c.41-.04,.75-.07,1.09-.14,.44-1.37,.85-2.77,1.2-4.28,.17-.79,.31-1.55,.41-2.3,0-.07,.03-.11,.1-.11,1.71,.58,2.56,.94,2.56,1.12,0,.22-.14,.32-.41,.32s-.41,.11-.41,.25c-.27,1.04-.62,2.23-1.03,3.56-.14,.4-.24,.76-.38,1.08,1.09-.18,2.12-.4,3.15-.68-.27-.58-.58-1.15-.92-1.73,0-.11,.48-.43,1.47-.97,.55,.94,1.03,1.8,1.37,2.59,.34,.76,.62,1.55,.89,2.34,0,.07-.58,.25-1.74,.54-.07-.29-.14-.61-.27-1.01-1.68,.54-3.45,1.01-5.37,1.4-.1,0-.17,.11-.24,.32-.1,.29-.27,.43-.51,.43-.17,0-.48-.58-.96-1.73v1.87c0,.94,.51,1.4,1.61,1.4h4.68c.41,0,.72-.14,.89-.36,.21-.14,.34-.72,.41-1.69,0-.14,.07-.22,.17-.22,.62,.36,1.27,.58,1.95,.61,.27,0,.44,.14,.44,.36-.27,1.44-.65,2.45-1.09,2.95-.27,.36-.75,.58-1.44,.58h-7.08c-1.88,0-2.8-.76-2.8-2.23v-11.55h-1.61c-.21,1.73-.41,3.1-.65,4.1-.31,1.22-.68,2.38-1.09,3.46-.48,1.12-1.09,2.09-1.81,2.88-.82,1.01-1.68,1.87-2.53,2.56-.58,.36-1.3,.76-2.19,1.22-.41,0-.65-.11-.79-.32-.24-.47-.55-.9-.92-1.33-.14-.14-.17-.25-.17-.32,0-.14,.03-.25,.14-.32,.96-.29,1.88-.76,2.7-1.37,.99-.61,1.85-1.4,2.6-2.41,.51-.65,.96-1.48,1.33-2.45,.38-.86,.68-1.94,.92-3.24,.14-.72,.24-1.51,.31-2.45h-3.04c-.38,0-.55-.11-.55-.4v-13.79c0-.29,.17-.43,.55-.43h3.8c.31-.4,.55-.76,.75-1.04,.48-.79,.92-1.73,1.33-2.88,.03-.18,.1-.29,.24-.29,1.85,.86,2.8,1.33,2.8,1.4Zm-2.26,9v-4.07h-4.82v4.07h4.82Zm0,2.12h-4.82v4.21h4.82v-4.21Zm2.39-2.12h4.55v-4.07h-4.55v4.07Zm4.55,2.12h-4.55v4.21h4.55v-4.21Z"/><path class="cls-1" d="M17.88,288.83c0,.32-.1,.5-.31,.54-.24,.04-.34,.29-.34,.72v.86h13.2c.34,0,.55,.14,.55,.43v5.33c0,.29-.21,.43-.55,.43h-1.33c-.27,0-.38-.14-.38-.43v-3.92H3.45v3.92c0,.29-.17,.43-.51,.43H1.61c-.27,0-.41-.14-.41-.43v-5.33c0-.29,.14-.43,.41-.43H14.81v-2.12c0-.29,.17-.43,.55-.43,1.68,0,2.53,.14,2.53,.43Zm-3.59,5.62c.17,0,.27,.14,.27,.43v.86c0,.29-.1,.4-.27,.4h-3.76v2.27h3.35c.17,0,.27,.14,.27,.43v.83c0,.29-.1,.43-.27,.43h-3.35v2.34c1.74-.11,3.39-.25,4.96-.4v1.84c-2.29,.22-6.12,.54-11.49,1.01-.24,.76-.51,1.12-.79,1.12-.17,0-.31-.11-.38-.4l-.85-2.84c1.88,0,4-.04,6.33-.18h.1v-2.48h-2.94c-.21,0-.27-.14-.27-.43v-.83c0-.29,.07-.43,.27-.43h2.94v-2.27h-3.49c-.17,0-.24-.11-.24-.4v-.86c0-.29,.07-.43,.24-.43H14.29Zm11.08,11.41c.34,0,.55,.14,.55,.43v10.55c0,.29-.21,.4-.55,.4h-4.1c1.71,.36,3.15,.68,4.31,.97,1.54,.43,2.84,.79,3.93,1.15,0,0-.07,.11-.17,.32-.75,1.08-1.13,1.66-1.16,1.66-1.64-.58-3.39-1.12-5.2-1.58-1.5-.43-2.77-.68-3.76-.83,0-.14,.34-.65,1.06-1.58l.1-.11H11.8c1.09,.97,1.68,1.55,1.68,1.69s-.14,.25-.34,.25c-.44,0-.68,.04-.72,.18-2.46,.86-5.06,1.55-7.73,2.09-.27,0-.44-.11-.55-.29-.14-.29-.38-.58-.72-.83-.14-.18-.21-.32-.21-.43,0-.07,.1-.14,.31-.14,1.4-.32,2.63-.65,3.69-.97,1.27-.4,2.56-.9,3.86-1.55H6.94c-.38,0-.55-.11-.55-.4v-10.55c0-.29,.17-.43,.55-.43H25.37Zm-1.88,3.24v-1.55H8.82v1.55h14.67Zm0,3.24v-1.55H8.82v1.55h14.67Zm0,1.66H8.82v1.55h14.67v-1.55Zm-3.01-19.76c.14,.14,.21,.29,.21,.36h6.84c.14,0,.24,.14,.24,.43v.86c0,.29-.1,.4-.24,.4h-3.9v2.56h5.75c.17,0,.27,.14,.27,.4v.86c0,.29-.1,.4-.27,.4h-1.2v3.67c0,.29-.21,.43-.55,.43h-10.12c-.38,0-.55-.14-.55-.43v-3.67h-1.06c-.21,0-.27-.11-.27-.4v-.86c0-.25,.07-.4,.27-.4h5.61v-2.56h-2.63c-.51,.43-1.09,.86-1.78,1.26-.21,0-.34-.07-.41-.22-.34-.29-.65-.58-.89-.83-.14-.04-.17-.11-.17-.22,0,0,0-.04,.07-.11,.34-.14,.65-.29,.89-.47,.51-.36,.96-.76,1.33-1.19,.31-.36,.65-.79,1.06-1.33,0-.07,.03-.14,.1-.14l1.4,1.19Zm1.03,8.67v-2.41h-2.43v2.41h2.43Zm4.55-2.41h-2.43v2.41h2.43v-2.41Z"/><path class="cls-1" d="M19.42,344.26c-.92,.97-2.02,1.44-3.28,1.44s-2.39-.47-3.28-1.44c-.92-.94-1.37-2.09-1.37-3.46s.44-2.48,1.37-3.46c.89-.94,1.98-1.44,3.28-1.44s2.36,.5,3.28,1.44c.89,.97,1.37,2.12,1.37,3.46s-.48,2.52-1.37,3.46Zm-.89-5.97c-.68-.68-1.47-1.04-2.39-1.04s-1.74,.36-2.39,1.04c-.68,.72-.99,1.55-.99,2.52s.31,1.84,.99,2.52c.65,.72,1.44,1.04,2.39,1.04s1.71-.32,2.39-1.04c.65-.68,.99-1.51,.99-2.52s-.34-1.8-.99-2.52Z"/></g></g></svg>