<?xml version="1.0" encoding="UTF-8"?><svg id="_層_2" xmlns="http://www.w3.org/2000/svg" viewBox="0 0 46.6 441.99"><defs><style>.cls-1{fill:#231815;}</style></defs><g id="_層_1-2"><g><path class="cls-1" d="M16.88,4V42.01h-4.41v-4.21H6.93v5.56H2.51V4h14.36Zm-4.41,2.43H6.93v12.47h5.54V6.43Zm0,14.9H6.93v14.04h5.54v-14.04Zm22.42,21.65v-13.28H17.9v-2.43h16.98v-5.99h4.67v5.99h6.62v2.43h-6.62v14.96c0,4.91-4.05,7.88-12.67,1.24l.62-1.84c6.57,2.11,7.39,1.62,7.39-1.08ZM18.72,17.6h10.21v-7.56h-9.18v-2.43h9.18V0h4.72V7.61h9.8v2.43h-9.8v7.56h11.9v2.43H18.72v-2.43Zm2.15,14.42l1.39-1.24c2.62,1.94,5.85,4.91,8,8.05l-4,2.97c-1.23-2.75-3.54-6.86-5.39-9.77Z"/><path class="cls-1" d="M40.99,101.84c-2.67,.16-5.8,.16-8.46,0-5.28-.32-6.57-1.4-6.57-6.05v-17.93h-5.59c-.56,13.99-5.64,21.49-18.06,26.57l-.82-1.73c11.18-6.48,13.54-13.07,14.16-24.84H2.05v-2.97H20.93v-21.01h4.82v21.01h19.24v2.97h-14.42v17.06c0,1.78,.51,2.43,2.56,2.59,2.36,.16,4.67,.22,7.03,0,2.67-.27,2.98-1.24,3.03-10.58h1.85c2,9.34,3.28,14.47-4.05,14.9Zm-27.96-28.35c-1.8-4.97-4.46-10.1-7.08-14.85l1.49-1.19c3.69,3.4,7.9,8.37,10.57,13.01l-4.98,3.02Zm16.98,.22l-1.44-1.24c2.67-4.54,4.67-9.07,6.57-15.28l5.49,2.92c-2.87,5.08-6.87,10.04-10.62,13.61Z"/><path class="cls-1" d="M7.75,130.3c-2.21-3.13-5.03-6.59-7.23-9.18l.97-1.62c2.98,1.51,6.72,3.94,9.7,6.59l-3.44,4.21Zm.46-12.31c-1.9-3.13-4-6.48-5.95-9.18l1.28-1.46c2.36,1.46,5.69,3.94,8.36,7.07l-3.69,3.56Zm3.44,15.39c-.87,6.64-2.46,16.58-4.05,22.14l-5.18-2.27c2.77-5.78,5.13-13.39,7.44-20.47l1.8,.59Zm9.18-.54c.26,15.88-2,21.33-10.36,25.38l-.97-1.67c6.05-4.48,7.03-8.91,6.93-23.71h4.41Zm1.85-14.96H13.34v-2.43h15.44c-2.31-2.21-5.03-4.7-7.28-6.53l.82-1.73c3.03,.92,7.34,2.86,10.16,4.75l-2.41,3.51h14.11v2.43H27.8c-1.59,2.92-3.44,5.62-5.44,7.94,5.18,0,9.75-.27,13.29-.54-1.08-1.67-2.05-3.24-2.87-4.32l1.28-1.4c3.18,2.27,7.23,6.05,9.7,9.56l-4.16,3.13c-.72-1.4-1.69-3.24-2.77-5.02-6.21,1.62-15.65,3.02-21.9,3.51l-1.28-5.18c2.16,.11,4.21,.22,6.21,.22,1.23-2.75,2.15-5.29,2.82-7.88Zm2,14.74h4.31v23.6h-4.31v-23.6Zm15.13,24.25c-5.75,0-6.92-.43-6.92-5.4v-18.96h4.31v17.77c0,1.73,.36,2.38,2.82,2.38,2.1,0,2.26-.92,2.26-7.94l1.85-.05c2.15,9.4,2.21,12.2-4.31,12.2Z"/><path class="cls-1" d="M12.72,199.42h8.36v2.43H12.72v10.15h-4.31v-10.15H.31v-2.43H8.41v-5.18H1.59v-17.87h6.82v-4.16H.77v-2.43h7.64v-8.05h4.31v8.05h7.59v2.43h-7.59v4.16h6.82v17.87h-6.82v5.18Zm-4.16-20.63h-2.98v5.02h2.98v-5.02Zm0,7.29h-2.98v5.72h2.98v-5.72Zm3.95-2.27h3.03v-5.02h-3.03v5.02Zm3.03,7.99v-5.72h-3.03v5.72h3.03Zm24.21,4.05h6.16v2.43h-6.16v8.8c0,5.45-4.82,6.59-10.67,1.46l.72-1.78c4.98,1.67,5.64,1.3,5.64-.86v-7.61h-15.18v-2.43h15.18v-3.67h4.31v3.67Zm-9.54-6.7v-3.29h-8.26v-13.77h8.26v-2.86h-9.29v-2.43h9.29v-5.24h4.41v5.24h11.08v2.43h-11.08v2.86h8.62v13.77h-3.59c2.31,1.13,4.57,2.59,6.51,4.64l-2.72,3.13c-.77-1.03-1.64-2.11-2.57-3.24-6.41,1.51-15.39,2.65-19.44,2.97l-.87-4.16c2.62,.11,6.05,.11,9.64-.05Zm.51,14.8l-3.18,3.29c-1.33-2.32-3.13-4.75-4.92-7.13l1.13-1.46c2.26,1.24,4.82,3.19,6.98,5.29Zm-4.87-26.35h4.36v-3.08h-4.36v3.08Zm4.36,5.83v-3.51h-4.36v3.51h4.36Zm4.41-5.83h4.72v-3.08h-4.72v3.08Zm0,5.83h4.72v-3.51h-4.72v3.51Zm0,5.56l4.72-.32c-.62-.7-1.28-1.4-2-2.11l.46-.7h-3.18v3.13Z"/><path class="cls-1" d="M7.54,252.77c-2.15-3.4-4.82-6.86-6.93-9.5l1.08-1.62c3.03,1.73,6.82,4.48,9.34,7.07l-3.49,4.05Zm2.77,4.1c-.97,7.51-2.46,16.31-3.54,20.84l-4.98-2.16c2.05-5.02,4.82-12.91,6.72-19.28l1.8,.59Zm-.46-17.01c-1.8-3.02-4.05-6.21-6.16-8.86l1.18-1.46c2.41,1.3,5.85,3.67,8.67,6.59l-3.69,3.73Zm33.5,40.39c-4-.49-9.54-1.89-14.67-5.35-5.18,2.97-11.39,4.86-18.37,5.62l-.51-1.89c6.51-1.24,11.7-3.24,15.9-6.05-2.51-2.21-4.77-5.08-6.51-8.69h-5.03v-2.43l20.57-.11,1.33-.76,4.62,2.65c-2,3.46-4.72,6.53-8,9.02,4,1.51,8.52,2.32,13.54,2.75l-2.87,5.24Zm-30.16-31.86h30.42v10.31H13.18v-10.31Zm26.57-2.92H16.78v-12.85h22.98v12.85Zm-22.26,10.85h4.67v-5.56h-4.67v5.56Zm3.49-21.33v2.92h14.57v-2.92h-14.57Zm14.57,8.21v-3.02h-14.57v3.02h14.57Zm-6.98,27.22c2.26-1.94,4.16-4.1,5.85-6.64l-13.08,.05c1.95,2.81,4.41,4.97,7.23,6.59Zm-2.82-14.09h4.67v-5.56h-4.67v5.56Zm8.36,0h5.18v-5.56h-5.18v5.56Z"/><path class="cls-1" d="M1.49,323.35l-.92-1.67c4.16-3.02,9.44-8.75,12.16-15.28l4.62,2.7c-3.44,5.83-9.59,11.07-15.85,14.26Zm44.63-21.22v2.43H27.45v11.61c0,6.37-7.8,4.48-12.26,1.46l.51-1.84c6.1,1.35,7.03,.59,7.03-1.62l.05-9.61H.97v-2.43H10.62v-14.58h4.51v14.58h7.54v-18.25h4.72v8.42h14v2.32h-14v7.51h18.72Zm-9.64,6.43l4.87,2.32c-6.21,13.28-16.88,21.6-38.83,23.38l-.41-1.94c19.54-2.81,28.93-11.07,34.37-23.76Z"/><path class="cls-1" d="M13.95,343.76H.92v-2.27H13.95v-3.89h4.62v3.89h9.64v-3.89h4.62v3.89h13.49v2.27h-13.49v2.86h-4.62v-2.86h-9.64v2.54h-4.62v-2.54ZM.92,376.33H46.07v2.27h-12.67c3.39,1.67,6.72,4.05,8.98,6.43l-3.18,3.56c-.97-1.35-2.26-3.02-3.64-4.64-6.26,1.46-21.44,2.97-27.6,3.13l-1.18-4.81c1.69,.16,4.21,.27,7.08,.32,.72-1.24,1.44-2.75,1.95-4H.92v-2.27Zm7.8-19.55H2.31v-2.16H11.8v-2.16H4.41v-2.05h7.39v-3.13h4v3.13h7.49v2.05h-7.49v2.16h8.88v2.16h-5.54v.59c0,1.03,.36,1.3,2.1,1.3,.67,0,2.15-.38,2.72-1.24l1.59,2.16c-.82,1.03-2.36,1.78-4.67,1.78-4.05,0-5.03-.81-5.03-3.4v-1.19h-3.39c-.82,3.89-5.23,6.26-10.72,6.97l-.46-1.51c3.23-.76,6.62-2.27,7.44-5.45Zm2.92,11.18v-2.75H5.33v-2.05h6.31v-3.4h4.1v3.4h6.87v2.05h-6.87v2.43c3.75-.38,6.93-.81,8.57-1.13l.36,1.62c-4.05,1.4-11.29,2.97-20.93,4l-.87-3.78c2.77,0,5.8-.16,8.77-.38Zm25.85,5.89H11.23v-2.16h26.27v2.16Zm-6.05,5.62l.62-.86h-11.03c-1.28,1.35-2.92,2.81-4.51,4.05,5.95,.11,12.83,.05,17.75-.22-.97-1.08-1.9-2.11-2.82-2.97Zm1.95-24.79c-.15,2.43-.41,4.48-.87,6.26,1.79,1.3,3.39,2.75,4.72,4.37l-2.67,3.08c-1.03-1.46-2.1-2.81-3.23-4.1-1.44,3.08-3.64,5.08-6.82,6.86l-.92-1.3c3.08-2.65,4.51-4.7,5.18-8.32-1.13-1.13-2.31-2.27-3.59-3.4l.82-1.35c1.08,.59,2.16,1.24,3.13,1.84,.1-1.13,.15-2.48,.21-3.94h-4.16v-2.11h4.21c.05-1.46,.05-3.08,.05-4.91l4.05,.05c.05,1.78,.05,3.35,0,4.86h6.82c-.21,8.15,.36,13.07,2.36,14.42,1.49,1.03,1.23-3.46,1.08-6.48h1.8c2.82,10.37-.77,12.64-3.9,10.96-4.21-2.27-5.08-7.72-5.08-16.79h-3.18Z"/><path class="cls-1" d="M34.01,407.38h-9.18v34.61h-4.41v-34.61h-6.92c-.82,1.89-1.85,3.78-2.92,5.56v29.05H6.26v-22.9c-1.74,2.16-3.54,3.94-5.03,5.13l-1.23-1.4c5.49-6.64,8.67-14.58,10.72-22.03l4.41,1.94c-.21,.76-.41,1.46-.67,2.21h5.95v-12.91h4.41v12.91h9.18v2.43Zm-32.47,1.57l-1.28-1.4c3.74-4.54,6.51-11.12,7.9-16.09l4.51,1.84c-2.05,5.62-6.82,12.1-11.13,15.66Zm12.47,2.16h4.1c0,14.47-.56,19.98-4.57,25.16l-1.54-1.08c2.82-5.62,2-10.48,2-24.08Zm14.77-7.83c-.67-2.92-1.8-6.53-2.51-8.59l1.54-.92c1.85,1.89,3.9,5.13,4.92,7.78l-3.95,1.73Zm3.69,27.81c-4.98,0-5.39-.76-5.39-5.83v-13.99h4v13.88c0,1.67-.05,2.54,1.74,2.48,1.33-.05,1.8-.27,2.67-1.08l1.28,3.02c-.87,.92-2.31,1.51-4.31,1.51Zm13.95-22.14v2.43h-4.16v25.6c0,4.81-4.26,7.56-11.34,1.19l.72-1.84c4.98,1.89,6.31,2,6.31-.59v-24.35h-5.28v-2.43h13.75Zm-.87-10.91h-12.42v-2.43h12.42v2.43Z"/></g></g></svg>