<?xml version="1.0" encoding="UTF-8"?><svg id="_層_2" xmlns="http://www.w3.org/2000/svg" viewBox="0 0 53.14 701.72"><defs><style>.cls-1{fill:#b28247;}</style></defs><g id="_層_1-2"><g><path class="cls-1" d="M42.23,40.55c.65-.29,1.32-.63,2.02-1.03,.7-.4,1.36-.8,1.97-1.21,.61-.42,1.18-.82,1.7-1.22,.52-.4,.91-.74,1.16-1.03,.72-.76,1.2-1.58,1.43-2.46,.23-.88,.37-2.01,.4-3.38,0-.68,0-1.28,.03-1.78,.02-.5,.03-1.01,.03-1.51v-3.56c-.9,0-2.12,0-3.67-.03-1.55-.02-3.17-.03-4.86-.03H21.33c-1.04,0-2.04,.03-3,.08-.95,.05-1.63,.22-2.02,.51-.79,.54-1.33,1.3-1.62,2.29-.29,.99-.5,1.88-.65,2.67h-.54V11.34h.54c.11,.94,.29,1.84,.54,2.7,.25,.86,.85,1.71,1.78,2.54,.18,.18,.48,.31,.89,.41,.41,.09,.88,.16,1.4,.22,.52,.05,1.09,.09,1.7,.11,.61,.02,1.21,.03,1.78,.03,.5,0,1.17,0,2,.03,.83,.02,1.75,.04,2.75,.05,1.01,.02,2.05,.03,3.13,.03h20.95v-3.56c0-.47,0-.96-.03-1.49-.02-.52-.03-1.12-.03-1.81-.04-1.37-.2-2.49-.49-3.38-.29-.88-.79-1.7-1.51-2.46-.25-.29-.63-.62-1.13-1-.5-.38-1.05-.77-1.65-1.19-.59-.42-1.23-.81-1.92-1.19-.68-.38-1.35-.67-2-.89l.16-.49,10.26,1.62c-.18,.83-.32,1.59-.43,2.29-.11,.7-.18,1.72-.22,3.05-.04,1.37-.06,2.59-.08,3.67-.02,1.08-.03,2.12-.03,3.13v10.26c0,1.08,0,2.12,.03,3.13,.02,1.01,.04,2.05,.05,3.13,.02,1.08,.03,2.3,.03,3.67,.04,1.19,.14,2.17,.3,2.94,.16,.77,.37,1.57,.62,2.4l-10.53,1.73-.16-.49Z"/><path class="cls-1" d="M16.79,64.96c-.65-.29-1.23-.67-1.75-1.13-.52-.47-.92-1.02-1.19-1.65s-.41-1.32-.41-2.08c0-1.22,.36-2.31,1.08-3.27,.72-.95,1.98-1.43,3.78-1.43l.05-.11c-.47-.29-.99-.67-1.57-1.16-.58-.49-1.12-1.06-1.62-1.73-.5-.67-.91-1.4-1.21-2.21-.31-.81-.46-1.7-.46-2.67,0-.58,.08-1.16,.24-1.75,.16-.59,.45-1.13,.86-1.62,.41-.49,.94-.88,1.59-1.19,.65-.31,1.44-.46,2.38-.46,1.01,0,1.98,.41,2.92,1.21,.94,.81,1.78,1.81,2.54,3,.76,1.19,1.4,2.24,1.94,3.16s1,1.72,1.38,2.4,.7,1.29,.97,1.81c.27,.52,.51,.96,.73,1.32h5.56c.07,0,.24-.06,.51-.19,.27-.13,.55-.34,.84-.65,.29-.31,.55-.73,.78-1.27,.23-.54,.35-1.24,.35-2.11,0-.58-.1-1.14-.3-1.7-.2-.56-.45-1.05-.76-1.49-.31-.43-.61-.77-.92-1.03-.31-.25-.57-.38-.78-.38h-2.43c-.5,0-.95-.26-1.35-.78-.4-.52-.59-1.09-.59-1.7,0-.58,.21-1.07,.62-1.49,.41-.41,.89-.62,1.43-.62,.43,0,.83,.11,1.19,.32,.36,.22,.68,.49,.97,.81,.29,.32,.54,.68,.76,1.05s.41,.71,.59,1c.54,.94,1.06,1.89,1.57,2.86,.5,.97,.94,1.9,1.3,2.78,.36,.88,.65,1.69,.86,2.43,.22,.74,.32,1.34,.32,1.81,0,.94-.24,1.82-.73,2.65s-1.09,1.42-1.81,1.78c-.25,.14-.69,.23-1.32,.27-.63,.04-1.25,.05-1.86,.05-1.3,0-2.47,0-3.51-.03-1.04-.02-2.05-.03-3.02-.03s-1.97,0-3-.03c-1.03-.02-2.15-.03-3.38-.03-1.62,0-2.69,.28-3.21,.84-.52,.56-.78,1.2-.78,1.92,0,.83,.17,1.44,.51,1.84,.34,.4,.78,.67,1.32,.81v.32c-.68-.04-1.35-.2-2-.49Zm11.39-9.56c-.47-.65-.96-1.46-1.48-2.43-.52-.97-1.09-1.92-1.7-2.83-.61-.92-1.29-1.71-2.02-2.38-.74-.67-1.58-1-2.51-1s-1.78,.32-2.54,.97c-.76,.65-1.13,1.49-1.13,2.54,0,.94,.11,1.76,.32,2.48,.22,.72,.63,1.39,1.24,2,.4,.43,.9,.65,1.51,.65h8.32Z"/><path class="cls-1" d="M13.5,65.5h.54c.04,.43,.08,.86,.13,1.3,.05,.43,.14,.82,.27,1.16,.13,.34,.3,.63,.51,.86,.22,.23,.49,.35,.81,.35h18.52c.29,0,.54-.03,.76-.08,.22-.05,.41-.21,.59-.46,.22-.32,.43-.71,.65-1.16,.22-.45,.41-.93,.59-1.43h.32l2.38,7.29v.32H15.44c-.36,.07-.62,.22-.78,.46-.16,.23-.28,.51-.35,.84-.07,.32-.12,.67-.14,1.05-.02,.38-.06,.75-.13,1.11h-.54v-11.61Zm32.54,7.75c-.56-.56-.84-1.25-.84-2.08s.29-1.48,.86-2.05c.58-.58,1.26-.86,2.05-.86s1.51,.28,2.05,.84c.54,.56,.81,1.25,.81,2.08s-.27,1.52-.81,2.08c-.54,.56-1.22,.84-2.05,.84s-1.52-.28-2.08-.84Z"/><path class="cls-1" d="M18.17,100.6c-.95-.65-1.8-1.44-2.54-2.38-.74-.94-1.31-1.99-1.7-3.16-.4-1.17-.59-2.44-.59-3.81,0-1.73,.33-3.33,1-4.81,.67-1.48,1.6-2.74,2.81-3.78,1.21-1.04,2.62-1.86,4.24-2.46,1.62-.59,3.35-.89,5.18-.89,1.73,0,3.38,.31,4.94,.92,1.57,.61,2.94,1.46,4.13,2.54s2.14,2.37,2.86,3.86c.72,1.49,1.08,3.12,1.08,4.89,0,1.19-.14,2.36-.43,3.51-.29,1.15-.7,2.18-1.24,3.08-.54,.9-1.21,1.63-2,2.19-.79,.56-1.71,.84-2.75,.84-.76,0-1.41-.28-1.97-.84-.56-.56-.84-1.21-.84-1.97,0-.61,.18-1.16,.54-1.65,.36-.49,.81-.8,1.35-.95,.5,.18,1.12,.27,1.84,.27,1.33,0,2.44-.35,3.32-1.05,.88-.7,1.32-1.81,1.32-3.32,0-1.12-.29-2.14-.86-3.08-.58-.94-1.35-1.75-2.32-2.43-.97-.68-2.11-1.22-3.4-1.62s-2.68-.59-4.16-.59c-1.62,0-3.1,.22-4.46,.65-1.35,.43-2.5,1.04-3.46,1.84-.95,.79-1.69,1.75-2.21,2.89-.52,1.13-.78,2.4-.78,3.81,0,2.23,.37,4,1.11,5.29,.74,1.3,1.83,2.38,3.27,3.24l-.22,.43c-1.08-.32-2.1-.81-3.05-1.46Z"/><path class="cls-1" d="M13.5,118.21h.59c.07,.97,.19,1.78,.35,2.43,.16,.65,.53,.97,1.11,.97h13.5c1.04,0,2.02-.07,2.92-.22,.9-.14,1.67-.41,2.32-.78s1.15-.89,1.51-1.54c.36-.65,.54-1.48,.54-2.48,0-1.3-.23-2.39-.7-3.29-.47-.9-1.1-1.62-1.89-2.16-.11-.07-.33-.17-.67-.3-.34-.13-.66-.19-.95-.19H15.55c-.32,0-.58,.09-.76,.27-.18,.18-.32,.41-.4,.7-.09,.29-.15,.61-.19,.97-.04,.36-.09,.72-.16,1.08h-.54v-10.75h.54c.07,.83,.21,1.58,.4,2.24,.2,.67,.64,1,1.32,1h30.67c.29,0,.5-.03,.65-.08,.14-.05,.31-.21,.49-.46,.25-.29,.49-.67,.73-1.16,.23-.49,.49-.96,.78-1.43h.32l3.29,7.24v.43l-18.74-.16-.05,.11c.5,.25,1.08,.64,1.73,1.16,.65,.52,1.26,1.17,1.84,1.96,.58,.79,1.07,1.69,1.48,2.72,.41,1.02,.62,2.14,.62,3.36s-.21,2.18-.62,2.99c-.41,.81-.99,1.45-1.73,1.94-.74,.48-1.61,.83-2.62,1.02s-2.11,.3-3.29,.3H15.39c-.25,0-.47,.11-.65,.32-.18,.22-.32,.49-.41,.81-.09,.32-.16,.67-.22,1.03-.05,.36-.1,.7-.14,1.03h-.49v-11.07Z"/><path class="cls-1" d="M13.45,149.52v-.38h5.45l.05-.05c-.61-.4-1.26-.88-1.94-1.46-.68-.58-1.31-1.22-1.86-1.94-.56-.72-1-1.52-1.32-2.4-.32-.88-.49-1.83-.49-2.83,0-2.3,.68-4,2.05-5.1,1.37-1.1,3.37-1.65,5.99-1.65h13.77c.25,0,.51-.02,.78-.05,.27-.04,.52-.06,.76-.08,.23-.02,.41-.06,.51-.13,.32-.14,.56-.35,.7-.62,.14-.27,.25-.57,.32-.89,.07-.32,.12-.67,.14-1.03,.02-.36,.04-.7,.08-1.03h.59v8.32h-15.71c-2.38,0-4.13,.36-5.27,1.08-1.13,.72-1.7,2.08-1.7,4.07,0,.76,.1,1.42,.3,1.98,.2,.56,.45,1.07,.76,1.52,.31,.45,.66,.87,1.05,1.25,.4,.38,.81,.73,1.24,1.06h15.39c.36,0,.82-.04,1.38-.11,.56-.07,.98-.22,1.27-.43,.18-.43,.32-1.02,.43-1.75,.11-.74,.2-1.5,.27-2.29h.59v9.07H17.71c-.29,0-.5,.03-.65,.08-.14,.05-.31,.21-.49,.46-.18,.32-.41,.8-.7,1.43-.29,.63-.52,1.16-.7,1.59h-.32l-1.4-7.67Z"/><path class="cls-1" d="M13.5,174.74h.59c.07,.97,.19,1.75,.35,2.32,.16,.58,.53,.86,1.11,.86h13.61c2.09,0,3.77-.4,5.05-1.19,1.28-.79,1.92-2.12,1.92-4,0-1.19-.25-2.18-.76-2.97-.5-.79-1.24-1.67-2.21-2.65H15.44c-.36,.07-.62,.2-.78,.38-.16,.18-.28,.4-.35,.65-.07,.25-.12,.54-.14,.86-.02,.32-.06,.67-.13,1.03h-.54v-10.42h.54c.07,.83,.23,1.54,.49,2.13,.25,.59,.67,.89,1.24,.89h18.58c.29,0,.5-.03,.65-.08,.14-.05,.31-.21,.49-.46,.18-.32,.39-.7,.62-1.13,.23-.43,.44-.86,.62-1.3h.32l2.54,7.07v.32h-5.83l-.05,.11c.61,.39,1.27,.89,1.97,1.48s1.34,1.26,1.92,2.02c.58,.75,1.05,1.58,1.43,2.48s.57,1.83,.57,2.8c0,2.08-.77,3.68-2.32,4.79s-3.55,1.67-5.99,1.67H15.39c-.25,0-.47,.12-.65,.35-.18,.23-.32,.51-.41,.84-.09,.32-.16,.67-.22,1.05-.05,.38-.1,.73-.14,1.05h-.49v-10.96Z"/><path class="cls-1" d="M35.18,214.57c-.41-.38-.62-.84-.62-1.38,0-.22,.09-.54,.27-.97,.18-.43,.4-.91,.65-1.43,.25-.52,.53-1.05,.84-1.59,.31-.54,.58-1.03,.84-1.46l-.22-.22c-.83,.54-1.6,1-2.32,1.38-.72,.38-1.66,.57-2.81,.57-2.84,0-4.98-.99-6.4-2.97-1.42-1.98-2.13-4.72-2.13-8.21,0-.5,.04-1.02,.11-1.54,.07-.52,.11-1.14,.11-1.86-.07-1.15-.34-2.07-.81-2.75-.47-.68-1.06-1.03-1.78-1.03-.58,0-1.05,.18-1.43,.54-.38,.36-.67,.81-.89,1.35-.22,.54-.36,1.13-.43,1.78-.07,.65-.11,1.28-.11,1.89v8.64c0,1.26-.2,2.39-.59,3.4-.4,1.01-.94,1.87-1.62,2.59-.68,.72-1.47,1.27-2.35,1.65-.88,.38-1.86,.57-2.94,.57-1.4,0-2.74-.35-4.02-1.05-1.28-.7-2.4-1.68-3.38-2.94-.97-1.26-1.74-2.75-2.29-4.46-.56-1.71-.84-3.59-.84-5.64,0-3.92,.59-6.97,1.75-9.15,1.17-2.18,2.78-3.27,4.83-3.27,.76,0,1.44,.21,2.05,.62,.61,.41,1.2,.94,1.75,1.57,.56,.63,1.08,1.33,1.57,2.11,.49,.77,.96,1.54,1.43,2.29h.11c.22-1.84,.74-3.25,1.57-4.24,.83-.99,1.93-1.49,3.29-1.49,.68,0,1.33,.16,1.94,.49,.61,.32,1.17,.77,1.67,1.35,.5,.58,.93,1.25,1.27,2.03,.34,.77,.57,1.61,.67,2.51h.16c.61-1.58,1.51-2.82,2.7-3.7,1.19-.88,2.7-1.32,4.54-1.32,1.15,0,2.23,.26,3.24,.78,1.01,.52,1.88,1.25,2.62,2.19,.74,.94,1.32,2.04,1.75,3.32,.43,1.28,.65,2.67,.65,4.19,0,1.37-.13,2.58-.38,3.64-.25,1.06-.68,2.17-1.3,3.32-.14,.43-.23,.8-.27,1.11-.04,.31-.05,.68-.05,1.11s.06,.82,.19,1.16c.13,.34,.27,.66,.43,.95,.16,.29,.31,.59,.43,.92,.13,.32,.19,.7,.19,1.13,0,.61-.22,1.12-.65,1.51-.43,.4-.95,.59-1.57,.59-.54,0-1.02-.19-1.43-.57Zm-24.17-5.32c.76-.43,1.28-.95,1.57-1.57,.4-.79,.67-1.78,.84-2.97,.16-1.19,.24-2.83,.24-4.91,0-.76-.04-1.53-.11-2.32-.07-.79-.14-1.44-.22-1.94-.43-1.69-1.12-2.86-2.05-3.51-.94-.65-1.96-.97-3.08-.97s-2.16,.32-3.02,.95c-.86,.63-1.59,1.41-2.19,2.35-.59,.94-1.03,1.94-1.32,3-.29,1.06-.43,2.04-.43,2.94,0,1.08,.05,2.01,.16,2.78,.11,.77,.27,1.47,.49,2.08,.5,1.26,1.31,2.37,2.43,3.32,1.12,.95,2.45,1.43,4,1.43,1.04,0,1.94-.22,2.7-.65Zm23.44-4.48c.83-.25,1.56-.62,2.19-1.11,.63-.49,1.13-1.1,1.51-1.84,.38-.74,.57-1.59,.57-2.57,0-.9-.21-1.71-.62-2.43-.41-.72-.97-1.32-1.67-1.81-.7-.49-1.5-.86-2.4-1.11-.9-.25-1.82-.38-2.75-.38-2.16,0-3.9,.55-5.21,1.65-1.31,1.1-1.97,2.44-1.97,4.02,0,.97,.22,1.83,.65,2.57,.43,.74,1.01,1.36,1.73,1.86,.72,.5,1.54,.88,2.46,1.13,.92,.25,1.88,.38,2.89,.38,.94,0,1.82-.13,2.65-.38Z"/><path class="cls-1" d="M42.23,265.95c.65-.29,1.32-.63,2.02-1.03,.7-.4,1.36-.8,1.97-1.21,.61-.42,1.18-.82,1.7-1.22,.52-.4,.91-.74,1.16-1.03,.72-.76,1.2-1.58,1.43-2.46,.23-.88,.37-2.01,.4-3.38,0-.68,0-1.28,.03-1.78,.02-.5,.03-1.01,.03-1.51v-3.56c-.9,0-2.12,0-3.67-.03-1.55-.02-3.17-.03-4.86-.03H21.33c-1.04,0-2.04,.03-3,.08-.95,.05-1.63,.22-2.02,.51-.79,.54-1.33,1.3-1.62,2.29-.29,.99-.5,1.88-.65,2.67h-.54v-17.55h.54c.11,.94,.29,1.84,.54,2.7,.25,.86,.85,1.71,1.78,2.54,.18,.18,.48,.31,.89,.41,.41,.09,.88,.16,1.4,.22,.52,.05,1.09,.09,1.7,.11,.61,.02,1.21,.03,1.78,.03,.5,0,1.17,0,2,.03,.83,.02,1.75,.04,2.75,.05,1.01,.02,2.05,.03,3.13,.03h20.95v-3.56c0-.47,0-.96-.03-1.49-.02-.52-.03-1.12-.03-1.81-.04-1.37-.2-2.49-.49-3.38-.29-.88-.79-1.7-1.51-2.46-.25-.29-.63-.62-1.13-1-.5-.38-1.05-.77-1.65-1.19-.59-.42-1.23-.81-1.92-1.19-.68-.38-1.35-.67-2-.89l.16-.49,10.26,1.62c-.18,.83-.32,1.59-.43,2.29-.11,.7-.18,1.72-.22,3.05-.04,1.37-.06,2.59-.08,3.67-.02,1.08-.03,2.12-.03,3.13v10.26c0,1.08,0,2.12,.03,3.13,.02,1.01,.04,2.05,.05,3.13,.02,1.08,.03,2.3,.03,3.67,.04,1.19,.14,2.17,.3,2.94,.16,.77,.37,1.57,.62,2.4l-10.53,1.73-.16-.49Z"/><path class="cls-1" d="M13.45,285.39v-.38h5.45l.05-.05c-.61-.4-1.26-.88-1.94-1.46-.68-.58-1.31-1.22-1.86-1.94-.56-.72-1-1.52-1.32-2.4-.32-.88-.49-1.83-.49-2.83,0-2.3,.68-4,2.05-5.1,1.37-1.1,3.37-1.65,5.99-1.65h13.77c.25,0,.51-.02,.78-.05,.27-.04,.52-.06,.76-.08,.23-.02,.41-.06,.51-.13,.32-.14,.56-.35,.7-.62,.14-.27,.25-.57,.32-.89,.07-.32,.12-.67,.14-1.03,.02-.36,.04-.7,.08-1.03h.59v8.32h-15.71c-2.38,0-4.13,.36-5.27,1.08-1.13,.72-1.7,2.08-1.7,4.07,0,.76,.1,1.42,.3,1.98,.2,.56,.45,1.07,.76,1.52,.31,.45,.66,.87,1.05,1.25,.4,.38,.81,.73,1.24,1.06h15.39c.36,0,.82-.04,1.38-.11,.56-.07,.98-.22,1.27-.43,.18-.43,.32-1.02,.43-1.75,.11-.74,.2-1.5,.27-2.29h.59v9.07H17.71c-.29,0-.5,.03-.65,.08-.14,.05-.31,.21-.49,.46-.18,.32-.41,.8-.7,1.43-.29,.63-.52,1.16-.7,1.59h-.32l-1.4-7.67Z"/><path class="cls-1" d="M13.5,310.6h.59c.07,.97,.19,1.75,.35,2.32,.16,.58,.53,.86,1.11,.86h13.61c2.09,0,3.77-.4,5.05-1.19,1.28-.79,1.92-2.12,1.92-4,0-1.19-.25-2.18-.76-2.97-.5-.79-1.24-1.67-2.21-2.65H15.44c-.36,.07-.62,.2-.78,.38-.16,.18-.28,.4-.35,.65-.07,.25-.12,.54-.14,.86-.02,.32-.06,.67-.13,1.03h-.54v-10.42h.54c.07,.83,.23,1.54,.49,2.13,.25,.59,.67,.89,1.24,.89h18.58c.29,0,.5-.03,.65-.08,.14-.05,.31-.21,.49-.46,.18-.32,.39-.7,.62-1.13,.23-.43,.44-.86,.62-1.3h.32l2.54,7.07v.32h-5.83l-.05,.11c.61,.39,1.27,.89,1.97,1.48s1.34,1.26,1.92,2.02c.58,.75,1.05,1.58,1.43,2.48s.57,1.83,.57,2.8c0,2.08-.77,3.68-2.32,4.79s-3.55,1.67-5.99,1.67H15.39c-.25,0-.47,.12-.65,.35-.18,.23-.32,.51-.41,.84-.09,.32-.16,.67-.22,1.05-.05,.38-.1,.73-.14,1.05h-.49v-10.96Z"/><path class="cls-1" d="M35.18,350.43c-.41-.38-.62-.84-.62-1.38,0-.22,.09-.54,.27-.97,.18-.43,.4-.91,.65-1.43,.25-.52,.53-1.05,.84-1.59,.31-.54,.58-1.03,.84-1.46l-.22-.22c-.83,.54-1.6,1-2.32,1.38-.72,.38-1.66,.57-2.81,.57-2.84,0-4.98-.99-6.4-2.97-1.42-1.98-2.13-4.72-2.13-8.21,0-.5,.04-1.02,.11-1.54,.07-.52,.11-1.14,.11-1.86-.07-1.15-.34-2.07-.81-2.75-.47-.68-1.06-1.03-1.78-1.03-.58,0-1.05,.18-1.43,.54-.38,.36-.67,.81-.89,1.35-.22,.54-.36,1.13-.43,1.78-.07,.65-.11,1.28-.11,1.89v8.64c0,1.26-.2,2.39-.59,3.4-.4,1.01-.94,1.87-1.62,2.59-.68,.72-1.47,1.27-2.35,1.65-.88,.38-1.86,.57-2.94,.57-1.4,0-2.74-.35-4.02-1.05-1.28-.7-2.4-1.68-3.38-2.94-.97-1.26-1.74-2.75-2.29-4.46-.56-1.71-.84-3.59-.84-5.64,0-3.92,.59-6.97,1.75-9.15,1.17-2.18,2.78-3.27,4.83-3.27,.76,0,1.44,.21,2.05,.62,.61,.41,1.2,.94,1.75,1.57,.56,.63,1.08,1.33,1.57,2.11,.49,.77,.96,1.54,1.43,2.29h.11c.22-1.84,.74-3.25,1.57-4.24,.83-.99,1.93-1.49,3.29-1.49,.68,0,1.33,.16,1.94,.49,.61,.32,1.17,.77,1.67,1.35,.5,.58,.93,1.25,1.27,2.03,.34,.77,.57,1.61,.67,2.51h.16c.61-1.58,1.51-2.82,2.7-3.7,1.19-.88,2.7-1.32,4.54-1.32,1.15,0,2.23,.26,3.24,.78,1.01,.52,1.88,1.25,2.62,2.19,.74,.94,1.32,2.04,1.75,3.32,.43,1.28,.65,2.67,.65,4.19,0,1.37-.13,2.58-.38,3.64-.25,1.06-.68,2.17-1.3,3.32-.14,.43-.23,.8-.27,1.11-.04,.31-.05,.68-.05,1.11s.06,.82,.19,1.16c.13,.34,.27,.66,.43,.95,.16,.29,.31,.59,.43,.92,.13,.32,.19,.7,.19,1.13,0,.61-.22,1.12-.65,1.51-.43,.4-.95,.59-1.57,.59-.54,0-1.02-.19-1.43-.57Zm-24.17-5.32c.76-.43,1.28-.95,1.57-1.57,.4-.79,.67-1.78,.84-2.97,.16-1.19,.24-2.83,.24-4.91,0-.76-.04-1.53-.11-2.32-.07-.79-.14-1.44-.22-1.94-.43-1.69-1.12-2.86-2.05-3.51-.94-.65-1.96-.97-3.08-.97s-2.16,.32-3.02,.95c-.86,.63-1.59,1.41-2.19,2.35-.59,.94-1.03,1.94-1.32,3-.29,1.06-.43,2.04-.43,2.94,0,1.08,.05,2.01,.16,2.78,.11,.77,.27,1.47,.49,2.08,.5,1.26,1.31,2.37,2.43,3.32,1.12,.95,2.45,1.43,4,1.43,1.04,0,1.94-.22,2.7-.65Zm23.44-4.48c.83-.25,1.56-.62,2.19-1.11,.63-.49,1.13-1.1,1.51-1.84,.38-.74,.57-1.59,.57-2.57,0-.9-.21-1.71-.62-2.43-.41-.72-.97-1.32-1.67-1.81-.7-.49-1.5-.86-2.4-1.11-.9-.25-1.82-.38-2.75-.38-2.16,0-3.9,.55-5.21,1.65-1.31,1.1-1.97,2.44-1.97,4.02,0,.97,.22,1.83,.65,2.57,.43,.74,1.01,1.36,1.73,1.86,.72,.5,1.54,.88,2.46,1.13,.92,.25,1.88,.38,2.89,.38,.94,0,1.82-.13,2.65-.38Z"/><path class="cls-1" d="M13.5,391.12h.54c.11,1.33,.35,2.45,.73,3.35,.38,.9,.8,1.49,1.27,1.78,.11,.07,.32,.13,.65,.19,.32,.05,.7,.1,1.13,.14,.43,.04,.88,.06,1.35,.08,.47,.02,.92,.03,1.35,.03,1.19,.04,2.41,.05,3.67,.05h8.53v-21.33h-11.61c-1.04,0-2.05,.02-3.02,.05-.97,.04-1.66,.2-2.05,.49-.61,.43-1.08,1.04-1.4,1.84-.32,.79-.52,1.57-.59,2.32h-.54v-15.93h.54c.14,.9,.39,1.76,.73,2.59,.34,.83,.76,1.46,1.27,1.89,.18,.14,.48,.26,.89,.35,.41,.09,.89,.16,1.43,.22s1.12,.1,1.76,.13c.63,.04,1.23,.05,1.81,.05,.5,0,1.19,0,2.05,.03,.86,.02,1.81,.04,2.83,.05,1.03,.02,2.08,.03,3.16,.03h15.61c.65,0,1.25-.03,1.81-.08,.56-.05,1.06-.13,1.51-.24,.45-.11,.8-.27,1.05-.49,.61-.5,1.05-1.13,1.32-1.86,.27-.74,.46-1.58,.57-2.51h.54v16.09h-.54c-.07-.5-.18-1.04-.32-1.62-.14-.58-.37-1.1-.68-1.57-.31-.47-.73-.86-1.27-1.19-.54-.32-1.22-.5-2.05-.54-1.26-.04-2.62-.06-4.08-.08-1.46-.02-2.85-.03-4.19-.03h-5.45v21.33h8.69c.94,0,2-.02,3.19-.05,.68-.04,1.39-.08,2.13-.13,.74-.05,1.34-.23,1.81-.51,.97-.65,1.57-1.39,1.81-2.21,.23-.83,.37-1.66,.4-2.48h.54v16.25h-.54c-.11-.86-.35-1.71-.73-2.54s-.93-1.44-1.65-1.84c-.25-.14-.6-.25-1.05-.32-.45-.07-.95-.13-1.51-.16-.56-.04-1.13-.05-1.7-.05H27.54c-1.01,0-2.05,0-3.13,.03-1.08,.02-2.27,.03-3.56,.03-1.04,0-2.01,.03-2.89,.08-.88,.05-1.48,.19-1.81,.41-.72,.47-1.22,1.1-1.51,1.89-.29,.79-.49,1.66-.59,2.59h-.54v-16.58Z"/><path class="cls-1" d="M16.79,435.02c-.65-.29-1.23-.67-1.75-1.13-.52-.47-.92-1.02-1.19-1.65s-.41-1.32-.41-2.08c0-1.22,.36-2.31,1.08-3.27,.72-.95,1.98-1.43,3.78-1.43l.05-.11c-.47-.29-.99-.67-1.57-1.16-.58-.49-1.12-1.06-1.62-1.73-.5-.67-.91-1.4-1.21-2.21-.31-.81-.46-1.7-.46-2.67,0-.58,.08-1.16,.24-1.75,.16-.59,.45-1.13,.86-1.62,.41-.49,.94-.88,1.59-1.19,.65-.31,1.44-.46,2.38-.46,1.01,0,1.98,.41,2.92,1.21,.94,.81,1.78,1.81,2.54,3,.76,1.19,1.4,2.24,1.94,3.16s1,1.72,1.38,2.4,.7,1.29,.97,1.81c.27,.52,.51,.96,.73,1.32h5.56c.07,0,.24-.06,.51-.19,.27-.13,.55-.34,.84-.65,.29-.31,.55-.73,.78-1.27,.23-.54,.35-1.24,.35-2.11,0-.58-.1-1.14-.3-1.7-.2-.56-.45-1.05-.76-1.49-.31-.43-.61-.77-.92-1.03-.31-.25-.57-.38-.78-.38h-2.43c-.5,0-.95-.26-1.35-.78-.4-.52-.59-1.09-.59-1.7,0-.58,.21-1.07,.62-1.49,.41-.41,.89-.62,1.43-.62,.43,0,.83,.11,1.19,.32,.36,.22,.68,.49,.97,.81,.29,.32,.54,.68,.76,1.05s.41,.71,.59,1c.54,.94,1.06,1.89,1.57,2.86,.5,.97,.94,1.9,1.3,2.78,.36,.88,.65,1.69,.86,2.43,.22,.74,.32,1.34,.32,1.81,0,.94-.24,1.82-.73,2.65s-1.09,1.42-1.81,1.78c-.25,.14-.69,.23-1.32,.27-.63,.04-1.25,.05-1.86,.05-1.3,0-2.47,0-3.51-.03-1.04-.02-2.05-.03-3.02-.03s-1.97,0-3-.03c-1.03-.02-2.15-.03-3.38-.03-1.62,0-2.69,.28-3.21,.84-.52,.56-.78,1.2-.78,1.92,0,.83,.17,1.44,.51,1.84,.34,.4,.78,.67,1.32,.81v.32c-.68-.04-1.35-.2-2-.49Zm11.39-9.56c-.47-.65-.96-1.46-1.48-2.43-.52-.97-1.09-1.92-1.7-2.83-.61-.92-1.29-1.71-2.02-2.38-.74-.67-1.58-1-2.51-1s-1.78,.32-2.54,.97c-.76,.65-1.13,1.49-1.13,2.54,0,.94,.11,1.76,.32,2.48,.22,.72,.63,1.39,1.24,2,.4,.43,.9,.65,1.51,.65h8.32Z"/><path class="cls-1" d="M13.5,435.56h.54c.04,.43,.08,.86,.13,1.3,.05,.43,.14,.82,.27,1.16,.13,.34,.3,.63,.51,.86,.22,.23,.49,.35,.81,.35h18.52c.29,0,.54-.03,.76-.08,.22-.05,.41-.21,.59-.46,.22-.32,.43-.71,.65-1.16,.22-.45,.41-.93,.59-1.43h.32l2.38,7.29v.32H15.44c-.36,.07-.62,.22-.78,.46-.16,.23-.28,.51-.35,.84-.07,.32-.12,.67-.14,1.05-.02,.38-.06,.75-.13,1.11h-.54v-11.61Zm32.54,7.75c-.56-.56-.84-1.25-.84-2.08s.29-1.48,.86-2.05c.58-.58,1.26-.86,2.05-.86s1.51,.28,2.05,.84c.54,.56,.81,1.25,.81,2.08s-.27,1.52-.81,2.08c-.54,.56-1.22,.84-2.05,.84s-1.52-.28-2.08-.84Z"/><path class="cls-1" d="M13.5,483.62h.54c0,.11,.04,.37,.11,.78,.07,.41,.2,.85,.38,1.3,.18,.45,.43,.85,.76,1.19,.32,.34,.74,.51,1.24,.51,.32,0,.85-.1,1.59-.3,.74-.2,1.64-.48,2.7-.84,1.06-.36,2.24-.77,3.54-1.24s2.65-.97,4.05-1.51v-14.36c-1.37-.54-2.67-1.06-3.92-1.57-1.24-.5-2.49-1.01-3.75-1.51-1.94-.76-3.31-1.13-4.1-1.13-.47,0-.86,.14-1.16,.43-.31,.29-.56,.66-.76,1.11-.2,.45-.34,.94-.43,1.46-.09,.52-.17,1.02-.24,1.49h-.54v-11.5h.59c.11,.94,.36,1.74,.76,2.4,.4,.67,.67,1.05,.81,1.16,.25,.25,.85,.67,1.78,1.24,.94,.58,2.32,1.28,4.16,2.11,1.69,.76,3.62,1.6,5.78,2.54s4.38,1.9,6.67,2.89c2.29,.99,4.59,1.97,6.91,2.94,2.32,.97,4.49,1.89,6.51,2.75l1.19-.54c.29,.65,.63,1.23,1.03,1.76,.4,.52,.81,.98,1.24,1.38,.43,.4,.85,.73,1.24,1,.4,.27,.72,.48,.97,.62v.43c-2.99,1.12-5.82,2.18-8.51,3.19-2.68,1.01-5.26,1.97-7.75,2.89-2.48,.92-4.89,1.81-7.21,2.67-2.32,.86-4.62,1.73-6.88,2.59-1.12,.4-2.04,.76-2.78,1.11-.74,.34-1.58,.73-2.51,1.16-.14,.07-.4,.23-.76,.49-.36,.25-.73,.58-1.11,1-.38,.41-.71,.93-1,1.54-.29,.61-.45,1.33-.49,2.16h-.65v-15.77Zm32.72-7.07c-.47-.22-1.21-.53-2.21-.95-1.01-.41-2.23-.93-3.67-1.54-1.44-.61-3.07-1.29-4.89-2.03-1.82-.74-3.79-1.54-5.91-2.4v13.45c1.62-.61,3.24-1.23,4.86-1.86,1.62-.63,3.18-1.24,4.67-1.84,1.49-.59,2.86-1.13,4.1-1.62,1.24-.49,2.26-.89,3.05-1.21Z"/><path class="cls-1" d="M34.75,516.78c-.52-.47-.78-1.01-.78-1.62,0-.58,.1-1.04,.3-1.38,.2-.34,.42-.64,.67-.89,.25-.25,.48-.52,.67-.81,.2-.29,.3-.68,.3-1.19,0-.43-.15-.86-.46-1.27-.31-.41-.69-.8-1.16-1.16-.47-.36-1-.68-1.59-.97-.59-.29-1.16-.54-1.7-.76H15.44c-.32,.11-.58,.34-.76,.7-.18,.36-.31,.76-.38,1.21-.07,.45-.12,.92-.14,1.4-.02,.49-.06,.91-.13,1.27h-.54v-12.1h.54c.07,.83,.23,1.54,.49,2.13,.25,.59,.67,.89,1.24,.89h18.25c.29,0,.5-.03,.65-.08,.14-.05,.31-.21,.49-.46,.18-.32,.41-.7,.68-1.13s.49-.86,.67-1.3h.32l2.75,7.07v.32l-7.51-.11v.11c.43,.18,1.06,.47,1.89,.86,.83,.4,1.67,.9,2.51,1.51,.85,.61,1.57,1.35,2.19,2.21,.61,.86,.92,1.85,.92,2.97,0,.9-.27,1.67-.81,2.29-.54,.63-1.22,.95-2.05,.95s-1.45-.24-1.97-.7Z"/><path class="cls-1" d="M35.75,534.16v-8.21h-14.2c-1.84,0-3.17,.4-4,1.19-.83,.79-1.24,1.82-1.24,3.08,0,1.04,.17,1.91,.51,2.59s.87,1.28,1.59,1.78l-.16,.32c-.54-.22-1.11-.51-1.7-.89-.59-.38-1.13-.88-1.62-1.51-.49-.63-.86-1.37-1.13-2.21-.27-.85-.4-1.85-.4-3,0-.76,.12-1.48,.35-2.18,.23-.69,.58-1.31,1.03-1.84,.45-.53,.95-.97,1.51-1.31s1.12-.51,1.7-.51c3.38,0,6.6,.02,9.64,.05,3.04,.04,5.75,.05,8.13,.05v-3.94h.59l7.4,7.78v.43h-4.7v9.99l-3.29-1.67Z"/><path class="cls-1" d="M17.74,553.52c-1.03-.56-1.86-1.3-2.51-2.24s-1.12-2.01-1.4-3.21c-.29-1.21-.43-2.48-.43-3.81,0-1.58,.14-3.08,.43-4.48,.29-1.4,.7-2.7,1.24-3.89h7.13v.43c-.86,.29-1.77,.65-2.73,1.08-.95,.43-1.84,.95-2.65,1.56-.81,.61-1.48,1.34-2,2.21-.52,.86-.78,1.88-.78,3.07,0,1.72,.49,3.09,1.48,4.11,.99,1.02,2.51,1.53,4.56,1.53,1.12,0,2.04-.35,2.78-1.05,.74-.7,1.23-1.66,1.48-2.88,.18-.97,.38-1.9,.59-2.8,.22-.9,.45-1.7,.7-2.42,.47-1.36,1.28-2.47,2.43-3.31,1.15-.84,2.54-1.26,4.16-1.26,1.12,0,2.12,.23,3.02,.7,.9,.47,1.67,1.1,2.32,1.89,.65,.79,1.14,1.71,1.48,2.75,.34,1.04,.51,2.16,.51,3.35,0,1.51-.14,2.84-.41,4-.27,1.15-.6,2.25-1,3.29l-6.7,.65-.11-.43c1.08-.5,2.08-1.01,3-1.51,.92-.5,1.71-1.06,2.38-1.67,.67-.61,1.18-1.31,1.54-2.08,.36-.77,.54-1.67,.54-2.67,0-.61-.11-1.21-.32-1.81-.22-.59-.53-1.12-.94-1.57-.41-.45-.94-.82-1.57-1.11-.63-.29-1.36-.43-2.19-.43-1.33,0-2.29,.38-2.86,1.13-.58,.76-1.01,1.71-1.3,2.86-.18,.79-.37,1.66-.57,2.59-.2,.94-.39,1.75-.57,2.43-.4,1.62-1.22,3-2.48,4.13-1.26,1.13-2.81,1.7-4.64,1.7-1.4,0-2.62-.28-3.65-.84Z"/><path class="cls-1" d="M19.49,595.48c-1.37-.7-2.54-1.67-3.51-2.92-.97-1.24-1.69-2.73-2.16-4.46-.47-1.73-.7-3.62-.7-5.67,0-1.76,.11-3.28,.32-4.54,.22-1.26,.48-2.3,.78-3.13,.31-.83,.58-1.45,.84-1.86,.25-.41,.38-.67,.38-.78s-.22-.34-.65-.7c-.43-.36-.85-.68-1.24-.97v-.49l10.75-.16v.54c-.97,.32-1.92,.74-2.83,1.24s-1.78,1.05-2.59,1.65-1.52,1.22-2.13,1.89c-.61,.67-1.08,1.3-1.4,1.92-.32,.61-.65,1.42-.97,2.43-.32,1.01-.49,1.98-.49,2.92,0,2.66,.73,4.82,2.19,6.48,1.46,1.66,3.43,2.48,5.91,2.48,1.01,0,1.89-.16,2.65-.49s1.41-.77,1.97-1.32c.56-.56,1.03-1.21,1.43-1.97,.4-.76,.76-1.57,1.08-2.43,.32-.86,.59-1.62,.81-2.27,.22-.65,.42-1.25,.62-1.81,.2-.56,.4-1.13,.59-1.73,.2-.59,.46-1.3,.78-2.13,.36-.94,.85-1.84,1.48-2.7,.63-.86,1.37-1.62,2.21-2.27,.85-.65,1.78-1.17,2.81-1.57s2.11-.59,3.27-.59c1.94,0,3.62,.35,5.02,1.06s2.57,1.66,3.51,2.86c.94,1.2,1.63,2.58,2.08,4.15,.45,1.57,.68,3.21,.68,4.94,0,1.62-.14,3.01-.41,4.16s-.57,2.1-.89,2.83c-.32,.74-.62,1.3-.89,1.67-.27,.38-.41,.58-.41,.62,0,.11,.22,.33,.65,.68,.43,.34,.86,.66,1.3,.94v.59h-9.99v-.59c1.19-.43,2.37-.99,3.54-1.67,1.17-.68,2.21-1.48,3.13-2.38,.92-.9,1.67-1.93,2.24-3.08,.58-1.15,.86-2.43,.86-3.83,0-1.12-.16-2.17-.49-3.16s-.81-1.85-1.46-2.59c-.65-.74-1.45-1.31-2.4-1.73-.95-.42-2.04-.62-3.27-.62-1.91,0-3.44,.57-4.59,1.72-1.15,1.15-2.07,2.64-2.75,4.47-.29,.72-.54,1.39-.76,2.02-.22,.63-.42,1.25-.62,1.86-.2,.61-.4,1.23-.62,1.86-.22,.63-.45,1.28-.7,1.97-.9,2.44-2.21,4.34-3.92,5.68-1.71,1.35-3.84,2.02-6.4,2.02-1.73,0-3.28-.35-4.64-1.05Z"/><path class="cls-1" d="M35.75,616.29v-8.21h-14.2c-1.84,0-3.17,.4-4,1.19-.83,.79-1.24,1.82-1.24,3.08,0,1.04,.17,1.91,.51,2.59s.87,1.28,1.59,1.78l-.16,.32c-.54-.22-1.11-.51-1.7-.89-.59-.38-1.13-.88-1.62-1.51-.49-.63-.86-1.37-1.13-2.21-.27-.85-.4-1.85-.4-3,0-.76,.12-1.48,.35-2.18,.23-.69,.58-1.31,1.03-1.84,.45-.53,.95-.97,1.51-1.31s1.12-.51,1.7-.51c3.38,0,6.6,.02,9.64,.05,3.04,.04,5.75,.05,8.13,.05v-3.94h.59l7.4,7.78v.43h-4.7v9.99l-3.29-1.67Z"/><path class="cls-1" d="M34.75,635.68c-.52-.47-.78-1.01-.78-1.62,0-.58,.1-1.04,.3-1.38,.2-.34,.42-.64,.67-.89,.25-.25,.48-.52,.67-.81,.2-.29,.3-.68,.3-1.19,0-.43-.15-.86-.46-1.27-.31-.41-.69-.8-1.16-1.16-.47-.36-1-.68-1.59-.97-.59-.29-1.16-.54-1.7-.76H15.44c-.32,.11-.58,.34-.76,.7-.18,.36-.31,.76-.38,1.21-.07,.45-.12,.92-.14,1.4-.02,.49-.06,.91-.13,1.27h-.54v-12.1h.54c.07,.83,.23,1.54,.49,2.13,.25,.59,.67,.89,1.24,.89h18.25c.29,0,.5-.03,.65-.08,.14-.05,.31-.21,.49-.46,.18-.32,.41-.7,.68-1.13s.49-.86,.67-1.3h.32l2.75,7.07v.32l-7.51-.11v.11c.43,.18,1.06,.47,1.89,.86,.83,.4,1.67,.9,2.51,1.51,.85,.61,1.57,1.35,2.19,2.21,.61,.86,.92,1.85,.92,2.97,0,.9-.27,1.67-.81,2.29-.54,.63-1.22,.95-2.05,.95s-1.45-.24-1.97-.7Z"/><path class="cls-1" d="M19.04,658.25c-.99-.5-1.9-1.19-2.73-2.05-.83-.86-1.51-1.9-2.05-3.11s-.81-2.55-.81-4.02c0-1.84,.34-3.51,1.03-5.02,.68-1.51,1.65-2.8,2.89-3.86,1.24-1.06,2.7-1.88,4.37-2.46,1.67-.58,3.45-.86,5.32-.86,1.51,0,3.01,.27,4.51,.81,1.49,.54,2.83,1.3,4.02,2.29s2.15,2.2,2.89,3.62c.74,1.42,1.11,3,1.11,4.72,0,1.4-.18,2.73-.54,3.97-.36,1.24-.91,2.32-1.65,3.24-.74,.92-1.67,1.67-2.78,2.24-1.12,.58-2.43,.92-3.94,1.03v-17.33c-.29,0-.62-.02-1-.05s-.77-.05-1.16-.05c-1.51,0-2.96,.22-4.35,.65-1.39,.43-2.61,1.06-3.67,1.89-1.06,.83-1.9,1.87-2.51,3.13-.61,1.26-.92,2.72-.92,4.37,0,1.8,.46,3.38,1.38,4.73,.92,1.35,2.04,2.24,3.38,2.67l-.11,.43c-.79-.14-1.68-.47-2.67-.97Zm18.2-6.18c.95-.92,1.43-2.15,1.43-3.7,0-1.01-.3-1.92-.89-2.73-.59-.81-1.29-1.51-2.08-2.11-.79-.59-1.59-1.05-2.4-1.38-.81-.32-1.43-.52-1.86-.59v2.21c0,.65,0,1.29,.03,1.92,.02,.63,.04,1.29,.05,1.97,.02,.68,.03,1.44,.03,2.27,0,.54,.02,1.04,.05,1.51,.04,.47,.13,.88,.27,1.24,.29,.25,.56,.44,.81,.57,.25,.13,.63,.19,1.13,.19,1.33,0,2.47-.46,3.43-1.38Z"/><path class="cls-1" d="M19.04,681.74c-.99-.5-1.9-1.19-2.73-2.05-.83-.86-1.51-1.9-2.05-3.11s-.81-2.55-.81-4.02c0-1.84,.34-3.51,1.03-5.02,.68-1.51,1.65-2.8,2.89-3.86,1.24-1.06,2.7-1.88,4.37-2.46,1.67-.58,3.45-.86,5.32-.86,1.51,0,3.01,.27,4.51,.81,1.49,.54,2.83,1.3,4.02,2.29s2.15,2.2,2.89,3.62c.74,1.42,1.11,3,1.11,4.72,0,1.4-.18,2.73-.54,3.97-.36,1.24-.91,2.32-1.65,3.24-.74,.92-1.67,1.67-2.78,2.24-1.12,.58-2.43,.92-3.94,1.03v-17.33c-.29,0-.62-.02-1-.05s-.77-.05-1.16-.05c-1.51,0-2.96,.22-4.35,.65-1.39,.43-2.61,1.06-3.67,1.89-1.06,.83-1.9,1.87-2.51,3.13-.61,1.26-.92,2.72-.92,4.37,0,1.8,.46,3.38,1.38,4.73,.92,1.35,2.04,2.24,3.38,2.67l-.11,.43c-.79-.14-1.68-.47-2.67-.97Zm18.2-6.18c.95-.92,1.43-2.15,1.43-3.7,0-1.01-.3-1.92-.89-2.73-.59-.81-1.29-1.51-2.08-2.11-.79-.59-1.59-1.05-2.4-1.38-.81-.32-1.43-.52-1.86-.59v2.21c0,.65,0,1.29,.03,1.92,.02,.63,.04,1.29,.05,1.97,.02,.68,.03,1.44,.03,2.27,0,.54,.02,1.04,.05,1.51,.04,.47,.13,.88,.27,1.24,.29,.25,.56,.44,.81,.57,.25,.13,.63,.19,1.13,.19,1.33,0,2.47-.46,3.43-1.38Z"/><path class="cls-1" d="M35.75,700.05v-8.21h-14.2c-1.84,0-3.17,.4-4,1.19-.83,.79-1.24,1.82-1.24,3.08,0,1.04,.17,1.91,.51,2.59s.87,1.28,1.59,1.78l-.16,.32c-.54-.22-1.11-.51-1.7-.89-.59-.38-1.13-.88-1.62-1.51-.49-.63-.86-1.37-1.13-2.21-.27-.85-.4-1.85-.4-3,0-.76,.12-1.48,.35-2.18,.23-.69,.58-1.31,1.03-1.84,.45-.53,.95-.97,1.51-1.31s1.12-.51,1.7-.51c3.38,0,6.6,.02,9.64,.05,3.04,.04,5.75,.05,8.13,.05v-3.94h.59l7.4,7.78v.43h-4.7v9.99l-3.29-1.67Z"/></g></g></svg>