<?xml version="1.0" encoding="UTF-8"?><svg id="_層_2" xmlns="http://www.w3.org/2000/svg" viewBox="0 0 690.11 40.57"><defs><style>.cls-1{fill:#956134;}</style></defs><g id="_層_1-2"><g><path class="cls-1" d="M16.17,2.42c.5,.18,.79,.4,.79,.66,0,.22-.33,.57-.96,1.01-1.76,3.43-3.97,7.08-6.73,11.05,5.56-.44,11.03-.97,16.38-1.63-1.25-1.85-2.59-3.52-3.93-5.11l2.76-2.42c3.13,3.26,6.23,7.39,9.32,12.41l-3.59,2.55c-.75-1.41-1.55-2.77-2.34-4.09-5.77,.79-14.29,1.8-25.58,3.08-.29,.57-.58,.84-.84,.84-.29,0-.46-.22-.5-.7l-.96-4.27c1.63-.09,3.26-.18,4.85-.31,1.34-2.02,2.42-3.87,3.34-5.54,1.67-3.08,3.09-6.12,4.22-9.11l3.76,1.58Zm12.08,19.58v18.22h-3.76v-2.42H8.99v2.42h-3.76V22H28.25Zm-3.76,12.19v-8.41H8.99v8.41h15.5Z"/><path class="cls-1" d="M56.18,9.11V.48l3.68,.31c.67,.09,1.04,.26,1.04,.57,0,.22-.29,.57-.84,1.01v6.73h12.91V28.69h-3.93v-2.6h-8.99v14.13h-3.89v-14.13h-8.82v2.6h-3.93V9.11h12.75Zm0,13.2V12.89h-8.82v9.42h8.82Zm3.89,0h8.99V12.89h-8.99v9.42Z"/><path class="cls-1" d="M102.95,1.85c.46,.18,.71,.44,.71,.7s-.38,.53-1.13,.7c-.08,.09-.12,.13-.12,.13,3.01,2.55,5.81,4.4,8.36,5.54,2.09,1.1,4.89,2.11,8.44,3.08l-2.63,3.78c-3.64-1.41-6.81-2.95-9.53-4.71-2.34-1.5-4.64-3.43-6.9-5.76-1.92,1.63-3.8,3.08-5.56,4.4-2.22,1.63-5.6,3.52-10.16,5.72l-3.3-3.08c3.84-1.41,7.23-3.08,10.16-5.02,2.76-1.76,5.52-4.05,8.32-6.87l3.34,1.36Zm7.06,16.19l1.92,1.32c.25,.18,.38,.4,.38,.57,0,.35-.29,.7-.79,1.01l-5.85,5.33h7.48v13.95h-3.76v-1.89h-18.26v1.89h-3.76v-13.95h13.71l4.47-4.8h-17.39v-3.43h19.94l.96-.35c.33,0,.67,.13,.96,.35Zm-.63,16.85v-5.19h-18.26v5.19h18.26Zm-1.96-23.24v3.3h-14.67v-3.3h14.67Z"/><path class="cls-1" d="M145.08,1.32c.46,.22,.71,.48,.71,.75s-.38,.48-1.13,.66c-.17,.18-.33,.35-.46,.53,2.38,2.9,4.68,4.93,6.94,6.16,2.59,1.85,5.89,3.3,9.99,4.31l-3.09,4.14c-4.43-2.07-7.69-3.96-9.78-5.72-2.13-1.67-4.18-3.87-6.14-6.6-1.88,2.02-3.72,3.92-5.52,5.59-2.3,2.11-5.77,4.58-10.36,7.44l-3.3-3.12c3.93-1.85,7.36-4,10.32-6.51,2.8-2.33,5.64-5.32,8.48-8.93l3.34,1.32Zm5.77,13.47v3.61h-7.02v4.62h11.79v3.43h-11.79v9.46h5.68l-2.72-1.36c1.67-1.85,3.05-4.09,4.05-6.73l3.05,1.5c.25,.13,.38,.26,.38,.4,0,.26-.13,.53-.29,.7-1.13,2.2-2.3,4-3.47,5.5h8.36v3.61h-33.98v-3.61h8.86c-1.17-2.11-2.42-4.22-3.8-6.34l3.26-1.76c1.42,2.29,2.67,4.53,3.76,6.73l-2.09,1.36h5.06v-9.46h-11.95v-3.43h11.95v-4.62h-7.19v-3.61h18.1Z"/><path class="cls-1" d="M196.92,18.88v11.35h-11.58v1.89h13.21v2.77h-13.21v1.89h17.14v2.9h-37.41v-2.9h16.68v-1.89h-13.08v-2.77h13.08v-1.89h-11.45v-11.35h26.62Zm5.06-4.44v2.73h-36.4v-2.73h36.4Zm-5.56-12.89V12.72h-25.62V1.54h25.62Zm-14.67,21.83v-1.89h-7.86v1.89h7.86Zm0,2.42h-7.86v1.89h7.86v-1.89Zm11.08-19.98v-1.72h-18.43v1.72h18.43Zm0,2.42h-18.43v1.89h18.43v-1.89Zm-7.48,15.14h7.98v-1.89h-7.98v1.89Zm7.98,2.42h-7.98v1.89h7.98v-1.89Z"/><path class="cls-1" d="M244.11,16.68v3.26h-18.77v20.29h-3.43v-3.52c-3.26,.53-7.77,1.19-13.58,1.98-.25,.31-.54,.48-.79,.48s-.38-.18-.38-.53l-.79-3.43c1.5-.09,2.97-.18,4.43-.31v-14.96h-3.93v-3.26h37.24ZM238.21,.48V14.61h-24.66V.48h24.66Zm-16.3,19.45h-7.69v2.73h7.69v-2.73Zm0,5.5h-7.69v3.08h7.69v-3.08Zm0,5.85h-7.69v3.3c2.59-.22,5.18-.53,7.69-.88v-2.42Zm12.71-25.3V3.61h-17.47v2.38h17.47Zm0,2.77h-17.47v2.73h17.47v-2.73Zm5.81,13.25c.33-.22,.63-.35,.88-.35l.5,.35,1.38,1.76c.17,.35,.25,.62,.25,.79,0,.26-.38,.62-1.13,1.06-1.34,3.26-2.63,5.63-3.85,7.04-.33,.48-.71,.92-1.04,1.28,.17,.13,.29,.22,.42,.31,1.25,.97,3.43,1.76,6.44,2.38l-2.47,3.43c-2.76-.97-4.93-2.07-6.56-3.34-.17-.09-.25-.18-.33-.26-1.42,1.14-3.38,2.42-5.85,3.79l-2.42-2.77c2.51-1.28,4.43-2.51,5.85-3.65-.42-.53-.84-1.14-1.17-1.76-1.09-1.76-2.05-4.09-2.8-6.95h-1.55v-3.08h13.46Zm-6.31,8.54c.25,.35,.5,.7,.75,1.01,.67-.75,1.34-1.58,1.92-2.51,.63-1.06,1.3-2.38,2.05-3.96h-7.1c.63,2.2,1.42,4,2.38,5.46Z"/><path class="cls-1" d="M268.94,.44c.63,.09,.96,.26,.96,.57,0,.22-.25,.57-.67,1.06v1.54h16.17v3.43h-36.24V3.61h16.34V.18l3.43,.26Zm15,20.86v14.79c0,1.85-.84,3.08-2.51,3.61-1.3,.44-2.59,.7-3.85,.7l-1.5-3.79,3.01-.09c.84-.09,1.25-.57,1.25-1.63v-10.17h-26.12v15.49h-3.59V21.3h33.31Zm-5.22-11.84v9.59h-22.86V9.46h22.86Zm-2.93,17.51v9.11h-17.3v-9.11h17.3Zm-.67-14.26h-15.67v3.08h15.67v-3.08Zm-2.76,17.34h-10.45v2.95h10.45v-2.95Z"/><path class="cls-1" d="M302.63,2.25c.38,.09,.58,.26,.58,.48,0,.31-.25,.62-.67,.88l-2.22,3.61h6.81v31.46h-3.59v-2.77h-8.82v2.91h-3.59V7.22h5.39l2.93-5.85,3.18,.88Zm.92,16.99V10.65h-8.82v8.58h8.82Zm0,13.25v-9.81h-8.82v9.81h8.82Zm13.54-30.58c.42,.13,.67,.31,.67,.48s-.13,.35-.33,.53c-.33,.18-.88,1.41-1.63,3.78-.08,.22-.17,.4-.21,.53h11.62c0,12.85-.33,20.9-1,24.25-.42,3.26-1.3,5.41-2.63,6.65-1.42,1.28-3.89,1.94-7.31,1.94l-1.8-3.96c3.72,0,5.93-.35,6.64-1.14,.67-.57,1.17-1.98,1.59-4.27,.54-2.46,.84-9.11,.92-20.02h-9.36c-1,2.29-2.05,4.44-3.22,6.51l-3.59-2.07c2.59-3.96,4.72-8.8,6.39-14.43l3.26,1.23Zm3.26,23.9l-2.93,2.73c-2.3-2.86-4.51-5.15-6.69-6.87l2.59-2.6c2.42,1.85,4.76,4.09,7.02,6.73Z"/><path class="cls-1" d="M338.66,8.93V.31l3.3,.31c.58,.09,.92,.26,.92,.57,0,.18-.25,.48-.67,.88v6.87h4.93v3.61h-4.93v1.32c1.59,3.7,3.47,6.78,5.73,9.15l-2.42,2.77c-1.21-1.76-2.3-3.65-3.3-5.76v18.66h-3.55V20.64c-.12,.35-.25,.7-.33,1.06-1,3.17-2.17,6.07-3.43,8.71l-3.59-2.6c1.63-2.33,3.05-4.88,4.3-7.61,.75-1.72,1.71-4.27,2.8-7.66h-6.14v-3.61h6.39Zm14.34,3.26h12.54c.58-.44,.92-.7,1.04-.7,.25,0,.54,.18,.83,.44l2.01,2.02c.25,.26,.42,.53,.42,.84,0,.26-.46,.62-1.34,1.01-1.46,6.87-3.09,11.84-4.85,15.01,1.75,2.11,4.05,4.22,6.81,6.29l-2.93,3.3c-2.47-2.11-4.51-4.14-6.19-6.25-2.09,2.51-4.76,4.58-8.02,6.25l-2.59-3.61c2.21-.84,4.01-1.8,5.39-2.86,1.13-.88,2.13-1.85,2.97-2.95-.5-.75-.92-1.5-1.25-2.24-1.63-3.08-2.8-7.39-3.47-12.94h-1.46c-.17,4.05-.54,7.79-1.21,11.13-.63,3.3-1.88,7.44-3.76,12.41l-3.59-1.89c1.8-4.31,3.05-8.1,3.72-11.44,.88-4.75,1.34-9.42,1.34-13.99V2.55h17.97v3.78h-14.38v5.85Zm7.94,14.65c.08,.18,.21,.35,.29,.53,0-.04,.04-.09,.04-.09,1.17-2.46,2.26-6.29,3.26-11.49h-6.9c.58,4.67,1.71,8.36,3.3,11.05Z"/><path class="cls-1" d="M378.17,11.49V.66l3.43,.31c.63,.09,.96,.26,.96,.57,0,.22-.21,.57-.63,1.01V11.49h4.55v3.61h-4.55v11.57c1.67-.4,3.38-.88,5.06-1.41v3.61c-2.47,.92-6.35,2.11-11.62,3.61-.25,.57-.54,.84-.79,.84-.29,0-.46-.22-.5-.7l-.96-4.27c1.67-.22,3.39-.48,5.06-.84V15.09h-4.6v-3.61h4.6Zm22.4-10.08c.42,.09,.63,.26,.63,.48,0,.26-.25,.57-.67,.84l-1.8,2.42h9.49V22.49h-12.04c-.25,3.26-.79,5.9-1.55,7.92-.96,2.38-2.09,4.31-3.39,5.76-1.34,1.45-3.13,2.82-5.43,4.05l-3.43-2.95c2.51-.97,4.35-2.07,5.52-3.34,1.34-1.28,2.42-2.86,3.22-4.75,.75-1.76,1.21-3.96,1.46-6.69h-4.81V5.15h7.06l2.59-4.67,3.13,.92Zm-4.43,10.96v-3.96h-4.76v3.96h4.76Zm0,2.9h-4.76v3.96h4.76v-3.96Zm4.93,8.49c.5,.09,.75,.26,.75,.62s-.25,.75-.71,1.1c-.42,.26-.58,.7-.58,1.32v3.57c.33,0,.63,0,.92-.04,.38-.97,.71-1.89,.96-2.73,.5-1.5,.88-2.95,1.21-4.4l2.67,1.06c.38,.18,.58,.31,.58,.48s-.21,.48-.63,.88c-.5,1.41-1.09,2.86-1.8,4.44,.92-.09,1.8-.22,2.63-.4-.42-.7-.79-1.36-1.17-1.98l1.8-1.72c1.04,1.58,2.09,3.43,3.09,5.63l-1.96,1.89c-.25-.53-.46-1.01-.63-1.45l-7.65,1.72c0,.88,.17,1.5,.42,1.94,.29,.53,.96,.75,2.01,.75h3.09c.79,0,1.42-.13,1.84-.4,.42-.26,.79-.97,1.09-2.2l3.26,1.54c-.5,1.85-1.04,3.04-1.71,3.56-.63,.48-1.34,.75-2.17,.75h-6.73c-1.5,0-2.67-.53-3.51-1.54-.71-.97-1.04-2.33-1.04-4.14v-10.83l3.97,.57Zm-1.5-11.4h5.06v-3.96h-5.06v3.96Zm5.06,2.9h-5.06v3.96h5.06v-3.96Z"/><path class="cls-1" d="M460.22,9.11V.48l3.68,.31c.67,.09,1.04,.26,1.04,.57,0,.22-.29,.57-.84,1.01v6.73h12.91V28.69h-3.93v-2.6h-8.99v14.13h-3.89v-14.13h-8.82v2.6h-3.93V9.11h12.75Zm0,13.2V12.89h-8.82v9.42h8.82Zm3.89,0h8.99V12.89h-8.99v9.42Z"/><path class="cls-1" d="M494.83,16.68l-1.84,1.19h7.31l-2.21-1.06,3.26-7.04,2.8,1.5c.42,.22,.63,.4,.63,.57,0,.4-.29,.75-.79,1.06l-2.76,4.97h5.68v3.43h-21.9v-3.43h6.52c-1.17-2.11-2.38-4.27-3.72-6.38l3.26-1.72c1.42,2.38,2.67,4.67,3.76,6.91Zm3.09-15.71c.67,.09,1,.26,1,.57,0,.22-.25,.57-.67,1.01v3.26h7.52v3.48h-19.6v-3.48h8.32V.66l3.43,.31Zm6.52,23.41v15.49h-3.59v-2.42h-9.61v2.42h-3.59v-15.49h16.8Zm-3.59,9.64v-6.21h-9.61v6.21h9.61Zm21.73-29.4l-4.43,12.06c3.18,3.74,4.76,7.17,4.76,10.3,0,2.46-.83,4.44-2.51,5.94-1.63,1.45-3.72,2.16-6.31,2.16l-1.46-3.96c2.72-.31,4.51-.84,5.35-1.58,.75-.62,1.17-1.58,1.17-2.9,0-2.46-1.59-5.68-4.72-9.64l3.55-11h-5.68V40.57h-3.76V2.55h10.28c.17-.44,.33-.66,.5-.66l3.26,2.73Z"/><path class="cls-1" d="M541.68,4.49c-1.17,.53-2.3,.92-3.43,1.28v7.79h6.52v3.61h-5.43c1.5,2.99,3.3,5.46,5.43,7.39l-2.92,3.26c-1.34-1.85-2.55-3.92-3.59-6.16v18.57h-3.59V23.15c-.38,1.19-.71,2.16-1.04,2.95-.92,2.2-2.17,4.53-3.68,6.91l-3.26-3.12c1.63-1.94,3.05-4.05,4.26-6.34,.67-1.32,1.5-3.43,2.47-6.38h-5.94v-3.61h7.19V6.78c-1.46,.4-2.93,.7-4.39,.92l-2.47-3.61c2.76-.18,5.1-.53,7.02-1.1,1.75-.35,3.93-1.14,6.52-2.33l2.67,2.77c.17,.18,.25,.4,.25,.66s-.17,.35-.46,.35l-1.04-.22c-.33,0-.67,.09-1.09,.26Zm18.43-3.52c.67,.09,1,.26,1,.57,0,.22-.25,.57-.67,1.01V24.38c1.46-.44,2.88-.92,4.26-1.36v3.78l-4.26,1.28v12.15h-3.76v-11.05l-9.45,2.77c-.42,.92-.84,1.36-1.17,1.36-.25,0-.42-.22-.58-.7l-1.34-3.92c4.18-.88,8.36-1.98,12.54-3.21V.66l3.43,.31Zm-6.52,19.63l-2.59,2.6c-1.92-2.11-3.76-3.83-5.56-5.15l2.42-2.42c1.96,1.41,3.89,3.04,5.73,4.97Zm1-10.83l-2.63,2.6c-2.01-2.07-3.97-3.74-5.89-4.97l2.47-2.42c2.09,1.32,4.1,2.95,6.06,4.8Z"/><path class="cls-1" d="M580.1,3.7c-1.38,.44-2.92,.84-4.6,1.23v1.94h5.52v2.9h-5.52v2.25h5.52v2.95h-5.52v2.2h24.32v-2.2h-5.39v-2.95h5.39v-2.25h-5.39v-2.9h5.39v-2.24h-5.56V1.36h9.15v15.8h2.76v8.62h-3.59v-5.32h-29.71v5.32h-3.59v-8.62h2.63V1.19l1.71,.92c.96-.18,1.88-.35,2.8-.62,1.09-.31,2.13-.75,3.13-1.32l2.26,2.46c.25,.26,.38,.53,.38,.79s-.12,.35-.33,.35l-.92-.26c-.21,0-.5,.09-.84,.18Zm15.51,18.61l1.88,1.23c.25,.18,.38,.35,.38,.53,0,.35-.29,.66-.84,1.01l-6.27,4.8h14.92v3.43h-16.01v2.24c0,1.67-.54,2.95-1.55,3.74-.84,.84-3.01,1.28-6.44,1.28l-1.46-3.78h3.76c1.3,0,2.01-.62,2.09-1.89v-1.58h-16.47v-3.43h16.47v-2.07l2.34,.31,2.76-2.68h-13.42v-3.12h16.17l.79-.31c.33,0,.63,.13,.88,.31Zm-2.88-20.51c.25,.13,.38,.26,.38,.4,0,.35-.21,.57-.63,.7-.79,.7-1.55,1.36-2.26,1.89,.92,.7,1.84,1.36,2.76,2.07l-1.96,1.89c-1.09-.88-2.09-1.67-3.05-2.38-1.13,.7-2.38,1.45-3.8,2.2l-1.8-1.89c1.25-.62,2.34-1.28,3.3-1.94-1.09-.66-2.13-1.28-3.13-1.85l1.75-1.72c1.17,.62,2.38,1.32,3.55,2.02,.92-.7,1.8-1.58,2.67-2.55l2.21,1.14Zm.17,8.45c.25,.09,.38,.22,.38,.4,0,.31-.21,.53-.63,.66-.79,.71-1.55,1.32-2.21,1.85,.79,.62,1.59,1.28,2.38,1.94l-1.96,1.89c-.92-.79-1.75-1.54-2.59-2.25-1.09,.7-2.42,1.45-3.97,2.25l-1.75-1.89c1.34-.66,2.55-1.36,3.55-2.07-1.17-.79-2.34-1.54-3.43-2.2l1.8-1.72c1.25,.75,2.51,1.54,3.72,2.38,.84-.7,1.67-1.5,2.51-2.38l2.21,1.14Z"/><path class="cls-1" d="M647.14,1.89V40.05h-3.43v-1.23h-28.21v1.23h-3.43V1.89h35.07Zm-3.43,33.49V5.33h-28.21v30.06h28.21Zm-4.72-18.7v7.22h-6.77c.75,1.32,1.63,2.46,2.63,3.39,1.67-.97,3.09-1.94,4.3-2.9l2.09,2.24c.13,.18,.21,.35,.21,.53,0,.26-.33,.35-1,.35-1.04,.53-2.09,1.06-3.18,1.58,1.46,.88,3.38,1.76,5.81,2.68l-3.26,2.77c-3.38-1.8-5.77-3.57-7.15-5.24-1.25-1.41-2.3-3.21-3.18-5.41h-.79c-.67,.7-1.34,1.36-1.96,1.89v4.88c2.01-.35,3.8-.7,5.39-1.1l.33,2.73c-3.51,.97-6.65,1.72-9.49,2.25-.21,.35-.38,.53-.46,.53-.21,0-.38-.18-.54-.53l-1.59-2.95c1.17-.13,2.26-.26,3.26-.44v-3.08c-1.42,.88-3.05,1.58-4.89,2.16l-2.63-2.73c2.51-.66,4.72-1.45,6.56-2.38,.67-.31,1.42-.7,2.17-1.23h-4.64v-7.22h18.77Zm-11.24-8.62v-2.07l3.18,.26c.59,.04,.88,.18,.88,.44,0,.22-.21,.57-.63,1.01v.35h8.65v2.77h-8.65v1.54h10.57v2.9h-24.62v-2.9h10.62v-1.54h-8.53v-2.77h8.53Zm7.98,11.35h-12.25v1.72h12.25v-1.72Z"/><path class="cls-1" d="M689.11,5.5h-30.84v29.7h31.85v3.61h-31.85v1.58h-3.76V1.89h34.61v3.61Zm-16.3,15.45v12.23h-11.62v-12.23h11.62Zm-3.43,3.26h-4.76v5.68h4.76v-5.68Zm13.71-16.5v11.18h-17.97V7.7h17.97Zm-3.43,3.3h-11.12v4.62h11.12v-4.62Zm7.82,9.95v12.23h-11.74v-12.23h11.74Zm-3.43,3.26h-4.89v5.68h4.89v-5.68Z"/></g></g></svg>