<?xml version="1.0" encoding="UTF-8"?><svg id="_層_2" xmlns="http://www.w3.org/2000/svg" viewBox="0 0 47.5 442.8"><defs><style>.cls-1{fill:#231815;}</style></defs><g id="_層_1-2"><g><path class="cls-1" d="M8.77,30.02v4H4.05V10.26H20.98V0h4.92V10.26h17.08v23.44h-4.72v-3.67h-12.36v20.47h-4.92V30.02H8.77ZM20.98,12.96H8.77v14.47h12.21V12.96Zm17.29,0h-12.36v14.47h12.36V12.96Z"/><path class="cls-1" d="M14.06,77.54v26.89h-4.41v-23.49c-1.9,4.64-4.46,9.18-8.21,13.45l-1.28-1.24c3.95-5.99,6.87-14.04,8.62-21.92H1.08v-2.43H9.64v-7.83c-2.82,.54-5.59,.92-7.95,1.13l-.36-1.84c5.75-1.4,11.13-3.24,16.36-6.75l3.64,4.21c-2.15,.86-4.67,1.62-7.28,2.27v8.8h7.28v2.43h-7.28v3.19c2.72,2.05,6.26,5.18,7.95,7.24l-3.64,3.56c-1.03-2.11-2.72-5.02-4.31-7.67Zm25.44,9.13v17.23h-4.51v-16.15c-5.49,1.3-11.03,2.59-16.52,3.78l-.77-2.43c5.75-1.24,11.54-2.54,17.29-3.89v-30.94h4.51v29.86c2.1-.54,4.26-1.03,6.36-1.57l.62,2.38c-2.31,.59-4.67,1.19-6.98,1.73Zm-16.98-14.15c3.64,2.27,6.46,4.54,9.44,8.05l-3.9,3.62c-2.1-3.89-4.26-6.75-6.82-10.26l1.28-1.4Zm6.72-2.54c-2.41-3.56-4.46-6.21-7.18-9.4l1.13-1.46c3.54,2,6.52,4.05,9.54,7.24l-3.49,3.62Z"/><path class="cls-1" d="M3.74,157.9v-47.63H21.44v19.66H8.36v27.97H3.74Zm4.62-39.26h8.57v-5.94H8.36v5.94Zm8.57,2.43H8.36v6.48h8.57v-6.48Zm22.16,29.16v-20.3h-12.98v-19.66h17.6v41.26c0,6.64-5.39,8.86-14.57,2.21l.67-1.89c7.44,2.27,9.29,2,9.29-1.62Zm-8.46-31.59h8.46v-5.94h-8.46v5.94Zm8.46,2.43h-8.46v6.48h8.46v-6.48Z"/><path class="cls-1" d="M42.42,175.88v17.44h-4.72v-3.08l-25.03,.05c-1.08,11.77-4.62,17.82-8.93,22.36l-1.44-1.24c3.69-6.1,5.85-11.93,5.85-27.38v-17.23l4.77,1.24c9.64-.86,18.78-2.92,24.01-5.89l5.08,4.43c-7.49,2.16-19.14,3.4-29.04,3.29v5.99h29.45Zm-4.72,11.88v-9.4H12.98v4.32c0,1.84-.05,3.51-.15,5.13l24.88-.05Z"/><path class="cls-1" d="M11.7,251.26v29.21H7.39v-24.14c-1.54,4.37-3.8,9.34-5.95,12.37l-1.44-1.24c2.46-5.13,5.44-14.8,6.82-23.54H.97v-2.43H7.39v-11.23h4.31v11.23h5.95v2.48h-5.95v3.46c1.8,2.16,3.69,4.7,5.13,7.45v-4.97h10.05v15.28h-6.46v2.48h-3.59v-10.64l-2.82,1.57c-.67-2.38-1.54-5.02-2.31-7.34Zm1.59,24.84H45.96v2.43H13.29v-2.43Zm10.82-40.12H14.88v-2.43h30.73v2.43H28.83c-.56,1.89-1.39,4.27-2.31,6.53h6.77c-.05,14.58-.51,22.79-1.13,27.27-.72,5.24-5.44,6.64-12.72,1.57l.51-1.89c6.46,1.67,7.8,1.35,8.16-1.57,.41-3.51,.77-11.72,.87-22.95h-3.44c-.46,1.13-.92,2.21-1.39,3.13l-4.26-.92c1.23-2.48,3.13-7.51,4.21-11.18Zm-3.69,16.2v10.75h2.77v-10.75h-2.77Zm17.39,9.5c-1.44-2.75-2.98-5.4-4.51-7.99l1.33-1.08c1.44,1.51,2.92,3.19,4.31,4.91,.56-2.48,1.03-5.24,1.23-8.26h-6.1v-2.32h5.85l.92-1.03,4,1.24c-.36,5.4-1.39,10.15-2.98,14.2,1.9,2.81,3.59,5.67,4.67,8.42l-4.16,2.43c-.72-2.16-1.59-4.32-2.56-6.43-1.9,3.46-4.26,6.26-6.93,8.32l-1.13-1.57c1.74-1.73,4.21-5.29,6.05-10.85Z"/><path class="cls-1" d="M26.01,323.89c-5.64,3.02-17.8,7.45-23.96,8.37l-1.44-5.78c2.92-.11,6.31-.49,9.7-1.03v-9.13H1.64l-.1-2.43H10.31v-6.8h4.62v6.8h9.34v2.43H14.93v8.32c4.21-.76,8-1.73,10.57-2.48l.51,1.73Zm21.49,4.81l-3.39,5.51c-4.46-2.32-8-5.4-10.57-9.5-3.64,4.05-8.82,7.56-16.31,9.99l-.77-1.67c7.39-3.29,12.11-7.13,15.18-11.83-2.1-4.59-3.28-10.21-3.54-16.9-1.33,2.75-2.92,5.29-4.87,7.4l-1.39-1.13c.92-1.57,1.74-3.35,2.41-5.18l-3.9,1.94c-.26-1.35-.77-3.08-1.44-4.91-6,2.48-12.06,4.16-16.36,4.97l-1.23-5.4c1.33,0,2.67,0,4.05-.11,1.85-3.89,3.23-7.83,3.9-11.72H1.33v-2.43H25.24v2.43H14.67c-1.59,4.16-3.9,7.78-6.82,11.56,3.44-.27,6.98-.76,10.36-1.3-.62-1.57-1.23-3.02-1.8-4.21l1.38-.92c2.46,2.48,4.92,5.67,6.67,9.45,2.1-5.94,3.03-13.18,3.39-20.63l5.13,.76c-.31,3.46-.87,7.07-1.8,10.64h14.88v2.43h-4.21c-.26,7.61-1.08,16.04-5.59,23.22,2.56,3.02,6.21,5.45,11.23,7.56Zm-13.8-11.29c2.31-5.4,3.08-11.77,3.33-19.49h-6.52c-.21,.65-.41,1.35-.67,2,.36,7.18,1.33,12.85,3.85,17.5Z"/><path class="cls-1" d="M47.09,380.7l-1.28,5.45c-5.49,.49-16.31,.65-20.98,.38-7.85-.49-10.77-1.67-14.42-7.94-1.85,3.46-4.67,7.18-7.34,10.04l-2.92-3.19c2.67-2.11,6.26-5.08,7.75-7.51v-12.15H.67v-2.48H12.41v14.2c3.03,4.43,5.95,4.54,12.67,4.7,6.67,.16,16.11-.65,22.01-1.51Zm-38.12-21.06c-1.69-2.38-4.82-6.21-6.98-8.59l1.03-1.62c2.56,1.35,6.52,3.67,9.29,6.21l-3.33,4Zm-5.33-19.93l.97-1.62c2.51,1.19,6.82,3.51,9.44,5.94l-3.28,3.94c-2-2.75-4.57-5.72-7.13-8.26Zm22.11,23.17h-8.57v-11.99h10.36v-4.27H15.49v-2.43h12.06v-5.89h4.51v5.89h12.77v2.43h-12.77v4.27h10.62v11.99h-10.62v1.51c3.9,1.73,9.49,4.75,13.18,7.88l-3.28,4.48c-2.98-3.62-7.03-7.29-9.9-9.67v12.91h-4.51v-12.91c-2.98,4.16-7.49,8.05-12.41,10.69l-1.03-1.73c5.03-3.94,8.41-7.4,11.65-13.18Zm-4.16-2.43h5.95v-7.13h-5.95v7.13Zm10.47,0h6.21v-7.13h-6.21v7.13Z"/><path class="cls-1" d="M9.7,409.86c0,19.49-2.56,26.89-7.75,32.94l-1.44-1.24c3.44-5.99,4.36-12.53,4.36-30.62v-12.85H25.96c-2.67-1.78-5.33-3.24-7.85-4.54l.46-1.94c3.64,.49,8,1.51,11.59,3.19l-1.54,3.29h15.95v2.43H9.7v6.16h7.9v-4.86h4.31v4.86h10v-4.86h4.31v4.86h8.31v2.43h-8.31v8.48H17.6v-8.48h-7.9v.76Zm32.73,31.91c-5.03-1.19-10.16-2.7-14.72-5.62-5.23,2.97-11.65,4.81-19.19,5.72l-.51-1.84c7.03-1.46,12.41-3.62,16.57-6.26-3.03-2.59-5.64-6.1-7.7-10.91h-4.46v-2.43h22.32l1.23-.81,4.67,2.54c-2.31,4.7-5.28,8.42-9.03,11.34,4.05,1.51,8.57,2.21,13.7,2.86l-2.87,5.4Zm-14.83-10.15c3.13-2.59,5.34-5.51,6.93-8.75h-15.6c2.56,4.05,5.44,6.8,8.67,8.75Zm-5.69-16.47h10v-6.05h-10v6.05Z"/></g></g></svg>