<?xml version="1.0" encoding="UTF-8"?><svg id="_層_2" xmlns="http://www.w3.org/2000/svg" viewBox="0 0 694.17 40.88"><defs><style>.cls-1{fill:#956134;}</style></defs><g id="_層_1-2"><g><path class="cls-1" d="M17.47,4.27V.18l3.68,.26c.67,.09,1.04,.26,1.04,.57,0,.26-.29,.62-.84,1.06v2.2h15.67v3.61h-15.67v2.95h11.28V27.68h-9.53c2.09,1.72,4.18,3.08,6.31,4.05,2.26,1.14,5.47,2.24,9.57,3.34l-3.89,3.78c-3.43-1.41-6.1-2.73-8.02-4.14-2.01-1.28-3.93-2.86-5.73-4.8v9.07h-3.89v-8.89c-2.01,2.02-4.01,3.7-5.98,4.97-2.3,1.41-5.06,2.68-8.23,3.78l-3.26-3.48c3.89-1.1,7.27-2.42,10.16-3.96,1.67-.88,3.43-2.11,5.35-3.74H6.52V10.83h10.95v-2.95H1.8v-3.61h15.67Zm0,13.42v-3.43h-7.19v3.43h7.19Zm0,3.26h-7.19v3.3h7.19v-3.3Zm3.89-3.26h7.52v-3.43h-7.52v3.43Zm7.52,3.26h-7.52v3.3h7.52v-3.3Z"/><path class="cls-1" d="M51.25,17.51l-2.42,2.77c-2.01-1.76-4.22-3.39-6.56-4.84l2.63-2.73c2.51,1.5,4.6,3.12,6.35,4.8Zm.84,10.17c-1.84,3.87-3.8,7.48-5.89,10.83,0,.88-.29,1.36-.79,1.36l-3.13-2.73c2.76-3.7,5.27-7.83,7.52-12.41l2.3,2.95Zm.63-21.17l-2.42,2.77c-1.88-1.76-3.89-3.39-6.06-4.84l2.63-2.73c2.3,1.5,4.26,3.12,5.85,4.8ZM62.74,1.23c.5,.09,.75,.26,.75,.48,0,.35-.38,.62-1.13,.84-.42,.84-.84,1.63-1.25,2.42h18.05v3.43h-20.1c-1.5,2.29-3.18,4.53-5.02,6.73l-3.26-1.76c3.8-4.05,6.65-8.41,8.48-13.03l3.47,.88Zm14.63,10.61c0,3.7-.04,6.91-.08,9.64h3.51v3.43h-3.59c-.13,2.9-.25,5.06-.42,6.56h2.55v3.43h-3.09c-.42,1.76-1.04,3.04-1.88,3.83-1.17,1.1-3.18,1.67-5.98,1.67l-1.8-3.96c2.93,0,4.64-.31,5.22-.97,.12-.13,.25-.31,.42-.57h-15.17c-.04,.18-.08,.26-.08,.35h-3.59c.84-3.3,1.63-6.73,2.34-10.34h-3.8v-3.43h4.43c.5-3.12,1-6.34,1.42-9.64h19.6Zm-9.53,19.63c-1.75-1.36-3.64-2.64-5.64-3.78l2.3-2.42c2.3,1.32,4.26,2.68,5.85,4.14l-1.84,2.07h4.64c.17-1.23,.33-3.43,.46-6.56h-14.29c-.46,2.29-.92,4.49-1.38,6.56h9.91Zm.58-9.99c-1.63-1.28-3.38-2.42-5.27-3.43l2.3-2.42c2.17,1.23,4.05,2.46,5.56,3.79l-1.84,2.07h4.51c0-1.85,.04-3.92,.08-6.21h-12.87c-.33,2.16-.63,4.22-.96,6.21h8.48Z"/><path class="cls-1" d="M101.32,12.19c0-.35,.04-.66,.04-1.01V3.96c0-.88-.13-1.98-.29-3.3l4.14,.35c.71,.04,1.09,.22,1.09,.53,0,.48-.33,.92-1,1.36V11.18c0,.35-.04,.7-.04,1.01h15.71v3.78h-15.63c1.5,5.06,3.55,9.07,6.14,12.01,2.38,3.17,6.02,5.85,10.95,8.1l-3.43,4.14c-4.22-2.33-7.77-5.5-10.62-9.59-1.67-2.33-3.18-5.19-4.43-8.63-.33,1.14-.67,2.16-1.04,3.12-1.29,3.12-3.64,6.16-7.02,9.07-2.47,2.2-5.35,4.18-8.69,6.03l-3.43-3.26c3.47-1.76,6.19-3.39,8.15-4.97,3.13-2.38,5.31-4.8,6.56-7.26,1.3-2.55,2.17-5.5,2.59-8.76h-15.84v-3.78h16.09Z"/><path class="cls-1" d="M137.19,3.87c-1.38,.44-2.93,.84-4.6,1.23v1.94h5.52v2.9h-5.52v2.25h5.52v2.95h-5.52v2.2h24.32v-2.2h-5.39v-2.95h5.39v-2.25h-5.39v-2.9h5.39v-2.24h-5.56V1.54h9.15v15.8h2.76v8.62h-3.59v-5.32h-29.72v5.32h-3.59v-8.62h2.63V1.36l1.71,.92c.96-.18,1.88-.35,2.8-.62,1.09-.31,2.13-.75,3.13-1.32l2.26,2.46c.25,.26,.38,.53,.38,.79s-.13,.35-.33,.35l-.92-.26c-.21,0-.5,.09-.84,.18Zm15.51,18.61l1.88,1.23c.25,.18,.38,.35,.38,.53,0,.35-.29,.66-.84,1.01l-6.27,4.8h14.92v3.43h-16.01v2.24c0,1.67-.54,2.95-1.55,3.74-.84,.84-3.01,1.28-6.44,1.28l-1.46-3.78h3.76c1.3,0,2.01-.62,2.09-1.89v-1.58h-16.47v-3.43h16.47v-2.07l2.34,.31,2.76-2.68h-13.42v-3.12h16.17l.79-.31c.33,0,.63,.13,.88,.31Zm-2.88-20.51c.25,.13,.38,.26,.38,.4,0,.35-.21,.57-.63,.7-.79,.7-1.55,1.36-2.26,1.89,.92,.7,1.84,1.36,2.76,2.07l-1.96,1.89c-1.09-.88-2.09-1.67-3.05-2.38-1.13,.7-2.38,1.45-3.8,2.2l-1.8-1.89c1.25-.62,2.34-1.28,3.3-1.94-1.09-.66-2.13-1.28-3.13-1.85l1.76-1.72c1.17,.62,2.38,1.32,3.55,2.02,.92-.7,1.8-1.58,2.67-2.55l2.22,1.14Zm.17,8.45c.25,.09,.38,.22,.38,.4,0,.31-.21,.53-.63,.66-.79,.71-1.55,1.32-2.21,1.85,.79,.62,1.59,1.28,2.38,1.94l-1.96,1.89c-.92-.79-1.76-1.54-2.59-2.25-1.09,.7-2.42,1.45-3.97,2.25l-1.76-1.89c1.34-.66,2.55-1.36,3.55-2.07-1.17-.79-2.34-1.54-3.43-2.2l1.8-1.72c1.25,.75,2.51,1.54,3.72,2.38,.84-.7,1.67-1.5,2.51-2.38l2.22,1.14Z"/><path class="cls-1" d="M233.24,17.16v3.96h-37.57v-3.96h37.57Z"/><path class="cls-1" d="M257.23,7.75h16.17v5.81h-3.59v-2.73h-12.58v2.2l10.78-.84,.33,2.95-11.12,.84v.7c0,1.5,.25,2.2,.79,2.2h7.69c.75,0,1.34-.13,1.75-.4,.33-.26,.67-1.1,1-2.51l3.47,1.01c-.42,1.85-1.09,3.08-1.96,3.61-.96,.62-2.17,.88-3.59,.88h-8.82c-2.51,0-3.76-.97-3.76-2.9v-2.33l-8.15,.62-.17-2.95,8.32-.62v-2.46h-9.95v10.12c0,3.87-.33,7.35-.96,10.43-.42,2.29-1.3,5.15-2.63,8.67l-3.59-1.89c1.25-2.9,2.13-5.5,2.59-7.75,.67-3.21,1-6.38,1-9.46V7.75h13.37V.18l3.3,.26c.63,.09,.96,.26,.96,.57,0,.22-.25,.53-.67,.88v1.19h12.58v2.6h-12.58v2.07Zm11.58,15.8v7.92c0,.57,.46,.84,1.34,.84,.5,0,.84-.13,1-.4,.17-.22,.33-1.01,.46-2.33l2.93,.48c-.21,2.29-.63,3.83-1.3,4.53-.5,.53-1.55,.79-3.09,.79-2.17-.04-3.47-.44-3.89-1.19-.38-.53-.54-1.28-.54-2.24v-5.33h-2.84c-.08,2.38-.33,4.14-.71,5.28-.42,1.28-1.09,2.55-1.96,3.83,2.42,.35,5.89,.53,10.41,.53h4.43l-1.63,3.78c-5.52,0-9.74-.22-12.66-.62-2.42-.35-4.39-.84-5.89-1.54-.75-.35-1.46-.75-2.09-1.19-1.96,1.58-4.43,2.86-7.44,3.87l-2.8-3.12c3.05-.7,5.56-1.72,7.52-3.12-.71-.79-1.42-1.85-2.09-3.26-.46,.88-.92,1.72-1.34,2.42l-3.09-2.02c1.17-1.76,2.13-3.56,2.84-5.41,.75-1.76,1.42-4.18,2.05-7.17l3.43,1.19c.33,.13,.5,.31,.5,.57,0,.13-.42,.31-1.17,.48-.17,.79-.33,1.54-.5,2.24h7.69c-.33,4.84-1.38,8.45-3.13,10.83,.79,.44,1.67,.79,2.59,1.01,.17,.09,.38,.13,.63,.18l-1.21-1.01c1-1.23,1.71-2.42,2.05-3.56,.33-.97,.54-3.39,.54-7.26h8.99Zm-16.34,8.58c1.17-1.5,1.96-3.43,2.3-5.85h-4.89c-.17,.48-.29,.92-.42,1.28,1.17,2.2,2.17,3.74,3.01,4.58Z"/><path class="cls-1" d="M291.34,7.57v3.43h-12.08v-3.43h12.08Zm-.46,17.69v7.17c2.17-.66,4.14-1.36,5.81-2.16,.5-.22,1.04-.53,1.63-.88h-6.14v-3.26h5.06v-1.76h-3.93v-2.9h3.93v-1.72h-4.89v-3.08h4.89v-1.54h-4.56V7.75h10.62v7.39h-2.63v1.54h6.85v-1.54h-2.76V7.75h10.74v7.39h-4.56v1.54h5.06v3.08h-5.06v1.72h4.26v2.9h-4.26v1.76h5.89v3.26h-11.12c.83,1.32,1.71,2.42,2.72,3.34,.17,.18,.33,.35,.5,.44,1.88-1.19,3.51-2.38,4.93-3.61l2.26,2.38c.12,.18,.21,.35,.21,.53,0,.26-.33,.35-.96,.35l-3.76,2.11c.42,.26,.84,.48,1.34,.66,1.71,.7,3.39,1.14,5.02,1.36l-2.76,3.43c-.71,0-2.09-.57-4.14-1.67-2.34-1.28-4.01-2.51-5.1-3.83-1.34-1.36-2.51-3.08-3.59-5.19-.79,.75-1.55,1.36-2.21,1.85v4.27c1.67-.26,3.3-.57,4.89-.92v2.9c-2.13,.62-5.52,1.41-10.11,2.42-.25,.35-.54,.53-.79,.53s-.42-.22-.42-.57l-.75-3.39c1.3-.13,2.55-.26,3.76-.44v-2.68c-1.21,.62-2.63,1.28-4.22,1.89l-1.63-1.5v5.63h-3.43v-1.89h-4.26v2.6h-3.43v-15.14h11.12Zm-.33-11.71v3.3h-10.62v-3.3h10.62Zm0,5.85v3.26h-10.62v-3.26h10.62Zm-.33-17.51v3.26h-10.11V1.89h10.11Zm-2.76,32.65v-5.85h-4.26v5.85h4.26ZM305.93,.79c.58,.09,.92,.26,.92,.57,0,.18-.21,.48-.63,.88v.84h10.62v3.08h-24.83V3.08h10.62V.48l3.3,.31Zm-5.94,9.86h-4.05v1.54h4.05v-1.54Zm7.52,9.11h-6.85v1.72h6.85v-1.72Zm0,4.62h-6.85v1.76h6.85v-1.76Zm4.72-13.73h-4.22v1.54h4.22v-1.54Z"/><path class="cls-1" d="M342.21,1.36c.71,0,1.09,.18,1.09,.53,0,.48-.33,.92-1,1.36v2.42c0,3.34-.21,6.38-.63,9.11,1.42,4.05,3.22,7.57,5.31,10.47,2.76,3.87,6.77,7.75,12.12,11.53l-4.72,3.08c-5.1-4.93-8.73-9.2-10.95-12.89-1.09-1.85-2.13-3.92-3.09-6.25-.17,.48-.29,.92-.42,1.28-1.25,3.65-3.59,7.22-6.98,10.65-2.42,2.55-5.27,4.88-8.61,7.04l-3.43-3.26c3.43-2.07,6.14-4.05,8.11-5.9,3.09-2.91,5.27-5.77,6.48-8.67,1.92-4.49,2.88-9.86,2.88-16.19v-1.41c0-.88-.12-1.94-.29-3.26l4.14,.35Z"/><path class="cls-1" d="M368.59,7.39V.18l3.89,.48c.42,.09,.67,.26,.67,.53,0,.31-.33,.66-.96,1.06V7.39h4.72v3.61h-4.72v8.01c1.5-.88,3.05-1.85,4.56-2.86v3.78l-4.56,2.99v12.98c0,1.67-.42,2.95-1.25,3.74-.71,.79-2.47,1.23-5.27,1.23l-1.46-3.74h2.8c.96,0,1.5-.66,1.59-1.89v-9.95l-3.09,2.02c-.42,.92-.84,1.36-1.17,1.36-.25,0-.42-.22-.58-.75l-1.34-3.87c2.09-.88,4.14-1.89,6.19-2.99V11h-5.39v-3.61h5.39Zm21.82-6.12c.33,.13,.54,.35,.54,.62,0,.18-.46,.31-1.3,.48-.12,.26-.25,.44-.33,.62,2.13,2.55,4.01,4.4,5.6,5.63,1.5,1.23,3.59,2.6,6.31,4.09l-2.76,2.9c-1.55-.97-2.84-1.85-3.93-2.73v2.07h-5.06v4.09h8.99v3.43h-8.99v3.65h7.36v14.61h-3.76v-1.41h-10.78v1.41h-3.76v-14.61h7.36v-3.65h-8.82v-3.43h8.82v-4.09h-4.72v-1.54c-1.09,.92-2.17,1.76-3.26,2.55l-3.26-2.24c2.97-1.94,5.35-3.87,7.11-5.9,1.84-1.94,3.55-4.53,5.14-7.83l3.51,1.28Zm2.67,34.81v-6.69h-10.78v6.69h10.78Zm0-24.42c-.33-.26-.58-.48-.84-.75-1.21-1.06-2.72-2.73-4.51-5.11-1,1.67-2.13,3.17-3.34,4.49-.46,.53-.92,.97-1.34,1.36h10.03Z"/><path class="cls-1" d="M441.57,3.26v3.78h-15.67c-1.09,2.9-2.17,5.33-3.3,7.31l2.72,.22c.71,.04,1.09,.22,1.09,.57,0,.26-.29,.66-.84,1.19v24.07h-4.05V16.15c-.58,.88-1.17,1.67-1.71,2.29-3.09,3.52-7.02,6.65-11.7,9.42l-3.76-2.77c5.27-2.82,9.15-5.63,11.62-8.49,2.26-2.55,4.18-5.76,5.77-9.55h-16.22V3.26h36.07Zm.33,23.54l-3.59,2.6c-2.84-5.24-6.02-9.77-9.49-13.6l2.8-2.42c3.43,3.52,6.85,7.96,10.28,13.42Z"/><path class="cls-1" d="M459.17,2.55c.33,.18,.54,.35,.54,.53,0,.44-.33,.79-1,1.06-1.67,2.38-3.26,4.27-4.68,5.68-1.34,1.36-2.97,2.86-4.93,4.44l-2.63-2.77c2.09-1.58,3.89-3.21,5.35-4.84,1.38-1.5,2.76-3.39,4.14-5.63l3.22,1.54Zm1.92,9.29c.38,.18,.58,.35,.58,.53,0,.44-.33,.79-1,1.01-1.59,2.11-3.05,3.92-4.39,5.37v21.65h-3.76V22.4c-1.09,.97-2.21,1.89-3.43,2.86l-2.63-2.77c2.55-1.85,4.72-3.74,6.48-5.68,1.67-1.72,3.3-3.87,4.97-6.51l3.18,1.54Zm22.61,7.22v3.61h-4.56v2.77h5.52v3.79h-5.52v6.51c0,2.2-.58,3.56-1.71,4.14-.84,.44-3.18,.7-6.94,.7l-1.17-3.61c3.01,0,4.76-.04,5.22-.13,.54-.13,.84-.48,.84-1.1v-6.51h-17.64v-3.79h17.64v-2.77h-14.71v-3.61h23.03Zm-15.34,16.85l-2.8,2.6c-2.17-2.38-4.26-4.27-6.35-5.68l2.59-2.6c2.26,1.58,4.47,3.48,6.56,5.68Zm14.21-33.53v14.3h-20.27V2.38h20.27Zm-3.59,5.5v-2.2h-13.08v2.2h13.08Zm0,3.12h-13.08v2.38h13.08v-2.38Z"/><path class="cls-1" d="M505.4,5.5V.66l3.43,.31c.67,.09,1,.26,1,.57,0,.22-.25,.57-.67,1.01v2.95h13.58v3.61h-13.58v5.85h16.51v3.61h-16.51v5.68h14.88v3.61h-14.88v6.69c3.26,.79,7.61,1.19,13.08,1.19,.92,0,2.38-.09,4.39-.35l-1.3,4.49c-8.19,0-14.46-.7-18.81-2.07-3.22-.97-6.48-2.73-9.74-5.41-.25,.62-.5,1.19-.75,1.63-1.25,2.38-2.8,4.49-4.64,6.38l-3.59-2.6c2.17-1.76,3.93-4.05,5.31-6.95,1.04-2.16,2.01-5.24,2.84-9.2l3.64,.92c.5,.18,.75,.35,.75,.62,0,.31-.29,.62-.79,.88-.54,1.98-1.04,3.7-1.55,5.19,2.59,1.8,5.06,3.17,7.4,4.09v-14.79h-16.47v-3.61h16.47v-5.85h-13.54v-3.61h13.54Z"/><path class="cls-1" d="M566.97,20.64v3.61h-12.25v10.47c0,1.14,.42,1.72,1.3,1.72h5.56c.75,0,1.3-.22,1.67-.7,.29-.35,.63-1.67,.96-3.96l3.76,1.23c-.42,2.9-1.09,4.75-1.92,5.63-.92,.92-2.05,1.41-3.47,1.41h-7.36c-2.84,0-4.26-1.1-4.26-3.26v-12.54h-5.48c-.33,4.22-1.21,7.35-2.67,9.37-2.01,2.77-5.39,5.02-10.11,6.78l-2.97-3.26c4.93-1.72,8.28-3.65,9.95-5.76,1.21-1.58,1.92-3.96,2.09-7.13h-11.03v-3.61h36.24Zm-16.22-19.5c.67,.09,1.04,.26,1.04,.57,0,.22-.29,.57-.83,1.01v3.12h15.34V15.27h-3.72v-5.81h-27.46v5.81h-3.72V5.85h15.67V.84l3.68,.31Zm8.57,11.93v3.43h-21.23v-3.43h21.23Z"/><path class="cls-1" d="M584.19,2.42c.38,.09,.58,.26,.58,.48,0,.31-.25,.62-.67,.88l-2.21,3.61h6.81v31.46h-3.59v-2.77h-8.82v2.91h-3.59V7.39h5.39l2.93-5.85,3.18,.88Zm.92,16.99V10.83h-8.82v8.58h8.82Zm0,13.25v-9.81h-8.82v9.81h8.82Zm13.54-30.58c.42,.13,.67,.31,.67,.48s-.12,.35-.33,.53c-.33,.18-.88,1.41-1.63,3.78-.08,.22-.17,.4-.21,.53h11.62c0,12.85-.33,20.9-1,24.25-.42,3.26-1.3,5.41-2.63,6.65-1.42,1.28-3.89,1.94-7.31,1.94l-1.8-3.96c3.72,0,5.93-.35,6.65-1.14,.67-.57,1.17-1.98,1.59-4.27,.54-2.46,.84-9.11,.92-20.02h-9.36c-1,2.29-2.05,4.44-3.22,6.51l-3.59-2.07c2.59-3.96,4.72-8.8,6.39-14.43l3.26,1.23Zm3.26,23.9l-2.93,2.73c-2.3-2.86-4.51-5.15-6.69-6.87l2.59-2.6c2.42,1.85,4.76,4.09,7.02,6.73Z"/><path class="cls-1" d="M634.65,1.32c.71,.04,1.09,.22,1.09,.57,0,.26-.29,.66-.84,1.19V31.64h10.62V9.64l3.68,.26c.67,.09,1.04,.26,1.04,.57,0,.22-.29,.57-.79,1.01v28.56h-3.93v-4.49h-26.46v4.49h-3.93V9.64l3.72,.26c.67,.09,1.04,.26,1.04,.57,0,.22-.29,.57-.84,1.01V31.64h11.74V1.01l3.85,.31Z"/><path class="cls-1" d="M659.89,11.49V.66l3.43,.31c.63,.09,.96,.26,.96,.57,0,.22-.21,.57-.63,1.01V11.49h4.05v3.65h-4.05v11.22c1.09-.26,2.17-.57,3.26-.92v3.61c-2.01,.79-5.18,1.8-9.49,3.08-.29,.62-.54,.88-.79,.88-.33,0-.5-.22-.54-.7l-.96-4.31c1.59-.18,3.18-.44,4.76-.79V15.14h-4.26v-3.65h4.26Zm12.41,4.84h8.15c0,6.6-.21,10.74-.58,12.41-.25,1.67-.71,2.82-1.46,3.43-.84,.7-2.21,1.01-4.14,1.01l-1.67-3.61c1.84,0,2.97-.18,3.34-.57,.33-.26,.58-.88,.79-1.94,.25-.97,.38-3.48,.46-7.48h-4.89v.35c0,4.18-.54,7.92-1.55,11.27-.75,2.46-2.17,5.59-4.35,9.37l-3.59-1.89c2.09-3.17,3.55-5.98,4.3-8.45,1.04-3.48,1.59-6.91,1.59-10.3V7.75h13.12c-.08-2.29-.08-4.71-.08-7.26l3.43,.7c.42,.09,.67,.26,.67,.53,0,.35-.17,.75-.5,1.19,0,1.72,0,3.34,.04,4.84h7.98v3.43h-7.9c.17,5.02,.54,9.33,1.04,12.94,1.13-2.64,2.01-5.46,2.59-8.49l3.34,1.06c.38,.13,.58,.31,.58,.48,0,.35-.25,.7-.67,1.06-1.34,4.97-2.93,8.85-4.72,11.62,.38,1.5,.79,2.82,1.25,3.87,.46,1.06,.84,1.54,1.17,1.54,.25,0,.67-1.36,1.17-4.14l2.93,2.55c-1.5,4.36-2.84,6.56-3.93,6.56-.88,0-1.96-1.14-3.3-3.43-.63-1.1-1.17-2.33-1.67-3.74-2.05,2.38-4.68,4.62-7.9,6.82l-2.97-2.42c2.34-1.45,4.35-2.95,5.98-4.53,1.34-1.23,2.51-2.6,3.59-4.18-.42-1.54-.75-3.21-1-4.97-.5-3.26-.88-7.44-1.04-12.59h-9.61v5.15Zm20.4-11.18l-2.47,2.24c-1.25-1.58-2.42-2.82-3.59-3.79l2.3-2.07c1.25,1.01,2.51,2.2,3.76,3.61Z"/></g></g></svg>