<?xml version="1.0" encoding="UTF-8"?><svg id="_層_2" xmlns="http://www.w3.org/2000/svg" viewBox="0 0 47.61 442.34"><defs><style>.cls-1{fill:#231815;}</style></defs><g id="_層_1-2"><g><path class="cls-1" d="M3.03,50.76l-.92-1.67c5.44-3.13,7.59-7.02,8.46-15.39-2.15,1.94-4.62,3.83-7.49,5.45l-2.1-4.43c.82-.22,1.64-.49,2.51-.76V4.1l3.64,1.13c1.85-1.51,3.08-3.02,4.62-5.24l4,2.59c-2.15,1.73-5.03,3.29-8.05,4.48v25.22c1.03-.49,2.1-1.03,3.13-1.62,.31-5.45,.31-12.58,.31-22.03l4.1,.11c0,26.35,.26,36.29-12.21,42.01ZM44.63,3.62V36.61c0,4.64-4.36,4.7-7.85,2.81v10.91h-4.31v-6.26l-3.95,1.57c-.31-1.57-.72-3.46-1.18-5.45-3.23,2.59-7.8,5.24-11.23,6.91l-2.1-4.75c.87-.22,1.95-.49,3.13-.86V3.94h13.29V26.3h-9.18v13.88c1.95-.7,3.9-1.46,5.49-2.21-.51-1.89-1.13-3.73-1.69-5.29l1.59-.92c1.95,2.59,4.62,7.61,5.85,11.23V3.62h12.16ZM21.24,13.55h5.08V6.37h-5.08v7.18Zm0,10.31h5.08v-7.88h-5.08v7.88ZM40.42,6.05h-3.64v30.67c2.87,.54,3.64,.11,3.64-1.94V6.05Z"/><path class="cls-1" d="M3.03,104.76l-.92-1.67c5.44-3.13,7.59-7.02,8.46-15.39-2.15,1.94-4.62,3.83-7.49,5.45l-2.1-4.43c.82-.22,1.64-.49,2.51-.76v-29.86l3.64,1.13c1.85-1.51,3.08-3.02,4.62-5.24l4,2.59c-2.15,1.73-5.03,3.29-8.05,4.48v25.22c1.03-.49,2.1-1.03,3.13-1.62,.31-5.45,.31-12.58,.31-22.03l4.1,.11c0,26.35,.26,36.29-12.21,42.01ZM44.63,57.62v32.99c0,4.64-4.36,4.7-7.85,2.81v10.91h-4.31v-6.26l-3.95,1.57c-.31-1.57-.72-3.46-1.18-5.45-3.23,2.59-7.8,5.24-11.23,6.91l-2.1-4.75c.87-.22,1.95-.49,3.13-.86V57.94h13.29v22.36h-9.18v13.88c1.95-.7,3.9-1.46,5.49-2.21-.51-1.89-1.13-3.73-1.69-5.29l1.59-.92c1.95,2.59,4.62,7.61,5.85,11.23V57.62h12.16Zm-23.39,9.94h5.08v-7.18h-5.08v7.18Zm0,10.31h5.08v-7.88h-5.08v7.88Zm19.19-17.82h-3.64v30.67c2.87,.54,3.64,.11,3.64-1.94v-28.73Z"/><path class="cls-1" d="M4.98,142.08l1.8,.22c0,6.37-.62,11.83-1.59,15.34l-4.72-2.05c1.9-3.24,3.49-7.72,4.51-13.5Zm.36-7.18c2.36-2.75,4.67-6.16,6.72-10.04-3.03,.92-6.46,1.67-8.98,2.05l-.92-4.7c1.08,.11,2.1,.16,3.08,.22,1.85-4,3.44-8.91,4.67-14.85l4.77,1.89c-1.9,4.81-4.82,9.72-7.23,13.01,1.95,.05,3.85-.05,5.9-.16,.97-2.16,1.95-4.48,2.77-6.97l4.41,2.05c-2.51,5.62-7.75,13.07-12.57,17.39,2.56-.16,5.13-.43,7.69-.86-.46-1.35-.97-2.7-1.49-3.83l1.49-1.13c2.21,2.43,4.57,6.26,5.85,9.23l-3.9,2.05c-.36-1.35-.82-2.97-1.33-4.59-4.82,1.94-10.31,3.73-13.34,4.21l-1.18-4.97c1.18,.05,2.41,.05,3.59,0Zm5.39,7.02c1.44,4.16,2.36,9.29,2.82,12.53l-4.57,.81c.21-3.4,.31-8.64-.05-13.01l1.8-.32Zm3.64-1.62c2.1,3.24,4.05,7.45,5.28,10.58l-4.31,1.78c-.56-3.56-1.54-7.99-2.56-11.45l1.59-.92Zm32.78,6.64l-3.33,4.43c-2.72-3.24-6.52-6.97-10.06-10.04v11.29c0,6.05-5.33,7.13-11.8,1.78l.51-1.73c6.05,1.73,6.87,1.24,6.87-1.3v-9.02c-2.41,2.38-5.44,4.7-8.77,6.91l-2.26-4.59c3.8-1.35,7.18-2.86,11.03-5.24v-10.15h-11.54v-2.43h15.44c.31-1.24,.67-2.65,.97-4.05h-8.57l-1.03,2.86-3.74-.92c1.85-5.35,3.23-10.96,4.51-16.74l4.16,.92c-.26,1.13-.56,2.21-.82,3.29h6.93l.92-.7,4.16,1.57c-1.03,4.32-2,9.13-3.28,13.77h8.16v2.43h-11.85v9.67l1.13,.49c2.46-2.59,4.51-5.89,6.05-8.86l3.8,3.02c-2.05,2.43-5.23,4.97-8.05,6.75,3.85,1.94,7.85,4.37,10.47,6.59Zm-22.98-6.37c-1.39-3.4-2.92-6.59-4.26-8.59l1.33-1.3c1.95,1.51,4.98,4.7,6.62,7.18l-3.69,2.7Zm10.57-20.14c.46-2.21,.87-4.37,1.13-5.89h-7.75c-.56,1.94-1.08,3.89-1.69,5.83l8.31,.05Z"/><path class="cls-1" d="M13.9,169.02H1.18v-2.48H13.9v-4.59h4.41v4.59h10.31v-4.59h4.41v4.59h13.29v2.48h-13.29v2.7h-4.41v-2.7h-10.31v3.89h-4.41v-3.89Zm-5.18,32.56l.67-1.73c3.13,1.19,4.21,.97,4.21-2.65,0-2.92-.46-6.05-3.39-10.1,1.39-3.4,2.36-6.53,3.18-9.94h-5.13l-.05,35.15H3.9l.05-38.93,4.05,1.51h5.69l.92-.81,4.1,2.21c-1.95,3.62-4.05,6.97-6.77,10.58,3.33,3.35,5.39,6.91,5.54,10.15,.36,7.88-4.87,8.75-8.77,4.54Zm18.88-21.38c1.69,.76,3.8,2,5.54,3.62l-2.15,2.59h3.69l.77-.76,3.8,2.11c-1.08,1.89-2.46,3.94-3.69,5.29h8.62v2.21H19.24v-2.21h13.9c.62-1.46,.97-3.08,1.33-4.43h-13.29v-2.21h8.98c-1.33-1.89-2.72-3.62-3.9-4.91-3.13,2.97-6.77,5.35-11.34,7.13l-.87-1.51c6.87-4.1,10.88-9.18,13.59-15.01l5.03,1.73-.92,1.35c3.75,3.56,9.03,6.21,14.93,7.94l-2.62,4.86c-4.87-1.84-10.05-6.16-13.49-11.23-.92,1.19-1.95,2.38-2.98,3.46Zm18.26,28.73l-3.44,3.29c-1.28-2.11-2.41-3.73-3.49-5.18-5.54,1.57-12.06,3.08-20.52,3.89l-1.44-4.7c1.54,.05,3.18,.11,4.87,.05,1.13-1.67,2.41-3.83,3.33-5.89h-7.03l.1-2.32h27.09v2.32h-15.08c-1.44,1.89-4.05,4.27-5.95,5.89,4.46-.11,9.13-.38,13.34-.86-.87-1.08-1.74-2.05-2.67-3.08l1.13-1.35c3.49,2,7.49,5.18,9.75,7.94Z"/><path class="cls-1" d="M7.85,280.15H3.23v-23.87H21.34v23.6h-4.51v-4.48H7.85v4.75Zm8.98-7.18v-14.26H7.85v14.26h8.98Zm-6.52-22.63h26.47v-17.77H10.31v17.77Zm4.72-2.43v-12.91h17.03v12.91H15.03Zm11.13,32.29v-23.92h18.11v23.6h-4.62v-4.48h-8.98v4.81h-4.51Zm4.51-21.49v14.26h8.98v-14.26h-8.98Z"/><path class="cls-1" d="M16.42,320.76H7.34v4.37H3.03v-34.99h13.39v30.62Zm-4.21-28.19H7.34v25.76h4.87v-25.76Zm35.4,33.21l-3.74,4.91c-3.33-2.7-8.62-9.34-10.98-18.36v21.6h-4.72v-20.9c-2.67,5.67-8.41,13.45-15.6,18.09l-1.08-1.62c6.52-5.62,11.08-12.96,14.57-21.22h-8.62v-2.43h10.72v-8.96h-9.03v-2.43h9.03v-9.99h4.72v9.99h9.39v2.43h-9.39v8.96h11.75v2.43h-11.08c2.51,7.34,7.9,13.45,14.06,17.5Z"/><path class="cls-1" d="M47.35,380.48l-2.92,5.51c-4.92-1.73-12.52-6.97-18.57-15.71v18.09h-4.72v-17.5c-5.28,7.29-12.57,12.15-20.31,15.55l-.82-1.78c6.05-3.4,13.75-9.83,18.06-16.36H7.08v-16.85h14.06v-4.43H2.72v-2.7H21.14v-6.43h4.72v6.43h19.08v2.7H25.86v4.43h14.11v16.79h-13.08c6.77,6.8,13.75,10.64,20.47,12.26Zm-35.7-21.98h9.49v-4.7H11.65v4.7Zm0,7.34h9.49v-4.97H11.65v4.97Zm14.21-12.04v4.7h9.59v-4.7h-9.59Zm9.59,7.02h-9.59v5.02h9.59v-5.02Z"/><path class="cls-1" d="M1.49,404.19c3.08,1.57,6.77,3.89,9.7,6.43l-3.54,4.32c-2.26-3.24-5.08-6.64-7.18-9.07l1.03-1.67Zm7.9,13.45l1.74,.76c-1.33,7.51-3.44,16.52-5.18,21.38l-5.03-2.92c2.62-5.02,5.85-12.47,8.46-19.22Zm1.03-15.12c-1.85-3.19-4-6.32-6.1-9.07l1.13-1.57c2.56,1.4,6,3.83,8.82,6.86l-3.85,3.78Zm31.55,18.04c-.26,4.43-.51,7.94-.77,10.69h4.77v2.43h-5.03c-.1,.7-.15,1.3-.26,1.84-1.18,8.37-6.72,8.69-13.24,2.86l.72-1.89c6.1,2.11,7.23,1.84,7.8-2.05,.05-.22,.05-.49,.1-.76l-16.36,.05c-.15,1.08-.36,2.11-.51,3.13l-4.72-.59c.87-4.91,1.69-9.99,2.41-15.71h-4.41v-2.43h4.72c.46-3.62,.92-7.56,1.33-11.93l24.16-.11-.56,12.04h4.51v2.43h-4.67Zm-29.34-11.56c2.98-5.18,5.03-11.88,6.05-17.66l4.87,1.4c-.62,1.94-1.39,3.94-2.21,5.89h24.83v2.43H20.21c-1.69,3.35-3.69,6.48-6.16,9.13l-1.44-1.19Zm24.57,11.56h-15.7c-.46,3.56-.92,7.18-1.44,10.69h16.31c.31-3.13,.62-6.97,.82-10.69Zm-15.39-2.43h15.54c.21-3.94,.36-7.56,.46-9.67l-14.93,.11c-.31,3.08-.72,6.32-1.08,9.56Zm2,5.72l.67-1.78c3.03,.81,7.28,2.38,10.16,4.1l-2.46,4.27c-2.31-2-5.8-4.75-8.36-6.59Zm11.34-10.15l-2.51,3.94c-2.05-1.94-5.28-4.54-7.75-6.48l.77-1.78c3.23,1.03,6.67,2.43,9.49,4.32Z"/></g></g></svg>