<?xml version="1.0" encoding="UTF-8"?><svg id="_層_2" xmlns="http://www.w3.org/2000/svg" viewBox="0 0 120.32 374.55"><defs><style>.cls-1{fill:#231815;}</style></defs><g id="_層_1-2"><g><path class="cls-1" d="M119.76,40.5v3.51h-45.09v-3.51h45.09Zm-3.59-32.72v3.24h-37.91v-3.24h37.91Z"/><path class="cls-1" d="M74.67,76.52v-2.97h20.21v-19.44h4.92v19.44h20.21v2.97h-20.21v27.16h-4.92v-27.16h-20.21Z"/><path class="cls-1" d="M119.86,140.19v2.7h-17.96v15.44h-4.82v-15.44h-22.11v-2.7h8.26v-14.15h13.85v-8.48h-10.41c-2.51,4.48-5.69,8.69-9.08,11.77l-1.33-1.4c4.16-5.51,7.28-13.45,8.77-20.9l5.49,1.67c-.67,2.05-1.49,4.16-2.51,6.26h28.63v2.59h-14.72v8.48h13.34v2.43h-13.34v11.72h17.96Zm-22.78-11.72h-9.23v11.72h9.23v-11.72Z"/><path class="cls-1" d="M81.39,183.82c-2.21-2.81-5.23-5.94-7.39-8.32l.97-1.67c2.72,1.3,6.72,3.62,9.49,5.83l-3.08,4.16Zm3.08,3.02c-.98,6.1-3.28,17.98-5.18,23.22l-5.08-2.43c2.87-5.45,6.41-15.23,8.41-21.44l1.85,.65Zm-.67-14.74c-2-2.7-5.03-6.59-6.93-8.8l1.13-1.57c2.77,1.46,6.72,4.1,9.13,6.32l-3.33,4.05Zm36.53,35.53v2.48h-37.29v-2.48h3.85v-17.77h29.96v17.77h3.49Zm-6.31-22.3h-24.27v-20.84h24.27v20.84Zm-18.42,6.97h-4.21v15.34h4.21v-15.34Zm14.11-25.38h-15.65v15.98h15.65v-15.98Zm-13.59,15.55l-1.28-1.51c3.49-3.89,4.21-8.32,4.87-13.12l4.46,.97c-.26,1.4-.62,2.86-1.13,4.32,2.1,1.4,4.36,3.35,6.31,5.89l-3.39,2.81c-1.18-2.38-2.62-4.64-3.85-6.53-1.33,2.75-3.23,5.29-6,7.18Zm7.95,9.83h-4.46v15.34h4.46v-15.34Zm8.26,0h-4.26v15.34h4.26v-15.34Z"/><path class="cls-1" d="M85.24,258.07v-3.94h-4.57v5.62h-4.31v-38.88h13.08v37.21h-4.21Zm-4.57-21.82h4.57v-12.96h-4.57v12.96Zm4.57,15.44v-13.01h-4.57v13.01h4.57Zm32.17,14.31c-3.75-1.19-7.49-3.02-10.82-5.89-3.95,2.97-8.88,5.02-15.24,6.26l-.72-1.78c5.85-1.62,10.16-4.1,13.39-7.02-2.05-2.32-3.85-5.18-5.18-8.64-2.98,8.75-7.8,14.42-12.11,17.28l-1.18-1.46c5.64-4.81,9.39-14.15,10.88-23.49l-6.26-.05v-2.43l6.57,.05c.15-1.4,.26-2.81,.31-4.16h-5.49v-2.43h4.51c-.82-2.81-2.36-6.43-3.49-8.42l1.28-1.24c1.79,1.57,4.67,4.64,6.21,7.4l-3.54,2.27h11.59c1.75-3.13,2.92-7.67,3.64-11.61-7.08,1.08-14.67,1.57-20.83,1.67l-.46-1.89c8.52-.54,19.34-2.59,23.55-4.97l4.41,4c-2.1,.43-4.26,.86-6.51,1.19l4.92,2c-1.64,3.35-3.95,7.02-6.41,9.61h7.9v2.43h-16.78c-.1,1.46-.26,2.81-.41,4.16l18.67,.11v2.43l-19.08-.11c-.26,1.57-.56,3.02-.92,4.43h10.82l1.18-.86,4.92,2.54c-2.05,4-4.31,7.34-7.08,10.1,3.8,2.16,7.64,3.19,10.52,3.62l-2.77,4.91Zm-11.03-10.8c1.95-2.21,3.44-4.64,4.62-7.07h-10.82c1.74,2.97,3.9,5.29,6.21,7.07Zm.77-24.41l-4.41,1.19c-.21-3.02-.62-6.7-1.28-9.23l1.74-.7c1.23,1.84,3.13,5.94,3.95,8.75Z"/><path class="cls-1" d="M81.44,319.84h-4.62v-23.87h18.11v23.6h-4.51v-4.48h-8.98v4.75Zm8.98-7.18v-14.26h-8.98v14.26h8.98Zm-6.51-22.63h26.47v-17.77h-26.47v17.77Zm4.72-2.43v-12.91h17.03v12.91h-17.03Zm11.13,32.29v-23.92h18.11v23.6h-4.62v-4.48h-8.98v4.81h-4.51Zm4.51-21.49v14.26h8.98v-14.26h-8.98Z"/><path class="cls-1" d="M81.9,349.65h9.23v23.87h-4.31v-21.44h-4.98c-.41,12.85-2.46,17.87-6.26,22.46l-1.44-1.24c2.77-4.64,3.39-11.07,3.39-27.32v-21.87h4.46c0,6.05,0,11.5-.05,16.25h4.26v-15.71h4.21v15.71h2.21v2.43h-10.67v3.29c0,1.24,0,2.43-.05,3.56Zm38.01,11.34h-10.21v13.01h-4.41v-13.01h-13.34v-2.43h13.34v-7.4h4.41v7.4h10.16l.05,2.43Zm-18.67-11.99h-7.23v-19.33h8.16c.56-2,.97-4,1.28-6.43l5.33,1.3c-1.23,2-2.72,3.67-4.16,5.13h13.24v19.33h-12.62c-2.1,4.43-5.69,7.13-11.39,8.64l-.62-1.84c3.9-1.73,6.41-3.73,8-6.8Zm-2.92-10.96h5.28c.1-1.78,.15-3.78,.15-5.94h-5.44v5.94Zm3.95,8.53c.51-1.73,.92-3.73,1.13-6.1h-5.08v6.1h3.95Zm11.29-6.1h-6.1c-.26,2.27-.67,4.32-1.23,6.1h7.34v-6.1Zm0-8.37h-5.75c.05,2.11,0,4.1-.1,5.94h5.85v-5.94Z"/><path class="cls-1" d="M14.83,21.49v28.46h-4.51V24.57c-1.95,4.75-5.8,10.85-8.93,13.93L.05,37.1c3.28-4.86,7.49-12.42,9.54-22.73H2.26v-2.43H10.31V0h4.51V11.93h6.77v2.48h-6.77v3.94c2.56,2.16,5.9,5.45,7.95,8.75l-3.64,2.86c-1.18-2.7-2.82-5.89-4.31-8.48Zm27.91,17.28c-1.23-1.4-5.28-7.4-8-18.04v29.48h-4.51V21.87c-1.9,5.51-6.41,13.45-11.39,17.87l-1.28-1.4c4.1-5.13,8.67-13.12,11.13-24.03h-5.9v-2.43h7.44V0h4.51V11.88h8.93v2.48h-8.67c2.41,9.18,7.39,16.42,11.7,20.2l-3.95,4.21Z"/><path class="cls-1" d="M6.36,88.29c.15,6.37-.56,11.72-1.69,15.23l-4.67-2.27c1.9-3.24,3.75-7.4,4.57-13.18l1.8,.22Zm-2.15-7.56c2.46-2.81,4.82-6.16,6.92-10.15-3.03,.92-6.51,1.73-8.82,2.11l-.92-4.7c1.03,.11,2.05,.16,3.08,.22,1.8-3.94,3.44-8.69,4.67-14.63l4.46,1.62c-1.9,4.86-4.67,9.77-6.98,13.12,1.85,0,3.74-.05,5.75-.22,.97-2.05,1.9-4.27,2.77-6.64l4.46,2.11c-2.67,5.67-7.9,12.91-12.77,17.06,2.51-.16,5.18-.43,7.7-.76-.51-1.51-1.03-2.97-1.54-4.27l1.38-.81c2.15,2.32,4.36,5.94,5.69,8.96l-3.95,1.89c-.26-1.13-.62-2.43-.97-3.78-4.72,1.89-10.46,3.4-13.08,3.78l-1.18-4.97c1.08,.05,2.21,.05,3.33,.05Zm6.21,6.75c1.44,4.16,2.82,9.56,3.39,12.8l-4.62,.7c.1-3.4-.21-8.8-.46-13.18l1.69-.32Zm4.41-1.46c2.1,3.13,4.36,7.61,5.44,10.8l-4.16,1.78c-.72-3.56-1.95-8.53-2.87-11.88l1.59-.7Zm31.29,13.39H25.5v4.37h-4.41v-31.59c-1.08,1.62-2.21,3.02-3.28,4.16l-1.33-1.19c3.33-5.62,5.95-12.42,7.54-21.87l5.03,1.46c-.87,3.24-2.15,6.59-3.64,9.72h8.57c-.62-2.75-1.95-7.45-2.87-9.99l1.54-.86c2.1,2.43,4.46,6.16,5.85,9.34l-3.44,1.51h10.57v2.43h-8.82v7.56h7.49v2.43h-7.49v8.26h7.49v2.43h-7.49v9.4h9.34v2.43Zm-20.62-32.51v7.56h6.98v-7.56h-6.98Zm6.98,9.99h-6.98v8.26h6.98v-8.26Zm-6.98,20.09h6.98v-9.4h-6.98v9.4Z"/><path class="cls-1" d="M46.38,150.99l-1.74,5.72c-9.08,.65-20.31,.76-26.32-1.19-3.39-1.08-6.41-2.92-8.88-5.72-2.26,3.51-5.03,6.43-8.31,8.69l-1.13-1.57c2.36-2.05,5.03-5.24,7.23-10.04-1.9-3.08-3.28-6.91-4.1-11.77l1.79-.54c.87,3.51,2,6.53,3.64,9.07,1.33-3.83,2.41-8.53,2.98-14.31H7.08c-.82,1.57-1.59,2.92-2.21,3.73l-3.64-1.62c2.41-4.16,5.95-11.45,8.21-17.55H.97v-2.32H15.13c-1.38,4-4.26,10.37-6.77,15.34h3.08l.82-.86,4.05,1.62c-.67,7.24-2.36,13.72-5.18,19.17,1.59,1.57,3.49,2.75,5.75,3.67,6.67,2.65,19.54,1.73,29.5,.49Zm-19.44-29.27H15.7v-2.32h11.23v-4.32h-8.82v-2.43h8.82v-4.81h4.41v4.81h10v6.75h4.16v2.32h-4.16v7.29h-10v4.27h10.46v2.43h-10.46v5.02h12.83v2.43h-12.83v7.13h-4.41v-7.13H15.65v-2.43h11.29v-5.02h-9.44v-2.43h9.44v-4.27h-9.08v-2.43h9.08v-4.86Zm4.41-2.32h5.95v-4.32h-5.95v4.32Zm0,7.18h5.95v-4.86h-5.95v4.86Z"/><path class="cls-1" d="M20.98,173.88H.56v-2.43H9.9c-1.44-3.19-3.33-6.8-4.46-8.86l1.39-1.24c2.31,1.89,5.49,5.45,7.28,8.32l-2.56,1.78h9.49l-.05,2.43Zm-2.77,5.24v2.11H2.67v-2.11h15.54Zm0,9.56H2.67v-2.11h15.54v2.11Zm.31,19.22H7.23v3.67H2.82v-17.44h15.7v13.77Zm-4.31-11.39H7.23v9.02h6.98v-9.02Zm29.7,15.34c-3.18-.86-8.16-3.13-12.52-7.51-3.64,3.4-8.16,6.21-13.85,8.1l-.77-1.78c5.28-2.43,9.29-5.62,12.21-9.07-2.62-3.35-4.82-7.61-6-12.96h-3.08v-2.43h15.6l1.28-.92,4.72,2.05c-1.49,4.91-3.85,9.72-7.23,13.93,4.67,3.13,9.7,4.27,12.52,4.91l-2.87,5.67Zm-20.73-41.96v-4.75h14.21v10.91c0,1.67,.26,2.38,2.1,2.38,1.59,0,2.51-.16,3.85-1.51l1.95,3.73c-1.28,1.4-3.44,2.11-6.57,2.11-4.72,0-5.85-1.35-5.85-5.94v-9.23h-5.08v2.48c0,8.91-2.98,12.26-9.03,15.23l-.92-1.67c4.36-3.56,5.33-4.97,5.33-13.72Zm7.95,28.84c2.31-3.4,3.69-6.97,4.46-10.1h-10.67c1.39,4.37,3.59,7.67,6.21,10.1Z"/></g></g></svg>