<?xml version="1.0" encoding="UTF-8"?><svg id="_層_2" xmlns="http://www.w3.org/2000/svg" viewBox="0 0 110.16 260.4"><defs><style>.cls-1{fill:#956134;}</style></defs><g id="_層_1-2"><g><path class="cls-1" d="M85.17,2.02V15.45h-3.59v4.66h3.76v3.08h-3.76v9.9c1.59-.4,3.18-.84,4.76-1.32v3.12c-2.93,.97-7.48,2.16-13.71,3.74-.29,.44-.58,.7-.84,.7s-.38-.22-.38-.57l-.75-3.56c.5-.04,1-.13,1.46-.22v-14.39l3.05,.26c.58,.04,.88,.18,.88,.44,0,.18-.25,.48-.67,.84v12.28c.96-.18,1.88-.35,2.76-.53V15.45h-4.56V2.02h11.58Zm-3.43,3.3h-4.72v6.87h4.72V5.32Zm12.66,12.23c.38,.13,.58,.31,.58,.48,0,.13-.12,.31-.33,.48-.29,.09-.75,.7-1.38,1.76h4.85l1.92-3.48,2.55,.57c.46,.09,.71,.22,.71,.48,0,.35-.25,.66-.67,1.01l-1,1.41h7.06v2.73h-7.02v2.6h6.35v2.55h-6.35v2.42h6.35v2.55h-6.35v2.42h7.52v2.95h-16.51v1.19h-3.43v-13.6c-.71,.88-1.42,1.67-2.13,2.42l-3.09-1.89c3.09-2.82,5.6-6.16,7.52-10.12l2.84,1.06Zm2.84-15.84V15.45h-3.26v-2.42c-.46,.35-.88,.66-1.25,.92-1.09,.79-2.59,1.58-4.6,2.38l-1.96-2.42c1.84-.44,3.34-1.01,4.6-1.67,.92-.44,1.96-1.19,3.22-2.16v-3.04c-.42,.44-.84,.79-1.21,1.06-.92,.79-2.26,1.58-4.01,2.38l-1.96-2.42c1.59-.44,2.93-1.01,4.01-1.67,.67-.35,1.38-.88,2.17-1.58h-5.68V1.72h9.95Zm1,21.3h-5.56v2.6h5.56v-2.6Zm0,5.15h-5.56v2.42h5.56v-2.42Zm0,7.39v-2.42h-5.56v2.42h5.56ZM108.53,1.72V15.62h-3.26v-2.73c-.42,.31-.75,.57-1.04,.75-1,.7-2.42,1.45-4.35,2.16l-1.96-2.42c1.76-.4,3.22-.88,4.39-1.45,.84-.44,1.84-1.06,2.97-1.89v-2.68c-.33,.26-.63,.53-.88,.75-.88,.79-2.17,1.58-3.85,2.38l-1.96-2.42c1.55-.44,2.84-1.01,3.89-1.67,.63-.35,1.34-.88,2.13-1.58h-5.06V1.72h8.99Z"/><path class="cls-1" d="M89.64,44.7c.42,.09,.63,.26,.63,.48,0,.31-.25,.57-.67,.84l-1.34,1.23h15.05v11.66h-22.86v1.72h28.59v2.95h-28.59v2.07h26.62c0,7.04-.29,11.49-.79,13.29-.33,1.76-1.04,2.99-2.13,3.65-1.17,.7-3.13,1.1-5.89,1.1l-1.55-3.43h-19.85v2.24h-3.43v-10.69l3.18,.26c.58,.04,.92,.18,.92,.44,0,.22-.25,.57-.67,1.01v3.61h7.36v-7.35l3.3,.26c.63,.09,.96,.26,.96,.57,0,.18-.25,.48-.67,.88v5.63h6.85v-5.63l3.18,.22c.58,.04,.92,.18,.92,.44s-.25,.62-.67,1.06v6.12c1.76-.04,2.8-.22,3.18-.48,.5-.26,.88-.97,1.17-2.02,.38-1.06,.58-3.74,.67-8.1h-26.41v-21.48h7.31l2.34-3.43,3.3,.88Zm-9.19,7h19.1v-1.54h-19.1v1.54Zm0,4.31h19.1v-1.72h-19.1v1.72Z"/><path class="cls-1" d="M79.49,109.47v-4.84l3.3,.31c.58,.09,.92,.26,.92,.57,0,.18-.21,.48-.63,.88v3.08h6.02v3.61h-6.02v.18c.84,1.06,1.67,1.85,2.47,2.46,1,.79,2.38,1.54,4.05,2.33l-2.93,3.26c-1.42-.92-2.63-1.98-3.59-3.12v8.62h-3.59v-8.36c-.25,.44-.54,.79-.79,1.14-1.34,1.94-2.88,3.74-4.6,5.32l-3.59-2.55c2.09-1.41,3.93-2.91,5.43-4.53,1-.97,2.17-2.46,3.55-4.44v-.31h-7.69v-3.61h7.69Zm8.99-17.38v-4.27l3.3,.26c.58,.09,.92,.26,.92,.57,0,.22-.25,.53-.67,.88v2.55h15.05v3.61h-14.54c2.34,1.41,4.72,2.55,7.15,3.34,2.3,.79,5.52,1.54,9.7,2.33l-3.76,3.61c-3.47-1.01-6.19-2.02-8.19-3.08-1.88-.88-3.68-1.94-5.39-3.26v6.34h-3.55v-6.38c-2.01,1.41-3.97,2.6-5.89,3.56-2.38,1.1-5.22,2.02-8.48,2.82l-3.09-3.26c4.01-.79,7.48-1.8,10.45-2.95,1.84-.7,3.85-1.72,5.93-3.08h-13.79v-3.61h14.88Zm9.28,17.38v-4.84l3.3,.31c.63,.09,.96,.26,.96,.57,0,.18-.25,.48-.67,.88v3.08h7.36v3.61h-7.36v.22c1.25,2.16,2.47,3.83,3.64,5.06,1.3,1.32,3.01,2.64,5.18,4l-2.93,3.26c-1.96-1.58-3.59-3.3-4.93-5.19-.33-.44-.67-.88-.96-1.41v7.61h-3.59v-8.98c-.58,.88-1.13,1.63-1.67,2.33-1.59,2.11-3.34,4.05-5.35,5.81l-3.59-2.6c2.38-1.5,4.43-3.17,6.14-4.93,1.17-1.14,2.55-2.9,4.22-5.19h-6.27v-3.61h6.52Z"/><path class="cls-1" d="M78.82,141.95v-9.81l3.3,.31c.63,.09,.96,.26,.96,.57,0,.18-.25,.48-.67,.88v8.05h6.06v3.61h-5.73c1.71,4.05,3.93,7.48,6.69,10.34l-2.93,2.2c-1.5-1.89-2.88-4.01-4.1-6.38v18.79h-3.59v-15.89c-.25,.48-.46,.92-.63,1.36-1.34,2.68-2.8,5.1-4.43,7.3l-3.09-2.07c2.01-2.46,3.64-5.02,4.85-7.57,1.04-2.11,2.05-4.8,2.97-8.1h-6.69v-3.61h7.02Zm18.43,0v-9.81l3.34,.31c.58,.09,.92,.26,.92,.57,0,.18-.25,.48-.67,.88v8.05h6.85v3.61h-6.56c-.04,.09-.08,.09-.17,.09,2.22,6.65,5.18,12.28,8.86,16.94l-3.26,2.42c-2.09-3.21-4.01-6.87-5.73-10.96v16.46h-3.59v-16.5c-.59,1.23-1.13,2.33-1.71,3.39-1.71,3.08-3.64,5.81-5.77,8.27l-3.09-2.07c2.59-2.77,4.68-5.63,6.27-8.58,1.38-2.38,2.67-5.54,3.89-9.46h-5.94v-3.61h6.35Z"/><path class="cls-1" d="M88.05,202.45c.25-.97,.46-1.98,.54-3.08l3.93,.44c.54,.04,.84,.18,.84,.4,0,.4-.33,.75-1,1.06-.12,.44-.25,.84-.33,1.19h16.01v3.43h-14.29c1.63,1.72,3.26,2.95,4.89,3.65,2.59,1.32,6.27,2.42,11.03,3.26l-3.26,3.61c-4.47-1.23-7.94-2.64-10.37-4.22-2.26-1.5-4.1-3.34-5.6-5.54-.17,.35-.33,.66-.5,.88-1.59,2.38-3.93,4.31-7.02,5.81-2.38,1.19-5.56,2.24-9.49,3.21l-2.42-3.26c5.1-1.01,8.74-2.16,10.87-3.48,2.01-1.06,3.55-2.33,4.6-3.92h-13.83v-3.43h15.42Zm-1.46-20.46h7.61c1.42-1.89,2.51-3.87,3.22-5.98l3.64,.88c.5,.09,.79,.26,.79,.48,0,.4-.38,.75-1.13,1.01-.54,1.28-1.17,2.46-1.88,3.61h9.19v3.43h-15.67v3.3h13.42v3.26h-13.42v3.43h15.67v3.43h-35.4v-3.43h15.97v-3.43h-14v-3.26h14v-3.3h-15.97v-3.43h9.7c-1.09-1.5-2.17-2.95-3.34-4.44l3.26-1.72c1.63,2.11,3.09,4.14,4.35,6.16Z"/><path class="cls-1" d="M82.62,223.52c-1.38,.44-2.93,.84-4.6,1.23v1.94h5.52v2.9h-5.52v2.25h5.52v2.95h-5.52v2.2h24.32v-2.2h-5.39v-2.95h5.39v-2.25h-5.39v-2.9h5.39v-2.24h-5.56v-3.26h9.15v15.8h2.76v8.62h-3.59v-5.32h-29.71v5.32h-3.59v-8.62h2.63v-15.97l1.71,.92c.96-.18,1.88-.35,2.8-.62,1.09-.31,2.13-.75,3.13-1.32l2.26,2.46c.25,.26,.38,.53,.38,.79s-.12,.35-.33,.35l-.92-.26c-.21,0-.5,.09-.84,.18Zm15.5,18.61l1.88,1.23c.25,.18,.38,.35,.38,.53,0,.35-.29,.66-.84,1.01l-6.27,4.8h14.92v3.43h-16.01v2.24c0,1.67-.54,2.95-1.55,3.74-.84,.84-3.01,1.28-6.44,1.28l-1.46-3.78h3.76c1.29,0,2.01-.62,2.09-1.89v-1.58h-16.47v-3.43h16.47v-2.07l2.34,.31,2.76-2.68h-13.42v-3.12h16.17l.79-.31c.33,0,.63,.13,.88,.31Zm-2.88-20.51c.25,.13,.38,.26,.38,.4,0,.35-.21,.57-.63,.7-.79,.7-1.55,1.36-2.26,1.89,.92,.7,1.84,1.36,2.76,2.07l-1.96,1.89c-1.09-.88-2.09-1.67-3.05-2.38-1.13,.7-2.38,1.45-3.8,2.2l-1.8-1.89c1.25-.62,2.34-1.28,3.3-1.94-1.09-.66-2.13-1.28-3.13-1.85l1.75-1.72c1.17,.62,2.38,1.32,3.55,2.02,.92-.7,1.8-1.58,2.67-2.55l2.21,1.14Zm.17,8.45c.25,.09,.38,.22,.38,.4,0,.31-.21,.53-.63,.66-.79,.71-1.55,1.32-2.22,1.85,.79,.62,1.59,1.28,2.38,1.94l-1.96,1.89c-.92-.79-1.75-1.54-2.59-2.25-1.09,.7-2.42,1.45-3.97,2.25l-1.75-1.89c1.34-.66,2.55-1.36,3.55-2.07-1.17-.79-2.34-1.54-3.43-2.2l1.8-1.72c1.25,.75,2.51,1.54,3.72,2.38,.84-.7,1.67-1.5,2.51-2.38l2.21,1.14Z"/><path class="cls-1" d="M13.54,1.5c.33,.18,.5,.35,.5,.53,0,.4-.33,.7-.96,.88l-.04,.04c2.05,2.73,4.47,5.15,7.23,7.17l-2.63,2.42c-.33-.26-.63-.53-.84-.79v3.34h-4.39v4.84h6.19v3.43h-6.19v11.09c2.01-.26,3.97-.57,5.89-.97v3.12c-3.13,.66-8.02,1.58-14.71,2.73-.29,.44-.54,.7-.79,.7-.29,0-.46-.22-.46-.62l-.88-3.7c2.51-.18,5.01-.44,7.52-.79v-11.57H2.13v-3.43h6.85v-4.84H4.6v-1.8c-.67,.66-1.38,1.32-2.13,1.98L0,12.72c2.34-1.94,4.35-3.92,6.02-5.94,1.5-1.8,3.05-4.05,4.6-6.78l2.93,1.5Zm-5.85,30.8l-2.8,1.72c-.88-2.29-1.84-4.58-2.93-6.87l2.93-1.54c1.04,2.29,1.96,4.49,2.8,6.69ZM16.72,11.66c-2.22-2.16-4.01-4.22-5.39-6.16-1.21,1.76-2.34,3.21-3.39,4.36-.58,.62-1.13,1.23-1.71,1.8h10.49Zm1.84,15.31c.33,.18,.54,.35,.54,.53,0,.35-.21,.62-.63,.84l-2.63,4.67-2.47-1.23,2.8-5.99,2.38,1.19ZM37.07,2.38V20.77h-6.06c.33,2.02,.79,3.83,1.34,5.41,1.59-1.28,2.97-2.55,4.22-3.87l2.38,2.55c.17,.18,.25,.4,.25,.57,0,.26-.33,.35-1,.35-1.5,1.1-3.09,2.16-4.68,3.21,.08,.22,.21,.4,.33,.57,1.21,2.55,3.26,5.1,6.14,7.7l-3.43,2.77c-1.75-2.16-3.18-4.09-4.26-5.94-1.25-2.11-2.17-4.18-2.84-6.29-.63-1.72-1.17-4.05-1.67-7.04h-3.47v13.77c2.09-.53,4.1-1.14,6.06-1.89v3.08c-2.09,.88-5.31,2.11-9.65,3.61-.29,.44-.54,.7-.79,.7-.29,0-.46-.22-.46-.62l-.88-3.7c.75-.09,1.55-.26,2.3-.44V2.38h16.17Zm-3.43,7.57V5.63h-9.32v4.31h9.32Zm0,7.57v-4.31h-9.32v4.31h9.32Z"/><path class="cls-1" d="M6.73,70.32c.29,.09,.46,.22,.46,.48,0,.31-.25,.66-.67,1.01-.67,3.74-1.46,6.95-2.42,9.64l-3.26-1.19c.58-1.28,1.09-2.68,1.5-4.22,.5-1.98,.92-4.18,1.25-6.6l3.13,.88Zm5.27-24.86c.38,.22,.58,.4,.58,.57,0,.35-.25,.66-.67,.88l-4.89,6.69c.92,.79,1.8,1.63,2.67,2.42l4.51-6.51,2.67,1.85c.25,.18,.42,.44,.42,.7s-.29,.44-.79,.53l-8.15,10.65c2.22-.22,4.39-.48,6.52-.84-.33-1.01-.67-1.98-1-2.95l3.26-.66c1.13,2.9,1.96,5.72,2.47,8.41l-3.26,.7c-.21-.88-.42-1.72-.59-2.51-1.25,.22-2.63,.44-4.18,.7v17.96h-3.43v-17.43c-1.59,.26-3.3,.48-5.06,.75-.25,.44-.54,.66-.79,.66s-.38-.18-.38-.57l-.79-3.52c1.09-.09,2.13-.18,3.18-.26l3.3-4.71c-2.34-2.2-4.43-4.09-6.31-5.68l1.96-2.77c.42,.35,.88,.7,1.3,1.01l4.76-7.52,2.67,1.45Zm5.18,30.06c.92-1.67,1.63-3.39,2.13-5.06,1.34-4.36,1.96-8.71,1.92-13.07v-7.57h-2.76v-3.26h13.37l.96-.53c.33,0,.67,.13,1,.35l2.05,1.36c.25,.18,.38,.35,.38,.53,0,.44-.33,.84-.96,1.23l-2.97,9.11h3.09c.29-.22,.46-.35,.54-.35,.25,0,.5,.13,.75,.35l1.84,1.72c.21,.18,.33,.4,.33,.66,0,.31-.42,.66-1.17,1.06-1.5,6.38-3.22,11-5.14,13.82-.13,.18-.25,.35-.38,.53,.5,.53,1.04,1.01,1.59,1.41,1.42,1.19,3.34,2.11,5.73,2.82l-2.93,3.43c-2.3-1.14-4.26-2.51-5.85-4.09-.33-.31-.58-.62-.84-.88-2.05,1.98-4.56,3.65-7.52,4.97l-2.26-3.26c2.26-.75,4.05-1.63,5.48-2.6,.79-.53,1.55-1.14,2.21-1.8-.58-.79-1.04-1.63-1.46-2.46-1.09-1.98-1.92-4.18-2.51-6.56-.25,1.28-.54,2.51-.88,3.65-1.21,4.31-3.09,8.14-5.64,11.49l-3.59-1.89c1.13-1.36,2.09-2.77,2.93-4.18l-2.42,.57c-.46-2.68-1-5.15-1.63-7.39l3.09-.7c.67,2.29,1.17,4.49,1.5,6.6Zm11.45-16.9l2.93-8.8h-6.73v7.57c0,.44-.04,.84-.04,1.23h3.84Zm-1.92,7.7c.5,2.11,1.34,4.14,2.42,6.03,.25,.53,.54,.97,.84,1.32,.25-.44,.5-.92,.75-1.36,1.21-2.2,2.34-5.63,3.34-10.25h-8.27c.17,1.5,.5,2.9,.92,4.27Z"/><path class="cls-1" d="M11.49,89.54c.38,.18,.58,.31,.58,.48,0,.31-.21,.53-.63,.7-.17,.35-.33,.62-.46,.88h10.91v3.26h-6.31c-.08,1.32-.17,2.55-.33,3.61h8.73v3.43h-7.94c1,1.06,1.88,1.85,2.63,2.33,.88,.66,2.17,1.28,3.84,1.8l-2.76,3.43c-1.46-.79-2.76-1.76-3.89-2.86-.75-.7-1.5-1.54-2.21-2.46-.13,.22-.25,.4-.33,.57-1.67,2.91-4.51,5.24-8.44,7l-2.76-3.12c4.05-1.76,6.77-3.74,8.19-5.99,.12-.22,.25-.44,.38-.7H2.8v-3.43h2.55l-2.42-1.54c2.26-2.46,4.22-5.41,5.89-8.8l2.67,1.41Zm.54,5.32h-3.01c-.92,1.36-1.88,2.55-2.8,3.61h5.47c.17-1.06,.25-2.29,.33-3.61Zm20.77,15.27v17.73h-3.59v-1.54H12.91v1.72h-3.59v-17.91h23.49Zm-3.59,6.56v-3.08H12.91v3.08H29.21Zm0,6.21v-3.12H12.91v3.12H29.21Zm8.36-30.45v15.84h-12.58v-15.84h12.58Zm-3.43,3.43h-5.73v8.93h5.73v-8.93Z"/><path class="cls-1" d="M8.19,164.3c.42,.18,.63,.35,.63,.53,0,.26-.25,.48-.67,.66-1.25,2.42-2.67,4.4-4.22,6.03l-2.93-1.89c1.76-1.85,3.26-4.09,4.56-6.69l2.63,1.36Zm1.3-29.75v-2.55l3.18,.22c.59,.04,.88,.18,.88,.44s-.21,.62-.63,1.06v.84h6.69v2.95h-6.69v1.72h5.68v2.73h-5.68v1.76c2.34-.18,4.68-.35,7.02-.57v2.6c-1.84,.26-4.18,.53-7.02,.79v2.46h15.34v-2.2h-7.36v-2.95h7.36v-1.89h-6.06v-2.73h6.06v-1.72h-6.69v-2.95h6.69v-2.55l3.18,.22c.58,.04,.92,.18,.92,.44s-.25,.62-.67,1.06v.84h6.19v2.95h-6.19v1.72h5.56v2.73h-5.56v1.89h6.69v2.95h-6.69v2.2h4.1v4.66h3.09v2.91h-3.09v4.97h-14.25c1.25,1.14,2.55,2.46,3.8,3.96l-2.8,1.89c-1.17-1.76-2.51-3.3-3.93-4.62l1.38-1.23H5.22v-2.91h26.96v-2.07H1.63v-2.91h30.55v-1.72H5.22v-2.95h4.26v-2.11c-1.88,.18-3.89,.4-6.06,.57-.25,.35-.46,.53-.63,.53-.21,0-.33-.18-.38-.53l-.63-3.08c2.59-.09,5.14-.22,7.69-.4v-2.02H3.43v-2.73h6.06v-1.72H2.3v-2.95h7.19Zm5.6,28.08c.5,.09,.75,.31,.75,.66s-.25,.7-.71,1.06c-.42,.26-.58,.7-.58,1.32,0,1.23,.13,2.11,.46,2.68,.29,.48,.96,.75,1.96,.75h8.53c1.09,0,1.88-.22,2.47-.66,.58-.35,1.04-1.58,1.42-3.61l3.26,1.54c-.63,2.51-1.38,4.14-2.21,4.84-.79,.66-1.75,1.01-2.84,1.01H15.67c-1.55,0-2.72-.53-3.51-1.58-.71-.97-1.04-2.33-1.04-4.09v-4.49l3.97,.57Zm24.91,5.99l-3.09,2.2c-1.59-2.55-3.3-4.67-5.22-6.51l2.47-2.07c1.96,1.67,3.93,3.78,5.85,6.38Z"/><path class="cls-1" d="M23.36,179.08v-2.42l3.43,.31c.63,.04,.96,.22,.96,.57,0,.22-.21,.57-.63,1.01v.53h8.65v5.85h3.72v3.43h-3.72v5.85h-8.65v2.73h9.11v3.43h-9.11v2.77h10.11v3.61h-10.11v4.84c2.21,.09,4.72,.13,7.48,.13,1.25,0,2.88-.04,4.89-.18l-1.8,4.31c-7.36,0-12.96-.26-16.88-.7-3.22-.35-5.85-.92-7.9-1.67-1.55-.57-2.93-1.28-4.1-2.07-1.38,1.98-3.05,3.65-5.06,4.97l-2.76-3.12c1.92-1.06,3.55-2.51,4.81-4.36-1.34-1.41-2.72-3.56-4.18-6.47l2.97-1.19c1.13,1.8,2.17,3.21,3.09,4.27,1-2.42,1.67-5.81,1.96-10.12h-3.43l-1.34,2.9-3.26-1.19,6.39-14.08H1.8v-3.61h7.02l1-.35c.33,0,.63,.13,.96,.35l2.05,1.32c.25,.18,.42,.4,.42,.57,0,.4-.33,.79-1,1.19l-4.35,9.29h5.35c-.25,7.04-1.04,12.28-2.38,15.62-.08,.26-.21,.48-.29,.66,1.84,1.23,3.89,2.07,6.18,2.51,1.46,.4,3.68,.66,6.6,.84v-4.67H13.25v-3.61h10.11v-2.77H14.54v-3.43h8.82v-2.73h-7.86v-3.43h7.86v-2.42H12.08v-3.43h11.28v-2.42h-7.86v-3.43h7.86Zm3.76,5.85h5.06v-2.42h-5.06v2.42Zm0,5.85h5.06v-2.42h-5.06v2.42Z"/><path class="cls-1" d="M10.57,221.28c.46,.09,.71,.22,.71,.44,0,.31-.29,.57-.84,.84-.21,.44-.42,.88-.58,1.23h9.91v3.08h-5.02c.58,1.41,1.09,2.73,1.42,3.96l-3.26,.66c-.5-1.67-1.13-3.21-1.8-4.62h-3.05c-1,1.63-2.17,3.21-3.47,4.8l-3.13-1.72c2.63-2.95,4.6-6.12,5.89-9.46l3.22,.79Zm7.73,25.88v-3.61l3.3,.31c.58,.04,.92,.22,.92,.53,0,.22-.21,.53-.63,.88v1.89h16.47v3.26h-14.25c1.92,1.41,3.93,2.51,5.93,3.3,2.13,.88,5.14,1.8,8.99,2.73l-3.76,3.61c-3.18-1.19-5.73-2.33-7.57-3.48-2.05-1.14-3.97-2.64-5.81-4.45v7.92h-3.59v-7.44c-2.01,1.8-4.01,3.26-5.98,4.36-2.17,1.14-4.72,2.2-7.73,3.08l-3.13-3.26c3.72-.92,6.94-2.02,9.61-3.26,1.63-.7,3.39-1.76,5.22-3.12H2.13v-3.26H18.31Zm-.84-14.96v3.26h-5.56v6.03c1.88-.13,3.72-.31,5.56-.53v2.95c-2.84,.44-7.27,1.01-13.37,1.72-.29,.35-.58,.48-.84,.48s-.38-.18-.38-.53l-.75-3.43c2.09-.09,4.14-.18,6.19-.35v-6.34H3.43v-3.26h14.04Zm15.17-.18v8.1c0,.79,.5,1.19,1.5,1.19,.58,0,1-.13,1.25-.4,.21-.22,.38-1.01,.54-2.38l3.09,.53c-.25,2.29-.71,3.83-1.42,4.53-.58,.53-1.71,.79-3.47,.79-2.17-.04-3.47-.44-3.89-1.19-.38-.57-.54-1.32-.54-2.25v-5.85h-2.97c-.08,1.36-.29,2.42-.54,3.12-.08,.26-.21,.53-.29,.75,.67,.48,1.34,.97,2.01,1.45l-2.13,2.42c-.63-.44-1.21-.88-1.8-1.32-.84,.75-1.96,1.41-3.43,2.02l-2.76-2.95c1.42-.26,2.47-.66,3.18-1.19-.75-.48-1.42-.92-2.05-1.36l1.8-2.42c.79,.48,1.59,.97,2.38,1.45,.21-.53,.38-1.19,.5-1.98h-4.85v-3.08h13.88Zm-5.93-10.74c.46,.09,.71,.22,.71,.44,0,.31-.29,.57-.79,.84-.21,.44-.42,.88-.59,1.23h11.66v3.08h-6.14c.54,1.41,.96,2.73,1.25,3.96l-3.26,.66c-.46-1.63-1-3.17-1.59-4.62h-3.51c-.96,1.63-2.05,3.21-3.22,4.8l-3.09-1.72c2.42-2.95,4.22-6.12,5.39-9.46l3.18,.79Z"/></g></g></svg>