<?xml version="1.0" encoding="UTF-8"?><svg id="_層_2" xmlns="http://www.w3.org/2000/svg" viewBox="0 0 121.3 427.84"><defs><style>.cls-1{fill:#231815;}</style></defs><g id="_層_1-2"><g><path class="cls-1" d="M85.18,21.98c-1.08,6.48-3.49,18.85-5.18,24.46l-4.82-2.54c2.98-5.62,6.31-15.93,8.26-22.52l1.74,.59Zm-1.85-7.67c-1.54-2.86-4.62-7.67-6.77-10.53l1.18-1.51c3.23,2.16,7.23,5.72,9.39,8.37l-3.8,3.67Zm34.37,36.02c-5.85-1.24-10.72-3.08-14.67-6.59-4.77,3.46-11.03,5.51-18.93,6.64l-.46-1.89c7.18-1.51,12.88-4,16.98-7.34-1.59-2-3.03-4.37-4.26-7.34-2.46,3.29-5.54,6.1-9.13,8.42l-1.03-1.4c5.28-4.37,8.98-10.15,10.72-16.96l4.05,1.4c-.51,1.4-1.08,2.7-1.74,4h8.26l.72-.7,4.46,1.94c-1.64,4.43-3.85,7.94-6.72,10.75,4,2.27,8.77,3.19,14.42,3.67l-2.67,5.4Zm-23.14-33.86h-7.39v-2.43h12.31v-5.35h-9.34v-2.43h9.34V0h4.51V6.26h10.31v2.43h-10.31v5.35h13.7v2.43h-9.8v2.81c0,2.59,1.03,2.75,4.26,2.7,3.28-.05,4.26-.54,5.08-1.35l1.69,3.4c-1.18,1.03-2.36,1.73-6.72,1.73-6.46,0-8.52-.49-8.52-5.78v-3.51h-4.67c-.92,5.83-4.87,11.23-12.67,13.61l-.77-1.78c6.62-3.19,8.26-7.07,8.98-11.83Zm2.87,15.82c1.54,2.86,3.33,5.08,5.39,6.8,2.05-2.16,3.54-4.64,4.41-7.4h-9.39c-.15,.22-.26,.43-.41,.59Z"/><path class="cls-1" d="M99.91,98.87h19.24v2.97h-43.04v-2.97h19.08v-11.77h-13.9v-2.7h32.73v2.7h-14.11v11.77Zm-18.83-26.3h-4.51v-10.91h21.65c-2.36-2.16-5.95-4.91-8.46-6.75l.72-1.84c3.33,.81,8.82,2.7,11.8,4.54l-2.46,4.05h18.67v10.53h-4.51v-8.1h-8.98v8.96c0,2,.56,2.75,4.82,2.75,3.69,0,5.03,.11,6.93-1.78l2.57,3.67c-1.74,2.38-4.67,2.48-10.82,2.48-7.13,0-7.9-1.57-7.9-5.83v-10.26h-6.16l-.05,2.59c-.15,9.18-7.59,15.23-16.93,17.23l-.62-1.84c7.13-2.54,12.77-7.4,12.93-15.71l.05-2.27h-8.72v8.48Z"/><path class="cls-1" d="M93.29,125.66c-1.08,2.43-2.72,5.08-4.62,7.67l-.15,24.68h-4.46v-19.28c-2.92,2.97-6.16,5.67-9.39,7.61l-.97-1.62c6.41-5.67,11.85-13.18,14.57-21.28l5.03,2.21Zm26.83-11.5v2.43h-12.36v6.43h-4.51v-6.43l-11.54,.05v5.72h-4.51v-5.72h-12.31v-2.43h12.31v-6.43h4.51v6.43l11.54-.05v-6.37h4.51v6.37h12.36Zm-2.15,28.78c3.13,10.26,1.85,13.28-3.75,13.66-3.23,.22-6.05,.22-9.29,0-5.18-.32-7.03-.92-7.03-6.7v-24.68h4.72v14.31c4-2.7,7.34-6.26,10.41-10.53l4.82,3.29c-4.26,3.78-9.64,7.4-15.24,9.4v7.94c0,2.05,.46,2.38,2.87,2.59,2.51,.22,4.92,.27,7.44,0,2.98-.32,3.39-1.24,3.18-9.23l1.85-.05Z"/><path class="cls-1" d="M117.71,164.05v47.68h-4.51v-3.19h-31.5v3.29h-4.51v-47.79h40.53Zm-4.51,2.43h-31.5v39.64h31.5v-39.64Zm-29.7,31.75l-.62-1.84c3.49-1.46,7.13-3.35,9.9-5.83h-5.9v-8.8h21.03v8.8h-9.64c-1.08,1.03-2.26,1.94-3.49,2.7v5.51c2.05-.59,3.95-1.19,5.39-1.67l.72,1.78c-4.16,2.48-11.18,5.13-14.83,6.16l-1.44-3.83c1.69-.27,3.8-.76,5.95-1.3v-4.27c-2.72,1.24-5.23,2.05-7.08,2.59Zm28.06-18.79h-28.37v-2.43h12v-3.13h-9.9v-2.43h9.9v-3.56h4.41v3.56h9.95v2.43h-9.95v3.13h11.95v2.43Zm-20.37,8.75h12.41v-4.05h-12.41v4.05Zm20.88,4.48c-1.64,1.57-3.85,2.92-5.75,4,2.16,1.3,4.21,2.75,5.95,4.21l-3.03,3.78c-3.44-3.62-6.98-7.07-11.59-10.53l.87-1.67c1.9,.86,3.95,1.89,5.95,3.08,1.59-1.67,3.23-3.73,4.31-5.45l3.28,2.59Z"/><path class="cls-1" d="M121.3,259.63l-3.74,6.16c-4.92-2.38-15.8-12.64-18.47-31.54-2.67,16.42-12.52,27.43-23.6,31.91l-.92-1.84c8.93-5.35,16.93-14.2,19.34-31.1h-17.65v-2.97h18.01c.1-1.24,.21-2.54,.26-3.83,.15-3.29,.21-7.18,.26-10.75l5.23,.16c0,4.27-.1,8.15-.31,12.31l-.15,2.11h19.34v2.97h-18.06c3.8,15.5,13.49,23.17,20.47,26.41Z"/><path class="cls-1" d="M85.18,292.14v27.87h-4.31v-25.17c-1.08,3.73-2.82,8.05-5.18,12.15l-1.49-1.19c2.51-6.1,4.67-13.66,5.85-22.36h-4.82v-2.43h5.64v-11.39h4.31v11.39h4.16v2.43h-4.16v4.75c1.74,1.73,3.39,3.51,4.77,5.72v-4.64h14.31v11.39h-14.31v-5.56l-2.92,2c-.56-1.67-1.18-3.4-1.85-4.97Zm22.57,18.68c-5.9,3.24-13.95,5.99-19.6,7.34l-1.54-4.97c3.49-.27,7.44-.92,11.24-1.73,.77-2.97,1.33-6.37,1.74-9.77l4.41,1.35c-1.38,3.56-2.46,5.78-3.74,7.88,2.51-.65,4.87-1.3,6.82-1.94l.67,1.84Zm-12.77-31.86h-6.77v-2.43h6.77v-6.7h4.41v6.7h7.28v2.43h-7.28v5.18h5.49v2.27h-15.08v-2.27h5.18v-5.18Zm-4.92,23.6l1.74-.65c1.85,2.43,3.49,5.62,4.31,7.88l-3.9,1.57c-.36-2.21-1.18-5.67-2.15-8.8Zm3.9-4.32h6.31v-6.59h-6.31v6.59Zm26.37-12.26h-3.59v28.57c0,5.99-4.98,7.72-12.77,1.51l.67-1.78c6.46,2.05,7.69,1.35,7.69-1.08v-27.22h-6.41v-2.43h6.41v-13.61h4.41v13.61h3.59v2.43Zm-12.93,19.28c-.26-4.27-.77-8.8-1.74-13.61l1.69-.49c1.95,4.37,3.64,9.4,4.26,13.18l-4.21,.92Z"/><path class="cls-1" d="M120.07,364.82l-3.39,5.18c-5.28-3.4-9.49-9.5-12.06-17.88-.92,.43-1.95,.86-2.98,1.3,1.18,3.35,1.85,6.86,1.8,9.99-.21,11.77-6.26,13.01-14.31,6.7l.72-1.84c7.13,2.38,8.82,1.57,8.98-7.18,0-.54,0-1.13-.05-1.73-3.59,3.78-10.77,8.42-22.21,11.45l-.62-1.84c9.75-3.62,17.03-8.86,21.96-15.12-.21-.86-.41-1.73-.67-2.54-5.23,4.27-12.83,7.45-20.11,9.4l-.62-1.84c7.44-2.81,14.21-6.86,18.98-12.04-.31-.7-.67-1.3-1.03-1.89-4.77,2.86-10.77,4.97-16.16,6.16l-.51-1.84c8.05-2.86,12-5.35,15.39-8.8h-10.46v-2.43h29.6v2.43h-12.11c-1.08,1.19-2.41,2.27-3.85,3.29,1.74,2.05,3.33,4.81,4.57,7.83,3.8-2.81,6.31-5.62,8.62-8.96l4.46,3.19c-2.57,2.21-4.98,4-7.7,5.45,3.23,6.53,8.62,11.29,13.75,13.55Zm-39.19-23.71h-4.51v-10.48h22.32c-2.56-1.84-5.95-4.1-8.62-5.83l.67-1.84c3.28,.65,8.72,2.38,11.7,4l-2,3.67h18.31v10.48h-4.51v-8.05h-33.34v8.05Z"/><path class="cls-1" d="M117.71,380.05v47.68h-4.51v-3.19h-31.5v3.29h-4.51v-47.79h40.53Zm-4.51,2.43h-31.5v39.64h31.5v-39.64Zm-29.7,31.75l-.62-1.84c3.49-1.46,7.13-3.35,9.9-5.83h-5.9v-8.8h21.03v8.8h-9.64c-1.08,1.03-2.26,1.94-3.49,2.7v5.51c2.05-.59,3.95-1.19,5.39-1.67l.72,1.78c-4.16,2.48-11.18,5.13-14.83,6.16l-1.44-3.83c1.69-.27,3.8-.76,5.95-1.3v-4.27c-2.72,1.24-5.23,2.05-7.08,2.59Zm28.06-18.79h-28.37v-2.43h12v-3.13h-9.9v-2.43h9.9v-3.56h4.41v3.56h9.95v2.43h-9.95v3.13h11.95v2.43Zm-20.37,8.75h12.41v-4.05h-12.41v4.05Zm20.88,4.48c-1.64,1.57-3.85,2.92-5.75,4,2.16,1.3,4.21,2.75,5.95,4.21l-3.03,3.78c-3.44-3.62-6.98-7.07-11.59-10.53l.87-1.67c1.9,.86,3.95,1.89,5.95,3.08,1.59-1.67,3.23-3.73,4.31-5.45l3.28,2.59Z"/><path class="cls-1" d="M37.5,48.22c-2.1-1.3-4.51-3.73-6.57-8.15-3.23,3.02-7.03,5.51-11.65,7.51l-.92-1.73c4.16-2.43,7.85-5.51,11.03-9.5-1.54-4.54-2.72-10.64-3.23-18.79h-9.34l-.05,8.69c2.67-.92,5.18-1.84,7.7-2.86l.77,1.78c-2.57,1.84-5.44,3.51-8.46,5.08l-.1,13.61c-.05,6.75-4.98,8.86-13.08,2.54l.62-1.84c6.52,1.78,8.11,1.84,8.11-2.21v-10.1c-3.03,1.3-6.26,2.43-9.49,3.4l-1.8-5.4c3.9-.65,7.64-1.51,11.29-2.59l.05-10.1H1.28v-2.43H12.36v-7.02c-3.13,.65-6.46,1.13-9.8,1.51l-.36-1.94C10.11,5.67,15.29,3.94,20.31,.49l4.16,3.94c-2.15,1.08-4.72,1.94-7.54,2.65l-.05,8.05h9.18c-.05-.38-.05-.76-.05-1.13-.1-3.29-.26-10.15-.31-13.99h4.51c.05,4.21,.15,10.04,.26,13.5,0,.54,.05,1.08,.05,1.62h14.57v2.43h-14.42c.36,5.83,1.08,10.42,2.05,14.04,1.95-3.24,3.59-6.91,4.98-11.12l4.62,2.16c-2.26,5.29-4.82,9.88-7.95,13.77,2.31,5.56,5.18,7.51,6.87,8.05,1.69,.54,1.85-2.43,1.54-9.29h1.85c3.75,11.45,1.54,18.25-7.13,13.07Zm.97-35.75c-1.64-3.29-3.69-7.02-5.69-10.15l1.38-1.4c3.18,2.21,6.41,5.4,8.46,8.21l-4.16,3.35Z"/><path class="cls-1" d="M16.26,90.72l5.18,2.92c-5.03,4.91-13.8,9.07-20.42,10.91l-.72-1.84c7.08-3.51,12.11-7.18,15.95-11.99Zm30.01-.54H.92v-2.43H5.28c-.26-10.37-.62-19.22-1.13-29.7l4.16,.59c2.26-1.62,4-3.35,5.8-5.35l3.74,3.56c-2.51,1.57-6.26,3.13-9.03,4.05l.15,5.99h6.67v2.27h-6.57c.05,2.43,.1,4.91,.21,7.34h6.46v2.27h-6.41c.1,2.97,.15,5.99,.26,8.96h6.57c.67-4.81,1.08-8.37,1.54-13.34l4.31,.81c-.46,4.75-.87,7.99-1.54,12.53h4.16c.41-4.7,.82-11.66,1.13-16.74h-4.46c-.1,.76-.26,1.46-.36,2.16l-4.21-.59c.87-5.94,1.74-12.85,2.31-18.79l4.31,.54c-.15,1.94-.41,4.1-.67,6.32h8.26v2.43h-8.57c-.21,1.84-.46,3.73-.72,5.56h8.67c-.31,5.45-.82,13.82-1.33,19.12h7.8l.51-8.48h-5.69v-2.27h5.8l.46-7.29h-6.05v-2.27h6.21l.46-7.88h-6.77v-2.43h11.18l-1.8,30.62h5.18v2.43Zm.72,9.13l-3.39,5.29c-4.77-4.32-10.46-8.15-16.52-11.56l.72-1.84c6.41,1.73,12.62,4,19.19,8.1Z"/><path class="cls-1" d="M1.33,132.25l-1.08-1.51c4.92-4.7,7.54-8.64,9.64-13.72H2.51v-2.43H11.03v-6.75h4.31v6.75h7.44v2.43h-7.44v.76c2.62,1.51,5.39,3.35,7.7,5.62l-2.82,3.29c-1.9-2.81-3.23-4.43-4.87-6.43v11.93h-4.31v-9.94c-2.36,3.89-5.54,7.13-9.7,9.99Zm43.61,11.12c2.51,9.99,1.85,12.42-2.98,12.8-2.67,.22-4.87,.27-7.54,.05-4.51-.38-5.44-1.24-5.44-5.72v-13.77l-11.75-.05c0,9.72-1.69,19.06-15.18,21.76l-.62-1.84c10.57-3.56,10.98-9.94,10.98-22.3h20.98v15.17c0,1.57,.36,2.32,1.8,2.48,2.21,.27,3.8,.32,6,0,1.9-.27,2.1-2,1.9-8.59h1.85Zm-17.24,4.75l-4.1,2.97c-1.54-3.62-3.33-6.97-5.44-10.37l1.38-1.24c3.28,2.65,6.05,5.67,8.16,8.64Zm2.1-31.1h-6v-2.43h7.49v-6.7h4.31v6.7h8.82v2.43h-8.26c2.21,3.83,7.13,7.67,11.13,9.77l-2.87,4.37c-3.28-2-6.62-6.59-8.82-10.96v11.99h-4.31v-10.85c-2.46,4.05-6.52,7.83-10.62,10.58l-1.08-1.51c4.36-3.89,8-8.42,10.21-13.39Z"/><path class="cls-1" d="M47.55,188.95l-3.23,5.89c-6.31-2.48-14.72-8.26-20.01-18.25-5.69,8.21-13.7,14.42-23.44,18.58l-.87-1.73c10.21-5.99,16.98-13.45,21.65-23.33l5.39,2.11c-.46,.86-.98,1.73-1.49,2.54,4.82,6.43,11.39,11.02,22.01,14.2ZM2.97,179.71l-.97-1.67c4.77-3.94,9.44-9.13,13.08-15.98l4.98,3.02c-3.85,5.4-11.44,11.83-17.08,14.63Zm6.57,12.1h28.32v19.93h-4.62v-3.29H14.16v3.62h-4.62v-20.25Zm4.62,14.2h19.08v-11.77H14.16v11.77Zm11.95-41.69l.97-1.67c5.9,2.59,12.67,7.29,16.57,10.8l-4,4.75c-3.18-3.94-8.46-9.34-13.54-13.88Z"/><path class="cls-1" d="M12.88,237.76v27.97h-4.41v-22.73c-2.51,2.65-4.98,4.54-6.82,5.72l-1.18-1.62c3.54-3.4,9.9-10.69,13.34-20.9l4.41,2c-1.49,3.62-3.33,6.8-5.33,9.56Zm32.93-12.1H1.13v-2.43H25.29c-2.56-2.11-5.9-4.37-8.57-5.89l.72-1.89c3.18,.7,8.31,2.11,11.85,4l-2.26,3.78h18.78v2.43Zm-2.05,40.18c-3.69-1.62-8.52-3.73-12.93-7.99-4.31,3.89-9.54,6.16-15.8,8.26l-.77-1.78c5.75-2.65,10.31-5.56,13.9-9.34-2.56-3.13-4.87-7.13-6.67-12.37-1.95,2.75-3.95,5.13-5.69,6.59l-1.28-1.51c4-4.91,7.75-12.85,9.64-21.49l4.82,1.57c-.51,1.78-1.28,3.67-2.16,5.56h9.95l1.23-.92,4.41,2c-2.05,9.29-4.87,15.61-8.52,20.14,4.62,3.13,9.39,4.48,13.24,5.51l-3.39,5.78Zm-13.08-13.93c2.92-4.16,4.98-9.34,6.26-16.15h-11.29c-.87,1.62-1.79,3.24-2.77,4.81,2.15,4.97,4.87,8.64,7.8,11.34Zm2.98-7.51l-3.85,2.75c-1.13-2.7-2.92-6.43-4.26-8.53l1.38-1.35c2.21,1.78,4.92,4.7,6.72,7.13Z"/><path class="cls-1" d="M39.91,318.17c-7.23,.05-8.46-1.24-8.46-5.4v-11.88c-4,12.47-13.13,17.12-18.42,19.22l-.82-1.78c4.51-2.65,12.06-6.64,15.24-18.85h-4.31v3.56h-4.31v-15.61c-.72,.7-1.49,1.4-2.26,2.11l-.62-.81v23.38h-4.21v-4.27H6.82v5.78H2.51v-39.75H15.95v13.39c4.46-5.94,7.08-12.04,8.52-17.93l5.03,1.67c-.62,1.62-1.33,3.24-2.1,4.75h5.69l1.18-1.03,5.13,2.86c-2,2.75-4.26,5.35-6.88,7.56h10.98v16.85h-4.31v-2.54h-3.33v11.61c0,2.16,.36,2.65,3.39,2.7,3.64,.05,3.75-.97,3.64-8.32h1.85c3.44,10.53,.72,12.64-4.82,12.69Zm-33.09-29.05h4.92v-12.8H6.82v12.8Zm4.92,16.31v-13.88H6.82v13.88h4.92Zm14.31-27.22c-1.44,2.43-3.13,4.75-5.08,6.97h8.67c1.49-2.32,2.82-4.75,3.64-6.97h-7.23Zm1.95,18.85c.51-2.75,.87-5.89,.92-9.45h-5.8v9.45h4.87Zm11.18-9.45h-5.75c-.05,3.51-.41,6.64-.97,9.45h6.72v-9.45Z"/><path class="cls-1" d="M21.7,350.41l-3.64,2.97c-1.33-2.75-2.57-5.24-3.8-7.56v27.86h-4.41v-27.05c-2.05,5.35-5.75,11.93-8.41,15.12l-1.38-1.24c2.67-4.54,6.77-13.61,8.72-22.73H1.33v-2.43H9.85v-11.5h4.41v11.5h6.87v2.43h-6.87v4.64c2.92,2.59,5.49,5.18,7.44,7.99Zm21.6-23v45.79h-4.51v-4.48l-11.95,.05v4.91l-4.51-.05v-46.22h20.98Zm-4.51,2.43l-11.95,.05v9.88l11.95-.05v-9.88Zm0,12.31l-11.95,.05v10.37l11.95-.05v-10.37Zm0,12.8l-11.95,.05v11.34l11.95-.05v-11.34Z"/><path class="cls-1" d="M44.32,396.14c-1.13-.38-2.36-.92-3.75-1.57v12.1H6.46v-11.99c-1.8,.81-3.69,1.57-5.54,2.21l-.72-1.84c8.41-3.67,18.47-12.31,22.42-18.14l4.77,2.54c-.41,.43-.82,.92-1.23,1.4,6.98,5.89,15.39,9.02,20.67,10.26l-2.51,5.02Zm-4.77-2.11c-2.56-1.35-5.44-3.19-8.21-5.4v2.32H15.9v-1.62c-2.51,1.73-5.28,3.29-8.11,4.7h31.75Zm-30.16,15.88h28.27v17.87h-4.41v-2.48H13.8v2.48h-4.41v-17.87Zm2.77-12.74l.77-.7h-2.15v7.78h5.23c-1.13-2.27-2.77-5.4-3.85-7.07Zm1.64,15.17v3.89h19.44v-3.89H13.8Zm19.44,10.53v-4.27H13.8v4.27h19.44Zm-11.9-26.41h-7.34c1.95,1.51,4.36,4,5.75,5.83l-2.56,1.94h4.16v-7.78Zm-4.21-7.94h14.11c-2.26-1.84-4.46-3.94-6.46-6.26-2.15,2.11-4.77,4.21-7.64,6.26Zm8.52,7.94v7.78h2.36l-.72-.7c1.33-2.11,2.57-4.48,3.69-7.07h-5.33Zm10.47,0h-4.26l3.23,1.94c-2.1,2.43-4.31,4.59-5.9,5.83h6.93v-7.78Z"/></g></g></svg>