<?xml version="1.0" encoding="UTF-8"?><svg id="_層_2" xmlns="http://www.w3.org/2000/svg" viewBox="0 0 38.99 363.36"><defs><style>.cls-1{fill:#956134;}</style></defs><g id="_層_1-2"><g><path class="cls-1" d="M5.56,3.87c.63,.09,.96,.26,.96,.57,0,.18-.25,.48-.67,.88V25.92c2.17-.79,4.31-1.67,6.39-2.68V0l3.43,.26c.63,.09,.96,.26,.96,.57,0,.22-.25,.57-.67,1.06V40.53h-3.72v-13.77c-2.51,1.32-5.81,2.95-9.99,4.84-.25,.62-.54,.88-.79,.88-.29,0-.46-.22-.5-.7l-.96-4.14c.75-.18,1.5-.35,2.26-.57V3.61l3.3,.26ZM26.75,.88c.42,.13,.67,.35,.67,.66s-.38,.57-1.13,.84c-.29,1.58-.58,2.95-.88,4.14h12.62v3.78h-2.8v.84c0,5.99-.42,10.61-1.25,13.95-.54,2.46-1.42,4.62-2.59,6.47,2.01,2.02,4.56,4,7.61,5.9l-2.92,3.26c-2.84-2.02-5.18-4-7.06-6.03-2.3,2.42-5.43,4.31-9.45,5.72l-2.76-3.79c4.01-.88,7.11-2.46,9.36-4.8,.08-.09,.17-.18,.25-.26-.46-.62-.88-1.23-1.21-1.85-1.88-2.9-3.18-7.04-3.93-12.37-.58,1.01-1.17,1.98-1.84,2.95l-2.97-2.6c1.92-2.6,3.38-5.33,4.39-8.19,.75-1.94,1.46-5.06,2.13-9.37l3.76,.75Zm-2.42,14.74c.58,5.24,1.92,9.29,3.93,12.19,.12,.26,.25,.44,.42,.62,.54-1.05,1-2.29,1.38-3.65,.96-3.08,1.46-7.66,1.46-13.64v-.84h-7.15c-.17,.57-.33,1.06-.5,1.5-.5,1.32-1.09,2.69-1.8,4.09l2.26-.26Z"/><path class="cls-1" d="M11.58,67.02c0,3.56-.29,6.78-.88,9.59-.42,2.11-1.21,4.71-2.38,7.92l-3.43-1.71c1.17-2.69,1.92-5.02,2.34-7.09,.25-1.23,.42-2.51,.58-3.74h-1.8c-.33,2.46-.63,4.27-.96,5.5-.54,1.85-1.21,3.52-1.96,5.02l-3.09-2.07c.84-1.41,1.46-2.82,1.88-4.27,.33-1.14,.58-2.51,.84-4.18H.79v-3.26h7.31c0-.57,.04-1.14,.04-1.72v-2.07H1.46v-10.3l3.05,.22c.58,.04,.88,.18,.88,.44,0,.22-.25,.53-.67,.88v6.03h3.43v-7.09H26.12v-2.73l3.26,.7c.42,.09,.63,.26,.63,.48,0,.35-.17,.7-.46,1.06v.48h3.26c-.75-.88-1.46-1.58-2.13-2.2l2.3-2.07c1.09,.88,2.17,1.98,3.26,3.26l-1.13,1.01h2.42v3.48h-7.9c.12,4.8,.54,8.89,1.3,12.23,0,.18,.04,.31,.08,.44,.13-.26,.25-.57,.33-.84,.83-2.24,1.46-4.88,1.96-7.92l3.13,1.19c.25,.09,.42,.31,.42,.57,0,.18-.21,.31-.63,.48-.75,3.26-1.5,5.85-2.3,7.74-.5,1.14-1,2.16-1.55,3.04,.42,.97,.84,1.8,1.3,2.51,.54,.79,1,1.14,1.42,1.14,.25,0,.63-.84,1.13-2.55l2.76,2.55c-1.46,3.21-2.72,4.84-3.76,4.84-.96,0-2.13-.93-3.55-2.73-.58-.79-1.09-1.59-1.59-2.55-1.55,1.76-3.76,3.61-6.6,5.46l-2.59-2.42c1.67-.92,3.01-1.76,4.1-2.6H15.84v.88h-3.13v-18.92h12.41v2.95h-4.05v2.2h4.05v7.75h-3.93v2.07h4.26v2.73c1.25-.97,2.3-2.07,3.22-3.35-.5-1.41-.96-2.9-1.3-4.58-.63-3.04-1-7.13-1.17-12.32H11.58v8.41Zm.33-20.11v-2.77l3.18,.26c.58,.04,.88,.18,.88,.44,0,.22-.21,.57-.63,1.06v1.01h7.98v-2.77l3.18,.26c.58,.04,.92,.18,.92,.44,0,.22-.25,.57-.67,1.06v1.01h11.45v3.08h-11.45v2.07h-3.43v-2.07h-7.98v2.24h-3.43v-2.24H.96v-3.08H11.91Zm6.35,19.41v-2.2h-2.42v2.2h2.42Zm3.76,5.19v-2.6h-6.19v2.6h6.19Zm-3.59,4.62v-2.07h-2.59v2.07h2.59Z"/><path class="cls-1" d="M11.41,107.23c.42,.13,.67,.31,.67,.53,0,.13-.12,.31-.33,.53-.25,.09-.67,.66-1.17,1.72h8.36v-3.61l3.43,.26c.63,.09,.96,.27,.96,.57,0,.22-.21,.57-.63,1.06v1.72h12.87v3.43h-12.87v3.61h10.74v3.26h-10.74v3.43h14.5v3.43H1.46v-3.43H18.93v-3.43H8.65v-3.26h10.28v-3.61H8.82c-1.09,1.94-2.26,3.79-3.59,5.5l-3.59-2.07c2.67-2.99,4.85-6.6,6.52-10.83l3.26,1.19Zm21.9-17.34v15.62H6.85v-15.62h26.46Zm-3.76,6.34v-2.9H10.62v2.9H29.55Zm0,3.08H10.62v2.77H29.55v-2.77Z"/><path class="cls-1" d="M20.9,132.79c.63,.09,.96,.26,.96,.57,0,.22-.25,.57-.67,1.01v3.26h16.34v13.25h-3.76v-9.77h-9.45v4.8c0,1.14,.42,1.72,1.29,1.72h2.3c.5,0,.92-.13,1.21-.48,.25-.26,.5-1.19,.75-2.77l3.55,1.01c-.33,2.29-.88,3.74-1.59,4.4-.75,.75-1.75,1.1-2.97,1.1h-4.1c-2.72,0-4.05-1.01-4.05-3.08v-6.69H5.22v9.77H1.46v-13.25H17.47v-5.15l3.43,.31Zm11.41,21.52v3.61h-10.95v8.45h16.17v3.79H1.46v-3.79H17.47v-8.45H6.85v-3.61h25.45Zm-15.34-10.78c.42,.18,.67,.4,.67,.66s-.33,.48-1,.71c-1.17,1.5-2.26,2.82-3.34,4-.96,1.01-2.38,2.2-4.3,3.52l-2.97-2.73c1.67-.88,3.13-1.89,4.39-3.12,1.17-1.1,2.38-2.51,3.64-4.27l2.92,1.23Z"/><path class="cls-1" d="M17.72,202.49c0-.35,.04-.66,.04-1.01v-7.22c0-.88-.13-1.98-.29-3.3l4.14,.35c.71,.04,1.09,.22,1.09,.53,0,.48-.33,.93-1,1.37v8.27c0,.35-.04,.7-.04,1.01h15.71v3.79h-15.63c1.5,5.06,3.55,9.06,6.14,12.01,2.38,3.17,6.02,5.85,10.95,8.1l-3.43,4.14c-4.22-2.33-7.77-5.5-10.62-9.59-1.67-2.33-3.18-5.19-4.43-8.63-.33,1.14-.67,2.16-1.04,3.12-1.3,3.12-3.64,6.16-7.02,9.07-2.47,2.2-5.35,4.18-8.69,6.03l-3.43-3.26c3.47-1.76,6.19-3.39,8.15-4.97,3.13-2.38,5.31-4.8,6.56-7.26,1.29-2.55,2.17-5.5,2.59-8.76H1.63v-3.79H17.72Z"/><path class="cls-1" d="M11.95,235.71c.38,.09,.58,.26,.58,.48,0,.26-.21,.57-.63,.84l-1.8,3.78h6.19v12.23H5.52v4.09h11.28v15.14h-3.59v-2.24H5.52v4.14H1.96v-33.36H6.39l2.42-6.03,3.13,.92Zm.75,13.86v-5.32H5.52v5.32h7.19Zm.5,17.03v-6.03H5.52v6.03h7.69Zm24.99-28.69v3.61h-8.48v6.03h7.31v18.53c0,1.89-.67,3.12-2.01,3.65-1.09,.44-2.17,.66-3.22,.66l-1.46-3.78,2.17-.09c.58-.04,.92-.57,.92-1.63v-13.73h-3.72v23.54h-3.76v-23.54h-3.76v19.05h-3.59v-22.66h7.36v-6.03h-8.32v-3.61h20.56Z"/><path class="cls-1" d="M34.27,281.2v3.61h-12.75v6.73c0,1.1-.08,2.11-.17,3.08h16.01v3.79h-14.92c1.42,4.05,3.38,7.3,5.89,9.68,2.3,2.6,5.85,4.8,10.66,6.64l-3.26,3.96c-4.14-1.94-7.61-4.58-10.41-8.01-2.13-2.55-3.93-5.81-5.43-9.86-.67,1.94-1.55,3.79-2.59,5.5-2.76,4.75-7.06,8.89-12.91,12.54l-4.1-2.07c6.23-3.56,10.53-7.26,12.92-11.09,1.59-2.42,2.72-4.84,3.47-7.3H1.63v-3.79h15.84c.12-1.05,.17-2.07,.17-3.08v-6.73H4.56v-3.61h29.71Z"/><path class="cls-1" d="M10.45,324.37c.17-.35,.33-.53,.46-.53l2.97,2.42-2.67,6.56c3.01-2.46,5.52-5.85,7.57-10.17l2.42,.92c.33,.18,.5,.31,.5,.44,0,.18-.17,.31-.5,.35-.29,.53-.58,1.06-.84,1.54h3.26c.5-.35,.84-.53,1.04-.53,.08,0,.54,.44,1.42,1.23-.08-.18-.12-.35-.12-.53l2.76-.35c.71,3.65,1.84,6.51,3.39,8.62,.04,.09,.12,.18,.21,.27l2.3-5.99h-4.26v-3.08h4.76l.79-.35c.29,0,.59,.13,.88,.31l1.84,1.23c.25,.18,.38,.35,.38,.53,0,.35-.29,.7-.79,1.01l-3.64,9.02c1.13,1.14,2.51,2.24,4.1,3.39l-3.09,2.38c-.79-.71-1.5-1.41-2.13-2.11v2.29h-15v-2.33c-1.25,.97-2.67,1.8-4.22,2.51l-2.13-2.55c1.88-.7,3.51-1.54,4.85-2.51,.08-.04,.12-.09,.17-.13-1.09-1.19-2.26-2.29-3.47-3.34-.5,.48-.96,.92-1.38,1.32l-1.63-1.94-1.34,3.3c2.26,3.26,3.43,6.25,3.43,8.98s-.58,5.02-1.75,6.64c-1.17,1.67-2.63,2.46-4.43,2.46l-1.3-3.61c1.67-.4,2.8-1.1,3.34-2.11,.46-.84,.71-2.07,.71-3.74,0-2.11-1.17-4.84-3.43-8.27l3.68-10.3H4.72v35.73H1.3v-38.99H10.45Zm9.74,29.31c.25,.22,.38,.39,.38,.57,0,.31-.25,.48-.67,.53-1.42,2.07-3.51,4.27-6.19,6.69l-3.09-2.55c2.51-1.67,4.89-3.96,7.15-6.87l2.42,1.63Zm17.34-7.13v3.43h-9.95v8.4c0,1.45-.38,2.51-1.13,3.21-.63,.71-2.17,1.1-4.6,1.1l-1.46-3.79h2.3c.75,0,1.21-.4,1.29-1.23v-7.7H14.21v-3.43h23.32Zm-18.39-10.17c.38-.44,.75-.88,1.13-1.41,0,0,.04-.04,.08-.09-1.25-1.19-2.51-2.29-3.8-3.3-.42,.53-.75,.97-1.09,1.32,1.38,1.14,2.59,2.29,3.68,3.48Zm2.63-3.96c.5-1.01,.96-2.16,1.46-3.43h-4.76c-.12,.18-.21,.35-.29,.44,1.34,.97,2.55,1.94,3.59,2.99Zm10.91,7.75c-.67-.71-1.21-1.37-1.71-1.98-1.34-1.76-2.34-3.52-3.01-5.28-.5-1.06-.96-2.38-1.38-4.05-.29,.48-.67,1.28-1.09,2.33-1.38,3.35-2.84,5.77-4.35,7.3-.58,.62-1.17,1.19-1.8,1.67h13.33Zm5.98,18.57l-2.93,2.73c-2.76-2.64-4.81-5.19-6.19-7.7l2.59-1.58c1.8,2.55,3.97,4.71,6.52,6.56Z"/></g></g></svg>