<?xml version="1.0" encoding="UTF-8"?><svg id="_層_2" xmlns="http://www.w3.org/2000/svg" viewBox="0 0 39.83 392.05"><defs><style>.cls-1{fill:#956134;}</style></defs><g id="_層_1-2"><g><path class="cls-1" d="M14.54,2.38V15.97h-3.59v7.22h4.22v3.26h-4.22v7.31c1.67-.44,3.3-.93,4.89-1.45v3.08c-2.84,.97-7.23,2.29-13.25,3.96-.25,.44-.54,.71-.79,.71s-.38-.22-.38-.57l-.75-3.56c.5-.09,1-.18,1.46-.27v-15.71l2.67,.22c.5,.04,.75,.18,.75,.44,0,.18-.17,.39-.5,.7v13.86c.92-.18,1.8-.35,2.63-.57V15.97H2.13V2.38H14.54Zm-3.3,3.12H5.39v7.39h5.85V5.5Zm12.29-1.05c.25-1.32,.46-2.82,.63-4.45l3.64,.26c.5,.09,.79,.31,.79,.57,0,.18-.42,.53-1.17,1.06-.17,.97-.33,1.8-.5,2.55h10.95v3.61h-5.64c.5,.97,1.04,1.85,1.63,2.6,1.3,1.76,3.22,3.48,5.81,5.15l-3.76,2.42c-1.34-1.32-2.42-2.55-3.26-3.7v3.17h-10.78v-2.82c-1,1.05-2.34,2.2-4.05,3.52l-3.09-1.89c2.05-1.36,3.51-2.55,4.35-3.52,1.34-1.32,2.47-2.9,3.38-4.8,0-.04,.04-.09,.04-.13h-5.85v-3.61h6.9Zm14.67,15.84v3.26h-10.95l-2.13,4.27h11.95c0,4.93-.33,8.01-1,9.29-.42,1.23-1.34,2.07-2.72,2.51-1.42,.53-3.89,.79-7.4,.79l-1.63-3.79c3.76,0,6.02-.13,6.77-.35,.67-.18,1.17-.62,1.59-1.32,.42-.53,.71-1.8,.88-3.83h-10.07l-1.46,2.9-3.89-.18,5.1-10.3h-6.77v-3.26h21.73Zm-5.64-5.85c-.58-.7-1-1.36-1.34-1.98-.71-1.23-1.34-2.73-1.92-4.4h-3.3c-.33,1.06-.71,1.89-1.09,2.6-.75,1.41-1.63,2.68-2.63,3.78h10.28Z"/><path class="cls-1" d="M8.65,49.5v-5.19l3.3,.31c.63,.09,.96,.26,.96,.57,0,.18-.25,.48-.67,.84v3.47h6.52v3.61h-6.52v4.62h7.36v3.61h-6.06v5.33h5.06v3.61h-5.06v7.53c1.25,.48,2.59,.84,4.01,1.06,2.88,.62,8.69,.88,17.39,.88h4.39l-1.63,3.79c-7.02,0-12.45-.22-16.22-.57-3.09-.26-5.6-.7-7.56-1.32-2.38-.7-4.43-1.71-6.1-3.12-.67-.48-1.38-1.19-2.09-2.07-.08,.22-.12,.44-.12,.62-.5,2.64-1.09,4.93-1.84,7l-3.43-2.42c.84-1.94,1.55-4.53,2.13-7.7,.42-2.38,.79-5.76,1.13-10.16l3.51,.84c.46,.13,.71,.31,.71,.53,0,.35-.29,.71-.79,1.01-.25,2.38-.5,4.49-.71,6.25,1.34,1.63,2.55,2.82,3.64,3.56v-14.61H1.13v-3.61h7.52v-4.62H1.96v-3.61h6.69Zm29.88,4.27h-7.69c.17,4.05,.5,7.57,1.04,10.52,.08,.48,.17,.92,.25,1.28,1.13-2.6,2.17-5.85,3.13-9.72l3.34,1.54c.25,.18,.42,.39,.42,.7,0,.26-.33,.48-1,.71-1.5,4.88-2.92,8.54-4.18,11-.13,.22-.25,.44-.38,.62,.25,.62,.5,1.19,.75,1.72,.46,.88,.88,1.28,1.21,1.28,.25,0,.71-1.76,1.3-5.37l2.93,2.6c-1.59,5.19-2.93,7.75-4.05,7.75-.92,0-2.01-.97-3.34-2.95-.38-.53-.71-1.14-.96-1.76-.38,.48-.75,.92-1.09,1.32-1.21,1.41-2.63,2.73-4.26,4.05l-2.59-2.73c1.84-1.28,3.3-2.6,4.43-3.92,.67-.71,1.34-1.5,1.96-2.38-.58-1.72-1.09-3.61-1.46-5.72-.5-2.73-.84-6.25-1-10.52h-3.3v15.93c1.42-.57,2.84-1.23,4.26-1.98v3.43c-1.92,1.23-4.93,2.82-8.99,4.8-.29,.62-.58,.88-.84,.88-.29,0-.46-.22-.5-.7l-.96-4.14c1.17-.26,2.3-.57,3.43-.97v-20.86h6.77c-.08-1.85-.08-3.78-.08-5.85l3.43,.7c.42,.09,.67,.26,.67,.53,0,.35-.17,.75-.5,1.19,0,1.19,0,2.33,.04,3.43h7.82v3.61Zm.33-6.34l-2.63,2.55c-1.5-1.28-2.97-2.29-4.39-3.08l2.42-2.42c1.59,.84,3.09,1.8,4.6,2.95Z"/><path class="cls-1" d="M14.21,92.09v29.57h-3.59v-2.24H5.89v4.14H2.3v-31.46H14.21Zm-3.59,12.41v-8.98H5.89v8.98h4.72Zm0,11.49v-8.41H5.89v8.41h4.72Zm14.21-22.18v-5.68l3.3,.31c.58,.09,.92,.27,.92,.57,0,.18-.21,.48-.63,.88v3.92h10.11v3.48h-10.11v5.5h9.11v3.61h-4.56v4.45h5.89v3.61h-5.89v8.93c0,1.45-.54,2.51-1.59,3.21-.88,.7-3.05,1.1-6.56,1.1l-1.46-3.78h3.84c1.34,0,2.09-.4,2.17-1.19v-8.27H15.84v-3.61h13.54v-4.45h-12.58v-3.61h8.02v-5.5H15.84v-3.48h8.99Zm0,26.49l-2.8,2.6c-1.5-1.71-2.97-3.08-4.39-4.14l2.59-2.6c1.59,1.14,3.09,2.55,4.6,4.14Z"/><path class="cls-1" d="M14.46,133.98c.33,.18,.54,.35,.54,.57,0,.44-.33,.79-.96,1.06-1.34,3.08-2.59,5.81-3.76,8.1v28.34h-3.76v-21.92c-1.09,1.67-2.3,3.43-3.59,5.24l-2.76-2.95c2.42-3.08,4.51-6.16,6.18-9.33,1.59-2.9,3.18-6.47,4.76-10.78l3.34,1.67Zm22.44,13.64l-12.87,2.68c.17,1.5,.42,2.77,.75,3.83,1.13,4.05,2.8,7.3,4.97,9.77,1.67,2.03,3.09,2.99,4.18,2.99,.17,0,.33-.13,.59-.48,.21-.27,.63-1.5,1.21-3.65l3.3,2.9c-.71,1.98-1.38,3.39-2.01,4.27-.84,1.14-1.75,1.76-2.76,1.76-1.46,0-2.97-.62-4.51-1.85-1.92-1.45-3.8-3.56-5.56-6.43-1.92-3.17-3.22-7-3.97-11.48-.08-.26-.12-.57-.12-.84l-8.02,1.67-.17-3.79,7.82-1.63c-.33-3.87-.46-8.84-.46-14.87l4.1,.44c.63,.09,.96,.31,.96,.62,0,.35-.38,.92-1.13,1.71,0,4.4,.12,8.14,.42,11.31l12.96-2.73,.33,3.79Zm-1.96-7.57l-2.93,2.77c-1.76-2.51-3.43-4.53-5.1-6.03l2.63-2.6c1.84,1.63,3.64,3.56,5.39,5.85Z"/><path class="cls-1" d="M19.1,202.14l-1.46-1.89c1.38-1.14,2.21-2.51,2.47-4.05h-2.84v-5.63h5.35v4.8c0,2.64-1.17,4.93-3.51,6.78Z"/><path class="cls-1" d="M9.61,243.19v-5.15l3.34,.31c.59,.04,.92,.22,.92,.53,0,.22-.25,.53-.67,.88v3.43h6.23v3.43h-6.23v6.25c2.26-.35,4.51-.79,6.73-1.28v3.3c-3.51,.88-8.94,1.98-16.34,3.43-.29,.44-.58,.66-.84,.66s-.42-.22-.42-.62l-.88-3.83c2.76-.26,5.48-.62,8.15-1.06v-6.87H2.47v-3.43h7.15Zm10.95-20.11v3.43H12.2l-3.22,7.26c2.21-.31,4.39-.66,6.52-1.05-.5-.88-.96-1.67-1.46-2.42l2.3-1.89c1.46,1.89,2.93,4.27,4.39,7.13,.75-1.59,1.38-3.26,1.88-4.93,.67-2.07,1.3-5.37,1.88-9.95l3.76,.71c.42,.18,.63,.39,.63,.66,0,.35-.38,.62-1.13,.88-.33,2.16-.67,4.05-1,5.68h11.79v3.61h-3.18c-.33,4.14-.79,7.44-1.46,9.9-.59,2.46-1.34,4.62-2.22,6.56,0,.09,.04,.13,.08,.13,2.01,3.12,4.72,5.9,8.07,8.32l-3.59,2.95c-2.42-2.2-4.56-4.62-6.31-7.39-.08-.13-.17-.26-.25-.4-.58,.93-1.25,1.76-1.96,2.55-1.59,1.67-3.64,3.39-6.14,5.24l-2.97-3.26c2.42-1.32,4.26-2.55,5.52-3.74,1.42-1.23,2.59-2.64,3.59-4.27-1.38-2.73-2.63-6.03-3.72-9.9l2.8-1.72c.84,2.9,1.76,5.46,2.84,7.7,.42-1.19,.79-2.46,1.13-3.83,.58-2.2,1.04-5.15,1.38-8.85h-6.27c-.08,.26-.17,.53-.21,.71-.92,2.86-2.22,5.85-3.97,8.93l-2.93-2.6c.5-.79,.92-1.58,1.34-2.42l-1.96,1.41c-.42-.92-.79-1.8-1.17-2.68-2.97,.66-7.44,1.5-13.37,2.51-.29,.44-.58,.66-.84,.66s-.38-.18-.38-.57l-.75-3.52c1.09-.09,2.22-.22,3.3-.35l3.47-7.74H1.63v-3.43H20.56Z"/><path class="cls-1" d="M8.61,276.5c.33,.13,.54,.31,.54,.53,0,.18-.42,.35-1.17,.53-.08,.35-.17,.62-.21,.88h13.79v3.21c2.01-4.75,3.64-10.34,4.89-16.81l3.09,1.19c.42,.18,.67,.35,.67,.53s-.12,.35-.33,.53c-.25,.18-.71,1.72-1.34,4.58-.08,.35-.17,.66-.25,.92h10.24v3.61h-1.84c-.29,7.57-1.25,13.12-2.84,16.68-.33,.7-.67,1.36-1,1.94,1.5,2.16,3.55,4.27,6.19,6.29l-2.8,3.12c-2.3-2.07-4.18-4.14-5.6-6.25-1.92,2.33-4.35,4.36-7.27,6.07l-2.63-2.95c3.34-2.03,5.98-4.18,7.9-6.51-.08-.09-.12-.22-.17-.35-1.42-2.77-2.42-6.82-2.97-12.1-.29,.84-.58,1.58-.84,2.29l-3.09-1.85c-.13,7.66-.46,12.54-.96,14.74-.42,2.55-1.3,4.27-2.59,5.24-1.42,.97-3.76,1.5-7.06,1.5l-1.8-3.96c3.59,0,5.73-.26,6.39-.88,.63-.44,1.13-1.5,1.5-3.17,.5-1.8,.84-6.51,.92-14.17H6.69c-.25,.7-.54,1.36-.79,1.98-.21,.44-.38,.79-.54,1.1H14.71v11.18h-6.56v2.07h-3.09v-12.72c-.58,1.06-1.17,2.03-1.8,2.9l-3.09-2.07c1.25-1.5,2.21-3.08,2.97-4.71,.75-1.54,1.42-3.65,2.09-6.29l3.38,1.19Zm1.38-11.88c.63,.09,.96,.26,.96,.57,0,.18-.25,.48-.67,.84v8.98h-3.59v-3.3H1.46v-3.79H6.69v-3.61l3.3,.31Zm1.59,28.43v-5.02h-3.43v5.02h3.43Zm5.77-28.43c.58,.09,.92,.26,.92,.57,0,.18-.21,.48-.63,.84v2.07h4.72v3.79h-4.72v4.84h-3.59v-12.41l3.3,.31Zm11.24,16.9c.33,4.05,1.09,7.3,2.22,9.77,.08-.18,.21-.39,.29-.57,1.34-3.08,2.09-7.92,2.21-14.52h-5.98c-.58,1.98-1.17,3.87-1.75,5.68l3.01-.35Z"/><path class="cls-1" d="M18.43,314.87v-6.56l3.43,.31c.67,.09,1,.26,1,.57,0,.22-.25,.57-.67,1.01v4.66h13.42v3.43h-13.42v6.21h16.17v3.61h-14.71c3.13,3.87,5.64,6.51,7.57,7.83,2.26,1.94,5.1,3.7,8.61,5.37l-3.59,3.79c-3.38-2.33-6.19-4.66-8.36-7-1.88-1.85-3.76-4.31-5.68-7.39v15.45h-3.76v-15.27c-2.3,3.52-4.6,6.38-6.85,8.54-2.34,2.2-5.18,4.09-8.48,5.68l-3.09-3.26c4.01-1.76,7.48-3.83,10.45-6.29,2.05-1.67,4.22-4.14,6.56-7.44H1.46v-3.61H18.43v-6.21H4.26v-3.43h14.17Z"/><path class="cls-1" d="M18.14,356.97v-4.49l3.43,.31c.63,.09,.96,.26,.96,.57,0,.22-.25,.57-.67,1.01v2.6h14.71v3.79h-14.71v12.23c2.34,3.61,4.6,6.16,6.81,7.66,2.55,2.33,5.85,4.14,9.86,5.37l-3.09,4.14c-4.35-2.51-7.56-4.8-9.61-6.91-1.34-1.28-2.67-2.86-3.97-4.75v13.55h-3.72v-13.38c-1.46,1.89-2.84,3.43-4.1,4.58-2.38,2.2-5.6,4.53-9.65,6.91l-3.59-3.43c4.1-1.94,7.61-4,10.53-6.29,1.92-1.41,4.22-3.78,6.81-7.13v-12.54H3.09v-3.79h15.05Zm-6.31,6.16c.38,.18,.58,.35,.58,.53,0,.26-.25,.53-.67,.88-.25,1.23-.46,2.29-.71,3.17,1.46,2.11,3.18,3.92,5.14,5.41l-2.8,2.6c-1.46-1.5-2.67-2.99-3.64-4.4-.08,.09-.12,.18-.12,.22-.92,1.94-2.34,3.79-4.22,5.54l-2.8-2.24c.96-.88,1.8-1.76,2.47-2.64,.84-1.06,1.55-2.38,2.13-3.96,.67-1.85,1.13-3.92,1.46-6.12l3.18,1.01Zm20.56,.18c.38,.18,.58,.35,.58,.53,0,.26-.25,.53-.67,.88-.21,1.01-.42,1.89-.67,2.68,1.67,2.2,3.64,4.14,5.89,5.72l-2.76,2.6c-1.75-1.67-3.22-3.3-4.39-4.88-.04,.04-.04,.09-.04,.09-.84,1.76-2.13,3.39-3.89,4.97l-2.8-2.25c.88-.79,1.63-1.58,2.26-2.38,.75-.97,1.38-2.16,1.96-3.56,.58-1.63,1.04-3.43,1.34-5.41l3.18,1.01Z"/></g></g></svg>