<?xml version="1.0" encoding="UTF-8"?><svg id="_層_2" xmlns="http://www.w3.org/2000/svg" viewBox="0 0 120.73 320.6"><defs><style>.cls-1{fill:#231815;}</style></defs><g id="_層_1-2"><g><path class="cls-1" d="M85.18,22.57c-1.08,6.48-3.49,18.85-5.18,24.46l-4.82-2.54c2.98-5.62,6.31-15.93,8.26-22.52l1.74,.59Zm-1.85-7.67c-1.54-2.86-4.62-7.67-6.77-10.53l1.18-1.51c3.23,2.16,7.23,5.72,9.39,8.37l-3.8,3.67Zm34.37,36.02c-5.85-1.24-10.72-3.08-14.67-6.59-4.77,3.46-11.03,5.51-18.93,6.64l-.46-1.89c7.18-1.51,12.88-4,16.98-7.34-1.59-2-3.03-4.37-4.26-7.34-2.46,3.29-5.54,6.1-9.13,8.42l-1.03-1.4c5.28-4.37,8.98-10.15,10.72-16.96l4.05,1.4c-.51,1.4-1.08,2.7-1.74,4h8.26l.72-.7,4.46,1.94c-1.64,4.43-3.85,7.94-6.72,10.75,4,2.27,8.77,3.19,14.42,3.67l-2.67,5.4Zm-23.14-33.86h-7.39v-2.43h12.31v-5.35h-9.34v-2.43h9.34V.59h4.51V6.86h10.31v2.43h-10.31v5.35h13.7v2.43h-9.8v2.81c0,2.59,1.03,2.75,4.26,2.7,3.28-.05,4.26-.54,5.08-1.35l1.69,3.4c-1.18,1.03-2.36,1.73-6.72,1.73-6.46,0-8.52-.49-8.52-5.78v-3.51h-4.67c-.92,5.83-4.87,11.23-12.67,13.61l-.77-1.78c6.62-3.19,8.26-7.07,8.98-11.83Zm2.87,15.82c1.54,2.86,3.33,5.08,5.39,6.8,2.05-2.16,3.54-4.64,4.41-7.4h-9.39c-.15,.22-.26,.43-.41,.59Z"/><path class="cls-1" d="M99.91,99.47h19.24v2.97h-43.04v-2.97h19.08v-11.77h-13.9v-2.7h32.73v2.7h-14.11v11.77Zm-18.83-26.3h-4.51v-10.91h21.65c-2.36-2.16-5.95-4.91-8.46-6.75l.72-1.84c3.33,.81,8.82,2.7,11.8,4.54l-2.46,4.05h18.67v10.53h-4.51v-8.1h-8.98v8.96c0,2,.56,2.75,4.82,2.75,3.69,0,5.03,.11,6.93-1.78l2.57,3.67c-1.74,2.38-4.67,2.48-10.82,2.48-7.13,0-7.9-1.57-7.9-5.83v-10.26h-6.16l-.05,2.59c-.15,9.18-7.59,15.23-16.93,17.23l-.62-1.84c7.13-2.54,12.77-7.4,12.93-15.71l.05-2.27h-8.72v8.48Z"/><path class="cls-1" d="M117.19,113.94v42.5h-4.72v-5.35h-30.11v5.51h-4.72v-42.66h39.55Zm-4.72,34.72v-8.59h-6.51c-4.46,0-5.49-2.11-5.49-7.13v-16.58h-6.05c-.1,16.25-1.8,23.33-10.46,28.95l-1.13-1.51c6.26-6.37,7.03-11.45,7.08-27.43h-7.54v32.29h30.11Zm0-32.29h-7.59v15.93c0,2.65,.51,3.46,3.08,3.46h4.51v-19.39Z"/><path class="cls-1" d="M74.87,189.97l-.67-1.73c7.44-3.13,12.47-7.34,16.26-12.69h-14.06v-2.43h18.78v-4.05c-6,.38-11.9,.49-16.06,.38l-.31-1.89c15.24-.59,24.93-2.48,32.06-5.45l4.05,4c-3.49,1.19-9.18,2.05-15.24,2.59v4.43h18.88v2.43h-16.67c6.21,5.72,12.67,7.4,18.83,8.53l-2.57,4.86c-5.03-1.13-13.08-5.35-18.47-12.96v9.5h-4.51v-9.34c-3.9,6.16-11.23,10.96-20.31,13.82Zm25.7,7.07h19.29v2.43h-19.29v7.51c0,5.56-4.21,9.23-13.7,1.46l.72-1.84c7.18,2.43,8.46,1.89,8.46-1.03v-6.1h-20.52v-2.43h20.52v-4.1l3.85,.92c1.69-1.3,3.33-2.92,4.62-4.59h-21.14v-2.43h21.91l1.23-.7,4.77,3.56c-2.57,2.38-7.7,4.81-10.72,5.99v1.35Z"/><path class="cls-1" d="M93.29,234.25c-1.08,2.43-2.72,5.08-4.62,7.67l-.15,24.68h-4.46v-19.28c-2.92,2.97-6.16,5.67-9.39,7.61l-.97-1.62c6.41-5.67,11.85-13.18,14.57-21.28l5.03,2.21Zm26.83-11.5v2.43h-12.36v6.43h-4.51v-6.43l-11.54,.05v5.72h-4.51v-5.72h-12.31v-2.43h12.31v-6.43h4.51v6.43l11.54-.05v-6.37h4.51v6.37h12.36Zm-2.15,28.78c3.13,10.26,1.85,13.28-3.75,13.66-3.23,.22-6.05,.22-9.29,0-5.18-.32-7.03-.92-7.03-6.7v-24.68h4.72v14.31c4-2.7,7.34-6.26,10.41-10.53l4.82,3.29c-4.26,3.78-9.64,7.4-15.24,9.4v7.94c0,2.05,.46,2.38,2.87,2.59,2.51,.22,4.92,.27,7.44,0,2.98-.32,3.39-1.24,3.18-9.23l1.85-.05Z"/><path class="cls-1" d="M117.71,272.65v47.68h-4.51v-3.19h-31.5v3.29h-4.51v-47.79h40.53Zm-4.51,2.43h-31.5v39.64h31.5v-39.64Zm-29.7,31.75l-.62-1.84c3.49-1.46,7.13-3.35,9.9-5.83h-5.9v-8.8h21.03v8.8h-9.64c-1.08,1.03-2.26,1.94-3.49,2.7v5.51c2.05-.59,3.95-1.19,5.39-1.67l.72,1.78c-4.16,2.48-11.18,5.13-14.83,6.16l-1.44-3.83c1.69-.27,3.8-.76,5.95-1.3v-4.27c-2.72,1.24-5.23,2.05-7.08,2.59Zm28.06-18.79h-28.37v-2.43h12v-3.13h-9.9v-2.43h9.9v-3.56h4.41v3.56h9.95v2.43h-9.95v3.13h11.95v2.43Zm-20.37,8.75h12.41v-4.05h-12.41v4.05Zm20.88,4.48c-1.64,1.57-3.85,2.92-5.75,4,2.16,1.3,4.21,2.75,5.95,4.21l-3.03,3.78c-3.44-3.62-6.98-7.07-11.59-10.53l.87-1.67c1.9,.86,3.95,1.89,5.95,3.08,1.59-1.67,3.23-3.73,4.31-5.45l3.28,2.59Z"/><path class="cls-1" d="M21.29,41.04c-4,2.48-13.95,5.94-18.98,7.13l-1.49-5.51c2.1-.11,4.87-.43,7.8-.86V25.54H1.18v-2.43h7.44v-5.78H3.85v-.49c-.82,.76-1.64,1.46-2.46,2.11l-1.13-1.51C4,13.66,8.16,6.21,9.85,0l4.77,1.73c-.31,.7-.62,1.4-.97,2.11,2.72,1.67,5.95,4.32,8.16,6.75l-3.28,3.24c-1.79-2.97-4-5.99-5.8-8.21-1.9,3.4-4.26,6.59-6.87,9.29h12.72v2.43h-5.59v5.78h7.23v2.43h-7.23v15.5c2.92-.54,5.69-1.13,7.8-1.78l.51,1.78Zm-13.95-2.11l-4,.86c-.1-3.4-.56-7.56-1.03-11.12l1.69-.32c1.44,3.19,2.77,7.18,3.33,10.58Zm6.82-.76c.87-3.51,1.54-7.61,1.8-10.64l4.21,1.24c-.92,3.08-2.46,6.75-4.46,9.94l-1.54-.54Zm32.22,6.8l-3.9,4.97c-4.41-2.97-10.62-9.4-12.21-25.7h-3.28v19.28c2.26-.59,4.46-1.24,6.67-2l.77,1.73c-4.72,3.13-10.57,5.45-15.65,6.86l-1.64-4.91c1.9-.22,3.69-.43,5.44-.76V3.56h19.8V24.25h-10.21c.82,4.37,1.9,7.67,3.28,10.26,2.36-2.43,4.05-4.91,5.75-7.99l4.36,3.24c-2.46,2.43-6,4.86-9.13,6.48,2.51,3.83,5.75,6.16,9.95,8.75ZM26.98,12.64h10.98V5.99h-10.98v6.64Zm0,9.18h10.98v-6.75h-10.98v6.75Z"/><path class="cls-1" d="M6.72,88.83c.26,6.37-.82,11.93-1.95,15.44l-4.77-2.11c2.05-3.24,4.1-7.78,4.92-13.55l1.79,.22Zm-2.05-6.64c2.67-3.29,4.62-6.64,6.51-10.69-2.87,1.03-6.05,2-8.98,2.48l-1.08-4.48h3.18c2-4.21,3.95-9.83,5.18-15.44l4.77,1.67c-2.05,5.02-4.82,9.61-7.85,13.72,2.05-.11,4.1-.22,5.9-.43,.82-1.84,1.59-3.83,2.46-5.99l4.21,2.21c-4.31,8.15-7.59,12.64-12,16.79,2.82-.22,5.44-.59,8.05-1.08-.41-1.35-.82-2.65-1.28-4l1.49-.81c2.1,2.75,3.64,5.29,5.03,8.96l-3.8,1.67c-.31-1.46-.62-2.75-.97-4-4.31,1.94-8.62,3.35-13.7,4.37l-1.23-4.86c1.44,0,2.77-.05,4.1-.11Zm5.95,5.67c1.33,3.73,2.56,7.83,3.23,11.93l-4.51,.7c.1-4.54-.05-8.32-.41-12.31l1.69-.32Zm36.42,11.56l-3.54,5.51c-3.18-1.73-6.98-4.37-10.26-8.59-3.9,3.89-8.72,6.59-14.83,8.75l-.77-1.73c5.85-2.86,10.16-6.21,13.39-10.31-2.62-4.43-4.67-10.15-5.33-17.77h-.05c-.92,11.88-3.44,21.71-10.16,27.59l-1.33-1.3c1.49-1.73,2.67-3.78,3.59-6.05l-1.95,.97c-.82-3.67-1.59-6.53-2.72-9.67l1.54-.76c1.54,2.05,3.03,4.27,4.21,6.53,2.51-8.21,2.77-19.22,2.77-32.56h-4.51v-2.43h22.16c-.92,5.4-1.64,10.04-2.82,15.23h2.15l.97-1.03,4.57,2c-1.95,8.1-4.46,14.15-7.8,18.79,3.08,2.92,6.67,4.91,10.72,6.8ZM26.11,60.05c0,4.43-.1,8.69-.31,12.8h6.21c1.03-5.18,1.69-9.45,2.1-12.8h-8Zm7.39,29.43c2.36-4.1,3.95-8.75,5.08-14.2h-11.13c1.38,6.21,3.44,10.75,6.05,14.2Z"/><path class="cls-1" d="M1.28,138.56l-.77-1.78c5.03-2.7,9.13-5.51,10.98-12.26H2.15v-2.43H12.05c.26-1.62,.46-3.46,.51-5.51h-3.75c-1.44,2.05-2.98,3.89-4.36,5.13l-1.28-1.35c2.15-3.4,4-8.21,4.82-12.53l4.92,1.35c-.62,1.51-1.54,3.24-2.56,4.97h14.67v2.43h-7.75c-.1,2-.26,3.83-.56,5.51h9.44v2.43h-10.06c-.15,.54-.36,1.08-.51,1.62,3.75,1.24,7.44,2.97,9.95,4.7l-2.72,4.27c-2.05-2.11-4.92-4.54-8.16-6.91-2.67,5.18-7.29,8.21-13.39,10.37Zm8.05-2.59h28.93v22.19h-4.51v-3.46H13.85v3.73h-4.51v-22.46Zm4.51,7.72h19.9v-5.29H13.85v5.29Zm0,8.59h19.9v-6.16H13.85v6.16Zm30.37-39.1v20.57h-4.41v-3.67h-8.26v4.21h-4.41v-21.11h17.08Zm-4.41,14.47v-12.04h-8.26v12.04h8.26Z"/><path class="cls-1" d="M8,197.69l1.75,.54c-.67,4.81-2.51,9.5-5.23,12.8l-3.9-3.73c3.23-2.38,6.05-5.08,7.39-9.61Zm27.86-6.97H1.23v-2.43H35.86v-2.54H6.21v-2.21H40.27v4.75h5.8v2.43h-5.8v5.08H5.9v-2.21h29.96v-2.86Zm-25.09-11.77H2.15v-2.21H10.77v-3.02H3.9v-2.21h6.87v-2.81H2.77v-2.21H10.77v-3.83h4.31v3.83h6.77v2.21h-6.77v2.81h6.21v2.21h-6.21v3.02h6.77v2.21h-6.77v3.24h-4.31v-3.24Zm24.06,20.84c2.31,8.15,.36,10.42-3.9,10.96-3.03,.38-7.29,.49-10.46,.22-4.72-.38-7.75-.86-7.75-4.86v-8.75h4.51v6.21c0,2.16,.72,2.86,3.59,3.08,3.44,.27,6.87,.16,9.08-.16,2.51-.38,3.03-.97,3.08-6.7h1.85Zm-14.98-.97l.67-1.78c2.72,.59,6,1.4,9.49,3.56l-2.51,4.21c-2.15-2.05-5.03-4.27-7.64-5.99Zm11.44-19.87h-7.49v-2.21h7.49v-3.02h-6.46v-2.21h6.46v-2.81h-7.49v-2.21h7.49v-3.83h4.31v3.83h8.36v2.21h-8.36v2.81h7.59v2.21h-7.59v3.02h9.54v2.21h-9.54v3.24h-4.31v-3.24Zm15.24,27.43l-4.05,3.24c-1.85-4.16-3.54-7.18-5.85-10.91l1.33-1.13c2.56,1.89,5.8,4.81,8.57,8.8Z"/><path class="cls-1" d="M46.58,259.53l-1.74,5.72c-9.08,.65-20.31,.76-26.32-1.19-3.39-1.08-6.41-2.92-8.88-5.72-2.26,3.51-5.03,6.43-8.31,8.69l-1.13-1.57c2.36-2.05,5.03-5.24,7.23-10.04-1.9-3.08-3.28-6.91-4.1-11.77l1.8-.54c.87,3.51,2,6.53,3.64,9.07,1.33-3.83,2.41-8.53,2.98-14.31H7.28c-.82,1.57-1.59,2.92-2.21,3.73l-3.64-1.62c2.41-4.16,5.95-11.45,8.21-17.55H1.18v-2.32H15.34c-1.38,4-4.26,10.37-6.77,15.34h3.08l.82-.86,4.05,1.62c-.67,7.24-2.36,13.72-5.18,19.17,1.59,1.57,3.49,2.75,5.75,3.67,6.67,2.65,19.55,1.73,29.5,.49Zm-19.44-29.27H15.9v-2.32h11.24v-4.32h-8.82v-2.43h8.82v-4.81h4.41v4.81h10v6.75h4.16v2.32h-4.16v7.29h-10v4.27h10.47v2.43h-10.47v5.02h12.83v2.43h-12.83v7.13h-4.41v-7.13H15.85v-2.43h11.29v-5.02h-9.44v-2.43h9.44v-4.27h-9.08v-2.43h9.08v-4.86Zm4.41-2.32h5.95v-4.32h-5.95v4.32Zm0,7.18h5.95v-4.86h-5.95v4.86Z"/><path class="cls-1" d="M1.23,285.71l-1.08-1.51c4.05-4,6.67-8.26,8.41-14.42l4.92,1.46c-.51,1.24-1.28,2.7-2.31,4.21h13.13v2.43H15.54c1.23,1.24,2.56,2.97,3.8,4.86l-3.8,1.46c-.62-2.11-1.33-4.21-2.36-6.32h-3.75c-2.21,2.81-5.03,5.67-8.21,7.83Zm45.76,27.76l-2.72,5.35c-5.18-.86-13.85-5.56-18.52-12.74v14.53h-4.41v-14.36c-3.64,5.67-12.77,10.48-20.47,12.37l-.62-1.73c7.54-2.97,12.83-6.26,16.88-11.39H1.74v-2.43H21.34v-4.59c-1.23,.86-2.67,1.57-4.31,2.27l-.87-1.73c2.26-1.46,3.69-2.75,4.57-4.27-4,1.84-12.06,4.21-17.6,5.13l-1.18-4.48c2.92-.16,5.44-.38,7.8-.65v-7.18H2.62v-2.43H21.19v2.43h-7.13v6.59c2.15-.38,4.36-.81,6.77-1.4l.31,1.19c1.03-2.32,1.03-5.13,1.03-9.34h15.95v8.1c0,2,.36,2.32,2.51,2.32,2.36,0,2.77-.49,2.57-5.99h1.85c2.57,8.69,.51,9.83-4.51,9.88-5.59,.05-6.67-1.08-6.67-5.67v-6.21h-7.39c0,5.56-1.64,8.8-4.72,11.12h4v4.91h19.7v2.43H27.6c5.75,5.24,12.21,6.8,19.39,7.99Zm-25.6-31c3.18-3.56,5.39-7.99,6.82-12.85l4.72,1.67c-.67,1.4-1.49,2.81-2.36,4.1h15.49v2.43h-9.95c1.33,1.13,2.51,2.48,3.74,4.27l-3.74,1.62c-.77-2-1.49-3.83-2.62-5.89h-4.72c-2.16,2.65-4.46,4.75-6.21,6.05l-1.18-1.4Zm6,6.26l1.54-.65c1.69,2.7,3.08,5.78,3.8,8.53l-3.69,1.03c-.26-2.54-.92-5.94-1.64-8.91Z"/></g></g></svg>